<svg width="30" height="30" viewBox="0 0 30 30" fill="none" xmlns="http://www.w3.org/2000/svg">
<path d="M17.4255 12.0261H16.186C16.1874 12.5123 16.191 14.1445 16.1934 14.6103C16.6375 14.608 17.1411 14.6058 17.4255 14.6058C18.1371 14.6058 18.7383 14.0151 18.7383 13.3159C18.7383 12.6168 18.1371 12.0261 17.4255 12.0261Z" fill="#D9D9D9"/>
<path d="M8.43311 16.0753H10.4825L9.46254 13.3318L8.43311 16.0753Z" fill="#D9D9D9"/>
<path d="M29.5604 17.616L27.5996 16.4669C27.6618 15.9514 27.6923 15.4672 27.6923 15C27.6923 14.5328 27.6618 14.0487 27.5996 13.5332L29.5604 12.3841C29.9807 12.1377 30.1248 11.5921 29.882 11.1654L25.7125 3.83472C25.4698 3.40803 24.9323 3.26178 24.5119 3.50819L22.5593 4.65247C21.7889 4.07405 20.948 3.58438 20.0482 3.19011V0.892154C20.0482 0.399447 19.6547 0 19.1693 0H10.8306C10.3452 0 9.95168 0.399447 9.95168 0.892154V3.19005C9.05197 3.58426 8.21104 4.07405 7.44059 4.65241L5.48801 3.50813C5.06766 3.26178 4.53012 3.40797 4.28743 3.83466L0.117895 11.1654C-0.1248 11.5921 0.0192232 12.1377 0.439575 12.3841L2.40024 13.5332C2.33801 14.0487 2.30754 14.5328 2.30754 15C2.30754 15.4672 2.33801 15.9514 2.40024 16.4669L0.439575 17.616C0.0192232 17.8624 -0.1248 18.408 0.117895 18.8347L4.28743 26.1653C4.53012 26.592 5.06766 26.7383 5.48801 26.4919L7.44059 25.3476C8.21104 25.926 9.05197 26.4157 9.95168 26.81V29.1078C9.95168 29.6006 10.3452 30 10.8306 30H19.1694C19.6547 30 20.0483 29.6006 20.0483 29.1078V26.81C20.948 26.4157 21.789 25.9259 22.5594 25.3476L24.512 26.4919C24.9323 26.7383 25.4699 26.5921 25.7126 26.1654L29.8821 18.8347C30.1248 18.408 29.9808 17.8624 29.5604 17.616ZM12.7696 19.7007C12.6674 19.7399 12.5625 19.7584 12.4594 19.7584C12.1042 19.7584 11.7697 19.5383 11.637 19.181L11.1456 17.8596H7.76338L7.26662 19.1836C7.09383 19.644 6.58612 19.8751 6.13248 19.6998C5.67885 19.5244 5.45121 19.009 5.62395 18.5485C5.62395 18.5485 8.4893 10.912 8.49199 10.9053C8.65418 10.5028 9.03574 10.2424 9.46418 10.2419H9.46535C9.89332 10.2419 10.2749 10.5014 10.4378 10.9033C10.4411 10.9114 13.2815 18.5511 13.2815 18.5511C13.453 19.012 13.2237 19.5268 12.7696 19.7007ZM17.4255 16.3901C17.1401 16.3901 16.6298 16.3924 16.1835 16.3948V18.866C16.1835 19.3587 15.79 19.7582 15.3046 19.7582C14.8192 19.7582 14.4257 19.3587 14.4257 18.866C14.4257 18.866 14.4257 11.1369 14.4257 11.1369C14.4249 10.8998 14.5172 10.6721 14.6821 10.5042C14.847 10.3363 15.071 10.2419 15.3046 10.2419H17.4255C19.1187 10.2419 20.4962 11.6209 20.4962 13.316C20.4962 15.0111 19.1187 16.3901 17.4255 16.3901ZM23.3789 18.866C23.3789 19.3587 22.9854 19.7582 22.5 19.7582C22.0146 19.7582 21.6211 19.3587 21.6211 18.866V11.134C21.6211 10.6413 22.0146 10.2419 22.5 10.2419C22.9854 10.2419 23.3789 10.6413 23.3789 11.134V18.866Z" fill="#D9D9D9"/>
</svg>
