<?xml version="1.0"?>
<svg xmlns="http://www.w3.org/2000/svg" viewBox="0 0 32 32" width="512" height="512"><title>a</title><g id="_03_Api" data-name="03 Api"><path d="M28.435,12.977a12.738,12.738,0,0,0-1.506-3.631l1.417-2.091-3.6-3.6L22.655,5.07a12.778,12.778,0,0,0-3.633-1.506l-.475-2.477H13.453l-.475,2.477A12.772,12.772,0,0,0,9.346,5.07L7.255,3.654l-3.6,3.6L5.07,9.346a12.747,12.747,0,0,0-1.505,3.631l-2.478.476v5.093l2.478.477A12.759,12.759,0,0,0,5.07,22.654l-1.416,2.09,3.6,3.6,2.091-1.417a12.715,12.715,0,0,0,3.632,1.506l.475,2.478h5.094l.475-2.478a12.721,12.721,0,0,0,3.633-1.506l2.09,1.417,3.6-3.6-1.417-2.09a12.75,12.75,0,0,0,1.506-3.631l2.478-.477V13.453ZM16,24.023A8.024,8.024,0,1,1,24.023,16,8.023,8.023,0,0,1,16,24.023Z" style="fill:#5eb8e1"/><path d="M16,5.758A10.242,10.242,0,1,0,26.242,16,10.242,10.242,0,0,0,16,5.758Zm0,18.265A8.024,8.024,0,1,1,24.023,16,8.023,8.023,0,0,1,16,24.023Z" style="fill:#5555a5"/><path d="M13.878,16.405v0l-.985-2.448a.5.5,0,0,0-.462-.313h0a.5.5,0,0,0-.463.309L10.953,16.4v0l-.661,1.6a.5.5,0,1,0,.925.382l.532-1.288h1.331l.518,1.284a.5.5,0,1,0,.927-.374Zm-1.2-.306h-.516l.261-.633Z" style="fill:#837aff"/><path d="M20.306,13.3a.5.5,0,0,0-.5.5V18.2a.5.5,0,0,0,1,0V13.8A.5.5,0,0,0,20.306,13.3Z" style="fill:#837aff"/><path d="M17.155,13.3H15.882a.5.5,0,0,0-.5.5V18.2a.5.5,0,0,0,1,0V16.5h.773a1.6,1.6,0,0,0,0-3.2Zm0,2.2h-.773V14.3h.773a.6.6,0,0,1,0,1.2Z" style="fill:#837aff"/></g></svg>
