<svg width="30" height="30" viewBox="0 0 30 30" fill="none" xmlns="http://www.w3.org/2000/svg">
<path d="M24.672 13.5267C24.6481 13.5483 24.619 13.5685 24.5942 13.5895C24.5244 13.6491 24.4512 13.7081 24.3748 13.7663C24.3284 13.8014 24.282 13.8366 24.2333 13.8713C24.1484 13.9313 24.0584 13.9903 23.9665 14.0485C23.9197 14.078 23.8751 14.108 23.8269 14.137C23.6909 14.2181 23.5489 14.2974 23.3994 14.3742C23.3876 14.3803 23.3769 14.3864 23.3651 14.392C23.2095 14.4708 23.045 14.5472 22.8744 14.6217C22.8158 14.647 22.7539 14.6714 22.6939 14.6963C22.5734 14.7464 22.4506 14.7956 22.3231 14.843C22.2505 14.8702 22.1764 14.8964 22.1014 14.9227C21.9767 14.9667 21.8487 15.0094 21.7179 15.0511C21.6411 15.0755 21.5642 15.1003 21.485 15.1238C21.3415 15.1669 21.1934 15.2081 21.0434 15.2485C20.9726 15.2677 20.9033 15.2874 20.8311 15.3056C20.6065 15.3628 20.3769 15.4177 20.1387 15.4683C20.1247 15.4716 20.1097 15.4739 20.0951 15.4758C18.5581 15.8002 16.797 15.9722 14.9998 15.9722C13.2026 15.9722 11.4383 15.8006 9.90076 15.4749C9.8867 15.4735 9.87311 15.4711 9.86092 15.4683C9.62279 15.4172 9.39311 15.3628 9.16857 15.3056C9.09592 15.2874 9.02701 15.2672 8.95623 15.2485C8.80623 15.2081 8.65811 15.1669 8.51467 15.1238C8.43545 15.0999 8.35857 15.0755 8.2817 15.0511C8.15092 15.0094 8.02295 14.9667 7.89826 14.9227C7.82373 14.8964 7.7492 14.8702 7.67654 14.843C7.54904 14.7952 7.4267 14.746 7.30576 14.6963C7.24576 14.6714 7.18389 14.647 7.12529 14.6217C6.95467 14.5477 6.79061 14.4713 6.63451 14.392C6.62279 14.386 6.61201 14.3799 6.60029 14.3742C6.45029 14.2974 6.30826 14.2181 6.17279 14.137C6.12404 14.108 6.07998 14.078 6.03311 14.0485C5.94076 13.9903 5.85123 13.9313 5.76639 13.8713C5.71764 13.8366 5.67123 13.8019 5.62482 13.7663C5.54842 13.7081 5.47529 13.6491 5.40545 13.5895C5.38061 13.5685 5.35154 13.5483 5.32764 13.5267V18.2752C5.32764 19.3622 7.15998 20.4656 10.0006 21.0914C10.024 21.0938 10.047 21.097 10.0695 21.1022C10.8092 21.2597 11.6103 21.3783 12.4419 21.457C13.2734 21.5358 14.1355 21.5752 14.9975 21.5752C16.7215 21.5752 18.4461 21.4177 19.9269 21.1027C19.9508 21.097 19.9756 21.0928 20 21.0914C22.8397 20.4656 24.6715 19.3627 24.6715 18.2752L24.672 13.5267ZM7.78717 18.7439C7.05357 18.7439 6.45639 18.1472 6.45639 17.4131C6.45639 16.6791 7.05311 16.0824 7.78717 16.0824C8.52123 16.0824 9.11748 16.6791 9.11748 17.4131C9.11748 18.1472 8.52076 18.7439 7.78717 18.7439ZM19.6419 19.3636C19.6419 19.6228 19.4323 19.8324 19.1731 19.8324C18.9139 19.8324 18.7044 19.6228 18.7044 19.3636V17.4131C18.7044 17.1539 18.9139 16.9444 19.1731 16.9444C19.4323 16.9444 19.6419 17.1539 19.6419 17.4131V19.3636ZM21.4564 18.9783C21.4564 19.2375 21.2469 19.447 20.9876 19.447C20.7284 19.447 20.5189 19.2375 20.5189 18.9783V17.0278C20.5189 16.7686 20.7284 16.5591 20.9876 16.5591C21.2469 16.5591 21.4564 16.7686 21.4564 17.0278V18.9783ZM23.18 18.3881C23.18 18.6474 22.9704 18.8569 22.7112 18.8569C22.452 18.8569 22.2425 18.6474 22.2425 18.3881V16.4377C22.2425 16.1785 22.452 15.9689 22.7112 15.9689C22.9704 15.9689 23.18 16.1785 23.18 16.4377V18.3881Z" fill="white"/>
<path d="M7.78732 10.6908C7.57029 10.6908 7.39404 10.867 7.39404 11.0841C7.39404 11.3011 7.57029 11.4769 7.78732 11.4769C8.00436 11.4769 8.18014 11.3006 8.18014 11.0841C8.18014 10.8675 8.00389 10.6908 7.78732 10.6908Z" fill="white"/>
<path d="M14.9998 1.875C9.29982 1.875 5.32764 3.61922 5.32764 5.18484C5.32764 6.26625 7.2317 7.39828 10.0662 8.00156C13.0297 8.63344 16.97 8.63344 19.9334 8.00156C22.7675 7.39828 24.6715 6.26625 24.6715 5.18484C24.6715 3.61922 20.6998 1.875 14.9998 1.875ZM8.22498 4.57453C7.90904 4.70531 7.75576 4.79484 7.75436 4.79578C7.67982 4.84031 7.59732 4.86094 7.51623 4.86094C7.35592 4.86094 7.20029 4.77938 7.11264 4.63219C6.98092 4.41 7.05264 4.12406 7.27389 3.99141C7.29451 3.97922 7.48482 3.86672 7.86639 3.70875C8.10498 3.60984 8.38014 3.72281 8.47904 3.96234C8.57795 4.20187 8.46451 4.47609 8.22545 4.575L8.22498 4.57453ZM15.0083 3.45516C13.2467 3.48516 11.6478 3.65625 10.2561 3.96187C10.2223 3.96937 10.1881 3.97266 10.1548 3.97266C9.93967 3.97266 9.74561 3.82359 9.69732 3.60469C9.64154 3.35203 9.80186 3.10172 10.0545 3.04641C11.5072 2.72672 13.1684 2.54906 14.9914 2.51766C15.2642 2.50922 15.4639 2.71969 15.4686 2.97797C15.4733 3.23719 15.2665 3.45047 15.0083 3.45516Z" fill="white"/>
<path d="M24.672 6.97972C24.649 7.00034 24.6204 7.02003 24.5965 7.04019C24.5248 7.10159 24.4498 7.16206 24.3706 7.22159C24.3261 7.25534 24.2815 7.28909 24.2342 7.3219C24.147 7.38378 24.0542 7.44425 23.959 7.50378C23.9145 7.5319 23.8723 7.56003 23.8264 7.58769C23.6848 7.67206 23.5371 7.75456 23.3796 7.83425C23.3773 7.83565 23.375 7.83659 23.3726 7.838C23.2123 7.91956 23.0417 7.99784 22.8654 8.07425C22.8125 8.09722 22.7557 8.11925 22.7014 8.14175C22.5743 8.19425 22.445 8.24581 22.3109 8.29597C22.2429 8.32128 22.1736 8.34565 22.1037 8.37003C21.9734 8.41597 21.8403 8.4605 21.7034 8.50362C21.6303 8.52706 21.5567 8.55003 21.4812 8.57253C21.3336 8.61659 21.1812 8.65925 21.027 8.7005C20.959 8.71878 20.8929 8.73753 20.8236 8.75534C20.5981 8.81253 20.367 8.86784 20.1275 8.91847C18.5825 9.24753 16.8092 9.42144 14.9989 9.42144C13.1886 9.42144 11.4148 9.24753 9.87027 8.918C9.63168 8.86737 9.40152 8.81253 9.17605 8.75534C9.10434 8.73706 9.0359 8.71737 8.96605 8.69862C8.81418 8.65784 8.66418 8.61659 8.51887 8.573C8.44152 8.55003 8.36652 8.52612 8.29152 8.50222C8.15793 8.46003 8.02762 8.41644 7.90012 8.37144C7.82746 8.34565 7.7548 8.32034 7.68402 8.29409C7.55324 8.24534 7.42715 8.19519 7.3034 8.14409C7.24621 8.12065 7.18715 8.09769 7.13137 8.07331C6.95605 7.99737 6.78684 7.91956 6.62699 7.83847C6.6209 7.83519 6.61527 7.8319 6.60918 7.82862C6.4559 7.75034 6.31152 7.66972 6.17324 7.58769C6.12684 7.56003 6.08371 7.53144 6.03871 7.50284C5.94402 7.44331 5.85215 7.38331 5.76543 7.3219C5.71809 7.28862 5.67309 7.2544 5.62809 7.22065C5.54934 7.16112 5.4748 7.10112 5.40309 7.04019C5.37918 7.01956 5.35059 6.99987 5.32715 6.97925V11.7249C5.32715 11.8622 5.35621 12 5.41199 12.1364C5.80387 13.0932 7.52793 14.0067 10.0268 14.5449C10.0404 14.5463 10.0545 14.5486 10.0657 14.551C10.8068 14.7089 11.6084 14.8275 12.4409 14.9063C14.9384 15.143 17.7101 15.0249 19.9329 14.551C19.9465 14.5482 19.9611 14.5458 19.9751 14.5439C22.8293 13.9289 24.6715 12.8236 24.6715 11.7244L24.672 6.97972ZM7.78715 12.4139C7.05356 12.4139 6.45637 11.8172 6.45637 11.0836C6.45637 10.35 7.05309 9.75284 7.78715 9.75284C8.52121 9.75284 9.11746 10.3496 9.11746 11.0836C9.11746 11.8177 8.52074 12.4139 7.78715 12.4139ZM19.6418 12.9207C19.6418 13.1799 19.4323 13.3894 19.1731 13.3894C18.9139 13.3894 18.7043 13.1799 18.7043 12.9207V10.9702C18.7043 10.711 18.9139 10.5014 19.1731 10.5014C19.4323 10.5014 19.6418 10.711 19.6418 10.9702V12.9207ZM21.4564 12.5353C21.4564 12.7946 21.2468 13.0041 20.9876 13.0041C20.7284 13.0041 20.5189 12.7946 20.5189 12.5353V10.5849C20.5189 10.3257 20.7284 10.1161 20.9876 10.1161C21.2468 10.1161 21.4564 10.3257 21.4564 10.5849V12.5353ZM23.18 11.9452C23.18 12.2044 22.9704 12.4139 22.7112 12.4139C22.452 12.4139 22.2425 12.2044 22.2425 11.9452V9.99472C22.2425 9.7355 22.452 9.52597 22.7112 9.52597C22.9704 9.52597 23.18 9.7355 23.18 9.99472V11.9452Z" fill="white"/>
<path d="M14.9998 28.125C20.6998 28.125 24.672 26.386 24.672 24.8255V20.0701C24.649 20.0907 24.6209 20.1099 24.597 20.1305C24.5262 20.1915 24.4517 20.2515 24.3734 20.3105C24.3289 20.3447 24.2839 20.3785 24.237 20.4118C24.1498 20.4736 24.0575 20.5341 23.9628 20.5941C23.9187 20.6218 23.877 20.6504 23.8315 20.6775C23.5447 20.8496 23.2254 21.0127 22.8758 21.166C22.8214 21.1899 22.7637 21.2124 22.7079 21.2358C22.5833 21.2879 22.4567 21.339 22.325 21.3886C22.2561 21.4144 22.1853 21.4397 22.114 21.465C21.9861 21.5105 21.8553 21.555 21.7208 21.5982C21.6462 21.6221 21.5722 21.646 21.4962 21.669C21.3504 21.713 21.2004 21.7557 21.0481 21.7969C20.9792 21.8157 20.9122 21.8349 20.8419 21.8532C20.6178 21.9113 20.3881 21.9666 20.1504 22.0186C20.1294 22.0233 20.1078 22.0261 20.0867 22.028C18.5515 22.3515 16.7937 22.5225 14.9994 22.5225C13.205 22.5225 11.4476 22.3519 9.91248 22.028C9.89139 22.0261 9.86982 22.0233 9.84873 22.0186C9.61107 21.9671 9.38139 21.9113 9.15732 21.8532C9.08654 21.8349 9.01904 21.8152 8.94967 21.7965C8.79826 21.7552 8.64873 21.713 8.50389 21.669C8.42701 21.6455 8.35201 21.6216 8.27748 21.5972C8.14389 21.5541 8.01404 21.5105 7.88654 21.465C7.81482 21.4397 7.74311 21.414 7.67326 21.3877C7.54248 21.3385 7.41686 21.2879 7.29357 21.2363C7.23686 21.2124 7.17779 21.1894 7.12248 21.165C6.94811 21.0886 6.77982 21.0104 6.62139 20.9293C6.62092 20.9293 6.62045 20.9293 6.61998 20.9283C6.46061 20.8468 6.31154 20.7629 6.16811 20.6771C6.12217 20.6494 6.07998 20.6208 6.03592 20.5932C5.9417 20.5336 5.84982 20.4732 5.76311 20.4118C5.71576 20.378 5.67029 20.3438 5.62529 20.3096C5.54748 20.2505 5.47389 20.191 5.40311 20.1305C5.3792 20.1099 5.35061 20.0902 5.32764 20.0696V24.825C5.32764 26.3855 9.29982 28.125 14.9998 28.125ZM22.2425 22.8807C22.2425 22.6215 22.452 22.4119 22.7112 22.4119C22.9704 22.4119 23.18 22.6215 23.18 22.8807V24.8316C23.18 25.0908 22.9704 25.3004 22.7112 25.3004C22.452 25.3004 22.2425 25.0908 22.2425 24.8316V22.8807ZM20.5189 23.4708C20.5189 23.2116 20.7284 23.0021 20.9876 23.0021C21.2469 23.0021 21.4564 23.2116 21.4564 23.4708V25.4213C21.4564 25.6805 21.2469 25.89 20.9876 25.89C20.7284 25.89 20.5189 25.6805 20.5189 25.4213V23.4708ZM18.7044 23.8561C18.7044 23.5969 18.9139 23.3874 19.1731 23.3874C19.4323 23.3874 19.6419 23.5969 19.6419 23.8561V25.8066C19.6419 26.0658 19.4323 26.2754 19.1731 26.2754C18.9139 26.2754 18.7044 26.0658 18.7044 25.8066V23.8561ZM7.78717 22.4119C8.52029 22.4119 9.11748 23.0086 9.11748 23.7427C9.11748 24.4768 8.52076 25.0735 7.78717 25.0735C7.05357 25.0735 6.45639 24.4768 6.45639 23.7427C6.45639 23.0086 7.05311 22.4119 7.78717 22.4119Z" fill="white"/>
<path d="M7.78732 24.1359C8.00389 24.1359 8.18014 23.9597 8.18014 23.7426C8.18014 23.5256 8.00389 23.3494 7.78732 23.3494C7.57076 23.3494 7.39404 23.5256 7.39404 23.7426C7.39404 23.9597 7.57029 24.1359 7.78732 24.1359Z" fill="white"/>
<path d="M7.78732 17.0203C7.57029 17.0203 7.39404 17.1965 7.39404 17.4135C7.39404 17.6306 7.57029 17.8068 7.78732 17.8068C8.00436 17.8068 8.18014 17.6306 8.18014 17.4135C8.18014 17.1965 8.00389 17.0203 7.78732 17.0203Z" fill="white"/>
</svg>
