<svg width="28" height="28" viewBox="0 0 28 28" fill="none" xmlns="http://www.w3.org/2000/svg">
<path d="M26.2497 1.16675H1.74967C1.44026 1.16675 1.14351 1.28966 0.924717 1.50846C0.705924 1.72725 0.583008 2.024 0.583008 2.33341V16.3334H27.4163V2.33341C27.4163 2.024 27.2934 1.72725 27.0746 1.50846C26.8558 1.28966 26.5591 1.16675 26.2497 1.16675Z" fill="white"/>
<path d="M0.583008 19.8333C0.583008 20.1428 0.705924 20.4395 0.924717 20.6583C1.14351 20.8771 1.44026 21 1.74967 21H26.2497C26.5591 21 26.8558 20.8771 27.0746 20.6583C27.2934 20.4395 27.4163 20.1428 27.4163 19.8333V17.5H0.583008V19.8333ZM13.9997 18.6667C14.1544 18.6667 14.3028 18.7281 14.4122 18.8375C14.5215 18.9469 14.583 19.0953 14.583 19.25C14.583 19.4047 14.5215 19.5531 14.4122 19.6625C14.3028 19.7719 14.1544 19.8333 13.9997 19.8333C13.845 19.8333 13.6966 19.7719 13.5872 19.6625C13.4778 19.5531 13.4163 19.4047 13.4163 19.25C13.4163 19.0953 13.4778 18.9469 13.5872 18.8375C13.6966 18.7281 13.845 18.6667 13.9997 18.6667Z" fill="white"/>
<path d="M18.6667 25.6667H17.5V22.1667H10.5V25.6667H9.33333C9.17862 25.6667 9.03025 25.7282 8.92085 25.8376C8.81146 25.947 8.75 26.0954 8.75 26.2501C8.75 26.4048 8.81146 26.5532 8.92085 26.6626C9.03025 26.772 9.17862 26.8334 9.33333 26.8334H18.6667C18.8214 26.8334 18.9697 26.772 19.0791 26.6626C19.1885 26.5532 19.25 26.4048 19.25 26.2501C19.25 26.0954 19.1885 25.947 19.0791 25.8376C18.9697 25.7282 18.8214 25.6667 18.6667 25.6667Z" fill="white"/>
</svg>
