<svg id="Layer_1" enable-background="new 0 0 512 512" height="512" viewBox="0 0 512 512" width="512" xmlns="http://www.w3.org/2000/svg"><g><g><circle cx="256" cy="256" fill="#478cf7" r="219.2"/></g><g><g><path d="m70.7 352.6c-1.5 0-2.9-.8-3.6-2.2-1-2-.2-4.4 1.8-5.4 1.9-1 4.4-.1 5.4 1.8.5 1 .6 2 .2 3.1-.3 1-1 1.8-2 2.3-.6.3-1.2.4-1.8.4zm-6.6-14.5c-1.6 0-3.1-1-3.7-2.5-10.3-25.3-15.6-52.1-15.6-79.6 0-116.4 94.7-211.2 211.2-211.2 11.7 0 23.5 1 35 2.9 5.3.9 10.7 2 16 3.3 2.1.5 3.5 2.7 2.9 4.8-.5 2.1-2.7 3.4-4.8 2.9-5.1-1.3-10.2-2.3-15.4-3.2-11.1-1.9-22.4-2.8-33.7-2.8-54.2 0-105.2 21.2-143.6 59.6-38.4 38.5-59.6 89.5-59.6 143.7 0 26.5 5 52.2 15 76.6.4 1 .4 2.1 0 3.1s-1.2 1.7-2.2 2.2c-.5.1-1 .2-1.5.2z" fill="#5e9cf7"/></g></g><g><path d="m400.7 91.3c33.9 38.6 54.5 89.2 54.5 144.7 0 121-98.1 219.2-219.2 219.2-55.4 0-106.1-20.6-144.7-54.5 40.2 45.7 99 74.5 164.7 74.5 121 0 219.2-98.1 219.2-219.2 0-65.6-28.9-124.5-74.5-164.7z" fill="#377de2"/></g><g><path d="m405.9 96.1c36.8 39.2 59.3 91.9 59.3 149.9 0 121-98.1 219.2-219.2 219.2-58 0-110.7-22.5-149.9-59.3 40 42.6 96.8 69.3 159.9 69.3 121 0 219.2-98.1 219.2-219.2 0-63.1-26.7-119.9-69.3-159.9z" fill="#2266d3"/></g><g><path d="m256 79.8c-97.2 0-176.2 79.1-176.2 176.2s79 176.2 176.2 176.2 176.2-79 176.2-176.2-79-176.2-176.2-176.2zm-150.1 176.2c0-13.8 1.9-27.2 5.4-40h48.2c-1.6 12.8-2.5 26.2-2.5 40 0 12.6.7 24.9 2.1 36.7h-48.6c-3-11.7-4.6-24-4.6-36.7zm77.2 0c0-13.8 1-27.2 2.8-40h57.1v76.7h-57.5c-1.6-11.8-2.4-24.1-2.4-36.7zm86-147.6c22.6 8.8 41.9 40 52.1 81.5h-52.1zm-26.2 0v81.5h-52.1c10.2-41.5 29.5-72.6 52.1-81.5zm0 210.4v84.7c-23.2-9.1-42.9-41.6-52.9-84.7zm26.2 84.8v-84.7h52.9c-10 43.1-29.7 75.6-52.9 84.7zm0-110.9v-76.7h57.1c1.8 12.8 2.8 26.2 2.8 40 0 12.6-.8 24.9-2.3 36.7zm83.4-76.7h48.2c3.5 12.7 5.4 26.1 5.4 40 0 12.7-1.6 25-4.6 36.7h-48.6c1.4-11.8 2.1-24.1 2.1-36.7 0-13.8-.9-27.2-2.5-40zm38.3-26.1h-42.8c-6.1-27.5-15.9-51.4-28.3-69.8 30.9 14.5 56 39.2 71.1 69.8zm-198.5-69.8c-12.5 18.4-22.3 42.3-28.3 69.8h-42.7c15-30.6 40.1-55.3 71-69.8zm-72.6 198.7h43.6c6 28.9 16.1 53.9 29 73.1-31.9-15-57.8-41-72.6-73.1zm200 73.1c13-19.2 23-44.2 29-73.1h43.6c-14.8 32.1-40.6 58.1-72.6 73.1z" fill="#fff"/></g></g></svg>