<svg width="30" height="30" viewBox="0 0 30 30" fill="none" xmlns="http://www.w3.org/2000/svg">
<path d="M15 26.7188C15.2589 26.7188 15.4688 26.5089 15.4688 26.25C15.4688 25.9911 15.2589 25.7812 15 25.7812C14.7411 25.7812 14.5312 25.9911 14.5312 26.25C14.5312 26.5089 14.7411 26.7188 15 26.7188Z" fill="white"/>
<path d="M19.6875 1.40625H10.3125C9.56681 1.40699 8.85187 1.70355 8.32458 2.23083C7.7973 2.75812 7.50074 3.47306 7.5 4.21875H22.5C22.4993 3.47306 22.2027 2.75812 21.6754 2.23083C21.1481 1.70355 20.4332 1.40699 19.6875 1.40625ZM16.4062 3.28125H13.5938C13.4694 3.28125 13.3502 3.23186 13.2623 3.14396C13.1744 3.05605 13.125 2.93682 13.125 2.8125C13.125 2.68818 13.1744 2.56895 13.2623 2.48104C13.3502 2.39314 13.4694 2.34375 13.5938 2.34375H16.4062C16.5306 2.34375 16.6498 2.39314 16.7377 2.48104C16.8256 2.56895 16.875 2.68818 16.875 2.8125C16.875 2.93682 16.8256 3.05605 16.7377 3.14396C16.6498 3.23186 16.5306 3.28125 16.4062 3.28125Z" fill="white"/>
<path d="M7.5 5.15625H22.5V22.9688H7.5V5.15625Z" fill="white"/>
<path d="M7.5 25.7812C7.50074 26.5269 7.7973 27.2419 8.32458 27.7692C8.85187 28.2965 9.56681 28.593 10.3125 28.5938H19.6875C20.4332 28.593 21.1481 28.2965 21.6754 27.7692C22.2027 27.2419 22.4993 26.5269 22.5 25.7812V23.9062H7.5V25.7812ZM15 24.8438C15.2781 24.8438 15.55 24.9262 15.7813 25.0807C16.0125 25.2353 16.1928 25.4549 16.2992 25.7119C16.4056 25.9688 16.4335 26.2516 16.3792 26.5243C16.325 26.7971 16.191 27.0477 15.9944 27.2444C15.7977 27.441 15.5471 27.575 15.2743 27.6292C15.0016 27.6835 14.7188 27.6556 14.4619 27.5492C14.2049 27.4428 13.9853 27.2625 13.8307 27.0313C13.6762 26.8 13.5938 26.5281 13.5938 26.25C13.5938 25.877 13.7419 25.5194 14.0056 25.2556C14.2694 24.9919 14.627 24.8438 15 24.8438Z" fill="white"/>
</svg>
