<svg width="30" height="30" viewBox="0 0 30 30" fill="none" xmlns="http://www.w3.org/2000/svg">
<g clip-path="url(#clip0_603_3675)">
<path d="M15.4688 0V6.67969C17.5233 6.68016 19.5701 6.42668 21.5625 5.925C20.1562 2.53594 17.9719 0.276562 15.4688 0ZM23.2687 15.4688H15.4688V22.3641C17.6318 22.4178 19.7789 22.7486 21.8578 23.3484C22.7645 20.819 23.2414 18.1556 23.2687 15.4688ZM8.48906 5.74688C10.4505 6.30686 12.4737 6.62176 14.5125 6.68438V0C12.0703 0.271875 9.91406 2.46094 8.48906 5.74688ZM14.5312 22.3453V15.4688H6.73125C6.75605 18.086 7.20402 20.682 8.05781 23.1562C10.1729 22.6144 12.3479 22.342 14.5312 22.3453ZM24.2391 15.4688C24.2113 18.2506 23.7153 21.0079 22.7719 23.625C23.9141 24.0075 25.0137 24.507 26.0531 25.1156C28.485 22.4786 29.886 19.0541 30 15.4688H24.2391ZM5.76094 14.5312C5.78875 11.7494 6.28474 8.99213 7.22813 6.375C6.08543 5.9938 4.9857 5.49421 3.94688 4.88438C1.51504 7.52142 0.113969 10.9459 0 14.5312H5.76094ZM6.73125 14.5312H14.5312V7.63594C12.3683 7.58135 10.2212 7.25055 8.14219 6.65156C7.23782 9.18162 6.76099 11.8446 6.73125 14.5312ZM7.14844 23.4375C6.25241 20.886 5.77746 18.2056 5.74219 15.5016H0C0.110831 18.9471 1.41101 22.2481 3.67969 24.8438C4.78467 24.2573 5.94703 23.7861 7.14844 23.4375ZM15.4688 7.65V14.5312H23.2687C23.2439 11.914 22.796 9.31796 21.9422 6.84375C19.8269 7.38358 17.6519 7.65447 15.4688 7.65ZM14.5312 30V23.3156C12.4766 23.3186 10.43 23.5736 8.4375 24.075C9.84375 27.4594 12.0281 29.7234 14.5312 30ZM7.5 24.3234C6.41483 24.6393 5.36299 25.06 4.35938 25.5797C6.22959 27.4599 8.56282 28.8132 11.1234 29.5031C9.50679 28.1019 8.26198 26.3225 7.5 24.3234ZM7.58906 5.46094C8.35028 3.54579 9.56278 1.84282 11.1234 0.496875C8.68583 1.15155 6.45284 2.41073 4.63125 4.15781C5.57189 4.68848 6.56264 5.12498 7.58906 5.46094ZM22.4109 24.5391C21.6497 26.4542 20.4372 28.1572 18.8766 29.5031C21.3138 28.8475 23.5466 27.5885 25.3687 25.8422C24.427 25.3138 23.4365 24.8774 22.4109 24.5391ZM21.5109 24.2531C19.548 23.6928 17.5232 23.3779 15.4828 23.3156V30C17.925 29.7281 20.0859 27.5391 21.5109 24.2531ZM22.5 5.67656C23.5849 5.35988 24.6366 4.93918 25.6406 4.42031C23.7704 2.54014 21.4372 1.18677 18.8766 0.496875C20.4932 1.89806 21.738 3.6775 22.5 5.67656ZM22.8516 6.5625C23.7476 9.11404 24.2225 11.7944 24.2578 14.4984H30C29.8967 11.0415 28.596 7.72771 26.3203 5.12344C25.2162 5.72021 24.0539 6.20241 22.8516 6.5625Z" fill="white"/>
</g>
<defs>
<clipPath id="clip0_603_3675">
<rect width="30" height="30" fill="white"/>
</clipPath>
</defs>
</svg>
