<?xml version="1.0" encoding="UTF-8"?>
<svg id="Layer_1" xmlns="http://www.w3.org/2000/svg" version="1.1" viewBox="0 0 512 512">
  <!-- Generator: Adobe Illustrator 29.8.2, SVG Export Plug-In . SVG Version: 2.1.1 Build 3)  -->
  <defs>
    <style>
      .st0 {
        fill: #47caf0;
      }

      .st1 {
        fill: #0075d3;
      }
    </style>
  </defs>
  <circle class="st0" cx="256" cy="256" r="224"/>
  <path class="st1" d="M256,21.33C126.6,21.33,21.33,126.6,21.33,256s105.27,234.67,234.67,234.67,234.67-105.27,234.67-234.67S385.4,21.33,256,21.33ZM451.39,341.33h-66.01c5.22-23.22,8.3-48.31,8.97-74.67h74.43c-1.31,26.42-7.29,51.62-17.4,74.67ZM43.21,266.67h74.43c.67,26.36,3.75,51.45,8.97,74.67H60.61c-10.11-23.05-16.09-48.25-17.4-74.67ZM60.61,170.67h66.01c-5.22,23.22-8.3,48.31-8.97,74.67H43.21c1.31-26.42,7.29-51.62,17.4-74.67ZM266.67,149.33V43.65c38.82,6.4,72.15,47.32,90.79,105.69h-90.79ZM363.47,170.67c5.56,23.05,8.84,48.25,9.57,74.67h-106.37v-74.67h96.8ZM245.33,43.65v105.69h-90.79c18.63-58.37,51.98-99.29,90.79-105.69ZM245.33,170.67v74.67h-106.37c.73-26.42,4.01-51.62,9.57-74.67h96.8ZM138.97,266.67h106.37v74.67h-96.8c-5.56-23.05-8.84-48.25-9.57-74.67ZM245.33,362.67v105.69c-38.82-6.4-72.15-47.32-90.79-105.69h90.79ZM293.14,458.2s-.05.01-.07.03c-2.31,1.43-4.66,2.59-7.01,3.74-1.17.57-2.34,1.15-3.52,1.65-1.88.81-3.77,1.49-5.65,2.13-1.95.64-3.91,1.17-5.89,1.64-1.42.34-2.84.71-4.26.95h-.06v-105.69h90.79c-14.23,44.57-37.02,78.91-64.31,95.53h-.02ZM266.67,341.33v-74.67h106.37c-.73,26.42-4.01,51.62-9.57,74.67h-96.8ZM394.36,245.33c-.67-26.36-3.75-51.45-8.97-74.67h66.01c10.11,23.05,16.09,48.25,17.4,74.67h-74.43ZM440.47,149.33h-60.6c-11.47-38.81-29.05-71.05-50.78-93.49,47.15,17.27,86.49,50.61,111.38,93.49ZM182.91,55.84c-21.74,22.45-39.33,54.69-50.78,93.49h-60.6c24.9-42.88,64.25-76.22,111.38-93.49ZM71.53,362.67h60.6c11.47,38.81,29.05,71.05,50.78,93.49-47.15-17.27-86.49-50.61-111.38-93.49ZM329.09,456.16c21.74-22.45,39.33-54.69,50.78-93.49h60.6c-24.9,42.88-64.25,76.22-111.38,93.49Z"/>
  <path class="st1" d="M366.42,438.03c-11.78,7.16-24.21,13.33-37.33,18.13,3.51-3.63,6.88-7.61,10.17-11.73-10.57,1.85-21.38,2.99-32.37,3.36-4.45,3.91-8.99,7.52-13.73,10.4-.02.01-.05.01-.07.03-2.31,1.43-4.66,2.59-7.01,3.74-1.17.57-2.34,1.15-3.52,1.65-1.88.81-3.77,1.49-5.65,2.13-1.95.64-3.91,1.17-5.89,1.64-1.42.34-2.84.71-4.26.95h-.06v-22.58c-7.22-.98-14.34-2.3-21.33-3.94v26.52c-25.9-4.27-49.32-23.97-67.61-53.9-13.39-8.06-25.91-17.43-37.38-27.93,11,28.2,25.47,51.98,42.57,69.63-47.15-17.27-86.49-50.61-111.38-93.49h46.11c-5.61-6.79-10.79-13.93-15.62-21.33h-41.42c-10.11-23.05-16.09-48.25-17.4-74.67h26.95c-1.63-7-2.94-14.11-3.94-21.33h-23.02c1.31-26.42,7.29-51.62,17.4-74.67h7.34c1.33-7.23,2.99-14.35,4.97-21.33h-1.38c.77-1.32,1.67-2.56,2.47-3.86,8.29-27.47,21.47-52.78,38.53-74.99C57.11,113.45,21.33,180.61,21.33,256c0,129.4,105.27,234.67,234.67,234.67,75.39,0,142.55-35.78,185.51-91.2-22.23,17.09-47.58,30.28-75.09,38.56h0Z"/>
</svg>