<svg width="17" height="17" viewBox="0 0 17 17" fill="none" xmlns="http://www.w3.org/2000/svg">
<path d="M14.9562 12.4226C14.7437 12.5351 14.5249 12.635 14.2999 12.7163C13.5812 12.9849 12.825 13.1224 12.0563 13.1224C9.10011 13.1224 6.52519 11.0917 6.52519 8.48001C6.53144 7.76772 6.92517 7.11166 7.55016 6.77426C4.87524 6.88673 4.18776 9.67341 4.18776 11.3042C4.18776 15.9216 8.44388 16.3902 9.3626 16.3902C9.85633 16.3902 10.6001 16.2465 11.05 16.1028L11.1313 16.0778C12.8562 15.4842 14.3187 14.322 15.2937 12.7787C15.3687 12.66 15.3312 12.5101 15.2187 12.4351C15.1374 12.3851 15.0374 12.3789 14.9562 12.4226Z" fill="url(#paint0_linear_4298_30503)"/>
<path d="M14.9562 12.4226C14.7437 12.5351 14.5249 12.635 14.2999 12.7163C13.5812 12.9849 12.825 13.1224 12.0563 13.1224C9.10011 13.1224 6.52519 11.0917 6.52519 8.48001C6.53144 7.76772 6.92517 7.11166 7.55016 6.77426C4.87524 6.88673 4.18776 9.67341 4.18776 11.3042C4.18776 15.9216 8.44388 16.3902 9.3626 16.3902C9.85633 16.3902 10.6001 16.2465 11.05 16.1028L11.1313 16.0778C12.8562 15.4842 14.3187 14.322 15.2937 12.7787C15.3687 12.66 15.3312 12.5101 15.2187 12.4351C15.1374 12.3851 15.0374 12.3789 14.9562 12.4226Z" fill="url(#paint1_radial_4298_30503)"/>
<path d="M7.12527 15.6024C6.56903 15.2588 6.0878 14.8026 5.70656 14.2716C4.06286 12.0222 4.5566 8.8669 6.80653 7.22364C7.04402 7.05494 7.28776 6.89873 7.55025 6.77377C7.744 6.68005 8.07524 6.5176 8.51897 6.52384C9.1502 6.53009 9.74394 6.83 10.1252 7.3361C10.3752 7.6735 10.5189 8.07963 10.5252 8.50451C10.5252 8.49201 12.0564 3.53098 5.52532 3.53098C2.78165 3.53098 0.52547 6.13646 0.52547 8.41703C0.51297 9.62293 0.775462 10.8226 1.2817 11.916C3.00664 15.5899 7.20651 17.3894 11.0564 16.1085C9.73769 16.5209 8.30023 16.3397 7.12527 15.6024Z" fill="url(#paint2_linear_4298_30503)"/>
<path d="M7.12527 15.6024C6.56903 15.2588 6.0878 14.8026 5.70656 14.2716C4.06286 12.0222 4.5566 8.8669 6.80653 7.22364C7.04402 7.05494 7.28776 6.89873 7.55025 6.77377C7.744 6.68005 8.07524 6.5176 8.51897 6.52384C9.1502 6.53009 9.74394 6.83 10.1252 7.3361C10.3752 7.6735 10.5189 8.07963 10.5252 8.50451C10.5252 8.49201 12.0564 3.53098 5.52532 3.53098C2.78165 3.53098 0.52547 6.13646 0.52547 8.41703C0.51297 9.62293 0.775462 10.8226 1.2817 11.916C3.00664 15.5899 7.20651 17.3894 11.0564 16.1085C9.73769 16.5209 8.30023 16.3397 7.12527 15.6024Z" fill="url(#paint3_radial_4298_30503)"/>
<path d="M10.0377 9.82303C9.98774 9.88552 9.8315 9.97924 9.8315 10.1792C9.8315 10.3416 9.93775 10.4978 10.1252 10.629C11.0252 11.2539 12.7189 11.1726 12.7252 11.1726C13.3939 11.1726 14.0439 10.9914 14.6189 10.654C15.7938 9.96674 16.5188 8.71086 16.5188 7.34876C16.5375 5.94918 16.0188 5.0182 15.8126 4.60582C14.4876 2.01284 11.6252 0.519531 8.51904 0.519531C4.14417 0.519531 0.581785 4.03099 0.519287 8.4047C0.550536 6.12413 2.81922 4.28092 5.51913 4.28092C5.73788 4.28092 6.98784 4.29966 8.14405 4.91198C9.16277 5.44933 9.70025 6.09289 10.069 6.73645C10.4565 7.405 10.5252 8.24225 10.5252 8.57965C10.5252 8.9108 10.3565 9.41066 10.0377 9.82303Z" fill="url(#paint4_radial_4298_30503)"/>
<path d="M10.0377 9.82303C9.98774 9.88552 9.8315 9.97924 9.8315 10.1792C9.8315 10.3416 9.93775 10.4978 10.1252 10.629C11.0252 11.2539 12.7189 11.1726 12.7252 11.1726C13.3939 11.1726 14.0439 10.9914 14.6189 10.654C15.7938 9.96674 16.5188 8.71086 16.5188 7.34876C16.5375 5.94918 16.0188 5.0182 15.8126 4.60582C14.4876 2.01284 11.6252 0.519531 8.51904 0.519531C4.14417 0.519531 0.581785 4.03099 0.519287 8.4047C0.550536 6.12413 2.81922 4.28092 5.51913 4.28092C5.73788 4.28092 6.98784 4.29966 8.14405 4.91198C9.16277 5.44933 9.70025 6.09289 10.069 6.73645C10.4565 7.405 10.5252 8.24225 10.5252 8.57965C10.5252 8.9108 10.3565 9.41066 10.0377 9.82303Z" fill="url(#paint5_radial_4298_30503)"/>
<defs>
<linearGradient id="paint0_linear_4298_30503" x1="0.519646" y1="8.51641" x2="16.5159" y2="8.51641" gradientUnits="userSpaceOnUse">
<stop stop-color="#0C59A4"/>
<stop offset="1" stop-color="#114A8B"/>
</linearGradient>
<radialGradient id="paint1_radial_4298_30503" cx="0" cy="0" r="1" gradientUnits="userSpaceOnUse" gradientTransform="translate(9.35638 8.66365) scale(8.55704 9.41826)">
<stop offset="0.72" stop-opacity="0"/>
<stop offset="0.95" stop-opacity="0.53"/>
<stop offset="1"/>
</radialGradient>
<linearGradient id="paint2_linear_4298_30503" x1="15.0163" y1="4.48693" x2="6.77512" y2="15.5609" gradientUnits="userSpaceOnUse">
<stop stop-color="#1B9DE2"/>
<stop offset="0.16" stop-color="#1595DF"/>
<stop offset="0.67" stop-color="#0680D7"/>
<stop offset="1" stop-color="#0078D4"/>
</linearGradient>
<radialGradient id="paint3_radial_4298_30503" cx="0" cy="0" r="1" gradientUnits="userSpaceOnUse" gradientTransform="translate(7.21484 12.1271) rotate(-79.4106) scale(11.1015 10.9385)">
<stop offset="0.76" stop-opacity="0"/>
<stop offset="0.95" stop-opacity="0.5"/>
<stop offset="1"/>
</radialGradient>
<radialGradient id="paint4_radial_4298_30503" cx="0" cy="0" r="1" gradientUnits="userSpaceOnUse" gradientTransform="translate(2.13496 4.96551) rotate(91.5268) scale(18.9931 26.9773)">
<stop stop-color="#35C1F1"/>
<stop offset="0.11" stop-color="#34C1ED"/>
<stop offset="0.23" stop-color="#2FC2DF"/>
<stop offset="0.31" stop-color="#2BC3D2"/>
<stop offset="0.67" stop-color="#36C752"/>
</radialGradient>
<radialGradient id="paint5_radial_4298_30503" cx="0" cy="0" r="1" gradientUnits="userSpaceOnUse" gradientTransform="translate(15.5226 5.35596) rotate(73.7325) scale(6.08091 4.94705)">
<stop stop-color="#66EB6E"/>
<stop offset="1" stop-color="#66EB6E" stop-opacity="0"/>
</radialGradient>
</defs>
</svg>
