<svg width="415" height="415" viewBox="0 0 415 415" fill="none" xmlns="http://www.w3.org/2000/svg">
<path d="M207.5 415C322.099 415 415 322.099 415 207.5C415 92.9009 322.099 0 207.5 0C92.9009 0 0 92.9009 0 207.5C0 322.099 92.9009 415 207.5 415Z" fill="#2B2C2D" fill-opacity="0.35"/>
<path d="M207.5 378C301.628 378 377.935 301.694 377.935 207.565C377.935 113.437 301.628 37.1309 207.5 37.1309C113.372 37.1309 37.0657 113.437 37.0657 207.565C37.0657 301.694 113.372 378 207.5 378Z" fill="#2B2C2D" fill-opacity="0.45"/>
<path d="M207.5 335.193C278.863 335.193 336.714 277.698 336.714 206.773C336.714 135.848 278.863 78.3525 207.5 78.3525C136.138 78.3525 78.2874 135.848 78.2874 206.773C78.2874 277.698 136.138 335.193 207.5 335.193Z" fill="#2B2C2D"/>
<path d="M246.637 232.202C251.079 232.202 254.68 228.601 254.68 224.16C254.68 219.718 251.079 216.117 246.637 216.117C242.195 216.117 238.595 219.718 238.595 224.16C238.595 228.601 242.195 232.202 246.637 232.202Z" fill="white"/>
<path d="M276.09 247.492C273.086 247.492 270.231 245.726 268.985 242.786L247.572 192.237L224.124 242.879C222.334 246.744 217.75 248.427 213.884 246.638C210.018 244.848 208.336 240.264 210.125 236.398L240.121 171.617C241.538 168.596 244.623 166.676 247.995 166.735C251.358 166.79 254.381 168.807 255.698 171.873L255.712 171.906L283.19 236.77C284.852 240.693 283.02 245.219 279.097 246.88C278.114 247.295 277.094 247.492 276.092 247.492H276.09Z" fill="white"/>
<path d="M197.591 244.262C202.033 244.262 205.634 240.661 205.634 236.22C205.634 231.778 202.033 228.177 197.591 228.177C193.15 228.177 189.549 231.778 189.549 236.22C189.549 240.661 193.15 244.262 197.591 244.262Z" fill="white"/>
<path d="M170.747 247.444C148.153 247.444 129.771 229.062 129.771 206.468C129.771 183.874 148.153 165.492 170.747 165.492C193.341 165.492 211.723 183.874 211.723 206.468C211.723 210.728 208.27 214.181 204.011 214.181C199.751 214.181 196.298 210.728 196.298 206.468C196.298 192.379 184.836 180.917 170.747 180.917C156.658 180.917 145.196 192.379 145.196 206.468C145.196 220.557 156.658 232.019 170.747 232.019C175.007 232.019 178.459 235.472 178.459 239.732C178.459 243.992 175.007 247.444 170.747 247.444Z" fill="white"/>
</svg>
