<svg width="92" height="54" viewBox="0 0 92 54" fill="none" xmlns="http://www.w3.org/2000/svg">
<path d="M24.1953 20.0355C24.1953 21.0483 24.3048 21.8695 24.4964 22.4718C24.7153 23.074 24.9892 23.731 25.3723 24.4427C25.5093 24.6617 25.564 24.8808 25.564 25.0724C25.564 25.3461 25.3998 25.6199 25.0439 25.8936L23.3192 27.0434C23.0729 27.2076 22.8266 27.2897 22.6075 27.2897C22.3338 27.2897 22.0601 27.1528 21.7863 26.9065C21.4031 26.4959 21.0746 26.0578 20.8008 25.6199C20.527 25.1545 20.2533 24.6343 19.9523 24.0047C17.8169 26.5232 15.1342 27.7825 11.904 27.7825C9.60453 27.7825 7.77041 27.1255 6.42905 25.8115C5.08768 24.4975 4.40332 22.7456 4.40332 20.5555C4.40332 18.2287 5.22456 16.3398 6.89442 14.9164C8.56428 13.4928 10.7816 12.7811 13.6012 12.7811C14.532 12.7811 15.4901 12.8632 16.5029 13.0001C17.5159 13.137 18.556 13.356 19.6511 13.6023V11.604C19.6511 9.5235 19.213 8.07263 18.3645 7.22401C17.4885 6.37539 16.0103 5.96477 13.9024 5.96477C12.9443 5.96477 11.9588 6.07427 10.9459 6.32064C9.93302 6.56701 8.94753 6.86814 7.98942 7.25138C7.55142 7.44301 7.22292 7.55251 7.03129 7.60726C6.83968 7.662 6.70279 7.68938 6.5933 7.68938C6.21005 7.68938 6.01843 7.41564 6.01843 6.84076V5.4994C6.01843 5.06141 6.07318 4.73291 6.21005 4.54128C6.34693 4.34966 6.5933 4.15803 6.97655 3.96641C7.93466 3.47367 9.0844 3.06305 10.4258 2.73455C11.7671 2.37867 13.1906 2.21443 14.6963 2.21443C17.9538 2.21443 20.3354 2.95354 21.8684 4.43178C23.3741 5.91002 24.1406 8.15475 24.1406 11.166V20.0355H24.1953ZM13.0811 24.1964C13.9845 24.1964 14.9152 24.0321 15.9007 23.7036C16.8862 23.3751 17.7622 22.7728 18.5013 21.9516C18.9393 21.4316 19.2678 20.8567 19.4321 20.1997C19.5963 19.5427 19.7058 18.7487 19.7058 17.818V16.6683C18.912 16.4767 18.0634 16.3125 17.1873 16.203C16.3114 16.0935 15.4628 16.0386 14.6142 16.0386C12.78 16.0386 11.4386 16.3946 10.5353 17.1337C9.6319 17.8728 9.19391 18.9131 9.19391 20.2818C9.19391 21.5684 9.5224 22.5265 10.2068 23.1835C10.8638 23.8679 11.8219 24.1964 13.0811 24.1964ZM35.0631 27.1528C34.5703 27.1528 34.2418 27.0707 34.0229 26.8791C33.8038 26.7148 33.6122 26.3316 33.448 25.8115L27.0149 4.65078C26.8507 4.10328 26.7686 3.74741 26.7686 3.55579C26.7686 3.11779 26.9875 2.87142 27.4254 2.87142H30.1083C30.6283 2.87142 30.9842 2.95354 31.1758 3.14517C31.3949 3.30941 31.5591 3.69266 31.7233 4.21279L36.3223 22.3349L40.5927 4.21279C40.7297 3.66528 40.8939 3.30941 41.1129 3.14517C41.3318 2.98091 41.7151 2.87142 42.2079 2.87142H44.3979C44.918 2.87142 45.2738 2.95354 45.4929 3.14517C45.7119 3.30941 45.9035 3.69266 46.0129 4.21279L50.3382 22.5539L55.074 4.21279C55.2382 3.66528 55.4298 3.30941 55.6215 3.14517C55.8405 2.98091 56.1964 2.87142 56.6891 2.87142H59.235C59.673 2.87142 59.9193 3.09042 59.9193 3.55579C59.9193 3.69266 59.892 3.82954 59.8646 3.99378C59.8372 4.15803 59.7825 4.37703 59.673 4.67816L53.0757 25.8389C52.9114 26.3864 52.7197 26.7423 52.5008 26.9065C52.2818 27.0707 51.9259 27.1802 51.4606 27.1802H49.1063C48.5862 27.1802 48.2304 27.0981 48.0114 26.9065C47.7923 26.7148 47.6007 26.359 47.4913 25.8115L43.2481 8.15475L39.0324 25.7841C38.8956 26.3316 38.7312 26.6874 38.5123 26.8791C38.2933 27.0707 37.91 27.1528 37.4172 27.1528H35.0631ZM70.2397 27.892C68.8162 27.892 67.3926 27.7277 66.0239 27.3993C64.6553 27.0707 63.5876 26.7148 62.8759 26.3043C62.4378 26.0578 62.1368 25.7841 62.0273 25.5378C61.9177 25.2913 61.863 25.0176 61.863 24.7713V23.3751C61.863 22.8003 62.0819 22.5265 62.4926 22.5265C62.6568 22.5265 62.8211 22.5539 62.9854 22.6086C63.1496 22.6635 63.396 22.7728 63.6697 22.8824C64.6004 23.293 65.6133 23.6215 66.6809 23.8405C67.7759 24.0596 68.8436 24.1689 69.9385 24.1689C71.6632 24.1689 73.0045 23.8679 73.9352 23.2656C74.866 22.6635 75.3587 21.7874 75.3587 20.665C75.3587 19.8985 75.1124 19.2689 74.6196 18.7487C74.1269 18.2287 73.1961 17.7633 71.8548 17.3253L67.8854 16.0935C65.887 15.4639 64.4088 14.5331 63.5055 13.3012C62.6021 12.0967 62.1368 10.7554 62.1368 9.33186C62.1368 8.18212 62.3831 7.16926 62.8759 6.29327C63.3685 5.41728 64.0255 4.65078 64.8469 4.04853C65.6681 3.41892 66.5988 2.95354 67.6938 2.62505C68.7887 2.29655 69.9385 2.15967 71.143 2.15967C71.7453 2.15967 72.3749 2.18706 72.9772 2.26918C73.6068 2.3513 74.1817 2.46079 74.7564 2.57029C75.3041 2.70717 75.8241 2.84404 76.3169 3.0083C76.8095 3.17254 77.1928 3.33678 77.4665 3.50104C77.8498 3.72003 78.1235 3.93904 78.2879 4.1854C78.4521 4.40441 78.5342 4.70553 78.5342 5.08878V6.37539C78.5342 6.95026 78.3152 7.25138 77.9046 7.25138C77.6856 7.25138 77.3298 7.14189 76.8644 6.92288C75.3041 6.21115 73.552 5.85528 71.6084 5.85528C70.048 5.85528 68.8162 6.10164 67.9675 6.62177C67.1189 7.14189 66.6809 7.93576 66.6809 9.05813C66.6809 9.82461 66.9547 10.4816 67.5022 11.0017C68.0496 11.5219 69.0625 12.042 70.5134 12.5073L74.4006 13.7392C76.3716 14.3688 77.7951 15.2448 78.6437 16.3672C79.4924 17.4896 79.9029 18.7761 79.9029 20.1997C79.9029 21.3767 79.6566 22.4444 79.1912 23.3751C78.6984 24.3059 78.0414 25.1271 77.1928 25.7841C76.3442 26.4685 75.3313 26.9613 74.1543 27.3171C72.9224 27.7004 71.6358 27.892 70.2397 27.892Z" fill="white"/>
<path fill-rule="evenodd" clip-rule="evenodd" d="M75.4134 41.1959C66.4072 47.8478 53.322 51.3792 42.0709 51.3792C26.303 51.3792 12.0955 45.5484 1.36464 35.8578C0.516019 35.0912 1.28251 34.051 2.29538 34.6533C13.9023 41.3875 28.2193 45.4663 43.029 45.4663C53.0208 45.4663 63.9982 43.3858 74.0994 39.1153C75.605 38.4309 76.8916 40.1008 75.4134 41.1959Z" fill="white"/>
<path fill-rule="evenodd" clip-rule="evenodd" d="M79.1638 36.9254C78.0142 35.4472 71.5537 36.2137 68.6246 36.5696C67.7487 36.6791 67.6117 35.9126 68.4057 35.3377C73.552 31.7242 82.0109 32.7645 82.9963 33.969C83.9819 35.2009 82.7226 43.6596 77.9047 47.7111C77.1656 48.3407 76.4537 48.0122 76.7823 47.1909C77.8773 44.4808 80.3136 38.3763 79.1638 36.9254Z" fill="white"/>
</svg>
