<svg width="114" height="40" viewBox="0 0 114 40" fill="none" xmlns="http://www.w3.org/2000/svg">
<g clip-path="url(#clip0_35_229)">
<mask id="mask0_35_229" style="mask-type:luminance" maskUnits="userSpaceOnUse" x="0" y="0" width="114" height="40">
<path d="M114 0H0V40H114V0Z" fill="white"/>
</mask>
<g mask="url(#mask0_35_229)">
<path fill-rule="evenodd" clip-rule="evenodd" d="M101.47 16.7894C102.752 15.7891 104.42 15.2443 106.063 15.2443C106.557 15.2443 107.055 15.2953 107.545 15.3975C108.694 15.6444 108.89 16.219 108.962 16.4361C109.022 16.6149 109.107 16.9299 109.162 17.4109V24.9791C107.132 25.0642 105.097 25.0515 103.331 24.7322C101.594 24.4172 100.227 23.3573 99.5805 21.825C99.4485 21.5142 99.3719 21.2035 99.3506 20.8928C99.2059 18.7943 100.785 17.3257 101.47 16.7894ZM101.036 34.3223L101.109 38.8428L105.919 38.7662C110.103 38.6981 113.661 34.914 113.683 30.5042V17.3513V17.1682L113.678 17.032C113.678 17.032 113.54 15.9196 113.653 16.9302C113.571 16.215 113.433 15.5604 113.244 14.9931C112.546 12.9074 110.856 11.4814 108.49 10.9749C105.093 10.247 101.432 11.0898 98.6951 13.2224C96.039 15.2911 94.6343 18.1983 94.8429 21.2035C94.8982 22.0208 95.094 22.821 95.4133 23.5744C96.6434 26.4987 99.2995 28.5887 102.522 29.1761C104.633 29.5592 106.919 29.5847 109.158 29.4996V30.4744C109.149 32.4196 107.566 34.2202 105.842 34.2457L101.036 34.3223ZM113.661 17.0065C113.658 16.9798 113.655 16.9544 113.653 16.9302C113.656 16.9555 113.659 16.981 113.661 17.0065ZM4.52636 25.043C4.51359 22.7784 4.52636 18.9943 4.54339 15.108C8.54885 15.6614 10.7452 17.347 11.4902 18.939C12.0605 20.1564 11.8562 21.4504 10.9155 22.5784C9.59171 24.1703 7.91461 24.8599 4.52636 25.043ZM1.44884 29.44C1.72552 29.5549 2.01922 29.6145 2.31718 29.6145C6.6802 29.6145 11.2007 29.2953 14.3846 25.4729C16.4491 22.9955 16.896 19.8371 15.5807 17.0235C13.9292 13.499 9.91096 11.1792 4.56467 10.562L4.59021 6.90136L0.0739578 6.86731C0.0739578 6.86731 0.0356482 11.9582 0.0143656 17.0618C0.00159588 20.0287 -0.00266037 22.3996 0.00159635 24.1065C0.0058526 25.077 0.0101065 25.8943 0.0186199 26.4689C0.0356463 27.6352 0.0484179 28.2737 0.712448 28.9462C0.925277 29.1591 1.17216 29.3251 1.44884 29.44ZM23.796 16.7851C25.0389 15.8189 26.6564 15.2868 28.2484 15.2868C28.7294 15.2826 29.2104 15.3336 29.6871 15.4315C30.7811 15.6657 30.9641 16.2062 31.0322 16.4106C31.2408 17.0363 31.2323 17.8961 31.2237 18.7517V24.6854C29.2615 24.7663 27.2992 24.7535 25.5923 24.4428C23.9152 24.1405 22.5956 23.119 21.9699 21.6419C21.6634 20.9226 21.6677 19.9904 21.9827 19.1433C22.3062 18.275 22.9319 17.4577 23.796 16.7851ZM31.2152 29.5762H35.7315V18.7772L35.7316 18.7695C35.7443 17.6768 35.7602 16.318 35.3058 14.9718C34.6163 12.9202 32.9519 11.5112 30.6236 11.0132C27.2907 10.3023 23.6981 11.1239 21.0122 13.2181C19.484 14.41 18.3518 15.9168 17.7388 17.5726C17.028 19.4966 17.0493 21.6206 17.8027 23.3999C19.0116 26.2646 21.6209 28.3163 24.7793 28.8909C26.8309 29.2612 29.0444 29.291 31.2152 29.2102V29.5762ZM69.5629 17.5684C69.5629 21.4504 69.597 27.1457 69.6225 29.5975L74.143 29.5507C74.1175 27.1074 74.0834 21.4333 74.0834 17.5684V6.83325H69.5629V17.5684ZM44.7129 29.0399C46.7305 29.5464 47.85 29.6273 49.625 29.6273H50.5189L50.4806 25.1068C48.4545 25.1238 47.6925 25.1281 45.8196 24.6598C44.0106 24.2086 42.5718 23.3148 41.7716 22.1485C40.7628 20.6757 40.7713 19.2795 41.8014 17.8791C42.5931 16.7979 44.0191 16.0019 45.8111 15.6316C47.2644 15.3292 48.0214 15.3335 49.4931 15.3418L49.5527 15.3422C49.6991 15.3422 49.8504 15.3431 50.0084 15.3441C50.1811 15.3453 50.3618 15.3464 50.553 15.3464V10.8259C50.2 10.8259 49.8802 10.8259 49.5825 10.8217L49.5814 10.8216C47.9304 10.8089 46.8408 10.8005 44.9002 11.2005C42.0057 11.7964 39.6135 13.2181 38.1535 15.2017C35.9741 18.1643 35.9358 21.6292 38.0386 24.6982C39.4603 26.7754 41.8312 28.3163 44.7129 29.0399ZM64.3358 10.911C64.3358 13.9077 62.9099 16.7979 60.1601 19.4413C62.033 22.3315 64.8211 25.4729 68.0987 25.4771V29.7039C64.0081 29.7039 60.1558 27.0904 56.8357 22.0931L56.6697 22.2038C56.6825 25.2132 56.7037 28.1247 56.7165 29.4485L52.196 29.4953C52.179 27.3968 52.1364 21.3142 52.1364 17.1597V6.83751H56.6569V16.9384C59.4195 14.5377 60.109 12.4179 60.109 10.911H64.3358ZM80.8642 16.5638C81.7028 15.7252 82.8393 15.2528 84.0226 15.2528H84.9037C86.087 15.2528 87.2236 15.7252 88.0621 16.5638C88.9007 17.3981 89.3731 18.5346 89.3731 19.7222V20.5948C89.3731 21.7824 88.9007 22.9189 88.0621 23.7574C87.2236 24.596 86.087 25.0685 84.8995 25.0685H84.0226C82.8393 25.0685 81.7028 24.596 80.8642 23.7574C80.0257 22.9189 79.5532 21.7824 79.5532 20.5948V19.7222C79.5532 18.5389 80.0257 17.4023 80.8642 16.5638ZM84.0183 29.589H84.8952C89.8541 29.589 93.8894 25.558 93.8851 20.5948V19.7222C93.8851 14.7633 89.8541 10.7323 84.8952 10.7323H84.0183C79.0594 10.7323 75.0284 14.7633 75.0284 19.7222V20.5991C75.0284 25.5537 79.0594 29.589 84.0183 29.589ZM82.8946 38.8258H83.8694V36.6464C83.8694 36.0718 83.6395 35.5227 83.2351 35.1183C82.8308 34.7139 82.2816 34.4841 81.707 34.4841C81.1324 34.4841 80.5833 34.7139 80.1789 35.1183C79.7745 35.5269 79.5447 36.0718 79.5447 36.6464V38.8258H80.5194V36.6464C80.5194 35.9909 81.0515 35.4589 81.707 35.4589C82.3625 35.4589 82.8946 35.9909 82.8946 36.6464V38.8258ZM84.9122 38.3406C85.3166 38.7449 85.8615 38.9748 86.4361 38.9748C87.0107 38.9705 87.5598 38.7449 87.9685 38.3406C88.3728 37.9362 88.6027 37.3871 88.6027 36.8124V34.6331H87.6279V36.8124C87.6279 37.1274 87.5002 37.4297 87.2789 37.651C87.0576 37.8766 86.7553 38 86.4404 38C86.1254 38 85.8231 37.8723 85.6018 37.651C85.3762 37.4297 85.2528 37.1274 85.2528 36.8124V34.6331H84.278V36.8124C84.278 37.3871 84.5079 37.9362 84.9122 38.3406ZM91.4504 36.655C91.4504 35.9994 91.9824 35.4674 92.638 35.4674H93.8461V37.8425H92.6372C92.6054 37.8425 92.5738 37.8412 92.5425 37.8387C91.9316 37.7901 91.4504 37.2783 91.4504 36.655ZM92.638 38.8173H94.8173V34.4926L92.6372 34.4925C92.0626 34.4925 91.5135 34.7224 91.1091 35.1268C90.7048 35.5312 90.4749 36.0803 90.4749 36.6549C90.4791 37.2295 90.7048 37.7786 91.1091 38.183C91.4669 38.537 91.9322 38.7573 92.4253 38.8066C92.4953 38.8137 92.5658 38.8173 92.6367 38.8173C92.6371 38.8173 92.6375 38.8173 92.638 38.8173ZM97.5238 37.8467H96.3149V35.4716H97.5238C98.1793 35.4716 98.7114 36.0036 98.7114 36.6591C98.7114 37.3147 98.1793 37.8467 97.5238 37.8467ZM95.3402 38.8172H97.5196C98.0942 38.8172 98.6433 38.5874 99.0519 38.1873C99.4563 37.7829 99.6862 37.2338 99.6862 36.6591C99.6862 36.0845 99.4563 35.5354 99.0519 35.131C98.6476 34.7266 98.0985 34.4968 97.5238 34.4968H96.3149V32.6963H95.3402V38.8172ZM90.0492 38.8258H89.0745V32.7261H90.0492V38.8258ZM74.4573 37.387C74.4573 37.9787 74.0061 38.4512 73.4102 38.4512C72.81 38.4512 72.3588 37.9787 72.3588 37.387C72.3588 36.8039 72.81 36.3271 73.4102 36.3271C74.0061 36.3271 74.4573 36.8039 74.4573 37.387ZM71.8438 38.8981H72.3588V38.2937C72.5759 38.6981 72.9888 38.9577 73.5038 38.9577C74.3637 38.9577 74.9979 38.2767 74.9979 37.3828C74.9979 36.5017 74.3637 35.8163 73.5038 35.8163C72.9888 35.8163 72.5759 36.0845 72.3588 36.4846V34.6202H71.8438V38.8981ZM75.0958 35.8802L76.2621 38.6683L75.581 40.1666H76.177L78.0158 35.8802H77.4284L76.543 38.017L75.6832 35.8802H75.0958Z" fill="white"/>
</g>
</g>
<defs>
<clipPath id="clip0_35_229">
<rect width="114" height="40" fill="white"/>
</clipPath>
</defs>
</svg>
