<svg width="90" height="90" viewBox="0 0 90 90" fill="none" xmlns="http://www.w3.org/2000/svg">
<path d="M45 8C65.4345 8 82 24.5655 82 45C82 65.4345 65.4345 82 45 82C24.5655 82 8 65.4345 8 45C8 24.5655 24.5655 8 45 8Z" fill="white" stroke="#B1B0B0"/>
<path d="M41.25 8C59.6135 8 74.5 22.8865 74.5 41.25C74.5 59.6135 59.6135 74.5 41.25 74.5C22.8865 74.5 8 59.6135 8 41.25C8 22.8865 22.8865 8 41.25 8Z" fill="white" stroke="#B1B0B0"/>
<path d="M45.9375 8C61.7121 8 74.5 20.7879 74.5 36.5625C74.5 52.3371 61.7121 65.125 45.9375 65.125C30.1629 65.125 17.375 52.3371 17.375 36.5625C17.375 20.7879 30.1629 8 45.9375 8Z" fill="white" stroke="#B1B0B0"/>
<path d="M46.875 13.625C61.0963 13.625 72.625 25.1537 72.625 39.375C72.625 53.5963 61.0963 65.125 46.875 65.125C32.6537 65.125 21.125 53.5963 21.125 39.375C21.125 25.1537 32.6537 13.625 46.875 13.625Z" fill="white" stroke="#B1B0B0"/>
<path d="M45.9375 19.25C58.6055 19.25 68.875 29.5195 68.875 42.1875C68.875 54.8555 58.6055 65.125 45.9375 65.125C33.2695 65.125 23 54.8555 23 42.1875C23 29.5195 33.2695 19.25 45.9375 19.25Z" fill="white" stroke="#B1B0B0"/>
<path d="M41.25 19.25C52.3647 19.25 61.375 28.2603 61.375 39.375C61.375 50.4897 52.3647 59.5 41.25 59.5C30.1353 59.5 21.125 50.4897 21.125 39.375C21.125 28.2603 30.1353 19.25 41.25 19.25Z" fill="white" stroke="#B1B0B0"/>
<path d="M46.875 21.125C54.8294 21.125 61.375 28.3993 61.375 37.5C61.375 46.6007 54.8294 53.875 46.875 53.875C38.9206 53.875 32.375 46.6007 32.375 37.5C32.375 28.3993 38.9206 21.125 46.875 21.125Z" fill="white" stroke="#B1B0B0"/>
<path d="M47.8125 26.75C54.2099 26.75 59.5 32.656 59.5 40.0781C59.5 47.5003 54.2099 53.4062 47.8125 53.4062C41.4151 53.4062 36.125 47.5003 36.125 40.0781C36.125 32.656 41.4151 26.75 47.8125 26.75Z" fill="white" stroke="#B1B0B0"/>
<path d="M47.3362 33.9955C48.1248 33.2069 49.0188 32.7062 49.807 32.5177C50.6045 32.327 51.2087 32.468 51.5575 32.8167C51.9061 33.1654 52.0464 33.7692 51.8558 34.5665C51.6673 35.3547 51.1673 36.2493 50.3788 37.0379C49.5902 37.8266 48.6956 38.3265 47.9074 38.515C47.1099 38.7058 46.5063 38.5654 46.1576 38.2168C45.8088 37.868 45.6678 37.2639 45.8585 36.4663C46.0471 35.6781 46.5477 34.7841 47.3362 33.9955Z" fill="white" stroke="#B1B0B0"/>
</svg>
