<svg width="90" height="126" viewBox="0 0 90 126" fill="none" xmlns="http://www.w3.org/2000/svg">
<g clip-path="url(#clip0_35_250)">
<path d="M41.1802 44.2676C47.2507 32.2835 59.8165 17.8593 76.9318 30.3401" stroke="white" stroke-width="3.0174"/>
<path d="M39.4061 45.5447C45.4041 27.3501 47.8265 5.08304 31.0698 2.48413" stroke="white" stroke-width="3.0174"/>
<path opacity="0.5" d="M66.9554 62.6885V54.6842H67.8545C66.5422 54.071 65.0838 53.718 63.5414 53.718H11.3999C5.77354 53.718 1.19434 58.2801 1.19434 63.8854V115.828C1.19434 121.436 5.77354 125.998 11.3999 125.998H63.5414C69.1673 125.998 73.7469 121.436 73.7469 115.828V63.8854C73.7469 63.4795 73.7161 63.0817 73.6698 62.6883L66.9554 62.6885Z" fill="#B1B0B0"/>
<path d="M62.3475 124.395H10.206C4.5792 124.395 0 119.833 0 114.225V62.2831C0 56.6773 4.5792 52.1152 10.206 52.1152H62.3475C67.9734 52.1152 72.5526 56.6773 72.5526 62.2831V114.225C72.5526 119.833 67.9734 124.395 62.3475 124.395Z" fill="white"/>
<path d="M69.4933 114.227C69.4933 118.159 66.2944 121.346 62.3486 121.346H10.2071C6.26115 121.346 3.0625 118.159 3.0625 114.227V62.2805C3.0625 58.3489 6.26133 55.1621 10.2071 55.1621H62.3486C66.2947 55.1621 69.4933 58.3487 69.4933 62.2805V114.227Z" fill="white"/>
<path d="M76.2165 63.0966C71.2098 59.4912 66.2188 56.7556 64.3527 55.7706C65.8559 59.2374 66.4114 61.9583 66.4282 61.9798C66.4177 61.978 64.9121 58.6594 62.7158 54.6045C60.5229 50.5417 57.0256 45.9685 51.8758 43.7754C50.1282 43.0299 48.5272 42.7293 47.0621 42.7293C41.7089 42.7105 37.9262 46.851 36.3827 48.9641C35.8681 49.6618 35.6171 50.1025 35.6171 50.1048L35.51 50.2923L35.3137 50.3805C33.6585 51.1096 31.7334 53.1108 30.2179 54.4935C25.7857 58.4996 23.0845 63.5348 23.0845 69.0029C23.0845 71.0093 23.4474 73.0806 24.2318 75.1982C25.6611 79.046 28.1045 82.0898 31.3629 84.5905C35.0862 87.5963 34.8776 95.7299 34.9389 95.7936V104.389C35.0251 104.478 35.1001 104.564 35.1973 104.661C35.4772 104.938 35.8025 105.236 36.1788 105.535C37.5897 106.662 39.6212 107.767 42.1589 107.767C43.7717 107.765 45.6052 107.321 47.6574 106.121L47.7771 106.135C48.6829 99.9454 50.7635 96.648 54.0753 95.0197C57.4057 93.389 61.6938 93.404 67.0808 93.1837C72.4308 92.9767 77.6396 92.1271 81.5609 90.0104C85.4786 87.8815 88.1394 84.5974 88.6479 79.2108C88.6639 79.0184 88.6686 78.8242 88.6686 78.6308C88.7432 73.615 82.5563 67.6161 76.2135 63.0975" fill="white"/>
<path d="M23.4328 121.387L31.5666 106.631C31.5666 106.631 17.4361 100.456 10.291 121.217V121.388L23.4328 121.387Z" fill="#B1B0B0"/>
<path d="M54.2027 50.1491C54.4133 50.6659 54.5661 51.2229 54.6884 51.7958C54.6228 51.2941 54.5267 50.8065 54.3907 50.3421C54.3266 50.2797 54.2673 50.2104 54.2027 50.1491Z" fill="#B1B0B0"/>
<path d="M59.607 60.3572C59.2625 56.8247 57.1859 53.1169 54.491 50.4485C56.9479 53.3282 58.6909 57.2387 58.6909 60.7957C58.6909 67.442 55.0674 70.3337 49.5474 70.2866C46.0719 70.2606 43.8054 69.6076 42.3267 68.4963C43.8491 70.3305 46.4784 71.3017 51.2749 70.8779C56.877 70.382 60.2641 67.0963 59.6071 60.3568" fill="#B1B0B0"/>
<path d="M45.2747 46.9255C45.2587 46.9291 45.2438 46.9367 45.2328 46.9404C45.1105 47.0607 44.9944 47.1915 44.8794 47.3233C45.0101 47.1873 45.1372 47.0476 45.2774 46.9263" fill="#B1B0B0"/>
<path d="M54.378 50.3105C54.3807 50.3217 54.3816 50.3293 54.3834 50.3405C54.42 50.3738 54.4528 50.4126 54.4874 50.447C54.4508 50.3999 54.4149 50.3528 54.376 50.3083" fill="white"/>
<path d="M54.4906 50.4493C54.454 50.4107 54.4218 50.3772 54.3866 50.3429C54.5227 50.808 54.6188 51.2954 54.6849 51.7967C54.7379 52.2037 54.7762 52.6176 54.7762 53.0438C54.7762 57.2797 52.1107 60.7127 48.8223 60.7127C45.5338 60.7127 42.8679 57.2792 42.8679 53.0438C42.8679 50.7643 43.6475 48.7283 44.8734 47.3237C44.9885 47.1918 45.1045 47.061 45.2269 46.9411C45.4606 46.7121 45.7042 46.4996 45.963 46.3169C41.3167 47.0327 39.5523 52.0993 39.5523 58.2556C39.5523 62.6094 39.5157 66.3872 42.3258 68.4979C43.8042 69.6093 46.0711 70.2597 49.5469 70.2886C55.0671 70.3357 58.6905 67.4433 58.6905 60.7973C58.6905 57.2405 56.9472 53.3296 54.4905 50.4501" fill="white"/>
<path d="M42.8672 53.0452C42.8672 57.2808 45.5331 60.7142 48.8216 60.7142C52.11 60.7142 54.7755 57.2807 54.7755 53.0452C54.7755 52.081 54.6312 51.1622 54.3785 50.3122C52.2653 47.8845 49.6418 46.2234 47.1223 46.2234C46.7148 46.2234 46.3328 46.262 45.9624 46.3187C44.1182 47.6217 42.8672 50.1447 42.8672 53.0457" fill="#B1B0B0"/>
<path d="M49.8015 51.1354C49.8015 52.7743 48.6962 54.1029 47.3336 54.1029C45.9699 54.1029 44.8657 52.7743 44.8657 51.1354C44.8657 49.4969 45.9699 48.168 47.3336 48.168C48.6962 48.168 49.8015 49.4969 49.8015 51.1354Z" fill="white"/>
<path d="M33.1772 103.876L33.1785 103.874C33.1776 103.873 33.1772 103.873 33.1772 103.873V103.876Z" fill="#B1B0B0"/>
<path d="M48.8882 106.548C48.93 106.522 48.9748 106.495 49.0189 106.466L48.4536 105.624C48.1843 105.803 47.9203 105.965 47.6582 106.118L48.4815 106.215C48.4815 106.215 48.6319 106.335 48.8882 106.548Z" fill="#B1B0B0"/>
<path d="M34.0225 104.521L35.1993 104.66L34.9404 104.63L34.0225 104.521Z" fill="white"/>
<path d="M63.468 53.8656C64.0988 54.1857 66.7274 55.5369 70.015 57.4896C69.3712 53.4702 64.7019 48.4277 61.9281 45.9629C60.9578 45.0949 60.1857 44.8581 59.5811 44.8562C58.9774 44.8544 58.4888 45.1054 58.14 45.3694C57.8837 45.5634 57.7262 45.7462 57.6595 45.8298L57.606 45.9456C60.2196 48.3037 62.1159 51.1914 63.4677 53.8652" fill="white"/>
<path d="M58.7744 93.9274C58.7744 93.9274 52.8205 89.0125 45.1655 91.3853C45.1655 91.3853 55.3738 91.046 56.564 94.7741L58.7744 93.9274Z" fill="#B1B0B0"/>
<path d="M31.0477 2.15219C31.0477 3.04125 30.3242 3.76251 29.4314 3.76251C28.5394 3.76251 27.8154 3.04125 27.8154 2.15219C27.8154 1.26349 28.5393 0.542236 29.4314 0.542236C30.3241 0.542236 31.0477 1.26349 31.0477 2.15219Z" fill="white"/>
<path d="M31.0477 2.15219C31.0477 3.04125 30.3242 3.76251 29.4314 3.76251C28.5394 3.76251 27.8154 3.04125 27.8154 2.15219C27.8154 1.26349 28.5393 0.542236 29.4314 0.542236C30.3241 0.542236 31.0477 1.26349 31.0477 2.15219Z" fill="white" stroke="white" stroke-width="2.4186"/>
<path d="M79.02 30.9649C79.02 31.854 78.2965 32.5753 77.4045 32.5753C76.5121 32.5753 75.7886 31.854 75.7886 30.9649C75.7886 30.0763 76.5121 29.355 77.4045 29.355C78.2965 29.355 79.02 30.0763 79.02 30.9649Z" fill="white"/>
<path d="M79.02 30.9649C79.02 31.854 78.2965 32.5753 77.4045 32.5753C76.5121 32.5753 75.7886 31.854 75.7886 30.9649C75.7886 30.0763 76.5121 29.355 77.4045 29.355C78.2965 29.355 79.02 30.0763 79.02 30.9649Z" fill="white" stroke="white" stroke-width="2.4186"/>
<path d="M51.1196 107.502C51.1196 106.669 50.5058 105.993 49.748 105.993C49.2423 105.993 48.8061 106.297 48.5677 106.745C46.2357 108.2 44.079 108.782 42.171 108.782H42.1605C38.0382 108.764 35.2084 106.231 33.9372 104.811L33.9902 104.309L33.1607 104.626L32.0766 105.198L31.7253 105.421L31.5342 106.374L31.8152 106.94L31.784 106.979C32.2645 107.495 33.0774 108.293 34.196 109.102C36.068 110.455 38.7334 111.793 41.9351 111.791C44.3041 111.789 46.9864 111.263 49.9262 109.22C50.5959 109.119 51.1223 108.268 51.1223 107.504" fill="white"/>
<path d="M88.6497 79.209C88.1413 84.5956 85.4799 87.8795 81.5626 90.009C77.6413 92.1253 72.4317 92.9745 67.0821 93.1818C61.696 93.4026 57.4075 93.3873 54.0775 95.0179C50.7651 96.6467 48.6847 99.9436 47.7789 106.134L47.6597 106.119C45.6073 107.319 43.7739 107.763 42.1611 107.765C39.623 107.765 37.5914 106.66 36.1806 105.533C35.8042 105.234 35.4795 104.936 35.1995 104.659L34.0227 104.52L34.9406 104.628L35.1995 104.658C35.1018 104.561 35.0272 104.476 34.9406 104.386V95.7914C34.8791 95.7279 35.0881 87.5943 31.3647 84.5883C28.1069 82.0877 25.6632 79.044 24.2335 75.196C23.4491 73.0785 23.0866 71.0071 23.0866 69.0012C23.0866 63.5326 25.7878 58.4975 30.22 54.4918C31.7358 53.1096 33.6608 51.108 35.3158 50.3787L35.5122 50.2909L35.6193 50.1034C35.6193 50.1016 35.8703 49.6602 36.3844 48.9626C37.9281 46.8495 41.7111 42.7073 47.0638 42.7274C48.5293 42.7274 50.1303 43.0278 51.877 43.7739C57.0264 45.9668 60.5242 50.5399 62.7175 54.6025C64.9133 58.6574 66.4176 61.9765 66.4295 61.9783C66.4136 61.9595 65.8576 59.2354 64.3544 55.7691C66.2202 56.7536 71.2115 59.4896 76.2182 63.0951C82.5605 67.6132 88.7476 73.6122 88.6733 78.6288C88.6733 78.822 88.6679 79.016 88.6526 79.2084M50.5565 108.33C50.4935 108.497 50.4021 108.649 50.2913 108.769C49.7104 109.396 48.8204 109.758 48.0634 110.123C46.7558 110.751 45.4789 111.355 44.0358 111.598C43.3468 111.713 42.6327 111.788 41.9327 111.79C38.7311 111.792 36.0656 110.454 34.1936 109.101C33.1202 108.325 32.3369 107.565 31.8499 107.049C31.8445 107.023 31.8394 107.002 31.834 106.978C31.4201 105.386 33.3418 104.854 33.8721 104.739C35.1106 106.144 37.9697 108.763 42.1705 108.783C44.0323 108.783 45.9127 108.245 47.5318 107.344C48.0454 107.059 48.6085 106.751 49.0618 106.376C49.1515 106.301 49.6411 106.569 49.7208 106.613C49.9787 106.753 50.2202 106.936 50.4133 107.158C50.6927 107.477 50.7016 107.944 50.5556 108.331M57.6553 45.8266C57.722 45.743 57.8795 45.5607 58.1358 45.3663C58.485 45.1022 58.9732 44.8509 59.5773 44.853C60.1815 44.8548 60.9541 45.0917 61.9239 45.9597C64.6977 48.4247 69.3669 53.4668 70.0108 57.4864C66.7236 55.5337 64.0951 54.1832 63.4638 53.8624C62.1115 51.1884 60.2154 48.3005 57.6021 45.9428L57.6553 45.8266ZM76.9963 62.023C75.0284 60.6076 72.9832 59.2876 71.09 58.1352C70.8186 53.3279 65.5865 47.9283 62.6075 45.2048C61.5109 44.2135 60.4735 43.8316 59.5772 43.8359C57.8686 43.8547 56.9357 45.0909 56.8073 45.2575C55.5055 44.1975 54.0452 43.2688 52.4002 42.5578C50.5026 41.7469 48.7143 41.4045 47.0632 41.4045C39.6746 41.4569 35.3353 48.0518 34.5829 49.2613C32.6115 50.2299 30.7577 52.2302 29.3269 53.5132C24.6905 57.6999 21.7588 63.0821 21.7588 69.0013C21.7588 71.1672 22.1532 73.3977 22.9878 75.6539C24.5087 79.7561 27.1355 83.0184 30.5537 85.6361C31.9579 86.6779 32.8201 89.2262 33.2085 91.5203C33.6113 93.8084 33.6092 95.7862 33.6129 95.7917V103.752C29.9227 104.158 30.8686 107.455 30.8686 107.455L30.9316 107.554C30.9293 107.555 30.9266 107.555 30.9262 107.556C32.2185 108.971 36.215 112.787 41.9323 112.806H41.9428C44.708 112.806 47.8473 111.843 51.1768 109.341C51.4005 109.219 51.6063 109.031 51.6063 109.031L51.6118 109.02C51.6324 109.005 51.6536 108.993 51.6738 108.972C51.6683 108.969 51.6578 108.958 51.6531 108.954L51.6636 108.935C51.6636 108.935 52.532 105.889 49.2425 105.378C50.2004 100.016 52.0006 97.5344 54.665 96.2056C57.5438 94.7635 61.7183 94.7072 67.1327 94.5052C72.5849 94.287 77.9678 93.444 82.191 91.1727C86.4186 88.9174 89.4558 85.1244 89.9679 79.329C89.9886 79.0936 89.9988 78.8623 89.9988 78.6313C89.9278 72.5982 83.3842 66.6692 76.996 62.026" fill="#B1B0B0"/>
<path d="M61.3528 121.387C60.0738 117.188 55.06 112.066 51.6782 108.975C48.1616 111.767 44.8481 112.81 41.9443 112.81H41.9338C36.2165 112.791 32.2201 108.974 30.9281 107.56C23.7997 110.787 20.2213 119.234 19.4072 121.387L61.3528 121.387Z" fill="white"/>
<path d="M19.9681 121.342C20.3477 120.367 21.1523 118.487 22.4376 116.379C24.2554 113.392 27.0226 110.001 30.8089 108.172C32.3612 109.792 36.3156 113.285 41.9316 113.314H41.9421C44.8727 113.316 48.1854 112.291 51.6499 109.638C54.9486 112.669 59.5609 117.519 60.8124 121.343H61.8678C60.5543 116.895 55.4476 111.752 52.0213 108.596L51.7 108.303L51.3572 108.574C47.9135 111.306 44.7228 112.296 41.9427 112.298H41.9322C36.458 112.287 32.5529 108.589 31.3046 107.214L31.0525 106.94L30.7149 107.092C23.1855 110.532 19.6053 119.388 18.8799 121.342L19.9681 121.342Z" fill="#B1B0B0"/>
</g>
<defs>
<clipPath id="clip0_35_250">
<rect width="90" height="126" fill="white"/>
</clipPath>
</defs>
</svg>
