<svg width="90" height="95" viewBox="0 0 90 95" fill="none" xmlns="http://www.w3.org/2000/svg">
<g clip-path="url(#clip0_35_287)">
<mask id="mask0_35_287" style="mask-type:luminance" maskUnits="userSpaceOnUse" x="1" y="3" width="90" height="90">
<path d="M89.5933 3.83057V91.8032H1.94775V3.83057H89.5933Z" fill="white" stroke="white"/>
</mask>
<g mask="url(#mask0_35_287)">
<path d="M45.7583 7.86768C67.8949 7.86777 85.8432 25.8803 85.8433 48.103C85.8433 70.3258 67.8949 88.3383 45.7583 88.3384C23.6219 88.3384 5.67334 70.3259 5.67334 48.103C5.67336 25.8802 23.6219 7.86768 45.7583 7.86768Z" fill="white" stroke="#B1B0B0"/>
<path d="M45.7715 3.90308C57.4579 3.90308 68.4429 8.46953 76.707 16.7644C84.9708 25.0589 89.5214 36.085 89.5215 47.8162C89.5215 59.547 84.9707 70.5732 76.707 78.8679C68.4429 87.1623 57.4579 91.7302 45.7715 91.7302C34.0853 91.7301 23.1007 87.1631 14.8369 78.8689C6.57289 70.5741 2.02246 59.5475 2.02246 47.8162C2.02259 36.085 6.57301 25.0588 14.8369 16.7644C23.1007 8.46967 34.0853 3.9032 45.7715 3.90308ZM45.7715 7.74878C35.1083 7.7489 25.0814 11.9179 17.542 19.4851C10.0028 27.0524 5.84973 37.1153 5.84961 47.8162C5.84961 58.5172 10.0026 68.5809 17.542 76.1482C25.0814 83.7155 35.1083 87.8844 45.7715 87.8845C56.4348 87.8845 66.4625 83.7156 74.002 76.1482C81.5413 68.5809 85.6943 58.5172 85.6943 47.8162C85.6942 37.1154 81.5411 27.0524 74.002 19.4851C66.4625 11.9178 56.4348 7.74878 45.7715 7.74878Z" fill="white" stroke="#B1B0B0"/>
<path d="M37.4517 27.2234C44.553 25.4004 51.522 26.0871 58.4165 28.4412C58.88 28.5994 59.1917 28.7095 59.4155 28.8162C59.6334 28.9201 59.714 28.9959 59.7554 29.0564C59.7981 29.1189 59.841 29.2251 59.8647 29.4724C59.889 29.7253 59.8882 30.0579 59.8882 30.5466V35.5857C55.8022 32.8096 51.3782 30.7527 46.7124 29.2068C45.9679 28.9596 45.2942 28.9713 44.561 29.2283C40.1017 30.79 35.8722 32.8222 31.9497 35.489C31.9512 33.9853 31.9555 32.5229 31.9507 31.073L31.9399 29.3289C31.9385 29.184 31.9768 29.1302 32.0122 29.0925C32.0419 29.0609 32.0813 29.0306 32.1372 28.9958L32.3628 28.8728C33.948 28.0779 35.6647 27.6822 37.4517 27.2234Z" fill="white" stroke="#B1B0B0"/>
<path d="M44.1724 14.4268C46.5214 14.1425 48.805 14.5032 51.0239 15.3623C51.3578 15.4917 51.5843 15.5892 51.7466 15.6807C51.9027 15.7687 51.9692 15.8354 52.0063 15.8906C52.0438 15.9463 52.0801 16.0332 52.104 16.2109C52.1288 16.3955 52.1353 16.639 52.1353 16.9922C52.1353 18.8221 52.1236 20.6626 52.1431 22.5C52.1433 22.5254 52.1422 22.5487 52.1421 22.5703L52.104 22.5654L51.3081 22.416C47.3438 21.7228 43.369 21.7583 39.4038 22.5811C39.4231 21.5264 39.4097 20.4654 39.4097 19.4248C39.4097 18.508 39.4611 17.5008 39.3921 16.5293V16.5283C39.3711 16.2335 39.4331 16.0579 39.52 15.9336C39.6149 15.7979 39.7775 15.6696 40.0483 15.5391C41.3372 14.9178 42.7269 14.6016 44.1724 14.4268Z" fill="white" stroke="#B1B0B0"/>
<path d="M45.2832 33.6877C45.5973 33.5764 45.8843 33.5724 46.2217 33.6604L46.3691 33.7034C52.6009 35.7178 58.0831 39.0487 63.0508 43.3196C63.1047 43.3659 63.1412 43.4021 63.166 43.429C63.1426 43.4611 63.1083 43.5051 63.0557 43.5627H63.0547C59.5161 47.4414 57.1305 51.9623 55.6299 56.9592V56.9602C55.625 56.9765 55.6237 56.9802 55.6074 57.0276C55.5954 57.0626 55.5755 57.1213 55.5635 57.1907C55.5351 57.3545 55.5538 57.5468 55.6748 57.7356L55.8105 57.9485L56.0625 57.9651C56.4152 57.9884 56.6559 57.821 56.8066 57.6663C56.8734 57.5977 56.9306 57.5226 56.9658 57.4778C57.0082 57.4238 57.029 57.4005 57.0449 57.385L57.0439 57.384C58.5686 55.9064 59.9154 54.404 61.4873 53.0745C62.2234 52.452 62.9356 51.9245 63.7852 51.6594C64.5824 51.4113 65.356 51.6286 66.2803 51.9133C69.1951 52.8091 71.8162 54.3447 74.4385 55.9846C75.0792 56.3853 75.7072 56.8113 76.3408 57.2444C76.9721 57.6758 77.6112 58.116 78.2617 58.5374C78.3457 58.5918 78.3929 58.6329 78.4189 58.6614C78.4415 58.6861 78.4448 58.6979 78.4453 58.6995C78.4464 58.7029 78.4653 58.7613 78.3926 58.97C75.5349 67.1554 70.3526 73.4093 62.9219 77.7952C57.7017 80.8762 52.039 82.479 45.9922 82.4622C36.7721 82.4372 28.7995 79.1669 22.0586 72.8547C18.9633 69.9563 16.5238 66.5739 14.709 62.7473L14.3545 61.9758C14.3363 61.935 14.3155 61.902 14.2998 61.8733C14.3114 61.8641 14.3234 61.8539 14.3369 61.844C14.4984 61.7259 14.717 61.6189 14.8418 61.5764C16.7253 60.9378 18.4035 60.5744 20.3926 60.4534C23.6651 60.2549 26.6316 61.1428 29.5781 62.5813C31.881 63.706 32.6444 64.1199 36.3096 65.0149L38.1553 65.4661L36.8359 64.2268C36.8266 64.1968 36.8135 64.1549 36.7998 64.0979C36.7624 63.9422 36.7209 63.7202 36.6738 63.4417C36.58 62.8863 36.4745 62.1432 36.3594 61.3284C36.16 59.9167 35.9311 58.2825 35.6924 57.1223L35.5898 56.6565C35.3145 55.0973 34.6701 53.6657 34.0986 52.3069C32.7327 49.0589 30.9011 46.0887 28.4785 43.5022C28.4499 43.4716 28.4271 43.4444 28.4072 43.4211C28.4209 43.4082 28.436 43.393 28.4541 43.3772H28.4551C33.431 39.0464 39.0782 35.8912 45.2832 33.6877ZM45.2861 35.9622C44.9344 37.1538 44.7459 38.1642 44.5127 39.2268C44.3332 40.0444 44.0944 40.8177 43.877 41.677C43.6924 42.4065 43.5342 43.1623 43.4912 43.9319L43.4795 44.2629C43.4498 47.0546 43.5725 49.8684 43.8926 52.6594C44.2875 56.1074 44.6164 58.6955 45.0352 62.136L45.0391 62.1702L45.0479 62.2043V62.2063C45.0481 62.2073 45.0494 62.2086 45.0498 62.2102C45.0507 62.2136 45.0514 62.2185 45.0527 62.2239C45.0555 62.2349 45.0593 62.2489 45.0635 62.2659C45.0719 62.3003 45.0823 62.3451 45.0947 62.3967C45.1195 62.4999 45.1505 62.6294 45.1807 62.7561C45.2108 62.8827 45.2408 63.0067 45.2627 63.0989C45.2735 63.1446 45.2818 63.1826 45.2881 63.2092L45.2979 63.2483V63.2502L45.2988 63.2512L46.2783 63.22V63.218C46.2786 63.2165 46.2788 63.214 46.2793 63.2112C46.2803 63.2054 46.2814 63.1966 46.2832 63.1858C46.2868 63.1642 46.2925 63.1331 46.2988 63.095C46.3115 63.0186 46.3284 62.9134 46.3467 62.7991C46.3823 62.5757 46.4245 62.2995 46.4414 62.1379C46.8314 58.4216 47.5328 55.8256 47.6328 50.5344C47.6592 49.1404 47.8259 47.8215 47.9043 46.3694C47.9807 44.9544 47.9638 43.499 47.5947 42.0266C47.0985 40.0439 46.6619 38.0173 46.2559 36.0051L45.2861 35.9622Z" fill="white" stroke="#B1B0B0"/>
<path d="M12.9263 57.7405C16.3715 54.7274 20.1681 52.7814 24.7905 53.0071C28.1933 53.1735 31.1766 54.4849 33.8774 56.5813C34.171 56.8092 34.4592 57.0392 34.7554 57.2727C36.3073 59.076 38.2308 60.3882 40.1978 61.5491C41.6057 62.3798 43.1095 63.0827 44.7456 63.4788L44.7466 63.4797C44.8849 63.5131 45.2806 63.5964 45.6763 63.6741C45.78 63.6944 45.8876 63.713 45.9927 63.7327C45.1856 64.0175 44.3887 64.2438 43.5776 64.3889C39.556 64.8987 36.0259 64.5707 32.4604 63.0588L31.7456 62.7405L29.9556 61.8938C28.1486 61.049 26.2778 60.2558 24.2134 59.9368C20.9659 59.435 17.699 59.764 14.6226 60.8401L14.0103 61.0647C13.9819 61.0756 13.9551 61.0886 13.9302 61.1018C13.484 60.0918 13.1741 59.025 12.8081 57.9124V57.9114C12.8042 57.8996 12.8006 57.8889 12.7974 57.8792C12.8283 57.8448 12.869 57.8008 12.9263 57.7405Z" fill="white" stroke="#B1B0B0"/>
</g>
</g>
<defs>
<clipPath id="clip0_35_287">
<rect width="90" height="95" fill="white"/>
</clipPath>
</defs>
</svg>
