<svg width="152" height="149" viewBox="0 0 152 149" fill="none" xmlns="http://www.w3.org/2000/svg">
<path d="M86.1188 88.9907C92.6791 88.9907 97.9973 83.6783 97.9973 77.1252C97.9973 70.5721 92.6791 65.2598 86.1188 65.2598C79.5584 65.2598 74.2402 70.5721 74.2402 77.1252C74.2402 83.6783 79.5584 88.9907 86.1188 88.9907Z" fill="white"/>
<path d="M98.3441 86.0244C96.0441 88.6007 93.233 90.5974 90.0385 91.8855V91.9499C92.4663 101.289 96.2358 110.177 101.219 118.422C96.8108 120.74 92.083 122.286 87.1635 122.93L86.4608 122.995L85.6302 123.059L83.9691 123.188C82.9468 123.188 81.9246 123.252 80.9024 123.188C76.6857 123.123 72.5329 122.415 68.5718 121.062C66.719 120.483 64.8662 119.71 63.1412 118.872C61.544 118.1 60.0106 117.262 58.5412 116.296C57.2634 115.459 56.0495 114.622 54.8995 113.655C53.8134 112.818 52.9828 111.981 52.2161 111.337C50.8106 109.984 50.0439 109.147 50.0439 109.147C50.0439 109.147 50.6828 110.049 51.8967 111.594C52.5356 112.367 53.3022 113.269 54.2606 114.235C55.3467 115.394 56.4328 116.425 57.6467 117.455C59.0523 118.679 60.5217 119.774 62.0551 120.805C63.7801 121.964 65.569 122.995 67.4218 123.896C69.4023 124.862 71.5107 125.7 73.619 126.408C75.8551 127.117 78.0913 127.632 80.3913 128.018C81.5413 128.212 82.7552 128.34 83.9691 128.469L85.6302 128.598L86.4608 128.662H87.4191C89.7191 128.662 92.0191 128.534 94.3191 128.212C98.2164 127.696 102.05 126.666 105.755 125.184C107.161 127.117 108.63 128.985 110.164 130.788C110.1 130.852 110.036 130.852 109.972 130.917L108.119 132.076L107.864 132.205L107.8 132.269C107.48 132.398 108.183 132.076 108.119 132.14H108.055L107.928 132.205C107.736 132.269 107.544 132.398 107.353 132.463L106.203 133.042L105.564 133.364L105.244 133.557L105.116 133.622H105.053C104.989 133.622 105.436 133.429 105.244 133.557L105.18 133.622C104.733 133.815 104.286 134.008 103.839 134.202C103.391 134.395 102.88 134.588 102.433 134.846L102.241 134.91C102.561 134.781 102.305 134.91 102.369 134.846H102.305L102.241 134.91L101.858 135.039L101.091 135.361C94.1275 138.066 86.6524 139.354 79.1135 139.097L78.1552 139.032L77.069 138.968L74.8329 138.774C73.4912 138.581 72.0857 138.452 70.6801 138.13C65.1217 137.1 59.7551 135.296 54.7078 132.656C53.4939 132.012 52.3439 131.368 51.1939 130.724C50.0439 130.079 49.0217 129.307 47.9355 128.598C46.0189 127.245 44.1022 125.764 42.3772 124.218C40.8438 122.866 39.4383 121.449 38.0966 119.967C36.8188 118.679 35.9244 117.391 35.0938 116.361C34.2632 115.33 33.7521 114.493 33.3049 113.913L32.666 113.011C32.666 113.011 32.8577 113.333 33.1771 113.913C33.5605 114.493 34.0077 115.459 34.7105 116.554C35.4133 117.649 36.2438 119.001 37.3938 120.483C38.6077 122.157 39.9494 123.767 41.2911 125.249C42.9522 127.052 44.6772 128.791 46.53 130.337C47.5522 131.174 48.5744 132.076 49.6606 132.849C50.7467 133.686 51.8967 134.524 53.1106 135.296C55.6023 136.907 58.1578 138.324 60.8412 139.612C63.6523 140.9 66.5273 141.995 69.4662 142.832C70.9357 143.283 72.5329 143.605 74.0662 143.992L76.2385 144.378L77.3246 144.571L78.5385 144.764C81.5413 145.151 84.5441 145.344 87.5469 145.344C92.9775 145.28 98.3441 144.507 103.583 143.09L104.35 142.897L104.733 142.768L105.308 142.575C105.819 142.381 106.33 142.253 106.778 142.059L108.183 141.608L109.716 141.029C110.164 140.836 110.547 140.707 110.93 140.578C111.122 140.514 111.314 140.449 111.505 140.32L111.633 140.256H111.697L112.08 140.063L112.144 139.998L112.4 139.869L114.316 138.903C115.339 138.388 116.105 138.002 116.744 137.744C118.405 139.354 120.066 140.9 121.855 142.317C121.855 142.317 130.225 151.012 134.825 147.47C139.169 144.12 134.186 133.557 134.186 133.557C127.542 114.493 114.955 97.7467 98.3441 86.0244Z" fill="white"/>
<path d="M70.5086 73.8076C61.3789 71.1183 51.9301 69.805 42.4812 69.8675C42.7366 64.8017 44.0135 59.861 46.1842 55.2955L46.5034 54.6701L46.8864 53.9196L47.6526 52.4812C48.1633 51.6056 48.6102 50.73 49.2487 49.917C51.547 46.4772 54.3561 43.4127 57.5483 40.786C59.0167 39.5352 60.6128 38.4095 62.2728 37.4088C63.7412 36.4707 65.3372 35.6577 66.9333 34.9072C68.274 34.2818 69.6786 33.7189 71.0832 33.2186C72.36 32.7182 73.5092 32.4681 74.403 32.2179C76.2545 31.7801 77.4037 31.53 77.4037 31.53C77.4037 31.53 76.3183 31.5925 74.3392 31.8427C73.3815 31.9677 72.1685 32.0928 70.8278 32.4055C69.2955 32.7182 67.8271 33.0935 66.3587 33.5313C64.635 34.0941 62.9112 34.7195 61.1874 35.47C59.2721 36.2831 57.4845 37.2837 55.7607 38.3469C53.8454 39.5352 52.0578 40.786 50.334 42.2245C48.5464 43.7254 46.8864 45.289 45.3542 47.0401C44.5881 47.8531 43.8219 48.8538 43.0558 49.7919L42.0982 51.1053L41.6513 51.7932L41.1405 52.5437C39.9275 54.4199 38.7783 56.4212 37.8845 58.4851C36.1607 62.175 34.9477 66.1151 34.3093 70.1177V70.3053C32.0109 70.4929 29.7125 70.8056 27.4141 71.1809C27.4141 70.8056 27.4141 70.4304 27.4141 69.9926C27.4141 69.3672 27.4141 68.6792 27.4141 67.8662V67.5535V67.491C27.478 67.1783 27.3503 67.9288 27.3503 67.8662V67.8037V67.6786C27.3503 67.491 27.4141 67.3033 27.4141 67.0532C27.478 66.6154 27.478 66.2402 27.5418 65.8024C27.5418 65.5522 27.6057 65.3646 27.6057 65.1144V64.8017V64.6141V64.5516C27.6057 64.489 27.5418 64.9893 27.5418 64.7392V64.6766C27.6057 64.2388 27.6695 63.7385 27.7334 63.2382C27.7972 62.7379 27.8611 62.2375 27.9887 61.7372V61.5496C27.9249 61.8623 27.9887 61.6121 27.9249 61.6747V61.6121V61.487L27.9887 61.1118L28.1164 60.2988C29.7125 53.1066 32.5855 46.2271 36.7353 40.1606L37.3099 39.3476L37.9483 38.472L39.2891 36.7209C40.1829 35.7202 41.0128 34.5945 42.0343 33.5938C45.8011 29.5287 50.2063 25.9638 55.0584 23.1495C56.2076 22.4615 57.3568 21.8361 58.5698 21.2733C59.719 20.6478 60.932 20.1475 62.0174 19.6472C64.1881 18.7091 66.4226 17.9586 68.6571 17.2706C70.5724 16.7078 72.5516 16.27 74.5307 15.8947C76.3183 15.5195 77.8506 15.3944 79.1275 15.2068C80.4043 15.0817 81.4258 15.0192 82.1281 14.9566H83.1496L82.0643 14.8941C81.362 14.8941 80.3405 14.8315 79.0636 14.8315C77.7867 14.8941 76.1907 14.8315 74.3392 15.0192C72.2962 15.2068 70.2532 15.457 68.274 15.8322C65.848 16.27 63.4858 16.8329 61.1874 17.5833C59.9744 17.9586 58.6975 18.3964 57.4206 18.8967C56.1438 19.3345 54.8669 19.8974 53.59 20.5228C50.9086 21.7736 48.3548 23.1495 45.8649 24.713C43.3112 26.3391 40.8851 28.2153 38.5868 30.2166C37.4376 31.1547 36.2884 32.343 35.2031 33.4062L33.7347 35.0323L32.9685 35.8453L32.2024 36.7834C30.2871 39.0349 28.4995 41.474 26.9672 43.9756C24.1581 48.4785 21.9236 53.3567 20.3913 58.4225L20.136 59.173L20.0083 59.5483L19.8806 60.1111C19.7529 60.6115 19.6252 61.1118 19.4975 61.6121C19.3699 62.1125 19.2422 62.5502 19.1145 63.0506C18.9868 63.6134 18.9229 64.1138 18.7953 64.6141C18.7314 65.0519 18.6037 65.4897 18.5399 65.8649C18.476 66.0525 18.476 66.2402 18.4122 66.4903V66.6154V66.6779L18.3484 67.0532V67.1157V67.4284C18.2845 68.1789 18.2207 68.8669 18.093 69.5548C17.9014 71.4936 17.7738 72.7444 17.7099 73.3073C15.4754 73.8701 13.2409 74.5581 11.0702 75.3086C11.0702 75.3086 -0.613192 77.9978 0.0252437 83.6265C0.66368 88.9425 12.1555 90.0057 12.1555 90.0057C32.0109 94.0083 52.6324 91.8194 71.147 83.7516C70.1894 80.4995 69.934 77.1223 70.5086 73.8076Z" fill="white"/>
<path d="M151.249 69.4008C150.991 66.3383 150.474 63.3396 149.764 60.3409C149.442 58.8096 148.925 57.3421 148.538 55.8109L147.828 53.7054L147.441 52.6846L146.989 51.5361C145.891 48.7288 144.536 46.0491 142.987 43.4332C140.276 38.7756 136.919 34.437 133.046 30.6089L132.465 30.0346L132.207 29.7156L131.755 29.3328C131.368 28.95 130.981 28.631 130.593 28.2482C130.206 27.9292 129.819 27.5463 129.496 27.2273C129.044 26.8445 128.657 26.5255 128.205 26.2065L127.172 25.3771L126.656 24.9942L126.527 24.8666L126.204 24.6114L126.14 24.5476L125.881 24.3562C125.236 23.9096 124.655 23.5268 124.074 23.144C123.041 22.4421 122.267 21.8679 121.686 21.4851C122.331 19.0606 122.848 16.5723 123.235 14.084C123.88 10.3196 126.527 2.53573 121.105 0.302639C116.005 -1.80285 109.357 7.76754 109.357 7.76754C95.9955 23.144 87.927 42.2847 86.1196 62.4464C89.4761 63.1482 92.7036 64.6156 95.4146 66.7211H95.4791C102.128 60.2133 107.808 52.8122 112.326 44.773C116.651 47.4527 120.459 50.8981 123.493 54.9814L123.945 55.5557L124.397 56.2575L125.3 57.6612C125.817 58.5544 126.398 59.3838 126.85 60.3409C128.851 64.0414 130.271 67.9972 131.11 72.0805C131.497 73.9946 131.755 75.9087 131.884 77.8866C132.013 79.673 132.013 81.3957 131.884 83.1822C131.82 84.6496 131.626 86.1809 131.368 87.6484C131.174 88.9882 130.916 90.1367 130.658 91.0937C130.142 92.944 129.819 94.0286 129.819 94.0286C129.819 94.0286 130.271 93.0078 131.045 91.2213C131.368 90.3281 131.82 89.1796 132.207 87.8398C132.659 86.3723 133.046 84.8411 133.304 83.3736C133.627 81.5871 133.885 79.7369 134.014 77.8866C134.144 75.8449 134.144 73.7394 134.014 71.6977C133.885 69.4646 133.563 67.2315 133.111 65.0623C132.594 62.7654 131.949 60.5323 131.174 58.363C130.787 57.2783 130.271 56.1299 129.754 55.0453L129.044 53.5778L128.657 52.8122L128.463 51.9827C127.366 49.941 126.075 48.027 124.655 46.1767C122.202 42.9228 119.297 40.0516 116.07 37.4995C117.038 35.3303 118.006 33.0972 118.781 30.8003L119.168 30.9917L121.105 32.0125L121.363 32.1401L121.428 32.2039C121.686 32.3953 121.04 31.9487 121.105 32.0125L121.234 32.0763L121.75 32.3953L122.848 33.0972L123.429 33.48L123.751 33.6714L123.88 33.799H123.945C124.009 33.8628 123.622 33.5438 123.751 33.6714L123.816 33.7352C124.203 34.0542 124.59 34.3094 125.042 34.6284L126.333 35.5855L126.527 35.7131C126.269 35.5217 126.462 35.6493 126.398 35.5855H126.462L126.527 35.6493L126.85 35.9045L127.495 36.4149C133.369 41.2001 138.146 47.0699 141.631 53.7054L142.083 54.5986L142.535 55.6195L143.503 57.5974C144.019 58.8734 144.6 60.1495 144.988 61.4893C146.86 66.7849 147.957 72.3996 148.151 78.0142C148.215 79.354 148.215 80.6939 148.215 82.0337C148.215 83.3736 148.086 84.6497 148.021 85.8619C147.828 88.2226 147.441 90.5195 146.924 92.8802C146.472 94.8581 145.956 96.7721 145.31 98.6862C144.794 100.409 144.149 101.876 143.697 103.089C143.18 104.301 142.729 105.194 142.47 105.832C142.148 106.47 142.018 106.789 142.018 106.789C142.018 106.789 142.212 106.47 142.599 105.896C142.922 105.322 143.503 104.428 144.149 103.28C144.729 102.132 145.504 100.728 146.214 99.069C147.053 97.2188 147.828 95.3047 148.409 93.3268C149.183 91.0299 149.764 88.6692 150.281 86.2447C150.539 84.9687 150.797 83.6288 150.926 82.289C151.12 80.9491 151.249 79.5454 151.313 78.1418C151.507 75.2707 151.507 72.3357 151.249 69.4008Z" fill="white"/>
</svg>
