<svg width="100" height="88" viewBox="0 0 100 88" fill="none" xmlns="http://www.w3.org/2000/svg">
<g clip-path="url(#clip0_35_208)">
<path d="M50.5699 86.7195C25.9735 86.7195 6.12549 67.1968 6.12549 43.2118C6.12549 19.2268 26.0685 -0.295898 50.5699 -0.295898H83.9033C90.0761 -0.295898 95.0144 4.53829 95.0144 10.581V43.2118C95.0144 67.1968 75.0714 86.7195 50.5699 86.7195Z" fill="white"/>
<path d="M32.7162 52.8801L29.4873 49.7193L33.191 41.4454C34.0457 39.679 35.8501 38.4705 37.8444 38.4705H42.7827C44.1122 38.4705 45.4417 37.7268 46.0115 36.6112L48.9555 31.4051C51.4246 27.0358 55.8881 24.1538 60.9213 23.782L71.9374 22.8523C72.9821 22.7594 73.8368 23.5031 73.9317 24.5257C73.9317 24.6187 73.9317 24.7116 73.9317 24.8046L72.9821 35.5886C72.5072 40.5157 69.5633 44.8851 65.1948 47.3022L59.8767 50.1841C58.6421 50.8348 57.9773 52.0434 57.9773 53.3449V58.1791C57.9773 60.1314 56.7428 61.8977 54.9384 62.7344L46.4864 66.3601L43.2575 63.1992L43.8273 61.154C44.587 58.6439 43.8273 56.0409 42.0229 54.1816C40.1236 52.3223 37.4645 51.6716 34.9004 52.4153C34.8054 52.2293 32.7162 52.8801 32.7162 52.8801ZM60.4465 39.9579C62.8206 39.9579 64.72 38.0986 64.72 35.7745C64.72 33.4504 62.8206 31.591 60.4465 31.591C58.0723 31.591 56.173 33.4504 56.173 35.7745C56.173 38.0986 58.0723 39.9579 60.4465 39.9579Z" fill="#B1B0B0"/>
</g>
<defs>
<clipPath id="clip0_35_208">
<rect width="100" height="88" fill="white"/>
</clipPath>
</defs>
</svg>
