<svg width="126" height="121" viewBox="0 0 126 121" fill="none" xmlns="http://www.w3.org/2000/svg">
<path d="M123.043 47.7058L122.871 47.2572L105.838 2.81637C105.497 1.9457 104.885 1.21225 104.089 0.705666C103.294 0.196464 102.363 -0.0436223 101.418 0.0065081C100.479 0.0566385 99.5768 0.399619 98.8407 0.985339C98.1099 1.57635 97.5822 2.37577 97.3342 3.2781L85.8335 38.4767H39.3031L27.8023 3.2781C27.5543 2.37577 27.0267 1.57635 26.2958 0.985339C25.5597 0.399627 24.6574 0.0566385 23.7181 0.0065081C22.7736 -0.0436223 21.8422 0.196464 21.0481 0.705666C20.2513 1.21225 19.6392 1.9457 19.2988 2.81637L2.2655 47.2599L2.09396 47.7058C-2.95329 60.8713 1.34728 75.7544 12.5868 84.2553C12.6079 84.2685 12.6264 84.2843 12.6475 84.3001L12.7979 84.4136L38.7437 103.837L51.5768 113.552L59.3864 119.457C61.2676 120.881 63.869 120.881 65.7502 119.457L73.5597 113.552L86.3902 103.837L112.489 84.3001C112.513 84.2817 112.534 84.2658 112.558 84.2473C123.789 75.7465 128.087 60.8687 123.043 47.7058Z" fill="white"/>
<path d="M123.042 47.7059L122.871 47.2573C114.42 48.9934 106.637 52.5684 99.9722 57.5549C99.8641 57.6341 79.72 72.8681 62.5679 85.8357C75.3033 95.4658 86.3898 103.837 86.3898 103.837L112.489 84.3002C112.512 84.2817 112.534 84.2659 112.557 84.2474C123.789 75.7466 128.087 60.8687 123.042 47.7059Z" fill="white"/>
<path d="M38.7451 103.838L51.5782 113.552L59.3879 119.457C61.269 120.882 63.8704 120.882 65.7516 119.457L73.5612 113.552L86.3916 103.838C86.3916 103.838 75.3052 95.466 62.5697 85.8359C49.8316 95.466 38.7451 103.838 38.7451 103.838Z" fill="white"/>
<path d="M25.1613 57.5542C18.4994 52.5703 10.7188 48.9927 2.26549 47.2593L2.09397 47.7052C-2.95329 60.8707 1.34727 75.7538 12.5868 84.2546C12.6079 84.2678 12.6264 84.2837 12.6475 84.2995L12.7979 84.413L38.7437 103.837C38.7437 103.837 49.8302 95.4651 62.5683 85.835C45.4162 72.8674 25.2695 57.6334 25.1613 57.5542Z" fill="white"/>
</svg>
