<svg width="90" height="97" viewBox="0 0 90 97" fill="none" xmlns="http://www.w3.org/2000/svg">
<g filter="url(#filter0_d_35_33)">
<path fill-rule="evenodd" clip-rule="evenodd" d="M24.373 15.8344V51.6675C24.373 55.2319 27.268 58.1269 30.8324 58.1269H77.9155C81.4799 58.1269 84.3749 55.2319 84.3749 51.6675V15.8344C84.3749 12.27 81.4799 9.375 77.9155 9.375H30.8343C27.268 9.37313 24.373 12.2681 24.373 15.8344Z" fill="white"/>
<path d="M5.62305 85.3144V32.7094C5.62305 29.145 8.51805 26.25 12.0824 26.25H24.3805L65.6249 58.1175V68.5425C65.6249 72.1069 62.7299 75.0019 59.1655 75.0019H22.7268L10.4455 87.2812C9.93367 87.8044 9.22117 88.1269 8.43555 88.1269C6.8868 88.1269 5.62305 86.8631 5.62305 85.3144Z" fill="white"/>
<path d="M59.166 26.748C62.4539 26.7483 65.1248 29.4191 65.125 32.707V57.625H30.834C27.5443 57.6267 24.8733 54.9559 24.873 51.666V26.748H59.166Z" fill="white" stroke="#B1B0B0"/>
</g>
<defs>
<filter id="filter0_d_35_33" x="-4" y="0" width="98" height="98" filterUnits="userSpaceOnUse" color-interpolation-filters="sRGB">
<feFlood flood-opacity="0" result="BackgroundImageFix"/>
<feColorMatrix in="SourceAlpha" type="matrix" values="0 0 0 0 0 0 0 0 0 0 0 0 0 0 0 0 0 0 127 0" result="hardAlpha"/>
<feOffset dy="4"/>
<feGaussianBlur stdDeviation="2"/>
<feComposite in2="hardAlpha" operator="out"/>
<feColorMatrix type="matrix" values="0 0 0 0 0 0 0 0 0 0 0 0 0 0 0 0 0 0 0.25 0"/>
<feBlend mode="normal" in2="BackgroundImageFix" result="effect1_dropShadow_35_33"/>
<feBlend mode="normal" in="SourceGraphic" in2="effect1_dropShadow_35_33" result="shape"/>
</filter>
</defs>
</svg>
