<svg width="82" height="80" viewBox="0 0 82 80" fill="none" xmlns="http://www.w3.org/2000/svg">
<path d="M34.0421 39.7653H24.3816L31.1889 19.8855H47.6571L54.4686 0.00976562H23.8311C19.4357 0.00976562 15.5319 2.74574 14.1411 6.80678L0.52626 46.5624C-0.51166 49.5927 0.00940132 52.9258 1.92976 55.5185C3.85012 58.1115 6.93027 59.6451 10.2163 59.6451H34.0464L40.8539 39.7653H34.0464H34.0421Z" fill="white"/>
<path d="M79.7726 24.0151C77.8524 21.4223 74.7721 19.8887 71.4861 19.8887H47.6559L40.8486 39.7684H57.3166L50.5091 59.6482H34.0411L27.2339 79.528H57.8714C62.2666 79.528 66.1704 76.7922 67.5614 72.7312L81.1761 32.9756C82.2141 29.9451 81.6929 26.6121 79.7726 24.0192V24.0151Z" fill="white"/>
</svg>
