<svg width="83" height="40" viewBox="0 0 83 40" fill="none" xmlns="http://www.w3.org/2000/svg">
<path d="M6.5 5.5H1V35.5H60M77 35.5H81.5V5.5H23" stroke="white" stroke-width="2"/>
<circle cx="14.5" cy="4.5" r="4" fill="white"/>
<circle cx="69.5" cy="35.5" r="4" fill="white"/>
<path d="M9.53551 24.5V22.8764L14.3423 16.9254V16.8551H9.7017V14.6818H17.6214V16.4524L13.1087 22.2564V22.3267H17.7876V24.5H9.53551Z" fill="white"/>
<path d="M23.3849 24.5V14.3182H30.2457V16.093H25.5376V18.5192H29.8928V20.294H25.5376V22.7251H30.2656V24.5H23.3849Z" fill="white"/>
<path d="M36.3849 24.5V14.3182H40.402C41.1742 14.3182 41.8321 14.4657 42.3757 14.7607C42.9193 15.0523 43.3336 15.4583 43.6186 15.9787C43.907 16.4957 44.0511 17.0923 44.0511 17.7685C44.0511 18.4446 43.9053 19.0412 43.6136 19.5582C43.322 20.0753 42.8994 20.478 42.3459 20.7663C41.7957 21.0547 41.1295 21.1989 40.3473 21.1989H37.7869V19.4737H39.9993C40.4136 19.4737 40.755 19.4025 41.0234 19.2599C41.2952 19.1141 41.4974 18.9136 41.63 18.6584C41.7659 18.3999 41.8338 18.1032 41.8338 17.7685C41.8338 17.4304 41.7659 17.1354 41.63 16.8835C41.4974 16.6283 41.2952 16.4311 41.0234 16.2919C40.7517 16.1494 40.407 16.0781 39.9893 16.0781H38.5376V24.5H36.3849Z" fill="white"/>
<path d="M49.3849 24.5V14.3182H56.2457V16.093H51.5376V18.5192H55.8928V20.294H51.5376V22.7251H56.2656V24.5H49.3849Z" fill="white"/>
<path d="M62.3849 24.5V14.3182H64.5376V22.7251H68.9027V24.5H62.3849Z" fill="white"/>
</svg>
