<svg width="90" height="90" viewBox="0 0 90 90" fill="none" xmlns="http://www.w3.org/2000/svg">
<path d="M18.803 43.685C18.803 40.7692 18.8473 37.9534 18.9288 35.2404C18.9894 33.195 17.2296 31.5692 15.1948 31.7896C10.3478 32.3152 6.20006 32.9002 2.81684 33.4502C1.18873 33.7148 0 35.118 0 36.767V53.3184C0 54.9594 1.17824 56.358 2.79586 56.6318C6.20588 57.211 10.3886 57.8228 15.2601 58.3566C17.2996 58.5804 19.0617 56.9442 18.9918 54.8942C18.8706 51.3338 18.803 47.5962 18.803 43.685Z" fill="white"/>
<path d="M58.374 15.2811C57.8402 10.3816 57.2448 6.20006 56.6888 2.80752C56.423 1.18407 55.0222 0 53.3778 0H36.5806C34.9442 0 33.555 1.17358 33.2788 2.7877C32.6916 6.21872 32.068 10.4539 31.5226 15.4023C31.2976 17.4488 32.941 19.219 34.999 19.1421C38.8496 18.9999 42.9122 18.9184 47.18 18.9184C49.8478 18.9184 52.4326 18.9556 54.9326 19.0232C56.9754 19.0792 58.5954 17.3124 58.374 15.2811Z" fill="white"/>
<path d="M90.0699 53.2984V36.57C90.0699 34.9256 88.8847 33.5258 87.2625 33.2554C83.8151 32.681 79.6195 32.0796 74.7563 31.5586C72.7109 31.3396 70.9535 32.9886 71.0303 35.0444C71.1783 38.951 71.2623 43.0778 71.2623 47.4178C71.2623 49.956 71.2285 52.4174 71.1667 54.8018C71.1143 56.8414 72.8659 58.4614 74.8937 58.2458C79.6977 57.734 83.8361 57.1608 87.2427 56.6164C88.8753 56.3566 90.0699 54.951 90.0699 53.2984Z" fill="white"/>
<path d="M31.5675 74.6604C32.0745 79.519 32.6479 83.71 33.1933 87.1654C33.4509 88.8006 34.8575 89.9986 36.5125 89.9986H53.6595C55.3061 89.9986 56.7069 88.811 56.9751 87.1852C57.5507 83.6982 58.1497 79.4678 58.6649 74.573C58.8793 72.5382 57.2443 70.7854 55.1989 70.8576C51.4753 70.9904 47.5537 71.065 43.4445 71.065C40.5343 71.065 37.7245 71.0208 35.0173 70.9404C32.9777 70.8798 31.3553 72.6314 31.5675 74.6604Z" fill="white"/>
<path d="M17.0816 69.8221C12.0505 69.3361 7.62888 68.7569 3.87854 68.1753C1.83904 67.8595 0 69.4305 0 71.4945V86.6393C0 88.4957 1.50457 89.9991 3.35992 89.9991H18.3729C20.4206 89.9991 21.995 88.1939 21.699 86.1683C21.1466 82.3785 20.5942 77.9323 20.121 72.8733C19.9707 71.2625 18.6911 69.9771 17.0816 69.8221Z" fill="white"/>
<path d="M20.0488 17.2949C20.5452 12.1694 21.1374 7.67666 21.7294 3.88204C22.0476 1.84137 20.4858 0 18.4207 0H3.35642C1.50107 0 0 1.50456 0 3.35992V18.6153C0 20.6724 1.82622 22.241 3.8599 21.938C7.58576 21.3808 11.9864 20.8192 17.0082 20.332C18.613 20.177 19.8938 18.8997 20.0488 17.2949Z" fill="white"/>
<path d="M86.2183 21.7258C82.9481 21.2288 79.1875 20.7352 74.9729 20.3034C68.3181 25.2476 62.7211 32.5818 60.0069 36.4642C59.9651 36.524 59.9215 36.5822 59.8767 36.6384C59.9941 40.063 60.0603 43.6588 60.0603 47.4188C60.0603 49.6246 60.0331 51.7712 59.9827 53.8576C59.9913 53.8692 59.9995 53.8812 60.0079 53.893C62.6373 57.6542 67.9703 64.6528 74.3501 69.5816C78.8351 69.1348 82.8089 68.63 86.2335 68.1262C88.2613 67.8278 90.0689 69.4022 90.0689 71.4512V86.6412C90.0689 88.4966 88.5645 90.0012 86.7091 90.0012H71.8243C69.7707 90.0012 68.1951 88.1844 68.5005 86.1542C69.0053 82.8104 69.5031 78.9634 69.9347 74.653C63.9077 69.9224 58.9057 63.8128 55.8295 59.6188C51.9259 59.7738 47.7951 59.8644 43.4449 59.8644C39.9765 59.8644 36.6539 59.7968 33.4817 59.6792C31.7323 59.6138 30.3339 58.2224 30.2627 56.473C30.0983 52.4534 30.0029 48.188 30.0029 43.6848C30.0029 40.1862 30.0715 36.8344 30.1917 33.6376C30.2557 31.893 31.6437 30.498 33.3883 30.421C37.6993 30.2312 42.2993 30.1192 47.1789 30.1192C50.2969 30.1192 53.2967 30.1742 56.1747 30.2704C59.2331 26.1526 64.0031 20.4116 69.7103 15.8807C69.2457 11.3184 68.7231 7.29894 68.2055 3.86338C67.8989 1.82855 69.4689 0 71.5269 0H86.7089C88.5655 0 90.0689 1.50457 90.0701 3.35992V18.4021C90.0701 20.4578 88.2509 22.0358 86.2183 21.7258Z" fill="white"/>
</svg>
