<svg width="90" height="124" viewBox="0 0 90 124" fill="none" xmlns="http://www.w3.org/2000/svg">
<g clip-path="url(#clip0_35_86)">
<path fill-rule="evenodd" clip-rule="evenodd" d="M88.466 59.7824C88.466 84.3383 68.9651 104.245 44.9096 104.245C20.8544 104.245 1.35352 84.3383 1.35352 59.7824C1.35352 35.2258 20.8544 15.3187 44.9096 15.3187C68.9651 15.3187 88.466 35.2258 88.466 59.7824Z" fill="white"/>
<path d="M3.12845 70.7942C3.12845 70.7942 -0.0247272 24.4268 42.7852 23.1019L39.7987 18.1339L16.5687 25.9172L9.93142 33.5346L4.12402 44.63L0.805176 57.5467L1.80075 66.1576" fill="white"/>
<path d="M15.0771 29.4506C7.4351 37.2543 2.70614 48.0288 2.70614 59.9484C2.70614 71.8655 7.4351 82.6413 15.0771 90.4436C22.7229 98.2458 33.2598 103.06 44.9088 103.06C56.5581 103.06 67.0958 98.2458 74.7408 90.4436C82.3824 82.6413 87.1123 71.8655 87.1123 59.9484C87.1123 48.0288 82.3824 37.2543 74.7408 29.4506C67.0958 21.6499 56.5581 16.8355 44.9088 16.8345C33.2598 16.8355 22.7229 21.6499 15.0771 29.4506ZM13.1427 92.331C5.02103 84.0415 0 72.5853 0 59.9484C0 47.3094 5.02103 35.8543 13.1427 27.5643C21.2625 19.2728 32.5024 14.1334 44.9088 14.1349C57.3153 14.1334 68.5563 19.2728 76.6747 27.5643C84.7971 35.8543 89.8188 47.3104 89.8178 59.9484C89.8188 72.5853 84.7971 84.0415 76.6747 92.331C68.5563 100.622 57.3153 105.761 44.9088 105.761C32.5024 105.761 21.2625 100.622 13.1427 92.331Z" fill="#B1B0B0"/>
<path fill-rule="evenodd" clip-rule="evenodd" d="M63.2444 60.0288L56.6069 61.0224L47.6466 62.016L41.8388 62.1814L36.1975 62.016L31.8831 60.691L28.0666 56.5512L25.0799 48.1057L24.4163 46.284L20.434 44.9595L18.1109 41.1506L16.4517 35.6858L18.2771 30.8833L22.591 29.3929L26.0755 31.0492L27.7351 34.6922L29.7263 34.3609L30.3897 33.5332L29.7263 29.7243L29.56 24.9218L30.5556 18.298L30.5167 14.5144L33.5423 9.68707L38.8521 5.87814L48.1444 1.90378L58.4318 3.39417L67.392 9.8525L71.5405 16.4763L74.1952 21.2788L74.8588 33.2019L72.8676 43.4691L69.2174 52.5769L65.7328 57.3794" fill="white"/>
<path fill-rule="evenodd" clip-rule="evenodd" d="M57.6027 88.6769L33.8744 89.6705V93.6448L35.8656 107.555L34.87 108.715L18.2774 103.084L17.1155 101.097L15.4563 82.3845L11.6405 71.1236L10.8105 68.4742L24.0846 59.3665L28.2331 57.7102L31.8833 62.1813L35.0359 64.9967L38.6867 66.1557L40.3457 66.6525L42.3368 75.2634L43.8302 77.0851L47.6468 75.7602L44.9916 80.8941L59.4276 87.6833L57.6027 88.6769Z" fill="white"/>
<path fill-rule="evenodd" clip-rule="evenodd" d="M18.2773 30.8832L22.5912 29.3928L26.0757 31.0491L27.7353 34.6921L29.7264 34.3608L30.2242 32.3736L29.2287 28.5652L30.2242 19.4569L29.3943 14.489L32.381 11.0114L38.8523 5.87804L37.027 3.39406L27.901 7.86522L24.0845 10.846L21.9275 15.4826L18.6089 19.9537L17.6133 25.253L18.2773 30.8832Z" fill="white"/>
<path fill-rule="evenodd" clip-rule="evenodd" d="M25.0797 15.3171C25.0797 15.3171 27.5686 9.1901 37.5244 6.20934C47.4802 3.22857 38.0222 4.05623 38.0222 4.05623L27.2371 8.19651L23.0886 12.3363L21.2637 15.6484L25.0797 15.3171Z" fill="white"/>
<path fill-rule="evenodd" clip-rule="evenodd" d="M20.1022 29.7243C20.1022 29.7243 16.6177 18.1321 29.8921 16.4762L29.3943 14.4891L20.2685 16.6422L17.6133 25.2531L18.2773 30.8833L20.1022 29.7243Z" fill="white"/>
<path fill-rule="evenodd" clip-rule="evenodd" d="M25.4116 45.1249L27.5842 43.0239C27.5842 43.0239 28.5648 43.1377 28.7305 44.2967C28.8961 45.4562 29.3939 55.8889 36.5288 61.5196C37.1796 62.0333 31.2194 60.6909 31.2194 60.6909L25.9094 52.4114" fill="white"/>
<path fill-rule="evenodd" clip-rule="evenodd" d="M55.9438 41.9788C55.9438 41.9788 56.3306 36.9591 57.685 37.3452C59.0395 37.7312 59.0395 39.0829 59.0395 39.0829C59.0395 39.0829 55.7501 41.2067 55.9438 41.9788Z" fill="white"/>
<path d="M69.715 23.5972C69.715 23.5972 66.9802 24.1734 66.7283 26.5779C66.4764 28.9829 69.715 27.0747 70.2128 26.9093" fill="white"/>
<path d="M49.6376 23.7631C49.6376 23.7631 45.9868 24.2599 45.9868 26.5779C45.9868 28.8965 50.1355 28.7311 51.2968 27.7375" fill="white"/>
<path fill-rule="evenodd" clip-rule="evenodd" d="M27.0712 34.5267C27.0712 34.5267 20.7656 30.7178 20.1022 34.3613C19.4385 38.0043 17.9448 40.6542 21.0977 44.4626L18.9407 43.8004L16.9496 38.667L16.2861 33.6991L20.1022 29.7242L24.4164 30.0556L26.9053 32.0428L27.0712 34.5267Z" fill="white"/>
<path fill-rule="evenodd" clip-rule="evenodd" d="M30.0578 24.094C30.0578 24.094 32.8786 9.52151 47.1488 6.70617C58.8972 4.38863 65.0688 7.20296 67.392 9.85237C67.392 9.85237 56.9384 -2.567 46.9826 1.24143C37.0268 5.05036 29.7263 12.0055 29.8919 16.4761C30.1745 24.091 30.0578 24.094 30.0578 24.094Z" fill="white"/>
<path fill-rule="evenodd" clip-rule="evenodd" d="M68.554 11.5082C68.554 11.5082 63.7424 11.3427 63.5762 15.6484C63.5762 15.6484 63.5757 16.3107 63.9077 16.9729C63.9077 16.9729 67.7247 12.6672 70.0474 14.9857" fill="white"/>
<path fill-rule="evenodd" clip-rule="evenodd" d="M47.4834 17.4216C47.4834 17.4216 46.6551 10.8128 41.0093 14.655C37.3589 17.1389 37.691 20.6165 38.3545 21.2787C39.0181 21.9414 38.8377 23.2753 39.3429 22.3598C39.8478 21.4442 39.6816 18.4634 41.5071 17.6357C43.3323 16.8076 46.3245 15.8825 47.4834 17.4216Z" fill="white"/>
<path fill-rule="evenodd" clip-rule="evenodd" d="M31.8833 62.1814L16.2862 69.1366C16.2862 69.1366 22.7574 94.8045 19.4386 102.753L17.1155 101.926L16.9497 92.155L12.636 73.6082L10.8105 68.4743L27.0713 57.5453L31.8833 62.1814Z" fill="white"/>
<path fill-rule="evenodd" clip-rule="evenodd" d="M33.4868 76.3784L35.6996 79.0729V89.0088H33.0444C33.0444 89.0088 32.7129 82.0537 32.7129 81.2254C32.7129 80.3973 33.0444 77.4166 33.0444 77.4166" fill="white"/>
<path fill-rule="evenodd" clip-rule="evenodd" d="M33.5425 90.4991L26.0757 90.83L28.2331 92.3204L33.5425 93.1484" fill="white"/>
<path fill-rule="evenodd" clip-rule="evenodd" d="M59.0957 88.8428L65.2349 88.6773L66.7283 103.913L60.4228 104.74L59.0957 88.8428Z" fill="white"/>
<path fill-rule="evenodd" clip-rule="evenodd" d="M60.7549 88.8428L70.0471 88.346C70.0471 88.346 73.8631 78.7413 73.8631 78.2445C73.8631 77.7478 77.1819 64.3344 77.1819 64.3344L69.7151 56.5516L68.2217 55.2266L64.2394 59.201V74.6017L60.7549 88.8428Z" fill="white"/>
<path fill-rule="evenodd" clip-rule="evenodd" d="M64.9029 87.6838L59.0957 88.8429L59.925 93.48C62.0819 94.4736 65.7327 91.8237 65.7327 91.8237" fill="white"/>
<path fill-rule="evenodd" clip-rule="evenodd" d="M65.0693 58.7042L76.6842 67.3152L77.0162 63.3408L68.2218 55.2267L65.0693 58.7042Z" fill="white"/>
<path fill-rule="evenodd" clip-rule="evenodd" d="M39.3005 121.467L35.8652 107.555L34.1566 97.29L33.874 89.6705L49.4223 88.8445L59.0956 88.8429L58.216 106.232L59.7094 119.646L59.5436 122.13L46.9334 123.123L39.3005 121.467Z" fill="white"/>
<path fill-rule="evenodd" clip-rule="evenodd" d="M56.9384 88.6774C56.9384 88.6774 56.109 105.9 58.598 118.154C58.598 118.154 53.6201 121.301 46.3188 122.128L60.2571 121.631L61.9162 120.638L59.9251 93.48L59.4273 87.6834" fill="white"/>
<path fill-rule="evenodd" clip-rule="evenodd" d="M67.011 102.589L73.4822 100.767L85.7606 100.105L87.586 94.475L84.2673 84.7045L80.4512 84.2077L75.1413 85.8636L70.047 88.346L67.3425 87.8508L65.2349 88.6773" fill="white"/>
<path fill-rule="evenodd" clip-rule="evenodd" d="M66.894 99.2756C66.894 99.2756 71.2079 97.2888 71.8719 97.4544L70.047 88.3461L72.2039 87.5185C72.2039 87.5185 73.6973 96.1293 73.6973 97.1229C73.6973 97.1229 82.989 97.6197 83.8188 97.6197C83.8188 97.6197 85.81 93.8109 85.3122 89.8365L87.1376 95.1357L87.3033 98.1165L84.6486 102.091L81.6619 102.753L76.684 102.588L75.0249 100.435L69.2172 101.263L67.3918 101.926" fill="white"/>
<path d="M60.3736 87.52L56.7233 78.2463L52.9067 72.7816C52.9067 72.7816 53.7361 70.463 54.8979 70.463C56.0597 70.463 58.7144 70.463 58.7144 70.463L62.3647 71.788L62.0332 77.915L60.3736 87.52Z" fill="white"/>
<path fill-rule="evenodd" clip-rule="evenodd" d="M61.0869 84.3718C61.0869 84.3718 56.4406 75.4299 56.4406 74.105C56.4406 74.105 57.2699 72.1178 58.4317 72.6146C59.5935 73.1114 62.0825 74.4359 62.0825 74.4359V71.2897L56.4406 70.1301L52.6245 70.6269L59.0958 85.8621L60.4229 86.0281" fill="white"/>
<path d="M40.7945 62.5147L36.1977 62.0159L31.8833 60.691V62.1814L33.9913 64.5014L40.6284 67.4822" fill="white"/>
<path fill-rule="evenodd" clip-rule="evenodd" d="M33.3772 63.0111C33.3772 63.0111 38.5213 65.1642 40.1805 64.6674L40.3456 66.6526L35.7005 65.661L32.8794 63.6738L33.3772 63.0111Z" fill="white"/>
<path fill-rule="evenodd" clip-rule="evenodd" d="M66.9931 71.0269C64.1777 70.9444 61.634 70.6105 59.4069 69.9836C59.5582 69.0725 59.2749 68.1782 59.5024 67.522C60.1232 67.0758 61.1635 67.0828 62.1019 66.978C61.2905 66.58 60.1506 66.4226 59.2142 66.6526C59.1923 66.0202 58.9081 65.6282 58.7358 65.1334C60.3188 64.5695 64.0557 60.8729 66.1579 62.097C67.1594 62.6792 67.585 66.0048 67.6627 67.6218C67.7274 68.9632 67.5407 70.3164 66.9931 71.0269Z" fill="white"/>
<path d="M66.9931 71.0269C64.1777 70.9444 61.634 70.6105 59.4069 69.9836C59.5582 69.0725 59.2749 68.1782 59.5024 67.522C60.1232 67.0758 61.1635 67.0828 62.1019 66.978C61.2905 66.58 60.1506 66.4226 59.2142 66.6526C59.1923 66.0202 58.9081 65.6282 58.7358 65.1334C60.3188 64.5695 64.0557 60.8729 66.1579 62.097C67.1594 62.6792 67.585 66.0048 67.6627 67.6218C67.7274 68.9632 67.5407 70.3164 66.9931 71.0269Z" stroke="white" stroke-width="2.5"/>
<path fill-rule="evenodd" clip-rule="evenodd" d="M53.5295 66.4333C53.522 66.646 53.513 66.8601 53.5046 67.0747C52.6255 67.651 51.2063 67.644 50.2416 68.1284C51.6637 68.1905 52.7833 68.5323 53.752 69.0142C53.7306 69.5497 53.7102 70.0848 53.6892 70.6203C52.0779 71.7212 50.606 73.3606 48.7088 74.393C47.8118 74.8813 44.6637 76.1376 43.7093 75.9156C43.1694 75.7905 43.1207 75.1217 42.9049 74.4914C42.445 73.1415 41.3862 70.9929 41.2939 68.961C41.1763 66.3946 40.9167 62.0933 43.6879 62.6219C45.9237 63.0477 48.5241 64.0755 50.255 65.0194C51.3128 65.5967 51.9246 66.3101 53.5295 66.4333Z" fill="white"/>
<path d="M53.5295 66.4333C53.522 66.646 53.513 66.8601 53.5046 67.0747C52.6255 67.651 51.2063 67.644 50.2416 68.1284C51.6638 68.1905 52.7833 68.5323 53.752 69.0142C53.7306 69.5497 53.7102 70.0848 53.6892 70.6203C52.0779 71.7212 50.606 73.3606 48.7088 74.393C47.8118 74.8813 44.6637 76.1376 43.7093 75.9156C43.1694 75.7905 43.1207 75.1217 42.9049 74.4914C42.445 73.1415 41.3862 70.9929 41.2939 68.961C41.1763 66.3946 40.9167 62.0933 43.6879 62.6219C45.9237 63.0477 48.5241 64.0755 50.255 65.0194C51.3128 65.5967 51.9246 66.3101 53.5295 66.4333Z" stroke="white" stroke-width="2.5"/>
<path fill-rule="evenodd" clip-rule="evenodd" d="M55.13 69.4957C54.8841 68.0977 54.5999 67.6988 54.7099 66.4792C58.4458 63.9932 59.1472 70.7491 55.13 69.4957Z" fill="white"/>
<path d="M55.13 69.4957C54.8841 68.0977 54.5999 67.6988 54.7099 66.4792C58.4458 63.9932 59.1472 70.7491 55.13 69.4957Z" stroke="white" stroke-width="2.5"/>
<path fill-rule="evenodd" clip-rule="evenodd" d="M60.5395 70.6289C60.5395 70.6289 59.3776 68.9726 60.2075 68.4758C61.0373 67.979 61.8671 68.4763 62.3649 67.6481C62.8627 66.82 62.3649 66.3232 62.5306 65.3296C62.6964 64.336 63.5267 64.1701 64.356 64.0046C65.1853 63.8392 67.509 63.5078 67.8405 64.336L66.845 61.3552L64.8538 60.693L58.5483 64.336L58.2163 66.1578V69.8007" fill="white"/>
<path fill-rule="evenodd" clip-rule="evenodd" d="M43.1172 76.0935C42.9179 73.5091 42.7069 70.9283 42.4722 68.3464C42.121 64.4913 43.4001 65.164 46.7485 65.164C47.2599 65.164 49.8975 65.7725 50.0861 66.1576C50.9911 68.0022 48.5728 67.5923 51.1285 68.9833C53.2859 70.1573 57.097 68.2704 56.2253 65.6608C55.7375 65.0805 53.6836 65.4799 52.9474 65.0989C51.6512 64.4282 50.3549 63.7575 49.0585 63.0869C47.4093 62.2329 43.5975 60.9879 41.8391 62.1812C37.3837 65.2052 42.1203 72.761 43.7097 75.9156" fill="white"/>
<path fill-rule="evenodd" clip-rule="evenodd" d="M47.4834 17.4217C42.9609 16.3705 40.7136 19.3105 39.3428 22.3599C38.1187 22.0638 38.6058 20.4025 38.915 19.556C39.7245 17.3343 42.9867 14.3769 45.6522 14.7778C46.7993 14.9502 48.3515 15.9969 47.4834 17.4217Z" fill="#B1B0B0"/>
<path fill-rule="evenodd" clip-rule="evenodd" d="M69.5186 22.5615C69.5897 22.5645 69.6619 22.5669 69.7331 22.5699C70.7551 24.6888 71.6396 26.9333 72.9289 28.8037C72.0652 30.8113 66.389 32.5878 66.4766 28.9831C67.7041 28.4475 69.8232 28.8738 70.9114 28.1897C70.2822 26.4663 69.3742 24.9992 69.5186 22.5615Z" fill="#B1B0B0"/>
<path fill-rule="evenodd" clip-rule="evenodd" d="M49.7987 22.6165C50.7684 24.3906 51.084 26.2546 52.4623 27.5954C53.0831 28.199 54.2902 28.9348 53.6919 30.6134C53.552 31.0094 52.53 31.8922 51.9402 32.0656C49.7852 32.7005 44.764 32.1967 46.4644 29.5155C48.2465 29.5985 50.6419 30.6706 51.974 29.3794C50.9511 27.7474 49.1274 24.5188 49.7987 22.6165Z" fill="#B1B0B0"/>
<path fill-rule="evenodd" clip-rule="evenodd" d="M68.7097 40.6474C65.4651 42.7274 61.8472 44.9894 56.5308 44.4647C55.3949 43.4791 54.9618 41.2858 56.0654 39.8371C56.6399 40.8227 56.279 42.6355 57.8798 42.9083C60.8964 43.4235 64.4073 41.0667 66.5772 40.243C67.9227 37.9791 66.4612 37.1465 65.2491 35.6894C62.7676 32.7041 59.4389 29.004 59.5599 24.5348C60.5629 23.809 60.6495 25.6427 60.7934 25.9765C62.0891 29.003 65.3501 32.8735 67.7301 35.4638C68.3145 36.1017 69.2767 36.7137 69.3837 37.1355C69.6923 38.3621 68.5808 39.8316 68.7097 40.6474Z" fill="#B1B0B0"/>
<path fill-rule="evenodd" clip-rule="evenodd" d="M25.9353 38.4574C24.9183 37.8781 24.6762 35.3266 23.4823 35.254C21.776 35.1507 22.0871 38.5642 22.094 40.5603C20.9195 39.4962 20.7129 36.2198 21.5758 34.5372C20.5924 34.0553 20.1533 35.0687 19.6079 35.4259C20.3089 30.3437 27.0573 33.0686 25.9353 38.4574Z" fill="#B1B0B0"/>
<path fill-rule="evenodd" clip-rule="evenodd" d="M70.7755 42.7635C69.2652 45.6325 67.1287 48.7921 62.6969 48.884C62.6068 47.9575 62.5376 46.5476 62.7019 45.9897C66.0898 45.6648 68.1815 43.9439 70.7755 42.7635Z" fill="#B1B0B0"/>
<path fill-rule="evenodd" clip-rule="evenodd" d="M49.543 44.6235C52.3696 46.1069 57.5645 46.2664 61.4064 46.1541C61.6125 46.9942 61.6075 48.032 61.6155 49.0564C56.677 49.3023 50.8379 48.0827 49.543 44.6235Z" fill="#B1B0B0"/>
<path fill-rule="evenodd" clip-rule="evenodd" d="M49.0059 47.3897C50.9606 52.2876 57.6787 51.7238 63.344 51.5886C63.0946 52.2245 62.554 52.9757 61.882 53.2474C60.0666 53.9847 55.0594 54.5441 52.5391 53.2082C50.9407 52.3602 49.9137 50.444 49.038 49.3208C48.6151 48.7783 46.5092 47.3927 49.0059 47.3897Z" fill="#B1B0B0"/>
<path fill-rule="evenodd" clip-rule="evenodd" d="M68.4736 74.4069C66.1798 78.3277 63.9851 82.3547 61.2637 85.813C62.4046 82.465 62.8929 76.8615 63.0652 72.5897C65.4521 71.4749 67.496 72.8406 68.4736 74.4069Z" fill="white"/>
<path fill-rule="evenodd" clip-rule="evenodd" d="M80.8169 88.4986C78.2488 89.0117 76.4443 91.5026 73.939 91.3427C75.3158 89.4056 77.7286 88.589 80.8169 88.4986Z" fill="#B1B0B0"/>
<path fill-rule="evenodd" clip-rule="evenodd" d="M81.9497 92.5096C79.8565 92.7302 77.398 93.0685 75.2749 92.8942C76.2799 91.3621 80.1522 91.8907 81.9497 92.5096Z" fill="#B1B0B0"/>
<path fill-rule="evenodd" clip-rule="evenodd" d="M82.6752 95.9676C80.3227 96.0185 77.3987 95.9717 75.1626 95.7845C76.4852 94.3667 81.1495 95.2584 82.6752 95.9676Z" fill="#B1B0B0"/>
<path fill-rule="evenodd" clip-rule="evenodd" d="M64.0476 105.431C64.3851 108.38 65.5564 111.368 65.4095 114.597C64.1088 115.034 63.3616 115.417 61.6189 115.415C61.4959 112.671 61.128 108.475 61.238 105.859C62.0952 105.916 63.3591 105.248 64.0476 105.431Z" fill="white"/>
<path fill-rule="evenodd" clip-rule="evenodd" d="M60.2545 61.9757C59.0733 62.7453 58.0673 63.7061 56.9328 64.5278C54.417 64.652 53.0441 64.3539 51.1958 62.9122C51.2262 62.7964 51.4118 62.8481 51.4188 62.706C54.1118 63.9038 57.5351 62.2182 60.2545 61.9757Z" fill="white"/>
<path fill-rule="evenodd" clip-rule="evenodd" d="M46.1172 80.2965C46.8571 77.0966 49.7563 75.4393 52.3891 73.6772C55.1065 77.1191 56.7591 81.5455 58.5791 85.8169C54.2792 84.5233 49.8857 82.4243 46.1172 80.2965Z" fill="white"/>
<path fill-rule="evenodd" clip-rule="evenodd" d="M61.2379 105.859C61.1279 108.475 61.4958 112.67 61.6187 115.415C63.3615 115.417 64.1087 115.034 65.4094 114.597C65.5562 111.367 64.3849 108.38 64.0474 105.431C63.359 105.248 62.0951 105.916 61.2379 105.859ZM34.1015 90.9805C35.2507 101.524 36.9151 110.387 39.9679 119.724C46.7435 121.777 54.9115 121.956 60.9004 120.103C59.8008 114.833 60.2812 108.418 59.6385 102.795C59.1542 98.5681 59.4011 94.3154 58.737 90.0033C51.4803 88.4966 41.2231 89.651 34.1015 90.9805ZM60.4529 90.0694C60.3917 94.5976 60.656 99.0643 61.0025 103.598C62.7447 103.337 63.927 103.163 65.5458 102.809C65.0201 98.4439 65.0848 93.5324 64.0141 89.6714C62.7766 89.6832 61.6869 89.657 60.4529 90.0694ZM69.2911 89.3395C68.4643 89.1504 67.5016 89.3322 66.7116 89.3475C67.0829 93.0387 67.9839 97.1119 68.301 100.986C69.544 101.025 70.208 100.44 71.2305 100.243C71.2853 96.8421 70.9328 92.1564 69.2911 89.3395ZM82.6736 101.542C85.2646 100.914 86.8939 97.7472 86.1691 94.4948C85.6828 92.3089 84.8166 88.1928 83.8897 86.7945C83.2048 85.7601 81.3475 84.406 79.8646 85.3537C77.4523 86.8954 73.2027 87.3429 71.4436 89.2089C72.3256 92.14 72.5994 96.166 72.9633 99.8799C75.9769 100.067 79.6849 99.0523 82.1913 100.13C80.4416 100.695 78.1712 100.7 76.6594 101.524C77.8949 102.12 80.7875 101.999 82.6736 101.542ZM58.5792 85.8168C56.7593 81.5453 55.1067 77.119 52.3892 73.6771C49.7565 75.4392 46.8573 77.0965 46.1174 80.2963C49.8859 82.4242 54.2793 84.5232 58.5792 85.8168ZM63.0653 72.5896C62.8931 76.8614 62.4047 82.4649 61.2638 85.8129C63.9852 82.3545 66.18 78.3276 68.4738 74.4068C67.4961 72.8405 65.4522 71.4748 63.0653 72.5896ZM57.9799 70.7862C56.949 70.6754 56.0739 71.9691 54.7333 71.4097C54.4262 71.7485 54.1469 72.1157 53.8338 72.4465C56.7947 76.0076 58.1402 81.0599 60.427 85.2449C61.6541 81.2249 61.5127 76.8207 61.783 72.4331C60.097 72.5399 59.1616 70.9114 57.9799 70.7862ZM54.7099 66.479C54.5999 67.6987 54.8842 68.0976 55.1301 69.4956C59.1472 70.749 58.4458 63.9931 54.7099 66.479ZM50.2552 65.0194C48.5243 64.0755 45.9239 63.0477 43.6882 62.6219C40.9169 62.0928 41.1765 66.3946 41.2941 68.961C41.3864 70.9929 42.4452 73.1415 42.9051 74.4914C43.1209 75.1217 43.1696 75.7904 43.7095 75.9156C44.6639 76.1376 47.812 74.8813 48.709 74.393C50.6062 73.3606 52.0781 71.7212 53.6895 70.6203C53.7104 70.0848 53.7308 69.5497 53.7522 69.0142C52.7835 68.5323 51.664 68.1905 50.2418 68.1284C51.2065 67.644 52.6257 67.651 53.5048 67.0747C53.5132 66.8601 53.5222 66.6459 53.5297 66.4333C51.9248 66.3101 51.313 65.5967 50.2552 65.0194ZM33.7219 62.0223C32.2853 63.4779 37.7512 65.4621 39.4916 65.5689C39.4819 64.6478 40.0175 63.7794 39.9096 63.1187C37.8426 62.7565 35.1262 62.9955 33.7219 62.0223ZM51.4191 62.7059C51.4121 62.8479 51.2264 62.7963 51.196 62.912C53.0443 64.3537 54.4172 64.6518 56.933 64.5276C58.0675 63.7059 59.0735 62.7451 60.2548 61.9756C57.5354 62.218 54.1121 63.9036 51.4191 62.7059ZM67.6629 67.6216C67.5852 66.0046 67.1596 62.679 66.1581 62.0968C64.0559 60.8722 60.319 64.5693 58.736 65.1332C58.9083 65.628 59.1925 66.02 59.2144 66.6524C60.1507 66.4224 61.2907 66.5799 62.1021 66.9778C61.1637 67.0826 60.1234 67.0757 59.5026 67.5218C59.2751 68.1781 59.5584 69.0723 59.4071 69.9834C61.6342 70.6104 64.1778 70.9442 66.9933 71.0267C67.5409 70.3163 67.7276 68.963 67.6629 67.6216ZM31.3034 63.4302C30.8522 63.1093 27.8004 59.1463 27.3823 59.3108C21.86 61.4842 16.6964 65.2425 12.0821 68.7971C16.4815 78.2183 18.2574 89.7609 18.5712 100.886C23.6109 103.238 28.0376 106.63 34.8763 106.984C34.0849 101.396 33.3626 96.4103 32.9134 91.1494C31.195 90.4265 28.7298 91.1821 27.1217 90.9252C27.1081 88.9912 29.5776 90.0783 29.7833 88.7778C29.9383 87.7941 28.4246 87.7195 28.9175 86.1705C30.1746 86.6266 30.8347 87.6339 32.1754 88.0122C33.4005 85.3375 32.1583 80.6049 32.3349 78.3693C32.3683 77.9496 32.5449 76.0439 33.487 76.3783C34.3208 76.6742 33.4394 81.4465 33.5308 83.5624C33.614 85.5117 33.2949 87.398 34.0859 88.6217C40.6942 87.724 47.4095 87.1437 54.5596 86.948C52.9866 86.2744 51.1179 85.6369 49.0691 84.4844C47.9584 83.8595 44.4574 82.5593 44.1369 81.5065C43.6255 79.8288 45.4786 78.9352 45.7955 77.497C42.4598 79.3126 41.809 75.7567 41.0199 73.2374C40.3049 70.9556 39.898 69.2511 39.7225 67.9351C36.849 66.5679 33.7767 65.1834 31.3034 63.4302ZM64.7443 59.7902C69.3454 57.5635 70.1747 68.112 68.3712 71.5101C68.65 72.5235 69.6087 72.9115 70 73.8226C67.4324 78.413 64.5806 82.6978 61.9607 87.2342C63.9095 86.0234 66.6932 87.0176 68.9865 86.1114C69.8247 85.7805 70.4316 83.8653 71.0662 82.3332C72.812 78.118 74.6448 72.8037 75.4602 68.7812C75.6444 67.8646 76.1461 65.8675 76.0337 65.0517C75.833 63.5912 73.8474 62.5081 72.8374 61.605C70.9766 59.9367 69.8048 58.4687 67.864 56.9088C67.077 58.0683 65.388 58.8473 64.7443 59.7902ZM20.7808 19.0689C18.5884 21.4764 19.0473 25.9873 19.3127 29.1965C23.2755 26.7086 28.5354 29.3933 28.4858 33.625C30.3778 33.5748 29.1926 31.2667 28.8504 29.7798C27.7319 24.9231 30.7346 19.6467 28.9865 15.2053C25.5924 15.4622 22.804 16.8457 20.7808 19.0689ZM36.4679 5.09604C31.5046 6.49998 25.1436 10.0993 23.104 14.549C24.6833 14.32 25.7797 13.5252 27.3376 13.4268C27.9264 13.3885 28.6977 13.6732 29.3744 13.5053C30.7229 13.1714 31.861 10.1539 32.8784 9.03114C33.87 7.93472 35.062 7.46625 35.8777 6.4667C36.4018 6.21432 37.1767 6.23171 37.2064 5.44628C36.9793 5.20384 36.7401 5.01904 36.4679 5.09604ZM62.3047 6.41651C57.1531 3.51573 48.4333 1.33381 42.9533 4.06022C38.5316 6.26052 32.5546 9.90103 30.5168 14.5143C32.4204 18.966 29.9529 23.0452 29.7954 27.5651C29.7118 29.9701 30.93 32.0695 31.0234 34.6876C30.3719 35.7602 28.3817 35.8923 27.0041 35.8188C26.5403 33.5028 25.7285 30.8996 23.3388 30.6383C19.9573 30.2691 17.4849 33.0621 17.3313 35.9808C17.1495 39.4131 19.9728 45.1019 23.9746 44.707C25.5205 44.5545 25.9002 43.0079 27.5845 43.0238C28.4974 44.8416 26.1763 45.4124 25.9376 46.7125C25.8753 47.0484 26.13 48.3609 26.2782 48.9764C27.0051 51.9736 28.6254 55.8526 30.2203 58.1344C32.2445 61.0287 36.2213 61.4649 40.4998 61.7485C41.2639 60.1056 44.079 60.2408 45.9132 60.6705C43.715 59.8016 41.6713 57.6952 39.9777 55.8307C38.0322 53.6915 36.0615 51.3968 35.962 48.6009C39.6384 53.691 42.6757 58.1363 49.3608 60.3754C54.4192 62.0685 60.327 59.5994 64.2137 56.8755C65.8265 55.7433 66.7892 53.9469 67.9356 52.3025C72.2251 46.1447 74.2267 37.3554 73.7866 28.8364C73.6054 25.323 73.6134 21.8216 72.4322 19.4579C71.1976 16.9863 67.0222 14.7751 64.5781 17.0107C64.1251 14.6072 66.6105 13.1208 69.5301 13.9857C67.4483 11.3045 65.2635 8.08276 62.3047 6.41651ZM71.9025 85.6887C75.9281 83.6914 83.4497 80.3128 85.9735 85.696C86.9048 87.6803 87.9975 91.0346 88.4798 93.083C89.1613 95.9727 87.7411 102.047 84.7648 103.016C82.136 103.873 79.0687 103.821 75.9022 103.186C75.5294 102.876 75.1142 102.337 74.824 101.774C72.5631 101.687 70.446 101.895 68.6599 102.823C68.8292 104.492 67.6982 104.76 66.6379 105.103C65.8519 108.214 68.2104 112.276 67.6459 115.112C67.2432 117.132 64.7523 117.445 62.9214 117.823C62.8617 118.946 63.0016 119.883 63.1265 120.833C62.7079 122.372 60.8302 123.249 59.0511 123.463C53.1977 124.166 44.31 124.481 38.6797 122.461C37.1086 118.615 35.8709 113.937 34.5623 109.545C29.0711 110.13 24.6299 107.18 20.443 105.248C18.9934 104.577 16.9881 104.208 16.4465 103.056C15.9215 101.941 16.1364 99.8045 16.0061 97.786C15.6746 92.6308 15.3907 87.6584 14.0266 82.3799C13.4141 80.0113 12.3466 77.9212 11.6018 75.6389C10.9135 73.5236 9.71083 70.9094 9.39717 68.8C8.93209 65.6737 11.8818 65.4998 13.768 64.1451C16.6837 62.0501 18.9724 60.8916 22.1302 59.0008C23.0655 58.4409 25.886 57.0235 26.2069 56.3707C26.8446 55.0766 25.1121 53.2519 24.6489 52.2374C23.9162 50.6332 23.5341 49.2705 23.4292 47.6878C20.7802 47.27 18.7721 45.6966 17.5591 43.9225C15.5527 40.9865 14.1611 35.5545 15.8972 31.4227C16.0333 31.0973 16.7123 30.4574 16.8125 29.9576C17.01 28.9735 16.4407 27.6649 16.4053 26.6182C16.2229 21.2478 17.3157 16.6207 20.9383 15.0011C22.4089 9.15435 27.6724 7.2104 32.6314 4.30464C34.4851 3.21865 36.5285 2.52463 38.6389 1.74963C46.2094 -1.03094 57.8246 -0.507309 64.1077 4.23509C66.7718 6.24612 71.0304 10.4922 72.5536 13.5664C76.5767 21.6825 76.291 35.2465 73.477 45.1193C73.0987 46.4448 72.5501 48.3932 71.784 49.9854C71.2499 51.0973 69.5898 53.3219 69.7914 54.3036C69.999 55.3185 73.5766 58.0295 74.3437 58.7678C75.725 60.0977 78.3494 61.8628 78.5619 63.541C78.7904 65.327 77.7734 67.7702 77.2582 69.4936C75.5359 75.2449 73.8553 80.5612 71.9025 85.6887Z" fill="#B1B0B0"/>
<path fill-rule="evenodd" clip-rule="evenodd" d="M45.0453 45.8764C45.2637 45.5863 46.4644 45.1456 48.1445 45.9529C48.1445 45.9529 46.1533 46.2843 46.319 49.5974L45.4893 49.4315C45.4893 49.4315 44.6318 46.4274 45.0453 45.8764Z" fill="white"/>
<path fill-rule="evenodd" clip-rule="evenodd" d="M59.5935 74.3534C59.5935 74.8562 59.1848 75.2639 58.6805 75.2639C58.1768 75.2639 57.7681 74.8562 57.7681 74.3534C57.7681 73.8506 58.1768 73.4423 58.6805 73.4423C59.1848 73.4423 59.5935 73.8506 59.5935 74.3534Z" fill="white"/>
<path fill-rule="evenodd" clip-rule="evenodd" d="M60.5061 78.576C60.5061 79.0789 60.0974 79.4866 59.5931 79.4866C59.0893 79.4866 58.6807 79.0789 58.6807 78.576C58.6807 78.0732 59.0893 77.6649 59.5931 77.6649C60.0974 77.6649 60.5061 78.0732 60.5061 78.576Z" fill="white"/>
</g>
<defs>
<clipPath id="clip0_35_86">
<rect width="90" height="124" fill="white"/>
</clipPath>
</defs>
</svg>
