<svg width="90" height="90" viewBox="0 0 90 90" fill="none" xmlns="http://www.w3.org/2000/svg">
<path d="M45.0012 59.6957L30.3055 45L45.0012 30.3043V0L3.03117 41.97C2.22772 42.7737 1.77637 43.8636 1.77637 45C1.77637 46.1364 2.22772 47.2263 3.03117 48.03L45.0012 90C45.0012 90 51.4297 85.7143 51.4297 75C51.0972 69.3142 48.8286 63.9135 45.0012 59.6957Z" fill="white"/>
<path d="M32.6004 42.1436L32.8811 42.4243L45.0011 30.3043V0L22.2847 22.7143C23.9927 29.971 27.5461 36.6635 32.6004 42.1436Z" fill="white"/>
<path d="M35.701 39.1821L35.9153 39.3964L45.0053 30.3064V0L26.0024 18.9986C27.194 26.5295 30.5657 33.5463 35.701 39.1821Z" fill="white"/>
<path d="M45.001 30.3043V0L30.001 15C30.3294 22.9612 33.5004 30.5409 38.9388 36.3643L45.001 30.3043Z" fill="white"/>
<path d="M34.2867 15C34.2867 25.17 41.5874 32.9379 41.9688 33.3343L45.0009 30.3043V0L34.6681 10.3329C34.4118 11.8753 34.2842 13.4364 34.2867 15Z" fill="white"/>
<path d="M45.0013 30.3043L59.6949 45L45.0013 59.6957V90L86.9692 48.03C87.7726 47.2263 88.224 46.1364 88.224 45C88.224 43.8636 87.7726 42.7737 86.9692 41.97L45.0013 0C45.0013 0 38.5728 4.28571 38.5728 15C38.9053 20.6858 41.1739 26.0865 45.0013 30.3043Z" fill="white"/>
<path d="M57.3995 47.8564L57.1188 47.5757L45.001 59.6957V90L67.7153 67.2857C66.0072 60.029 62.4539 53.3364 57.3995 47.8564Z" fill="white"/>
<path d="M54.2992 50.8178L54.0849 50.6035L44.9971 59.6935V89.9999L63.9956 71.0014C62.804 63.4709 59.4331 56.4543 54.2992 50.8178Z" fill="white"/>
<path d="M45.001 59.6957V90L60.001 75C59.6722 67.0385 56.5003 59.4587 51.061 53.6357L45.001 59.6957Z" fill="white"/>
<path d="M55.7153 75.0001C55.7153 64.8301 48.4145 57.0622 48.031 56.6658L45.001 59.6958V90.0001L55.3338 79.6672C55.5891 78.1246 55.7166 76.5636 55.7153 75.0001Z" fill="white"/>
<path d="M45.0011 59.6957L30.3054 45H6.42969V51.4286L45.0011 90C45.0011 90 51.4297 85.7143 51.4297 75C51.0971 69.3142 48.8286 63.9135 45.0011 59.6957Z" fill="white"/>
</svg>
