<svg width="90" height="102" viewBox="0 0 90 102" fill="none" xmlns="http://www.w3.org/2000/svg">
<g clip-path="url(#clip0_35_60)">
<path d="M31.4458 82.5625V91.5804C31.4458 93.3839 29.4578 94.6464 27.6506 93.5643L23.494 90.8589L22.4096 90.3179C22.4096 90.3179 16.6265 86.8911 3.9759 79.6768L2.89157 79.1357C1.98795 78.5946 1.08434 77.6929 0.542169 76.7911C0.361446 75.8893 0 74.8071 0 73.725V51.5411V29.1768C0 27.9143 0.361446 26.8321 0.903614 25.9304C1.44578 24.8482 2.3494 24.1268 3.25301 23.5857L21.3253 13.125L22.2289 12.5839C22.5904 12.4036 22.5904 12.4036 23.3133 12.0429L40.6627 2.12321L41.747 1.58214C42.8313 0.680357 44.0964 0.5 45.3614 0.5C46.6265 0.5 47.7108 0.860714 48.4337 1.58214L66.506 12.0429L67.5904 12.5839C67.5904 12.5839 73.7349 16.0107 85.8434 23.225L86.9277 23.7661C87.8313 24.3071 88.7349 25.2089 89.2771 26.1107C89.8193 27.0125 90.1807 28.0946 90.1807 29.3571V49.5571C90.1807 51.3607 88.1928 52.6232 86.5663 51.7214L78.7952 47.2125C78.0723 46.8518 77.5301 45.95 77.5301 45.0482V32.7839L61.4458 23.5857C61.2651 23.5857 61.0843 23.4054 60.1807 22.8643L45 14.0268L29.2771 23.0446C29.0964 23.225 29.0964 23.225 29.0964 23.225C29.0964 23.225 28.7349 23.4054 28.012 23.9464L12.6506 32.7839V70.1179L28.5542 79.3161C28.7349 79.3161 28.9157 79.4964 29.8193 80.0375L30.1807 80.3982L30.3614 80.7589C31.0843 81.1196 31.4458 81.8411 31.4458 82.5625ZM77.3494 59.6571C77.3494 57.8536 79.3373 56.5911 80.9639 57.4929L88.7349 62.0018C89.4578 62.3625 90 63.2643 90 64.1661V71.5607C90 72.2822 89.8193 72.8232 89.2771 73.1839L85.6627 76.9714C84.2169 78.775 82.2289 79.4964 80.4217 78.4143L51.506 61.6411V93.2036C51.6867 94.4661 51.1446 95.5482 50.241 96.2696C49.3373 96.9911 49.3373 96.9911 44.8193 100.598C44.0964 101.139 43.3735 101.5 42.4699 101.5C40.4819 101.5 38.8554 99.8768 38.8554 97.8929V54.2464L33.9759 51.3607L31.4458 52.8036C31.2651 52.8036 31.4458 52.8036 28.9157 54.2464C27.1084 55.3286 24.9398 54.7875 24.0361 52.9839C23.8554 52.6232 23.8554 52.6232 22.5904 50.6393L21.1446 48.2946C20.0602 46.4911 20.6024 44.3268 22.4096 43.425C22.7711 43.2446 22.7711 43.2446 24.759 41.9821L30.7229 38.5554L31.8072 38.0143C32.8916 37.2929 34.5181 37.1125 35.6024 37.8339L36.8675 38.5554L77.3494 61.8214V59.6571Z" fill="white"/>
</g>
<defs>
<clipPath id="clip0_35_60">
<rect width="90" height="101" fill="white" transform="translate(0 0.5)"/>
</clipPath>
</defs>
</svg>
