<svg width="90" height="90" viewBox="0 0 90 90" fill="none" xmlns="http://www.w3.org/2000/svg">
<g clip-path="url(#clip0_35_82)">
<path d="M1.10287 55.3705C0.902619 54.5168 1.9196 53.9792 2.53961 54.5992L35.4008 87.4604C36.0208 88.0804 35.4831 89.0974 34.6295 88.8971C18.0464 85.007 4.99301 71.9536 1.10287 55.3705ZM0.00170221 42.2002C-0.0141772 42.4551 0.0816871 42.7041 0.262317 42.8847L47.1153 89.7376C47.2959 89.9183 47.5448 90.0144 47.7998 89.9983C49.9321 89.8654 52.0242 89.5843 54.066 89.1649C54.754 89.0236 54.9931 88.1783 54.4963 87.6817L2.31835 35.5036C1.82168 35.0069 0.976302 35.246 0.834998 35.934C0.415675 37.9758 0.13451 40.0679 0.00170221 42.2002ZM3.78984 26.7348C3.64 27.0713 3.71632 27.4644 3.97672 27.7249L62.2751 86.0232C62.5356 86.2837 62.9287 86.36 63.2651 86.2102C64.8726 85.4941 66.4305 84.6867 67.9321 83.7946C68.429 83.4994 68.5057 82.8165 68.097 82.4079L7.59209 21.903C7.18341 21.4943 6.50065 21.571 6.20543 22.0679C5.31324 23.5695 4.50584 25.1274 3.78984 26.7348ZM11.3928 16.2666C11.0597 15.9335 11.0391 15.3993 11.353 15.0479C19.6015 5.81338 31.6003 0 44.9567 0C69.8334 0 90 20.1666 90 45.0433C90 58.3997 84.1866 70.3984 74.9521 78.647C74.6008 78.9608 74.0665 78.9402 73.7333 78.6071L11.3928 16.2666Z" fill="white"/>
</g>
<defs>
<clipPath id="clip0_35_82">
<rect width="90" height="90" fill="white"/>
</clipPath>
</defs>
</svg>
