<svg width="90" height="90" viewBox="0 0 90 90" fill="none" xmlns="http://www.w3.org/2000/svg">
<path d="M75.6228 32.2928C80.8401 32.2928 85.0845 28.0367 85.0845 22.8068C84.5652 10.2221 66.6795 10.2257 66.1611 22.8068C66.1611 28.0367 70.4064 32.2928 75.6228 32.2928Z" fill="white"/>
<path d="M81.8624 34.8389H64.9739H64.9415C64.937 34.8389 64.9388 34.8389 64.9334 34.8389C63.9227 34.8389 50.7089 34.8389 46.4492 34.8389V31.5269C47.1548 31.652 47.8937 31.7357 48.6695 31.7681C48.7532 31.769 48.8369 31.7627 48.9206 31.7618C49.2428 31.7564 49.5623 31.7411 49.8773 31.7141C49.9853 31.7042 50.0924 31.6952 50.1986 31.6826C50.5613 31.6421 50.9195 31.589 51.2723 31.5197C51.2939 31.5152 51.3173 31.5125 51.3389 31.5089C53.0111 31.1678 54.5879 30.5009 55.9892 29.5559C57.2852 28.682 58.4075 27.5732 59.3129 26.3024C59.5469 25.9955 59.7602 25.6751 59.9591 25.3475C59.978 25.3151 59.9987 25.2845 60.0176 25.2512C60.1706 24.9929 60.3056 24.7256 60.437 24.4556C60.4946 24.3386 60.554 24.2216 60.608 24.1028C60.7466 23.7923 60.8744 23.4764 60.9869 23.1551C60.9968 23.1281 61.0067 23.102 61.0157 23.0759C62.3 19.2887 61.7123 14.8355 59.5073 11.5055C58.9241 10.6514 58.232 9.88008 57.4661 9.18888C57.3077 9.05118 57.1565 8.90628 56.99 8.77758C56.3474 8.24838 55.6535 7.77948 54.9164 7.38078C54.5474 7.18098 54.1685 6.99828 53.7797 6.83448C53.3891 6.66168 52.9814 6.51948 52.5674 6.39078C52.3298 6.31788 52.0832 6.26388 51.8402 6.20448C51.6251 6.15228 51.4127 6.09558 51.1949 6.05508C51.0149 6.02088 50.8304 5.99928 50.6486 5.97228C50.3318 5.92728 50.015 5.88588 49.6946 5.86338C49.5848 5.85528 49.4741 5.85258 49.3634 5.84718C49.0376 5.83098 48.7109 5.83188 48.3842 5.84088C46.5122 5.94978 44.8508 6.34308 43.3955 6.95688C43.0985 7.09098 42.7979 7.22148 42.518 7.37988C39.6002 8.96928 37.3682 11.6747 36.3377 14.8436C35.6231 17.2097 35.5619 19.7648 36.1694 22.1597C36.1757 22.1822 36.1811 22.2056 36.1874 22.2281C36.2162 22.3316 36.2459 22.4351 36.2747 22.5386C36.3098 22.6619 36.3512 22.7843 36.3899 22.9067C36.425 23.0057 36.4619 23.1038 36.4988 23.2028H7.89678C5.33538 23.2028 3.25098 25.2872 3.25098 27.8486V61.7534C3.25098 64.3157 5.33538 66.3992 7.89678 66.3992H26.0066C26.03 66.5054 26.0597 66.608 26.0849 66.7133C28.5779 76.5224 37.3016 83.4596 47.6102 83.7098C56.1629 83.5019 63.5096 78.5609 67.1879 71.477C67.2428 71.4968 67.2995 71.5112 67.3544 71.5301C76.5182 74.996 86.9312 67.724 86.7458 57.9122V39.7097C86.7467 37.0241 84.5552 34.8389 81.8624 34.8389Z" fill="white"/>
<path d="M69.1992 60.9766L69.2002 60.9883C69.4835 73.1772 59.7974 83.3612 47.6084 83.666C37.3435 83.4095 28.765 76.3513 26.5127 66.4287L26.4102 65.9531C26.3623 65.721 26.4213 65.4788 26.5713 65.2939L26.5703 65.293C26.7194 65.1102 26.944 65.005 27.1787 65.0049H42.2139C43.6958 65.0048 44.8982 63.7982 44.8984 62.3154V36.1299C44.8984 35.6922 45.2519 35.3401 45.6846 35.3398H45.6855H64.9619L65.1846 35.3506C67.4694 35.5239 69.254 37.4729 69.2002 39.7969H69.1992V60.9766Z" fill="white" stroke="#B1B0B0"/>
<path d="M49.3418 6.34497V6.34595C49.4691 6.35221 49.5575 6.354 49.6602 6.36157H49.6611C49.962 6.3827 50.2638 6.42061 50.5771 6.46509V6.46606C50.7799 6.49602 50.9366 6.51345 51.1035 6.54517L51.1055 6.54614C51.3055 6.58335 51.4949 6.63394 51.7246 6.6897V6.68872C51.9861 6.75355 52.202 6.79943 52.4209 6.86646V6.86743C52.8249 6.99304 53.2126 7.12912 53.5791 7.29126L53.5879 7.29419C53.7745 7.37281 53.9586 7.45661 54.1406 7.54419L54.6807 7.81958C55.3888 8.20263 56.0558 8.65342 56.6738 9.16235L56.6797 9.16724L56.6865 9.17212C56.8385 9.28961 56.9564 9.4054 57.1396 9.5647C57.7846 10.1474 58.372 10.787 58.8818 11.4836L59.0967 11.7864C61.213 14.9859 61.7776 19.2751 60.5449 22.9124C60.5381 22.9321 60.5319 22.9481 60.5195 22.9817L60.5166 22.9905C60.4107 23.2952 60.2874 23.5973 60.1533 23.8977C60.1041 24.0066 60.052 24.1081 59.9902 24.2336L59.9893 24.2356C59.859 24.5024 59.731 24.7554 59.5889 24.9954L59.585 25.0032C59.5812 25.0098 59.5763 25.0185 59.5664 25.0344L59.5332 25.0872C59.3415 25.4029 59.1381 25.7083 58.917 25.9983L58.9121 26.0051L58.9082 26.011C58.0352 27.235 56.956 28.3009 55.7109 29.1399V29.1409C54.3635 30.0495 52.8474 30.6899 51.2402 31.0178L51.2383 31.0188C51.2407 31.0183 51.2405 31.0177 51.2275 31.0198C51.2185 31.0212 51.1932 31.0255 51.1689 31.0305C50.8341 31.096 50.4911 31.1469 50.1436 31.1858H50.1406L49.833 31.2161C49.6818 31.229 49.5297 31.2397 49.377 31.2473L48.9141 31.262C48.8641 31.2625 48.8139 31.2645 48.7764 31.2659C48.7351 31.2674 48.7035 31.2681 48.6748 31.2678H48.6738C42.729 31.0108 38.9507 27.8458 37.2695 23.8674H37.2832L37.0293 23.1917L36.8643 22.7434C36.8235 22.6151 36.7901 22.5136 36.7588 22.4036H36.7578C36.7434 22.3517 36.7291 22.2999 36.7148 22.2493C36.7002 22.1974 36.686 22.1465 36.6719 22.0959V22.095L36.666 22.0725C36.6639 22.0643 36.6599 22.0519 36.6562 22.0383H36.6572C36.0731 19.7355 36.1308 17.277 36.8164 15.0002C37.8069 11.9517 39.9554 9.34811 42.7598 7.81958L42.7666 7.81567C43.0205 7.672 43.2934 7.55251 43.5996 7.41431C44.9938 6.82642 46.5926 6.44773 48.4033 6.34106C48.7204 6.33237 49.033 6.33139 49.3418 6.34497Z" fill="white" stroke="#B1B0B0"/>
<path d="M7.89648 23.7046H41.8037C44.0896 23.7048 45.949 25.5651 45.9482 27.8501V61.7554C45.9481 64.0406 44.0886 65.9007 41.8037 65.9009H7.89648C5.61136 65.9007 3.75108 64.0413 3.75098 61.7554V27.8501C3.75113 25.5651 5.61146 23.7047 7.89648 23.7046Z" fill="white" stroke="#B1B0B0"/>
<path d="M16.0469 33.1438H33.3984C33.8157 33.1438 34.1543 33.4824 34.1543 33.9006V37.0627C34.1543 37.481 33.8157 37.8196 33.3984 37.8196H27.376V55.9368C27.3759 56.3548 27.0381 56.6924 26.6211 56.6926H22.9004C22.4831 56.6926 22.1446 56.355 22.1445 55.9368V37.8196H16.0469C15.6296 37.8196 15.291 37.481 15.291 37.0627V33.9006C15.291 33.4824 15.6296 33.1438 16.0469 33.1438Z" fill="#B1B0B0" stroke="#B1B0B0"/>
</svg>
