<svg width="124" height="120" viewBox="0 0 124 120" fill="none" xmlns="http://www.w3.org/2000/svg">
<path d="M51.3209 59.9378H36.7561L47.0192 29.9658H71.8477L82.1171 0H35.9262C29.2994 0 23.4139 4.12492 21.3169 10.2476L0.790475 70.1854C-0.774353 74.754 0.0112293 79.7793 2.90648 83.6882C5.80172 87.5975 10.4455 89.9097 15.3997 89.9097H51.3273L61.5907 59.9378H51.3273H51.3209Z" fill="white"/>
<path d="M120.268 36.192C117.372 32.2829 112.729 29.9707 107.774 29.9707H71.8465L61.5835 59.9426H86.4116L76.1482 89.9145H51.3201L41.0571 119.886H87.248C93.8745 119.886 99.76 115.762 101.857 109.639L122.384 49.7013C123.949 45.1323 123.163 40.1074 120.268 36.1981V36.192Z" fill="white"/>
</svg>
