<svg width="90" height="90" viewBox="0 0 90 90" fill="none" xmlns="http://www.w3.org/2000/svg">
<g clip-path="url(#clip0_35_5)">
<path d="M32.947 47.6367C27.7548 47.6367 23.5308 51.8607 23.5308 57.053V80.5836C23.5308 85.7758 27.7548 89.9998 32.947 89.9998C38.1392 90 42.3633 85.776 42.3633 80.5837V57.053C42.3633 51.8607 38.1392 47.6367 32.947 47.6367Z" fill="white"/>
<path d="M18.2569 47.6367H9.14092C4.11428 47.6367 0.0249023 51.7263 0.0249023 56.7527C0.0249023 61.7794 4.11445 65.8687 9.14092 65.8687C14.1674 65.8687 18.2569 61.7792 18.2569 56.7527V47.6367Z" fill="white"/>
<path d="M0 32.947C0 38.1392 4.22402 42.3633 9.41625 42.3633H32.9469C38.1393 42.3633 42.3633 38.1392 42.3633 32.947C42.3633 27.7548 38.1393 23.5308 32.947 23.5308H9.41625C4.22402 23.5306 0 27.7548 0 32.947Z" fill="white"/>
<path d="M33.2474 18.2572H42.3634V9.14116C42.3634 4.11452 38.2738 0.0251465 33.2474 0.0251465C28.2207 0.0251465 24.1313 4.1147 24.1313 9.14116C24.1313 14.1676 28.2207 18.2572 33.2474 18.2572Z" fill="white"/>
<path d="M57.053 42.3633C62.2452 42.3633 66.4692 38.1393 66.4692 32.947V9.41625C66.4694 4.22402 62.2452 0 57.053 0C51.8607 0 47.6367 4.22402 47.6367 9.41625V32.9469C47.6367 38.1393 51.8607 42.3633 57.053 42.3633Z" fill="white"/>
<path d="M71.7427 42.3634H80.8587C85.8853 42.3634 89.9747 38.2738 89.9747 33.2474C89.9747 28.2207 85.8852 24.1313 80.8587 24.1313C75.8322 24.1313 71.7427 28.2209 71.7427 33.2474V42.3634Z" fill="white"/>
<path d="M90 57.053C90 51.8607 85.776 47.6367 80.5838 47.6367H57.053C51.8607 47.6367 47.6367 51.8607 47.6367 57.053C47.6367 62.2452 51.8607 66.4692 57.053 66.4692H80.5836C85.776 66.4694 90 62.2452 90 57.053Z" fill="white"/>
<path d="M56.7527 71.7429H47.6367V80.8589C47.6367 85.8856 51.7263 89.975 56.7527 89.975C61.7794 89.975 65.8687 85.8854 65.8687 80.8589C65.8687 75.8325 61.7794 71.7429 56.7527 71.7429Z" fill="white"/>
</g>
<defs>
<clipPath id="clip0_35_5">
<rect width="90" height="90" fill="white"/>
</clipPath>
</defs>
</svg>
