<svg width="90" height="86" viewBox="0 0 90 86" fill="none" xmlns="http://www.w3.org/2000/svg">
<g clip-path="url(#clip0_35_172)">
<mask id="mask0_35_172" style="mask-type:luminance" maskUnits="userSpaceOnUse" x="1" y="-1" width="85" height="85">
<path d="M85.8714 -0.938721H1.31689V83.608H85.8714V-0.938721Z" fill="white"/>
</mask>
<g mask="url(#mask0_35_172)">
<path d="M85.6585 28.5166C85.6187 28.2087 85.5713 27.9005 85.5078 27.5992C85.4506 27.2826 85.3777 26.9689 85.2892 26.6597L85.0537 26.286C84.0835 25.5242 83.0367 24.9487 81.9741 24.4399C81.0972 24.0261 80.2061 23.665 79.3044 23.3323C76.7922 16.3603 72.4733 10.1781 66.7946 5.87047C60.9252 1.41812 54.0216 -0.938721 46.8317 -0.938721C39.6418 -0.938721 32.7379 1.41812 26.8685 5.87079C21.1894 10.1781 16.8702 16.3606 14.3581 23.3344C13.4588 23.6655 12.5661 24.0277 11.6903 24.4399C10.6258 24.9487 9.57973 25.5242 8.60958 26.286L8.3734 26.6597C8.28892 26.97 8.21588 27.2832 8.15445 27.599C8.0935 27.9011 8.04779 28.2084 8.00407 28.5164C7.91764 29.1264 7.85861 29.7398 7.82718 30.3551C7.76494 31.587 7.80139 32.8215 7.93616 34.0476C8.06768 35.2765 8.2963 36.4931 8.61982 37.686C8.78965 38.2863 8.98805 38.8781 9.2144 39.4592C9.32833 39.7528 9.45287 40.0442 9.59101 40.3352C9.65923 40.4801 9.73344 40.6215 9.80962 40.7695C9.97823 41.0651 10.009 41.1225 10.0799 41.2276L10.3986 41.521C10.6062 41.6277 10.7781 41.7088 10.966 41.7978L11.5148 42.0441C11.6165 42.0857 11.7119 42.1268 11.8156 42.1684C9.32304 44.4728 6.61621 47.466 4.27209 51.1656L1.31152 55.8352L5.46749 52.1878C5.53806 52.1261 9.02295 49.1095 14.8348 45.6923L14.9162 46.3603C14.536 46.5578 12.7086 47.5168 12.1653 47.9711C11.2651 48.7187 11.2213 49.8789 11.4625 52.0432C11.586 53.1528 12.002 55.3063 12.5631 57.2809C13.5297 60.6787 14.2382 61.2795 14.8602 61.4204C15.1408 61.4876 15.5028 61.5184 15.9102 61.5184C17.0235 61.5184 18.4495 61.3016 19.3799 61.0208C20.4713 64.4143 22.0172 67.4778 23.9019 70.1665C23.8108 70.1913 23.721 70.2205 23.63 70.2463C22.4965 69.7209 18.533 67.885 17.2007 67.2861L14.4167 66.0329L16.0633 68.6036C16.1832 68.7893 19.0255 73.2205 21.3458 76.2074C23.5163 78.9927 26.4882 81.8442 32.096 81.8442C32.7709 81.8442 33.4771 81.8005 34.2049 81.7204C35.8771 81.5281 37.1335 81.3775 38.0889 81.255C43.9755 83.4177 50.4668 83.5507 56.6268 81.2168C58.2399 80.6034 59.7912 79.8374 61.2589 78.9293C63.6338 78.359 66.2316 77.7403 67.515 77.3795C67.7207 77.3239 67.9783 77.2625 68.2462 77.1993C70.0343 76.7884 73.0227 76.0949 74.6159 72.9076C76.2216 69.6922 78.84 64.7647 78.8676 64.7143L80.0923 62.4157L77.7062 63.453C77.5788 63.5109 74.5558 64.8271 72.9856 65.6502C74.0767 63.1382 74.7197 61.059 74.9436 60.2604C75.8228 60.4724 77.1267 60.4453 78.0856 60.4453C78.5568 60.4453 79.0418 60.3631 79.3565 60.2828C79.9798 60.1245 80.461 59.7107 81.3661 56.2045C81.893 54.1666 82.271 51.9476 82.3747 50.8068C82.5749 48.5872 82.5101 47.3975 81.6043 46.6466C81.1528 46.2739 79.8278 45.5603 79.154 45.2092C79.5309 45.048 79.7158 45.0955 79.7303 45.0994L80.342 42.78C80.5572 42.6878 80.785 42.5954 81.044 42.4961C81.4135 42.3491 81.7829 42.2029 82.1524 42.0435L82.698 41.7975C82.8881 41.7085 83.0591 41.6277 83.2669 41.5207L83.5857 41.2273C83.6547 41.1222 83.6916 41.0645 83.7337 40.9845C83.9357 40.6212 84.0069 40.4798 84.0743 40.3352C84.2123 40.0439 84.3348 39.7523 84.4507 39.4589C84.677 38.8776 84.8751 38.286 85.0445 37.6858C85.3685 36.4929 85.5974 35.2763 85.7291 34.047C85.8666 32.8217 85.8974 31.5872 85.8358 30.3548C85.8057 29.7395 85.7467 29.1264 85.6585 28.5166Z" fill="#B1B0B0"/>
<path d="M50.6861 76.2819C50.2351 76.3493 49.7844 76.4043 49.3387 76.4402C49.0487 76.4544 48.7442 76.4834 48.4668 76.4834L48.3633 76.486C48.7115 75.7103 48.976 75.1069 49.1754 74.6499C49.5832 75.1069 50.1016 75.6713 50.6861 76.2819Z" fill="white"/>
<path d="M50.139 41.6271C49.4349 42.199 48.6929 42.7313 47.9203 43.1983L45.343 44.7528C43.7264 44.9501 42.3235 45.3496 42.2431 45.3741C42.1963 45.3841 42.1517 45.4063 42.1101 45.4316C41.9824 45.5069 41.8873 45.627 41.8433 45.7687L39.2184 54.4163L25.1884 57.5362L20.7681 54.4411L19.4829 44.0282C21.9933 43.567 25.349 43.0352 29.3801 42.5827C28.9407 43.1077 28.5242 43.651 28.1315 44.2115L25.7316 47.6559L29.2265 45.3265C29.2795 45.2901 31.5032 43.8262 35.1436 42.0449C39.109 41.7478 43.0842 41.5987 47.061 41.5979C48.1075 41.5979 49.1325 41.6098 50.139 41.6271ZM28.3009 53.3585C29.2979 52.8196 30.4243 52.8987 32.1873 52.9026C32.3751 52.906 32.5708 52.9039 32.7737 52.8987C32.9475 52.8987 33.1214 52.8955 33.306 52.89C35.123 52.8718 36.6324 53.0438 36.605 50.1934C36.5781 47.3427 35.3109 45.0373 33.4951 45.0552C31.68 45.0715 29.9225 47.4078 30.031 50.2571C30.0597 50.9988 30.1701 51.5351 30.3444 51.9204C28.7621 52.3182 28.3241 53.2969 28.3009 53.3585ZM74.4561 43.994L73.1928 52.8481L68.7369 55.9687L54.725 54.3763L52.1107 45.7682C52.0819 45.6744 52.0306 45.5891 51.9605 45.5203C51.8907 45.4513 51.8048 45.401 51.7105 45.3739C51.6244 45.3475 49.8898 44.8518 48.0506 44.6927L48.3873 44.6706C48.677 44.6488 53.5091 44.0572 59.2808 42.0688C65.6702 42.559 70.8892 43.3429 74.4561 43.994ZM65.504 52.1896C65.4858 52.1206 65.1012 50.9754 63.4146 51.1764C63.6079 50.7526 63.6954 50.1805 63.6343 49.3956C63.4117 46.5507 61.7548 44.2895 59.9409 44.3535C58.1252 44.4162 56.9638 46.7748 57.0642 49.6295C57.1643 52.477 58.686 52.4575 60.5017 52.3927C62.9402 52.3463 64.2791 51.5978 65.504 52.1896Z" fill="white"/>
<path d="M60.7093 47.0678C60.7135 47.3138 60.6203 47.5513 60.4496 47.7283C60.2789 47.9053 60.045 48.0073 59.7989 48.012C59.6772 48.0144 59.5563 47.9925 59.4428 47.9478C59.3295 47.9032 59.2263 47.8369 59.1386 47.752C59.0511 47.6675 58.981 47.5666 58.9326 47.4549C58.8841 47.3433 58.858 47.2232 58.8559 47.1012C58.8535 46.9795 58.8751 46.8586 58.9197 46.7454C58.9639 46.6321 59.0303 46.5286 59.1146 46.4409C59.1992 46.3532 59.3 46.2831 59.4115 46.2344C59.5231 46.1857 59.6433 46.1596 59.765 46.1575C59.8869 46.1546 60.0081 46.1762 60.1216 46.2207C60.2352 46.2649 60.3389 46.3313 60.4267 46.4161C60.5146 46.5007 60.5847 46.6021 60.6332 46.714C60.6816 46.8257 60.7075 46.9458 60.7093 47.0678ZM34.7019 47.7502C34.7079 47.9957 34.6165 48.2335 34.4474 48.4118C34.2785 48.5899 34.0457 48.6939 33.8002 48.7008C33.6782 48.7042 33.5565 48.6839 33.4425 48.6405C33.3281 48.597 33.2238 48.5314 33.1351 48.4474C33.0463 48.3636 32.9749 48.263 32.9251 48.1513C32.8753 48.0399 32.8482 47.9196 32.845 47.7974C32.8419 47.6757 32.8627 47.5542 32.9064 47.4405C32.9504 47.3267 33.016 47.2226 33.1 47.1344C33.1843 47.0462 33.2849 46.9753 33.3964 46.9261C33.5078 46.8765 33.6279 46.8497 33.7499 46.847C33.9959 46.8407 34.2343 46.9321 34.4129 47.1015C34.5912 47.2708 34.6953 47.5042 34.7019 47.7502Z" fill="white"/>
<path d="M80.5782 47.8898C80.3593 47.7089 79.6275 47.2911 78.9145 46.9055L77.7402 55.1359C77.7278 55.2152 77.6996 55.2913 77.6572 55.3596C77.6151 55.4278 77.5595 55.4868 77.4939 55.5334L75.8136 56.7084C75.7738 56.9072 75.7427 57.0732 75.7129 57.2283C77.3638 57.6347 78.9672 56.4445 79.8675 55.5855C80.2837 53.9641 80.6464 52.039 80.7718 50.6612C80.9636 48.5256 80.7939 48.0671 80.5782 47.8898ZM54.6284 79.1577C53.5384 78.7699 52.539 78.1376 51.6692 77.2776C51.5968 77.2038 51.5278 77.1327 51.4551 77.0603C50.7744 77.1994 50.0861 77.2981 49.3939 77.3566C49.0983 77.3698 48.8165 77.3948 48.5083 77.3948L48.0526 77.399L47.8771 77.3948C46.8351 78.9422 45.0833 79.7927 43.7107 80.2455C47.7883 80.945 52.2748 79.8746 54.6284 79.1577ZM18.7339 59.0012C18.6975 58.8771 18.6591 58.7541 18.6236 58.6298L16.4408 57.1019C16.3735 57.0542 16.3169 56.9934 16.2745 56.9225C16.2321 56.8519 16.205 56.7732 16.1947 56.6915L15.1304 48.0492C14.3428 48.4695 13.4322 48.9881 13.1901 49.1912C12.9794 49.3651 12.8188 49.8081 13.0463 51.8673C13.2192 53.4155 13.7631 55.7939 14.3186 57.5763C15.4239 58.4217 17.0519 59.3125 18.7339 59.0012ZM51.366 58.6069C51.2517 58.5937 51.1437 58.5476 51.0555 58.4739C50.9675 58.3999 50.9027 58.3019 50.8698 58.1918L48.1761 49.3161C47.7243 49.2571 47.3237 49.2239 46.9849 49.2239C46.6451 49.2239 46.2463 49.2571 45.7954 49.3161L43.1767 57.9366C43.1462 58.0359 43.0898 58.1254 43.0134 58.1957C42.937 58.2663 42.8435 58.3153 42.7418 58.338L41.4898 58.6169C41.3839 59.0589 41.0236 59.7079 39.8625 60.0634C37.9891 60.6347 26.1293 64.1697 24.7769 63.9772C23.9873 63.8665 22.4848 63.0377 21.3735 62.3676C20.9287 61.3203 20.6826 60.6087 20.6263 60.4398V60.4364L20.6229 60.4398C20.7803 60.8994 22.3278 65.3536 25.4722 69.7106C28.843 68.7174 31.7546 67.7913 32.6857 67.4968C34.5818 64.5732 37.2834 61.6722 39.2018 61.5732C39.5398 61.5561 39.8783 61.5471 40.2168 61.5466C41.1566 61.5466 42.0541 61.6132 42.887 61.7117C42.1795 61.0696 42.0346 60.3189 41.9319 59.9852C41.9319 59.9852 44.3819 61.9016 47.4983 61.4987C50.6201 61.0991 52.5564 59.3017 52.5564 59.3017L52.6175 58.7489L51.366 58.6069Z" fill="white"/>
<path d="M53.8913 59.7313C53.2446 59.564 52.8376 59.2974 52.5795 59.019L52.5479 59.3027C52.5479 59.3027 52.5371 60.6126 51.1797 61.6274C53.7936 60.8359 54.8743 60.5675 55.6148 60.5675C56.4295 60.5675 56.8323 60.9076 57.1858 61.2065C57.2527 61.2621 57.3196 61.3205 57.3997 61.3832C59.1148 62.7336 60.8259 64.0896 62.5329 65.4505C63.351 65.5448 65.948 65.8419 67.5828 65.991C68.5237 66.0787 69.3764 66.1495 70.2111 66.1495C70.4788 66.1495 70.7319 66.1403 70.9713 66.124C71.8332 64.4733 72.6266 62.6478 73.3329 60.6347C72.3664 61.3126 70.164 62.7966 69.1319 62.9875C67.7898 63.2391 55.7842 60.2219 53.8913 59.7313Z" fill="white"/>
<path d="M84.1059 28.6904C84.0827 28.4069 84.0532 28.1238 84.0174 27.8417C83.9937 27.64 83.9639 27.439 83.9278 27.2391C83.1694 26.6017 82.3073 26.0335 81.4104 25.5197C80.4389 24.9492 79.4216 24.4421 78.3829 23.9701C77.3535 23.4834 76.2935 23.0433 75.2299 22.6142C74.698 22.3972 74.1622 22.1891 73.6236 21.99C73.0867 21.7803 72.5459 21.5849 72.0028 21.3871C73.1412 21.5762 74.2702 21.8367 75.3913 22.1243C76.1202 22.3105 76.8446 22.5223 77.564 22.7488C72.4416 9.36586 60.2002 0.651611 46.833 0.651611C33.4642 0.651611 21.2235 9.36617 16.1046 22.7488C16.8234 22.5223 17.5495 22.3105 18.2752 22.1243C19.3948 21.8361 20.5249 21.5762 21.6653 21.3876C21.1188 21.5849 20.5789 21.7803 20.0397 21.9902C19.5019 22.1899 18.9672 22.398 18.4358 22.6142C17.3716 23.0433 16.314 23.4834 15.2808 23.9701C14.2457 24.4421 13.2289 24.9492 12.256 25.5197C11.3587 26.0335 10.4985 26.6017 9.73867 27.2391C9.70548 27.4395 9.67566 27.6402 9.64924 27.8417C9.61497 28.1241 9.58505 28.4069 9.55947 28.6904C9.5125 29.2614 9.48819 29.834 9.48661 30.4069C9.47436 31.5537 9.5522 32.701 9.6966 33.8346C9.85428 34.973 10.0626 36.1037 10.371 37.1976C10.5204 37.7418 10.6955 38.2786 10.8957 38.8061C10.9967 39.0666 11.1057 39.3253 11.2196 39.5742C11.2756 39.6987 11.3335 39.8218 11.3938 39.9395L11.4674 40.0786C11.5512 40.1204 11.6396 40.1652 11.7224 40.2052L12.2312 40.4481C12.5154 40.5787 12.9089 40.7652 13.2338 40.9101C13.252 40.8935 13.2703 40.8772 13.2848 40.8611L12.3402 37.2627C12.5409 37.2087 14.3349 36.7451 17.4266 36.1551C17.1761 36.1085 16.9268 36.0555 16.679 35.996C15.9751 35.8198 15.2802 35.6067 14.6061 35.3352C14.2729 35.1937 13.944 35.0402 13.6306 34.8626C13.3176 34.682 13.0099 34.4789 12.7704 34.2076C16.1666 35.3173 23.1864 34.8158 29.4268 34.1699C35.1324 33.5812 40.855 33.2014 46.6049 33.1885C52.3534 33.2014 58.0781 33.5812 63.7805 34.1699C70.0235 34.8158 77.0429 35.3173 80.4389 34.2076C80.2021 34.4791 79.8923 34.682 79.582 34.8626C79.2659 35.0399 78.9364 35.194 78.6031 35.3352C77.9299 35.6067 77.2376 35.8198 76.5327 35.996C76.4279 36.021 76.3222 36.0429 76.2179 36.0663C79.6097 36.695 81.5832 37.2066 81.7926 37.2624L80.8896 40.6902C81.0732 40.6109 81.2573 40.5313 81.4343 40.4478L81.9443 40.205C82.0281 40.165 82.1153 40.1202 82.2017 40.0783L82.2701 39.939C82.3318 39.8215 82.3918 39.6982 82.4472 39.5736C82.5615 39.3253 82.6703 39.0664 82.7698 38.8056C82.9693 38.2778 83.1447 37.7412 83.2951 37.1973C83.6041 36.1035 83.8124 34.9725 83.9679 33.8344C84.1151 32.7007 84.1931 31.5534 84.1825 30.4063C84.1807 29.8337 84.1549 29.2611 84.1059 28.6904Z" fill="white"/>
<path d="M60.8956 22.0336C60.948 23.5644 60.9106 26.3424 60.1968 28.9418C60.168 29.0411 60.172 29.1446 60.1968 29.2407C59.2893 29.1459 58.3808 29.0619 57.4715 28.9889C58.4904 26.8528 58.7129 24.5782 58.7625 23.7762C59.5456 23.2209 60.3243 22.5527 60.8956 22.0336ZM34.9029 23.7762C34.9503 24.5777 35.1729 26.847 36.1915 28.9837C35.2827 29.0556 34.3742 29.1391 33.4678 29.2355C33.4923 29.1433 33.4942 29.0413 33.4678 28.942C32.7555 26.3466 32.7179 23.5686 32.7669 22.0338C33.3408 22.5527 34.1177 23.2209 34.9029 23.7762ZM72.0538 31.3616C72.0494 31.3874 72.043 31.4126 72.0351 31.4377C72.1347 31.4664 72.2324 31.4956 72.3323 31.528C73.172 31.8033 74.0131 32.0911 74.8163 32.462C73.4755 31.591 72.6252 29.0782 72.1513 27.1571C72.2817 29.6716 72.0662 31.2665 72.0538 31.3616ZM31.6489 21.5503L22.9759 24.0166C22.4565 27.3899 22.6149 29.9661 22.6983 30.8601L22.7424 30.8335C22.7424 30.8335 23.0249 27.1592 23.6009 25.749C23.8977 25.0249 25.7132 24.5632 27.0971 24.2324C28.4843 23.9031 30.6959 23.2428 31.1253 25.1898C31.3903 26.393 31.7551 27.3936 32.1049 28.1316C31.5478 25.4563 31.5833 22.8406 31.6489 21.5503ZM62.013 21.5503C62.0839 22.8909 62.1165 25.662 61.488 28.4442C61.8821 27.6883 62.3196 26.5736 62.6246 25.1898C63.0532 23.2428 65.2649 23.9031 66.6517 24.2326C68.0386 24.5634 69.852 25.0249 70.1486 25.749C70.6375 26.9427 70.9138 29.7565 70.9868 30.5938C71.0692 29.5176 71.1606 27.0991 70.688 24.0164L62.013 21.5503ZM34.8341 22.3012C35.1394 22.5461 35.4545 22.7795 35.778 23C35.9294 23.1053 36.0221 23.2768 36.0256 23.4617C36.0274 23.4904 36.0925 26.3477 37.3558 28.7806C37.374 28.8172 37.3869 28.857 37.399 28.8946C40.5397 28.681 43.6899 28.5946 46.8319 28.5925C49.976 28.5946 53.1241 28.6871 56.2632 28.902C56.2756 28.8607 56.2872 28.8204 56.3095 28.7806C57.5708 26.3477 57.6387 23.4904 57.6387 23.4617C57.6408 23.3703 57.6646 23.281 57.7078 23.2007C57.7512 23.1206 57.8129 23.0516 57.8882 23C58.1993 22.7866 58.5022 22.5617 58.7964 22.3252L58.8362 22.214C59.4926 15.8228 58.2883 9.93301 57.5228 7.02308C57.4823 9.01294 57.0108 26.0627 52.7795 26.0627H41.101C36.6077 26.0627 36.2463 6.8396 36.2463 6.8396L36.0148 7.5222C35.2485 10.5875 34.1967 16.2215 34.8341 22.3012ZM21.6281 31.4358C21.6242 31.4111 21.6172 31.3868 21.6116 31.3616C21.5977 31.2665 21.381 29.6695 21.5115 27.1528C21.0372 29.0751 20.1846 31.5923 18.8418 32.4631C19.6451 32.0904 20.4897 31.8019 21.331 31.5264C21.4291 31.4956 21.5298 31.4664 21.6281 31.4358Z" fill="white"/>
<path d="M75.7068 57.2285C75.6357 57.607 75.553 57.9834 75.4584 58.3566C76.4217 58.5813 77.9964 58.7554 78.7492 58.6084C79.0717 58.2583 79.4879 57.0441 79.8616 55.5854C78.9613 56.4446 77.3574 57.6352 75.7068 57.2285ZM41.1916 80.8017C43.492 81.4314 45.8416 81.7048 48.1565 81.5513C50.4793 81.3935 53.4944 80.8923 56.6951 79.593C55.9878 79.5416 55.2906 79.3951 54.6223 79.1581C52.2687 79.8756 47.7825 80.946 43.7048 80.2464C42.6251 80.6017 41.779 80.7121 41.6965 80.7224C41.5264 80.7419 41.3852 80.7653 41.1916 80.8017ZM18.8797 59.5171C18.8267 59.3459 18.778 59.1734 18.7273 59.0016C17.0453 59.313 15.4173 58.4219 14.313 57.5769C14.6707 58.7211 15.0315 59.6203 15.3014 59.8935C16.1344 60.0391 17.9771 59.7834 18.8797 59.5171ZM21.3669 62.3678C22.4779 63.0378 23.9803 63.8672 24.7703 63.9776C26.1228 64.1696 37.9824 60.6349 39.8561 60.0636C41.0167 59.708 41.3776 59.059 41.4837 58.6171L24.3735 62.4265C24.3312 62.4344 24.2883 62.4386 24.2453 62.4394C24.1274 62.4394 24.0072 62.403 23.9065 62.333L23.24 61.8681L21.2414 60.4684V60.4655L20.4348 59.9024C20.4487 59.948 20.4653 59.9936 20.4802 60.0386C20.5259 60.1713 20.571 60.3057 20.6193 60.4363V60.4395C20.6756 60.6086 20.9221 61.321 21.3669 62.3678ZM73.8521 59.0814C73.9614 58.6774 74.0686 58.2683 74.1664 57.8553L73.5724 58.2726L71.9737 59.392L70.2441 60.6041C70.1553 60.6655 70.0521 60.7023 69.9462 60.7102C69.9109 60.7126 69.8759 60.7118 69.8408 60.7079L52.6114 58.749L52.5822 59.0177C52.84 59.2964 53.247 59.5629 53.8932 59.7302C55.7863 60.2211 67.7915 63.2375 69.1336 62.9859C70.1656 62.795 72.3688 61.3113 73.3342 60.6333C73.3427 60.6099 73.3508 60.587 73.3585 60.5638C73.5294 60.0718 73.694 59.5779 73.8521 59.0814Z" fill="white"/>
<path d="M55.6243 35.8709C55.4887 36.0463 55.3401 36.2383 55.1805 36.4388C54.3623 37.4728 53.2288 38.7916 51.8865 40.0857C50.2794 40.0351 48.6718 40.0098 47.0639 40.0098C44.3323 40.0098 41.7131 40.0817 39.2262 40.2013C42.7418 38.7447 46.963 37.3206 51.5351 36.4659C52.8888 36.208 54.2533 36.01 55.6243 35.8709ZM35.0596 37.4436C33.8031 38.3254 32.3877 39.4488 31.014 40.8134C27.964 41.1176 24.9235 41.5135 21.897 42.0002C25.7883 40.2129 30.2301 38.5659 35.0596 37.4436ZM78.0388 44.7053L76.6066 54.7133L69.7521 59.5157L51.8754 57.4831L49.186 48.6214C49.1541 48.516 49.0932 48.4217 49.0103 48.349C48.9275 48.2763 48.8259 48.2284 48.7171 48.2107C48.0554 48.1038 47.4701 48.0516 46.9812 48.0516C46.491 48.0516 45.9059 48.1038 45.24 48.2107C45.1317 48.2294 45.0309 48.2779 44.9484 48.3503C44.866 48.4228 44.8051 48.5165 44.7724 48.6214L42.1486 57.2674L24.3729 61.2219L17.3283 56.2881L15.9381 45.0561C16.2446 44.8852 16.5516 44.715 16.8589 44.5457C17.2958 44.4516 17.7864 44.3523 18.3289 44.2493L19.6373 54.8479C19.6555 55.0125 19.7483 55.1592 19.8844 55.254L24.732 58.6499C24.8294 58.7171 24.9489 58.7553 25.0659 58.7553C25.1093 58.7553 25.151 58.7492 25.1967 58.7405L39.8113 55.4895C39.8616 55.4771 39.9106 55.4592 39.957 55.4363C40.0916 55.3634 40.1996 55.2398 40.2436 55.0865L42.8772 46.4223C43.5831 46.2416 45.392 45.8178 46.9809 45.8178C48.5667 45.8178 50.375 46.2416 51.0828 46.4223L53.7148 55.0865C53.782 55.3104 53.9788 55.474 54.2103 55.5006L68.8277 57.161C68.9676 57.1776 69.1122 57.1386 69.2284 57.0572L74.0776 53.6676C74.2082 53.5731 74.2978 53.4269 74.3205 53.2676L75.6149 44.2109C76.5866 44.3968 77.3992 44.5675 78.0388 44.7053ZM79.8435 38.4281L78.5846 43.201C76.0113 42.6332 70.3603 41.5196 62.6673 40.77C65.1797 39.6985 67.7393 38.3562 70.0779 36.6742C74.6555 37.3209 78.0167 38.0149 79.8435 38.4281ZM14.2886 38.4281L14.6383 39.7496C15.4913 39.07 16.3691 38.4224 17.27 37.8081C16.0375 38.0444 15.0322 38.2598 14.2886 38.4281Z" fill="white"/>
<path d="M63.646 35.7659C61.7193 35.6566 59.794 35.5644 57.8661 35.4846C57.6509 35.8028 57.4294 36.1168 57.202 36.4262C56.1694 37.8233 54.1335 40.3703 51.5239 42.5556C53.4874 41.9335 61.2765 39.3206 65.222 35.8629C64.6967 35.8289 64.1715 35.7965 63.646 35.7659ZM49.5296 35.2571L49.5375 35.2552C48.5602 35.2426 47.5824 35.232 46.607 35.2283C45.1698 35.2323 43.7342 35.2505 42.297 35.2755L39.647 36.5313C39.6331 36.5369 39.6199 36.5442 39.608 36.5535C39.2092 36.7471 35.7306 38.5023 32.4553 41.6337C32.7419 41.4828 33.0456 41.3264 33.3588 41.1678C35.15 39.9641 39.9273 37.1142 47.3561 35.236C48.0805 35.2402 48.806 35.2447 49.5296 35.2571ZM33.2458 35.5771C32.0188 35.6337 30.7913 35.6967 29.5656 35.7659C28.144 35.8455 26.7271 35.9413 25.3111 36.048C24.6049 36.1025 23.8977 36.1626 23.1975 36.2363C22.9941 36.2561 22.7953 36.278 22.5963 36.3035C20.746 37.4092 13.6649 41.8545 8.7998 47.6717C8.8836 47.5706 8.97005 47.471 9.05584 47.3712C18.063 39.6873 27.938 36.6965 33.2458 35.5771ZM73.995 67.1757L73.8327 67.2592C72.9295 67.7341 71.7459 67.9664 70.2163 67.9664C69.3057 67.9664 68.4127 67.8901 67.423 67.8008C65.4469 67.6198 62.1013 67.2263 62.0673 67.2203L61.8115 67.1934L61.6092 67.0301C61.5784 67.0098 58.6492 64.6735 56.2809 62.8119C56.1842 62.7337 56.0975 62.6594 56.018 62.5964C55.7683 62.3828 55.7683 62.3828 55.6192 62.3828C54.859 62.3828 52.6508 63.0684 47.8142 64.5666L47.5176 64.6617L47.2236 64.55C47.1907 64.5416 44.0181 63.3653 40.215 63.3653C39.9036 63.3653 39.5928 63.3729 39.2906 63.3879C38.9103 63.4074 36.7726 64.4228 34.0374 68.7466L33.8622 69.0255L33.5474 69.1262C33.5018 69.1412 28.7962 70.6593 23.8053 72.0864L23.4833 72.1775L23.1753 72.0356C23.1432 72.0245 21.1942 71.1182 19.3366 70.2669C19.4734 70.3304 19.6112 70.3928 19.7483 70.4563C21.5821 72.0387 25.0935 75.0825 25.4833 75.5042C25.5373 75.5647 25.6125 75.639 25.7019 75.723C25.6115 75.6203 25.5234 75.5155 25.4376 75.4088L25.4343 75.4054C26.2432 76.1721 27.1464 76.8353 28.1329 77.3015C28.625 77.5328 29.141 77.7119 29.6657 77.7991C29.9305 77.842 30.187 77.8639 30.4552 77.8639C30.7265 77.8639 31.0036 77.856 31.2805 77.8425C32.3776 77.7862 33.485 77.7019 34.5895 77.5949C35.6926 77.4956 36.7966 77.3853 37.8985 77.2515C38.9993 77.133 40.0998 76.9947 41.1909 76.8253C41.7375 76.7458 42.2806 76.6554 42.8114 76.538C43.0719 76.4763 43.3438 76.4084 43.55 76.3157C43.7384 76.2256 43.9668 76.0444 44.1675 75.8718C44.5782 75.5184 44.9746 75.1267 45.3671 74.7358C45.7606 74.3421 46.1476 73.942 46.5277 73.5356C47.1741 72.8589 47.7278 72.1401 48.3537 71.4437C48.4338 71.3568 48.5154 71.2649 48.5986 71.1753C48.5973 71.1753 48.5986 71.1769 48.5986 71.1753L48.6073 71.1853C48.7377 71.2791 48.8679 71.3742 48.9956 71.474C49.7485 72.0356 50.5258 72.6432 51.2757 73.1679C52.2425 73.8472 53.2213 74.5278 54.2339 75.094C54.4868 75.235 54.7481 75.3664 54.9975 75.4488C55.0299 75.4607 55.0571 75.4665 55.0818 75.4699C55.1005 75.4812 55.1669 75.4918 55.1745 75.4918C55.2241 75.4991 55.2899 75.5026 55.3534 75.5068C55.4898 75.5084 55.631 75.5026 55.7725 75.496C56.3436 75.4562 56.9228 75.373 57.5029 75.2824C58.6606 75.1017 59.8214 74.8933 60.9755 74.6624C62.1321 74.4411 63.2874 74.2038 64.4357 73.9486C65.5878 73.7033 66.7355 73.4365 67.8777 73.1476C68.4446 72.9951 69.012 72.8542 69.5177 72.6113C70.0343 72.3709 70.5137 72.0411 70.9552 71.6629C71.8463 70.904 72.5952 69.9635 73.2176 68.9391L73.2158 68.9423C73.5216 68.375 73.7821 67.7842 73.995 67.1757ZM52.4031 12.7517H54.4399V8.61499H39.5477V12.7517H41.5847V10.6509H45.7959V23.4269H44.0621V25.7984H49.9249V23.4269H48.1909V10.6509H52.4031V12.7517Z" fill="white"/>
<path d="M67.8121 36.0458C67.8087 36.0434 67.8045 36.0421 67.8003 36.0421C66.9571 35.9786 66.1133 35.9199 65.2696 35.8656L65.2212 35.8625C61.2755 39.3203 53.4871 41.9331 51.5231 42.5552C51.4851 42.5876 51.4475 42.62 51.4095 42.6519C53.9375 42.1968 57.7136 41.2946 61.6327 39.5594C63.5601 38.7063 65.522 37.6527 67.3883 36.35C67.5324 36.2499 67.672 36.1454 67.8121 36.0458ZM47.3561 35.2354C39.9273 37.1131 35.15 39.9632 33.3583 41.1666C35.0125 40.3251 36.697 39.5452 38.409 38.8285C38.6155 38.7427 38.8223 38.6573 39.0293 38.5728C39.0944 38.5462 39.1587 38.5198 39.2237 38.4935C39.3957 38.424 39.5696 38.3555 39.7442 38.2857C39.8414 38.2477 39.9376 38.2096 40.0356 38.1716C40.1926 38.11 40.3514 38.0492 40.511 37.9878C40.6306 37.9425 40.7502 37.8969 40.8711 37.8521C41.0173 37.7958 41.1648 37.7407 41.3137 37.6865C41.4525 37.6351 41.5931 37.5845 41.7325 37.5342C41.8702 37.4837 42.0072 37.4347 42.146 37.3851C42.3038 37.3296 42.4632 37.2745 42.6236 37.2184C42.7501 37.1752 42.876 37.131 43.0032 37.0878C43.1907 37.0248 43.3793 36.9619 43.5693 36.8995C43.6736 36.8652 43.7768 36.8307 43.8817 36.7965C44.1783 36.7006 44.4786 36.605 44.7805 36.5128C45.4398 36.3102 46.1131 36.1172 46.7977 35.9315C47.7028 35.6847 48.6137 35.4595 49.5296 35.2564C48.8054 35.2443 48.0805 35.2398 47.3561 35.2354ZM33.2458 35.5767C27.938 36.6961 18.063 39.6869 9.05584 47.3708C8.97005 47.4706 8.8836 47.5699 8.7998 47.6713C13.3784 44.4883 21.2485 39.7575 30.9781 36.8794C31.2918 36.7867 31.6084 36.6961 31.9258 36.6068C33.5706 36.1459 35.2333 35.7521 36.9101 35.4271C35.6895 35.4703 34.4678 35.5211 33.2458 35.5767ZM75.7485 66.3267C75.6553 66.3697 75.5623 66.4129 75.4696 66.4569C75.419 66.48 75.3703 66.5032 75.3192 66.5266L75.1985 66.5838L75.0144 66.6715C74.9894 66.6844 74.9625 66.6965 74.9362 66.71C74.8664 66.7432 74.7971 66.7753 74.7299 66.8087L74.6846 66.8311C74.6106 66.8677 74.5371 66.903 74.466 66.9386L74.443 66.9494C74.2847 67.0276 74.1351 67.1032 73.995 67.1746C73.7813 67.7838 73.52 68.3751 73.2134 68.9433L73.2169 68.939C73.2153 68.9409 73.2142 68.9401 73.2134 68.9433C72.592 69.9634 71.8429 70.9034 70.9541 71.6612C70.5126 72.0394 70.0327 72.3692 69.5169 72.6096C69.0101 72.8525 68.4433 72.9929 67.8766 73.1459C66.7374 73.4327 65.5886 73.7025 64.4343 73.9464C63.2848 74.2016 62.1316 74.4397 60.9749 74.6601C59.8201 74.8925 58.6598 75.1003 57.5013 75.2804C56.9218 75.3713 56.3428 75.4543 55.7712 75.4938C55.6318 75.5017 55.4925 75.5054 55.3529 75.5048C55.2928 75.5022 55.233 75.4972 55.1732 75.4898C55.1419 75.4869 55.1108 75.4795 55.0813 75.4682C55.052 75.4648 55.0236 75.4574 54.9965 75.4469C54.7462 75.3652 54.486 75.2325 54.2328 75.0924C53.2208 74.5253 52.2411 73.8455 51.2744 73.1662C50.5258 72.6413 49.7466 72.0334 48.9943 71.4721L48.9287 71.565L48.9332 71.57C48.9798 71.6124 49.0272 71.6514 49.0741 71.6925L49.0707 71.6907C49.0362 71.6649 49.0035 71.6396 48.9714 71.6164L49.6023 72.3689C49.6044 72.3713 49.6281 72.4003 49.6744 72.4542C49.9966 72.8325 51.344 74.3954 52.9437 75.9826C54.1617 77.19 55.631 77.7998 57.3166 77.7998C57.8922 77.7998 58.497 77.7242 59.1081 77.5788C59.6731 77.44 60.2882 77.2935 60.9183 77.1413C62.7867 76.6967 64.8566 76.201 66.2306 75.8443C66.322 75.8201 66.411 75.7972 66.4964 75.7743C66.691 75.7229 66.8672 75.676 67.0248 75.6323C67.2934 75.5578 67.564 75.4911 67.8363 75.4319C69.5024 75.0455 71.7812 74.5169 72.9879 72.0979C73.3499 71.3767 73.7152 70.6574 74.0843 69.9399C74.6888 68.7657 75.2981 67.5939 75.9121 66.4247L76.0328 66.195L75.7485 66.3267ZM48.4619 71.5445L48.3537 71.4418C47.7275 72.1387 47.1733 72.8575 46.5277 73.5344C46.1476 73.9408 45.7606 74.3409 45.3671 74.7344C44.9746 75.1253 44.5779 75.5183 44.1675 75.8704C43.9665 76.0432 43.7381 76.2247 43.55 76.3142C43.3441 76.4069 43.0719 76.4752 42.8114 76.5365C42.2814 76.6543 41.7375 76.7443 41.1909 76.8242C40.1004 76.9933 38.9993 77.1326 37.8985 77.2501C36.7966 77.3839 35.6926 77.4945 34.5895 77.5935C33.4852 77.7007 32.3776 77.7847 31.2805 77.8416C31.0036 77.8543 30.7265 77.863 30.4552 77.863C30.187 77.863 29.9297 77.8416 29.6657 77.7976C29.1407 77.711 28.6247 77.5314 28.1329 77.3006C27.1467 76.8342 26.2438 76.1712 25.4346 75.4047L25.4376 75.4074C25.5469 75.5417 25.6671 75.6681 25.7821 75.7961C25.7542 75.7706 25.7278 75.7453 25.7019 75.7213C25.6125 75.6376 25.5373 75.5633 25.483 75.5027C25.0928 75.0805 21.5811 72.0373 19.748 70.4549C19.6109 70.3911 19.4731 70.3289 19.3363 70.2652C19.6829 70.7786 20.033 71.2901 20.3863 71.7989C20.9266 72.5791 21.4786 73.3511 22.0421 74.1147C22.2848 74.4428 22.5313 74.7679 22.7814 75.0905C24.7745 77.6549 27.2831 80.0246 32.0976 80.0246C32.7005 80.0246 33.3422 79.9875 34.0007 79.9129C34.154 79.8963 34.3031 79.8792 34.4499 79.8616C34.5908 79.8458 34.7296 79.8302 34.8642 79.8144C39.0507 79.3332 40.1989 79.1278 40.8363 79.0177C41.0012 78.9892 41.1419 78.9645 41.2944 78.9421C41.3537 78.9336 41.4143 78.9242 41.4785 78.9155C41.5017 78.9134 42.9173 78.7316 44.3013 78.0584C45.2551 77.5954 46.1931 76.8992 46.652 75.8702C47.8108 73.2784 48.0463 72.6592 48.0555 72.636L48.4619 71.5445Z" fill="white"/>
<path d="M59.7951 48.0132C60.0408 48.0082 60.2747 47.9063 60.4452 47.7293C60.6159 47.5523 60.7094 47.3149 60.7054 47.0692C60.7036 46.9473 60.6778 46.8269 60.6293 46.7149C60.5806 46.603 60.5105 46.5019 60.4225 46.417C60.3348 46.3325 60.231 46.2659 60.1175 46.2216C60.0037 46.1771 59.8825 46.1558 59.7603 46.1584C59.6386 46.1608 59.5185 46.1868 59.4068 46.2356C59.2951 46.284 59.1942 46.3544 59.1097 46.4421C59.0254 46.5298 58.959 46.6333 58.9145 46.7468C58.8702 46.8603 58.8486 46.9812 58.8512 47.1032C58.8557 47.3489 58.9577 47.5828 59.1347 47.7535C59.3117 47.9242 59.5493 48.0177 59.7951 48.0132ZM65.4993 52.1906C64.2744 51.5987 62.9355 52.3481 60.4971 52.3936C58.6813 52.4587 57.1596 52.4782 57.0595 49.6301C56.9591 46.7758 58.1205 44.4171 59.936 44.3542C61.7501 44.2904 63.4067 46.5516 63.6293 49.3965C63.6907 50.1817 63.604 50.7535 63.4099 51.1776C65.0965 50.9761 65.4811 52.1216 65.4993 52.1906ZM33.7968 48.7014C34.0423 48.6946 34.2749 48.5908 34.444 48.4125C34.6131 48.2344 34.7046 47.9963 34.6985 47.7509C34.6919 47.5048 34.5879 47.2715 34.4095 47.1021C34.2309 46.9328 33.9925 46.8411 33.7465 46.8474C33.6248 46.8506 33.5047 46.878 33.3935 46.9275C33.2824 46.9773 33.182 47.0481 33.0983 47.1366C33.0145 47.2251 32.9492 47.3292 32.9054 47.4427C32.862 47.5565 32.8414 47.6776 32.8446 47.7993C32.848 47.9213 32.8751 48.0411 32.9249 48.1523C32.9744 48.2634 33.0456 48.3638 33.1338 48.4475C33.2223 48.5313 33.3264 48.5966 33.4402 48.6403C33.554 48.6838 33.6751 48.7046 33.7968 48.7014ZM36.6003 50.1941C36.6272 53.0445 35.1176 52.873 33.3008 52.8909C33.1164 52.8967 32.9426 52.8991 32.7682 52.8991C32.5659 52.9046 32.3702 52.907 32.1824 52.9033C30.4188 52.8991 29.293 52.8206 28.2957 53.3592C28.3189 53.2976 28.7574 52.3191 30.3392 51.9201C30.1649 51.535 30.0553 50.999 30.0263 50.2575C29.9173 47.4085 31.6753 45.0722 33.4905 45.0556C35.3059 45.0377 36.5732 47.3437 36.6003 50.1941ZM70.9815 30.5939C70.9683 30.7693 70.9517 30.9444 70.932 31.1193C70.2126 30.9252 69.4898 30.7443 68.7641 30.5762C66.3659 30.0494 63.9383 29.6591 61.4988 29.3804C61.4145 29.3696 61.3287 29.3638 61.2428 29.3533C61.2591 29.317 61.2741 29.2809 61.2852 29.2448C61.3579 28.9785 61.4216 28.7117 61.4822 28.4449C62.1107 25.6627 62.0781 22.8918 62.0072 21.5509L70.6823 24.0173C71.1548 27.0997 71.0631 29.5179 70.9815 30.5939ZM60.1912 28.9419C60.1623 29.0412 60.1662 29.145 60.1912 29.2411C59.2838 29.146 58.3753 29.0623 57.4657 28.9893C58.4846 26.8529 58.7072 24.5783 58.7567 23.7765C59.5398 23.2211 60.3182 22.5531 60.8898 22.0337C60.9422 23.5645 60.9051 26.3428 60.1912 28.9419ZM33.4618 29.2353C33.4865 29.1434 33.4884 29.0412 33.4618 28.9419C32.7498 26.3464 32.7121 23.5685 32.7611 22.0337C33.3348 22.5531 34.1113 23.2211 34.8971 23.7765C34.9445 24.578 35.1671 26.8474 36.1857 28.984C35.277 29.0557 34.3687 29.1389 33.4618 29.2353ZM32.1518 29.3786C30.9348 29.5269 29.7165 29.6802 28.5043 29.8811C27.2952 30.0882 26.086 30.3081 24.8873 30.5744C24.1602 30.7435 23.4398 30.9223 22.7187 31.1172C22.7121 31.0603 22.7031 30.9726 22.6929 30.8596C22.6094 29.9654 22.4511 27.39 22.9704 24.0162L31.6432 21.5496C31.5776 22.8402 31.542 25.4557 32.0996 28.1304C32.1771 28.502 32.2651 28.8737 32.3665 29.2435C32.3778 29.2798 32.3923 29.3162 32.4084 29.3486C32.3212 29.3596 32.2379 29.3678 32.1518 29.3786ZM75.631 32.8806C75.5573 32.8451 75.4843 32.809 75.4145 32.7747C75.307 32.7229 75.1882 32.6641 75.052 32.5977C74.9688 32.5574 74.8879 32.5121 74.8102 32.4621C74.0076 32.091 73.1663 31.8036 72.3265 31.5279C72.2269 31.4955 72.1289 31.4665 72.0296 31.4372C72.0375 31.4125 72.0438 31.3869 72.0486 31.3614C72.0607 31.2663 72.2764 29.6712 72.146 27.1572C72.0913 26.0833 71.9722 24.842 71.7475 23.4779C71.7296 23.3717 71.6822 23.2727 71.6105 23.1921C71.5389 23.1117 71.4462 23.0533 71.3426 23.0235L70.1062 22.6737C69.8401 13.1065 65.9007 8.61082 65.7775 8.47138C69.2967 14.1349 69.2659 20.8513 69.2045 22.4167L61.5383 20.2376C61.5328 20.2376 61.5278 20.2376 61.5207 20.2342C61.488 20.2274 61.4554 20.2224 61.4222 20.2197C61.4148 20.2197 61.4066 20.2184 61.394 20.2184C61.3521 20.2163 61.31 20.22 61.2689 20.2289C61.2628 20.2289 61.2562 20.2347 61.2483 20.2347C61.2138 20.2418 61.1806 20.2534 61.149 20.2687C61.1369 20.2745 61.1261 20.2821 61.115 20.2853C61.0892 20.3029 61.0642 20.3174 61.0389 20.3356C61.0334 20.3396 61.0257 20.343 61.0205 20.3483C61.0128 20.3535 61.0105 20.3593 61.0057 20.3627C60.9986 20.3704 60.9899 20.3754 60.9839 20.3812C60.9767 20.3886 60.7702 20.5908 60.4496 20.8935C60.4723 20.1763 60.4778 19.079 60.3964 17.7394L60.3714 17.3529C60.1304 13.9869 59.3349 9.25897 56.9568 5.11995C56.9773 5.17955 57.2125 5.86616 57.5165 7.02302C58.2817 9.93298 59.4869 15.8227 58.8299 22.2138C58.8267 22.2431 58.8246 22.2718 58.8217 22.3013C58.8117 22.3097 58.8009 22.3174 58.7907 22.3253C58.4964 22.5615 58.1932 22.7865 57.8819 22.9998C57.8068 23.0517 57.7449 23.1204 57.7014 23.2008C57.658 23.2808 57.6343 23.3704 57.6319 23.4615C57.6319 23.4905 57.5647 26.3478 56.3038 28.7807C56.2811 28.8205 56.2695 28.8605 56.2566 28.9019C53.1178 28.6867 49.97 28.5947 46.8258 28.5926C43.6833 28.5945 40.5337 28.6809 37.393 28.8945C37.3803 28.8566 37.3677 28.8168 37.3495 28.7804C36.0862 26.3478 36.0214 23.4905 36.0193 23.4613C36.0177 23.3701 35.9942 23.2808 35.951 23.2008C35.9081 23.1204 35.8465 23.0517 35.7716 22.9998C35.4479 22.7793 35.1331 22.5462 34.8278 22.301C34.1898 16.2212 35.2427 10.5874 36.0087 7.52183C36.3725 6.06652 36.6725 5.18685 36.6965 5.11963C33.246 11.123 33.1264 18.3668 33.2028 20.8932C32.8767 20.5903 32.6742 20.3886 32.6689 20.3806C32.6628 20.3751 32.6523 20.3701 32.6452 20.3625L32.6328 20.3477C32.6267 20.3427 32.6199 20.3393 32.6125 20.3353C32.5883 20.3182 32.5627 20.3027 32.5364 20.2887C32.5237 20.2816 32.5145 20.274 32.5 20.2684C32.4708 20.2526 32.4392 20.2421 32.4063 20.2376C32.397 20.2342 32.3899 20.2287 32.3841 20.2287C32.3423 20.22 32.2996 20.2163 32.2569 20.2181C32.2464 20.2181 32.235 20.2195 32.2245 20.2195C32.1932 20.2226 32.1631 20.2263 32.1307 20.2339C32.1231 20.2374 32.1194 20.2374 32.112 20.2374L24.4487 22.4164C24.3871 20.8508 24.354 14.1343 27.8729 8.47103C27.7512 8.61113 23.8124 13.1072 23.5445 22.6743L22.3139 23.0238C22.2094 23.0525 22.1152 23.1107 22.0427 23.1913C21.9703 23.2719 21.9225 23.3717 21.9052 23.4789C21.7042 24.6952 21.5708 25.9221 21.5057 27.1535C21.3759 29.6707 21.5919 31.2671 21.6058 31.3619C21.6114 31.3872 21.6184 31.4117 21.6223 31.4365C21.5243 31.467 21.4232 31.4962 21.3252 31.5271C20.4839 31.8026 19.6396 32.0912 18.8363 32.4637C18.7634 32.5106 18.6877 32.5532 18.6098 32.5914L18.5972 32.5985C18.4604 32.6646 18.3415 32.7236 18.2342 32.7753L18.0457 32.8675C18.0059 32.8906 17.9648 32.9104 17.9258 32.9338C18.4945 32.7107 19.0828 32.5477 19.6704 32.4034C20.2591 32.2569 20.8518 32.1271 21.4478 32.0138C22.6412 31.792 23.8373 31.5992 25.041 31.4528C26.2414 31.295 27.4467 31.1649 28.6542 31.064C29.8617 30.961 31.0673 30.8594 32.2777 30.7893C37.118 30.503 41.9708 30.4124 46.8256 30.4108C51.6816 30.4142 56.534 30.4904 61.3734 30.7877C62.5846 30.8575 63.7897 30.9587 64.9996 31.0609C66.2084 31.1636 67.4099 31.2955 68.61 31.4531C69.814 31.5979 71.0123 31.7897 72.2037 32.0128C72.7993 32.1252 73.3912 32.2553 73.9789 32.4034C74.571 32.548 75.1561 32.711 75.7261 32.9344C75.6942 32.9151 75.6618 32.8985 75.631 32.8806Z" fill="#B1B0B0"/>
<path d="M48.1867 10.6506V23.4267H49.9207V25.7982H44.0579V23.4267H45.7917V10.6506H41.5802V12.7518H39.5443V8.61505H54.4359V12.7518H52.3995V10.6503L48.1867 10.6506ZM55.969 14.2813V7.08325H38.0146V14.2813H43.1133V12.1801H44.2586V21.8943H42.529V27.3254H51.4525V21.8935H49.7168V12.1794H50.8664V14.2809L55.969 14.2813Z" fill="#B1B0B0"/>
</g>
</g>
<defs>
<clipPath id="clip0_35_172">
<rect width="90" height="86" fill="white"/>
</clipPath>
</defs>
</svg>
