<svg width="90" height="90" viewBox="0 0 90 90" fill="none" xmlns="http://www.w3.org/2000/svg">
<path d="M11.25 18.75C11.25 14.625 14.625 11.25 18.75 11.25H71.25C75.375 11.25 78.75 14.625 78.75 18.75V71.25C78.75 75.375 75.375 78.75 71.25 78.75H18.75C14.625 78.75 11.25 75.375 11.25 71.25V18.75Z" fill="white"/>
<path d="M18.75 22.875C18.75 20.625 20.625 18.75 22.875 18.75H37.125C39.375 18.75 41.25 20.625 41.25 22.875V63.375C41.25 65.625 39.375 67.5 37.125 67.5H22.875C20.625 67.5 18.75 65.625 18.75 63.375V22.875ZM48.75 42.75C48.75 45 50.625 46.875 52.875 46.875H67.125C69.375 46.875 71.25 45 71.25 42.75V22.875C71.25 20.625 69.375 18.75 67.125 18.75H52.875C50.625 18.75 48.75 20.625 48.75 22.875V42.75Z" fill="#B1B0B0"/>
</svg>
