<svg width="100" height="100" viewBox="0 0 100 100" fill="none" xmlns="http://www.w3.org/2000/svg">
<g clip-path="url(#clip0_35_214)">
<path d="M95.5713 67.8573C95.2856 67.5716 76.857 49.8573 76.857 49.8573C76.857 49.8573 90.857 35.0001 94.5713 31.2859C95.7141 30.143 96.7141 29.0001 97.4284 27.5716C102.571 18.8573 99.5713 7.71442 90.857 2.57157C84.4284 -1.14272 76.4284 -0.571292 70.7141 3.71442C69.7141 4.42871 68.857 5.14299 67.9999 6.00014C67.5713 6.57157 48.1427 24.2859 31.2856 39.7144L62.857 59.7144L29.7141 97.0001C27.7141 98.4287 25.7141 99.2859 23.5713 99.7144C23.9999 99.7144 24.2856 99.7144 24.7141 99.5716C31.2856 98.5716 87.4284 89.143 90.1427 88.5716C93.4284 88.0001 96.4284 86.0001 98.2856 83.0001C101.428 77.8573 99.9999 71.4287 95.5713 67.8573Z" fill="white"/>
<path d="M65.5714 43.5715C65 39.7143 63 36.5715 60.1429 34.2857C57.1429 32 34 8.00003 31.4286 5.28574C27.4286 1.4286 21.7143 -0.714259 15.8571 0.285741C5.85715 1.71431 -1.14285 11.1429 0.428575 21.1429C1.14286 26.1429 4 30.4286 7.71429 33.1429C11.4286 36 40.5714 56 42.4286 57.4286C45.4286 59.7143 49.4286 61 53.4286 60.2857C61.2857 58.8572 66.8571 51.4286 65.5714 43.5715Z" fill="white"/>
<path d="M32.8571 96.8573C33 96.8573 66.1429 59.5716 66.1429 59.5716L32.7143 38.4287C20.8571 49.2859 9.85715 59.143 7.28572 61.5716C5.71429 63.0001 4.14286 64.8573 3.00001 66.8573C-3.14285 77.4287 0.428577 90.8573 11 97.0001C15.2857 99.4287 25 102.429 32.8571 96.8573Z" fill="white"/>
<path d="M80.3569 19.6428V80.3567H19.6431V19.6428H80.3569Z" fill="white" stroke="#B1B0B0"/>
<path d="M47.5 69.7856V72.6431H25.3574V69.7856H47.5Z" fill="#B1B0B0" stroke="#B1B0B0"/>
<path d="M34.5 42.5698L34.4238 42.4478L25.1914 27.7856H30.5713L36.4268 37.6831L36.8477 38.394L37.2822 37.6919L43.4219 27.7856H48.6543L39.2949 42.3003L39.2148 42.4243V52.3569H34.5V42.5698Z" fill="#B1B0B0" stroke="#B1B0B0"/>
<path d="M72.3579 27.7856V31.9282H64.5005V52.3569H59.9292V31.9282H52.0718V27.7856H72.3579Z" fill="#B1B0B0" stroke="#B1B0B0"/>
</g>
<defs>
<clipPath id="clip0_35_214">
<rect width="100" height="100" fill="white"/>
</clipPath>
</defs>
</svg>
