<?xml version="1.0" encoding="utf-8"?>
<!-- Generator: Adobe Illustrator 27.8.0, SVG Export Plug-In . SVG Version: 6.00 Build 0)  -->
<svg version="1.1" id="Layer_1" xmlns="http://www.w3.org/2000/svg" xmlns:xlink="http://www.w3.org/1999/xlink" x="0px" y="0px"
	 viewBox="0 0 2260.7 1070.5" style="enable-background:new 0 0 2260.7 1070.5;" xml:space="preserve">
<style type="text/css">
	.st0{clip-path:url(#SVGID_00000078017114747919529980000002732339297691073170_);fill:#fff;}
	.st1{clip-path:url(#SVGID_00000078017114747919529980000002732339297691073170_);}
	.st2{fill:none;stroke:#fff;stroke-width:127.111;stroke-miterlimit:10;}
	
		.st3{fill:none;stroke:url(#SVGID_00000103963896450513575110000000712001627478346624_);stroke-width:127.111;stroke-linecap:round;stroke-miterlimit:10;}
	.st4{fill:none;stroke:#fff;stroke-width:127.111;stroke-linecap:round;stroke-miterlimit:10;}
	
		.st5{fill:none;stroke:url(#SVGID_00000077322844964478695340000001023546052059399073_);stroke-width:127.111;stroke-linecap:round;stroke-miterlimit:10;}
	
		.st6{fill:none;stroke:url(#SVGID_00000173152471759307670300000001095392217386690484_);stroke-width:127.111;stroke-linecap:round;stroke-miterlimit:10;}
</style>
<g>
	<defs>
		<rect id="SVGID_1_" x="0.1" y="-1.1" width="2260.6" height="1072.6"/>
	</defs>
	<clipPath id="SVGID_00000146467658952764017660000005597895749223019420_">
		<use xlink:href="#SVGID_1_"  style="overflow:visible;"/>
	</clipPath>
	
		<rect y="-0.3" style="clip-path:url(#SVGID_00000146467658952764017660000005597895749223019420_);fill:#fff;" width="2260.6" height="1072.6"/>
	<g style="clip-path:url(#SVGID_00000146467658952764017660000005597895749223019420_);">
		<path class="st2" d="M558.4,825.4c105.3,0,190.7-85.4,190.7-190.7c0-105.3-85.4-190.7-190.7-190.7s-190.7,85.4-190.7,190.7
			C367.7,740.1,453.1,825.4,558.4,825.4z"/>
		
			<linearGradient id="SVGID_00000123399991091268698680000002366421939766087301_" gradientUnits="userSpaceOnUse" x1="748.8964" y1="374.5046" x2="367.5624" y2="360.2046" gradientTransform="matrix(1 0 0 -1 0 1101.1063)">
			<stop  offset="0" style="stop-color:#B8C3FF"/>
			<stop  offset="0.75" style="stop-color:#FFFFFF"/>
		</linearGradient>
		
			<path style="fill:none;stroke:url(#SVGID_00000123399991091268698680000002366421939766087301_);stroke-width:127.111;stroke-linecap:round;stroke-miterlimit:10;" d="
			M749,634.8c0,105.3-85.4,190.7-190.7,190.7c-51.7,0-98.6-20.6-133-54"/>
		<path class="st4" d="M749,634.8v190.7"/>
		<path class="st2" d="M1130.4,444.1c105.3,0,190.7,86.2,190.7,190.7s-85.4,190.7-190.7,190.7c-105.3,0-190.7-86.2-190.7-190.7
			S1025.1,444.1,1130.4,444.1z"/>
		
			<linearGradient id="SVGID_00000150066740770439261110000006093828377507738008_" gradientUnits="userSpaceOnUse" x1="1320.4084" y1="558.1675" x2="939.0734" y2="572.4675" gradientTransform="matrix(1 0 0 -1 0 1101.1063)">
			<stop  offset="0" style="stop-color:#fff"/>
			<stop  offset="0.75" style="stop-color:#fff"/>
		</linearGradient>
		
			<path style="fill:none;stroke:url(#SVGID_00000150066740770439261110000006093828377507738008_);stroke-width:127.111;stroke-linecap:round;stroke-miterlimit:10;" d="
			M1320.5,634.8c0-105.3-85.4-190.7-190.7-190.7c-51.7,0-98.6,20.6-133,54"/>
		<path class="st4" d="M1321,634.8V189.9"/>
		<path class="st2" d="M1702.4,825.4c105.3,0,190.7-86,190.7-190.7c0-104.6-85.4-190.7-190.7-190.7c-105.3,0-190.7,86-190.7,190.7
			C1511.7,739.4,1597,825.4,1702.4,825.4z"/>
		
			<linearGradient id="SVGID_00000148639657357378388340000016185749714530832041_" gradientUnits="userSpaceOnUse" x1="1892.4084" y1="374.5047" x2="1511.0782" y2="360.2047" gradientTransform="matrix(1 0 0 -1 0 1101.1063)">
			<stop  offset="0" style="stop-color:#B8C3FF"/>
			<stop  offset="0.75" style="stop-color:#FFFFFF"/>
		</linearGradient>
		
			<path style="fill:none;stroke:url(#SVGID_00000148639657357378388340000016185749714530832041_);stroke-width:127.111;stroke-linecap:round;stroke-miterlimit:10;" d="
			M1892.5,634.8c0,105.3-85.4,190.7-190.7,190.7c-51.7,0-98.6-20.6-133-54"/>
		<path class="st4" d="M1893,631.6v193.8"/>
	</g>
</g>
</svg>
