<?xml version="1.0" encoding="utf-8"?>
<!-- Generator: Adobe Illustrator 27.8.0, SVG Export Plug-In . SVG Version: 6.00 Build 0)  -->
<svg version="1.1" id="Layer_1" xmlns="http://www.w3.org/2000/svg" xmlns:xlink="http://www.w3.org/1999/xlink" x="0px" y="0px"
	 viewBox="0 0 1121.1 540.1" style="enable-background:new 0 0 1121.1 540.1;" xml:space="preserve">
<style type="text/css">
	.st0{clip-path:url(#SVGID_00000106830809762922204290000004807192329003336073_);fill:#fff;}
	.st1{clip-path:url(#SVGID_00000157991579671038353300000013041831984315623568_);}
	.st2{clip-path:url(#SVGID_00000147920469685267526340000018001764437327864767_);}
	.st3{clip-path:url(#SVGID_00000058577795983892907490000014532608557418374061_);}
	.st4{clip-path:url(#SVGID_00000102516845511446188130000007676570335124131996_);fill:#fff;}
	.st5{clip-path:url(#SVGID_00000022536000722450258420000002303663942111255220_);fill:#fff;}
	.st6{clip-path:url(#SVGID_00000022535152591794383580000012714461022709861305_);}
	.st7{clip-path:url(#SVGID_00000117645416995705368640000006166079098412336285_);}
	.st8{clip-path:url(#SVGID_00000176002949738348858500000000807485806582114719_);}
	.st9{fill:#fff;}
	.st10{fill:#fff;}
</style>
<g>
	<g>
		<g>
			<defs>
				<path id="SVGID_1_" d="M66,200c-2.3,10.3-3.6,20.9-3.6,31.6c0,39.7,16.9,76.9,46.2,108.4c22.8,24.9,64.4,46.5,70.5,49.6v-59.7
					C133.1,299.3,76.3,244.4,66,200"/>
			</defs>
			<clipPath id="SVGID_00000058559224754793188950000008195928759291533751_">
				<use xlink:href="#SVGID_1_"  style="overflow:visible;"/>
			</clipPath>
			<path style="clip-path:url(#SVGID_00000058559224754793188950000008195928759291533751_);fill:#fff;" d="M66,200
				c-2.3,10.3-3.6,20.9-3.6,31.6c0,39.7,16.9,76.9,46.2,108.4c22.8,24.9,64.4,46.5,70.5,49.6v-59.7C133.1,299.3,76.3,244.4,66,200"
				/>
		</g>
		<g>
			<defs>
				<path id="SVGID_00000013171955822538675050000001950413084749479599_" d="M66,200c-2.3,10.3-3.6,20.9-3.6,31.6
					c0,39.7,16.9,76.9,46.2,108.4c22.8,24.9,64.4,46.5,70.5,49.6v-59.7C133.1,299.3,76.3,244.4,66,200"/>
			</defs>
			<clipPath id="SVGID_00000065074409229861543610000004793232122034183324_">
				<use xlink:href="#SVGID_00000013171955822538675050000001950413084749479599_"  style="overflow:visible;"/>
			</clipPath>
			<g style="clip-path:url(#SVGID_00000065074409229861543610000004793232122034183324_);">
				<g>
					<g>
						<defs>
							<rect id="SVGID_00000129925119041928900350000000700422074221886393_" x="63" y="200.6" width="116.7" height="189.6"/>
						</defs>
						<clipPath id="SVGID_00000075150518002896961390000017036630425015811482_">
							<use xlink:href="#SVGID_00000129925119041928900350000000700422074221886393_"  style="overflow:visible;"/>
						</clipPath>
						<g style="clip-path:url(#SVGID_00000075150518002896961390000017036630425015811482_);">
							<g>
								<defs>
									<rect id="SVGID_00000139265373127853885510000000928803419270363324_" x="63" y="200.6" width="116.7" height="189.6"/>
								</defs>
								<clipPath id="SVGID_00000128484405724416669320000013865862296476723633_">
									<use xlink:href="#SVGID_00000139265373127853885510000000928803419270363324_"  style="overflow:visible;"/>
								</clipPath>
								<g style="clip-path:url(#SVGID_00000128484405724416669320000013865862296476723633_);">
								</g>
							</g>
						</g>
					</g>
				</g>
			</g>
		</g>
	</g>
	<g>
		<g>
			<defs>
				<rect id="SVGID_00000176013564470136751730000005017610820939530409_" x="62.3" y="41.2" width="996.5" height="457.6"/>
			</defs>
			<clipPath id="SVGID_00000064351523136385797000000015313392881966600632_">
				<use xlink:href="#SVGID_00000176013564470136751730000005017610820939530409_"  style="overflow:visible;"/>
			</clipPath>
			<path style="clip-path:url(#SVGID_00000064351523136385797000000015313392881966600632_);fill:#fff;" d="M274.7,41.2
				c-25.6-0.2-57.2,8.3-81.1,20.6l0,0C114.1,99.4,62.3,161.3,62.3,231.3c0,10.8,1.2,21.4,3.6,31.8c15.9-69,82.7-126.8,174.1-155.9
				c23.1-6.5,45.2-17.1,58.5-29.1C320.7,57.9,310,41.5,274.7,41.2"/>
		</g>
	</g>
	<g>
		<g>
			<defs>
				<path id="SVGID_00000057134000023060039860000014166963295244813961_" d="M67,292.7c-3.1,11.8-4.6,23.9-4.6,36.2
					c0,45.6,21.7,88.2,59.4,124.3c27.6,26.9,51.7,37.1,57.4,39.3v-68.7C120.6,389,80.1,343.5,67,292.7"/>
			</defs>
			<clipPath id="SVGID_00000183955936740635793880000003539516111095157637_">
				<use xlink:href="#SVGID_00000057134000023060039860000014166963295244813961_"  style="overflow:visible;"/>
			</clipPath>
			<path style="clip-path:url(#SVGID_00000183955936740635793880000003539516111095157637_);fill:#fff;" d="M67,292.7
				c-3.1,11.8-4.6,23.9-4.6,36.2c0,45.6,21.7,88.2,59.4,124.3c27.6,26.9,51.7,37.1,57.4,39.3v-68.7C120.6,389,80.1,343.5,67,292.7"
				/>
		</g>
		<g>
			<defs>
				<path id="SVGID_00000129926226707505927400000011573989259188757414_" d="M67,292.7c-3.1,11.8-4.6,23.9-4.6,36.2
					c0,45.6,21.7,88.2,59.4,124.3c27.6,26.9,51.7,37.1,57.4,39.3v-68.7C120.6,389,80.1,343.5,67,292.7"/>
			</defs>
			<clipPath id="SVGID_00000023244254715148314280000005854149019620063376_">
				<use xlink:href="#SVGID_00000129926226707505927400000011573989259188757414_"  style="overflow:visible;"/>
			</clipPath>
			<g style="clip-path:url(#SVGID_00000023244254715148314280000005854149019620063376_);">
				<g>
					<g>
						<defs>
							<rect id="SVGID_00000052787451638296916980000017648967238388653441_" x="62.9" y="293.3" width="116.8" height="199.8"/>
						</defs>
						<clipPath id="SVGID_00000118355247528799362100000000730195945358765724_">
							<use xlink:href="#SVGID_00000052787451638296916980000017648967238388653441_"  style="overflow:visible;"/>
						</clipPath>
						<g style="clip-path:url(#SVGID_00000118355247528799362100000000730195945358765724_);">
							<g>
								<defs>
									<rect id="SVGID_00000145052801949211175720000004542329175028205755_" x="62.9" y="293.3" width="116.8" height="199.8"/>
								</defs>
								<clipPath id="SVGID_00000125598416463360315700000012630308828999916173_">
									<use xlink:href="#SVGID_00000145052801949211175720000004542329175028205755_"  style="overflow:visible;"/>
								</clipPath>
								<g style="clip-path:url(#SVGID_00000125598416463360315700000012630308828999916173_);">
								</g>
							</g>
						</g>
					</g>
				</g>
			</g>
		</g>
	</g>
	<path class="st9" d="M334.8,111.2c-32.8-0.1-73.2,9.6-103.8,23.7l-0.1-0.1c-102,43.2-168.6,114-168.6,194.1
		c0,12.4,1.6,24.5,4.6,36.4c20.5-79.2,106.5-145.4,224-178.7c29.5-7.6,57.6-19.7,74.6-33.4C394,130.2,380.2,111.4,334.8,111.2"/>
	<path class="st10" d="M269.4,295.1l-14.5,33.1H284L269.4,295.1 M259,269.5h20.5l41.6,96.2H300l-8.4-19.8h-44.1l-8.7,19.8h-21.2
		L259,269.5z"/>
	<polyline class="st10" points="329.3,269.5 349.6,269.5 349.6,302.6 378.6,269.5 403.4,269.5 365.8,312.4 407.1,365.7 383.3,365.7 
		349.6,322.1 349.6,365.7 329.3,365.7 329.3,269.5 	"/>
	<path class="st10" d="M433.9,307h6.5c5.1,0,8.7-0.3,10.6-1c2-0.7,3.6-1.8,4.7-3.3s1.7-3.3,1.7-5.5c0-3.7-1.6-6.4-4.8-8.2
		c-2.3-1.2-6.6-1.9-13-1.9h-5.7L433.9,307 M413.5,269.5h21.6c11.7,0,20.1,1,25.3,2.9c5.2,1.9,9.2,5.1,12.2,9.4s4.5,9.5,4.5,15.5
		c0,6.7-2,12.2-5.9,16.7c-3.9,4.4-9.2,7.5-15.9,9.2c-4,1-11.1,1.5-21.5,1.5v41h-20.3L413.5,269.5L413.5,269.5z"/>
	<polyline class="st10" points="490,269.5 510.3,269.5 510.3,302.6 539.3,269.5 564.1,269.5 526.5,312.4 567.7,365.7 544,365.7 
		510.3,322.1 510.3,365.7 490,365.7 490,269.5 	"/>
	<rect x="217.1" y="392" class="st9" width="841.7" height="3.5"/>
	<path class="st10" d="M232.4,420.4l-5.4,11.3h10.7L232.4,420.4 M232.8,413.7l14.6,31.4H244l-4.9-10.3h-13.6l-4.8,10.3h-3.5
		l14.8-31.4H232.8z"/>
	<path class="st10" d="M262.1,424.2c-1.7,0-3.2,0.4-4.7,1.2c-1.4,0.8-2.6,1.9-3.4,3.4c-0.8,1.4-1.2,3-1.2,4.7c0,2.5,0.9,4.6,2.5,6.3
		c1.7,1.7,3.9,2.5,6.6,2.5c2.7,0,4.9-0.8,6.6-2.5c1.7-1.6,2.5-3.8,2.5-6.5c0-1.8-0.4-3.3-1.1-4.7c-0.8-1.4-1.8-2.5-3.3-3.2
		C265.2,424.6,263.7,424.2,262.1,424.2 M270.8,421.9h3v18.5c0,3.2-0.3,5.6-0.9,7.1c-0.8,2.1-2.1,3.8-4.1,4.9
		c-1.9,1.2-4.2,1.7-6.9,1.7c-2,0-3.8-0.3-5.3-0.8c-1.6-0.6-2.9-1.3-3.8-2.2c-1-1-1.9-2.3-2.8-4.1h3.2c0.9,1.5,2,2.7,3.4,3.4
		c1.4,0.8,3.1,1.1,5.2,1.1c2,0,3.7-0.4,5.1-1.1c1.4-0.8,2.4-1.7,3-2.9c0.6-1.1,0.9-3,0.9-5.5v-1.2c-1.1,1.4-2.5,2.5-4.1,3.3
		s-3.3,1.1-5.1,1.1c-2.1,0-4.1-0.5-6-1.6s-3.3-2.5-4.3-4.3s-1.5-3.8-1.5-5.9s0.5-4.1,1.6-6s2.5-3.3,4.4-4.4s3.8-1.6,5.9-1.6
		c1.7,0,3.3,0.4,4.8,1.1s2.9,1.9,4.3,3.5V421.9z"/>
	<path class="st10" d="M298.9,431.2c-0.4-1.6-1-2.9-1.7-3.8c-0.8-1-1.8-1.7-3-2.3c-1.3-0.6-2.6-0.9-4-0.9c-2.3,0-4.3,0.7-5.9,2.2
		c-1.2,1.1-2.1,2.7-2.7,4.8L298.9,431.2 M298.9,437.4l2.5,1.3c-0.8,1.6-1.8,2.9-2.9,3.9s-2.3,1.7-3.6,2.2c-1.4,0.5-2.9,0.8-4.6,0.8
		c-3.8,0-6.8-1.2-8.9-3.7s-3.2-5.3-3.2-8.4c0-2.9,0.9-5.6,2.7-7.9c2.3-2.9,5.4-4.4,9.2-4.4c4,0,7.1,1.5,9.5,4.5
		c1.7,2.1,2.5,4.8,2.6,7.9h-20.9c0.1,2.7,0.9,4.9,2.6,6.6s3.7,2.6,6.2,2.6c1.2,0,2.3-0.2,3.4-0.6s2.1-1,2.9-1.6
		C297.2,440,298,438.9,298.9,437.4z"/>
	<path class="st10" d="M306.8,421.9h3v4.1c1.2-1.6,2.5-2.8,3.9-3.6c1.4-0.8,3-1.2,4.7-1.2s3.3,0.4,4.6,1.3c1.3,0.9,2.3,2.1,3,3.6
		c0.6,1.5,1,3.8,1,7V445h-3v-11.1c0-2.7-0.1-4.5-0.3-5.3c-0.3-1.6-1-2.7-2-3.5s-2.3-1.2-3.8-1.2c-1.8,0-3.4,0.6-4.8,1.8
		c-1.4,1.2-2.4,2.7-2.8,4.4c-0.3,1.1-0.4,3.3-0.4,6.3v8.5h-3v-23"/>
	<path class="st10" d="M344.2,424.4l-1.9,2c-1.6-1.5-3.2-2.3-4.7-2.3c-1,0-1.8,0.3-2.5,1c-0.7,0.6-1,1.4-1,2.2
		c0,0.8,0.3,1.5,0.9,2.2s1.8,1.5,3.6,2.5c2.2,1.2,3.7,2.3,4.5,3.3c0.8,1.1,1.2,2.3,1.2,3.7c0,1.9-0.6,3.5-2,4.8c-1.3,1.3-3,2-5,2
		c-1.3,0-2.6-0.3-3.8-0.9c-1.2-0.6-2.2-1.4-3-2.4l1.9-2.1c1.5,1.7,3.1,2.6,4.8,2.6c1.2,0,2.2-0.4,3.1-1.1c0.9-0.8,1.3-1.7,1.3-2.7
		c0-0.9-0.3-1.6-0.9-2.3c-0.5-0.6-1.8-1.5-3.7-2.5c-2.1-1.1-3.5-2.1-4.3-3.2s-1.1-2.2-1.1-3.6c0-1.8,0.6-3.2,1.8-4.4
		c1.2-1.2,2.7-1.7,4.6-1.7C339.9,421.3,342.1,422.3,344.2,424.4"/>
	<path class="st10" d="M348.2,421.9h3v23.2h-3V421.9 M349.6,412.4c0.7,0,1.3,0.2,1.7,0.7c0.5,0.5,0.7,1.1,0.7,1.8
		c0,0.6-0.2,1.2-0.7,1.7s-1.1,0.7-1.7,0.7c-0.7,0-1.2-0.2-1.7-0.7s-0.7-1.1-0.7-1.7c0-0.7,0.2-1.3,0.7-1.8S349,412.4,349.6,412.4z"
		/>
	<polyline class="st10" points="368.2,413.7 371.4,413.7 371.4,425.5 383.9,413.7 388.1,413.7 373,427.8 389.3,445.1 385,445.1 
		371.4,430.5 371.4,445.1 368.2,445.1 368.2,413.7 	"/>
	<path class="st10" d="M403.7,424.2c-1.7,0-3.2,0.4-4.6,1.2c-1.4,0.8-2.5,2-3.3,3.4c-0.8,1.5-1.2,3-1.2,4.7s0.4,3.2,1.3,4.7
		c0.8,1.5,1.9,2.6,3.4,3.5c1.4,0.8,2.9,1.2,4.5,1.2s3.2-0.4,4.6-1.2c1.4-0.8,2.6-1.9,3.4-3.3s1.2-3,1.2-4.7c0-2.7-0.9-4.9-2.6-6.7
		C408.4,425.1,406.3,424.2,403.7,424.2 M415.6,421.9v23.2h-3v-4c-1.2,1.5-2.6,2.7-4.2,3.4c-1.5,0.8-3.2,1.1-5.1,1.1
		c-3.3,0-6.1-1.2-8.4-3.5c-2.3-2.4-3.5-5.3-3.5-8.7c0-3.3,1.2-6.2,3.5-8.5c2.3-2.4,5.1-3.6,8.4-3.6c1.9,0,3.6,0.4,5.1,1.2
		c1.5,0.8,2.9,2,4.1,3.6v-4.2H415.6z"/>
	<path class="st10" d="M421.1,421.9h3v10.8c0,2.6,0.2,4.5,0.4,5.5c0.4,1.4,1.2,2.5,2.4,3.4c1.2,0.8,2.6,1.2,4.3,1.2
		c1.6,0,3.1-0.4,4.2-1.2c1.2-0.8,2-1.9,2.4-3.2c0.3-0.9,0.4-2.8,0.4-5.7v-10.8h3v11.3c0,3.2-0.4,5.6-1.1,7.2
		c-0.8,1.6-1.9,2.9-3.4,3.8s-3.4,1.4-5.6,1.4c-2.3,0-4.1-0.4-5.7-1.4c-1.5-0.9-2.6-2.2-3.4-3.8c-0.7-1.6-1.1-4.1-1.1-7.4v-11.1"/>
	<path class="st10" d="M447.1,421.9h3v4.1c1.2-1.6,2.5-2.8,4-3.6c1.4-0.8,3-1.2,4.7-1.2s3.3,0.4,4.6,1.3c1.3,0.9,2.3,2.1,3,3.6
		c0.6,1.5,0.9,3.8,0.9,7V445h-3v-11.1c0-2.7-0.1-4.5-0.3-5.3c-0.3-1.6-1-2.7-1.9-3.5c-1-0.8-2.3-1.2-3.8-1.2c-1.8,0-3.4,0.6-4.8,1.8
		c-1.4,1.2-2.4,2.7-2.8,4.4c-0.3,1.1-0.4,3.3-0.4,6.3v8.5h-3v-23"/>
	<path class="st10" d="M484.5,424.4l-1.9,2c-1.6-1.5-3.1-2.3-4.7-2.3c-1,0-1.8,0.3-2.5,1c-0.7,0.6-1,1.4-1,2.2
		c0,0.8,0.3,1.5,0.8,2.2c0.6,0.7,1.8,1.5,3.6,2.5c2.2,1.2,3.7,2.3,4.5,3.3c0.8,1.1,1.2,2.3,1.2,3.7c0,1.9-0.7,3.5-2,4.8s-3,2-5,2
		c-1.3,0-2.6-0.3-3.8-0.9c-1.2-0.6-2.2-1.4-3-2.4l1.9-2.1c1.5,1.7,3.1,2.6,4.8,2.6c1.2,0,2.2-0.4,3-1.1c0.9-0.8,1.3-1.7,1.3-2.7
		c0-0.9-0.3-1.6-0.9-2.3c-0.5-0.6-1.8-1.5-3.7-2.5c-2.1-1.1-3.5-2.1-4.3-3.2s-1.1-2.2-1.1-3.6c0-1.8,0.6-3.2,1.8-4.4
		c1.2-1.2,2.7-1.7,4.6-1.7C480.2,421.3,482.4,422.3,484.5,424.4"/>
	<path class="st10" d="M508.5,431.2c-0.4-1.6-1-2.9-1.7-3.8c-0.8-1-1.8-1.7-3-2.3c-1.3-0.6-2.6-0.9-4-0.9c-2.3,0-4.3,0.7-5.9,2.2
		c-1.2,1.1-2.1,2.7-2.7,4.8L508.5,431.2 M508.5,437.4l2.5,1.3c-0.8,1.6-1.8,2.9-2.9,3.9s-2.3,1.7-3.6,2.2c-1.4,0.5-2.9,0.8-4.6,0.8
		c-3.8,0-6.7-1.2-8.9-3.7c-2.1-2.5-3.2-5.3-3.2-8.4c0-2.9,0.9-5.6,2.7-7.9c2.3-2.9,5.3-4.4,9.2-4.4c4,0,7.1,1.5,9.5,4.5
		c1.7,2.1,2.5,4.8,2.6,7.9h-20.9c0.1,2.7,0.9,4.9,2.6,6.6s3.7,2.6,6.2,2.6c1.2,0,2.3-0.2,3.5-0.6c1.1-0.4,2.1-1,2.9-1.6
		C506.7,440,507.5,438.9,508.5,437.4z"/>
	<rect x="515.9" y="413" class="st10" width="3" height="32.1"/>
	<path class="st10" d="M523.8,421.9h3v23.2h-3V421.9 M525.2,412.4c0.7,0,1.3,0.2,1.8,0.7s0.7,1.1,0.7,1.8c0,0.6-0.2,1.2-0.7,1.7
		s-1.1,0.7-1.8,0.7s-1.2-0.2-1.7-0.7s-0.7-1.1-0.7-1.7c0-0.7,0.2-1.3,0.7-1.8S524.6,412.4,525.2,412.4z"/>
	<path class="st10" d="M532.1,421.9h3v4.1c1.2-1.6,2.5-2.8,3.9-3.6c1.4-0.8,3-1.2,4.7-1.2s3.3,0.4,4.6,1.3s2.3,2.1,3,3.6
		c0.6,1.5,1,3.8,1,7V445h-3v-11.1c0-2.7-0.1-4.5-0.3-5.3c-0.3-1.6-1-2.7-1.9-3.5c-1-0.8-2.2-1.2-3.8-1.2c-1.8,0-3.4,0.6-4.8,1.8
		c-1.4,1.2-2.4,2.7-2.8,4.4c-0.3,1.1-0.4,3.3-0.4,6.3v8.5h-3v-23"/>
	<path class="st10" d="M569,424.2c-1.7,0-3.2,0.4-4.7,1.2c-1.4,0.8-2.6,1.9-3.4,3.4c-0.8,1.4-1.2,3-1.2,4.7c0,2.5,0.9,4.6,2.6,6.3
		c1.7,1.7,3.9,2.5,6.6,2.5c2.7,0,4.9-0.8,6.6-2.5c1.7-1.6,2.5-3.8,2.5-6.5c0-1.8-0.4-3.3-1.2-4.7c-0.8-1.4-1.8-2.5-3.2-3.2
		C572.1,424.6,570.6,424.2,569,424.2 M577.7,421.9h3v18.5c0,3.2-0.3,5.6-0.8,7.1c-0.8,2.1-2.2,3.8-4.1,4.9c-1.9,1.2-4.2,1.7-6.9,1.7
		c-2,0-3.8-0.3-5.3-0.8c-1.6-0.6-2.9-1.3-3.8-2.2c-1-1-1.9-2.3-2.7-4.1h3.2c0.9,1.5,2,2.7,3.4,3.4c1.4,0.8,3.1,1.1,5.1,1.1
		s3.7-0.4,5.1-1.1c1.4-0.8,2.4-1.7,3-2.9c0.6-1.1,0.9-3,0.9-5.5v-1.2c-1.1,1.4-2.5,2.5-4.1,3.3s-3.3,1.1-5.1,1.1
		c-2.1,0-4.1-0.5-6-1.6s-3.3-2.5-4.3-4.3s-1.5-3.8-1.5-5.9s0.6-4.1,1.6-6c1.1-1.9,2.5-3.3,4.4-4.4s3.8-1.6,5.9-1.6
		c1.7,0,3.3,0.4,4.8,1.1s2.9,1.9,4.3,3.5v-4.1H577.7z"/>
	<path class="st10" d="M601,442.1h3.6c4.3,0,7.3-0.3,9-0.8c2.4-0.8,4.2-2.2,5.5-4.2c1.4-2,2-4.4,2-7.3c0-3-0.7-5.6-2.2-7.7
		s-3.5-3.6-6.1-4.4c-1.9-0.6-5.2-0.9-9.7-0.9H601V442.1 M598,445.1v-31.4h6.5c4.7,0,8.1,0.4,10.2,1.2c3,1.1,5.4,2.9,7.1,5.5
		c1.7,2.6,2.6,5.8,2.6,9.4c0,3.1-0.7,5.9-2,8.3s-3.1,4.1-5.3,5.3c-2.2,1.2-5.2,1.7-9.1,1.7H598z"/>
	<path class="st10" d="M640.2,424.2c-1.6,0-3.2,0.4-4.6,1.2c-1.4,0.8-2.5,2-3.3,3.4c-0.8,1.5-1.2,3-1.2,4.7s0.4,3.2,1.2,4.7
		s2,2.6,3.4,3.5c1.4,0.8,2.9,1.2,4.5,1.2s3.2-0.4,4.6-1.2c1.5-0.8,2.6-1.9,3.4-3.3c0.8-1.4,1.2-3,1.2-4.7c0-2.7-0.9-4.9-2.6-6.7
		C644.9,425.1,642.7,424.2,640.2,424.2 M652.1,421.9v23.2h-3v-4c-1.2,1.5-2.6,2.7-4.2,3.4c-1.5,0.8-3.2,1.1-5.1,1.1
		c-3.3,0-6.1-1.2-8.4-3.5c-2.3-2.4-3.5-5.3-3.5-8.7c0-3.3,1.2-6.2,3.5-8.5c2.3-2.4,5.2-3.6,8.4-3.6c1.9,0,3.6,0.4,5.1,1.2
		c1.5,0.8,2.9,2,4,3.6v-4.2H652.1z"/>
	<path class="st10" d="M658,421.9h3v4.1c1.2-1.6,2.5-2.8,3.9-3.6c1.5-0.8,3-1.2,4.7-1.2s3.3,0.4,4.6,1.3c1.4,0.9,2.3,2.1,3,3.6
		c0.6,1.5,1,3.8,1,7V445h-3v-11.1c0-2.7-0.1-4.5-0.3-5.3c-0.3-1.6-1-2.7-2-3.5s-2.2-1.2-3.8-1.2c-1.8,0-3.4,0.6-4.9,1.8
		c-1.4,1.2-2.4,2.7-2.8,4.4c-0.3,1.1-0.4,3.3-0.4,6.3v8.5h-3V421.9"/>
	<path class="st10" d="M698.5,416.8v10.6l5.3,0.1c2.2,0,3.7-0.2,4.7-0.6s1.8-1,2.3-1.9c0.6-0.9,0.9-1.9,0.9-2.9c0-1.1-0.3-2-0.9-2.9
		c-0.5-0.9-1.3-1.5-2.2-1.9s-2.5-0.6-4.6-0.6L698.5,416.8 M695.3,413.7h6.2c3.6,0,6,0.2,7.3,0.5c1.8,0.4,3.2,1.4,4.4,2.7
		c1.1,1.4,1.7,3.1,1.7,5.2s-0.6,3.8-1.7,5.2c-1.1,1.4-2.6,2.3-4.6,2.7c-1.4,0.3-4.1,0.5-8,0.5h-2.2V445h-3.1L695.3,413.7
		L695.3,413.7z"/>
	<path class="st10" d="M739.4,431.2c-0.4-1.6-1-2.9-1.7-3.8c-0.8-1-1.8-1.7-3-2.3c-1.3-0.6-2.6-0.9-4-0.9c-2.3,0-4.3,0.7-5.9,2.2
		c-1.2,1.1-2.1,2.7-2.7,4.8L739.4,431.2 M739.4,437.4l2.5,1.3c-0.8,1.6-1.8,2.9-2.9,3.9c-1.1,1-2.3,1.7-3.7,2.2s-2.9,0.8-4.6,0.8
		c-3.8,0-6.8-1.2-8.9-3.7c-2.1-2.5-3.2-5.3-3.2-8.4c0-2.9,0.9-5.6,2.7-7.9c2.3-2.9,5.4-4.4,9.2-4.4c4,0,7.2,1.5,9.5,4.5
		c1.7,2.1,2.5,4.8,2.6,7.9h-20.9c0.1,2.7,0.9,4.9,2.6,6.6c1.7,1.7,3.7,2.6,6.2,2.6c1.2,0,2.3-0.2,3.4-0.6c1.1-0.4,2.1-1,2.9-1.6
		C737.6,440,738.5,438.9,739.4,437.4z"/>
	<path class="st10" d="M747.3,421.9h3v4.1c1.2-1.6,2.5-2.8,3.9-3.6c1.5-0.8,3-1.2,4.7-1.2s3.3,0.4,4.6,1.3s2.3,2.1,3,3.6
		c0.6,1.5,1,3.8,1,7V445h-3v-11.1c0-2.7-0.1-4.5-0.3-5.3c-0.3-1.6-1-2.7-1.9-3.5c-1-0.8-2.3-1.2-3.9-1.2c-1.8,0-3.4,0.6-4.8,1.8
		c-1.4,1.2-2.4,2.7-2.8,4.4c-0.3,1.1-0.4,3.3-0.4,6.3v8.5h-3L747.3,421.9"/>
	<path class="st10" d="M784.2,424.2c-1.7,0-3.2,0.4-4.7,1.2c-1.4,0.8-2.6,1.9-3.4,3.4c-0.8,1.4-1.2,3-1.2,4.7c0,2.5,0.8,4.6,2.5,6.3
		c1.7,1.7,3.9,2.5,6.6,2.5c2.7,0,4.9-0.8,6.6-2.5c1.7-1.6,2.5-3.8,2.5-6.5c0-1.8-0.4-3.3-1.2-4.7c-0.7-1.4-1.8-2.5-3.2-3.2
		C787.3,424.6,785.8,424.2,784.2,424.2 M792.9,421.9h3v18.5c0,3.2-0.3,5.6-0.9,7.1c-0.8,2.1-2.1,3.8-4.1,4.9
		c-1.9,1.2-4.2,1.7-6.9,1.7c-2,0-3.8-0.3-5.3-0.8c-1.6-0.6-2.9-1.3-3.9-2.2c-1-1-1.9-2.3-2.7-4.1h3.2c0.9,1.5,2,2.7,3.4,3.4
		c1.4,0.8,3.1,1.1,5.1,1.1s3.7-0.4,5.1-1.1c1.4-0.8,2.4-1.7,3-2.9c0.6-1.1,0.9-3,0.9-5.5v-1.2c-1.1,1.4-2.5,2.5-4.1,3.3
		s-3.3,1.1-5.1,1.1c-2.1,0-4.1-0.5-6-1.6s-3.3-2.5-4.3-4.3s-1.5-3.8-1.5-5.9s0.5-4.1,1.6-6s2.5-3.3,4.4-4.4s3.9-1.6,5.9-1.6
		c1.7,0,3.3,0.4,4.8,1.1s2.9,1.9,4.3,3.5L792.9,421.9L792.9,421.9z"/>
	<path class="st10" d="M801.1,421.9h3v10.8c0,2.6,0.1,4.5,0.4,5.5c0.4,1.4,1.2,2.5,2.4,3.4c1.2,0.8,2.6,1.2,4.3,1.2s3.1-0.4,4.2-1.2
		c1.2-0.8,2-1.9,2.4-3.2c0.3-0.9,0.4-2.8,0.4-5.7v-10.8h3.1v11.3c0,3.2-0.4,5.6-1.1,7.2c-0.8,1.6-1.9,2.9-3.4,3.8s-3.4,1.4-5.6,1.4
		c-2.2,0-4.1-0.4-5.6-1.4c-1.5-0.9-2.6-2.2-3.4-3.8c-0.7-1.6-1.1-4.1-1.1-7.4L801.1,421.9"/>
	<path class="st10" d="M826,421.9h3v3.4c0.9-1.3,1.9-2.3,2.9-3c1-0.6,2.1-1,3.2-1c0.8,0,1.7,0.3,2.6,0.8l-1.5,2.5
		c-0.6-0.3-1.2-0.4-1.6-0.4c-1,0-1.9,0.4-2.9,1.2c-0.9,0.8-1.6,2.1-2.1,3.8c-0.3,1.3-0.6,4-0.6,8v7.8h-3L826,421.9"/>
	<path class="st10" d="M839,421.9h3v10.8c0,2.6,0.1,4.5,0.4,5.5c0.4,1.4,1.2,2.5,2.5,3.4c1.2,0.8,2.6,1.2,4.3,1.2s3.1-0.4,4.2-1.2
		c1.2-0.8,2-1.9,2.4-3.2c0.3-0.9,0.5-2.8,0.5-5.7v-10.8h3v11.3c0,3.2-0.4,5.6-1.1,7.2c-0.8,1.6-1.9,2.9-3.4,3.8s-3.4,1.4-5.6,1.4
		c-2.3,0-4.1-0.4-5.6-1.4c-1.5-0.9-2.6-2.2-3.4-3.8c-0.8-1.6-1.1-4.1-1.1-7.4v-11.1"/>
	<path class="st10" d="M876.7,424.4l-1.9,2c-1.6-1.5-3.2-2.3-4.7-2.3c-1,0-1.8,0.3-2.5,1c-0.7,0.6-1,1.4-1,2.2
		c0,0.8,0.3,1.5,0.8,2.2c0.6,0.7,1.8,1.5,3.6,2.5c2.2,1.2,3.7,2.3,4.5,3.3c0.8,1.1,1.2,2.3,1.2,3.7c0,1.9-0.7,3.5-2,4.8s-3,2-5,2
		c-1.3,0-2.6-0.3-3.8-0.9s-2.2-1.4-3-2.4l1.9-2.1c1.5,1.7,3.1,2.6,4.8,2.6c1.2,0,2.2-0.4,3.1-1.1c0.9-0.8,1.3-1.7,1.3-2.7
		c0-0.9-0.3-1.6-0.9-2.3c-0.5-0.6-1.8-1.5-3.7-2.5c-2.1-1.1-3.5-2.1-4.2-3.2c-0.8-1.1-1.2-2.2-1.2-3.6c0-1.8,0.6-3.2,1.8-4.4
		c1.2-1.2,2.7-1.7,4.5-1.7C872.3,421.3,874.5,422.3,876.7,424.4"/>
	<path class="st10" d="M892.2,424.2c-1.6,0-3.2,0.4-4.6,1.2c-1.4,0.8-2.5,2-3.3,3.4c-0.8,1.5-1.2,3-1.2,4.7s0.4,3.2,1.2,4.7
		c0.9,1.5,2,2.6,3.4,3.5c1.4,0.8,2.9,1.2,4.5,1.2s3.1-0.4,4.6-1.2c1.5-0.8,2.6-1.9,3.4-3.3c0.8-1.4,1.2-3,1.2-4.7
		c0-2.7-0.9-4.9-2.6-6.7C896.9,425.1,894.8,424.2,892.2,424.2 M904.1,421.9v23.2h-3v-4c-1.3,1.5-2.6,2.7-4.2,3.4
		c-1.5,0.8-3.2,1.1-5.1,1.1c-3.3,0-6-1.2-8.4-3.5c-2.3-2.4-3.5-5.3-3.5-8.7c0-3.3,1.2-6.2,3.5-8.5c2.3-2.4,5.1-3.6,8.4-3.6
		c1.9,0,3.6,0.4,5.1,1.2c1.5,0.8,2.9,2,4.1,3.6v-4.2H904.1z"/>
	<path class="st10" d="M910,421.9h3v4.1c1.2-1.6,2.5-2.8,3.9-3.6c1.4-0.8,3-1.2,4.7-1.2s3.2,0.4,4.6,1.3c1.3,0.9,2.3,2.1,3,3.6
		c0.6,1.5,0.9,3.8,0.9,7V445h-3v-11.1c0-2.7-0.1-4.5-0.3-5.3c-0.3-1.6-1-2.7-1.9-3.5c-1-0.8-2.2-1.2-3.8-1.2c-1.8,0-3.4,0.6-4.8,1.8
		c-1.4,1.2-2.3,2.7-2.8,4.4c-0.3,1.1-0.4,3.3-0.4,6.3v8.5h-3v-23"/>
	<polyline class="st10" points="947.4,413.7 950.6,413.7 950.6,425.5 963.2,413.7 967.3,413.7 952.2,427.8 968.5,445.1 964.3,445.1 
		950.6,430.5 950.6,445.1 947.4,445.1 947.4,413.7 	"/>
	<path class="st10" d="M970.7,421.9h3v3.4c0.9-1.3,1.9-2.3,2.9-3c1-0.6,2.1-1,3.1-1c0.8,0,1.7,0.3,2.6,0.8l-1.6,2.5
		c-0.6-0.3-1.1-0.4-1.6-0.4c-1,0-1.9,0.4-2.9,1.2c-1,0.8-1.6,2.1-2.1,3.8c-0.4,1.3-0.5,4-0.5,8v7.8h-3L970.7,421.9"/>
	<path class="st10" d="M1003.6,431.2c-0.4-1.6-1-2.9-1.7-3.8c-0.8-1-1.8-1.7-3-2.3c-1.2-0.6-2.6-0.9-4-0.9c-2.3,0-4.3,0.7-5.9,2.2
		c-1.2,1.1-2.1,2.7-2.7,4.8L1003.6,431.2 M1003.6,437.4l2.5,1.3c-0.8,1.6-1.8,2.9-2.9,3.9c-1.1,1-2.3,1.7-3.6,2.2
		c-1.4,0.5-2.9,0.8-4.6,0.8c-3.8,0-6.8-1.2-8.9-3.7c-2.2-2.5-3.2-5.3-3.2-8.4c0-2.9,0.9-5.6,2.7-7.9c2.3-2.9,5.4-4.4,9.2-4.4
		c4,0,7.1,1.5,9.5,4.5c1.7,2.1,2.5,4.8,2.6,7.9H986c0,2.7,0.9,4.9,2.6,6.6c1.7,1.7,3.7,2.6,6.2,2.6c1.2,0,2.4-0.2,3.5-0.6
		s2.1-1,2.9-1.6C1001.8,440,1002.7,438.9,1003.6,437.4z"/>
	<path class="st10" d="M1022.7,424.2c-1.7,0-3.2,0.4-4.6,1.2c-1.4,0.8-2.5,2-3.4,3.4c-0.8,1.5-1.2,3-1.2,4.7s0.4,3.2,1.2,4.7
		s2,2.6,3.4,3.5c1.4,0.8,2.9,1.2,4.5,1.2c1.6,0,3.2-0.4,4.6-1.2c1.5-0.8,2.6-1.9,3.4-3.3s1.2-3,1.2-4.7c0-2.7-0.9-4.9-2.6-6.7
		C1027.4,425.1,1025.3,424.2,1022.7,424.2 M1034.7,413v32.1h-3v-4c-1.2,1.5-2.7,2.7-4.2,3.4c-1.5,0.8-3.2,1.1-5.1,1.1
		c-3.3,0-6.1-1.2-8.4-3.5c-2.3-2.4-3.5-5.3-3.5-8.7c0-3.3,1.2-6.2,3.5-8.5c2.3-2.4,5.2-3.6,8.4-3.6c1.9,0,3.6,0.4,5.2,1.2
		c1.5,0.8,2.9,2,4.1,3.6v-13.2h3V413z"/>
	<path class="st10" d="M1040,421.9h3v23.2h-3V421.9 M1041.5,412.4c0.7,0,1.2,0.2,1.7,0.7s0.7,1.1,0.7,1.8c0,0.6-0.2,1.2-0.7,1.7
		s-1.1,0.7-1.7,0.7c-0.7,0-1.2-0.2-1.7-0.7s-0.7-1.1-0.7-1.7c0-0.7,0.2-1.3,0.7-1.8S1040.9,412.4,1041.5,412.4z"/>
	<polyline class="st10" points="1051,413.3 1054,413.3 1054,421.9 1058.7,421.9 1058.7,424.5 1054,424.5 1054,445.1 1051,445.1 
		1051,424.5 1046.9,424.5 1046.9,421.9 1051,421.9 1051,413.3 	"/>
	<path class="st9" d="M242.5,471.1l-2,1.5c-1.1-1.4-2.4-2.5-3.9-3.2s-3.2-1.1-5-1.1c-2,0-3.8,0.5-5.6,1.5c-1.7,1-3,2.2-4,3.9
		c-0.9,1.6-1.4,3.4-1.4,5.5c0,3.1,1,5.6,3.1,7.7s4.7,3.1,7.9,3.1c3.5,0,6.4-1.4,8.8-4.2l2,1.5c-1.3,1.6-2.8,2.8-4.7,3.7
		c-1.9,0.9-3.9,1.3-6.2,1.3c-4.4,0-7.8-1.4-10.4-4.4c-2.1-2.5-3.2-5.4-3.2-8.9c0-3.7,1.3-6.7,3.8-9.3c2.6-2.5,5.8-3.7,9.7-3.7
		c2.3,0,4.4,0.5,6.3,1.4C239.8,468.2,241.3,469.5,242.5,471.1"/>
	<path class="st9" d="M245.6,473.1h2.4v2.7c0.7-1.1,1.5-1.8,2.3-2.4c0.8-0.5,1.6-0.8,2.5-0.8c0.7,0,1.4,0.2,2.1,0.6l-1.3,2
		c-0.5-0.2-0.9-0.3-1.3-0.3c-0.8,0-1.6,0.3-2.3,1c-0.7,0.6-1.3,1.6-1.7,3c-0.3,1.1-0.5,3.2-0.5,6.4v6.3h-2.4v-18.5"/>
	<path class="st9" d="M271.9,480.5c-0.3-1.3-0.8-2.3-1.4-3.1c-0.6-0.7-1.4-1.4-2.4-1.8c-1-0.5-2.1-0.7-3.2-0.7
		c-1.8,0-3.4,0.6-4.7,1.8c-1,0.9-1.7,2.1-2.2,3.8L271.9,480.5 M271.9,485.5l2,1.1c-0.7,1.3-1.4,2.3-2.3,3.1
		c-0.9,0.8-1.8,1.4-2.9,1.8s-2.3,0.6-3.7,0.6c-3,0-5.4-1-7.1-3s-2.5-4.2-2.5-6.7c0-2.3,0.7-4.4,2.2-6.3c1.8-2.3,4.3-3.5,7.4-3.5
		s5.7,1.2,7.6,3.6c1.3,1.7,2,3.8,2,6.3h-16.7c0,2.2,0.7,3.9,2,5.3s3,2.1,4.9,2.1c0.9,0,1.9-0.2,2.8-0.5s1.6-0.8,2.3-1.3
		C270.5,487.5,271.2,486.7,271.9,485.5z"/>
	<path class="st9" d="M287.2,474.9c-1.3,0-2.5,0.3-3.6,1s-2,1.6-2.7,2.7c-0.7,1.2-1,2.4-1,3.7c0,1.3,0.3,2.5,1,3.7s1.6,2.1,2.7,2.8
		c1.1,0.6,2.3,1,3.6,1c1.3,0,2.5-0.3,3.7-1s2.1-1.5,2.7-2.7c0.6-1.1,0.9-2.4,0.9-3.8c0-2.1-0.7-3.9-2.1-5.3
		C291,475.6,289.3,474.9,287.2,474.9 M296.8,465.9v25.7h-2.4v-3.2c-1,1.2-2.1,2.1-3.3,2.7c-1.3,0.6-2.6,0.9-4.1,0.9
		c-2.6,0-4.8-1-6.7-2.9c-1.9-1.9-2.8-4.2-2.8-6.9c0-2.7,0.9-4.9,2.8-6.8s4.1-2.8,6.7-2.8c1.5,0,2.9,0.3,4.1,1
		c1.2,0.6,2.3,1.6,3.2,2.9v-10.6L296.8,465.9L296.8,465.9z"/>
	<path class="st9" d="M301.2,473.1h2.4v18.5h-2.4V473.1 M302.3,465.4c0.5,0,1,0.2,1.4,0.6s0.6,0.9,0.6,1.4s-0.2,1-0.6,1.4
		s-0.9,0.6-1.4,0.6s-1-0.2-1.4-0.6s-0.6-0.8-0.6-1.4c0-0.5,0.2-1,0.6-1.4S301.8,465.4,302.3,465.4z"/>
	<polyline class="st9" points="309.9,466.2 312.3,466.2 312.3,473.1 316.1,473.1 316.1,475.1 312.3,475.1 312.3,491.6 309.9,491.6 
		309.9,475.1 306.7,475.1 306.7,473.1 309.9,473.1 309.9,466.2 	"/>
	<path class="st9" d="M351.5,471.1l-2,1.5c-1.1-1.4-2.4-2.5-3.9-3.2s-3.2-1.1-5-1.1c-2,0-3.8,0.5-5.5,1.5s-3,2.2-4,3.9
		c-0.9,1.6-1.4,3.4-1.4,5.5c0,3.1,1,5.6,3.1,7.7s4.7,3.1,7.9,3.1c3.5,0,6.5-1.4,8.8-4.2l2,1.5c-1.2,1.6-2.8,2.8-4.6,3.7
		c-1.9,0.9-3.9,1.3-6.2,1.3c-4.4,0-7.8-1.4-10.3-4.4c-2.1-2.5-3.2-5.4-3.2-8.9c0-3.7,1.3-6.7,3.8-9.3c2.6-2.5,5.8-3.7,9.6-3.7
		c2.3,0,4.4,0.5,6.3,1.4C348.8,468.2,350.3,469.5,351.5,471.1"/>
	<path class="st9" d="M364.3,474.9c-2,0-3.7,0.7-5.1,2.2s-2.1,3.2-2.1,5.3c0,1.4,0.3,2.6,1,3.7c0.6,1.1,1.5,2,2.6,2.7
		c1.1,0.6,2.3,1,3.6,1c1.3,0,2.5-0.3,3.6-1c1.1-0.6,2-1.5,2.6-2.7c0.6-1.1,1-2.4,1-3.7c0-2.1-0.7-3.8-2.1-5.3
		S366.3,474.9,364.3,474.9 M364.3,472.6c2.8,0,5.2,1,7.1,3.1c1.7,1.9,2.6,4.1,2.6,6.7s-0.9,4.8-2.7,6.8c-1.8,1.9-4.1,2.9-6.9,2.9
		c-2.9,0-5.2-1-7-2.9s-2.7-4.2-2.7-6.8c0-2.6,0.9-4.8,2.6-6.7C359.1,473.6,361.4,472.6,364.3,472.6z"/>
	<path class="st9" d="M377.3,473.1h2.4v8.6c0,2.1,0.1,3.6,0.3,4.4c0.3,1.1,1,2,1.9,2.7c1,0.7,2.1,1,3.5,1c1.3,0,2.5-0.3,3.4-1
		c0.9-0.6,1.6-1.5,1.9-2.6c0.3-0.7,0.4-2.2,0.4-4.5v-8.6h2.4v9.1c0,2.5-0.3,4.5-0.9,5.8s-1.5,2.3-2.7,3s-2.7,1.1-4.5,1.1
		s-3.3-0.4-4.5-1.1s-2.1-1.8-2.7-3.1c-0.6-1.3-0.9-3.3-0.9-5.9L377.3,473.1"/>
	<path class="st9" d="M398.2,473.1h2.4v3.3c1-1.3,2-2.2,3.1-2.9c1.1-0.6,2.4-0.9,3.8-0.9s2.6,0.3,3.7,1s1.9,1.7,2.4,2.8
		c0.5,1.2,0.8,3.1,0.8,5.6v9.5H412v-8.8c0-2.1-0.1-3.6-0.3-4.3c-0.2-1.2-0.8-2.2-1.5-2.8c-0.8-0.6-1.8-0.9-3-0.9
		c-1.4,0-2.7,0.5-3.9,1.4c-1.1,1-1.9,2.1-2.3,3.6c-0.2,0.9-0.3,2.6-0.3,5v6.8h-2.4v-18.4"/>
	<path class="st9" d="M428.1,475.1l-1.5,1.6c-1.3-1.2-2.5-1.9-3.8-1.9c-0.8,0-1.4,0.3-2,0.8s-0.8,1.1-0.8,1.8c0,0.6,0.2,1.2,0.7,1.7
		c0.5,0.6,1.4,1.2,2.9,2c1.8,0.9,3,1.8,3.6,2.7c0.6,0.9,0.9,1.8,0.9,2.9c0,1.5-0.5,2.8-1.6,3.9s-2.4,1.6-4,1.6
		c-1.1,0-2.1-0.2-3.1-0.7s-1.8-1.1-2.4-1.9l1.5-1.7c1.2,1.4,2.5,2.1,3.9,2.1c1,0,1.8-0.3,2.4-0.9c0.7-0.6,1-1.3,1-2.1
		c0-0.7-0.2-1.3-0.7-1.8c-0.4-0.5-1.4-1.2-3-2c-1.7-0.9-2.8-1.7-3.4-2.6c-0.6-0.8-0.9-1.8-0.9-2.8c0-1.4,0.5-2.6,1.4-3.5
		c1-0.9,2.2-1.4,3.6-1.4C424.6,472.6,426.4,473.4,428.1,475.1"/>
	<path class="st9" d="M447.2,480.5c-0.3-1.3-0.8-2.3-1.4-3.1c-0.6-0.7-1.4-1.4-2.4-1.8c-1-0.5-2.1-0.7-3.2-0.7
		c-1.8,0-3.4,0.6-4.7,1.8c-1,0.9-1.7,2.1-2.2,3.8L447.2,480.5 M447.2,485.5l2,1.1c-0.7,1.3-1.4,2.3-2.3,3.1
		c-0.9,0.8-1.8,1.4-2.9,1.8s-2.3,0.6-3.6,0.6c-3,0-5.4-1-7.1-3s-2.6-4.2-2.6-6.7c0-2.3,0.7-4.4,2.2-6.3c1.8-2.3,4.3-3.5,7.3-3.5
		c3.2,0,5.7,1.2,7.5,3.6c1.4,1.7,2,3.8,2,6.3H433c0.1,2.2,0.8,3.9,2.1,5.3c1.3,1.4,3,2.1,4.9,2.1c0.9,0,1.9-0.2,2.8-0.5
		s1.7-0.8,2.3-1.3C445.8,487.5,446.5,486.7,447.2,485.5z"/>
	<rect x="453.2" y="465.9" class="st9" width="2.4" height="25.7"/>
	<rect x="459.5" y="465.9" class="st9" width="2.4" height="25.7"/>
	<path class="st9" d="M465.8,473.1h2.4v18.5h-2.4V473.1 M467,465.4c0.5,0,1,0.2,1.4,0.6s0.6,0.9,0.6,1.4s-0.2,1-0.6,1.4
		s-0.8,0.6-1.4,0.6c-0.5,0-1-0.2-1.4-0.6s-0.6-0.8-0.6-1.4c0-0.5,0.2-1,0.6-1.4S466.5,465.4,467,465.4z"/>
	<path class="st9" d="M472.5,473.1h2.4v3.3c1-1.3,2-2.2,3.1-2.9c1.2-0.6,2.4-0.9,3.8-0.9s2.6,0.3,3.7,1s1.8,1.7,2.4,2.8
		c0.5,1.2,0.8,3.1,0.8,5.6v9.5h-2.4v-8.8c0-2.1-0.1-3.6-0.3-4.3c-0.3-1.2-0.8-2.2-1.6-2.8c-0.8-0.6-1.8-0.9-3.1-0.9
		c-1.4,0-2.7,0.5-3.9,1.4c-1.1,1-1.9,2.1-2.2,3.6c-0.2,0.9-0.3,2.6-0.3,5v6.8h-2.4V473.1"/>
	<path class="st9" d="M502,474.9c-1.3,0-2.6,0.3-3.7,1c-1.2,0.6-2.1,1.5-2.7,2.7c-0.7,1.2-1,2.4-1,3.8c0,2,0.7,3.7,2,5
		c1.4,1.4,3.1,2,5.3,2c2.2,0,3.9-0.6,5.3-2c1.3-1.3,2-3,2-5.2c0-1.4-0.3-2.7-0.9-3.7c-0.6-1.1-1.5-2-2.6-2.6
		C504.5,475.2,503.2,474.9,502,474.9 M509,473.1h2.4v14.8c0,2.6-0.2,4.5-0.7,5.7c-0.6,1.7-1.7,3-3.3,3.9c-1.5,0.9-3.4,1.4-5.6,1.4
		c-1.6,0-3-0.2-4.3-0.7s-2.3-1.1-3.1-1.8c-0.8-0.8-1.5-1.9-2.2-3.3h2.6c0.7,1.3,1.6,2.2,2.7,2.8c1.1,0.6,2.5,0.9,4.1,0.9
		s3-0.3,4.1-0.9s1.9-1.4,2.4-2.3s0.7-2.4,0.7-4.4v-1c-0.9,1.1-2,2-3.3,2.6s-2.7,0.9-4.1,0.9c-1.7,0-3.3-0.4-4.8-1.3
		c-1.5-0.8-2.7-2-3.5-3.4s-1.2-3-1.2-4.7s0.4-3.3,1.3-4.8c0.8-1.5,2-2.7,3.5-3.5s3.1-1.3,4.8-1.3c1.4,0,2.7,0.3,3.9,0.8
		c1.2,0.6,2.3,1.5,3.4,2.8v-3.2H509z"/>
	<path class="st9" d="M535.1,471.7l-4.3,9.2h8.6L535.1,471.7 M535.4,466.5l11.7,25.1h-2.7l-3.9-8.2h-10.9l-3.9,8.2h-2.8l11.9-25.1
		H535.4z"/>
	<path class="st9" d="M549.9,473.1h2.4v3.3c0.9-1.3,2-2.2,3.1-2.9c1.2-0.6,2.4-0.9,3.7-0.9c1.4,0,2.6,0.3,3.7,1
		c1.1,0.7,1.8,1.7,2.4,2.8c0.5,1.2,0.8,3.1,0.8,5.6v9.5h-2.4v-8.8c0-2.1-0.1-3.6-0.2-4.3c-0.3-1.2-0.8-2.2-1.6-2.8
		c-0.8-0.6-1.8-0.9-3.1-0.9c-1.5,0-2.7,0.5-3.9,1.4c-1.1,1-1.9,2.1-2.2,3.6c-0.2,0.9-0.3,2.6-0.3,5v6.8h-2.4V473.1"/>
	<path class="st9" d="M579.4,474.9c-1.3,0-2.5,0.3-3.6,1s-2,1.6-2.7,2.7c-0.7,1.2-1,2.4-1,3.7c0,1.3,0.3,2.5,1,3.7s1.6,2.1,2.7,2.8
		c1.1,0.6,2.3,1,3.6,1s2.5-0.3,3.7-1s2.1-1.5,2.7-2.7c0.6-1.1,0.9-2.4,0.9-3.8c0-2.1-0.7-3.9-2.1-5.3
		C583.2,475.6,581.5,474.9,579.4,474.9 M588.9,465.9v25.7h-2.4v-3.2c-1,1.2-2.1,2.1-3.3,2.7c-1.3,0.6-2.6,0.9-4.1,0.9
		c-2.6,0-4.9-1-6.7-2.9s-2.8-4.2-2.8-6.9c0-2.7,0.9-4.9,2.8-6.8c1.9-1.9,4.1-2.8,6.7-2.8c1.5,0,2.9,0.3,4.1,1
		c1.2,0.6,2.3,1.6,3.2,2.9v-10.6L588.9,465.9L588.9,465.9z"/>
	<path class="st9" d="M605.4,489.2h2.9c3.5,0,5.9-0.2,7.2-0.6c1.9-0.6,3.4-1.7,4.4-3.3c1.1-1.6,1.6-3.5,1.6-5.8
		c0-2.4-0.6-4.5-1.7-6.2c-1.2-1.7-2.8-2.9-4.9-3.5c-1.6-0.5-4.1-0.7-7.7-0.7h-1.8V489.2 M603,491.6v-25.1h5.2c3.8,0,6.5,0.3,8.2,0.9
		c2.4,0.8,4.4,2.3,5.7,4.4c1.4,2.1,2,4.6,2,7.5c0,2.5-0.5,4.7-1.6,6.6s-2.5,3.3-4.2,4.2c-1.8,0.9-4.2,1.4-7.3,1.4h-8V491.6z"/>
	<path class="st9" d="M643.5,480.5c-0.3-1.3-0.8-2.3-1.4-3.1c-0.6-0.7-1.4-1.4-2.4-1.8c-1-0.5-2-0.7-3.2-0.7c-1.8,0-3.4,0.6-4.7,1.8
		c-0.9,0.9-1.7,2.1-2.2,3.8L643.5,480.5 M643.4,485.5l2,1.1c-0.7,1.3-1.4,2.3-2.3,3.1c-0.8,0.8-1.8,1.4-2.9,1.8
		c-1.1,0.4-2.3,0.6-3.7,0.6c-3,0-5.4-1-7.1-3c-1.7-2-2.6-4.2-2.6-6.7c0-2.3,0.7-4.4,2.2-6.3c1.8-2.3,4.3-3.5,7.3-3.5
		c3.2,0,5.7,1.2,7.6,3.6c1.3,1.7,2,3.8,2,6.3h-16.7c0,2.2,0.7,3.9,2.1,5.3c1.3,1.4,3,2.1,4.9,2.1c0.9,0,1.8-0.2,2.7-0.5
		s1.6-0.8,2.3-1.3C642,487.5,642.7,486.7,643.4,485.5z"/>
	<path class="st9" d="M659.6,489.7c1.3,0,2.5-0.3,3.6-1s2-1.6,2.7-2.8c0.7-1.2,1-2.4,1-3.7c0-1.3-0.3-2.5-1-3.7s-1.5-2.1-2.7-2.8
		c-1.1-0.6-2.3-1-3.6-1s-2.5,0.3-3.7,1s-2.1,1.6-2.7,2.7c-0.6,1.1-0.9,2.4-0.9,3.8c0,2.1,0.7,3.9,2.1,5.3
		C655.8,489,657.5,489.7,659.6,489.7 M650,491.6v-25.7h2.4v10.4c1-1.2,2.1-2.1,3.3-2.8c1.2-0.6,2.6-0.9,4.1-0.9c2.6,0,4.9,1,6.7,2.8
		c1.8,1.9,2.8,4.2,2.8,6.9c0,2.7-1,5-2.8,6.8c-1.9,1.9-4.1,2.8-6.7,2.8c-1.5,0-2.9-0.3-4.1-1c-1.2-0.6-2.3-1.6-3.2-2.9v3.4H650
		V491.6z"/>
	<polyline class="st9" points="675.1,466.2 677.5,466.2 677.5,473.1 681.3,473.1 681.3,475.1 677.5,475.1 677.5,491.6 675.1,491.6 
		675.1,475.1 671.8,475.1 671.8,473.1 675.1,473.1 675.1,466.2 	"/>
	<polyline class="st9" points="692.3,491.6 695.8,466.5 696.3,466.5 706.5,487.1 716.6,466.5 717,466.5 720.6,491.6 718.1,491.6 
		715.7,473.6 706.8,491.6 706.1,491.6 697.2,473.5 694.8,491.6 692.3,491.6 	"/>
	<path class="st9" d="M733.3,474.9c-1.3,0-2.6,0.3-3.7,1c-1.1,0.7-2,1.6-2.7,2.7c-0.7,1.2-1,2.4-1,3.7c0,1.3,0.3,2.5,1,3.7
		s1.6,2.1,2.7,2.8c1.1,0.6,2.3,1,3.6,1s2.5-0.3,3.7-1s2-1.5,2.7-2.7c0.6-1.1,0.9-2.4,0.9-3.8c0-2.1-0.7-3.9-2.1-5.3
		C737.1,475.6,735.3,474.9,733.3,474.9 M742.8,473.1v18.5h-2.4v-3.2c-1,1.2-2.1,2.1-3.4,2.7c-1.3,0.6-2.6,0.9-4.1,0.9
		c-2.6,0-4.9-1-6.7-2.9s-2.8-4.2-2.8-6.9c0-2.7,0.9-4.9,2.8-6.8c1.9-1.9,4.1-2.8,6.8-2.8c1.5,0,2.9,0.3,4.1,1
		c1.2,0.6,2.3,1.6,3.2,2.9v-3.4L742.8,473.1L742.8,473.1z"/>
	<path class="st9" d="M747.5,473.1h2.4v3.3c0.9-1.3,2-2.2,3.2-2.9c1.1-0.6,2.4-0.9,3.7-0.9c1.4,0,2.6,0.3,3.7,1
		c1.1,0.7,1.9,1.7,2.4,2.8c0.5,1.2,0.8,3.1,0.8,5.6v9.5h-2.4v-8.8c0-2.1-0.1-3.6-0.3-4.3c-0.2-1.2-0.8-2.2-1.5-2.8
		c-0.8-0.6-1.8-0.9-3.1-0.9c-1.4,0-2.7,0.5-3.9,1.4c-1.1,1-1.9,2.1-2.2,3.6c-0.2,0.9-0.3,2.6-0.3,5v6.8h-2.4v-18.4"/>
	<path class="st9" d="M777,474.9c-1.3,0-2.5,0.3-3.7,1c-1.1,0.7-2,1.6-2.7,2.7c-0.6,1.2-1,2.4-1,3.7c0,1.3,0.4,2.5,1,3.7
		c0.7,1.2,1.6,2.1,2.7,2.8c1.1,0.6,2.3,1,3.6,1s2.5-0.3,3.7-1s2.1-1.5,2.7-2.7c0.6-1.1,0.9-2.4,0.9-3.8c0-2.1-0.7-3.9-2.1-5.3
		C780.8,475.6,779,474.9,777,474.9 M786.5,473.1v18.5h-2.4v-3.2c-1,1.2-2.1,2.1-3.4,2.7c-1.2,0.6-2.6,0.9-4.1,0.9
		c-2.6,0-4.9-1-6.7-2.9c-1.9-1.9-2.8-4.2-2.8-6.9c0-2.7,0.9-4.9,2.8-6.8c1.9-1.9,4.1-2.8,6.8-2.8c1.5,0,2.9,0.3,4.1,1
		c1.2,0.6,2.3,1.6,3.3,2.9v-3.4L786.5,473.1L786.5,473.1z"/>
	<path class="st9" d="M800.2,474.9c-1.3,0-2.6,0.3-3.7,1c-1.1,0.6-2.1,1.5-2.7,2.7c-0.7,1.2-1,2.4-1,3.8c0,2,0.7,3.7,2,5
		c1.4,1.4,3.1,2,5.2,2c2.2,0,3.9-0.6,5.3-2c1.3-1.3,2-3,2-5.2c0-1.4-0.3-2.7-0.9-3.7c-0.6-1.1-1.5-2-2.6-2.6
		C802.6,475.2,801.4,474.9,800.2,474.9 M807.2,473.1h2.4v14.8c0,2.6-0.2,4.5-0.7,5.7c-0.6,1.7-1.7,3-3.2,3.9
		c-1.6,0.9-3.4,1.4-5.6,1.4c-1.6,0-3-0.2-4.3-0.7s-2.3-1.1-3.1-1.8c-0.8-0.8-1.5-1.9-2.2-3.3h2.6c0.7,1.3,1.6,2.2,2.7,2.8
		c1.1,0.6,2.5,0.9,4.1,0.9s3-0.3,4.1-0.9s1.9-1.4,2.4-2.3s0.7-2.4,0.7-4.4v-1c-0.9,1.1-2,2-3.3,2.6s-2.7,0.9-4.1,0.9
		c-1.7,0-3.3-0.4-4.8-1.3c-1.5-0.8-2.7-2-3.5-3.4s-1.2-3-1.2-4.7s0.4-3.3,1.3-4.8c0.8-1.5,2-2.7,3.5-3.5s3.1-1.3,4.8-1.3
		c1.4,0,2.7,0.3,3.9,0.8c1.2,0.6,2.3,1.5,3.5,2.8L807.2,473.1L807.2,473.1z"/>
	<path class="st9" d="M829.6,480.5c-0.3-1.3-0.8-2.3-1.4-3.1c-0.6-0.7-1.4-1.4-2.4-1.8c-1-0.5-2-0.7-3.2-0.7c-1.8,0-3.4,0.6-4.7,1.8
		c-1,0.9-1.7,2.1-2.1,3.8L829.6,480.5 M829.6,485.5l2,1.1c-0.7,1.3-1.4,2.3-2.3,3.1c-0.8,0.8-1.8,1.4-2.9,1.8
		c-1.1,0.4-2.3,0.6-3.6,0.6c-3,0-5.4-1-7.1-3c-1.7-2-2.6-4.2-2.6-6.7c0-2.3,0.7-4.4,2.2-6.3c1.8-2.3,4.3-3.5,7.3-3.5
		c3.2,0,5.7,1.2,7.6,3.6c1.3,1.7,2,3.8,2,6.3h-16.7c0,2.2,0.7,3.9,2.1,5.3c1.3,1.4,3,2.1,4.9,2.1c1,0,1.9-0.2,2.8-0.5
		c0.9-0.3,1.6-0.8,2.3-1.3C828.2,487.5,828.9,486.7,829.6,485.5z"/>
	<path class="st9" d="M835.9,473.1h2.4v3.2c0.8-1.2,1.7-2,2.6-2.6c1.2-0.7,2.5-1.1,3.8-1.1c0.9,0,1.8,0.2,2.6,0.5
		c0.8,0.4,1.5,0.8,2,1.4s1,1.4,1.3,2.5c0.8-1.5,1.8-2.6,3-3.3c1.2-0.8,2.5-1.1,3.8-1.1s2.4,0.3,3.4,1c1,0.6,1.7,1.5,2.2,2.7
		s0.7,2.9,0.7,5.2v10.1h-2.4v-10.1c0-2-0.1-3.3-0.4-4.1c-0.3-0.7-0.8-1.4-1.4-1.8c-0.7-0.5-1.5-0.7-2.5-0.7c-1.1,0-2.2,0.3-3.2,1
		c-0.9,0.7-1.6,1.6-2.1,2.7c-0.4,1.1-0.6,3-0.6,5.7v7.3h-2.4v-9.5c0-2.2-0.2-3.7-0.4-4.6c-0.3-0.8-0.8-1.4-1.4-1.9
		c-0.7-0.5-1.5-0.7-2.5-0.7c-1.1,0-2.1,0.3-3.1,1s-1.7,1.6-2.1,2.7c-0.4,1.1-0.7,2.8-0.7,5.2v7.8h-2.4v-18.5"/>
	<path class="st9" d="M883.6,480.5c-0.3-1.3-0.8-2.3-1.4-3.1c-0.6-0.7-1.4-1.4-2.4-1.8c-1-0.5-2-0.7-3.1-0.7c-1.8,0-3.4,0.6-4.7,1.8
		c-1,0.9-1.7,2.1-2.2,3.8L883.6,480.5 M883.6,485.5l2,1.1c-0.6,1.3-1.4,2.3-2.3,3.1c-0.9,0.8-1.9,1.4-2.9,1.8
		c-1.1,0.4-2.3,0.6-3.6,0.6c-3,0-5.4-1-7.1-3c-1.7-2-2.5-4.2-2.5-6.7c0-2.3,0.7-4.4,2.2-6.3c1.8-2.3,4.3-3.5,7.4-3.5
		c3.2,0,5.7,1.2,7.6,3.6c1.3,1.7,2,3.8,2.1,6.3h-16.7c0,2.2,0.7,3.9,2,5.3s3,2.1,4.9,2.1c0.9,0,1.9-0.2,2.8-0.5
		c0.9-0.3,1.6-0.8,2.3-1.3C882.2,487.5,882.9,486.7,883.6,485.5z"/>
	<path class="st9" d="M890,473.1h2.4v3.3c1-1.3,2-2.2,3.1-2.9c1.2-0.6,2.4-0.9,3.8-0.9c1.4,0,2.6,0.3,3.7,1c1.1,0.7,1.8,1.7,2.3,2.8
		c0.5,1.2,0.8,3.1,0.8,5.6v9.5h-2.4v-8.8c0-2.1-0.1-3.6-0.2-4.3c-0.2-1.2-0.8-2.2-1.6-2.8c-0.8-0.6-1.8-0.9-3-0.9
		c-1.4,0-2.7,0.5-3.9,1.4c-1.2,1-1.9,2.1-2.2,3.6c-0.2,0.9-0.3,2.6-0.3,5v6.8H890V473.1"/>
	<polyline class="st9" points="912.7,466.2 915.1,466.2 915.1,473.1 918.9,473.1 918.9,475.1 915.1,475.1 915.1,491.6 912.7,491.6 
		912.7,475.1 909.4,475.1 909.4,473.1 912.7,473.1 912.7,466.2 	"/>
	<path class="st9" d="M941,471.7l-4.3,9.2h8.6L941,471.7 M941.3,466.5l11.7,25.1h-2.7l-3.9-8.2h-10.9l-3.9,8.2h-2.8l11.8-25.1H941.3
		z"/>
	<path class="st9" d="M964.7,474.9c-1.4,0-2.6,0.3-3.7,1c-1.2,0.6-2,1.5-2.7,2.7c-0.6,1.2-1,2.4-1,3.8c0,2,0.7,3.7,2,5
		c1.4,1.4,3.1,2,5.3,2s4-0.6,5.2-2c1.3-1.3,2-3,2-5.2c0-1.4-0.3-2.7-0.9-3.7c-0.6-1.1-1.5-2-2.6-2.6
		C967.2,475.2,966,474.9,964.7,474.9 M971.7,473.1h2.4v14.8c0,2.6-0.2,4.5-0.7,5.7c-0.6,1.7-1.7,3-3.3,3.9c-1.5,0.9-3.4,1.4-5.6,1.4
		c-1.6,0-3-0.2-4.3-0.7s-2.3-1.1-3.1-1.8c-0.8-0.8-1.5-1.9-2.2-3.3h2.6c0.7,1.3,1.6,2.2,2.7,2.8c1.1,0.6,2.5,0.9,4.1,0.9
		s3-0.3,4.1-0.9s1.9-1.4,2.4-2.3s0.7-2.4,0.7-4.4v-1c-0.9,1.1-2,2-3.3,2.6s-2.7,0.9-4.1,0.9c-1.7,0-3.3-0.4-4.8-1.3
		c-1.5-0.8-2.7-2-3.5-3.4s-1.2-3-1.2-4.7s0.4-3.3,1.3-4.8c0.8-1.5,2-2.7,3.5-3.5s3.1-1.3,4.8-1.3c1.4,0,2.7,0.3,3.8,0.8
		c1.2,0.6,2.4,1.5,3.5,2.8v-3.2H971.7z"/>
	<path class="st9" d="M994.1,480.5c-0.3-1.3-0.8-2.3-1.4-3.1c-0.6-0.7-1.4-1.4-2.4-1.8c-1-0.5-2.1-0.7-3.1-0.7
		c-1.8,0-3.4,0.6-4.7,1.8c-1,0.9-1.7,2.1-2.2,3.8L994.1,480.5 M994.1,485.5l2,1.1c-0.7,1.3-1.4,2.3-2.3,3.1
		c-0.9,0.8-1.8,1.4-2.9,1.8c-1.1,0.4-2.3,0.6-3.7,0.6c-3,0-5.4-1-7.1-3c-1.7-2-2.5-4.2-2.5-6.7c0-2.3,0.7-4.4,2.2-6.3
		c1.8-2.3,4.3-3.5,7.4-3.5c3.1,0,5.7,1.2,7.6,3.6c1.3,1.7,2,3.8,2,6.3h-16.7c0,2.2,0.7,3.9,2,5.3s3,2.1,4.9,2.1
		c0.9,0,1.9-0.2,2.7-0.5c0.9-0.3,1.7-0.8,2.3-1.3C992.7,487.5,993.4,486.7,994.1,485.5z"/>
	<path class="st9" d="M1000.5,473.1h2.4v3.3c1-1.3,2-2.2,3.1-2.9c1.2-0.6,2.4-0.9,3.8-0.9c1.4,0,2.6,0.3,3.7,1
		c1.1,0.7,1.9,1.7,2.4,2.8c0.5,1.2,0.8,3.1,0.8,5.6v9.5h-2.4v-8.8c0-2.1-0.1-3.6-0.2-4.3c-0.3-1.2-0.8-2.2-1.6-2.8
		c-0.8-0.6-1.8-0.9-3-0.9c-1.5,0-2.7,0.5-3.9,1.4c-1.1,1-1.9,2.1-2.2,3.6c-0.2,0.9-0.3,2.6-0.3,5v6.8h-2.4v-18.4"/>
	<path class="st9" d="M1039.1,476.9l-1.9,1.2c-1.6-2.2-3.9-3.3-6.7-3.3c-2.3,0-4.1,0.7-5.6,2.2s-2.2,3.2-2.2,5.3
		c0,1.4,0.4,2.6,1,3.8c0.7,1.2,1.6,2.1,2.8,2.8c1.2,0.6,2.5,1,4,1c2.7,0,4.9-1.1,6.7-3.3l1.9,1.3c-0.9,1.3-2.1,2.4-3.6,3.1
		s-3.2,1.1-5.1,1.1c-2.9,0-5.4-0.9-7.3-2.8c-1.9-1.9-2.9-4.1-2.9-6.8c0-1.8,0.5-3.4,1.4-5c0.9-1.5,2.1-2.7,3.7-3.6
		c1.6-0.8,3.4-1.3,5.3-1.3c1.2,0,2.4,0.2,3.5,0.6s2.1,0.9,2.9,1.5C1037.8,475.2,1038.5,476,1039.1,476.9"/>
	<polyline class="st9" points="1041,473.1 1043.5,473.1 1049.9,487.4 1056.1,473.1 1058.6,473.1 1047.5,498.4 1045.1,498.4 
		1048.7,490.1 1041,473.1 	"/>
</g>
</svg>
