<?xml version="1.0" encoding="utf-8"?>
<!-- Generator: Adobe Illustrator 27.8.0, SVG Export Plug-In . SVG Version: 6.00 Build 0)  -->
<svg version="1.1" id="Layer_1" xmlns="http://www.w3.org/2000/svg" xmlns:xlink="http://www.w3.org/1999/xlink" x="0px" y="0px"
	 viewBox="0 0 1204 258" style="enable-background:new 0 0 1204 258;" xml:space="preserve">
<style type="text/css">
	.st0{fill:#fff;}
	.st1{fill:#fff;}
</style>
<g>
	<polygon class="st0" points="299.3,34.7 264,34.7 264.5,229.5 301.3,229.5 301.3,103.1 380.5,229.5 417.4,229.5 417.4,34.7 
		380.1,34.7 380.1,165.3 	"/>
	<path class="st0" d="M558.3,34.7h-41.4l-74.6,194.8h41.4l16.6-45.6h74.6l16.6,45.6H637L558.3,34.7z M512.7,150.8l24.9-70.5
		l24.9,70.5H512.7z"/>
	<polygon class="st1" points="699.2,38.9 661.9,38.9 661.9,229.5 798.6,229.5 798.6,196.3 699.2,196.3 	"/>
	<polygon class="st1" points="964,34.7 823.5,34.7 823.5,229.5 968.6,229.5 968.6,196.3 860.8,196.3 860.8,150.8 956.1,150.8 
		956.1,117.6 860.8,117.6 860.8,67.9 964.4,67.9 	"/>
	<path class="st1" d="M1119.8,94l38.5-9.1c0,0-4.6-56.8-85.8-56.4c0,0-67.6,0.4-80.8,80.8c0,0-9.1,58.8,20.3,89.5
		c0,0,29.4,39.8,89.5,27.4c0,0,47.7-9.9,58-60.1l-37.7-12c0,0-10.4,52.6-60.9,38.5c0,0-34.4-11.2-30.7-72.9c0,0,0-48.9,34.4-54.7
		C1065.1,64.6,1108.6,50.5,1119.8,94z"/>
	<path class="st0" d="M160.4,34.7H119L44.4,229.5h41.4l16.6-45.6H177l16.6,45.6h45.6L160.4,34.7z M114.8,150.8l24.9-70.5l24.9,70.5
		H114.8z"/>
</g>
</svg>
