<?xml version="1.0" encoding="utf-8"?>
<!-- Generator: Adobe Illustrator 27.8.0, SVG Export Plug-In . SVG Version: 6.00 Build 0)  -->
<svg version="1.1" id="Layer_1" xmlns="http://www.w3.org/2000/svg" xmlns:xlink="http://www.w3.org/1999/xlink" x="0px" y="0px"
	 viewBox="0 0 1681 596.1" style="enable-background:new 0 0 1681 596.1;" xml:space="preserve">
<style type="text/css">
	.st0{fill:#fff;}
	.st1{fill:#fff;}
	.st2{fill:#fff;}
	.st3{fill:#fff;}
	.st4{fill:#fff;}
	.st5{fill:#fff;}
	.st6{fill:#fff;}
	.st7{fill:#fff;}
	.st8{fill:#fff;}
	.st9{fill:#fff;}
	.st10{fill:#fff;}
	.st11{fill:#fff;}
	.st12{fill:#fff;}
	.st13{fill:#fff;}
	.st14{fill:#fff;}
	.st15{fill:#fff;}
	.st16{fill:#fff;}
	.st17{fill:#fff;}
	.st18{fill:#fff;}
	.st19{fill:#fff;}
	.st20{fill:#fff;}
	.st21{fill:#fff;}
	.st22{fill:#fff;}
	.st23{fill:#fff;}
	.st24{fill:#fff;}
	.st25{fill:#fff;}
	.st26{fill:#fff;}
	.st27{fill:#fff;}
	.st28{fill:#fff;}
</style>
<g>
	<path class="st0" d="M1326.4,525.4c-70,0-140,0-210,0c0-2.4,2.1-2.3,3.6-2.7c30.2-9,36.3-46.9,17.7-67
		c-7.5-8.2-17.1-11.9-28.6-11.9c-17,0.1-28.6,8-35.6,22.7c-9.5,19.8-1.2,47.3,21.8,55.4c1.7,0.6,4.1,0.8,4.1,3.5
		c-115.7,0-231.3,0-347,0c-0.3-0.4-0.6-0.8-0.7-1.3c1.3-6.5,4.8-12.1,7.1-18.1c0.8-2,1.8-3.8,2.5-5.8c7.5-17,14.9-34,22.4-51
		c0.5-1.2,2.2-2.8,0.2-3.7c-1.5-0.7-2.6,1.1-3.2,2.5c-5,10.5-9.1,21.4-13.8,32c-2.2,5-4.4,10-6.4,15.1c-2.5,6.3-5.4,12.5-8.2,18.7
		c-0.6,1.3-1,3.1-2.8,3.1c-1.9,0-2.3-1.7-2.9-3c-6.2-13.2-11.4-26.9-17.4-40.2c-3.5-7.9-6.7-15.9-10.1-23.8
		c-0.4-0.9-0.7-1.9-1.3-2.7c-0.8-1.2-1.9-2.3-3.2-1.4c-1.3,0.8-0.2,2.1,0.2,3.1c3.9,9.5,8.1,18.9,12.3,28.3
		c5.9,13.5,11.9,27,17.8,40.6c0.9,2.1,2,4.2,2.2,6.6c-0.1,0.5-0.3,1-0.6,1.4c-33.3,0-66.7,0-100,0c-0.2-2.2,1.7-2,3-2.5
		c3.2-1.3,6.3-2.5,9.3-4.2c2.4-0.8,3.9-2.6,5.5-4.3c11.5-10.6,15.4-23.6,12.8-38.8c-3.2-19.3-21.4-31.6-37.5-31.9
		c-20.9-0.4-36,14.7-39.1,30.5c-4.1,20.9,4.1,40.6,26,48.3c1.6,0.5,3.8,0.5,3.9,3.1c-195.1,0-390.3,0-585.4,0.1
		c-3.7,0-4.6-0.8-4.6-4.6c0.1-47.7,0.1-95.4,0.1-143.1c2-1.5,4.4-1.4,6.7-1.4c11.8,0,23.7-0.1,35.5,0.1c4.1,0.1,6.6-1.4,8-5.2
		c2-5.5,4.9-10.5,7.1-15.9c1.6-4,4.3-5.9,8.8-5.9c26.8,0.1,53.6,0.1,80.5,0c4.6,0,7.4,1.8,9.1,6.1c2,5.3,4.7,10.3,6.7,15.6
		c1.5,3.8,3.9,5.4,7.9,5.3c11.5-0.1,23,0,34.5-0.1c5.2,0,5.5-0.6,3.2-5.5c-12.9-27.6-25.3-55.3-38-82.9c-10.4-22.7-20.8-45.3-31-68
		c-1.8-3.9-4.2-5.4-8.5-5.4c-16.2,0.1-32.3,0.2-48.5,0c-4.3-0.1-6.7,1.7-8.4,5.5c-7.2,16.4-14.8,32.7-22.3,49
		c-11.5,25.2-23,50.5-34.7,75.7C53,353.8,49,362.9,44.8,372c-0.9,2-1.1,4.7-4.2,4.9c0-100.7,0-201.4-0.1-302.1c0-3.3,0.4-4.2,4-4.2
		c530.6,0.1,1061.3,0.1,1591.9,0c3.5,0,4,0.8,4,4.1c-0.1,65.5-0.1,131-0.1,196.4c-3.2-1-2.6-3.9-3-6.1c-1.7-9.7-4.1-19.1-9.5-27.6
		c-5.4-8.5-12.8-14.4-22.1-17.8c-8.2-3-16.6-4.3-25.4-4.9c-12.4-0.9-24.6-0.2-36.8,1.4c-7.4,0.9-14.2,3.6-20.5,7.5
		c-2.8,1.8-5.6,2.1-8.4,0.3c-15.9-10.1-33.5-9.8-51.3-8.5c-8.8,0.6-17.6,1.5-26.4,2.4c-8.1,0.9-15.9-1.5-23.6-3.4
		c-13.4-3.2-13.4-3.2-13.4,10.7c0,47.7,0,95.4,0,143.1c0,1.7,0,3.3,0,5c0,2.6,1.1,4.1,3.9,4.1c11,0.2,22,0.1,33,0c2.7,0,3.9-1.4,4-4
		c0-1.7,0-3.3,0-5c0-34.9,0-69.8,0-104.7c0-9,0.8-10,9.8-10.6c9.5-0.6,19-0.5,28.5-0.1c7.8,0.4,13,4.7,15.4,12.1
		c2.5,7.8,3.3,16,3.3,24.1c0.1,26.9,0,53.9,0,80.8c0,7.3,0.2,7.4,7.6,7.5c9,0,18,0.1,27,0c5.8,0,6.3-0.5,6.3-6.3
		c0-25.8-0.1-51.5,0.1-77.3c0.1-9,0.7-17.9,3-26.7c2.4-9.2,7.9-13.8,17.5-14.2c6.3-0.3,12.7-0.3,19,0c8.3,0.3,13.4,4.1,16,11.9
		c2.7,8,3.6,16.2,3.6,24.6c0.1,26.9,0,53.9,0,80.8c0,7.1,0.2,7.3,7.3,7.3c9.5,0,19,0,28.5,0c2.3,0,4.7-0.2,6.7,1.5
		c0,47.5,0,95.1,0.1,142.6c0,3.4-0.7,4.1-4.1,4.1c-98.7-0.1-197.3-0.1-296-0.1c0.5-3.2,3.5-2.6,5.5-3.3
		c12.1-4.8,17.8-17.6,11.9-27.8c-3.6-6.2-9.9-8.7-16.4-10.4c-6.9-1.9-14-3-20.6-5.8c-7.4-3.2-10.8-8.2-10.5-15.3
		c0.2-5.8,2.8-10.2,8-12.9c11-5.7,21.6-3.8,31.9,1.9c1.6,0.9,3.7,3.6,5,1.5c1.7-2.5-1.8-3.4-3.4-4.4c-11.8-7.1-28.6-6.9-37.8,0.3
		c-11.1,8.7-9.2,25.3,3.5,31.2c4.8,2.3,10,3.8,15.2,4.8c5.3,1,10.4,2.3,15.2,4.8c10.2,5.3,11.8,17,3.5,24.9
		c-7.2,6.8-16.1,6.5-24.9,5.3c-6.4-0.9-12-3.9-17.1-7.8c-1.1-0.8-2.5-2.6-3.8-0.9c-1.2,1.6,0.8,2.6,1.9,3.5
		c4.3,3.5,9.3,5.8,14.6,7.5C1323.6,523,1326.1,522.7,1326.4,525.4z"/>
	<path class="st1" d="M1640.4,378.8c-13.3,0.1-26.7,0-40,0.2c-3.5,0.1-4.5-1-4.5-4.5c0.1-29.4,0.1-58.8,0-88.3
		c0-7.2-0.7-14.3-2.9-21.1c-2.2-7-7-10.8-14.4-11c-6.8-0.2-13.7-0.4-20.5,0c-7,0.5-12.1,4-14.3,11.1c-2.4,7.9-3,16-3,24.1
		c-0.1,27.9-0.2,55.8,0.1,83.8c0,5-1.4,6.1-6.1,5.9c-10.8-0.4-21.7-0.5-32.5,0c-5.4,0.2-6.2-1.6-6.1-6.4c0.2-27.4,0.2-54.8,0.1-82.3
		c0-8.3-0.6-16.6-2.9-24.7c-2.2-7.4-6.1-11.2-13.8-11.6c-11.6-0.7-23.3,0.1-34.9,0.8c-2.6,0.1-2.3,1.8-2.3,3.5c0,5.8,0,11.6,0,17.5
		c0,32.7-0.1,65.5,0.1,98.2c0,4-1.1,5.1-5,5c-11.7-0.3-23.3-0.2-35,0c-3.6,0.1-4.4-1.1-4.4-4.5c0.1-53.5,0.1-107,0-160.6
		c0-4.5,1.4-5.1,5.1-3.7c1.1,0.4,2.3,0.5,3.4,0.9c18.6,6.9,37.7,4.3,56.7,2.6c11.6-1,23.3-1.6,34.8,1.4c6.3,1.6,12.3,4,17.8,7.6
		c1.8,1.2,3.2,1.8,5.3,0.3c7.5-5.3,16-8,25.1-9c16.8-1.9,33.5-2.2,50.2,1.1c21.3,4.3,34.3,17.2,40,37.8c1.6,6,2.7,12.1,4,18.2
		C1640.4,307,1640.4,342.9,1640.4,378.8z"/>
	<path class="st1" d="M40.6,376.8c7.2-15.5,14.6-30.9,21.7-46.4c17.2-37.6,34.4-75.2,51.5-112.8c1.2-2.7,2.6-4.1,5.9-4
		c18.2,0.2,36.3,0.1,54.5,0c2.9,0,4.4,0.8,5.6,3.6c23.5,51.7,47.2,103.3,70.8,154.9c2.6,5.7,2.6,5.7-3.6,5.7
		c-12.8,0-25.7-0.1-38.5,0.1c-2.9,0-4.5-0.8-5.7-3.6c-2.8-6.8-5.9-13.3-8.8-20.1c-1.1-2.6-2.6-3.6-5.6-3.6c-27.7,0.1-55.3,0.1-83,0
		c-3.2,0-4.7,1.2-5.9,4c-2.9,6.9-6.2,13.6-9.1,20.5c-0.9,2.1-2.1,3-4.5,3c-15.2-0.1-30.3-0.2-45.5-0.2
		C40.6,377.5,40.6,377.2,40.6,376.8z"/>
	<path class="st2" d="M1099.4,525.4c-1-1.9-3.1-1.6-4.7-2.3c-16.6-6.7-25.2-19.2-26.2-36.7c-0.9-17.5,5.9-31.8,21.9-39.8
		c15.4-7.7,30.9-6.4,44.4,4.7c13.4,11.1,17.1,26.2,13.3,42.8c-3.6,15.7-13.6,25.8-29.3,30.2c-0.9,0.3-2.1-0.2-2.5,1.1
		C1110.8,525.4,1105.1,525.4,1099.4,525.4z"/>
	<path class="st3" d="M630.5,525.4c-8-3.1-15.9-6.2-21.9-12.9c-13.9-15.4-14-41.1,0.3-57.5c12.6-14.5,36.9-17.1,53.3-5.7
		c21.9,15.3,22.2,49.4,4.4,64.5c-0.6,0.5-1.2,1.2-1.7,1.8c-2.4,0.4-3.3,2.9-5.4,3.7c-3.6,3.6-8.8,3.7-13,6.1
		C641.2,525.4,635.8,525.4,630.5,525.4z"/>
	<path class="st3" d="M1326.4,525.4c-7.4-2.8-15.1-4.9-21.2-10.3c-1.4-1.3-4.1-2-1.7-4.9c2.4-3.1,3.8-1.1,5.6,0.4
		c8.6,7.2,18.5,10.2,29.7,8.9c3.9-0.4,7.4-1.7,10.5-4.1c9.2-7.2,7.6-19.8-3-24.7c-4.4-2-9.1-3.2-13.8-4.1c-5.4-1-10.7-2.5-15.6-4.9
		c-7.4-3.5-11.6-9.1-11.6-17.6c0-8.6,4.2-14.5,11.5-18.4c11.5-6,30.3-3.5,40.1,4.9c1.9,1.6,1.4,2.5,0.2,4c-1.4,1.8-2.4,2.2-4.4,0.6
		c-8.3-6.5-17.8-8.7-28.2-6.5c-8.5,1.8-13.3,7.8-13.1,15.7c0.2,6.1,3.7,9.7,8.9,12.1c5.2,2.3,10.7,3.7,16.2,4.8
		c4.2,0.9,8.4,2.1,12.3,3.9c7.6,3.5,12.4,8.8,12.5,17.5c0.1,8.9-4.2,15.2-11.9,19.2c-2.9,1.5-6,2.4-9,3.6
		C1335.8,525.4,1331.1,525.4,1326.4,525.4z"/>
	<path class="st4" d="M746.5,525.4c0-0.4,0-0.7,0-1.1c1.9-1.6,3.9-1.5,5.8,0c0,0.4,0.1,0.7,0.1,1.1
		C750.5,525.4,748.5,525.4,746.5,525.4z"/>
	<path class="st1" d="M809.3,378.5c-6.3,0-12.6,0-18.8,0c-11.3,0-22.7-0.1-34,0c-2.5,0-4.3-0.7-6.1-2.6c-9.9-10.7-20.1-21.3-30.1-32
		c-1.7-1.8-3.3-2.8-6-2.8c-13.8,0.2-27.7,0.2-41.5,0c-3.3,0-4.3,1.1-4.2,4.3c0.2,9.6-0.1,19.3,0.1,28.9c0.1,3.2-0.8,4.3-4.2,4.3
		c-12-0.2-24-0.1-36,0c-3.1,0-4.3-0.7-4.3-4.2c0.1-54.2,0.1-108.4,0-162.6c0-2.8,0.4-3.9,3.6-2.9c5.4,1.6,11.1,2.2,16.5,4
		c14.2,4.6,28.4,1.3,42.6,0.9c17.3-0.4,34.6-2,51.9-1.7c18.3,0.4,35,5.3,46.3,20.9c11.4,15.7,13.9,33.8,11.9,52.7
		c-1.4,13.5-4.9,26.1-14.5,36.3c-3.6,3.8-7.8,6.8-12.5,9c-3.1,1.4-3.1,2.6-0.8,4.8c9.6,9.7,19,19.6,28.7,29.2c4,4,8.5,7.5,12.7,11.2
		C810.3,377,809.8,377.7,809.3,378.5z"/>
	<path class="st1" d="M1244.3,376.9c-17.1-2.4-34.2,0.6-51.2,0.8c-12.6,0.2-25.3,1.2-37.9,1.2c-31.2,0.1-51.8-17.7-56.7-48.5
		c-1.3-8.4-2-16.8-2-25.3c0.1-28.9,0.1-57.8-0.1-86.7c0-4,0.7-5.4,5.1-5.3c11.5,0.3,23,0.3,34.5,0c4-0.1,5,1.1,5,5
		c-0.2,29.1-0.1,58.1,0,87.2c0,7.5,0.8,14.9,3.7,21.9c3.2,7.8,7.2,10.5,15.6,10.5c19.8,0,39.6-0.1,59.5,0.1c4.2,0,5.3-1.1,5.3-5.3
		c-0.2-37.7-0.1-75.4-0.1-113.1c0-1.8-0.6-3.6,0.5-5.3c9.4,0.1,18.8,0,28.2,0.1c1.2,0,2.3,0,3.3,0.9c1.7,2.7,1.2,5.8,1.2,8.7
		c0,46.9,0,93.9,0.1,140.8C1258.1,377.1,1255.9,376.1,1244.3,376.9z"/>
	<path class="st1" d="M329.6,213.4c3.2,0,5.8,0,8.5,0c52.8,0,105.6,0,158.4-0.1c4.5,0,5.8,0.6,4.4,5.4c-2.8,9.7-5.1,19.6-7.3,29.5
		c-0.8,3.4-2.3,4.4-5.8,4.3c-15-0.2-30,0.1-45-0.2c-4.2-0.1-5.2,1.3-5.2,5.3c0.1,38.4,0,76.7,0.2,115.1c0,4-0.7,5.4-5.1,5.3
		c-11.3-0.3-22.7-0.4-34,0c-4.7,0.2-5.3-1.5-5.3-5.6c0.2-38.2,0-76.4,0.2-114.6c0-4.2-0.8-5.7-5.4-5.6c-14.5,0.3-29,0-43.5,0.2
		c-4,0.1-5.9-0.8-6.8-5C335.5,236.3,332.5,225.1,329.6,213.4z"/>
	<path class="st1" d="M811.4,71.8c30.8-0.3,61.6-0.4,92.4,0.7c36.3,1.2,72.6,3.1,108.6,7.3c46,5.4,91.6,13.3,135.2,29.7
		c25.7,9.6,49.9,22.1,71,40c1.6,1.4,3.2,2.8,4.8,4.3c-1.4,1.7-3,1-4.3,1c-24.8,0-49.7,0-74.5,0c-2.2,0-4.2,0.1-6.2-1.4
		c-28.3-21.3-60.6-33.8-94.5-42.5c-31.7-8.2-64-12.5-96.5-15.5c-52-4.7-104.1-4.6-156.3-3.5c-1.2,0-2.3-0.2-3.5-0.2
		c-1.7,0.3-4,1.4-4.5-1.1c-0.4-2.2,1.8-3,3.7-3.2c3.8-0.4,4-2.4,3.2-5.6c-1.7-7-0.4-8.5,6.5-9.3C801.5,71.9,806.5,72.7,811.4,71.8z"
		/>
	<path class="st1" d="M713.5,97.4c-0.9,0.1-1.9,0.2-2.8,0.3c-2.9,0.8-5.9,0.2-8.9,0.4c-1.6,0.1-3.4-0.5-4.4,1.4
		c-0.9,0.1-1.7,0.2-2.6,0.2c-2.7,0.9-5.9-0.4-8.4,1.5c-33.8,5.8-67.2,13.3-98.7,27.4c-14.8,6.6-28.8,14.4-41.9,24.1
		c-1.8,1.3-3.5,2.2-5.9,2.2c-26.5-0.1-53,0-79.4-0.1c-0.9,0-2,0.4-3.1-0.9c8.6-8.2,18.2-15.2,28.4-21.4
		c34.1-20.8,71.6-32.4,110.3-40.8c26.7-5.8,53.7-9.4,80.8-12.6c2.5-0.3,5-0.3,7.5-0.4c0.2,0.3,0.5,0.6,0.4,0.9
		c-2.2,6.7-2.2,6.7,5.1,6.7c12.9,0,25.8,0.1,38.8,0c4,0,7.9,0.7,11.7,2c1.4,0.4,3.2,0.6,3.3,2.5c0.1,1.6-1.4,2.1-2.6,2.6
		c-1.1,0.5-2.1,1-2.8,2c-5.9,0.5-11.9,1-17.8,1.5C718.2,96.4,715.9,96.9,713.5,97.4z"/>
	<path class="st5" d="M928.3,376.9c-1.1-1.5-0.6-3.2-0.6-4.8c0-51.1,0-102.1,0-153.2c0-1.5-0.8-3.3,0.8-4.6
		c13.2-0.2,26.3,0.3,39.5-0.3c2.6-0.1,3.3,0.8,3.4,3c0.1,1.2,0,2.3,0,3.5c0,49.8,0,99.7,0,149.5c0,7.2-0.1,7.3-7.2,7.3
		C952.3,377.3,940.3,377.4,928.3,376.9z"/>
	<path class="st6" d="M1244.3,376.9c3.2-0.6,5.9-2.8,9.4-2.2c1.7,0.3,2.6-1.2,2.7-2.9c0.1-1.5,0-3,0-4.5c0-50.7,0-101.3,0-152
		c3.3-1.9,6.8-0.8,10.2-0.8c2,0,2.3,1.5,2.3,3.2c-1.1,53.2-0.2,106.5-0.5,159.7c0,1.2,0.1,2.3-0.3,3.4c-0.5,1.3-1.4,1.8-2.7,1.2l0,0
		c-2.4-2.1-5.5-1.1-8.2-2C1252.7,379.3,1248.4,378.5,1244.3,376.9z"/>
	<path class="st7" d="M738.4,95.2c-0.7-0.8-2.9-1.6-0.2-2.5c1.7-0.5,3.4-0.9,5.7-2.4c-5.7-1.2-10.4-2.9-15.6-2.8
		c-13.6,0.3-27.2,0.2-40.8,0c-2.1,0-4.8,1.5-6.1-2.3c-1.3-3.6,0.6-4.5,2.9-5.7c0.2-0.1,0.2-0.6,0.3-0.9c8.3-0.8,16.5-1.8,24.8-2.4
		c34-2.4,68-4.1,102.1-4.4c-5.2,1.8-10.7,0.4-16.1,1.7c-3.8,0.9-5.6,2.7-4.6,6.5c0.2,0.8,0.7,1.5,1,2.3c1.8,4.8,1,6-4.1,6.4
		c-1.4,0.1-3.6-0.2-3.5,1.7c0.1,2.1,2.4,0.9,3.6,1.4c-7.8,1.8-15.8,0.8-23.7,1.7C755.6,94.3,746.9,94.6,738.4,95.2z"/>
	<path class="st8" d="M809.2,523.5c12.1-26.1,24.1-51.9,36-77.6c0.9-2,2-3.1,4.5-3.1c2.6,0,3.4,1.5,4.3,3.4
		c7.9,17,15.8,34.1,23.7,51.1c3.4,7.4,6.9,14.7,10.3,22.1c0.6,1.4,2.9,3.4,0.4,4.5c-2.1,0.9-4.8,1-6.2-2.3
		c-2.1-5.2-4.8-10.2-6.9-15.5c-1.3-3.4-3.2-4.7-7-4.6c-13,0.3-26,0.2-39,0c-2.7,0-4.2,0.7-5.2,3.3c-2,5.1-4.7,9.9-6.7,15
		C815.9,523.8,813.6,525,809.2,523.5z"/>
	<path class="st9" d="M1237.3,491.7c5.4,6.9,10.7,13.8,16.1,20.7c2.9-1.2,1.9-3.8,1.9-5.8c0.1-18.7,0-37.5,0.1-56.2
		c0-2.2-1.4-6,2.3-6c4,0,2,3.9,2,5.8c0.2,22.5,0.1,45.1,0.1,67.6c0,1.8,0.5,3.6-0.5,5.4c-2.4,2.2-3.8,1-5.6-1.2
		c-17.1-21.6-34.2-43.2-51.4-64.7c-0.7-0.9-1.1-4.6-4-1.8c-0.7,0.9-0.5,1.9-0.5,2.9c0,18.7,0,37.4,0,56.1c0,1-0.2,2,0.5,2.9
		c0.3,2,0.6,4-0.2,5.9c-1.6-0.2-3.1,1-4.7,0l-0.1-0.1c-0.8-1-0.5-2.2-0.5-3.4c0-24.2,0-48.3,0-72.5c0-1-0.1-2,0.4-2.9l0,0
		c2-0.6,3.9-0.7,5.9,0.1c11,13.6,21.9,27.2,32.9,40.8c0.6,0.8,1.3,1.4,2,2.2C1235.5,488.8,1236.6,490.1,1237.3,491.7z"/>
	<path class="st10" d="M436.3,523.5c-9.3-10.1-17.3-21.2-25.9-31.9c-10.1-12.5-20-25.1-30-37.7c-0.8-2.3-2.3-4.3-3.4-6.5
		c-1.6-3-0.2-3.9,2.8-3c13.5,16.8,27,33.5,40.4,50.3c4.6,5.7,9,11.5,13.5,17.2c2.9-0.6,1.3-2.8,1.3-4.2c0.1-19.4,0.1-38.8,0.1-58.2
		c0-1.3-0.1-2.7,0.1-4c0.2-1.6,1.5-1.5,2.7-1.5c1.1,0,2,0.3,2.1,1.6c0.1,1.3,0.1,2.7,0.1,4c0,18.8,0,37.5,0,56.3
		c0,1.8-0.4,3.7,0.4,5.4c0.6,1.7-1.5,3.4,0,5.1c-0.7,1.4-0.4,2.8-0.4,4.2C440.2,523.7,438.9,524.5,436.3,523.5z"/>
	<path class="st11" d="M942.2,486.6c0-10.8-0.2-21.6,0.1-32.4c0.1-4.3-1.4-5.4-5.4-5.2c-6.5,0.3-13,0-19.5,0.1c-2,0-3.6,0-3.6-2.7
		c0-2.6,1.5-2.9,3.6-2.9c18.5,0,37,0,55.5,0c2,0,3.6,0,3.5,2.8c0,2.8-1.6,2.8-3.6,2.8c-6.5,0-13,0.3-19.5-0.1
		c-4.3-0.2-5.2,1.4-5.2,5.4c0.2,21.8,0.1,43.5,0.1,65.3c0,1.8,0.9,4.2-2.4,4.5c-2.9,0.3-3.7-0.9-3.7-3.7
		C942.2,509.1,942.2,497.9,942.2,486.6z"/>
	<path class="st12" d="M513.8,469.5c11.4,14.2,22.8,28.4,34.4,42.7c1.4-2.2,0.9-4.3,0.9-6.2c0-19.3,0-38.5,0.1-57.8
		c0-1.8-1.2-4.6,2.5-4.7c3.9-0.1,3.1,2.6,3.1,4.8c0,23.8,0,47.5,0,71.3c0,1.5,0.9,3.6-1.2,4.4c-2.1,0.8-3.7-0.2-5.1-2
		c-13.6-17.4-27.4-34.7-41.1-52c-0.5-1.7-0.4-3.5,1.3-4.1c1.6-0.6,2.4,1.1,3.2,2.3C512.4,468.7,513,469.2,513.8,469.5z"/>
	<path class="st13" d="M752.4,524.3c-1.9,0-3.9,0-5.8,0c-11.3-25.7-22.6-51.3-33.8-77c-0.5-1.1-2.4-2.9,0-3.6
		c2.2-0.6,4.9-1.2,6.3,2.1c3.8,9.2,7.8,18.3,11.7,27.5c5.7,13.4,11.5,26.9,17.2,40.3c0.4,0.8,0.8,1.7,1.6,3.2
		c3.6-7.9,6.8-15.1,10.1-22.3c3.5,0.7,2.3,3.8,2.8,5.9C759.1,508.4,755.7,516.4,752.4,524.3z"/>
	<path class="st14" d="M513.8,469.5c-2.5,0.4-2.5-2.6-4.7-3.2c-0.5,1.1-1.1,2.3-1.7,3.6c-4.3-5.2-8.6-10.4-13.8-16.7
		c0,2.8,0,4.4,0,6c0,20.1,0,40.2,0,60.3c0,2,1.1,4.9-3,4.8c-4-0.1-2.9-2.8-2.9-4.9c0-23.7,0-47.5,0-71.2c0-1.5-1-3.7,1.2-4.3
		c2.3-0.6,4.5-0.4,6.2,1.8C501.3,453.6,507.6,461.5,513.8,469.5z"/>
	<path class="st15" d="M1024.3,483.5c0,12.1,0,24.2,0,36.3c0,2.2,0.4,4.3-3.1,4.3c-3.5,0-3-2.1-3-4.3c0-24.1,0-48.1,0-72.2
		c0-2.1-0.6-4.3,3-4.3c3.5,0,3.1,2.1,3.1,4.3C1024.3,459.6,1024.3,471.6,1024.3,483.5z"/>
	<path class="st16" d="M325.7,484.1c0,11.9,0,23.9,0,35.8c0,2.1,0.6,4.4-3,4.3c-3.4-0.1-3.1-2.1-3.1-4.3c0-24.1,0-48.1,0-72.2
		c0-2.2-0.3-4.2,3.1-4.3c3.6,0,3,2.3,3,4.3C325.7,459.8,325.7,471.9,325.7,484.1z"/>
	<path class="st17" d="M928.3,376.9c1.8-1.1,3.8-1.4,5.8-1c10.4,1.9,20.9,0.4,31.3,1c3.6,0.2,5.1-1.1,5.1-4.8
		c-0.1-51.3-0.1-102.6,0-153.9c0-2.9-0.6-3.2-3.7-3.1c-11.6,0.4-23.3,0.2-34.9,0.2c-1.1,0-2.2-0.6-3.3-0.9
		c5.4-1.6,10.9-0.5,16.3-0.6c7.8-0.2,15.7,0,23.5-0.1c2.9,0,4.1,0.6,4.1,3.9c-0.1,52.2-0.1,104.4-0.1,156.5c0,2.1,0.2,4-2.9,3.9
		c-13.2-0.1-26.3,0-39.5-0.1C929.4,377.8,928.9,377.2,928.3,376.9z"/>
	<path class="st18" d="M1265.3,381.9c3.2-0.8,2-3.4,2-5.4c0.1-43.2,0-86.4,0.1-129.6c0-9.6-1-19.2,0.8-28.8c0.4-2.3-0.8-3-2.8-2.9
		c-3,0-6,0-9,0c-7.6,0-15.2-0.1-22.8,0c-2.8,0-5.6-0.2-8.3-1.1c0.7-1.4,2-0.9,3.1-0.9c12.3,0,24.6,0.1,36.9-0.1c3,0,4,0.9,4,4
		c-0.1,54.1-0.1,108.2,0,162.3C1269.3,382.8,1268.4,383.9,1265.3,381.9z"/>
	<path class="st19" d="M379.7,444.6c-4.6,0.2-2.1,2.4-0.9,3.8c1.4,1.7,3.5,3.1,1.6,5.7c-1.9,1.4-1,3.4-1,5.1
		c-0.1,19.7,0,39.4-0.1,59.2c0,1.7,0.8,3.6-0.7,5.2c-0.7-0.9-0.5-1.9-0.5-2.9c0-20.6,0-41.2,0-61.8c0-0.8,0-1.6,0-1.6
		c0,19.8,0,40.4,0,61c0,1.8-0.4,3.7,0.5,5.4c-3.6,1.7-5.1,0.6-5.1-3.5c0.1-24.1,0-48.2,0.1-72.3C373.5,443,374.4,442.5,379.7,444.6z
		"/>
	<path class="st20" d="M762.4,500.5c-0.9-2-1.9-4-2.8-5.9c6.9-16.2,13.8-32.4,20.5-48.6c1.5-3.7,4.2-2.2,7.5-2.2
		C779.1,463,770.7,481.8,762.4,500.5z"/>
	<path class="st21" d="M1259.4,523.3c0-24.2,0-48.5,0-72.7c0-1.3,0-2.7-0.1-4c0-0.9-0.5-1.7-1.5-1.6c-1,0.1-1.3,0.9-1.4,1.8
		c-0.1,1.3,0,2.7,0,4c0,18.3,0,36.5,0,54.8c0,2.1-0.1,4.3-0.5,6.4c-0.3,1.4-1.2,2-2.4,0.6c1.4-1.8,0.8-3.8,0.8-5.8
		c0-19.4,0-38.9,0.1-58.3c0-1.6-0.8-3.6,1-4.5c1-0.5,2.7-0.4,3.8,0c1.6,0.5,1,2.3,1,3.5c0,11.6,0,23.3,0,34.9c0,12.1,0,24.2,0,36.4
		C1260.1,520.1,1260.9,521.9,1259.4,523.3z"/>
	<path class="st22" d="M976.3,216.6c0,52.3,0,104.6,0,156.9c-0.2,0-0.3,0-0.5,0c0-52.4,0-104.7,0-157.1
		C976,216.5,976.2,216.5,976.3,216.6z"/>
	<path class="st23" d="M440.4,511.4c-1.5-1.5-0.9-3.5-0.9-5.2c0-18.6,0-37.1,0-55.7c0-1.2,0-2.3,0-3.5c0-1.3-0.5-2.3-2.1-2.2
		c-1.5,0.1-1.9,1.1-1.9,2.4c0,3.8,0,7.6,0,11.4c0,16.9,0,33.8-0.1,50.7c0,0.8,1.9,4-1.8,2.7c2.1-1.3,1.1-3.3,1.1-5
		c0.1-19.7,0-39.5,0.1-59.2c0-1.6-0.9-3.9,1.9-4.4c3.5-0.7,4.1,1.2,4.1,4.2c-0.1,16.3,0,32.5-0.1,48.8
		C440.6,501.5,440.5,506.4,440.4,511.4z"/>
	<path class="st24" d="M1193.4,444.6c0,26.3,0.1,52.5,0.1,78.8c-0.9-0.8-0.7-1.8-0.7-2.8c0-24.4,0-48.8,0-73.1
		C1192.8,446.5,1193.2,445.5,1193.4,444.6z"/>
	<path class="st24" d="M1198.4,517.5c-1.4-1.1-1-2.7-1-4.2c0-17.8,0-35.7,0-53.5c0-1.4-0.4-3,1-4.1
		C1198.4,476.2,1198.4,496.9,1198.4,517.5z"/>
	<path class="st7" d="M697.5,99.4c-1.2-3.8,1.9-3.1,3.4-2.7c3.3,0.9,6.6,0.7,9.9,0.9C706.4,98.9,702,99.3,697.5,99.4z"/>
	<path class="st18" d="M1257.1,379.9c2.7,0.7,6.4-2.2,8.2,2C1262.5,381.8,1259.7,381.2,1257.1,379.9z"/>
	<path class="st7" d="M713.5,97.4c2.3-0.9,4.4-3.1,7-0.7C718.3,97.6,715.9,97.6,713.5,97.4z"/>
	<path class="st23" d="M436.3,523.5c2,0,3.4-0.5,3.3-3c-0.1-1.4-0.5-2.9,0.9-4c0.1,1.3,0.1,2.6,0.2,3.9
		C441,524.1,439.4,524.9,436.3,523.5z"/>
	<path class="st7" d="M686.5,101.2c2.3-3.3,5.6-1,8.4-1.5C692.2,101,689.3,100.7,686.5,101.2z"/>
	<path class="st25" d="M659.5,519.3c1.4-1.8,2.6-4,5.4-3.7C663.5,517.4,661.9,519,659.5,519.3z"/>
	<path class="st24" d="M1193.5,523.4c1.6,0,3.1-1.4,4.7,0C1196.7,524.5,1195.1,524.5,1193.5,523.4z"/>
	<path class="st24" d="M1199.2,444.7c-2,0-3.9-0.1-5.9-0.1C1195.3,442.9,1197.3,442.9,1199.2,444.7z"/>
	<path class="st26" d="M1237.3,491.7c-1.5-1.1-2.5-2.5-3.3-4.1C1236.1,488.2,1237.4,489.5,1237.3,491.7z"/>
	<path class="st0" d="M118.3,312c4.5-10.1,8.7-19.6,12.9-29.1c4-8.9,8-17.9,12.1-26.8c0.7-1.5,0.9-3.6,3.4-3.7
		c2.4,0,2.9,1.7,3.7,3.4c7.8,17.4,15.6,34.9,23.3,52.3c0.7,1.5,2.9,3.8-1.4,3.8C154.6,311.9,136.9,312,118.3,312z"/>
	<path class="st0" d="M1143.3,484.7c-0.5,20.3-15.7,35.9-34.8,35.5c-19.1-0.4-34.3-17-33.9-37.1c0.4-20.3,15.9-36,34.9-35.4
		C1129.1,448.2,1143.7,464.3,1143.3,484.7z"/>
	<path class="st0" d="M654.6,516.5c-15,6.3-28.9,4.9-40.3-7.1c-10.7-11.3-12.8-25.1-7.5-39.4c5-13.5,15.1-21.1,29.7-22.2
		c20.3-1.5,36.9,15.6,36.3,37.3c-0.2,8.8-3.2,16.5-8.4,23.5c-1.1,1.6-2.3,3-4.1,3.9c-0.7,0.5-1.4,1.1-2.1,1.6
		C657.7,515.7,655.8,515.6,654.6,516.5z"/>
	<path class="st25" d="M660.4,512.4c1.4-1.3,2.7-2.6,4.1-3.9C664.2,510.9,662.9,512.3,660.4,512.4z"/>
	<path class="st25" d="M654.6,516.5c1.3-0.8,2.5-1.6,3.8-2.4C658,516.3,656.4,516.5,654.6,516.5z"/>
	<path class="st0" d="M702.4,253.3c9.6,0.3,21.3-0.4,32.9,0.7c9.9,0.9,13.5,3.8,16.2,13.2c2.1,7,1.8,14.1,0.6,21.2
		c-0.8,4.8-3.7,7.9-8.3,9.7c-8.2,3.1-16.9,3.7-25.5,3.8c-15.1,0.2-30.3,0-45.4,0.1c-3.3,0-4.3-0.9-4.2-4.2c0.2-13.4,0.2-26.9,0-40.3
		c0-3.2,1-4.3,4.3-4.3C682.1,253.5,691.2,253.3,702.4,253.3z"/>
	<path class="st27" d="M849.4,449.8c6.9,15,13.1,28.7,19.5,42.4c1.4,3,1,4.1-2.5,4c-11.3-0.1-22.7,0-34-0.1c-1.7,0-4.6,0.8-2.9-2.9
		C836,479.2,842.4,465,849.4,449.8z"/>
	<path class="st24" d="M1195.5,446.3c-0.5,2.5,0.4,5.1-0.3,7.5C1194.2,451.3,1194.3,448.7,1195.5,446.3z"/>
	<path class="st28" d="M378.5,523.5c-1.2-1-1-2.4-1-3.7c0-20.9,0-41.9,0-62.8c0-0.7,0.2-1.5,1-2.2
		C378.6,477.6,378.6,500.5,378.5,523.5C378.6,523.4,378.5,523.5,378.5,523.5z"/>
</g>
</svg>
