<?xml version="1.0" encoding="UTF-8"?>
<svg id="BMMB_logo" data-name="BMMB logo" xmlns="http://www.w3.org/2000/svg" viewBox="0 0 596 178.67">
  <defs>
    <style>
      .cls-1 {
        fill: #fff;
      }

      .cls-2 {
        fill: #fff;
      }

      .cls-3 {
        fill: #fff;
      }

      .cls-4 {
        fill: #fff;
      }

      .cls-5 {
        fill: #fff;
      }

      .cls-6 {
        fill: #fff;
      }
    </style>
  </defs>
  <path class="cls-5" d="M373.62,87.53l.32.43c2.09,7.75,4.71,15.39,6.07,23.33l7.26-23.76h10.52l2,35.27h-8.01l-.88-27.27-8.3,26.78c-1.07-.2-5.73.33-6.22-.26l-6.88-25.02-1.25,25.76h-7.51l2.25-35.27h10.64Z"/>
  <path class="cls-5" d="M494.18,122.8h-7.76c-.22-4.47.3-9.21.01-13.64-.15-2.35-.72-6.13-3.85-6.03-2.91.09-3.76,2.89-3.93,5.28-.34,4.65.27,9.7,0,14.39h-7.76v-15.63c0-.09-.41-1.56-.49-1.76-1.17-2.94-4.84-2.9-6.33-.29-.16.27-.7,1.61-.7,1.8v15.88h-7.76l-.25-25.51h6.76l.25,3,2.77-2.35c4.07-2.38,9.7-1.7,12.13,2.6,1.07-.55,1.68-1.61,2.69-2.31,6.34-4.38,14.2.17,14.2,7.69v16.88Z"/>
  <path class="cls-1" d="M335.94,85.78l-.25,21.51c.64.14.44-.17.65-.47,2.16-3.07,4.12-6.36,6.11-9.53h10.02l-8.98,10.34,10.23,15.18h-10.02l-5.76-10.25c-3.5,2.23-1.74,6.83-2,10.25h-8.26v-37.02h8.26Z"/>
  <path class="cls-1" d="M324.17,122.8h-8.26v-16.13c0-.13-.49-1.41-.61-1.64-1.5-2.79-5.72-2.13-6.95.6-.08.19-.46,1.22-.46,1.3v15.88h-8.26v-25.51h7.01l.25,3.25c4.59-5.85,14.25-5.34,16.59,2.31.25.82.68,2.8.68,3.57v16.38Z"/>
  <path class="cls-5" d="M410.8,97.29v14.88c0,.86.77,2.95,1.39,3.61,1.3,1.38,3.67,1.27,5.11.13.41-.32,1.51-2.07,1.51-2.49v-16.13h8.26l.25,25.51h-7.26l-.25-3.25c-4.41,5.26-13.69,5.51-16.28-1.62-.15-.42-.74-2.49-.74-2.76v-17.88h8.01Z"/>
  <path class="cls-1" d="M553.27,74.78c1.63.45,4.83.54,6.01-.88.48-.58.17-1.83.31-2.69.75-4.64,7.52-5.54,6.64-.37-.18,1.06-1,1.89-1.19,2.93,2.5.25,4.41-.21,6.38-1.76,2.79-2.2.93-1.73.25-3.51-.42-1.09,1.98-3.22,2.13-4.48.5-.47,1,1.52,1.07,1.8,1.65,6.29-1.97,10.16-7.84,11.58-.99.24-3.97.85-4.75.49-.41-.19-.84-1.17-1.33-1.09-.16.03-1.75,1.05-2.26,1.26-2.63,1.08-5.31,1.86-8.18,1.21v-5.25l-6.09,3.55c-3.85,1.77-9.14,3.5-12.81.45-6.99-5.82,1.69-15.71,7.95-17.81,1.28-.43,1.53.18,2.06,1.31,2.38,5.1.26,9.63-5.63,9.5v-3.5c3.38.36,4.59-.69,2.63-3.75-2.25,1.49-4.8,3.14-6.51,5.25-.94,1.16-.96,1.24-.42,2.68,2.13,5.7,10.35,3.2,14.49,1.37.77-.34,3.77-1.85,4.1-2.4.88-1.46-.22-8.81.28-10.97l2.7-2.68v17.76Z"/>
  <path class="cls-5" d="M567.79,90.28v7h5.76v6h-5.76v10.13c0,.71,1.01,3.13,1.88,3.13h3.63v6.25c-3.25.58-7.19,1.18-10.1-.79s-3.26-5.72-3.43-9.08.14-6.44.01-9.64c-.56-.06-3.26.24-3.26-.37v-5.63h3.25v-4.63c2.46-1.22,5.38-1.57,8.01-2.38Z"/>
  <rect class="cls-5" x="522.72" y="85.78" width="8.01" height="37.02"/>
  <path class="cls-1" d="M475.15,74.28c2.11.87,6.19.15,8-1.14,1.11-.79.52-4.89,3.68-5.03,4.03-.18,3.78,3.78,1.59,6.03-3.4,3.49-11.49,5.63-16.27,5.63v-13.76c-.48-.11-.48.17-.71.42-1.83,2.01-3.28,4.74-5.29,6.72-3.1,3.05-10.55,7.12-14.91,7.12h-4.63l9.68-4.71c4.78-2.7,10.93-7.31,13.65-12.13.55-.97,1.43-3.69,1.84-4.16.26-.3,2.43-1.34,2.85-1.41.27-.04.52.17.52.28v16.13Z"/>
  <path class="cls-1" d="M495.43,75.03c2.63.55,5.35-.15,7.74-1.27-1.14-3.4-1.35-6.61,3.19-6.71,3.72-.09,3.88,3.32,2.59,5.98h3.63c.26,0,3.27-.88,3.37-1.02.15-.21-1.48-3.98.94-4.68,3.35-.97,6.14,2.02,4.29,5.03-2.21,3.58-11.53,4.97-15.41,5.86-.59.04-1.06-1.09-1.44-1.12-.21-.02-2.14,1.1-2.64,1.3-1.71.69-3.79,1.47-5.63,1.63-.51.04-3.38.17-3.38-.37v-21.01c0-.22,2.31-2.13,2.75-2.38v18.76Z"/>
  <path class="cls-1" d="M429.08,67.52c.28-.33.45.05.56.31.93,2.19.1,5.31,3.08,6.18,4.1,1.19,13.18.34,16.61-2.38,1.81-1.43.3-1.5-.11-3.1-.36-1.37,1.26-4.01,2.01-5.25,2.7,3.01,2.41,7.66.08,10.83-3.46,4.72-10.39,5.53-15.85,5.17-4.68-.31-7.61-1.26-7.4-6.64.02-.56.84-4.92,1.01-5.12Z"/>
  <path class="cls-2" d="M462.63,58.52v10.38c-.81,1.15-2.19,1.93-3.25,2.88v-10.88c0-.2,2.75-2.39,3.25-2.38Z"/>
  <path class="cls-2" d="M559.53,60.02c.66-1.06,2.37-4.8,3.6-4.75.6.03,2.16.75,2.53,1.25.92,1.27.12,4.67-1.7,4.21-.67-.17-1.69-1.97-1.82-1.99-.63-.1-1.6,1.1-2.11,1.52-.46.34-.61.36-.5-.25Z"/>
  <path class="cls-6" d="M567.31,82.25c-.21-.3,1.94-3.48,2.38-3.97l2.81,1.87-2.35,3.88-2.84-1.78Z"/>
  <path class="cls-4" d="M443.85,55.77c.11.1-.85,2.75-1,2.75h-5.26c-.05-.41,1.46-2.75,1.63-2.75h4.63Z"/>
  <path class="cls-3" d="M560.03,60.27c-.36.29-.61.88-1.25.75.02-.46.61-.78.75-1l.5.25Z"/>
  <path class="cls-1" d="M198.57,82.82c-3.05-1.43-6.28-2.43-9.27-3.99-8.16-4.25-15.99-11.4-17-21.06l-3.6.02c-.44,3.27-1.52,6.54-3.31,9.32-.24.38-1.64,2.37-1.86,2.41-1.49.31-5.97-9.65-5.47-11.51-.32-.48-2.9-.17-3.61-.2-.73,4.52-2.53,8.85-5.67,12.22-2.63-2.98-4.37-6.35-5.27-10.24-.12-.52-.03-1.49-.22-1.78-.22-.32-3.04-.35-3.49-.2-.51.17-.59,2.26-.78,2.97-.75,2.7-2,5.34-3.68,7.58-1.96,2.61-1.88,2.31-3.77-.4-2.1-3.02-3.47-6.51-3.98-10.15-.71.03-3.29-.28-3.61.2-.1.15-.54,2.87-.74,3.52-.43,1.41-3.56,8.24-4.78,8.49-1.44.3-4.94-7.91-5.34-9.39-.14-.5-.44-2.74-.55-2.83-.13-.11-3.27-.08-3.5.08-.23.17-1.1,4.55-1.48,5.53-5.83,15.07-24.73,17.13-36.18,26.39-8.51,6.88-15.2,18.1-14.4,29.38.04.6.23,2.7.66,2.84l18.62-.22c-2.37-16,8.77-28.36,22.19-34.98,3.35-1.65,6.96-2.76,10.27-4.49,3.38-1.76,6.58-4.02,9.47-6.49.21-.02,3.08,2.25,3.39,2.56.15.15.59.41.38.63-6.19,2.77-12.16,5.08-17.73,9.05-10.7,7.63-18.54,20.39-16.16,33.93l18.26-.08c.13-2.39-.2-4.86,0-7.26,1.14-14.34,14.61-25.14,27.16-29.88.35.15,3.11,1.14,2.88,1.48-7.31,4.25-13.74,11.01-17.07,18.84-1.98,4.66-3.16,10.75-2.44,15.78.05.33.16.63.35.9l47.95-.13v-7c0-.85-.8-3.67-1.07-4.68-2.73-10-10.31-18.64-19.21-23.71.2-.39,1.09-.7,1.51-.86.63-.25,1.43-.7,2.1-.63.83.08,4.9,2.1,5.91,2.62,13.06,6.74,23.77,19.01,21.78,34.65l19.12-.04c.21-.05.31-.18.38-.37.07-.22.31-3.03.31-3.47-.03-15.89-12.53-28.63-25.97-35.11-1.26-.61-10.1-4.03-10.1-4.66l3.59-2.86c7.03,7.11,16.97,9.01,25.18,14.14,11.11,6.95,18.42,16.93,18.06,30.5-.01.39-.52,1.87.11,1.87h17.9c2.07-18.01-10.9-32.08-26.2-39.23ZM91.34,86.43c-11.14,7.04-19.16,18-19.3,31.62h-11.27c-.02-14.74,10.45-25.38,22.94-31.48,3.47-1.7,7.19-2.83,10.62-4.65,6.66-3.54,13.32-9.05,16.27-16.14l5,7.13c-6.84,6.64-16.37,8.54-24.26,13.53ZM138.24,71c1.02-1.42,1.78-3.34,2.69-4.57.15-.21.24-.49.59-.41.2.05,1.78,3.09,2.13,3.63.43.67,2.53,3.07,2.23,3.59-.08.14-2.28,1.74-2.64,1.99-.47.33-1.74,1.28-2.21,1.28-.59,0-4.63-3.07-4.63-3.36.61-.66,1.33-1.42,1.85-2.15ZM143.4,82.28c-1.76,1.74-2.94,1.61-5.01.49-.19-.24,2.29-1.48,2.65-1.5.76-.04,1.51,1.02,2.36,1.01ZM121.12,73.27v-.36c1.84-2.14,3.57-4.45,4.51-7.14,1.76,2.45,3.03,5.27,5.25,7.38l-4.67,3.59-5.09-3.47ZM128.63,82.78c-10.88,4.9-20.85,13.43-24.6,25.07-1.09,3.37-1.47,6.67-1.69,10.2h-11.02c.04-13.13,8.43-23.32,19.36-29.56,4.95-2.83,10.42-4.62,15.53-7.15.29.13,2.63,1.16,2.42,1.44ZM133.51,80.54c-1.08,0-2.49-1.38-3.63-1.52l3.67-2.98,3.59,2.49c.44.61-3.17,2.01-3.63,2.01ZM145.83,91.23c8.73,6.16,15.61,15.73,15.59,26.82h-40.69c-.26,0-.39-.58-.39-.86.06-8.6,5.26-17.46,11.53-23.03,1.36-1.21,7.43-5.89,8.89-5.89.77,0,4.2,2.35,5.06,2.96ZM144.9,79.03c-.07-.35-.05-.32.16-.52.32-.3,3.49-2.73,3.72-2.73l3.63,2.51c-2.57,2.16-4.57,2.52-7.51.74ZM161.26,83.57c3.69,1.61,7.3,2.91,10.85,4.92,11.01,6.23,19.49,16.46,20.11,29.56h-11.64c-.4,0-.57-3.58-.7-4.3-2.23-12.96-10.49-22.06-21.54-28.5-1.6-.93-3.39-2.02-5.18-2.46-.44-.47,2.26-1.72,2.65-1.75.79-.05,4.38,2.08,5.45,2.54ZM156,76.24l-4.31-2.99c-.13-.23-.03-.5.09-.72.45-.83,1.82-2.25,2.48-3.27.4-.61,1.51-3.12,1.65-3.23.23-.17.46.1.61.26.47.51,1.35,2.55,1.88,3.37.67,1.05,1.59,1.91,2.2,3-.02.29-4.12,3.54-4.61,3.58ZM210.75,118.05c-.39-4.2-1.09-8.26-2.71-12.17-4.52-10.9-14.07-18.42-24.49-23.31-6.01-2.82-12.96-4.93-17.35-10.13,1.66-1.95,3.06-4.08,4.11-6.42.34-.07.43.2.59.42.77,1.06,1.41,2.59,2.24,3.77,9.39,13.36,24.43,13.7,35.86,23.7,7.06,6.18,12.08,14.51,12.27,24.14h-10.52Z"/>
  <path class="cls-1" d="M268.82,105.44c-1.06-.8-2.26-1.08-3.23-1.89,5.59-1.53,7.36-8.82,3.23-12.86-5.01-4.9-16.13-3.31-22.52-2.79l-.12,34.67c.37.52,5.82.45,6.79.47,4.8.1,10.75.22,14.97-2.53,5.23-3.41,6.04-11.17.9-15.07ZM254.07,93.29h5.63c1.56,0,1.71.59,2.38,1.37,1.94,2.26.92,5.36-1.76,6.26-.92.31-1.92.63-2.13.63h-4.13v-8.25ZM263.38,114.22c-1.35,3.12-6.44,3.25-9.31,2.83v-9.75h4.63c.43,0,2.34.67,2.81.95,2.21,1.3,2.89,3.62,1.87,5.98Z"/>
  <path class="cls-1" d="M296.38,116.67c-.05-4.27.57-10.93-1.2-14.81-3.26-7.14-14.43-5.87-20.33-3.07l1.51,5.25c3.36-1.43,11.01-3.96,11.77,1.5-6.1.22-14.4,1.66-14.99,9.16-.7,8.85,10.4,11.34,15.74,5.6.25.81.04,1.91.63,2.5h7.14c-.33-2.03-.23-4.07-.25-6.12ZM288.37,114.67c0,.36-.91,1.68-1.27,1.99-2.18,1.87-6.01,1.35-6.01-1.99,0-3.59,4.51-4.05,7.28-3.88v3.88Z"/>
  <path class="cls-5" d="M452.11,115.67c-.04-3.49.28-7.46-.31-10.94-1.4-8.16-9.39-8.96-16.21-7.57-.86.17-3.99,1.01-4.51,1.5-.7.67,1.04,4.29,1.01,5.38,3.34-1.44,11.1-3.92,11.77,1.5-5.37.27-12.88,1.19-14.59,7.31-2.69,9.61,8.83,13.73,15.22,7.7.46.03.47,2.24.62,2.24h7.26c-.29-2.38-.22-4.73-.25-7.13ZM444.1,114.92c0,.28-1.67,2.03-2.01,2.24-2.23,1.37-5.26.33-5.27-2.49-.01-3.37,4.69-4.1,7.28-3.88v4.13Z"/>
  <path class="cls-5" d="M555.76,119.18c-.13-4.22.35-8.87,0-13.01-.75-9.14-8.61-10.61-16.32-9.06-1.61.32-3.34,1.01-4.85,1.67-.36.5,1.29,4.3,1.15,5.26,3.59-1.33,10.95-4.07,12.02,1.5-4.24.37-8.83.55-12.25,3.4-5.26,4.39-2.88,13.66,4.11,14.36,3.45.35,6.15-.54,8.76-2.75.24,0,.26,2.25.38,2.25h7.26c.22-1.23-.22-2.48-.26-3.62ZM546.38,116.8c-2.95,2.31-7.11,0-5.48-3.47,1.17-2.5,4.71-2.64,7.11-2.53,0,2.05.13,4.62-1.63,6Z"/>
  <path class="cls-5" d="M518.96,115.18c-.38-4.95,1.31-11.03-2.11-15.15-3.34-4.01-9.47-3.87-14.15-2.88-.73.16-4.14,1.14-4.51,1.5-.74.71,1.12,4.24,1.01,5.38,1.76-.45,3.33-1.45,5.2-1.69,2.67-.34,6.59-.36,6.57,3.19-5.44.25-13.28,1.36-14.7,7.7-2.11,9.37,9.18,13.28,15.33,7.31.45,0,.47,2.25.63,2.25h7.26l-.51-7.62ZM511.2,114.67c0,.37-.91,1.67-1.27,1.98-2.17,1.93-6.01,1.21-6.01-1.98,0-3.35,4.68-4.15,7.28-3.88v3.88Z"/>
</svg>