<?xml version="1.0" encoding="UTF-8"?>
<svg id="Crawford_software" data-name="Crawford software" xmlns="http://www.w3.org/2000/svg" viewBox="0 0 2023.52 763.4">
  <defs>
    <style>
      .cls-1 {
        fill: #fff;
      }

      .cls-2 {
        fill: #fff;
      }

      .cls-3 {
        fill: #fff;
      }

      .cls-4 {
        fill: #fff;
      }

      .cls-5 {
        fill: #fff;
      }

      .cls-6 {
        fill: #fff;
      }
    </style>
  </defs>
  <path class="cls-6" d="M429.73,518.88c.78,0,1.99.21,2,.69.64,33.89,1.05,70.42,0,104.34.69,3.95.02,6.54-2,7.77l-216.66-123.98c.5-37.92-1.66-75.76-.72-113.59l217.38,124.77Z"/>
  <path class="cls-2" d="M212.86,256.35l217.53-125.61,94.26,54.24-208.93,128.69c-1.11,1.16-.84,2.6-.98,4.01-3.68,36.67,2.87,79.52.06,116.84-.54,1.42-.95-.47-1-.5-1.07-.79-1.74-1.69-2-2.69l-.16-116.71-97.42-55.21-1.36-3.07Z"/>
  <path class="cls-3" d="M552.66,562.8l-2.1.47c-.72-83.61-.81-166.73-.26-249.34l-1.12-2.59c29.93-18.11,60.28-35.46,91.05-52.05l8.63-2.13c.55,22.03.46,44.06-.26,66.08.09,61.32.07,122.68-.17,184l-5.16,3.83c-30.34,14.64-60.23,38.12-90.61,51.74Z"/>
  <path class="cls-2" d="M648.6,323.23c-.03-21.94.03-43.93,0-65.88-33.68,16.4-65.1,37-97.93,54.93,1.6,10.93,1.26,23.21,1.04,34.45-1.39,69.67-3.37,142.99-1.04,212.62.06,1.92-1.02,4.01,2,3.45-.61.27-2.03,2.24-3,.5l.05-250.38-104.97-61.04,95.94-57.99,108.44,62.46c.68,20.43.76,40.97.5,61.42-.02,1.69.64,4.44-1.02,5.48Z"/>
  <path class="cls-1" d="M429.73,380.13l2.39,1.37c3.17,38.18,3.73,76.68,1.71,115.5-1.15,1.57-2.35,3.01-4.1,1.92l-101.73-58.1-.25-109.14c.75-2.6.55-6.04,1.04-8.45l5.08,1.17c31.28,16.29,61.97,33.68,92.07,52.17l3.8,3.55Z"/>
  <path class="cls-6" d="M212.86,256.35l100.78,57.05.16,120.62c-34.11-16.96-67.02-39.43-100.44-57.89l-.49-119.79Z"/>
  <path class="cls-4" d="M533.67,323.23c-1.78,1.97-3.63,3.96-5.94,5.31-27.42,16.04-55.61,32.29-82.93,47.6-2.21,1.24-11.68,6.32-13.54,5.91-.78-.17-1.22-1.1-1.53-1.92-34.07-18.17-66.79-39.06-100.94-56.9.14-.66-.46-1.66.62-2.08l101.82-57.44,100.82,57.69,1.61,1.83Z"/>
  <path class="cls-6" d="M533.67,323.23l-.49,117.79-101.99,58.87-1.45-.98c3.02.56,1.93-1.52,2-3.45,1.07-32.04,1.61-70.04.05-101.91-.21-4.21-.98-9.35-2.05-13.43,3.57.54,15.65-6.65,19.66-8.81,28.37-15.32,55.52-33.6,84.28-48.08Z"/>
  <path class="cls-3" d="M429.73,631.68v-112.8l104.94-62.89v115.29c0,.51-1.52,2.31-2.09,2.9l-101.38,58.47-1.47-.99Z"/>
  <path class="cls-5" d="M1274.22,398.1c5.7,23.42,11.61,46.92,18.27,70.09,1.68,5.84,3.97,13.94,5.61,19.79,0,0,1.06-.01,1.26,0l28.96-89.74c4.25-.11,21.49-.32,24.37-.15l28.53,88.81,2.93.05,24.18-88.66c3.82-.2,19.46-.98,24.8-1.17l-39.59,130.82c-6.47-.94-19.27,2.42-23.25-3.68l-30.61-94.21-30.97,96.85c-2.73.17-17.01.62-21.52.5l-39.96-129.28h26.98Z"/>
  <path class="cls-3" d="M1293.79,233.74s-.73,7.01-.85,7.75c-2.83,18.04-24.21,81.34-35.67,122.21l-21.93.36-30.58-97.73-30.88,96.28c-2.23-.31-21.04-.49-21.04-.49l-37.52-128.72,25.89,1.09,23.09,90.74,2.09-1.41,27.97-88.85c3.78-.13,21.23-.38,23.8-.48l29.07,91.73,25.49-92.83c1.69.21,20.62.23,21.07.35Z"/>
  <path class="cls-5" d="M1718.95,398.1h89.95s-1.01,19.96-1.01,19.96l-64.95,1.01v30.94h61.96v19.46c0,.11-1.39,1.5-1.5,1.5h-58.96c-.11,0-1.5,1.39-1.5,1.5v33.44h67.96v21.96h-91.94v-129.77Z"/>
  <path class="cls-5" d="M786.29,394.38c15.57-1.62,34.21,2.94,46.18,13.2l-17.47,17.44c-11.59-14.5-51.39-13.27-45,11.04,2.65,10.08,27.43,14.72,36.49,18.45,23.76,9.78,34.59,30.34,21.52,54.4-14.98,27.59-63.42,27.77-84.93,7.94-1.32-1.22-4.2-2.99-3.1-4.98l17.06-14.99c11.21,9.68,23.41,15.56,38.45,10.49,10.61-3.58,16.82-17.67,8.07-25.97-14.96-14.21-47.63-9.39-57.5-34.4-11.39-28.85,13.37-49.82,40.24-52.62Z"/>
  <path class="cls-3" d="M858.47,343.22c.89,1.3-6.55,8.24-7.98,9.48-47.86,41.29-122.02-4.75-107.65-70.59,11.12-50.92,77.37-69.73,112.62-31.24l-16.61,13.33c-10.74-6.9-20.02-14.12-33.73-12.71-58.01,5.96-49.75,103.99,12.65,93.48,8.64-1.45,15.53-9.59,22.21-14.48l18.49,12.74Z"/>
  <path class="cls-5" d="M1105.32,397.1v21.9c-5.2.04-9.1.01-13.45.1-15.42.3-17.18-.24-31.41.16-8.1.23-17.93.28-17.93.28l-.18,29.97c0,.54.38,2.22-.16,3.49h60.13v20.96h-59.96v53.9h-22.49l-.5-129.77,85.95-.99Z"/>
  <polygon class="cls-3" points="1397.15 234.39 1396.15 254.36 1335.18 255.36 1335.18 288.3 1393.15 288.3 1393.15 309.26 1335.18 310.26 1335.18 364.16 1312.2 364.16 1312.2 234.39 1397.15 234.39"/>
  <polygon class="cls-5" points="1233.25 398.1 1233.25 418.06 1192.27 419.06 1192.27 527.86 1168.28 527.86 1168.28 419.06 1126.31 419.06 1126.31 398.1 1233.25 398.1"/>
  <path class="cls-5" d="M915.24,394.4c-85.95,7.58-83.48,130.61.71,136.44,36.88,2.55,74.95-20.36,78.42-59.4,4.42-49.62-30.27-81.36-79.14-77.05ZM920.06,509.76c-55.65-3.89-57.17-87.69-3.87-94.44,69.85-8.84,70.51,99.1,3.87,94.44Z"/>
  <path class="cls-3" d="M1476.89,230.7c-44.97,3.04-71.03,40.88-62.11,84.4,13.98,68.16,115.95,69.44,133.98,3.36,13.44-49.25-21.19-91.18-71.87-87.76ZM1514.72,332.86c-18.8,20.03-54.8,17.01-69.44-6.3-22.73-36.16,5.12-85.32,49.59-73.48,33.43,8.9,42.3,55.86,19.86,79.78Z"/>
  <path class="cls-3" d="M1762.96,235.86c-14.91-3.2-50.4-4.29-65.55-2.51-1.01.12-3.45.45-3.45,1.55v129.27c30.26-1.02,63.78,4.77,90.25-13.17,44.23-29.97,32.61-103.59-21.26-115.14ZM1785.4,312.24c-7.61,29.92-42.85,31.84-68.45,30.95v-88.84h25.48c32.42,0,50.67,27.6,42.96,57.89Z"/>
  <path class="cls-5" d="M1655,470.46c20.17-3.8,32.92-18.95,30.96-39.91-2.65-28.41-30.19-32.48-53.41-33.5-14.49-.63-29.1.29-43.52,1.05v129.77h22.49c.11,0,1.5-1.39,1.5-1.5v-54.4h16.49c3.25,0,26.75,50.47,32.98,55.9h27.48l-34.97-57.4ZM1636.5,453h-23.49v-35.94c7.97.47,16.59-.63,24.49,0,2.26.18,7.3.94,9.54,1.45,18.88,4.24,18.42,28.06,1.39,32.43-2.51.65-9.77,2.05-11.93,2.05Z"/>
  <path class="cls-3" d="M940.45,307.75c5.66-3.21,12.17-4.44,17.47-8.48,16.48-12.56,17.07-42.41.41-55.31-17.6-13.64-53.06-10.54-74.37-9.56-1.31.06-4.97.29-7.5.49v129.27h22.99v-54.9h17.99l28.98,54.9h28.98l-34.96-56.4ZM921.93,289.29h-22.49v-34.94c5.87-.73,11.58-1.2,17.54-1.05,6.23.16,17.51,1.04,22.6,4.38,10.6,6.96,8.52,24.13-3.44,28.82-2.22.87-12.07,2.78-14.21,2.78Z"/>
  <path class="cls-3" d="M1639.98,307.77c-.36-2.15.47-1.2,1.43-1.59,14.72-6,25.7-9.72,27.56-28.37,3.66-36.63-21.96-43.09-52.41-44.46-13.49-.61-27.11.23-40.52,1.05v129.77h22.99v-53.4c0-.11,1.39-1.5,1.5-1.5h14.99l30.98,54.9h27.48l-34-56.39ZM1621.51,289.29h-22.49v-34.94c5.58-.38,10.87-1.16,16.54-1.04,5.81.11,17.29,1.07,22.15,3.83,11.17,6.34,9.86,24.3-2.17,29.19-2.5,1.02-11.62,2.96-14.03,2.96Z"/>
  <path class="cls-5" d="M1561.22,521.2c-14.57-37.03-34.41-79.9-51.97-115.79-.74-1.51-2.93-6.67-3.66-7.32,0,0-7.29-.05-11.09.11-3.83.17-10.7.54-10.7.54l-56.2,125.1-.47,4.02h25.98l11.89-29.33c19.31-1.34,39.36-.4,58.93-.48l12.13,29.81h26.98c.15-2.42-.98-4.51-1.82-6.66ZM1474.1,477.95l21.48-51.91,19.5,51.91h-40.98Z"/>
  <path class="cls-3" d="M1055.89,235.76c-2.53.19-20.31.08-20.31.08l-55.19,128.33h25.48l11.61-29.83c18.91.12,38.31-.85,56.96.5l12.39,29.33h26.48l-57.42-128.4ZM1025.37,314.25l20-52.9,20.98,52.9h-40.98Z"/>
</svg>