<?xml version="1.0" encoding="UTF-8"?>
<svg id="Layer_1" data-name="Layer 1" xmlns="http://www.w3.org/2000/svg" viewBox="0 0 3021 1404">
  <defs>
    <style>
      .cls-1 {
        fill: #fff;
      }
    </style>
  </defs>
  <path class="cls-1" d="M1635.4,1310.89l416.2-29.02c231.45-25.41,461.77-66.09,686.62-125.09,20.46-43.75,36.11-90.1,48.69-136.8,17.47-64.82,27.74-132.09,35.12-198.13,2.12-18.77,2.99-37.57,3.16-56.45.35-6.75.83-31.13.95-36.02,0-13.22,0-27.12-.4-40.6l.21-3.83-1.03-22.57-.84-10.05c-.38-9.3-1.06-18.54-2.06-27.74-13.23-102.22-24.69-194.08-54.98-293.36-7.87-25.8-16.72-54.24-29.41-77.46-281.98-83.81-574.66-133.77-868.84-153.13-41.24-2.71-83.12-5.08-124.4-6.19l-49.36-2.05c-2.74,0-5.48,0-8.23,0-9.02-.07-28.74-.62-41.97-.66,0,0-22.95-1.17-23.84-1.4-1.37-.02-2.74.02-4.11,0-19.76-1.37-39.56-1.71-59.4-1.02-23.48-.66-55.33.46-74.27,1.02-2.09.03-4.22-.04-6.17,0-11.91.39-35.96.64-39.15.74-12.67.99-22.79,1.08-32.83,1.31-1.3.01-6.17,0-6.17,0-198.57,6.46-398.59,25.04-595.08,53.72-176.34,25.74-351.42,60.63-523.27,106.96-21.42,52.86-41.02,106.7-54.56,162.28-14.92,61.24-23.82,123.92-30.18,186.63-.21,4.23-.64,8.87-.93,12.36-.53,6.89-1.13,14.98-1.13,19.48v92.47c0,11.22,2.51,24.89,2.06,38.01-.07,2.05.13,4.12,0,6.16,8.07,124.31,33.46,249.44,80.21,365.75,2.04,3.05,4.74,8.44,7.64,9.84,340.09,99.34,697.78,156.28,1053.19,164.63,2.86.07,295.68.13,298.54.19M1349.13,1315.03s13.16-.69,39.48-2.08M2683.82,1094.74c-198.28,49.38-400.17,85.35-603.43,109.05-533.88,62.25-1093.4,46.27-1615.59-84.59-36.31-9.1-79.86-19.07-114.72-31.27-5.88-2.06-11.51-1.94-14.9-7.71-5.17-8.81-12.97-37.71-16.51-49.26-69.45-226.67-69.96-494.7,19.12-715.56,142.59-36.85,287.45-66.58,433.19-89.1,630.72-97.48,1289.3-86.38,1905.54,86.49,10.65,3.21,13.19,20.67,16.51,30.77,11.04,33.59,20.16,71.32,27.61,105.98,45.67,212.52,43.3,441.51-36.8,645.2Z"/>
  <path class="cls-1" d="M1849.28,719.11c-30.78,107.33-14.46,221.13-18.41,331.53-80.17,33.29-167.01,55.27-254.1,60.92-217.52,14.12-432.11-82.24-477.17-312.23-35.62-181.79,51.97-346.96,209.49-436.04,160.02-90.5,341.71-67.59,513.47-28.41l-43.23,175.64-3.05,5.13c-75.66-80.71-166.87-156.13-285.6-141.48-244.07,30.13-266.5,390.96-136.97,551.39,55.51,68.75,180.9,145.14,270.75,108.3,60.79-24.93,84.26-142.08,67.44-197.57-17.19-56.7-146.32-86.56-197.41-102.76l-38.01-14.42h392.8Z"/>
  <path class="cls-1" d="M2550.57,394.48l-33.95,151.99c-51.96-51.26-104.91-108.39-181.24-118.87-160.11-21.99-249.7,123.83-241.36,267.87,11.76,203.22,166.43,342.56,372.67,279.93,28.99-8.8,53.79-25.85,81.8-36.4l-24.63,83.24c-44.12,13.25-90.82,20.27-136.82,23.57-88.37,6.34-179.87,1.63-260.87-37.26-304.63-146.25-204.02-560.93,103.92-633.25,106.32-24.97,215.54-1.44,320.47,19.18Z"/>
  <path class="cls-1" d="M1036.79,394.63l-30.72,153.93c-55.62-53.4-106.46-111.72-188.18-121.21-175.84-20.42-255.3,153.26-232.83,304.55,26.86,180.81,164.06,291.82,348.67,248.82,38.55-8.98,67.28-27.53,103.2-41.73l-25.14,83.75c-43.44,12.34-89.13,19.72-134.26,23.06-69.15,5.12-139.63,3.97-206.66-15.39-356.36-102.93-296.09-570.72,44.36-654.3,106.05-26.03,216.42-2.07,321.55,18.52Z"/>
</svg>