<?xml version="1.0" encoding="utf-8"?>
<!-- Generator: Adobe Illustrator 27.8.0, SVG Export Plug-In . SVG Version: 6.00 Build 0)  -->
<svg version="1.1" id="layer" xmlns="http://www.w3.org/2000/svg" xmlns:xlink="http://www.w3.org/1999/xlink" x="0px" y="0px"
	 viewBox="0 0 1652.4 524.6" style="enable-background:new 0 0 1652.4 524.6;" xml:space="preserve">
<style type="text/css">
	.st0{fill:#fff;}
</style>
<path class="st0" d="M456.4,371.7c-16.4,0-29.4,12.3-29.4,28.6c0,16.9,13,29.4,29.4,29.4c16.4,0,28.6-13,28.6-29.4
	C485.9,384.5,473.3,371.7,456.4,371.7z M456.4,423.1c-11.8,0-21-9.7-21-22.2c0-12.3,9.2-21.5,21-21.5s21,9.2,21,21.5
	C477.4,413.4,468.2,423.1,456.4,423.1z M408.9,373h7.9v36.6c0,12.3-9.2,21-22.2,21c-13,0-22.2-8.4-22.2-21V373h7.9v36.6
	c0,8.4,5.9,13.8,14.3,13.8s14.3-5.1,14.3-13.8L408.9,373L408.9,373z M652.1,400.9h16.4v28.6h-7.2v-3.3c0-1.3,0-2.6,0-2.6l0,0
	c0,0-5.9,7.2-17.6,7.2c-15.1,0-28.1-11.8-28.1-29.4c0-16.4,12.3-29.4,28.6-29.4c13.8,0,21,6.4,21,6.4l-3.3,5.9c0,0-6.4-5.1-15.6-5.1
	c-13,0-21.5,9.7-21.5,21.5c0,13,9.2,22.2,21,22.2c9.7,0,16.4-7.2,16.4-7.2v-8.4h-9.2v-6.4L652.1,400.9z M533.4,373h7.9v36.6
	c0,12.3-9.2,21-22.2,21c-13,0-22.2-8.4-22.2-21V373h7.9v36.6c0,8.4,5.9,13.8,14.3,13.8c8.4,0,14.3-5.1,14.3-13.8L533.4,373
	L533.4,373z M616.3,227.5l-2.6,2.6c-1.3,1.3-34.5,34.5-46.3,67.8c-3.8,0-50.1,0-58,0c13-49.6,77-100.5,77.5-101l3.3-2.6l-3.3-2.6
	c-0.8-0.8-56-47.1-77-99c8.4,0,54.7,0,58.6,0c13.8,41.2,43,65.2,44.2,65.7l2,2l2-2c1.3-1.3,31.2-25.3,45.5-65.7c3.8,0,50.1,0,58.6,0
	c-22.2,52.2-77.5,98.5-78.2,99l-3.3,2.6l3.3,2.6c0.8,0.8,64.4,50.9,78.8,101c-7.9,0-53.4,0-58,0c-11-32.5-45.5-66.5-47.1-67.8
	L616.3,227.5L616.3,227.5z M588.1,414.7c0,8.4-6.4,15.6-18.2,15.6c-11.8,0-18.9-7.2-18.9-7.2l4.6-5.9c0,0,5.9,5.9,14.3,5.9
	c5.1,0,9.7-3.3,9.7-8.4c0-12.3-27.4-9.7-27.4-26.6c0-8.4,7.9-15.6,18.2-15.6c10.5,0,16.4,5.9,16.4,5.9l-3.8,6.4
	c0,0-5.1-4.6-12.3-4.6c-5.9,0-10.5,3.8-10.5,8.4C560.8,399.1,588.1,395.8,588.1,414.7L588.1,414.7z M289.7,373h7.9v56.8h-7.9V373z
	 M218.6,373h7.9v56.8h-7.9l-25.3-36.6c-2-3.8-4.6-8.4-4.6-8.4l0,0c0,0,0.8,5.1,0.8,8.4v36.6h-7.9V373h7.9l25.3,36.6
	c2,3.3,4.6,8.4,4.6,8.4l0,0c0,0-0.8-5.1-0.8-8.4V373z M397.1,301.9c43.7,0,71.6-18.2,81.6-26.1c-6.4-3.3-29.4-14.3-32.5-16.4
	c-4.6,5.1-19.4,10.5-44.2,10.5c-30.7,0-43.7-13-43.7-57.3v-3.3h3.3c50.1,0,88-9.2,120.7-29.9c0.8-2.6,2.6-11,2.6-18.2
	c0-34-22.8-72.9-86.7-72.9c-67.8,0-101,35.3-101,106.9C296.9,270,326.8,301.9,397.1,301.9L397.1,301.9z M358,180
	c0-31.2,4.6-61.9,41.2-61.9c18.9,0,32,9.2,32,32.5c0,7.2-3.8,15.1-3.8,15.6l-0.8,1.3l-2,1.3c-18.2,9.7-28.1,15.1-63.2,15.1H358V180z
	 M688.6,422.4H714v7.2h-33.2v-56.8h7.9V422.4L688.6,422.4z M253.7,193c0-72.4-36.6-107.7-110.7-107.7c0,0-74.4,0-80.8,0
	c0,6.4,0,209.2,0,216.3c16.4,0,80.8,0,80.8,0C217.3,301.2,253.7,266.1,253.7,193L253.7,193z M121.5,118.8c0,0,3.8,0,23.5,0
	c5.1,0,10.5,0.8,16.4,2.6c18.9,9.7,28.1,28.6,28.1,72.4c0,48.3-11,67.8-34.5,74.9l0,0l-9.7,0.8c-19.4,0-23.5,0-23.5,0V118.8H121.5z
	 M141.1,371.7c-16.4,0-29.4,12.3-29.4,28.6c0,16.9,13,29.4,29.4,29.4s28.6-13,28.6-29.4C169.8,384.5,157.3,371.7,141.1,371.7z
	 M141.1,423.1c-11.8,0-21-9.7-21-22.2c0-12.3,9.2-21.5,21-21.5s21,9.2,21,21.5C161.9,413.4,152.1,423.1,141.1,423.1z M350.3,373h7.9
	v56.8h-7.9L325,393.2c-2-3.3-4.6-8.4-4.6-8.4l0,0c0,0,0.8,5.1,0.8,8.4v36.6h-7.9V373h7.9l25.3,36.6c2,3.3,4.6,8.4,4.6,8.4l0,0
	c0,0-0.8-5.1-0.8-8.4V373z M100.7,416l4.6,5.9c0,0-7.9,9.2-22.2,9.2c-16.9-0.8-28.6-13.8-28.6-29.9c0-16.9,12.3-29.4,28.6-29.4
	c13.8,0,21,7.2,21,7.2l-3.8,6.4c0,0-6.4-5.9-16.4-5.9c-12.3,0-21,9.7-21,21.5c0,12.3,8.4,22.2,21,22.2
	C94.1,423.1,100.7,416,100.7,416L100.7,416z M235,373H282v7.2h-19.4v49.6h-7.9v-49.6H235V373L235,373z M1457.1,373h7.9v56.8h-7.9
	l-25.3-36.6c-2-3.3-4.6-8.4-4.6-8.4l0,0c0,0,0.8,5.1,0.8,8.4v36.6h-7.9V373h7.9l25.3,36.6c2,3.3,4.6,8.4,4.6,8.4l0,0
	c0,0-0.8-5.1-0.8-8.4V373z M1396.5,373h7.9v56.8h-7.9V373z M1304.4,371.7c-16.4,0-29.4,12.3-29.4,28.6c0,16.9,13,29.4,29.4,29.4
	c16.4,0,28.6-13,28.6-29.4C1333.8,384.5,1320.8,371.7,1304.4,371.7z M1304.4,423.1c-11.8,0-21-9.7-21-22.2c0-12.3,9.2-21.5,21-21.5
	c11.8,0,21,9.2,21,21.5C1325.4,413.4,1316.2,423.1,1304.4,423.1z M1372.2,405L1372.2,405c5.9-2,10.5-8.4,10.5-15.6
	c0-7.2-3.8-13-9.7-15.1c-2-0.8-4.6-1.3-10.5-1.3h-17.6v56.8h7.9V407h12.3l11.8,22.8h9.2l-11.8-22.2
	C1372.9,405.5,1372.2,405,1372.2,405L1372.2,405z M1364.5,399.6h-11v-20.2h9.2c4.6,0,6.4,0.8,7.9,1.3c2.6,1.3,4.6,4.6,4.6,8.4
	C1374.2,395.8,1370.4,399.6,1364.5,399.6L1364.5,399.6z M1225.6,373h47.1v7.2h-19.4v49.6h-8.2v-49.6h-19.4V373L1225.6,373z
	 M1512.3,400.9h16.4v28.6h-7.2v-3.3c0-1.3,0-2.6,0-2.6l0,0c0,0-5.9,7.2-17.6,7.2c-15.1,0-28.1-11.8-28.1-29.4
	c0-16.4,12.3-29.4,28.6-29.4c13.8,0,21,6.4,21,6.4l-3.8,5.9c0,0-6.4-5.1-15.6-5.1c-13,0-21.5,9.7-21.5,21.5c0,13,9.2,22.2,21,22.2
	c9.7,0,16.4-7.2,16.4-7.2v-8.4h-9.2L1512.3,400.9L1512.3,400.9z M1585.4,99.9c-2-3.8-5.1-7.2-9.2-9.2c-3.8-2-7.9-3.3-11.8-3.3
	c-3.8,0-7.9,1.3-11.8,3.3c-3.8,2-7.2,5.1-9.2,9.2c-2,3.8-3.3,7.9-3.3,12.3c0,3.8,1.3,8.4,3.3,11.8c2,3.8,5.1,6.4,9.2,9.2
	c3.8,2,7.9,3.3,11.8,3.3c3.8,0,8.4-1.3,11.8-3.3c3.8-2,6.4-5.1,9.2-9.2c2-3.8,3.3-7.9,3.3-11.8C1588.5,107.6,1588,103.8,1585.4,99.9
	z M1582.1,121.9c-2,3.3-4.6,5.9-7.2,7.2c-3.3,2-6.4,2.6-9.7,2.6s-7.2-0.8-9.7-2.6c-3.3-2-5.9-4.6-7.9-7.2c-2-3.3-2.6-6.4-2.6-9.7
	c0-3.3,0.8-7.2,2.6-10.5c2-3.3,4.6-5.9,7.9-7.2c3.3-2,6.4-2.6,9.7-2.6s6.4,0.8,9.7,2.6c3.3,2,5.9,4.6,7.9,7.2
	c2,3.3,2.6,6.4,2.6,10.5C1584.7,115.5,1584.2,118.8,1582.1,121.9L1582.1,121.9z M1569.1,114.8c-0.8-0.8-1.3-1.3-2-1.3
	c2,0,3.8-0.8,5.1-2.6c1.3-1.3,2-3.3,2-5.1c0-1.3-0.8-2.6-1.3-3.8c-0.8-1.3-2-2-3.3-2.6c-1.3-0.8-3.3-0.8-6.4-0.8h-9.2v26.1h3.8
	v-10.5h2.6c1.3,0,2.6,0,3.3,0.8c1.3,0.8,2.6,2.6,4.6,5.9l2.6,3.8h5.1l-3.3-4.6C1571.1,118.1,1569.8,116,1569.1,114.8L1569.1,114.8z
	 M1563.2,110.9h-5.1V103h4.6c2,0,3.3,0,3.8,0.8c0.8,0,1.3,0.8,2,1.3c0.8,0.8,0.8,1.3,0.8,2c0,0.8-0.8,2-1.3,2.6
	C1567.8,110.1,1565.7,110.9,1563.2,110.9L1563.2,110.9z M1209.3,373h7.9v56.8h-7.9V373z M1470.1,297.3c0-6.4,0-150.6,0-150.6
	c0-21.5-2.6-28.1-18.2-28.1c-27.4,0-38.4,18.9-39.1,19.4l-0.8,0.8c0,0,0,151.9,0,158.3c-5.9,0-52.2,0-58,0c0-6.4,0-150.6,0-150.6
	c0-21.5-2.6-28.1-18.2-28.1c-27.4,0-38.4,18.9-39.1,19.4l-0.8,0.8c0,0,0,151.9,0,158.3c-5.9,0-52.2,0-57.3,0c0-6.4,0-162.9,0-162.9
	c0-13.8-13.8-26.6-28.6-34.5c11.8-3.3,44.2-13,46.3-13.8c6.4,2.6,22.2,9.7,26.6,16.4l2,2.6l2.6-2c0,0,26.1-16.4,59.8-16.4
	c24.8,0,42.4,4.6,52.7,14.3l2,1.3l2-0.8c21.5-9.7,41.2-15.1,58.6-15.1c47.1,0,63.9,18.9,63.9,36.6c0,0,0,167.5,0,174.1
	C1522.3,297.3,1476,297.3,1470.1,297.3L1470.1,297.3z M935.7,414.7c0,8.4-6.4,15.6-18.2,15.6c-11.8,0-18.9-7.2-18.9-7.2l4.6-5.9
	c0,0,5.9,5.9,14.3,5.9c5.1,0,9.7-3.3,9.7-8.4c0-12.3-27.4-9.7-27.4-26.6c0-8.4,7.9-15.6,18.2-15.6c10.5,0,16.4,5.9,16.4,5.9
	l-3.8,6.4c0,0-5.1-4.6-12.3-4.6c-5.9,0-10.5,3.8-10.5,8.4C908,399.1,935.7,395.8,935.7,414.7L935.7,414.7z M757.7,373h7.9v36.6
	c0,12.3-9.2,21-22.2,21s-22.2-8.4-22.2-21V373h7.9v36.6c0,8.4,5.9,13.8,14.3,13.8c8.4,0,14.3-5.1,14.3-13.8V373z M863.3,371.7
	c-16.4,0-29.4,12.3-29.4,28.6c0,16.9,13,29.4,29.4,29.4c16.4,0,28.6-13,28.6-29.4C891.9,384.5,879.4,371.7,863.3,371.7z
	 M863.3,423.1c-11.8,0-21-9.7-21-22.2c0-12.3,9.2-21.5,21-21.5c11.8,0,21,9.2,21,21.5C884,413.4,874.3,423.1,863.3,423.1z
	 M823.4,416l4.6,5.9c0,0-7.9,9.2-22.2,9.2c-16.9,0-28.6-13-28.6-29.4c0-16.4,12.3-28.6,28.6-28.6c13.8,0,21,7.2,21,7.2l-3.8,5.9
	c0,0-6.4-5.9-16.4-5.9c-12.3,0-21,9.7-21,21.5c0,12.3,8.4,22.2,21,22.2C816.2,423.1,823.4,416,823.4,416L823.4,416z M817.5,195
	c0,54.7,15.1,74.9,47.1,74.9c24,0,36.6-4.6,41.2-9.7c3.8,2,26.6,13.8,33.2,16.9c-8.4,7.2-34.5,25.3-75.7,25.3
	c-71.1,0-108.2-37.1-108.2-106.9c0-70.3,37.1-106.9,108.2-106.9c41.2,0,67.3,18.2,75.7,25.3c-6.4,3.3-29.4,15.1-33.2,16.9
	c-4.6-5.1-16.4-9.7-40.4-9.7C832.6,120.1,817.5,139.6,817.5,195L817.5,195z M1069.9,87.4c-64.4,0-103.6,39.6-103.6,106.9
	s38.4,106.9,103.6,106.9c64.4,0,102.3-39.6,102.3-106.9C1172.7,127.8,1134.4,87.4,1069.9,87.4L1069.9,87.4z M1069.9,267.4
	c-28.1,0-40.4-17.6-40.4-72.4s12.3-72.4,40.4-72.4c27.4,0,39.1,16.9,39.1,72.4C1109.5,250.3,1097.8,267.4,1069.9,267.4z
	 M955.1,422.4h26.1v7.2h-34v-56.8h32.5v7.2h-24.8v17.6H975v6.4h-20.2L955.1,422.4L955.1,422.4z M1185.8,373h7.9v56.8h-7.9
	l-25.3-36.6c-2-3.3-4.6-8.4-4.6-8.4l0,0c0,0,0.8,5.1,0.8,8.4v36.6h-7.9V373h7.9l25.3,36.6c2,3.3,4.6,8.4,4.6,8.4l0,0
	c0,0-0.8-5.1-0.8-8.4V373z M1108.3,371.7c-16.4,0-29.4,12.3-29.4,28.6c0,16.9,13,29.4,29.4,29.4s28.6-13,28.6-29.4
	C1136.9,384.5,1124.6,371.7,1108.3,371.7z M1108.3,423.1c-11.8,0-21-9.7-21-22.2c0-12.3,9.2-21.5,21-21.5s21,9.2,21,21.5
	C1129.2,413.4,1120,423.1,1108.3,423.1z M1064.5,373l4.6,56.8h-7.9l-2.6-35.8c0-3.3,0-8.4,0-8.4l0,0c0,0-2,5.1-3.3,8.4l-11,25.3
	h-7.2l-11-25.3c-1.3-3.3-3.3-8.4-3.3-8.4l0,0c0,0,0,5.1,0,8.4l-2.6,35.8h-7.9l4.6-56.8h8.4l13,30.7c1.3,3.3,2.6,7.9,2.6,7.9l0,0
	c0,0,1.3-4.6,2.6-7.9l13-30.7H1064.5L1064.5,373z"/>
</svg>
