<?xml version="1.0" encoding="UTF-8"?>
<svg id="Layer_1" xmlns="http://www.w3.org/2000/svg" version="1.1" viewBox="0 0 2560 568">
  <!-- Generator: Adobe Illustrator 29.8.1, SVG Export Plug-In . SVG Version: 2.1.1 Build 2)  -->
  <defs>
    <style>
      .st0 {
        fill: #fff;
      }
    </style>
  </defs>
  <path class="st0" d="M2432.42,181.51c65.16-5.82,114.82,54.73,96.7,117.7-20.07,69.72-111.91,88.25-158.47,32.47-46.92-56.21-11.04-143.67,61.77-150.17Z"/>
  <path class="st0" d="M2320.4,7.48c59.72-.56,102.76,58.63,84.51,115.52-20.96,65.34-106.83,82.17-151.25,29.69-48.2-56.95-7.45-144.5,66.75-145.2Z"/>
  <path class="st0" d="M1452.64,408.2l44.46-103.02c2.15-2.76,7.62-6.37,11.09-6.91,6.22-.97,31.63-.96,37.87,0,4.59.71,5.17,2.9,4.34,7.19l-111.94,248.07c-2.06,3.01-5.7,6.03-9.4,6.6-3.97.61-40.53.5-42.44-.43-2.29-1.12-2.49-4.34-1.52-6.51l40.51-90.42-75.77-157.31c-1.04-5.05.29-6.71,5.26-7.29,8.31-.96,29.68-.92,38.02.01,4.08.46,8.7,2.48,11.54,5.46,17.22,34.13,32.42,69.54,47.97,104.54Z"/>
  <path class="st0" d="M1612.94,434.52c1.09-1.17,3.47-1.98,5.03-2.47,3.83-1.2,30.43-6.96,32.71-6.44,2.87.65,4.79,10.43,7.11,13.93,14.55,21.94,62.19,16.88,53.06-11.06-4.13-12.65-37.31-16-49.45-19.55-32.95-9.66-53.79-32.69-45.49-68.92,12.24-53.41,96.74-62.11,129.21-22.81,5.53,6.69,18.69,26.5,5.51,31.53-3.23,1.23-28.91,6.77-31.28,6.31-5.17-1.01-6.18-8.26-8.91-12.17-8.56-12.28-30.41-15.56-42.33-6.66-6.73,5.03-9.82,14.48-4.96,21.94,6.83,10.48,37.73,12.7,50.45,16.55,30.73,9.32,52.3,32.93,45.71,66.7-12.32,63.16-112.65,66.67-141.87,16.47-3.37-5.79-9.84-17.64-4.52-23.36Z"/>
  <path class="st0" d="M2301.42,349.5c94.55-9.75,104.12,131.08,13.69,137.69-90.16,6.59-100.54-128.73-13.69-137.69Z"/>
  <path class="st0" d="M370.62,297.21v51c-21.4-3.11-46.49.16-57.18,21.32-12.13,24.02-3.24,76.55-5.78,105.22-.5,5.69-2.07,10.73-8.52,11.48-7.52.87-27.53.88-35.04,0-3.1-.36-5.24-1.44-6.73-4.27-1.61-58.83-.54-118.07-.54-177.04,1.7-4.59,4.51-6.33,9.24-6.76,6.88-.62,25.55-.91,31.99.1,2.44.38,7.56,4.3,7.56,6.44v20.5l5.49-8.01c7.36-9.47,24.99-19.99,37.01-19.99h22.5Z"/>
  <path class="st0" d="M2264.4,209.49c66.25-7.99,81.45,84.89,23.77,101.77-74.82,21.89-94.72-93.21-23.77-101.77Z"/>
  <path class="st0" d="M2499.4,68.49c64.27-7.09,72.07,88.61,12.61,95.62-65.51,7.72-74.99-88.74-12.61-95.62Z"/>
  <path class="st0" d="M1595.38,207.47c19.76-2.66,37.62,12.91,36.13,33.1-.32,4.4-2.36,8.95-4.03,12.99-7.54,18.27-19.39,36.18-27.85,54.15-2.99,3.52-16.14,3.29-20.48,2.46-2.14-.41-3.83-1.89-3.39-4.23l16.72-37.27c-16.16-6.48-24.94-17.8-22.75-35.86,1.51-12.45,13.42-23.71,25.65-25.35Z"/>
  <path class="st0" d="M393.43,419.49c41.18-2.91,52.04,56.17,13,68.02-49.56,15.04-63.47-64.45-13-68.02Z"/>
  <path class="st0" d="M2234.35,506.44c38.43-7.8,40.14,50.95,2.88,46.66-25.55-2.94-26.85-41.8-2.88-46.66Z"/>
  <path class="st0" d="M1868.63,170.72c-8.65,83.3,45.22,139.94,97.97,195.02,64.06,66.9,133,129.24,201.53,191.47,5.72,4.89,15.99,3.85,21.16-1.33,2.43-2.44,4.26-7.65,4.38-11.12V160.67c-18.16-193.97-306.02-173.07-325.03,10.05ZM2135.09,399.23c-35.31,2-40.05-51.97-4.68-55.74,37.95-4.04,41.65,53.64,4.68,55.74Z"/>
  <path class="st0" d="M179.09,245.24c-46.14-39.09-107.61-28.89-163.74-29.8-6.35,1.51-7.28,6.45-7.77,12.23v246.08c.13,6.28,1.51,11.65,8.51,12.48,54.54-1.76,108.59,9.2,155.84-24.21,66.82-47.23,68.85-164.51,7.15-216.79ZM133.93,425.02c-7.12,4.48-25.75,12.19-33.81,12.19h-39.5v-173c28.9-.64,57.89-1.26,81.01,18.49,38.78,33.13,36.55,114.49-7.7,142.32Z"/>
  <path class="st0" d="M620.56,375.8c82.99-25.96,73.63-146.31-13.71-159.32-34.96-5.2-76.05,1.25-111.73-1.27-4.33.26-7.96,2.45-9.29,6.71v258.58c.87,3.05,3.19,5.16,6.35,5.65,6.62,1.03,32.21,1.01,38.99.11,2.69-.36,6.9-4.01,7.45-6.55v-97.5h28c11.64,23.72,23.19,47.63,35.48,71.02,3.28,6.24,12.03,25.19,16.03,28.97,2.8,2.65,6.19,3.69,9.95,4.05,9.82.92,31.34,1.01,41.06-.04,5.07-.55,6.38-2.64,4.72-7.71-17.65-34.26-36.39-68.19-53.3-102.7ZM610.1,328.19c-3.8,2.97-14.41,8.02-18.98,8.02h-52.5v-75h48.5c34.76,0,49.95,45.92,22.98,66.98Z"/>
  <path class="st0" d="M1096.67,477.76l-.11-260.99c-.97-4.84-3.84-6.2-8.39-6.61-7.49-.67-28-1-34.98.11-2.69.43-6.56,4.16-6.56,6.44v98.5c-22.09-27.42-68.92-26.19-97.31-9.81-61.07,35.25-60.94,138.27,0,173.61,25.37,14.71,64.19,17.94,87.83-1.78,2.32-1.93,9.23-10.97,9.98-11,3.4-.16-1.17,17.86,5.19,19.79,11.24-.64,24.89,1.52,35.83.21,4.8-.57,8.91-3.18,8.52-8.48ZM991.78,444.55c-49.79-8.61-50.68-98.52,3.62-105.06,71.37-8.6,69.35,117.68-3.62,105.06Z"/>
  <path class="st0" d="M1322.18,215.16c-1.33-3.2-3.59-4.57-7.03-4.97-6.89-.8-29.39-.96-35.96.09-2.69.43-6.56,4.16-6.56,6.44v99.5c-2.43-1.84-3.71-5.32-5.96-7.54-18.7-18.42-58.49-17.49-81.3-8.22-73.85,30.01-74.27,151.36-1.41,182.94,31.02,13.44,69.58,10.6,90.67-18.17v14.5c0,3.17,2.24,6.11,5.46,6.54,6.16.84,28.91.82,34.98-.11,2.96-.45,6.73-2.51,7.35-5.65l-.23-265.34ZM1221.13,445.2c-52.65-5.33-55.33-99.01.27-105.71,69.83-8.41,70.3,112.85-.27,105.71Z"/>
  <path class="st0" d="M873.35,368.98c-7.23-48.54-42.55-76.54-91.22-76.21-107.42.72-126.86,159.83-30.02,193.45,40.06,13.91,89.01,3.45,111.32-34.71,3.66-6.25,10.49-16.21,1.46-21.07-3.62-1.95-21.71-7.06-26.21-7.78-14.03-2.24-11.67,7.39-20.03,15.07-26.29,24.15-78.44,6.27-79.02-31.52h126.5c.3,0,4.93-2.08,5.49-2.51,5.33-4.07,2.76-27.83,1.73-34.72ZM740.62,371.21c4.09-48.98,82.32-50.61,84,0h-84Z"/>
</svg>