<?xml version="1.0" encoding="utf-8"?>
<!-- Generator: Adobe Illustrator 27.8.0, SVG Export Plug-In . SVG Version: 6.00 Build 0)  -->
<svg version="1.1" id="layer" xmlns="http://www.w3.org/2000/svg" xmlns:xlink="http://www.w3.org/1999/xlink" x="0px" y="0px"
	 viewBox="0 0 678 333" style="enable-background:new 0 0 678 333;" xml:space="preserve">
<style type="text/css">
	.st0{fill:#fff;}
	.st1{fill:#fff;}
	.st2{font-family:'HelveticaNowDisplay-Regular';}
	.st3{font-size:10.1003px;}
</style>
<g>
	<path class="st0" d="M123.4,218.1c-4.2,7.5-8.5,12.7-13,15.6s-9.8,4.3-16,4.3c-6.1,0-11.3-1.2-15.7-3.5c-4.4-2.3-7.9-5.5-10.6-9.6
		c-2.8-4.2-4.8-9-6.1-14.5s-1.9-11.6-1.9-18.4h68v-6.9c0-6.2-0.8-11.9-2.4-17.2c-1.6-5.3-4-9.9-7.2-13.7c-3.3-4.1-7.7-7.3-13.1-9.7
		c-5.4-2.4-11.8-3.5-19.3-3.5c-7.3,0-13.9,1.5-19.8,4.5c-5.9,3-10.8,7-14.8,12c-4.1,5.2-7.2,10.9-9.4,17.4c-2.1,6.4-3.2,13-3.2,19.7
		c0,7.4,1,14.5,3,21.2s5,12.5,9,17.5s9.2,9,15.4,11.9c6.2,2.9,13.5,4.4,21.8,4.4c9.4,0,17.7-2.4,25-7.3c7.2-4.9,13-11.4,17.4-19.7
		L123.4,218.1z M60.1,183.4c0.4-10.8,3-19.2,7.8-25.3c4.8-6.1,10.8-9.1,18-9.1c4.3,0,7.9,1,10.6,3s4.9,4.6,6.5,7.8
		c1.4,3,2.5,6.7,3.1,11.1c0.7,4.4,1,8.6,1,12.5H60.1z"/>
	<path class="st0" d="M245.2,246.7h-50.7v-6.9c1.6-0.1,3.4-0.3,5.3-0.4c1.9-0.1,3.5-0.4,4.8-0.8c2-0.6,3.4-1.7,4.4-3.3
		c0.9-1.6,1.4-3.6,1.4-6.1v-53c0-7.3-1.7-13-5.2-16.9c-3.4-4-7.6-6-12.6-6c-3.7,0-7.1,0.6-10.1,1.7c-3.1,1.2-5.8,2.6-8.1,4.2
		s-4.1,3.3-5.5,5.2c-1.4,1.8-2.4,3.3-3,4.4V228c0,2.4,0.5,4.3,1.5,5.9c1,1.5,2.5,2.7,4.5,3.5c1.5,0.7,3.1,1.2,4.9,1.6
		c1.7,0.3,3.6,0.6,5.4,0.7v6.9h-51v-6.9c1.6-0.1,3.3-0.3,5-0.4s3.2-0.4,4.5-0.8c2-0.6,3.4-1.7,4.3-3.3c0.9-1.6,1.4-3.6,1.4-6.1
		v-63.6c0-2.4-0.5-4.5-1.5-6.5s-2.4-3.6-4.2-4.9c-1.3-0.8-2.9-1.4-4.7-1.8s-3.8-0.6-5.8-0.8v-6.9l34.4-2.2l1.5,1.5v14.6h0.5
		c1.7-1.7,3.8-3.7,6.2-6c2.5-2.3,4.9-4.2,7.1-5.7c2.6-1.7,5.6-3.1,9.2-4.2c3.5-1.1,7.5-1.7,12-1.7c9.9,0,17.2,3.1,21.9,9.2
		c4.8,6.2,7.1,14.3,7.1,24.6v53.5c0,2.4,0.4,4.4,1.3,5.9c0.8,1.5,2.3,2.7,4.4,3.5c1.7,0.7,3.2,1.2,4.4,1.5s3,0.5,5.2,0.6v7H245.2z"
		/>
	<path class="st0" d="M380.3,246.7h-49.9v-6.9c1.6-0.1,3.3-0.3,5-0.4s3.2-0.4,4.5-0.8c2-0.6,3.4-1.7,4.3-3.3
		c0.9-1.6,1.4-3.6,1.4-6.1v-63.6c0-2.2-0.5-4.3-1.5-6.1c-1-1.8-2.4-3.4-4.2-4.7c-1.3-0.8-3.2-1.5-5.7-2.1s-4.7-1-6.8-1.1v-6.9
		l36.2-2.2l1.5,1.5v84c0,2.4,0.5,4.5,1.4,6.1s2.4,2.8,4.4,3.5c1.5,0.6,3,1.1,4.5,1.5s3.1,0.6,4.9,0.8L380.3,246.7L380.3,246.7z"/>
	<path class="st0" d="M450.8,196.4c2.9,2.5,5.1,5.4,6.6,8.7c1.5,3.3,2.3,7.3,2.3,12c0,9.5-3.6,17.3-10.8,23.4
		c-7.2,6-16.5,9.1-27.9,9.1c-6,0-11.6-1.1-16.7-3.3c-5.1-2.2-8.7-4.2-10.9-6l-2.1,6.8h-8l-1.1-35.8h6.9c0.6,2.7,1.8,5.9,3.6,9.6
		c1.8,3.6,4.1,6.9,6.7,9.9c2.8,3.1,6.1,5.7,10,7.8c3.9,2.1,8.2,3.2,13,3.2c6.8,0,12.1-1.5,15.7-4.6c3.7-3,5.5-7.4,5.5-13.1
		c0-2.9-0.6-5.4-1.7-7.6c-1.2-2.1-2.9-4-5.1-5.6c-2.3-1.6-5.2-3-8.5-4.3c-3.4-1.3-7.1-2.6-11.3-3.8c-3.3-1-7-2.3-11-4
		s-7.5-3.7-10.4-6c-3.1-2.4-5.6-5.4-7.6-9s-3-7.7-3-12.5c0-8.4,3.2-15.5,9.5-21.4c6.3-5.8,14.8-8.8,25.3-8.8c4.1,0,8.2,0.5,12.4,1.6
		c4.2,1,7.7,2.3,10.4,3.8l2.4-5.7h7.6l1.4,33.3h-6.9c-1.5-7.4-4.7-13.4-9.6-18s-10.9-6.9-18-6.9c-5.8,0-10.4,1.4-13.7,4.3
		c-3.3,2.9-5,6.3-5,10.4c0,3.1,0.5,5.7,1.6,7.8c1.1,2.1,2.7,3.9,4.9,5.3c2.1,1.4,4.8,2.7,8,3.9c3.2,1.2,7.1,2.6,11.8,4.1
		c4.6,1.5,9,3.2,13.1,5.1C444.7,191.9,448.1,194.1,450.8,196.4"/>
	<path class="st0" d="M531.6,238.7c-6.3,3.9-10.9,6.5-16.3,8.2c-4,1.3-9,1.9-14.8,1.9c-8.6,0-14.7-2.2-18.2-6.5
		c-3.5-4.4-5.3-10.5-5.3-18.4V154h-18.5v-10.1h18.9v-32.2h18.9v32.2h27.4V154h-27.2v57.8c0,4.3,0.2,8,0.5,10.9s1.1,5.4,2.2,7.6
		c1.1,2,2.8,3.6,5,4.6c2.2,1.1,5.2,1.6,9,1.6c1.7,0,4.3-0.2,7.7-0.5c3.4-0.3,5.8-0.8,7.1-1.3L531.6,238.7z"/>
	<path class="st0" d="M621.1,238.4c-2.4,0-4.7,0-7-0.1s-3.9-0.4-5-1c-2-1.1-3.4-2.5-4.4-4.1c-0.9-1.6-1.4-3.8-1.4-6.5
		c0-9.1,0.1-17.5,0.4-25.2c0.2-7.7,0.4-16.5,0.4-26.5c0-7-0.9-12.7-2.8-17.1c-1.8-4.4-4.5-7.9-8-10.5s-7.5-4.4-11.8-5.2
		c-4.3-0.8-9.4-1.2-15.2-1.2c-4.2,0-8.5,0.7-13,2c-4.4,1.4-8.2,3-11.3,5c-3.6,2.3-6.5,4.9-8.8,7.9c-2.3,2.9-3.4,6-3.4,9.2
		c0,3.1,0.8,5.9,2.4,8.3c1.6,2.5,4.2,3.7,7.6,3.7c3.9,0,6.9-1,9.1-3c2.2-2,3.3-4.2,3.3-6.6c0-2.3-0.3-4.8-1-7.5s-1-4.7-1-6.1
		c1.1-1.2,3-2.3,5.7-3.4s5.7-1.6,8.9-1.6c4.6,0,8.2,0.9,10.7,2.8s4.5,4.1,5.9,6.6c1.2,2.3,2.1,4.6,2.4,7.2c0.4,2.5,0.6,4.2,0.6,5.1
		v10.1c-3.3,1.8-9.7,4.3-19.3,7.5c-9.5,3.2-15.8,5.4-18.9,6.6c-2.5,1-5.2,2.3-8,3.9s-5.1,3.5-6.9,5.6c-2.2,2.5-3.9,5.3-5,8.4
		c-1.1,3.1-1.7,6.7-1.7,10.7c0,7.7,2.5,13.8,7.4,18.6c4.9,4.7,11.2,7.1,18.9,7.1c7.2,0,13.4-1.3,18.5-3.9s9.9-6.4,14.4-11.4h0.6
		c0.9,4.9,3,8.6,6.2,11.1c3.3,2.5,7.6,3.8,13.1,3.8c3.1,0,6-0.4,8.5-1.1s5.4-1.7,8.7-2.8v-6.4H621.1z M583.9,225.5
		c-2.5,3.3-5.7,6.1-9.3,8.5c-3.7,2.4-8,3.6-12.8,3.6c-4.6,0-8.4-1.4-11.3-4.1c-3-2.7-4.5-7-4.5-12.7c0-4.4,1-8.3,3-11.5
		s4.7-6,8.2-8.4c3.8-2.5,7.9-4.6,12.3-6.3c4.4-1.7,9.6-3.4,15.4-5.1L583.9,225.5z"/>
	<path class="st1" d="M283.8,218.5c-9.2-26.3-16.5-47.4-21.6-62c-5.4-15.5-9.3-26.7-11.7-33.5c-0.2-0.6-0.4-1.5-0.7-2.5
		s-0.4-1.9-0.4-2.7c0-1.9,1.7-3.3,5-4.1c3.3-0.8,7.4-1.3,12.3-1.6v-7.6H210v7.6c1.8,0.1,3.8,0.5,5.9,1.1c2.1,0.6,4.1,1.5,5.8,2.7
		c2.1,1.5,3.9,3,5.2,4.6s2.3,3.5,3.1,5.7c3.1,8.8,9,25.6,17.7,50.6s21.7,63.2,31.1,90.1C306.7,162.2,390.1-51.5,570.9,92l3.4-3.1
		C421.3-71.7,313.9,106.5,283.8,218.5"/>
	<path class="st0" d="M566.3,288.8c1.6-1.4,2.3-2.8,2.3-4.1c0-0.5-0.1-0.9-0.4-1.2c-0.2-0.3-0.6-0.4-1-0.4c-0.8,0-1.7,0.4-2.5,1.1
		s-1.5,1.5-2.2,2.4c-0.7,1.1-1.2,2.1-1.6,3.1c-0.2,0.5-0.5,1.1-0.7,1.8C562.7,291.1,564.7,290.2,566.3,288.8 M559.9,286.2
		c2.6-2.7,5.2-4.1,8-4.1c1,0,1.8,0.2,2.4,0.7c0.6,0.5,0.9,1.2,0.9,2.1c0,1.9-1.1,3.5-3.3,4.8s-4.5,2.2-6.9,2.4l-1.1,0.1
		c-0.2,0.5-0.3,1-0.4,1.3c-0.1,0.3-0.1,0.7-0.1,1.2c0,1.1,0.4,2,1.1,2.7c0.7,0.6,1.6,0.9,2.7,0.9c1,0,2-0.3,3.1-1
		c0.6-0.4,1.5-1,2.7-2l0.5,0.4c-0.6,0.7-1.4,1.5-2.5,2.3c-1.9,1.4-3.9,2.1-5.8,2.1c-1.4,0-2.6-0.5-3.6-1.5s-1.6-2.4-1.6-4.2
		C556,291.7,557.3,288.9,559.9,286.2"/>
	<path class="st0" d="M614.4,288.8c1.6-1.4,2.3-2.8,2.3-4.1c0-0.5-0.1-0.9-0.4-1.2c-0.2-0.3-0.6-0.4-1-0.4c-0.8,0-1.7,0.4-2.5,1.1
		s-1.5,1.5-2.2,2.4c-0.7,1.1-1.2,2.1-1.6,3.1c-0.2,0.5-0.5,1.1-0.7,1.8C610.8,291.1,612.8,290.2,614.4,288.8 M608.1,286.2
		c2.6-2.7,5.2-4.1,8-4.1c1,0,1.8,0.2,2.4,0.7c0.6,0.5,0.9,1.2,0.9,2.1c0,1.9-1.1,3.5-3.3,4.8s-4.5,2.2-6.9,2.4l-1.1,0.1
		c-0.2,0.5-0.3,1-0.4,1.3c-0.1,0.3-0.1,0.7-0.1,1.2c0,1.1,0.4,2,1.1,2.7c0.7,0.6,1.6,0.9,2.7,0.9c1,0,2-0.3,3.1-1
		c0.6-0.4,1.5-1,2.7-2l0.5,0.4c-0.6,0.7-1.4,1.5-2.5,2.3c-1.9,1.4-3.9,2.1-5.8,2.1c-1.4,0-2.6-0.5-3.6-1.5s-1.6-2.4-1.6-4.2
		C604.2,291.7,605.5,288.9,608.1,286.2"/>
	<path class="st0" d="M580.3,282.1c0,0.1,0.1,0.2,0.1,0.2c0,0.1,0,0.2,0,0.3l-2,7.6l0.4-0.9c0.9-1.8,2-3.5,3.3-5s2.5-2.3,3.6-2.3
		c0.6,0,1.1,0.2,1.4,0.6c0.3,0.4,0.5,0.9,0.5,1.4c0,0.6-0.2,1.1-0.5,1.5s-0.8,0.6-1.4,0.6c-0.4,0-0.7-0.1-0.9-0.2
		c-0.2-0.2-0.4-0.3-0.5-0.5l-0.2-0.4c0-0.1-0.1-0.1-0.2-0.2c-0.1,0-0.2-0.1-0.3-0.1c-0.5,0-1.2,0.7-2.2,2.1s-1.8,3-2.6,4.6
		c-0.5,1-1,2.3-1.5,4c-0.4,1-0.8,2.5-1.4,4.4h-3l3.3-11.7c0.2-0.7,0.3-1.3,0.4-1.8c0.1-0.5,0.2-1,0.2-1.3c0-0.4-0.1-0.7-0.3-0.9
		c-0.2-0.2-0.5-0.3-1-0.3c-0.2,0-0.4,0-0.6,0c-0.2,0-0.5,0.1-0.8,0.1v-0.6l0.8-0.2c1-0.2,2.1-0.4,3.3-0.7c1.2-0.2,1.8-0.4,1.9-0.4
		C580.2,282,580.3,282,580.3,282.1"/>
	<path class="st0" d="M624.6,153.8h1.6c1.8,0,3.4-0.7,3.4-2.4c0-1.2-0.9-2.4-3.4-2.4c-0.7,0-1.2,0.1-1.6,0.1V153.8z M624.6,161.5
		h-2.2v-13.8c1.2-0.2,2.3-0.3,3.9-0.3c2.1,0,3.5,0.4,4.3,1s1.3,1.5,1.3,2.9c0,1.8-1.2,2.9-2.7,3.4v0.1c1.2,0.2,2,1.3,2.3,3.4
		s0.7,3,0.9,3.4h-2.3c-0.3-0.4-0.7-1.7-0.9-3.5c-0.3-1.8-1.2-2.4-3-2.4h-1.5L624.6,161.5L624.6,161.5z M626.9,143.8
		c-5.5,0-9.9,4.7-9.9,10.5c0,5.9,4.5,10.5,10,10.5c5.5,0.1,9.9-4.6,9.9-10.5C636.9,148.5,632.4,143.8,626.9,143.8L626.9,143.8z
		 M626.9,141.8c6.8,0,12.2,5.5,12.2,12.4c0,7-5.4,12.4-12.2,12.4s-12.3-5.5-12.3-12.4C614.6,147.4,620.1,141.8,626.9,141.8
		L626.9,141.8z"/>
	<path class="st0" d="M475.7,283.1c0.7,0.7,1,1.4,1,2.1c0,0.6-0.2,1.1-0.5,1.4c-0.4,0.3-0.8,0.5-1.3,0.5s-0.9-0.2-1.2-0.4
		c-0.3-0.3-0.5-0.7-0.5-1.1c0-0.3,0.1-0.7,0.3-1.1c0.2-0.4,0.3-0.6,0.3-0.8c0-0.2-0.1-0.4-0.4-0.6s-0.7-0.2-1.3-0.2
		c-2.1,0-3.9,1.2-5.4,3.5c-1.5,2.4-2.3,4.8-2.3,7.4c0,1.5,0.3,2.6,0.9,3.4s1.5,1.2,2.8,1.2c1,0,2-0.3,2.9-0.9s1.8-1.3,2.6-2.2
		l0.1-0.2l0.6,0.4c-0.9,1.1-1.8,2-2.6,2.6c-1.5,1.1-3.1,1.6-4.9,1.6c-1.7,0-3.1-0.5-4.2-1.6s-1.6-2.6-1.6-4.5c0-2.9,1.2-5.6,3.6-8.1
		c2.3-2.4,4.9-3.7,7.6-3.7C473.8,282.1,475,282.4,475.7,283.1"/>
	<path class="st0" d="M482.1,298c0.5,0.7,1.3,1,2.3,1c2.1,0,4-1.6,5.6-4.7c1.4-2.7,2.1-5.2,2.1-7.5c0-1-0.1-1.7-0.3-2.3
		c-0.4-1.1-1.3-1.7-2.5-1.7c-2,0-3.8,1.5-5.5,4.4c-1.6,2.7-2.4,5.5-2.4,8.1C481.3,296.4,481.6,297.3,482.1,298 M494.1,283.7
		c0.9,1.1,1.3,2.5,1.3,4.1c0,2.7-1.2,5.4-3.6,8c-2.5,2.7-5.1,4.1-7.9,4.1c-1.8,0-3.2-0.5-4.3-1.5c-1.1-1-1.6-2.5-1.6-4.3
		c0-2.8,1.2-5.5,3.6-8.1s5.1-4,7.9-4C491.7,282,493.2,282.6,494.1,283.7"/>
	<path class="st0" d="M513,282.4c0.6,0.4,0.9,1.1,0.9,2.1c0,0.4-0.1,1-0.3,1.8s-0.6,2-1.1,3.7c1.4-2.2,2.7-3.8,3.7-5
		c1.9-2.1,3.5-3.1,4.9-3.1c0.6,0,1.2,0.2,1.7,0.6s0.8,1.1,0.8,2c0,0.3-0.1,1-0.4,2.1l-3,10.5c-0.1,0.2,0,0.3,0.1,0.5
		c0.1,0.2,0.3,0.3,0.5,0.3s0.4-0.1,0.6-0.2s0.4-0.3,0.7-0.6c0.3-0.3,0.5-0.5,0.6-0.7c0.2-0.2,0.6-0.8,1.4-1.7l0.6,0.5l-0.2,0.3
		c-0.9,1.3-1.9,2.4-2.8,3.1c-0.9,0.8-1.9,1.2-2.8,1.2c-0.4,0-0.8-0.1-1-0.3c-0.4-0.3-0.7-0.9-0.7-1.7c0-0.2,0-0.4,0-0.6
		s0.1-0.5,0.1-0.7l3-10.8c0-0.2,0.1-0.3,0.1-0.4s0-0.2,0-0.3c0-0.3-0.1-0.5-0.2-0.7c-0.2-0.2-0.4-0.2-0.6-0.2
		c-0.9,0-1.9,0.6-3.1,1.9s-2.2,2.6-3.1,4c-0.8,1.4-1.3,2.5-1.7,3.4c-0.3,0.9-0.9,2.9-1.8,6.1h-3l3.9-13.7c0-0.1,0-0.2,0.1-0.3
		c0-0.1,0-0.2,0-0.3c0-0.3-0.1-0.5-0.2-0.7s-0.4-0.3-0.7-0.3c-0.8,0-1.8,0.7-3.1,2c-1.2,1.4-2.2,2.6-3,3.8c-0.8,1.1-1.5,2.7-2.2,4.6
		c-0.4,1.2-0.9,2.8-1.6,5h-3l3.7-13.7c0-0.1,0.1-0.3,0.1-0.4s0-0.3,0-0.4c0-0.5-0.2-0.8-0.5-0.9s-1-0.1-2-0.1v-0.6
		c1.3-0.2,3.4-0.6,6.3-1.3l0.2,0.1l-2.2,7.9c1.4-2.1,2.8-3.8,4.1-5.2c1.8-1.9,3.3-2.8,4.7-2.8C512.1,282,512.6,282.2,513,282.4"/>
	<path class="st0" d="M542.1,282.4c0.6,0.4,0.9,1.1,0.9,2.1c0,0.4-0.1,1-0.3,1.8s-0.6,2-1.1,3.7c1.4-2.2,2.7-3.8,3.7-5
		c1.9-2.1,3.5-3.1,4.9-3.1c0.6,0,1.2,0.2,1.7,0.6s0.8,1.1,0.8,2c0,0.3-0.1,1-0.4,2.1l-3,10.5c-0.1,0.2,0,0.3,0.1,0.5
		s0.3,0.3,0.5,0.3s0.4-0.1,0.6-0.2c0.2-0.1,0.4-0.3,0.7-0.6c0.3-0.3,0.5-0.5,0.6-0.7c0.2-0.2,0.6-0.8,1.4-1.7l0.6,0.5l-0.2,0.3
		c-0.9,1.3-1.9,2.4-2.8,3.1c-0.9,0.8-1.9,1.2-2.8,1.2c-0.4,0-0.8-0.1-1-0.3c-0.4-0.3-0.7-0.9-0.7-1.7c0-0.2,0-0.4,0-0.6
		s0.1-0.5,0.1-0.7l3-10.8c0-0.2,0.1-0.3,0.1-0.4s0-0.2,0-0.3c0-0.3-0.1-0.5-0.2-0.7s-0.4-0.2-0.6-0.2c-0.9,0-1.9,0.6-3.1,1.9
		c-1.2,1.3-2.2,2.6-3.1,4c-0.8,1.4-1.3,2.5-1.7,3.4c-0.3,0.9-0.9,2.9-1.8,6.1h-3l3.9-13.7c0-0.1,0-0.2,0.1-0.3c0-0.1,0-0.2,0-0.3
		c0-0.3-0.1-0.5-0.2-0.7c-0.1-0.2-0.4-0.3-0.7-0.3c-0.8,0-1.8,0.7-3.1,2c-1.2,1.4-2.2,2.6-3,3.8c-0.8,1.1-1.5,2.7-2.2,4.6
		c-0.4,1.2-0.9,2.8-1.6,5h-3l3.7-13.7c0-0.1,0.1-0.3,0.1-0.4s0-0.3,0-0.4c0-0.5-0.2-0.8-0.5-0.9s-1-0.1-2-0.1v-0.6
		c1.3-0.2,3.4-0.6,6.3-1.3l0.2,0.1l-2.2,7.9c1.4-2.1,2.8-3.8,4.1-5.2c1.8-1.9,3.3-2.8,4.7-2.8C541.3,282,541.7,282.2,542.1,282.4"/>
	<path class="st0" d="M602.3,283.1c0.7,0.7,1,1.4,1,2.1c0,0.6-0.2,1.1-0.5,1.4c-0.4,0.3-0.8,0.5-1.3,0.5s-0.9-0.2-1.2-0.4
		c-0.3-0.3-0.5-0.7-0.5-1.1c0-0.3,0.1-0.7,0.3-1.1s0.3-0.6,0.3-0.8c0-0.2-0.1-0.4-0.4-0.6c-0.3-0.2-0.7-0.2-1.3-0.2
		c-2.1,0-3.9,1.2-5.4,3.5c-1.5,2.4-2.3,4.8-2.3,7.4c0,1.5,0.3,2.6,0.9,3.4c0.6,0.8,1.5,1.2,2.8,1.2c1,0,2-0.3,2.9-0.9
		s1.8-1.3,2.6-2.2l0.1-0.2l0.6,0.4c-0.9,1.1-1.8,2-2.6,2.6c-1.5,1.1-3.1,1.6-4.9,1.6c-1.7,0-3.1-0.5-4.2-1.6
		c-1.1-1.1-1.6-2.6-1.6-4.5c0-2.9,1.2-5.6,3.6-8.1c2.3-2.4,4.9-3.7,7.6-3.7C600.5,282.1,601.6,282.4,602.3,283.1"/>
	<path class="st0" d="M149.9,288.8c1.6-1.4,2.3-2.8,2.3-4.1c0-0.5-0.1-0.9-0.4-1.2c-0.2-0.3-0.6-0.4-1-0.4c-0.8,0-1.7,0.4-2.5,1.1
		s-1.5,1.5-2.2,2.4c-0.7,1.1-1.2,2.1-1.6,3.1c-0.2,0.5-0.5,1.1-0.7,1.8C146.3,291,148.3,290.2,149.9,288.8 M143.5,286.1
		c2.6-2.7,5.2-4.1,8-4.1c1,0,1.8,0.2,2.4,0.7c0.6,0.5,0.9,1.2,0.9,2.1c0,1.9-1.1,3.5-3.3,4.8s-4.5,2.2-6.9,2.4l-1.1,0.1
		c-0.2,0.5-0.3,1-0.4,1.3c-0.1,0.3-0.1,0.7-0.1,1.2c0,1.1,0.4,2,1.1,2.7c0.7,0.6,1.6,0.9,2.7,0.9c1,0,2-0.3,3.1-1
		c0.6-0.4,1.5-1,2.7-2l0.5,0.4c-0.6,0.7-1.4,1.5-2.5,2.3c-1.9,1.4-3.9,2.1-5.8,2.1c-1.4,0-2.6-0.5-3.6-1.5s-1.6-2.4-1.6-4.2
		C139.6,291.6,140.9,288.8,143.5,286.1"/>
	<path class="st0" d="M156.8,299.7l3.3-12.1c0.3-1,0.5-1.6,0.5-1.9c0-0.2,0.1-0.5,0.1-0.7c0-0.4-0.1-0.7-0.3-0.9
		c-0.2-0.2-0.6-0.3-1.3-0.3c-0.2,0-0.3,0-0.5,0s-0.3,0-0.5,0.1v-0.6c0.8-0.1,1.4-0.2,1.8-0.3c0.4-0.1,0.7-0.1,1.2-0.2l3.5-0.8
		c0.1,0.1,0.1,0.1,0.2,0.2l-2.6,8.4c1.6-2.4,2.9-4.2,4-5.4c1.9-2.1,3.6-3.2,5.1-3.2c0.6,0,1.1,0.1,1.5,0.3c0.8,0.4,1.2,1.2,1.2,2.3
		c0,0.3,0,0.6-0.1,1c-0.1,0.3-0.2,0.7-0.3,1.1l-2.6,9.4c0,0.2-0.1,0.4-0.2,0.7c-0.1,0.3-0.1,0.5-0.1,0.6c0,0.2,0,0.4,0.1,0.5
		c0.1,0.2,0.2,0.2,0.4,0.2c0.3,0,0.7-0.2,1.1-0.6c0.4-0.4,1.1-1.2,2.1-2.5l0.6,0.5c-1,1.4-1.9,2.5-2.5,3.1c-1,1-2,1.5-3,1.5
		c-0.4,0-0.9-0.1-1.3-0.4c-0.4-0.3-0.6-0.8-0.6-1.6c0-0.2,0-0.5,0-0.7s0.1-0.5,0.1-0.6l2.5-9.5c0.1-0.5,0.2-0.9,0.3-1.3
		c0-0.3,0.1-0.6,0.1-0.7c0-0.3-0.1-0.6-0.2-0.8c-0.2-0.2-0.4-0.3-0.8-0.3c-1,0-2.2,0.9-3.7,2.7c-0.9,1-1.8,2.3-2.7,3.8
		c-0.7,1.1-1.2,2.2-1.6,3.3c-0.4,1.1-1,3-1.9,5.9h-2.9V299.7z"/>
	<path class="st0" d="M190.1,283.6c-0.4-0.4-1-0.7-1.6-0.7c-2.1,0-4.1,1.6-6,4.9c-1.6,2.9-2.4,5.3-2.4,7.4c0,1,0.2,1.8,0.7,2.3
		s1,0.7,1.7,0.7c2,0,3.9-1.6,5.7-4.7c1.7-2.9,2.6-5.5,2.6-7.8C190.8,284.7,190.6,284,190.1,283.6 M190.8,282.8
		c0.3,0.3,0.5,0.7,0.7,1.1l0.1,0.3l0.4-1.5c0.1-0.2,0.1-0.3,0.1-0.3c0-0.1,0.1-0.1,0.3-0.1l2.3-0.3c0.1,0,0.2,0,0.2,0.1
		c0,0,0,0.1,0,0.2c-0.1,0.2-0.1,0.3-0.1,0.4s-0.1,0.2-0.1,0.4l-1.9,7c-0.4,1.5-0.8,2.8-1.1,3.9c-0.5,2-0.7,3.1-0.7,3.4
		c0,0.2,0,0.3,0.1,0.4s0.2,0.1,0.4,0.1c0.1,0,0.2,0,0.4-0.1c0.1-0.1,0.3-0.2,0.5-0.4l0.4-0.3c0.1-0.1,0.2-0.2,0.4-0.3
		c0.1-0.1,0.3-0.3,0.5-0.5l1.3-1.2l0.5,0.4c-1.4,1.7-2.5,2.9-3.4,3.5c-0.8,0.6-1.6,0.9-2.4,0.9c-0.5,0-0.9-0.2-1.1-0.5
		c-0.3-0.3-0.4-0.8-0.4-1.3s0.1-1.1,0.3-2s0.3-1.6,0.5-2.2c-0.2,0.4-0.6,1-1.2,1.7c-0.6,0.7-1.2,1.5-2,2.2c-0.9,0.8-1.9,1.4-2.7,1.8
		c-0.7,0.2-1.3,0.4-2,0.4c-1.1,0-2-0.4-2.9-1.3s-1.3-2.1-1.3-3.7c0-2.7,1.2-5.6,3.7-8.6c2.6-3.1,5.2-4.6,7.9-4.6
		C189.4,282,190.2,282.3,190.8,282.8"/>
	<path class="st0" d="M208.9,294.8c1.8-2.7,2.7-5.2,2.7-7.4c0-1-0.3-1.8-0.8-2.4s-1.2-0.9-2-0.9c-2.1,0-4,1.8-5.9,5.5
		c-1.6,3.2-2.5,5.9-2.5,8c0,0.5,0.2,0.9,0.5,1.2s0.8,0.5,1.5,0.5C204.8,299.3,206.9,297.8,208.9,294.8 M203,276.3
		c0.1-0.3,0.1-0.5,0.2-0.8c0-0.2,0-0.4,0-0.6s0-0.3-0.1-0.5s-0.3-0.3-0.6-0.4c-0.1,0-0.2,0-0.5-0.1c-0.2,0-0.7,0-1.4-0.1v-0.7
		c0.4-0.1,0.9-0.1,1.4-0.2s1.2-0.1,2-0.3c0.1,0,0.5-0.1,1.2-0.3c0.7-0.2,1.2-0.2,1.5-0.2c0.1,0,0.1,0,0.2,0.1
		c0.1,0.1,0.1,0.1,0.1,0.2v0.3l-4,14.8c1.2-1.7,2.2-2.9,3-3.6c1.4-1.3,2.9-2,4.4-2c1.4,0,2.6,0.5,3.4,1.4c0.9,0.9,1.3,2.1,1.3,3.5
		c0,3.2-1.4,6.3-4.2,9.1c-2.7,2.7-5.6,4.1-8.5,4.1c-1.3,0-2.6-0.3-3.7-0.9c-1.1-0.6-1.6-1.1-1.5-1.4L203,276.3z"/>
	<path class="st0" d="M223.7,276c0.1-0.2,0.1-0.3,0.1-0.5s0-0.3,0-0.4c0-0.4-0.2-0.7-0.5-0.8c-0.4-0.1-1.1-0.1-2.1-0.1v-0.6
		c0.6-0.1,1.3-0.2,2-0.3c0.8-0.1,1.3-0.2,1.5-0.2c0.7-0.1,1.6-0.3,2.7-0.6c0.1,0,0.2,0.1,0.3,0.2l-6.5,23.5c-0.1,0.6-0.2,0.9-0.3,1
		c0,0.1,0,0.2,0,0.4c0,0.2,0,0.5,0.1,0.6c0.1,0.2,0.3,0.3,0.5,0.3c0.5,0,1.1-0.4,1.8-1.3c0.8-0.8,1.4-1.6,1.9-2.4l0.5,0.4
		c-1.1,1.7-2,2.8-2.6,3.4c-1.1,1.1-2.2,1.6-3.3,1.6c-0.5,0-0.9-0.1-1.3-0.4c-0.6-0.3-0.8-0.9-0.8-1.8c0-0.3,0.1-0.8,0.2-1.3
		c0.1-0.3,0.2-0.7,0.3-1.2L223.7,276z"/>
	<path class="st0" d="M234.4,277.1c-0.4-0.4-0.6-0.9-0.6-1.5s0.2-1.1,0.6-1.5c0.4-0.4,0.8-0.6,1.4-0.6c0.5,0,1,0.2,1.4,0.6
		s0.6,0.9,0.6,1.5s-0.2,1.1-0.6,1.5c-0.4,0.4-0.8,0.6-1.4,0.6C235.3,277.8,234.8,277.6,234.4,277.1 M236.3,282
		c0.1,0,0.1,0.1,0.1,0.2l-3.9,14c-0.2,0.7-0.3,1.2-0.3,1.3c0,0.2,0,0.4,0.1,0.5c0.1,0.2,0.2,0.2,0.5,0.2c0.4,0,1-0.4,1.8-1.2
		c0.4-0.5,1-1.1,1.6-2l0.5,0.4l-0.2,0.3c-1,1.4-1.8,2.4-2.4,3c-1,0.9-2,1.4-2.9,1.4c-0.6,0-1-0.2-1.4-0.7s-0.6-1-0.6-1.7
		c0-0.4,0-0.7,0.1-1s0.1-0.7,0.3-1.2l2.8-10c0-0.2,0.1-0.3,0.1-0.4s0-0.3,0-0.4c0-0.5-0.2-0.8-0.5-0.9s-1-0.2-2-0.2V283
		c1.1-0.1,1.8-0.2,2.3-0.3c0.5-0.1,0.9-0.1,1.4-0.2c0.6-0.1,1.2-0.2,1.8-0.3C235.9,282,236.2,282,236.3,282"/>
	<path class="st0" d="M239,299.7l3.3-12.1c0.3-1,0.5-1.6,0.5-1.9c0-0.2,0.1-0.5,0.1-0.7c0-0.4-0.1-0.7-0.3-0.9
		c-0.2-0.2-0.6-0.3-1.3-0.3c-0.2,0-0.3,0-0.5,0c-0.1,0-0.3,0-0.5,0.1v-0.6c0.8-0.1,1.4-0.2,1.8-0.3c0.4-0.1,0.7-0.1,1.2-0.2l3.5-0.8
		c0.1,0.1,0.1,0.1,0.2,0.2l-2.6,8.4c1.6-2.4,2.9-4.2,4-5.4c1.9-2.1,3.6-3.2,5.1-3.2c0.6,0,1.1,0.1,1.5,0.3c0.8,0.4,1.2,1.2,1.2,2.3
		c0,0.3,0,0.6-0.1,1c-0.1,0.3-0.1,0.7-0.3,1.1l-2.6,9.4c-0.1,0.2-0.1,0.4-0.2,0.7c-0.1,0.3-0.1,0.5-0.1,0.6c0,0.2,0,0.4,0.1,0.5
		c0.1,0.2,0.2,0.2,0.4,0.2c0.3,0,0.7-0.2,1.1-0.6c0.4-0.4,1.1-1.2,2.1-2.5l0.6,0.5c-1,1.4-1.9,2.5-2.5,3.1c-1,1-2,1.5-3,1.5
		c-0.4,0-0.9-0.1-1.3-0.4c-0.4-0.3-0.6-0.8-0.6-1.6c0-0.2,0-0.5,0-0.7s0.1-0.5,0.1-0.6l2.5-9.5c0.1-0.5,0.2-0.9,0.3-1.3
		c0-0.3,0.1-0.6,0.1-0.7c0-0.3-0.1-0.6-0.2-0.8c-0.1-0.2-0.4-0.3-0.8-0.3c-1,0-2.2,0.9-3.7,2.7c-0.9,1-1.8,2.3-2.7,3.8
		c-0.7,1.1-1.2,2.2-1.6,3.3c-0.4,1.1-1,3-1.9,5.9H239V299.7z"/>
	<path class="st0" d="M265.6,291.6c0.4,0.8,1.2,1.2,2.2,1.2c1.2,0,2.2-0.7,3.1-2.2s1.4-3.1,1.4-4.9c0-0.9-0.2-1.5-0.6-2
		c-0.4-0.5-0.9-0.7-1.7-0.7c-1.5,0-2.6,0.8-3.5,2.3s-1.3,3-1.3,4.5C265.3,290.5,265.4,291.2,265.6,291.6 M269.8,306
		c1-0.7,1.5-1.6,1.5-2.7c0-0.8-0.3-1.4-0.8-2c-0.3-0.3-0.7-0.6-1.4-0.9c-0.5-0.3-1.4-0.6-2.7-1.1c-1.3-0.5-2-0.7-2.2-0.7
		c-0.3,0-1,0.5-2,1.4s-1.5,1.9-1.5,3.1c0,1.7,0.7,2.9,2.2,3.6c0.8,0.3,1.7,0.5,2.9,0.5C267.5,307.1,268.8,306.7,269.8,306
		 M259.8,300.8c0.7-0.9,1.9-1.8,3.6-2.6c-0.3-0.2-0.6-0.4-0.8-0.7c-0.2-0.2-0.3-0.5-0.3-0.9c0-0.5,0.4-1.1,1.1-1.8
		c0.4-0.4,1.1-0.9,2-1.5c-0.8-0.3-1.6-0.8-2.2-1.3c-0.7-0.8-1.1-1.8-1.1-3c0-2,0.8-3.6,2.3-4.9s3.4-1.9,5.7-1.9c1.2,0,2.2,0.2,3,0.6
		c0.8,0.4,1.3,0.7,1.4,0.9h2.6v1.6h-2c0.1,0.3,0.1,0.6,0.2,0.8c0,0.2,0.1,0.6,0.1,1c0,2.1-0.8,3.8-2.4,5c-1.6,1.2-3.4,1.8-5.3,1.8
		c-0.2,0-0.4,0-0.5,0c-0.2,0-0.4-0.1-0.6-0.1c-0.2,0-0.5,0.2-0.8,0.6c-0.4,0.4-0.5,0.7-0.5,1c0,0.4,1.4,1.2,4.3,2.3
		c2.8,1.1,4.3,2.7,4.3,4.7c0,1.6-0.7,2.9-2.1,4.1s-3.6,1.8-6.5,1.8c-2,0-3.6-0.4-4.8-1.3c-1.2-0.9-1.8-1.9-1.8-3.1
		C258.6,302.6,259,301.7,259.8,300.8"/>
	<path class="st0" d="M300.6,288.8c1.6-1.4,2.3-2.8,2.3-4.1c0-0.5-0.1-0.9-0.4-1.2c-0.2-0.3-0.6-0.4-1-0.4c-0.8,0-1.7,0.4-2.5,1.1
		s-1.5,1.5-2.2,2.4c-0.7,1.1-1.2,2.1-1.6,3.1c-0.2,0.5-0.5,1.1-0.7,1.8C297,291,299,290.2,300.6,288.8 M294.3,286.1
		c2.6-2.7,5.2-4.1,8-4.1c1,0,1.8,0.2,2.4,0.7s0.9,1.2,0.9,2.1c0,1.9-1.1,3.5-3.3,4.8c-2.2,1.3-4.5,2.2-6.9,2.4l-1.1,0.1
		c-0.2,0.5-0.3,1-0.4,1.3s-0.1,0.7-0.1,1.2c0,1.1,0.4,2,1.1,2.7c0.7,0.6,1.6,0.9,2.7,0.9c1,0,2-0.3,3.1-1c0.6-0.4,1.5-1,2.7-2
		l0.5,0.4c-0.6,0.7-1.4,1.5-2.5,2.3c-1.9,1.4-3.9,2.1-5.8,2.1c-1.4,0-2.6-0.5-3.6-1.5s-1.6-2.4-1.6-4.2
		C290.3,291.6,291.6,288.8,294.3,286.1"/>
	<path class="st0" d="M307.6,299.7l3.3-12.1c0.3-1,0.5-1.6,0.5-1.9c0-0.2,0.1-0.5,0.1-0.7c0-0.4-0.1-0.7-0.3-0.9
		c-0.2-0.2-0.6-0.3-1.3-0.3c-0.2,0-0.3,0-0.5,0c-0.1,0-0.3,0-0.5,0.1v-0.6c0.8-0.1,1.4-0.2,1.8-0.3c0.4-0.1,0.7-0.1,1.2-0.2l3.5-0.8
		c0.1,0.1,0.1,0.1,0.2,0.2l-2.6,8.4c1.6-2.4,2.9-4.2,4-5.4c1.9-2.1,3.6-3.2,5.1-3.2c0.6,0,1.1,0.1,1.5,0.3c0.8,0.4,1.2,1.2,1.2,2.3
		c0,0.3,0,0.6-0.1,1c-0.1,0.3-0.1,0.7-0.3,1.1l-2.6,9.4c-0.1,0.2-0.1,0.4-0.2,0.7c-0.1,0.3-0.1,0.5-0.1,0.6c0,0.2,0,0.4,0.1,0.5
		c0.1,0.2,0.2,0.2,0.4,0.2c0.3,0,0.7-0.2,1.1-0.6s1.1-1.2,2.1-2.5l0.6,0.5c-1,1.4-1.9,2.5-2.5,3.1c-1,1-2,1.5-3,1.5
		c-0.4,0-0.9-0.1-1.3-0.4s-0.6-0.8-0.6-1.6c0-0.2,0-0.5,0-0.7s0.1-0.5,0.1-0.6l2.5-9.5c0.1-0.5,0.2-0.9,0.3-1.3
		c0-0.3,0.1-0.6,0.1-0.7c0-0.3-0.1-0.6-0.2-0.8c-0.1-0.2-0.4-0.3-0.8-0.3c-1,0-2.2,0.9-3.7,2.7c-0.9,1-1.8,2.3-2.7,3.8
		c-0.7,1.1-1.2,2.2-1.6,3.3c-0.4,1.1-1,3-1.9,5.9h-2.9V299.7z"/>
	<path class="st0" d="M328.4,298.1c0-0.1,0-0.3,0.1-0.4l3.8-13.6h-3c0-0.4,0-0.6,0.1-0.7s0.2-0.2,0.4-0.3c1.3-0.6,2.4-1.1,3.1-1.6
		s1.7-1.5,3-3l0.3-0.4l0.1-0.1c0.1,0,0.1,0,0.2,0s0.2,0.1,0.3,0.1c0,0.1,0.1,0.2,0.1,0.2c0,0.1,0,0.1,0,0.2l-1.2,4.2h3.2l-0.2,1.3
		h-3.4l-3.6,13.1c-0.1,0.2,0,0.5,0.1,0.7s0.3,0.3,0.5,0.3c0.3,0,0.8-0.3,1.4-1c0.3-0.4,0.9-1.1,1.8-2.2l0.5,0.3l-0.3,0.4
		c-1.1,1.7-2.1,2.8-3,3.5s-1.7,1-2.4,1c-0.7,0-1.1-0.2-1.4-0.5s-0.4-0.7-0.4-1.2C328.4,298.4,328.4,298.2,328.4,298.1"/>
	<path class="st0" d="M349.4,288.8c1.6-1.4,2.4-2.8,2.4-4.1c0-0.5-0.1-0.9-0.4-1.2c-0.2-0.3-0.6-0.4-1-0.4c-0.8,0-1.7,0.4-2.5,1.1
		s-1.5,1.5-2.2,2.4c-0.7,1.1-1.2,2.1-1.6,3.1c-0.2,0.5-0.5,1.1-0.7,1.8C345.9,291,347.9,290.2,349.4,288.8 M343.1,286.1
		c2.6-2.7,5.2-4.1,8-4.1c1,0,1.8,0.2,2.4,0.7s0.9,1.2,0.9,2.1c0,1.9-1.1,3.5-3.3,4.8c-2.2,1.3-4.5,2.2-6.9,2.4l-1.1,0.1
		c-0.2,0.5-0.3,1-0.4,1.3s-0.1,0.7-0.1,1.2c0,1.1,0.4,2,1.1,2.7c0.8,0.6,1.6,0.9,2.7,0.9c1,0,2-0.3,3.1-1c0.6-0.4,1.5-1,2.7-2
		l0.5,0.4c-0.6,0.7-1.4,1.5-2.5,2.3c-1.9,1.4-3.9,2.1-5.8,2.1c-1.4,0-2.6-0.5-3.6-1.5s-1.6-2.4-1.6-4.2
		C339.2,291.6,340.5,288.8,343.1,286.1"/>
	<path class="st0" d="M364.1,282.1c0,0.1,0.1,0.2,0.1,0.2c0,0.1,0,0.2,0,0.3l-2,7.6l0.4-0.9c0.9-1.8,2-3.5,3.3-5s2.4-2.3,3.6-2.3
		c0.6,0,1.1,0.2,1.4,0.6s0.5,0.9,0.5,1.4c0,0.6-0.2,1.1-0.5,1.5s-0.8,0.6-1.4,0.6c-0.4,0-0.7-0.1-0.9-0.2c-0.2-0.2-0.4-0.3-0.5-0.5
		l-0.2-0.4c0-0.1-0.1-0.1-0.2-0.2c-0.1,0-0.2-0.1-0.3-0.1c-0.5,0-1.2,0.7-2.2,2.1s-1.8,3-2.6,4.6c-0.5,1-1,2.3-1.5,4
		c-0.4,1-0.8,2.5-1.4,4.4h-3l3.3-11.7c0.2-0.7,0.3-1.3,0.4-1.8s0.2-1,0.2-1.3c0-0.4-0.1-0.7-0.3-0.9c-0.2-0.2-0.5-0.3-1-0.3
		c-0.2,0-0.4,0-0.6,0s-0.5,0.1-0.8,0.1v-0.6l0.8-0.2c1-0.2,2.1-0.4,3.3-0.7c1.2-0.2,1.8-0.4,1.9-0.4
		C364,281.9,364.1,282,364.1,282.1"/>
	<path class="st0" d="M386.2,285.2c-0.4-0.9-1.1-1.4-2.1-1.4c-0.9,0-1.9,0.5-2.9,1.4c-1.1,0.9-2,2.4-2.7,4.5
		c-0.6,1.6-1.1,3.3-1.6,5.1c-0.5,1.8-0.7,2.8-0.7,3.1c0,0.5,0.2,0.9,0.6,1.1s0.9,0.3,1.5,0.3c2.3,0,4.3-1.4,6-4.4
		c1.6-2.6,2.3-5.2,2.3-7.7C386.5,286.4,386.4,285.7,386.2,285.2 M368.1,307.3c0.8,0,1.4-0.1,1.8-0.4s0.7-0.8,0.9-1.5l5.4-19
		c0.1-0.5,0.2-0.8,0.2-1s0-0.4,0-0.5c0-0.4-0.2-0.8-0.5-1s-0.8-0.3-1.4-0.3c-0.1,0-0.3,0-0.4,0s-0.2,0-0.4,0V283l6.3-0.9
		c0.1,0,0.1,0,0.2,0.1c-0.1,0.2-0.1,0.4-0.1,0.5l-1,3.5c0.9-1.1,1.6-2,2.3-2.6c1.3-1.1,2.6-1.6,4-1.6s2.5,0.4,3.3,1.3s1.2,2.2,1.2,4
		c0,3.1-1.3,6-3.9,8.7s-5.2,4.1-7.9,4.1c-0.5,0-1-0.1-1.4-0.2s-0.8-0.3-1.4-0.6l-0.3,1.2c-0.3,1.3-0.6,2.3-0.7,2.8
		c-0.3,1.5-0.5,2.4-0.5,2.5c0,0.5,0.2,0.9,0.5,1s1,0.2,2,0.3v0.6h-8.2V307.3z"/>
	<path class="st0" d="M399.7,282.1c0,0.1,0.1,0.2,0.1,0.2c0,0.1,0,0.2,0,0.3l-2,7.6l0.4-0.9c0.9-1.8,2-3.5,3.3-5s2.4-2.3,3.6-2.3
		c0.6,0,1.1,0.2,1.4,0.6s0.5,0.9,0.5,1.4c0,0.6-0.2,1.1-0.5,1.5s-0.8,0.6-1.4,0.6c-0.4,0-0.7-0.1-0.9-0.2c-0.2-0.2-0.4-0.3-0.5-0.5
		l-0.2-0.4c0-0.1-0.1-0.1-0.2-0.2c-0.1,0-0.2-0.1-0.3-0.1c-0.5,0-1.2,0.7-2.2,2.1s-1.8,3-2.6,4.6c-0.5,1-1,2.3-1.5,4
		c-0.4,1-0.8,2.5-1.4,4.4h-3l3.3-11.7c0.2-0.7,0.3-1.3,0.4-1.8s0.2-1,0.2-1.3c0-0.4-0.1-0.7-0.3-0.9c-0.2-0.2-0.5-0.3-1-0.3
		c-0.2,0-0.4,0-0.6,0s-0.5,0.1-0.8,0.1v-0.6l0.8-0.2c1-0.2,2.1-0.4,3.3-0.7c1.2-0.2,1.8-0.4,1.9-0.4
		C399.6,281.9,399.6,282,399.7,282.1"/>
	<path class="st0" d="M414.1,277.1c-0.4-0.4-0.6-0.9-0.6-1.5s0.2-1.1,0.6-1.5s0.8-0.6,1.4-0.6c0.5,0,1,0.2,1.4,0.6s0.6,0.9,0.6,1.5
		s-0.2,1.1-0.6,1.5s-0.8,0.6-1.4,0.6C414.9,277.8,414.4,277.6,414.1,277.1 M415.9,282c0.1,0,0.1,0.1,0.1,0.2l-3.9,14
		c-0.2,0.7-0.3,1.2-0.3,1.3c0,0.2,0,0.4,0.1,0.5c0.1,0.2,0.2,0.2,0.5,0.2c0.4,0,1-0.4,1.8-1.2c0.4-0.5,1-1.1,1.6-2l0.5,0.4l-0.2,0.3
		c-1,1.4-1.8,2.4-2.4,3c-1,0.9-2,1.4-2.9,1.4c-0.6,0-1-0.2-1.4-0.7s-0.6-1-0.6-1.7c0-0.4,0-0.7,0.1-1s0.2-0.7,0.3-1.2l2.8-10
		c0-0.2,0.1-0.3,0.1-0.4s0-0.3,0-0.4c0-0.5-0.2-0.8-0.5-0.9s-1-0.2-2-0.2V283c1.1-0.1,1.8-0.2,2.3-0.3c0.5-0.1,0.9-0.1,1.4-0.2
		c0.6-0.1,1.2-0.2,1.8-0.3C415.5,282,415.8,282,415.9,282"/>
	<path class="st0" d="M419.4,293.9h0.6c0.3,1.6,0.6,2.7,1,3.5c0.7,1.3,1.8,2,3.2,2c0.8,0,1.5-0.3,2-0.8c0.5-0.6,0.8-1.3,0.8-2.2
		c0-0.6-0.1-1-0.2-1.4s-0.3-0.7-0.5-1l-1.6-2.4c-1-1.5-1.6-2.4-1.8-2.9c-0.4-0.7-0.6-1.5-0.6-2.2c0-1.1,0.4-2.1,1.2-3
		c0.8-0.9,2-1.3,3.5-1.3c0.6,0,1.4,0.1,2.2,0.4c0.8,0.2,1.4,0.4,1.7,0.4c0.3,0,0.6-0.1,0.7-0.2c0.2-0.1,0.3-0.3,0.4-0.5h0.6
		l-0.8,5.5h-0.7c-0.2-1.3-0.4-2.2-0.8-2.8c-0.6-1.2-1.6-1.8-3-1.8c-0.6,0-1.1,0.2-1.5,0.5c-0.4,0.4-0.7,0.9-0.7,1.6
		c0,0.5,0.1,1,0.3,1.4s0.7,1.1,1.4,2.1l1.4,2c0.7,1,1.2,1.9,1.5,2.5s0.4,1.4,0.4,2.1c0,1.4-0.6,2.6-1.8,3.6c-1.2,1-2.6,1.4-4.3,1.4
		c-0.5,0-1.3-0.1-2.3-0.3c-1-0.2-1.6-0.3-1.7-0.3c-0.3,0-0.5,0.1-0.6,0.2s-0.2,0.3-0.3,0.5h-0.6L419.4,293.9z"/>
	<path class="st0" d="M445,288.8c1.6-1.4,2.3-2.8,2.3-4.1c0-0.5-0.1-0.9-0.3-1.2c-0.2-0.3-0.6-0.4-1-0.4c-0.8,0-1.7,0.4-2.5,1.1
		s-1.6,1.5-2.2,2.4c-0.7,1.1-1.2,2.1-1.6,3.1c-0.2,0.5-0.5,1.1-0.7,1.8C441.4,291,443.4,290.2,445,288.8 M438.7,286.1
		c2.6-2.7,5.2-4.1,8-4.1c1,0,1.8,0.2,2.4,0.7s0.9,1.2,0.9,2.1c0,1.9-1.1,3.5-3.3,4.8c-2.2,1.3-4.5,2.2-6.9,2.4l-1.1,0.1
		c-0.2,0.5-0.3,1-0.4,1.3s-0.1,0.7-0.1,1.2c0,1.1,0.4,2,1.1,2.7c0.7,0.6,1.6,0.9,2.7,0.9c1,0,2-0.3,3.1-1c0.6-0.4,1.5-1,2.7-2
		l0.5,0.4c-0.6,0.7-1.4,1.5-2.5,2.3c-1.9,1.4-3.9,2.1-5.8,2.1c-1.4,0-2.6-0.5-3.6-1.5s-1.6-2.4-1.6-4.2
		C434.7,291.6,436,288.8,438.7,286.1"/>
</g>
<text transform="matrix(1 0 0 1 632.0879 281.9877)" class="st0 st2 st3">TM</text>
</svg>
