<?xml version="1.0" encoding="utf-8"?>
<!-- Generator: Adobe Illustrator 27.8.0, SVG Export Plug-In . SVG Version: 6.00 Build 0)  -->
<svg version="1.1" id="Layer_1" xmlns="http://www.w3.org/2000/svg" xmlns:xlink="http://www.w3.org/1999/xlink" x="0px" y="0px"
	 viewBox="0 0 1854.5 543.8" style="enable-background:new 0 0 1854.5 543.8;" xml:space="preserve">
<style type="text/css">
	.st0{fill:#fff;}
	.st1{fill:#fff;}
</style>
<g>
	<path class="st0" d="M406.8,479L201.2,269.1l123.4-123.4l-21.3-19.9L160.1,269.1l21.3,19.9l0,0L387,498.8L406.8,479z"/>
	<path class="st0" d="M456.5,433.6L296.2,270.5l73.7-75.2l-21.3-19.9l-95,95l12.8,12.8l167.3,170.2L456.5,433.6z"/>
	<path class="st0" d="M595.4,256.3L595.4,256.3L385.6,45l-21.3,19.9l209.9,211.3L455,396.7l21.3,19.9l140.4-141.8L595.4,256.3z"/>
	<path class="st0" d="M507.5,263.4L338.8,93.2l-21.3,19.9l161.7,161.7l-70.9,70.9l21.3,19.9l90.8-92.2L507.5,263.4z"/>
	<path class="st1" d="M387,216.6l-53.9,53.9l56.7,56.7l53.9-53.9L387,216.6z"/>
	<path class="st0" d="M713.1,308.8V93.2h136.1v39.7h-89.3v49.6h70.9v39.7h-70.9v85.1h-46.8V308.8z"/>
	<path class="st0" d="M879.1,127.3c-5.7-5.7-8.5-11.3-8.5-18.4c0-7.1,2.8-12.8,8.5-18.4c5.7-4.3,11.3-7.1,19.9-7.1
		c7.1,0,14.2,2.8,18.4,7.1c5.7,4.3,8.5,11.3,8.5,18.4c0,7.1-2.8,12.8-8.5,18.4c-5.7,4.3-11.3,7.1-18.4,7.1
		C890.4,134.4,884.7,131.5,879.1,127.3z M876.2,308.8V162.7h44v144.6h-44V308.8z"/>
	<path class="st0" d="M959.9,308.8V162.7h44V184c4.3-7.1,9.9-12.8,17-17c8.5-4.3,15.6-7.1,25.5-7.1c17,0,29.8,5.7,39.7,15.6
		c9.9,9.9,14.2,25.5,14.2,45.4v86.5h-44v-76.6c0-9.9-2.8-17-7.1-21.3c-4.3-5.7-11.3-7.1-18.4-7.1c-18.4,0-26.9,9.9-26.9,29.8v76.6
		H959.9z"/>
	<path class="st0" d="M1142.8,308.8V93.2H1279v39.7h-89.3v49.6h70.9v39.7h-70.9v85.1h-46.8V308.8z"/>
	<path class="st0" d="M1287.5,235.1c0-14.2,2.8-28.4,9.9-39.7c7.1-11.3,15.6-19.9,28.4-26.9c11.3-5.7,24.1-9.9,38.3-9.9
		c14.2,0,26.9,2.8,38.3,9.9c11.3,5.7,21.3,15.6,28.4,26.9c7.1,11.3,9.9,24.1,9.9,39.7c0,14.2-2.8,28.4-9.9,39.7
		c-7.1,11.3-15.6,21.3-28.4,26.9c-11.3,5.7-24.1,8.5-38.3,8.5c-14.2,0-26.9-2.8-38.3-8.5s-21.3-15.6-28.4-26.9
		C1291.7,263.4,1287.5,250.6,1287.5,235.1z M1330,235.1c0,9.9,2.8,18.4,9.9,24.1c7.1,5.7,14.2,9.9,24.1,9.9c9.9,0,17-2.8,24.1-8.5
		c7.1-5.7,9.9-14.2,9.9-24.1c0-9.9-2.8-17-9.9-24.1c-7.1-5.7-14.2-9.9-24.1-9.9c-9.9,0-17,2.8-24.1,9.9
		C1334.3,218,1330,225.1,1330,235.1z"/>
	<path class="st0" d="M1471.8,308.8V162.7h44v35.5c2.8-12.8,8.5-22.7,17-28.4c8.5-7.1,15.6-9.9,24.1-9.9c9.9,0,18.4,1.4,25.5,5.7
		l-8.5,38.3c-5.7-2.8-14.2-4.3-22.7-4.3c-12.8,0-21.3,4.3-28.4,14.2c-5.7,9.9-8.5,24.1-8.5,44v51.1H1471.8z"/>
	<path class="st0" d="M1592.4,196.8v-34h26.9v-55.3h44v55.3h31.2v34h-31.2v110.6h-44V196.8C1619.3,196.8,1592.4,196.8,1592.4,196.8z
		"/>
	<path class="st1" d="M1681.7,406.6h-68.1c0,0-1.4,0-1.4,1.4v2.8c0,0,0,1.4,1.4,1.4h68.1c0,0,1.4,0,1.4-1.4L1681.7,406.6
		C1683.1,406.6,1683.1,406.6,1681.7,406.6z"/>
	<path class="st1" d="M796.8,406.6h-68.1c0,0-1.4,0-1.4,1.4v2.8c0,0,0,1.4,1.4,1.4h68.1c0,0,1.4,0,1.4-1.4L796.8,406.6L796.8,406.6z
		"/>
	<path class="st0" d="M880.5,435h12.8l-25.5-72.3h-12.8L829.4,435h12.8l5.7-17h26.9L880.5,435z M850.7,405.2l9.9-29.8l9.9,29.8
		H850.7z"/>
	<path class="st0" d="M962.7,362.7L944.3,391l-18.4-28.4h-14.2l26.9,39.7V435h12.8v-32.6l26.9-39.7H962.7z"/>
	<path class="st0" d="M1006.7,385.4v25.5c0,9.9-7.1,12.8-11.3,12.8c-5.7,0-9.9-4.3-9.9-11.3v-26.9h-11.3v26.9
		c0,14.2,7.1,22.7,18.4,22.7c4.3,0,12.8-2.8,14.2-8.5v7.1h12.8v-48.2H1006.7z"/>
	<path class="st0" d="M1059.1,384c-5.7,0-12.8,2.8-15.6,7.1v-32.6h-11.3v75.2h11.3v-7.1c2.8,5.7,9.9,8.5,15.6,8.5
		c12.8,0,22.7-9.9,22.7-25.5C1083.3,393.9,1071.9,384,1059.1,384z M1057.7,425.1c-7.1,0-14.2-5.7-14.2-14.2
		c0-8.5,7.1-14.2,14.2-14.2s12.8,5.7,12.8,14.2C1070.5,419.4,1064.8,425.1,1057.7,425.1z"/>
	<path class="st0" d="M1100.3,375.4c4.3,0,7.1-2.8,7.1-7.1s-2.8-7.1-7.1-7.1c-4.3,0-7.1,2.8-7.1,7.1
		C1091.8,372.6,1096,375.4,1100.3,375.4z M1093.2,435h11.3v-48.2h-11.3V435z"/>
	<path class="st0" d="M1176.9,436.4c11.3,0,21.3-5.7,26.9-14.2l-8.5-7.1c-4.3,5.7-9.9,9.9-18.4,9.9c-12.8,0-22.7-11.3-22.7-25.5
		s9.9-25.5,22.7-25.5c7.1,0,14.2,4.3,18.4,9.9l8.5-7.1c-5.7-8.5-15.6-14.2-26.9-14.2c-19.9,0-35.5,17-35.5,36.9
		S1157,436.4,1176.9,436.4z"/>
	<path class="st0" d="M1235,436.4c12.8,0,25.5-9.9,25.5-25.5c0-15.6-11.3-25.5-25.5-25.5c-12.8,0-25.5,9.9-25.5,25.5
		C1209.5,425.1,1220.8,436.4,1235,436.4z M1235,425.1c-7.1,0-12.8-5.7-12.8-14.2c0-8.5,5.7-14.2,12.8-14.2s12.8,5.7,12.8,14.2
		C1247.8,418,1242.1,425.1,1235,425.1z"/>
	<path class="st0" d="M1327.2,384c-4.3,0-11.3,2.8-15.6,9.9c-2.8-5.7-8.5-9.9-15.6-9.9c-5.7,0-12.8,4.3-14.2,9.9v-8.5h-11.3v48.2
		h11.3v-25.5c0-9.9,5.7-12.8,11.3-12.8c5.7,0,8.5,4.3,8.5,11.3v26.9h11.3v-24.1c0-9.9,4.3-14.2,9.9-14.2s9.9,4.3,9.9,11.3v26.9h11.3
		v-26.9C1344.2,392.5,1338.5,384,1327.2,384z"/>
	<path class="st0" d="M1385.3,384c-5.7,0-12.8,2.8-15.6,7.1V384h-11.3v73.7h11.3v-29.8c2.8,5.7,9.9,7.1,15.6,7.1
		c12.8,0,22.7-9.9,22.7-25.5C1408,393.9,1398.1,384,1385.3,384z M1383.9,425.1c-7.1,0-14.2-5.7-14.2-14.2c0-8.5,7.1-14.2,14.2-14.2
		s12.8,7.1,12.8,14.2C1396.7,418,1391,425.1,1383.9,425.1z"/>
	<path class="st0" d="M1454.8,385.4v7.1c-2.8-5.7-9.9-8.5-15.6-8.5c-12.8,0-22.7,11.3-22.7,25.5c0,15.6,9.9,25.5,22.7,25.5
		c7.1,0,12.8-4.3,15.6-8.5v7.1h11.3v-48.2C1466.1,385.4,1454.8,385.4,1454.8,385.4z M1442,425.1c-7.1,0-12.8-7.1-12.8-14.2
		c0-8.5,5.7-14.2,12.8-14.2s14.2,5.7,14.2,14.2C1454.8,418,1449.1,425.1,1442,425.1z"/>
	<path class="st0" d="M1507.3,384c-4.3,0-12.8,2.8-14.2,8.5v-7.1h-11.3v48.2h11.3v-25.5c0-9.9,7.1-12.8,11.3-12.8
		c5.7,0,9.9,4.3,9.9,11.3v26.9h11.3v-26.9C1525.7,392.5,1518.6,384,1507.3,384z"/>
	<path class="st0" d="M1568.2,385.4l-11.3,31.2l-12.8-31.2h-12.8l18.4,45.4l-9.9,26.9h12.8l28.4-72.3H1568.2z"/>
</g>
</svg>
