<?xml version="1.0" encoding="UTF-8"?>
<svg id="Layer_1" data-name="Layer 1" xmlns="http://www.w3.org/2000/svg" viewBox="0 0 480 320">
  <defs>
    <style>
      .cls-1 {
        fill: #fff;
      }

      .cls-2 {
        fill: #fff;
        stroke: #fff;
        stroke-linecap: round;
        stroke-miterlimit: 10;
        stroke-width: 10px;
      }
    </style>
  </defs>
  <g>
    <path class="cls-1" d="M361.7,115.72v17.44h14.59s.34.32.34.34v12.74h-14.59s-.27.23-.29.33c.48,8.3-2.09,18.66,5.35,24.67,2.85,2.31,6.26,2.77,9.53,4.02v12.85c0,.49-2.38.37-2.88.35-7.52-.3-14.7-3.13-19.76-8.73-7.47-8.26-7.28-16.43-7.48-26.96-.23-12.35.19-24.73.01-37.07h15.17Z"/>
    <rect class="cls-1" x="167.5" y="115.72" width="15.17" height="71.14"/>
    <rect class="cls-1" x="448.1" y="115.72" width="14.94" height="71.14"/>
    <rect class="cls-1" x="321.25" y="133.16" width="15.17" height="53.7"/>
    <path class="cls-1" d="M327.63,111.2c12.22-1.47,13.45,16.09,2.21,17.12s-12.69-15.86-2.21-17.12Z"/>
    <path class="cls-1" d="M158.55,158.28c-1.67-27.81-39.75-36.23-54.57-13.17-13.35,20.77,5.77,47.27,29.33,42.83,3.82-.72,6.94-3.4,9.95-5.67-.01,1.29-.73,2.96-1.3,4.21-3.45,7.67-12.01,11.24-19.58,6.76-1.84-1.09-4.63-4.09-6.71-4.09h-14.59c7.31,22.3,38.03,26.71,52.03,8.01,2.93-3.92,5.1-9.15,5.43-14.08.48-7.13.43-17.65,0-24.8ZM120.16,171.38c-10.27-8.4-5.01-24.7,8-25.98,7.66-.75,15.23,5.45,15.9,13.13,1.13,12.85-13.74,21.16-23.9,12.85Z"/>
    <path class="cls-1" d="M282.52,131.78c-3.13.21-5.61,1.22-8.3,2.72-1.44.8-2.71,1.88-4.21,2.56l.23-21.34h-15.17v71.14h14.25v-5.28l5.45,4.09c15.11,8.18,35.15-3.32,38.57-19.46,4.07-19.22-11.57-35.76-30.81-34.43ZM296.93,167.28c-5.76,10.01-20.17,9.82-25.67-.38-5-9.27,1.41-20.7,11.79-21.51,11.56-.89,19.77,11.63,13.87,21.89Z"/>
    <path class="cls-1" d="M438.62,148.26c-11.27-23.65-48.6-21.39-55.84,4-5.86,20.58,11.75,38.04,32.12,35.97,11.36-1.15,20.9-8.75,24.94-19.27h-16.66c-.22,0-2.64,2.38-3.35,2.85-6.73,4.46-14.2,3.58-19.51-2.51l-2.76-4.01h43.43c.32-5.83.2-11.65-2.36-17.03ZM425.35,154.74h-28.04c2.7-4.22,6.24-8.2,11.44-9.12,5.51-.98,10.33,1.12,13.96,5.21.31.35,2.88,3.69,2.64,3.9Z"/>
    <path class="cls-1" d="M240.27,140.36c-18.93-18.81-52.97-5.23-50.93,22.29,1.22,16.44,17.57,27.55,33.41,25.56,23.36-2.94,34.69-30.79,17.53-47.85ZM220.01,174.7c-19.26,1.4-20.96-28.27-2-29.3,18.99-1.03,20.7,27.94,2,29.3Z"/>
  </g>
  <line class="cls-2" x1="29.6" y1="122.5" x2="108.26" y2="122.5"/>
  <line class="cls-2" x1="29.6" y1="137.12" x2="63.21" y2="137.12"/>
  <line class="cls-2" x1="29.6" y1="151.38" x2="78.39" y2="151.38"/>
  <line class="cls-2" x1="92.03" y1="151.38" x2="92.82" y2="151.38"/>
  <line class="cls-2" x1="75.55" y1="137.12" x2="95.21" y2="137.12"/>
</svg>