<?xml version="1.0" encoding="UTF-8"?>
<svg id="Hucu_ai" data-name="Hucu ai" xmlns="http://www.w3.org/2000/svg" viewBox="0 0 3945.67 820.58">
  <defs>
    <style>
      .cls-1 {
        fill: #fff;
      }

      .cls-2 {
        fill: #fff;
      }

      .cls-3 {
        fill: #fff;
      }

      .cls-4 {
        fill: #fff;
      }

      .cls-5 {
        fill: #fff;
      }

      .cls-6 {
        fill: #fff;
      }
    </style>
  </defs>
  <g>
    <path class="cls-6" d="M3447.41,287.76v243.68c-10.46,46.91-74.82,42.75-78.02-6.44,3.79-75.22-4.87-155.12,0-229.79.94-14.42,7.71-28.23,21-34.95,24.45-12.36,50.67,2.09,57.02,27.5Z" fill="#ffffff"/>
    <path class="cls-6" d="M1584.04,370.65h114.96v-79.4c0-5.38,4.64-15.6,8.02-19.95,22.23-28.55,67.34-15.45,70,20.91v236.77c-3.4,31.46-40.26,47.06-64.55,25.46-6.26-5.57-13.47-16.91-13.47-25.49v-80.39h-113.46c-.11,0-1.5,1.39-1.5,1.5v81.89c0,7.54-8.21,19.22-14.08,23.89-27.31,21.73-65.1-.14-63.94-33.82,3.42-73.46-4.39-150.79,0-223.8,1.79-29.74,25.31-51.45,55.3-39.18,8.91,3.64,22.71,18.34,22.71,28.24v83.39Z" fill="#ffffff"/>
    <path class="cls-6" d="M1887.71,256.08c30.19-3.44,42.93,19.71,44.26,46.11,2.05,40.72-3.43,83.14-1.09,123.93,4.72,82.27,114.18,79.44,116.04-2,.95-41.56-3.75-85.06-1.08-126.92,3.34-52.38,67.98-55.96,78.06-6.99-2.44,49.12,3.1,101.11,0,149.89-6.87,108.06-137.65,162.21-221.44,93.31-74.71-61.44-41.04-160.82-48.52-245.16,2.69-16.59,17.1-30.27,33.77-32.17Z" fill="#ffffff"/>
    <path class="cls-6" d="M2580.46,256.06c24.69-3.33,43.51,15.31,45.26,39.15,3.33,45.31-3.98,95.94-.07,140.89,5.69,65.52,109.61,69.52,115.04-5.99,3.24-45.08-4.43-96.5-.03-140.84,4.34-43.76,72.94-44.87,77,1.95-6.79,91.54,28.52,197.44-65.71,254.01-85.04,51.06-197.62-6.23-204.23-105.18-3.25-48.65,2.39-100.76,0-149.78,1.52-16.78,16.05-31.96,32.73-34.21Z" fill="#ffffff"/>
    <path class="cls-6" d="M2332.58,256.09c33.5-2.31,68.86,1.01,102.55-.17,47.83,5.38,48,73.27-.89,77.76-48.9,4.49-126.76-18.82-150.61,38.29-6.66,15.95-7.09,54.74-1.83,71.1,20.37,63.33,102.01,38.82,152.33,43.56,49.89,4.7,48.3,73.03.16,77.8-69.82-2.05-134.49,13.11-190-38.96-40.44-37.93-47-87.11-43.45-140.33,4.61-69.02,63.45-124.34,131.74-129.05Z" fill="#ffffff"/>
    <path class="cls-6" d="M2935.23,553.06c-36.52,36.48-91.79-19.78-55.17-55.62,36.44-35.67,90.96,19.87,55.17,55.62Z" fill="#ffffff"/>
    <path d="M1290.59,224.82c-5.43-.06-11.08,4.15-16.15,2.26l-119.24-77.64c-2-2.1-.57-5.38-1.01-7.98-6.68-39.44-50.9-54.62-81.02-28.97l-174.19-48.4c-2.67-8.48-10.35-17.68-19.7-19-4.45-.28-7.57-.12-11.25.32l-2.74.68c-7.95,2.59-13.33,11.47-15.65,19.06l-158.27,54.44c-2.52.36-8.99-4.28-12.5-5.61-30.66-11.57-62.29,8.7-66.44,40.53l-79.5,75.42c-2.21,1.28-9.15-.41-13.02-.06-8.98.8-17.79,7.26-20.5,15.96,0,0-2.57,8.17,0,15.98,2.88,9.82,13.29,16.97,23.44,17.02,2.31,0,6.2.32,6.34.67l17.15,97.81c-4.59,9.58-10.89,16.38-11.93,27.83-4.02,44.26,41.62,69.72,77.64,44.58,23.39,17.59,45.47,37.72,68.41,56.23,1.19,1.76-1.33,9.18-1.15,13.04.85,18.24,21.21,28.82,36.78,19.66,56.33,11.75,113.49,24.9,169.1,39.34,4.75,13.27,16.22,19.25,30.09,17.37l-7.12,128.22c-.93,7.7-8.83,10.96-12.88,18.59-2.04,4.85-2.12,11.18-.7,16.92.65,2.62,1.61,5.12,2.85,7.3,1.1,1.95,8.74,11.37,23.71,8.83l3.71-.65c11.48-1.6,16.99-16.05,17.46-17.36.47-1.3,1.11-2.53,2.02-3.49l151.94-106.93c12.23,3.34,24.06,3.44,32.35-7.57,6.55-8.7,3.8-14.83,5.13-24.84,38.29-48.18,72.64-99.67,111.03-147.74,1.84-2.3,7.27-10.08,8.85-11.14,2.96-1.98,9.78-2.41,14.22-4.77,13.25-7.04,15.34-23.79,7.55-35.86,4.88-46.88,13.65-93.59,19.95-140.4.79-2.1,6.56-3.7,8.74-5.25,18.74-13.26,9.36-44.15-13.48-44.4ZM1153.1,159.34c.39-.96-.56-1.78,1.59-1.43l115.28,74.1c1.49,2.52-6.98,15.34-5.02,20.1-34.78,25.92-72.17,49.01-107.76,74.11l-1.98.48c-1.75-5.84-8.14-10.89-13.79-12.7-2.92-.93-9.2-.78-10.03-2.96l-20.19-115.15c14.9-2,29.08-10.68,36.79-23.68,2.69-4.53,3.27-8.37,5.11-12.87ZM1232.04,439.44l-121.33,50.07c-4.38-18.6-19.17-34.98-38.5-37.98l48.57-92.92c4.16,1.43,8.4,3.15,12.91,3.13,5.54-.02,9.08-3.06,14.19-3.35l87.05,57.68c-4.62,7.32-3.9,15.16-2.89,23.37ZM1109.63,329.74l-140.29-51.07c-.06-5.09-.92-10.25-2.38-15.1-1.83-6.1-5.44-10.41-7.65-16.12,37.2-22.33,75.05-43.71,113.23-64.35,4.85,3.2,9.56,6.71,14.99,8.96,4.99,2.07,11,2.43,14.96,4.03,1.02.41,1.61.98,1.99,2.01l19.59,111.26c.12,1.5.64,3.93-.08,5.16-.16.27-4.1,2.21-5.26,3.22-4.05,3.53-7.07,6.96-9.09,12ZM1113.77,355.68l-48.08,92.84c-2.16,3.38-6.42,1.54-9.85,2.15-9.7,1.73-16.04,5.49-24.59,9.87-23.82-49.77-49.42-98.69-74.57-147.8-.66-3.14,3.77-6.76,5.38-9.69,2.9-5.28,5.89-11.12,6.2-17.28,41.43,14.9,83.07,29.48,124.2,45.19,3.22,1.23,15.64,5.24,16.54,7.45.62,1.51.36,3.86,1.15,5.84,1.5,3.76,4.83,7.49,3.62,11.44ZM933.53,314.5c-54.76,19.24-72.95-71.08-15.47-75.43,43.55-3.3,58.77,60.22,15.47,75.43ZM925.31,325.75c7.29,1.92,20.35-8.51,24.63-8.91.88-.08,1.34.09,1.8.86l74.5,147.42c-1.78,4.77-5.38,8.29-7.5,13.41-2.48,5.98-2.83,12-5.07,17.91l-80.92,66.94c-2.29-2.49-3.24-5.96-5.5-8.46-3.09-3.41-8.61-4.29-9.04-8.94l7.09-220.22ZM1091.72,472.5c33.3,37.2-22.25,89.2-57.14,52.59-35.65-37.4,22.33-91.47,57.14-52.59ZM1101.98,109.28c45.48-5,60.54,61.02,16.44,75.34-54.22,17.61-72.1-69.23-16.44-75.34ZM892.81,86.06c3.85-4.13,5.38-9.63,6.47-15.02l166.94,47.43c1.56,1.15.61,1.09.16,2.16-1.02,2.41-3.22,4.84-4.35,7.66-7.12,17.79-4.12,33.42,5.18,49.6-38.11,20.1-75.21,42.54-112.95,63.51-2.8.59-7.97-4.38-11.14-5.95-6.9-3.41-14.27-5.16-21.9-6.08l-34.73-134.14c-1.67-5.4,3.62-6.27,6.32-9.17ZM850.23,73.08c2.94,14.34,14.64,21.76,28.95,21.03l34.09,136.72c-4.38.38-9.74,1.96-13.68,3.81-3.39,1.59-11.45,8.61-13.03,9.03-.81.21-1.55.09-2.28-.27-57.97-29.48-117.62-56.64-174.73-87.19-1.05-11.2-5.65-20.84-12.24-29.74l152.92-53.4ZM693.4,345.24c-15.98,12.96-31.52,26.5-47.56,39.37-4.59,3.68-10.31,8.88-14.97,12.01-.83.56-.95,1.42-2.49.99-5.38-17.96-21.29-31.49-40-33.96l45-163.78c1.32-1.13,8.91,3.75,11.01,4.47,15.13,5.19,29.99,2.48,43.96-4.47l17.76,115.23c-4.98,4.87-10.68,9.74-11.67,17.18-.55,4.13.98,9.45-1.03,12.95ZM694.34,195.39c7.2-9.19,13.59-18.5,15.01-30.47l171.83,85.37c-4.01,7.17-7.71,15.01-8.06,23.32l-131.55,50.94c-3.23.34-6.15-4.82-8.76-6.81-6.3-4.81-12.67-5.59-20.47-5.01l-17.99-117.34ZM660.13,120.25c49.66-1.4,53.91,73.2,4.71,77.61-52.64,4.72-57.2-76.13-4.71-77.61ZM536.3,278.25c-.54-4.18,3.41-5.63,5.5-8.55,9.02-12.6,6.17-24.02-3.34-35.23l74.9-69.54c1.07,8.48,4.62,16.2,9.18,23.29,1.81,2.82,5.59,4.16,4.78,8.01l-45.83,166.85c-5.15.79-10.33,1.17-15.34,2.85-4.95,1.65-8.87,5.26-13.76,6.72l-16.09-94.4ZM584.86,450.53c-49.58,3.09-56.05-71.15-8.72-77.62,54.03-7.39,60.86,74.38,8.72,77.62ZM703.21,491.86c-.53,1.6-7,2.44-9.54,3.45-3.24,1.29-5.72,3.43-8.69,5.1l-66.66-56.34c6.63-8.82,10.57-16.94,12.03-28,.45-3.39-1.08-8.43,1.03-10.96l65.65-53.31c5.96,4.27,11.54,9.19,19.28,9.89l-13.1,130.17ZM718.81,498.51c-6.57-5.26-9.08-2.03-8.46-12.5l12.95-124.67c14.03-4.25,20.78-14.88,19.16-29.5l130.82-50.07c-.13,5.21,1.45,11.17,3.52,15.97,1.52,3.52,10.03,14.02,9.03,15.97l-160,191.76c-2.45-2.11-4.52-4.94-7.02-6.95ZM910.83,546.48c-.95,1.36-7.68.93-10.38,1.62-9,2.29-15.3,12.49-16.18,21.29l-159.95-38.4,5.55-19.48,160.84-192.86c.55-.59,1.22-.95,2.04-.94.72,0,10.3,5.18,12.98,6.04,3.8,1.22,11.93,1.35,12.53,4.46-2.51,72.89-4.48,145.5-7.44,218.28ZM924.1,727.02l-8.89-.3.06-16.01c2.8-28.12,3.15-56.63,5-84.89.4-6.18,1.22-30.45,2.74-34.21,1.12-2.75,5.84-5.61,7.64-9.34,3.65-7.55,1.21-8.5,8.58-15.4,22.55-21.11,50.76-39.09,73.49-60.41l2.5-.99c1.22,8.56,4.71,16.71,10.03,23.44,1.9,2.4,8.36,6.75,7.6,9.53l-108.74,188.57ZM1091.16,607.79c-5.81,6.66-7.77,14.97-5.49,23.56.73,2.76,5.37,10.16,4.41,11.79l-147.77,101.97c.66-5.58-11.66-14.18-10.9-17.19l107.32-185.51c2.35-2.25,5.61.8,8.49,1.52,10.83,2.7,20.06,3.8,30.99.49l17.97,56.55c1,4.09-2.9,4.4-5.02,6.83ZM1129.2,608.86l-.51.46c-6.88-7.31-15.41-9.8-25.35-9.11l-18.91-58.32c16.43-9.46,27.14-25.96,26.88-45.3l123.6-50.9c2.59-.36,7.56,5.03,10.3,6.34l-116.01,156.84ZM1268.13,408.6c-5.89-3.24-13.31-3.95-19.8-2.31-3.49.88-6.5,4.43-10.12,2.81l-84.98-55.5c1.12-4.08,3.44-7.71,4.5-11.85.76-2.97-.32-6.39,1.45-8.54l106.27-71.64c3.03-2.1,3.47,1.46,5.18,3.25,5.04,5.28,9.99,8.25,17.44,9.04l-19.93,134.75Z" fill="#ffffff"/>
    <path class="cls-6" d="M3293.5,385.09c-5.81-105.66-123.32-165.38-211.88-105.73-85.47,57.57-52.62,160.34-59.11,247.62,2.28,33.05,41.9,49.97,66.56,26.47,4.21-4.01,11.45-16.88,11.45-22.51v-43.44h114.96v44.44c0,2.21,4.37,11.76,5.8,14.18,17.28,29.01,63.32,21.54,70.87-11.48.3-49.13,4.04-100.36,1.34-149.55ZM3215.49,409.6h-114.96l.86-28.44c.04-2.4,2-8.79,2.66-10.49,16.29-41.98,71.29-50.87,99.42-15.47,4.09,5.15,12.02,20.68,12.02,26.94v27.46Z" fill="#ffffff"/>
  </g>
  <circle class="cls-2" cx="1106.41" cy="147.99" r="40.83" fill="#ffffff"/>
  <circle class="cls-1" cx="921.07" cy="277.06" r="40.83" fill="#ffffff"/>
  <circle class="cls-4" cx="582.23" cy="411.53" r="40.83" fill="#ffffff"/>
  <circle class="cls-3" cx="660.31" cy="158.24" r="40.83" fill="#ffffff"/>
  <circle class="cls-5" cx="1062.68" cy="498.31" r="40.83" fill="#ffffff"/>
</svg>