<?xml version="1.0" encoding="UTF-8"?>
<svg id="Korber" xmlns="http://www.w3.org/2000/svg" viewBox="0 0 1812.96 997.13">
  <path fill="#fff" d="M1651.5,510.43c1.05-10.52,1.55-21.02,1.5-31.49-1.75-3.61-2.58-7.76-2.5-12.46l1.35-5.41c-14.38-188.11-156.46-350.39-341.05-391.16-11.16-2.46-22.79-4.84-34.14-6.08-1.15-.13-2.34.02-3.54.2-1.23.19-2.43.52-3.62.9-12.86-1.53-28.04-2.51-41-3-9.42-.35-19.54-.17-29,0-6.92.62-13.92.96-21,1-13.12,1.29-27.01,2.8-40,4.99-.78-.38-1.57-.72-2.4-.93-6.72-1.68-47.01,10.78-55.57,13.58-64.19,21.03-125.03,56.54-172.55,104.55-46.65-47.48-107.67-83.89-171.07-104.59-14.62-4.77-32.13-10.3-47.24-12.31-2.41-.32-4.82.13-7.16.71-21.31-3.73-44.48-6.15-66-6.99-.66-.03-1.33.02-2,0-16.08-.52-34.04-.26-50,1-6.14.48-12.86,1.24-19,2-201.34,24.94-364.97,195.12-380,397.56-.21,3.96-.34,8.08-.52,11.71-.02,2.19-.51,3.69-.48,7.27-.03,3.73-.13,7.34,0,10.99.27,7.68,1.05,15.29,1,22.97,7.68,87.42,25.01,155.11,74.78,228.47,7.96,11.73,17.41,22.42,25.22,34.24,82.81,93.58,175.94,141.95,301,155.83,3.82.2,7.72-.28,11.54-.04,1.3.08,2.61,1.04,2.96,1.04h34c5.21,0,13.81-.64,19.5-1l6.8,1.5c99.24-9.22,196.91-52.06,266.69-123.72,60.42,61.48,141.11,101.43,225.48,118.02,15,2.95,31.01,5.77,46.02,4.2,16.65.91,33.3,1.26,50,1l41-3c200.18-29.12,349.86-177.66,377.86-378.22.99-7.06,1.3-14.26,2.14-21.33.53-3.62.75-7.27.65-10.97,2.91-2.1,3.11-8.32.35-11ZM1615.38,548.76c-19.16,156.96-132.31,289.71-283.11,335.52-140.6,42.71-297.34,5.35-400.59-98.65,30.94-36.6,56.32-77.07,74.82-121.37h-37c-10.48,23.79-23.57,46.62-38.61,67.81-2.46,3.47-20.19,27.65-21.92,28.08-1.77.44-12.02-12.74-13.86-15.09-19.57-24.9-34.67-52.73-49.1-80.81h-35.5c17.48,44.09,43.22,84.52,73.89,120.57.62,2.29-3.2,5.22-4.87,6.8-178.57,169.1-467.01,139.33-607.83-61.13-131.6-187.34-81.16-444.91,109.29-569.71,157.16-102.99,368.46-82.29,502.6,48.41l.97,2.06c-29.82,37.04-56.84,76.74-74.04,121.36h35.5c14.54-28.52,30.26-56.56,50.1-81.8,1.7-2.16,11.02-14.54,12.86-14.09,1.52.37,17.1,21.57,19.35,24.66,16.12,22.19,30.17,46.1,41.18,71.24h37c-18.4-44.16-43.99-84.9-74.82-121.37,60.45-60.17,141.48-100.62,226.46-112.22,263.95-36.02,489.48,185.5,457.23,449.73Z"/>
  <path d="M1311.5,394.56v33.96h-103v51.94h84.5c.11,0,1.5,1.39,1.5,1.5v33.46h-86v51.94h103v35.96h-138v-208.77h138Z"/>
  <path d="M347.5,486.45l3.01-1.49,90.01-89.89,46.98-1.51-102.93,104.51,102.93,105.25h-45.5c-31.3-29.29-60.97-60.3-91.49-90.41l-3.01-1.49v91.9h-36v-208.77h36v91.9Z"/>
  <path d="M630.24,326.87c13.46-2.18,25.26,10.54,22.81,23.78-4.53,24.45-43.04,19.8-39.45-7.45.95-7.22,9.55-15.18,16.64-16.33Z"/>
  <path d="M567.25,326.86c25.6-4.04,31.6,35.34,7.52,39.48-28.86,4.96-32.15-35.59-7.52-39.48Z"/>
  <path d="M1098.52,494.94c29.17-18.9,29.35-64.59,2.9-85.82-7.88-6.32-27.47-14.57-37.42-14.57h-98.5v208.77c51.09-3.98,153.57,20.17,158.04-57.4,1.23-21.31-7.59-39.09-25.02-50.98ZM1000.5,426.52c14.78.55,29.76-.72,44.54-.04,10.41.48,26.35,1.26,34,8.99,11.06,11.17,6.58,34.06-7.64,40.4-2.37,1.06-11.24,3.59-13.4,3.59h-57.5v-52.94ZM1072.5,565.86c-1.27.59-9.82,3.5-10.5,3.5h-61.5v-56.94c15.97.68,32.65-.9,48.54-.04,12.96.7,29.21,2.3,35.64,15.34,6.8,13.8,2.14,31.51-12.18,38.13Z"/>
  <path d="M591.3,390.86c-82.06,7.04-125.16,103.49-77.19,170.4,44.55,62.13,136.26,59.92,178.2-3.58,50.18-75.96-10.78-174.57-101.01-166.82ZM657.47,545.86c-33.31,39.79-97.4,31.78-120.52-14.41-22.71-45.39,6.74-100.49,57.34-105.63,65.38-6.64,105.29,69.73,63.18,120.04Z"/>
  <path d="M868.51,518.91c62.06-29.68,46.56-112.92-20.78-123.08-30.01-4.53-64.65.74-95.22-1.27v207.27c0,.11,1.39,1.5,1.5,1.5h35.5v-75.92h45c13.49,25.75,30.65,50.08,44,75.92h43l-52.99-84.41ZM834,496.44h-44.5v-70.92c21.78,1.31,63.86-5.81,76.83,16.66,14.04,24.33-5.11,54.26-32.33,54.26Z"/>
  <path d="M1475.51,518.91c46.47-20.67,53.01-82.17,10.31-111.18-9.35-6.36-25.56-12.13-36.81-13.17h-88c-.11,0-1.5,1.39-1.5,1.5v205.77c0,.11,1.39,1.5,1.5,1.5h34c.11,0,1.5-1.39,1.5-1.5v-74.42h43.5c16.71,24.64,30.09,51.47,47,75.92h41.5l-52.99-84.41ZM1439,496.44h-42.5v-70.92c13.53.75,28.09-1.01,41.5,0,21.17,1.59,39.71,10.7,39.93,34.46.2,20.98-18.46,36.46-38.93,36.46Z"/>
</svg>