<?xml version="1.0" encoding="UTF-8"?>
<svg id="Layer_1" data-name="Layer 1" xmlns="http://www.w3.org/2000/svg" viewBox="0 0 201 251">
  <defs>
    <style>
      .cls-1 {
        fill: #f2912f;
      }

      .cls-2 {
        fill: #dedede;
      }

      .cls-3 {
        fill: #201e1f;
      }

      .cls-4 {
        fill: #ddd;
      }

      .cls-5 {
        fill: #f79330;
      }

      .cls-6 {
        fill: #cb7c2c;
      }

      .cls-7 {
        fill: #8f5b28;
      }
      </style>
      <style>
        .cls-1 {
          fill: #fff;
        }

        .cls-2 {
          fill: #fff;
        }

        .cls-3 {
          fill: #fff;
        }

        .cls-4 {
          fill: #fff;
        }

        .cls-5 {
          fill: #fff;
        }

        .cls-6 {
          fill: #fff;
        }

        .cls-7 {
          fill: #fff;
        }
      </style>
  </defs>
  <line class="cls-2" x1="10.56" y1="230.73" x2="12" y2="230.73"/>
  <path class="cls-3" d="M109.01,19.62l1.14.03c1.67.27,3.05.49,4.74.75,58.67,9.42,84.21,82.28,42.94,125.67-1.19,1.25-2.41,2.88-4.3,2.87H50.43c-20.95-19.65-28.31-50.74-19.26-78.11,8.41-25.44,30.71-45.03,57.07-50.03,2.12-.5,4.29-.81,6.46-.98l.92-.05c.41-.03,1.83-.21,2.36-.21,3.15-.23,6.66-.16,9.84,0,.23.01.86.02,1.19.04Z"/>
  <path class="cls-3" d="M111.3,161.23l5.84,17.63c.43-2.43,1.6-4.67,2.32-7.01.32-1.04.92-2.74.97-3.76.1-2.2-1.54-4.75-2.05-6.86h6.97l5.43,17.84,5.53-17.84h5.84l-8.64,24.98c-2.06.15-4.17-.19-6.2.25l-4.03-12.32-.66,1.93-3.88,10.13c-1.07-.21-5,.67-5.61.04l-8.91-25.02h7.07Z"/>
  <polygon class="cls-3" points="48.27 161.23 48.27 165.28 39.26 165.33 39.26 171.28 48.07 171.42 48.07 175.58 39.26 175.58 39.26 181.94 48.18 181.76 48.27 185.96 33.41 186.24 33.11 161.23 48.27 161.23"/>
  <path class="cls-5" d="M143.38,223.55v-14.02c0-.52-.43-.95-.95-.95h-4.58v14.97l-6.15-.2.23-18.64c4.31-1.24,9.72-2.73,13.83-.25,1.15.69,2.71,2.67,2.89,2.96.6,1,.88,1.86.88,3.31v12.81h-6.15Z"/>
  <path class="cls-5" d="M87.63,203.67h5.84c.22,0,.33.5.32.71-.1,2.37-.21,4.09-.23,5.95-.03,3.59.02,7.38-.01,11.06,0,.98-.91,1.36-1.99,1.7-3.81,1.23-11.28,1.95-13.77-1.74-1.48-2.19-1.64-3.86-1.64-5.28v-12.4h6.15c.17,3.6-.22,7.4,0,10.98.04.61,0,2.72.31,3.1,1.53,1.91,3.42,1.15,4.7.02"/>
  <path class="cls-3" d="M188.67,162.26c-2.4,4.24-6.32,8.47-9.02,12.61v11.07s-.29.31-.31.31h-6.25c-.06-2.93.65-5.99.41-8.91-.23-2.69-1.69-4.38-3.07-6.57-1.97-3.11-4.15-6.1-6.26-9.12-.2-.11.18-.41.21-.41h6.97c1.06.96,5.11,9.65,5.74,9.64.54-.01,4.16-8.45,5.12-9.44.35-.34.89-.18,1.34-.2,1.77-.21,3.57-.15,5.33,0,.27.11.02.67-.2,1.03Z"/>
  <path class="cls-5" d="M67.03,218.84c.75-.33,1.3-1.24.08-2.23-.83-.67-4.25-.98-5-1.25-3.99-1.4-5.93-4.77-4.09-8.82,1.72-3.79,7.92-3.54,11.34-2.73.53.13,3.23,1,3.43,1.29.34.47-1.63,3.57-2.1,4.09l-6.68-.83c-.13-.02-.27.03-.34.14-.39.65-.58,1.52-.11,1.97.34.32,3.87.88,4.75,1.15,1.78.56,2.93.91,4.11,2.45.31.4,1.19,1.45,1.19,2.85,0,3.3-1.17,4.48-1.78,5.11-3,3.13-11.99,2.36-15.06-.71.13-.22,1.85-3.9,2.04-4.29.71.39,1.49.75,2.26,1,.59.19,1.92.56,2.87.82.88.24,2.22.38,3.07,0Z"/>
  <path class="cls-5" d="M54.22,204.9c.17.18-2.16,4.21-2.39,4.28-1.32-.15-2.57-.61-3.89-.77-.43-.05-2.36-.27-2.63-.24-.21.03-.37.13-.5.27-.52.56-.27,1.51.43,1.81,3.42,1.49,8.7,1.48,9.34,5.87.97,6.69-4.33,8.24-9.9,7.85-1.49-.11-5.43-1.23-6.39-2.32l1.72-4.43c2.36,1.39,5.37,3.4,8.08,1.89,1.52-.85.33-2.21-.63-2.62-2.95-1.27-7.53-1.37-8.59-5.14-.98-3.5.47-6.24,3.83-7.42,3.96-1.39,7.74-.24,11.53.98Z"/>
  <polygon class="cls-3" points="20.81 161.23 20.81 181.94 29.68 181.82 29.62 186.24 14.76 186.24 14.46 161.23 20.81 161.23"/>
  <path class="cls-5" d="M160.96,203.32c2.55-.09,5.48.65,7.62,2.09-.58.65-1.18,3.42-2.65,3.68-2.03.36-5.83-2.1-7.09,1.14-.37.96-.37,5.19-.29,6.25s.23,2.25,2.13,2.38c.93.06,3.21-.7,4.73-.95.54-.09,1.09.13,1.42.57.74,1,2.1,2.67,2.14,2.97.06.41-2.06,1.36-2.51,1.54-4.22,1.73-10.74,1.6-12.92-3.13-1.22-2.65-1.31-10.04.04-12.62,1.48-2.82,4.36-3.8,7.38-3.9Z"/>
  <path class="cls-5" d="M97.47,223.35l.13-19.74s4.45-.02,5.3-.03c1.45-.01,4.64.02,6.38,0,.03.73.12,4.19.09,4.72l-5.75.29v14.76h-6.15Z"/>
  <path class="cls-4" d="M190.52,158.57s-.32,0-.41,0"/>
  <path class="cls-5" d="M43.77,135.4c-15.2-22.19-14.28-52.86,1.47-74.48,28.46-39.06,87.79-34.83,110.68,7.51,13.64,25.23,8.63,56.52-11.21,76.81h-41.91c-.33-3.88,1.94-7.57,2.43-11.2.34-2.49.04-5.09.23-7.56.24-3.02,2.08-11.28,3.72-13.71l6.26-6.04c7.61-.23,15.79-.11,22.09-4.97,3.6-2.77,6.43-7.11,7.23-11.63.84-4.79-.75-7.58,3.33-11.22.37-.33,2.54-2.04,2.82-2.12.83-.24,3.3.79,4.42.38.39-.11,1.63-3.45,1.48-3.89-.26-.75-2.91-3.32-3.71-3.68-3.45-1.55-6.1.76-9,.76-1.51,0-4.34-.99-6.15-1.19-.56-.06-3.26-.35-3.5-.01s-.04,3.63-.09,4.42c-.25,3.74-.53,7.55-.81,11.29-.18,2.44-.61,4.91-1.78,7.07-5.41.65-10.88.11-14.62-4.22-3.25-3.77-5.18-7.14-9.98-9.49-5.46-2.67-11.56-.35-17.09-3.21-3.74-1.93-5.99-7.16-10.57-7.68-7.45-.83-10.84,6.31-15.24,10.75s-5.76,1.18-10.16,1.73c-2.32.29-6.02,4.69-7.78,6.37-1.47,1.4-3.34,2.61-4.61,4.2-3.27,4.12-1.58,12.48-1.24,17.42.21,2.97-.41,5.83,1.54,8.5.27-.5.46-1.18.51-1.74.42-4.71-.12-10.24-.41-14.97-.03-.54-.07-1.23.1-1.74,1.72,2.87,1.46,6.49,1.98,9.71,1.21,7.52,2.81,13,1.79,20.91-.33,2.52-1.19,4.38-1.82,6.69-.09.35-.15.54-.41.21Z"/>
  <path class="cls-5" d="M96.83,113.69c-.49,4.65-.85,9.37-1.93,13.93-.5,2.09-1.71,4.68-1.92,6.69-.19,1.83.14,3.81-.08,5.66s-1.23,3.51-1.99,5.19l-31.06.11c-.73-.31-2.4,0-2.86-.42-.36-.32-1.6-3.86-1.79-4.56-1.61-5.72-1.58-13.4-.22-19.18.66-2.82,2.35-5.36,2.7-8.16.3-2.37-.48-4.84,2.37-5.83,3.28-1.13,4.13,1.32,6.4,2.84,3.89,2.63,10.05,3.95,14.71,4.15,5.3.23,10.44-1.42,15.67-.4Z"/>
  <path class="cls-5" d="M100.54,127.2c.06,2.75-.73,5.52-.61,8.3.06,1.52.53,3.21.62,4.71.06,1.04.16,3.61,0,4.52-.03.17-.16.51-.31.51h-6.25c.88-2.37,2.34-4.51,3.32-6.83,1.74-4.17.9-8.17,3.04-12.23.47-.17.36.66.2,1.03Z"/>
  <path class="cls-1" d="M53.99,145.22c-1.23.77-2.92-2.55-2.23-3.05.78-.56,3.17,2.46,2.23,3.05Z"/>
  <path class="cls-6" d="M100.54,127.2c0-.33.12-.85-.2-1.03.15-.28.14-.68.41-.61-.06.51.21,1.29-.2,1.64Z"/>
  <path class="cls-7" d="M44.18,135.2c-.04.16.03.42,0,.61-.63.14-.32-.28-.41-.41l.41-.21Z"/>
  <path class="cls-3" d="M101.32,166.91c-4.2-7.42-15.38-5.36-22.51-5.68v25.01c6.36-.24,14.33,1.17,19.58-3.28,4.34-3.67,5.74-11.09,2.93-16.06ZM85.06,181.95l.11-16.62c5.85.02,10.98.99,11.28,7.89.32,7.21-5.16,9.17-11.39,8.73Z"/>
  <path class="cls-5" d="M27.96,196.62c-.75-.09-1.1-.13-1.72-.11-1.08.03-4.67-.24-5.32.21l-8.93,26.64,6.33.18c.44-1.13,1.68-5.06,1.68-5.06,2.8-.05,5.84-.07,8.81-.15l1.64,5.25c2.12.03,4.22.07,6.35-.02l-8.83-26.94ZM27.06,213.1h-5.43l2.67-10.05,3.13,10.05h-.36Z"/>
  <path class="cls-3" d="M156.85,161.28c-.43-.5-4.79-.23-5.69-.16l-10.86,25.12h5.64c.88-.79,1.86-5.42,2.41-5.9h9.33s1.12,5.03,1.99,5.9h7.07l-9.89-24.96ZM149.94,175.99l3.38-8.61,2.77,8.61h-6.15Z"/>
  <path class="cls-3" d="M66.74,161.35c-1.3-.2-5.09-.79-5.95.21l-10.47,24.17c.03.62,5,.55,5.71.48.47-.89,2.19-5.3,2.48-6.02,0,0,3.97.03,4.66.06,1.2.05,4.24.1,4.24.1.64.73,1.73,5.73,2.27,5.9h6.87l-9.81-24.89ZM59.96,176.2l3.18-8.61,2.97,8.61h-6.15Z"/>
  <path class="cls-5" d="M187.42,215.51c.24,0,.44-.2.44-.44,0-.48-.02-.79-.03-1.04-.09-3.4.24-7.18-3-9.3-3.69-2.41-11.24-1.96-13.36,2.35-1.16,2.34-1.3,8.38-.75,10.95,1.05,4.9,5.54,6.29,10.06,5.94,2.57-.19,4.97-.66,7.24-1.74,0,0-1.34-3.48-1.73-3.55-1.52.24-6.86,2.56-9.49.05-1.17-1.12-.55-3.06-.44-3.17l11.05-.05ZM176.73,211.22c.23-.74.87-3.11,2.9-3.11,1.67,0,2.44.45,2.69,3.18"/>
  <path class="cls-5" d="M113.29,209.53c3.2-.53,7.66-3.07,8.85,1.07.11.39-.16.81-.57.84-2.69.19-5.67-.16-8.08,1.05-2.75,1.39-3.45,4.76-2.35,7.49,2.23,5.52,11.47,3.91,16.35,2.97.32-.06.53-.34.52-.66-.17-3.98.39-8.36.04-12.24-.56-6.09-6.16-7.7-11.52-6.4-1.25.3-3.09.63-3.6,1.22M122.1,218.45c0,1.01-1.67,1.17-3.2,1.04-.76-.07-1.48-.45-1.88-1.1-.31-.51-.36-.99-.43-1.87-.02-.25.1-.51.33-.62.86-.42,3.09-.77,4.49-.83.37-.01.68.28.68.65v2.73Z"/>
</svg>