<?xml version="1.0" encoding="UTF-8"?>
<svg id="Layer_1" data-name="Layer 1" xmlns="http://www.w3.org/2000/svg" viewBox="0 0 1000 219">
  <defs>
    <style>
      .cls-1 {
        fill: #fff;
      }

      .cls-2 {
        fill: #fff;
      }

      .cls-3 {
        fill: #fff;
      }

      .cls-4 {
        fill: #fff;
      }

      .cls-5 {
        fill: #fff;
      }

      .cls-6 {
        fill: #fff;
      }

      .cls-7 {
        fill: #fff;
      }
    </style>
  </defs>
  <path class="cls-6" d="M32.63,188c.61,1.65.61,3.32,0,4.97"/>
  <path class="cls-6" d="M32.63,178.07c.61,1.65.61,3.32,0,4.97"/>
  <path class="cls-6" d="M32.63,168.13c.61,1.65.61,3.32,0,4.97"/>
  <path class="cls-7" d="M54.33,16.46v.33s.31,96.24.31,96.24l.22-.62h49.44l1,.03v18.11l-.84.02-70.67.46.02-2.48c-.03-1.54.03-3.92,0-4.97,0-1.65,0-3.32,0-4.97,0-2.02,0-3.9,0-4.97,0-1.65,0-3.32,0-4.97,0-1.86,0-3.03,0-4.97,0-1.65,0-3.32,0-4.97,0-1.63,0-3.21,0-4.97,0-1.65,0-3.32,0-4.97,0-1.83,0-3.22,0-4.97,0-1.65,0-3.32,0-4.97,0-1.71,0-3.15,0-4.97,0-1.65,0-3.32,0-4.97,0-1.75,0-3.25,0-4.97,0-1.65,0-3.32,0-4.97,0-1.89,0-3.1,0-4.97,0-4.96,0-9.94,0-14.9,0-1.63,0-3.2,0-4.97,0-1.65,0-3.32,0-4.97,0-1.84,0-3,0-4.97,0-1.65-.04-3.32,0-4.97v-2.79"/>
  <path class="cls-3" d="M32.63,173.1c.61,1.65.61,3.32,0,4.97"/>
  <path class="cls-3" d="M32.63,192.97c.77,1.67.77,3.29,0,4.97"/>
  <path class="cls-3" d="M32.63,163.17c.84,1.63.85,3.34,0,4.97"/>
  <path class="cls-3" d="M32.63,183.03c.61,1.65.61,3.32,0,4.97"/>
  <path class="cls-7" d="M957.63,19.11c.05,4.96-.04,9.94,0,14.9h-35.12v95.78s-.43.47-.47.47h-19.89s-.47-.43-.47-.47V34.01h-34.66c-.34,0-.45-.76-.48-1.07-.38-3.27-.4-13.08.02-16.31l91.07-.31c.01.93,0,1.87,0,2.79Z"/>
  <path class="cls-1" d="M32.63,163.17c.02-1.34-.01-2.69,0-4.04h27.04v4.97h-21.45v15.21h19.58v4.66h-19.58v20.18c-1.84,0-3.8,0-5.59,0-.02-.51.01-.73,0-1.24,0-1.01,0-3.42,0-4.97,0-1.65,0-3.32,0-4.97s0-3.32,0-4.97,0-3.32,0-4.97,0-3.32,0-4.97,0-3.32,0-4.97,0-3.32,0-4.97-.02-3.32,0-4.97Z"/>
  <path class="cls-7" d="M444.78,15.08c.31.02.62-.02.93,0,.68.05,2.06.2,2.8.31,16.53,2.39,32.65,14.3,32.64,32.29h-19.89c-1.85-15.63-23.86-18.57-35.13-11.96-6.18,3.62-9.06,11.01-5.44,17.56,4.62,8.36,24.59,10.8,33.42,13.5,18.39,5.62,32.03,17.38,27.88,38.4-4.94,25.03-36.44,29.77-57.41,25.24-17.2-3.71-29.22-15.88-29.52-34h20.05c.79,1.78.96,3.81,1.7,5.75,6.96,18.23,46.59,15.16,45.07-4.97-.55-7.23-6.84-10.41-12.89-12.58-16.26-5.85-43.84-7.41-49.66-27.39-6.82-23.41,13.2-40.39,34.89-42.15,3.03-.25,7.49-.17,10.57,0Z"/>
  <path class="cls-7" d="M797.24,34.01v30.43h49.42v17.39h-49.42v31.05h53.77v17.39h-74.6V16.78s.43-.47.47-.47h73.35s.47.43.47.47v16.76s-.43.47-.47.47h-52.99Z"/>
  <path class="cls-7" d="M702.13,34.01v30.43h49.42v17.39h-49.42v31.05h53.77v16.92s-.43.47-.47.47h-73.66s-.47-.43-.47-.47V16.78s.43-.47.47-.47h73.35s.47.43.47.47v16.76s-.43.47-.47.47h-52.99Z"/>
  <path class="cls-7" d="M521.55,34.01v30.43h47.09s.47.43.47.47v16.92h-47.09s-.47.43-.47.47v47.97h-20.51V16.32h72.58s.47.43.47.47v16.76s-.43.47-.47.47h-52.06Z"/>
  <path class="cls-7" d="M260.15,124.98c-29.14-17.62-32.49-66.76-11.8-91.73,24.98-30.16,80.55-20.63,87.33,20.02h-20.98c-1.93-4.19-3.95-8.68-7.3-11.96-9.6-9.43-27.5-9.08-37.9-1.21-18.43,13.95-18.15,56.58,1.84,69.05l.34.59c-3.6,5.1-7.2,10.19-10.81,15.29l-.72-.05Z"/>
  <path class="cls-7" d="M613.55,112.87h50.04v16.92s-.43.47-.47.47h-70.4V16.32h20.36s.47.43.47.47v96.09Z"/>
  <path class="cls-4" d="M271.34,109.15c10.07,6.28,24.69,6.19,34.6-.37,7.06-4.67,10.43-13.06,10.47-21.36h-26.11v-16.14h46.31l1.24,56.19c-.78.22-.94-.93-1.17-1.47-1.63-3.81-2.36-7.98-4.06-11.78-.34-.76-2.53-4.95-3.01-5.07-.44-.11-.67.4-.9.65-2.22,2.36-4.13,6.72-6.41,9.43-13.88,16.55-44.74,16.28-62.15,5.75l11.19-15.83Z"/>
  <path class="cls-7" d="M377.02,16.32v113.94h-20.36s-.47-.43-.47-.47V16.78s.43-.47.47-.47h20.36Z"/>
  <path class="cls-1" d="M489.54,170.62h-5.28c-1.38-6.33-8.3-8.06-13.93-6.61-7.02,1.8-8.92,9.21-2.03,12.77,4.46,2.3,10.27,2.59,14.92,4.96,10.14,5.18,8.72,17.95-1.46,21.94-9.48,3.71-23.19.62-24.55-11.02h5.44c.3,0,1.58,3.16,2.08,3.83,4.9,6.61,22.28,3.79,19.69-6.32-1.19-4.65-10.75-6.01-14.71-7.35-4.52-1.54-10.22-4.25-10.92-9.58-2.38-18.07,29.19-19.95,30.74-2.61Z"/>
  <path class="cls-1" d="M193.95,192.66h5.59c1.62,8.85,15.61,9.63,20.37,3.42,4.02-5.25-.26-8.99-5.06-10.79-8.25-3.09-22.41-4.26-19.15-17.11s29.3-12.64,30.44,2.14c-.32.44-3.99.43-4.63.24-.78-.23-2.13-3.54-3.01-4.44-4.06-4.15-16.31-3.37-17.64,3.17-1.79,8.77,11.37,9.37,17.1,11.65,14.63,5.82,9.7,22.76-4.93,24.1-8.77.8-18.08-2.6-19.08-12.38Z"/>
  <path class="cls-1" d="M526.52,189.24h-24.55c-.32,10.92,13.69,15.26,19.16,5.87l5.08,1.27c-2.77,7.12-10.27,9.7-17.42,8.24-19.25-3.93-14.79-39.11,6.86-34.18,5.74,1.31,10.87,7.35,10.87,13.36v5.43Z"/>
  <path class="cls-1" d="M349.05,216.56c.32-.86.7-3.85,1.08-4.35.45-.59,3.25-.19,4.29-.38,2.69-.48,4.28-5.15,4.87-7.51l-12.42-33.71h5.91l9.17,26.39,9.48-26.39h5.59l-14.24,38.71c-1.62,3.56-2.77,5.72-6.58,7.24-2.42.77-4.87-.06-7.15,0Z"/>
  <path class="cls-1" d="M665.46,216.25c0-.25-.23-.58-.14-.96.24-1.13.83-2.22,1.12-3.34,5.95.98,7.47-2.82,8.93-7.65l-12.39-33.69h5.91c2.52,8.71,6.06,17.1,8.7,25.77.14.69.49.93.93.31,3.22-8.59,5.77-17.49,9.01-26.08h5.59l-14.86,40.26c-2.3,4.53-3.56,4.01-7.51,6-1.54-.31-4.26.72-5.28-.62Z"/>
  <path class="cls-1" d="M574.39,170.62v22.51c0,.62,1.1,3.1,1.56,3.72,3.68,5.03,12.37,2.6,13.97-3.12.34-1.22.56-3.34.64-4.64.37-6.03-.16-12.44-.31-18.47h5.59v33.53c-1.03-.35-5.05.59-5.46.01-.2-.28.48-4.73.17-5.6-2.85,3.44-5.18,6.17-10.09,6.23-5.53.07-11.35-4.22-11.35-10.11v-24.06h5.28Z"/>
  <path class="cls-1" d="M561.65,180.55h-5.28c-.14,0-.99-1.93-1.42-2.46-2.62-3.13-5.69-4.1-9.71-2.92-10.79,3.16-9.61,27.32,4.93,24.8,1.04-.18,2.99-1.03,3.79-1.72.88-.76,2.18-3.63,2.72-3.89.63-.3,4.69-.23,4.97.17-1.86,9.88-13.62,13.23-21.72,8.19-9.72-6.04-9.51-24.78.39-30.61,8.03-4.73,19.64-1.35,21.34,8.43Z"/>
  <path class="cls-1" d="M271.96,165.8c.78-8.13,7.68-9.44,14.61-8.23l-1.29,4.61c-2.11.29-5.45-.68-6.94,1.29-.76,1-1.75,7.13-.63,7.13h7.3v4.35h-7.3s-.47.43-.47.47v28.72c-1.08.02-2.17-.03-3.26,0-.4.01-2.02.64-2.02-.16v-29.03h-5.28v-4.35h5.28c.11-1.56-.15-3.28,0-4.81Z"/>
  <path class="cls-1" d="M162.87,162.54v8.07h7.46c-.09.67.32,4.35-.47,4.35h-6.99c.28,6.06-.38,12.46-.01,18.49.07,1.2.32,4.09.99,4.91,1.18,1.46,4.12,1.03,5.82,1.17l.97,4.93c-3.56.25-7.12.46-10.1-1.86-1.26-.98-2.95-3.52-2.95-5.12v-22.51h-4.97v-4.35h4.51s.47-.43.47-.47v-7.61h5.28Z"/>
  <path class="cls-1" d="M334.44,162.54v7.61s.43.47.47.47h6.99c-.09.67.32,4.35-.47,4.35h-6.99v20.65c0,.12.67,2.08.8,2.31,1.39,2.38,5.67,1.11,6.21,1.87l.77,4.67c-4.03.44-8.61.36-11.32-3.13-.68-.88-1.74-3.11-1.74-4.16v-22.2h-4.51c-.78,0-.37-3.68-.47-4.35h4.97v-8.07h5.28Z"/>
  <path class="cls-1" d="M650.54,162.54v8.07h7.15v4.35h-7.15v20.96c0,.47,1.03,2.66,1.47,2.96,1.52,1.04,4.77.28,5.33.65.22.14,1.19,4.71.97,4.93-3.23.02-6.32.62-9.23-1.18-1.64-1.01-3.83-3.84-3.83-5.8v-22.51h-4.82c-.78,0-.37-3.68-.47-4.35h4.82s.47-.43.47-.47v-7.61h5.28Z"/>
  <polygon class="cls-1" points="73.66 159.13 73.66 204.15 68.38 204.46 68.38 159.13 73.66 159.13"/>
  <path class="cls-1" d="M622.25,170v4.81c0,.78-4.54.38-5.41.49-3.13.41-6.4,3.73-6.4,6.96v21.89c-1.78-.01-3.55-.1-5.28.31v-33.84h5.28c-.27,1.52-.55,3.12-.16,4.66,1.02-1.12,2.04-2.67,3.29-3.55.64-.45,3.54-1.73,4.18-1.73h4.51Z"/>
  <polygon class="cls-1" points="633.44 170.62 633.44 204.15 628.16 204.46 628.16 170.62 633.44 170.62"/>
  <path class="cls-2" d="M633.65,158.92c2.95,2.95-1.04,7.84-4.85,5.31-4.6-3.07,1.13-9.02,4.85-5.31Z"/>
  <path class="cls-5" d="M677.58,196.38c.42.58.23.83.93.31-.12.32-.02.69-.47.93-.59-.31-.35-.86-.47-1.24Z"/>
  <path class="cls-7" d="M174.06,15.39c-.64-.08-2.52-.31-2.95-.31h-10.26c-.26,0-1.81.25-2.33.31-.64.08-1.55.2-2.18.31-36.18,6.27-48.41,45.29-40.01,77.37,8.08,30.84,39.1,46.24,69.07,35.33,48.85-17.78,43.96-106.11-11.35-113.01ZM194.8,93.08c-10.65,28.91-50.14,26.43-58.2-3.8-5.91-22.16.06-54.03,27.76-55.79,31.58-2.01,39.15,35.95,30.45,59.59Z"/>
  <path class="cls-1" d="M429.55,196.54c2.19-3.58,3.41-7.74,3.42-11.95h-4.97c-.44,2.35-.89,4.71-1.52,7.03-.11.42.21.87-.5.73l-9.46-11.37c2.38-2.87,5.66-4.1,7.56-7.59,6.92-12.65-12.3-19.94-19.04-10.01-3.87,5.71-.11,11.89,3.62,16.41-5.85,4.54-11.02,9.05-7.86,17.22,3.8,9.85,18.22,9.5,25.44,3.75.6.11,2.31,3.4,3.22,3.65,1.04.29,4.56-.71,5.99-.26-1.88-2.59-4.29-4.83-5.9-7.6ZM414.55,163.25c2.1-.08,4.53,1.24,5.28,3.26,1.84,4.99-3.41,8-6.91,10.24-.66-.05-3.53-4.85-3.79-5.76-1.06-3.7,1.54-7.6,5.43-7.75ZM407.17,197.47c-4.75-5.34.24-10.78,4.82-13.8l10.9,13.34c-4.45,3.35-11.52,5.17-15.71.46Z"/>
  <path class="cls-1" d="M147.29,183.23c-1.39-9.49-8.65-15-18.25-12.72-14.81,3.52-15.57,29.16-.91,33.72,7.28,2.27,16.32-.18,18.89-7.85-1.14-.02-3.85-1.43-4.76-1.2-.47.12-2.86,3.7-5.19,4.45-7.64,2.49-14.06-2.64-14.29-10.4h24.4c.85,0,.23-5.25.12-6.02ZM122.77,184.59c1.21-12.92,18.94-13.42,19.58,0h-19.58Z"/>
  <path class="cls-1" d="M308.09,170.39c-22.84-5.14-26.69,35.13-2.39,34.7,2.97-.05,7.95-1.78,10.09-3.9.37-.37,2.66-3.75,2.75-4.1.11-.42.12-.6-.26-.86-.18-.13-3.97-1.12-4.19-1.09-.75.08-2.64,3.5-4.97,4.37-7.71,2.86-14.42-2.4-14.78-10.26h24.87c.21-8.26-2.04-16.81-11.12-18.85ZM294.34,184.59c1.44-12.8,18.8-13.65,19.58,0h-19.58Z"/>
  <path class="cls-1" d="M111.18,183.28c-1.11-7.66-6.03-13.07-14.04-13.3-19.14-.55-21.47,31.01-3.6,34.65,7.22,1.47,14.7-1.08,17.42-8.24-1.22.07-3.75-1.45-4.76-1.2-.29.07-2.25,2.62-3.04,3.19-7.15,5.16-16.72-.43-16.45-9.13h24.4c.32,0,.47-.75.49-1.08.05-.79-.29-3.96-.42-4.88ZM86.4,184.59c1.4-6.59,5.61-11.2,12.81-9.53,4.74,1.1,6.46,5.07,7.09,9.53h-19.89Z"/>
  <path class="cls-6" d="M521.55,184.59h-19.89c1.09-4.4,2.72-8.21,7.45-9.48,7.07-1.89,11.64,2.73,12.44,9.48Z"/>
  <path class="cls-1" d="M241.08,171.28c-3.29,1.27-4.98,3.63-7.03,6.32,0,.31,4.4,2.03,4.77,1.96.56-.11,3.24-3.47,4.86-4.13,6.39-2.61,12.38.68,11.48,7.9-5.98,1.63-20.3.82-21.67,8.94-2.25,13.31,14.48,16.88,21.68,7.84v4.35l5.28-.31v-23.13c0-10.41-11.26-12.88-19.39-9.74ZM255.18,192.81c0,1.89-1.61,4.44-3.1,5.6-4,3.1-13.61,2.98-13.62-3.42,0-6.84,12.15-5.88,16.72-7.3v5.12Z"/>
</svg>