<?xml version="1.0" encoding="utf-8"?>
<!-- Generator: Adobe Illustrator 27.8.0, SVG Export Plug-In . SVG Version: 6.00 Build 0)  -->
<svg version="1.1" id="layer" xmlns="http://www.w3.org/2000/svg" xmlns:xlink="http://www.w3.org/1999/xlink" x="0px" y="0px"
	 viewBox="0 0 652 218" style="enable-background:new 0 0 652 218;" xml:space="preserve">
<style type="text/css">
.st0{fill:#fff;}
</style>
<g>
	<path id="SVGID_1_" class="st0" d="M625.7,88.1c-0.2,0-3.4-0.2-3.4-0.2c-13.4-0.9-13.2-13.2-13.2-13.2c0.2-14.9-8.3-38.6-41.8-39.9
		h-57.7l-0.8,2.8h48.6c4.9,0.2,8.3,3.8,6.8,9.6l-8.7,31.6c-3.4,9.4-12,9-12,9c-8.8-0.8-6.4-9.2-6.4-9.2L541,64
		c1.3-4.9-2.3-7.3-5.3-7.3h-32.2l-0.8,2.8h13.7c5.1,0.2,6.2,3.9,5.3,7.3c0,0-1.7,6-3.8,13.5c-1.9,7.3-8.7,7.5-9.8,7.5h-13.4
		l-0.9,3.4h12.6c1.5,0,8.3,0.2,6.2,7.5c-2.1,7.5-3.8,13.5-3.8,13.5c-0.9,3.4-4.1,7.1-9.2,7.3h-13.7l-0.5,3.1h32.2
		c3-0.2,7.9-2.4,9.4-7.3l3.9-14.5c0,0,2.1-8.5,11.5-9.2c0,0,9-0.6,7,9l-8.7,31.6c-1.7,5.8-7,9.4-12,9.6h-48.5l-0.8,3h57.9
		c34.2-1.3,55.7-25,63.8-39.9c0,0,6.4-12,20.3-13.2l3.4-0.2c0,0,0.2,0,0.4-0.2c0.2-0.6,0.8-2.8,0.8-3
		C625.9,88.1,625.9,88.1,625.7,88.1"/>
	<path class="st0" d="M107.5,92.8c-1.9-2.3-5.3-5.1-11.8-5.1H41.5l-15.6,57h15.2l12.3-44.4h13.5l-12,44.4h15.2l12-44.4h5.8
		c2.4,0,4.1,0.6,5.1,1.9c1.3,1.7,0.9,4.5,0.6,5.8l-10,36.7h15.2l10.7-39.5C110.7,100.7,110,96.2,107.5,92.8z M170.5,93.3
		c-2.6-3.4-7.5-5.5-12.8-5.5h-32.9l-3.2,11.8h28.8c3,0,5.1,0.8,6.2,2.1c1.1,1.3,1.3,3.6,0.6,6.2l-0.8,2.3h-24
		c-10.9,0-19.4,6.6-22.4,17.1c-1.5,5.3-0.9,9.8,1.5,12.8c2.3,3,6.4,4.5,11.7,4.5h39.1l10-36.5C173.9,101.9,173.4,96.9,170.5,93.3z
		 M150.4,132.8H132c-1.7,0-4.3-0.2-5.3-1.5c-0.6-0.8-0.8-2.1-0.4-3.8c1.3-4.9,5.1-5.5,8.8-5.5h18.3L150.4,132.8z M258.4,93.3
		c-2.6-3.4-7.5-5.5-12.8-5.5h-32.7l-3.2,11.8h28.7c3,0,5.1,0.8,6.2,2.1c1.1,1.3,1.3,3.6,0.6,6.2l-0.6,2.3h-24.1
		c-10.9,0-19.4,6.6-22.4,17.1c-1.5,5.3-0.9,9.8,1.5,12.8c2.3,3,6.4,4.5,11.7,4.5h39.1l10-36.5C262,101.9,261.4,96.9,258.4,93.3z
		 M238.3,132.8h-18.4c-1.7,0-4.3-0.2-5.3-1.5c-0.6-0.8-0.8-2.1-0.4-3.8c1.3-4.9,5.1-5.5,8.8-5.5h18.2L238.3,132.8z M312.2,87.9
		L300,132.3h-15c-2.4,0-4.1-0.6-5.1-1.9c-1.5-1.7-0.9-4.5-0.6-6l10-36.7h-15l-10.3,38c-1.7,5.8-1.1,10.5,1.5,13.7
		c3.4,4.1,9.4,5.1,13.7,5.1h17.5l-1.5,5.6c-0.9,3.4-4.9,7.1-10.5,7.1h-28l-3.2,11.8H286c9,0,21.4-7.9,24.5-19.2l16.9-62.1
		L312.2,87.9L312.2,87.9z M380.4,114.8c-2.3-3-6.4-4.5-11.7-4.5h-15.6c-1.9,0-4.5-0.2-5.5-1.5c-0.6-0.8-0.8-2.1-0.4-3.6
		c1.3-4.9,5.3-5.5,9-5.5h30.3l3.2-11.8h-36.3c-10.9,0-19.4,6.6-22.4,17.1c-1.5,5.3-0.9,9.6,1.5,12.8c2.3,3,6.4,4.5,11.7,4.5h15.6
		c1.9,0,4.3,0.2,5.5,1.5c0.6,0.8,0.8,2.1,0.4,3.8c-1.3,4.9-5.3,5.5-9,5.5h-33.3l-3.2,11.8h39.3c10.9,0,19.4-6.6,22.4-17.1
		C383.5,122.3,382.9,117.9,380.4,114.8z M399.8,87.9l-15.4,56.8h15.2L415,87.9H399.8z M471.1,93.3c-2.6-3.4-7.5-5.5-12.8-5.5h-32.9
		l-3.2,11.8H451c3,0,5.1,0.8,6.2,2.1c1.1,1.3,1.3,3.6,0.6,6.2l-0.6,2.3h-24.1c-10.9,0-19.4,6.6-22.4,17.1c-1.5,5.3-0.9,9.8,1.5,12.8
		c2.3,3,6.4,4.5,11.7,4.5H463l10-36.5C474.7,101.9,473.9,96.9,471.1,93.3z M451,132.8h-18.4c-1.7,0-4.3-0.2-5.3-1.5
		c-0.6-0.8-0.8-2.1-0.4-3.8c1.3-4.9,5.1-5.5,8.8-5.5h18.2L451,132.8z M190.9,72.4l-19.8,72.2h15.2L206,72.4H190.9z M338.3,159.4
		c-1.3-1.7-3.8-1.9-4.5-1.9h-16.4l-0.9,3.6h15c1.3,0,2.3,0.4,2.8,1.1c0.4,0.6,0.4,1.5,0.2,2.3c-0.2,0.8-0.9,3.2-0.9,3.2h-11.5
		c-5.5,0-9.2,2.8-10.5,7.9c-0.6,2.4,0,4.1,0.9,5.5c1.1,1.3,3,2.1,5.8,2.1h15.4l4.9-18.2C339.6,162.4,339.4,160.7,338.3,159.4z
		 M330.4,179.4h-10c-1.9,0-3-0.4-3.6-1.1c-0.6-0.8-0.8-1.7-0.4-3c0.8-2.8,2.8-4.1,6.2-4.1h10.2L330.4,179.4z M342.8,183.1l6.8-25.6
		h-4.3l-7,25.6H342.8z M367.7,183.1l8.8-32.7h-4.3l-9,32.7H367.7z M376.5,183.1l6.8-25.6H379l-7,25.6H376.5z M400.9,157.4h-13.4
		l-7,25.6h4.5l6-22h8.3c1.9,0,3,0.4,3.6,1.3c0.8,1.1,0.4,2.6,0,4.7l-4.3,16h4.5l4.7-17.1c0.8-2.8,0.4-4.9-0.6-6.2
		C406,158.2,404,157.4,400.9,157.4z M415.6,167.9c1.1-2.8,4.1-7,9.4-7h9l0.9-3.6h-10.5c-7.5,0-12.8,6.4-14.5,12.8
		c-1.1,4.1-0.8,7.7,0.9,10c1.3,1.9,3.6,2.6,6.4,2.6h10.5l0.9-3.6c0,0-7,0-9,0c-2.3,0-3.8-0.6-4.7-1.5c-1.1-1.3-1.1-3.6-0.6-5.8v-0.2
		h16l0.9-3.6h-15.8v-0.1H415.6z M459.6,161.2l0.9-3.6h-14.1c-7.1,0-9.4,4.7-10.3,7.3c-0.6,2.1-0.2,3.8,0.6,4.7
		c0.9,1.3,2.6,2.1,5.5,2.1h7c4.1,0,3.6,3.2,3.2,4.1c-1.1,3.2-4.5,3.6-8.1,3.6h-12l-0.9,3.6h16.9c4.3,0,7.9-2.6,9-7.3
		c0.6-2.3,0-4.1-0.9-5.5c-0.9-1.1-2.6-2.1-5.6-2.1h-6c-0.6,0-2.6,0-3.2-0.9c-0.4-0.8-0.4-1.5-0.2-2.4c0.9-3.2,3.8-3.6,5.1-3.6
		C446.3,161.2,459.6,161.2,459.6,161.2z M361.3,157.4c-7.7,0-9.2,7.1-9.4,7.7c-0.2,0.6-4.9,18.1-4.9,18.1h4.5c0,0,4.5-16.9,4.7-17.5
		c0.2-0.8,1.5-4.7,5.8-4.7c3,0,3.8,0,3.8,0l0.9-3.8h-5.5v0.2H361.3z"/>
</g>
</svg>
