<?xml version="1.0" encoding="utf-8"?>
<!-- Generator: Adobe Illustrator 27.8.0, SVG Export Plug-In . SVG Version: 6.00 Build 0)  -->
<svg version="1.1" id="Layer_1" xmlns="http://www.w3.org/2000/svg" xmlns:xlink="http://www.w3.org/1999/xlink" x="0px" y="0px"
	 viewBox="0 0 2500 653.5" style="enable-background:new 0 0 2500 653.5;" xml:space="preserve">
<style type="text/css">
.st0{fill-rule:evenodd;clip-rule:evenodd;fill:#fff;}
.st1{fill-rule:evenodd;clip-rule:evenodd;fill:#fff;}
.st2{fill-rule:evenodd;clip-rule:evenodd;fill:#fff;}
</style>
<g>
	<path class="st0" d="M820.6,450.2V210.9h70.5L944,364.5l50.4-153.6h73v239.3h-52.9V321.7l-47.9,131h-42.8l-50.4-120.9v118.4H820.6
		L820.6,450.2z"/>
	<path class="st1" d="M432.7,500.6c178.8,0,322.4-85.7,322.4-191.4S611.5,117.7,432.7,117.7s-322.4,85.6-322.4,191.4
		S253.9,500.6,432.7,500.6L432.7,500.6z"/>
	<path class="st2" d="M291.6,137.9l-133.5,272c0,0,20.1,20.1,32.7,25.2c2.5,2.5,45.3-88.2,45.3-88.2l2.5-47.8l88.2-171.3
		C326.9,127.8,296.7,135.3,291.6,137.9L291.6,137.9z M349.6,142.9v226.7L473,120.2l27.7,2.5L410,296.5v47.8l-75.6,136V256.2
		l-100.7,204c0,0-20.2-10.1-25.2-15.1l50.4-93.2l-2.5-37.8L349.6,142.9L349.6,142.9z M518.3,135.3V362l103.3-209l22.7,10.1
		L578.8,289l-2.5,45.3l-73,138.5l-2.5-221.6L384.8,498.1c0,0-25.2-2.5-27.7-2.5l83.1-166.2V289L518.3,135.3L518.3,135.3z M682,185.7
		v45.3L551.1,488l-27.7,7.6l78.1-153.6l-2.5-45.3l63-123.4L682,185.7z"/>
	<path class="st0" d="M1362.1,314.2c0-2.5,0-12.6-17.6-12.6c-12.6,0-15.1,7.6-15.1,12.6c0,7.6,12.6,12.6,27.7,17.6
		c32.7,10.1,65.5,17.6,65.5,60.4c0,40.3-35.3,65.5-75.5,65.5c-27.7,0-73.1-12.6-78.1-63h57.9c2.5,17.6,17.6,17.6,20.2,17.6
		c10.1,0,20.1-5,20.1-15.1c0-12.6-15.1-15.1-50.4-27.7c-25.2-7.6-45.3-25.2-45.3-50.4c0-37.8,35.3-63,73-63
		c25.2,0,68,10.1,73.1,57.9L1362.1,314.2L1362.1,314.2z M1427.6,200.8h55.4v42.8h-55.4V200.8z M1427.6,261.3h55.4v188.9h-55.4V261.3
		z M1500.6,261.3h52.9v20.1c7.5-7.6,17.6-25.2,52.9-25.2c63,0,68,50.4,68,78.1v115.9H1619V346.9c0-20.2-5-37.8-30.2-37.8
		c-27.7,0-32.7,20.2-32.7,40.3v100.7h-55.4L1500.6,261.3L1500.6,261.3z M1692,200.8h55.4v42.8H1692V200.8z M1692,261.3h55.4v188.9
		H1692V261.3z M1812.9,357c0-20.1,12.6-47.8,45.3-47.8c25.2,0,37.8,12.6,42.8,25.2c5,7.6,5,17.6,5,25.2c0,7.6-2.5,17.6-7.6,22.7
		c-7.5,12.6-20.1,22.7-40.3,22.7C1825.5,404.8,1812.9,374.6,1812.9,357L1812.9,357z M1961.5,261.3h-55.4v20.1
		c-7.6-10.1-25.2-25.2-55.4-25.2c-50.4,0-95.7,37.8-95.7,100.7c0,52.9,35.3,100.8,95.7,100.8c22.7,0,45.3-10.1,55.4-27.7v20.2h55.4
		V261.3z M2027,354.5c0-25.2,22.7-45.3,45.3-45.3c15.1,0,27.7,5,35.3,15.1c7.5,7.6,10.1,20.2,10.1,35.3c0,12.6-5,22.7-12.6,32.7
		c-7.6,7.6-17.6,12.6-32.7,12.6c-22.7,0-45.3-17.6-45.3-47.9V354.5z M2175.6,261.3h-57.9v17.6c-10.1-15.1-30.2-22.7-50.4-22.7
		c-50.4,0-95.7,37.8-95.7,100.7c0,60.5,42.8,100.8,95.7,100.8c27.7,0,45.3-17.6,50.4-27.7v10.1c0,32.7-22.7,47.8-45.3,47.8
		c-2.5,0-7.5,0-15.1-2.5c-7.7-3.8-13.8-10-17.6-17.6h-65.5c5,27.7,27.7,68,95.7,68c45.3,0,80.6-22.7,93.2-45.3
		c10.1-15.1,12.6-35.3,12.6-63L2175.6,261.3L2175.6,261.3z M2238.6,357c0-20.1,15.1-47.8,47.9-47.8c22.6,0,35.2,12.6,42.8,25.2
		c2.5,7.6,5,17.6,2.5,25.2c0,7.6-2.5,17.6-7.5,22.7c-5,12.6-17.6,22.7-37.8,22.7C2251.2,404.8,2238.6,374.6,2238.6,357L2238.6,357z
		 M2389.7,261.3h-57.9v20.1c-5-10.1-22.7-25.2-55.4-25.2c-50.4,0-93.2,37.8-93.2,100.7c0,52.9,35.3,100.8,93.2,100.8
		c22.7,0,45.3-10.1,55.4-27.7v20.2h57.9V261.3z M1173.2,397.3c-17.6-2.5-12.6-15.1-12.6-15.1l95.7-55.4
		c-22.7-55.4-70.5-57.9-85.6-57.9c-60.5-2.5-88.2,57.9-90.7,70.5c-12.6,85.7,50.4,108.3,63,110.8c68,25.2,110.8-37.8,110.8-37.8
		v-47.8C1221,402.3,1188.3,399.8,1173.2,397.3L1173.2,397.3z M1140.4,359.5c-5-5-10.1-20.2,15.1-35.3c25.2-15.1,37.8,2.5,37.8,2.5
		L1140.4,359.5z"/>
</g>
</svg>
