<?xml version="1.0" encoding="UTF-8"?>
<svg id="Layer_1" xmlns="http://www.w3.org/2000/svg" version="1.1" viewBox="0 0 416 121">
  <!-- Generator: Adobe Illustrator 29.8.1, SVG Export Plug-In . SVG Version: 2.1.1 Build 2)  -->
  <defs>
    <style>
      .st0 {
    fill: #fff;
      }
    </style>
  </defs>
  <path class="st0" d="M165.35,46.18c.46-.03.89-.19,1.36-.22,2.89-.21,8.12-.26,10.97,0,.6.06,1.11.11,1.59.52l14.81,24.58c.33.6,1.82,2.35,1.82.71v-25.8h13.48v50.33h-13.37c-.65,0-1.25-.9-1.58-1.36-5.1-6.98-9.03-16.05-14.02-23.26-.38-.56-.73-1.16-1.35-1.49l-.21,26.11h-13.16s-.32-.29-.32-.32v-49.81Z"/>
  <path class="st0" d="M264.55,55.23l-9.79,8.01c-4.97-3.6-9.36-6.49-15.69-3.9-12.52,5.13-8.01,27.7,7.11,23.96,3.19-.79,5.94-2.85,8.97-4.03l9.14,7.86c-5.72,9.37-18.59,11.56-28.63,9.1-24.56-6.02-24.62-43.49-.63-50.21,10.55-2.96,23.01.08,29.53,9.2Z"/>
  <path class="st0" d="M121.55,70.82v-7.48c0-.77.54-1.4,1.05-1.9,2.6-2.54,7.18-5.26,9.38-7.89.12-.14.58-.79.52-.84-.27.09-.62-.21-.74-.21h-9.9s-.32-.29-.32-.32v-5.69s.29-.32.32-.32h28.64s.42.31.21.42c-9.58,8.22-19.36,16.27-29.17,24.22Z"/>
  <path class="st0" d="M108.7,39.65h-5.69v-7.48c0-1.14-1.32-.08-1.66.23-1.18,1.08-5.82,7.24-6.87,7.24h-7.69l21.9-25.9v25.9Z"/>
  <path class="st0" d="M76.27,52.29c.93-1.04,4.32-6.11,5.37-6.31l26.63.11.43.52-18.83,15.58-4.13-4.73,5.47-5.16h-14.95Z"/>
  <path class="st0" d="M81.11,31.02h-27.38c.95-2.07,2.06-4.15,3.37-6,3.26-.59,6.6-.21,9.9-.31l-4.83-6.4c.71-.5,4.44-4.02,4.92-3.9l14.03,16.62Z"/>
  <path class="st0" d="M80.48,37.55l-14.21,16.86-4.7-4.11,5.02-6.42c-2.57-.47-6.98.91-9.24-.13-1.67-.77-2.74-4.66-3.81-6.19h26.96Z"/>
  <path class="st0" d="M130.6,72.72v6.21c0,.18-.35.98-.52,1.17-2.2,1.63-5,2.81-7.17,4.41-.84.62-1.06.63-1.16,1.78-.39,4.28.39,9.06-.08,13.4-.36,1.08-4.94,2.78-5.91,3.77-.31-.2-.29-.4-.33-.72-.49-4.54.07-10.93.23-15.59.06-1.6-.19-3.54-.01-5.07.13-1.11.79-1.4,1.63-1.95,3.91-2.61,8.6-4.61,12.55-7.25l.78-.17Z"/>
  <path class="st0" d="M87.64,83.04l8.42-5.17-8.2-4.96c-.07-.23.02-.41.1-.61.23-.57,2.68-4.98,2.96-5.05l18.4,10.62-18.25,10.62-.29-.07-3.15-5.38Z"/>
  <path class="st0" d="M79.58,10.61c.18-.05.33-.03.48.08l7.48,8.53c1.21-.85,6.97-8.47,7.61-8.6.37-.07,4.97,3.66,4.9,4.04l-12.49,14.65-12.48-14.72c-.07-.29.36-.58.55-.75.42-.4,3.69-3.18,3.94-3.24Z"/>
  <path class="st0" d="M108.91,62.82c-.22-.29-5.02,4.12-6,4.12s-4.65-2.69-5.79-3.17l17.89-14.85v25.27c-1.44-1.16-4.19-2.05-5.47-3.27-.22-.21-.64-.8-.64-1.04v-7.06Z"/>
  <path class="st0" d="M115.44,18.8c.33-.36,2.74,1.95,3.06,2.31,3.48,3.98,3.61,9.09,3.05,14.11.37.39,5.72-2.52,6.59-2.29.3.08,4.17,4.4,4.15,4.71l-16.84,7.9v-26.75Z"/>
  <path class="st0" d="M103.02,96.09l-6.82,3.35-3.29-5.35,16.01-8.95c.04.46.19.89.22,1.36.43,6.39-.3,13.31-.06,19.75-.27,1.47-3.06,2.74-4.37,3.42-.52.27-1.11.63-1.69.73v-14.32Z"/>
  <path class="st0" d="M301.19,69.24c3.22-2.35,6.27-5.03,6.71-9.29,1.06-10.15-6.2-13.59-15.02-13.99-7.04-.32-14.32.26-21.38,0v50.54c7.14-.23,14.47.3,21.6,0,9.13-.38,16.98-2.77,17.59-13.37.43-7.39-3.23-10.92-9.48-13.91ZM284.55,57.97h6c.33,0,1.69.48,2.03.7,1.56,1.01,1.9,3.67.9,5.18-1.35,2.05-6.67,1.66-8.94,1.91v-7.79ZM293.66,84.04c-2.7.68-6.31.67-9.11.89v-8.63h9.16c1,0,2.21,1.73,2.37,2.68.36,2.11-.1,4.47-2.42,5.06Z"/>
  <path class="st0" d="M362.33,95.08l-17.44-47.84c-.48-1.04-.65-1.38-1.88-1.49-2.49-.22-8.09-.27-10.54.01-.75.08-1.37.3-1.76.98l-17.94,49.56h13.79c.95,0,2.29-5.85,2.87-6.81.39-.64.62-.71,1.32-.78,3.42-.34,10.46-.29,13.92,0,.3.03.6.03.89.15.62.25,2.18,6.54,2.89,7.44h14l-.14-1.23ZM333.41,76.51l4.11-13.06.53.14,4,12.92h-8.63Z"/>
</svg>