<?xml version="1.0" encoding="UTF-8"?>
<svg id="Layer_1" xmlns="http://www.w3.org/2000/svg" version="1.1" viewBox="0 0 416 121">
  <!-- Generator: Adobe Illustrator 29.8.1, SVG Export Plug-In . SVG Version: 2.1.1 Build 2)  -->
  <defs>
    <style>
      .st0 {
        fill: #010101;
      }

      .st0 {
        fill: #fff;
      }
    </style>
  </defs>
  <path d="M223.38,78.68h-12.06v-24.98c-.19-3.16-.34-6.16-3.87-7.23-4.91-1.48-8.03,1.23-8.39,6.08-.23,3.15-.14,6.6-.19,9.76-.09,5.45.08,10.92,0,16.37h-12.06v-41.14h12.25v3.44c3.9-5.05,14.08-5.73,19.26-2.71,3.85,2.24,4.68,5.68,5.05,9.88v30.53Z"/>
  <path d="M330.54,37.54l-12.24,19.42,14.72,21.53h-13.68l-7.85-11.1-7.21,11.06c-4.65.08-9.27.34-13.93.23l13.91-21.72-13.53-19.43h13.87l6.31,8.99,5.93-8.99h13.68Z"/>
  <path d="M349.68,28.92v8.32s.27.29.29.29h7.75v8.61h-8.04v20.57c0,.13.44.97.57,1.15,1.42,1.9,4.89.62,6.89.86v9.57c-6.44.89-16.75,2.04-18.93-6.04-.37-1.37-.36-2.63-.59-4.01v-22.1h-7.27c1.46-2.97,3.56-5.59,5.26-8.42.3-.41,2.01.03,2.01-.48v-8.32h12.06Z"/>
  <path d="M241.56,28.92v8.61h12.44l-5.65,8.61h-6.98v20.38c0,.14.37,1.05.49,1.24,1.25,1.98,5.04.76,6.98.96v9.57c-7.51,1.01-17.88,2.05-19.31-7.77-.11-.74,0-1.53-.22-2.27V28.92h12.26Z"/>
  <path class="st0" d="M378.77,40.79l-1.7,5.25c-.16.23-1.41.23-1.52-.21l-1.94-5.61v5.93h-1.34v-8.61c.39.08,1.93-.12,2.09.02.27.24,1.68,6.3,2.03,6.3.54-.71,1.76-6.11,2.04-6.29s1.63.07,2.08-.03v8.61c-.37-.07-1.04.1-1.34,0-.1-1.82-.07-4.38-.1-6.21,0,0-.08.25-.28.85Z"/>
  <path class="st1" d="M371.49,37.54v1.34c-.45.06-2.68-.19-2.68.29v6.98h-1.53v-7.27h-2.68v-1.34h6.89Z"/>
  <path d="M128.71,39.48c-5.12-3.66-13.49-4.24-18.61-.3-.65.5-1.14,1.4-1.93,1.61v-3.25h-12.25v54.54h12.25v-16.84c6.92,7.18,19.45,5.28,24.53-3.13,5.3-8.76,4.98-26.22-3.99-32.63ZM114.44,69.83c-9.45-2.04-9.2-22.48.77-23.82,13.11-1.77,11.95,26.57-.77,23.82Z"/>
  <path d="M171.9,38.78c-4.75-2.68-11.61-2.86-16.85-1.72-9.57,2.08-14.77,10.28-15.32,19.7-.96,16.39,10.42,24.84,26.1,22.47,6.85-1.04,12.48-4.71,15.21-11.2l-9.23-4.67c-1.58,3-3.41,5.58-6.81,6.62-7.07,2.16-13.02-2.32-12.82-9.67h29.28c.18-8.03-2.11-17.32-9.56-21.53ZM152.19,52.65c.92-6,6.48-9.85,12.32-7.24,3.06,1.36,4.07,4.11,4.52,7.24h-16.84Z"/>
  <path d="M91.52,56.2c-.87-13.47-11.04-20.4-23.96-19.75-26.63,1.33-27.26,39.74-1.75,42.98,15.22,1.93,26.73-7.55,25.71-23.22ZM71.67,69.83c-14.59,2.91-17-23.23-2.39-23.82,12.73-.51,13.15,21.67,2.39,23.82Z"/>
  <path d="M273.99,70.45c-6.64.54-10.29-3.73-10.24-10.14h29.28c.3-11.25-4.24-22.19-16.58-23.71-16.09-1.97-26.18,8.22-25.14,24.18.95,14.56,12.32,20.6,25.9,18.44,7.03-1.11,11.39-5.07,14.64-11.2l-9.24-4.68c-1.75,3.73-4.25,6.74-8.63,7.09ZM280.6,52.65h-16.84c1.47-10.44,15.91-10.95,16.84,0Z"/>
</svg>