<?xml version="1.0" encoding="UTF-8"?>
<svg id="Layer_1" xmlns="http://www.w3.org/2000/svg" version="1.1" viewBox="0 0 450 101.76">
  <!-- Generator: Adobe Illustrator 29.8.1, SVG Export Plug-In . SVG Version: 2.1.1 Build 2)  -->
  <defs>
    <style>
      .st0 {
        fill: #ffffff;
      }

      .st1 {
        font-family: MyriadPro-Regular, 'Myriad Pro';
        font-size: 7.8px;
      }

      .st1, .st2 {
        fill: #ffffff;
      }

      .st3 {
        fill: #ffffff;
      }

      .st4 {
        fill: #ffffff;
      }

      .st5 {
        fill: none;
        stroke: #737d89;
        stroke-miterlimit: 10;
      }

      .st6 {
        fill: #ffffff;
      }

      .st7 {
        fill: #ffffff;
      }
    </style>
  </defs>
  <path class="st2" d="M308.41,29.3v29.14c.27,2.65.48,5.32,3.62,5.86s9.15.54,12.31.05c3.37-.52,3.53-3.37,3.85-6.17v-28.88s10.8,0,10.8,0v44.95c0,1.6-1.31,4.78-2.38,6.06-.8.95-3.77,2.78-4.87,2.78h-23.86v-6.33c4.61-.25,9.55.33,14.12.01s5.27-1.3,6.45-5.55h-20.96c-.47,0-3.6-.49-4.1-.65-5.42-1.66-5.83-7.57-6.06-12.39-.47-9.49.37-19.36.01-28.88h11.07Z"/>
  <path class="st2" d="M289.95,29.3v6.33c-10.64.08-14.13.17-21.37.24-1.17.01-3.5.16-4.53.62-2.5,1.12-2.61,5.55-1.94,7.87.12.43.35.92.74,1.21.67.5,2.22.76,2.51.8,6.54,1.02,20.8-2.37,24.97,3.51,2.58,3.63,2.62,12.46.95,16.47s-5.53,4.4-9.37,4.6c-9.73.51-19.89-.38-29.66,0v-6.59h25.18c1.35.03,2.25-.93,2.42-1.11,1.28-1.36,2.14-8.06-.72-9.55-2.65-1.38-13.31-.51-17-.67-2.47-.1-5.65-.24-7.86-1.37-1.78-.91-3.05-3.46-3.32-5.39-.6-4.35-.56-13.01,3.75-15.46,1.54-.87,3.62-1.53,5.85-1.53h29.4Z"/>
  <path class="st2" d="M383.82,29.3s.14,3.29-.01,6.33c-7.19.39-14.89-.51-22.02,0-3.69.26-6.43.98-6.66,5.23-.1,1.97.25,4.47,2.32,5.19,4.13,1.44,14.3-.1,19.34.43,8.45.89,9.31,7.69,8.88,14.88-.21,3.5-.86,6.89-4.24,8.42-1.57.71-3.73,1.19-5.4,1.19h-30.06s-.4-.37-.4-.4v-6.2h25.18c.42,0,2.27-.94,2.65-1.3,2.18-2.06,1.87-8.05-.96-9.35-.8-.37-2.61-.63-3.52-.7-5.22-.37-18.74,1.26-22.38-2.14-1.35-1.26-2.01-3.88-2.26-5.65-.65-4.73-.24-12.5,4.66-14.8,1.39-.65,3.73-1.13,5.2-1.13h29.67Z"/>
  <path class="st2" d="M212.17,35.62h-24.39c-1.57.04-2.85.7-3.45,1.05-1.61.93-1.83,3.67-1.96,5.42-.15,2.1.1,4.34,0,6.46h25.57v6.59h-25.84c.41,2.08.11,6.89,1.86,8.29.15.12.95.98,1.96.94,0,0,25.97.37,25.97.4,0,0,.04,6.46,0,6.46h-30.2c-1.35,0-4.69-.8-5.9-1.48-3.72-2.09-4.29-6.81-4.52-10.77-.31-5.31-.38-13.21,0-18.48.55-7.62,2.9-10.75,10.68-11.21,6.2-.36,14.91-.37,21.1.01,4.53.28,7.89,1.58,9.1,6.33Z"/>
  <path class="st2" d="M418.88,29.56v6.06h-14.17c-.22,0-2.61,14.24,1.06,26.16.83,2.69,3.72,2.64,6.12,2.84.57.05,3.03-.21,3.03.4v6.2c-4.64-.17-9.76.41-14.31-.59-5.59-1.23-6.25-7.35-6.52-12.2-.34-6.09.06-12.4.26-18.46.02-.64.08-4.35.08-4.35h-7.46v-6.06h31.9Z"/>
  <path class="st2" d="M217.44,71.22c-.06-1.71.08-3.44.01-5.15-.35-8.85-.96-20.02-.01-28.73.7-6.45,5.29-7.77,10.93-8.05,6.37-.31,13.26.26,19.65.01.01,2.12,0,6.33,0,6.33h-13.58c-1.82.07-4.43.38-5.34,2.03-.15.27-.75,1.14-.85,2.32v31.24h-10.81Z"/>
  <path class="st4" d="M63.93,41.22c9.68-1.4,11.28,14.04,1.76,15.21s-11.12-13.85-1.76-15.21Z"/>
  <path class="st4" d="M44.85,44.75c-7.34-5.15-.02-17.63,8.03-12.91,8.47,4.97.65,19-8.03,12.91Z"/>
  <path class="st4" d="M69.91,36c-5.53,5.8-15.2-1.06-11.77-8.47,1.76-3.8,6.91-4.53,10.25-2.5,3.85,2.33,4.6,7.74,1.52,10.98Z"/>
  <path class="st4" d="M44.05,61.1c-5.08-5.22.7-14.47,8-11.29,4.56,1.99,6.12,8.78,2.19,12.05-3.11,2.59-7.46,2.05-10.19-.76Z"/>
  <path class="st4" d="M29.55,42.84c5.98-5.63,14.57,3.87,9.77,10.69-2.66,3.78-7.89,3.21-10.51-.26-2.24-2.97-2.03-7.83.74-10.44Z"/>
  <path class="st4" d="M84.95,33.92c2.04,2.53,2.43,5.55,1.04,8.53-2.31,4.94-9.25,4.54-11.64-.18-4.02-7.94,5.07-15.22,10.6-8.35Z"/>
  <path class="st4" d="M34.4,24.35c2.57-.35,5.95,1.26,6.38,4.04.79,5.05-2.2,10.29-7.76,9.87-3.08-.23-5.58-3.44-5.41-6.45.2-3.42,3.4-7,6.79-7.46Z"/>
  <path class="st4" d="M84.68,51.06c2.32,2.63,1.85,6.44-.17,9.18-2.23,3.03-8.42,3.87-10.5.32-4.1-6.99,5.33-15.56,10.67-9.5Z"/>
  <path class="st4" d="M69.71,61.29c1.54,1.51,1.61,4.33.73,6.21-2.27,4.81-12.71,4.96-13.05-1.42-.31-5.89,8.08-8.94,12.32-4.79Z"/>
  <path class="st4" d="M48.63,16.44c2.2-.37,4.99.04,6.63,1.68,2.17,2.17,1.17,6.06-.89,8.02-2.56,2.43-6.64,2.71-9.37.39-4.3-3.66-1.27-9.27,3.62-10.09Z"/>
  <path class="st4" d="M24.35,32.82c4.15,3.05,2.16,13.12-3.72,13.1-3.26,0-5.13-3.6-5.14-6.48-.02-4.35,4.42-9.88,8.87-6.62Z"/>
  <path class="st4" d="M89.4,54.25c-2.93-2.81-2.12-8.3.42-11.13,4.06-4.52,9.22.35,8.68,5.52-.44,4.19-5.19,9.35-9.1,5.6Z"/>
  <path class="st4" d="M40.1,61.89c.59.69,1,.89,1.35,1.94,2.64,8.04-7.33,8.53-11.05,3.41s.76-9.86,6.24-8.08c1.24.4,2.64,1.77,3.47,2.73Z"/>
  <path class="st4" d="M19.02,60.56c-2.83-2.23-4.01-7.53-1.54-10.42,3.1-3.62,8.05.1,9.19,3.7,1.88,5.91-2.2,11-7.65,6.72Z"/>
  <path class="st4" d="M83.68,27.09c-3.49,3.73-10.49-.18-11.39-4.64-1.68-8.29,11.95-6.54,12.51.68.1,1.32-.2,2.98-1.12,3.96Z"/>
  <path class="st4" d="M90.57,25.14c1.93-.44,5.15,2.11,6.12,3.76,2.14,3.65,1.41,10.44-4.07,9.61-4.07-.62-6.82-6.65-5.35-10.33.42-1.06,2.21-2.79,3.3-3.04Z"/>
  <path class="st7" d="M27.79,18.57c3.47,3.22-2.87,12.77-8.01,10.51-3.58-1.57-2.13-6.5.08-8.72,1.63-1.64,5.97-3.61,7.93-1.79Z"/>
  <path class="st4" d="M94.16,66.84c-1.31,1.37-3.04,2.45-5,2.53-6.07.26-3.92-6.79-.89-9.35,6.51-5.49,10.85,1.61,5.89,6.81Z"/>
  <path class="st7" d="M68.91,19.97c-3.08,2.88-9.99,1.36-11.31-2.61-2.13-6.42,11.55-6.25,12.39-1.05.22,1.34-.07,2.72-1.08,3.67Z"/>
  <path class="st7" d="M54.66,67.64c2.36,1.95,2.71,5.99-.68,6.89-2.16.57-6.36.31-8.25-.94-3.43-2.28-1.63-6.67,1.9-7.51,2.48-.59,5.09-.03,7.02,1.57Z"/>
  <path class="st7" d="M82.3,66.62c3.99,4-3.5,8.12-7.35,8.03-1-.02-3.29-.9-3.7-1.86-1.66-3.9,6.9-10.32,11.05-6.17Z"/>
  <path class="st7" d="M38.37,13.02c2.15-.08,4.81.18,4.52,2.93-.47,4.41-7.94,8.2-11.29,4.74-.58-.6-.77-.96-.84-1.8-.33-3.98,4.35-5.76,7.61-5.87Z"/>
  <path class="st7" d="M27.5,66.32c3.29,2.71,5.51,8.19-1.28,7.21-3.09-.45-8.21-4.06-6.55-7.74.09-.19,1.18-1.4,1.27-1.42,2.19-.59,4.88.57,6.56,1.96Z"/>
  <path class="st6" d="M9.51,53.46c-1.22-1.38-2.08-5.08-1.94-6.89.2-2.5,1.88-6.6,4.88-4.35,2.45,1.84,3.02,7.52,1.76,10.2-.96,2.04-3.07,2.88-4.7,1.05Z"/>
  <path class="st6" d="M17.67,79.04c-.81-.69-3.53-4.73-4.08-5.8-1.27-2.46-1.82-3.89,1.73-3.57,2.32.2,5.89,2.74,7.28,4.58,3.13,4.15-1.66,7.57-4.93,4.79Z"/>
  <path class="st6" d="M103.97,58.99c-1.15,1.48-2.93,2.43-4.48.86-1.73-1.74-.99-6.05,0-8.12,2.11-4.42,6.26-5.08,6.38.89.04,2.08-.59,4.69-1.9,6.36Z"/>
  <path class="st6" d="M16.72,67.44c-.32.23-1.21.37-1.62.35-4.13-.14-7.04-6.47-5.48-9.96s5.84,1.52,6.76,3.38c.67,1.37,1.75,5.2.34,6.22Z"/>
  <path class="st6" d="M68.11,73.96c.1.06.77.68.89.81.55.55-1.03,1.14-1.37,1.27-1.12.41-3.03.52-3.96.99-1.45.73-2.98,4.24-5.54,3.9-4.22-.56-2.45-4.73-.03-6.5,2.81-2.06,7.06-2.43,10.01-.47Z"/>
  <path class="st7" d="M42.28,90.11c-1.86,1.65-6.98,1.19-7.7-1.48-1.48-5.49,6.31-6.94,8.43-3.15.79,1.41.48,3.56-.73,4.63Z"/>
  <path class="st0" d="M13.64,26.66c.87-.61,1.76,3.09,1.81,3.59.24,2.21-.96,7.42-3.14,8.4-.63.29-3.66.44-3.67-.5,0-.51.7-3.22.91-3.85.9-2.64,2.74-5.22,4.09-7.64Z"/>
  <path class="st6" d="M31.2,86.16c-.02.05-.57.85-.61.88-1.85,1.18-5.02.41-6.54-1.06-3.11-3.01-.19-6.92,3.74-5.59,2.46.84,4.38,3.08,3.4,5.77Z"/>
  <path class="st0" d="M35.95,75.02c.73.34.73.78.98,1.11.16.22.56.23.66.53.68,1.89-.95,3.19-2.49,3.76-1.62.6-2.11.69-3.78.15-6.31-2.04-1.09-8.24,4.63-5.54Z"/>
  <path class="st0" d="M48.02,80.29c-1.38,1.29-3.07,1.75-4.97,1.19-5.21-1.52-3.41-6.34,1.56-6.31,2.88.02,6.26,2.45,3.41,5.12Z"/>
  <path class="st6" d="M54.69,81.32c3.69,2.92-4.48,8.8-7.31,5.07-2.54-3.35,4.5-7.3,7.31-5.07Z"/>
  <path class="st0" d="M105.65,45.38c-1.98.11-3.21.78-4.7-.96-2.33-2.7-2.06-8.14-.44-11.16,2.53,3.68,3.87,7.9,5.14,12.12Z"/>
  <path class="st0" d="M99.44,69.22c-.78.87-2.5,2.74-3.39,3.33-.32.21-.53.33-.93.25-.53-1.89-.42-3.5.43-5.24.66-1.35,3.72-4.59,5.23-4.79,2.61-.35,2.59.43,1.66,2.44-.67,1.45-1.93,2.82-2.98,4.01Z"/>
  <path class="st0" d="M90.79,74.56c-.33.36-2.86,1.49-3.48,1.64-2.55.6-5.19.13-7.75.02.44-.43,1.04-1.17,1.48-1.53,2.35-1.92,6.01-3.97,9.13-3.41,2.07.37,1.81,2.02.62,3.28Z"/>
  <path class="st3" d="M47.12,10.84c1.52-.31,7.54-.09,9.19.18.47.08.98-.1.83.61-3.06,3.76-8.29,4.15-12.13,1.31-.4-.56,1.63-2.01,2.11-2.1Z"/>
  <path class="st2" d="M167.23,37.19c-.23-1.51-1.23-4.18-2.25-5.32-1.47-1.63-4.87-2.42-6.99-2.58h-32.03v41.92h11.07v-16.08h22.54c2.85-.02,5.21-2.31,5.33-2.45.48-.51.74-1.05.81-1.16,2.1-3.58,2.13-10.28,1.52-14.33ZM155.71,46.8c-.88,1.44-2.41,1.82-4.84,2.01h-13.84v-12.92c4.18-.2,8.96.15,13.15.11,2.36-.03,4.52.15,5.52,1.64,1.28,1.92,1.21,7.19,0,9.17Z"/>
  <circle class="st5" cx="427.18" cy="66.37" r="4.37"/>
  <text class="st1" transform="translate(425.02 69)"><tspan x="0" y="0">R</tspan></text>
</svg>