<?xml version="1.0" encoding="UTF-8"?>
<svg id="Layer_1" xmlns="http://www.w3.org/2000/svg" version="1.1" viewBox="0 0 420.24 178.56">
  <!-- Generator: Adobe Illustrator 29.8.1, SVG Export Plug-In . SVG Version: 2.1.1 Build 2)  -->
  <defs>
    <style>
      .st0 {
        fill: #ffffff;
      }

      .st1 {
        fill: #ffffff;
      }
    </style>
  </defs>
  <path class="st0" d="M100.59,42.99l.77.74c.79,3.5,1.91,6.85,3.38,10.03,3.53.46,7.12.56,10.79.32l.67.41c3-.69,6.13-.71,9.12,0,6.96.04,21.07-2.44,20.9,8.27-.06,3.57-3.17,6.68-6.13,8.27-2.15,1.16-1.25-2.43-1.33-3.72-.11-1.74-.45-4.61-2.53-4.9-15.27.02-30.61-.09-45.81,0-3.56.02-7.13-.03-10.69-.01.72-2.21.91-5.84,3.04-7.15.3-.19,1.64-.76,1.88-.76h11.4l-4.56-13.9.78-.38c2.67.42,5.29,1.14,7.83,2.07l.5.7Z"/>
  <path class="st0" d="M74.67,34.36c1.19-3.6,2.92-10.71,4.67-13.67,3.2-5.42,11.28-5,14.02.64.41.85,1.67,4.45,1.48,5.21s-3.8-.79-4.56-.93c-2.01-.39-3.8-.77-5,1.27l-17.34,53.27c-2.07-1.47-5.67-2.79-5.98-5.66.63-4.12,2.47-8.05,3.58-12.08h-14.4s-.15-.79-.15-.79c1.2-2.48,2.67-4.8,4.41-6.93l.78-.19,1.01-.54,7.97.19c2.05.29,3.26-.72,3.62-3.02l2.27-7.4.73-.72c.39-3.07,1.36-5.94,2.88-8.63Z"/>
  <path class="st0" d="M39.87,76.55c-3.14-2.3-8.74-5.75-11.29-8.26-5.02-4.94-1.78-13.1,5.2-13.76.93-.09,4.4-.29,4.78.45.35.67-1.75,2.92-2.25,3.76-.99,1.7-1.98,3.45-.53,5.23l45.36,32.72c.08.33-.05.39-.23.6-.44.5-3.51,2.8-4.11,3.08-.9.42-1.98.52-2.96.37-1.69-.27-9.98-7.35-10.45-6.93l-4.32,13.42-.79-.1c-1.95-1.88-3.6-4.02-5.04-6.3l.07-.79-.22-.92c1.4-3.29,2.37-6.61,2.91-9.94-2.33-2.45-5.11-4.54-8.33-6.27l-.37-.85c-2.86-1.24-5.4-3.15-7.44-5.51Z"/>
  <path class="st0" d="M76.83,117.05c-1.91,2.3-4.65,4.19-7.44,5.27-3.12,2.24-8.71,6.95-11.84,8.43-5.82,2.76-12.15-1.94-11.42-8.29.08-.67,1.49-5.21,1.82-5.44.95-.66,2.32,2.23,2.96,3.01,1.11,1.34,2.97,3.52,4.85,2.46l45.78-33.01c.47,2.43,2.44,4.91,1.56,7.43-.54,1.55-2.38,2.58-3.64,3.55-7.28,5.6-15.19,11.21-22.64,16.58Z"/>
  <path class="st1" d="M302.43,128.87c.17,4.02-6,4.21-6.21-.23-.08-16.63-.26-16.75-.04-25.62.1-3.95,4.69-4.15,6.74-1.68l15.11,19.06v-18.34c.16-3.6,6.14-3.09,6.18-.18l.07,27.28c-.12,3.09-4.01,3.89-5.78,1.43-5.89-7.14-9.78-12.43-14.88-18.45-.33-.39-1.11-1.63-1.19-1.09v17.81Z"/>
  <path class="st1" d="M183.99,53.91c11.47,0,18.25,9.38,15.75,20.39-.22.97-.81,2.6-2.44,4.07-.54.48-2.7-.66-3.45-3.05-.67-2.14-.08-6.2-.7-8.89-2.13-9.29-15.4-9.25-18.48-.38-2.3,6.64,2.14,16.18,11.41,14.51,2.51-.45,4.04-2.46,6.68-1.27.85.39,7.95,5.82,8.39,6.48,1.9,2.87-3.14,3.93-5.29,3.36-1.65-.43-4.69-4.06-5.18-4.15-.21-.04-3.33.97-4.11,1.08-23.96,3.41-25.87-32.16-2.57-32.16Z"/>
  <path class="st0" d="M121.95,108.66c1.42,4.37,2.71,8.8,4.08,13.18-.44.1-.66-.14-1-.32-.9-.49-9.11-6.63-9.43-7.12l-15.25-46.48c3.77.35,7.28-1.6,9.12,2.75,1.39,3.26,2.09,7.1,3.36,10.43l11.76-8.39.58.58c.45,2.61.61,5.25.42,7.89l-.52.64-.38.86-7.81,5.72-.63,1.02c.8,3.31,1.82,6.57,3.05,9.79l-.22.82c1.59,2.53,2.69,5.65,2.88,8.63Z"/>
  <path class="st1" d="M208.76,54.31c1.56-.27,3.63-.04,4.13,1.75.12,6.38-.03,9.2.62,20.71.31,5.52,13.13,5.64,13.32-.1.24-7.35.2-13.52.46-19.43.05-1.23.24-2.09,1.45-2.63,1.94-.86,4.98-.36,5.05,2.15-.27,18.32,2.62,30.55-13.78,30.18-17.35-.39-13.11-12.4-13.57-30.14-.04-1.42.87-2.23,2.32-2.48Z"/>
  <path class="st1" d="M76.83,117.05c7.62,2.21,15.72,1.33,23.1-1.26,2.97-1.04,3.44-2.5,6.5-.61,5.74,3.55,11.14,8.61,16.89,12.25,2.03,2.49-3.02,4.2-4.87,4.22-4.66.06-10.65-6.56-14.65-8.81l-.7-.27c-10.77,3.9-23.09,4.42-33.71-.25,2.46-1.77,5-3.51,7.44-5.27Z"/>
  <path class="st1" d="M194.84,130.89c-.75.75-3.27.82-4.26.43-2.21-.87-2.94-5.95-4.06-7.92-1.3-.45-5.26.31-6.21-.6-.41-.39-.86-1.42-.64-2.38.52-2.29,2.4-2.63,4.68-2.4l-3.12-9.11c-.33-.03-.39.08-.5.34-3.12,7.69-4.45,12.16-7.94,20.59-1.02,2.26-6.31,2.56-6.21-.43,3.41-8.3,5.43-12.11,10.22-25.05.48-1.29,1.31-3.51,2.58-4.13,1.91-.94,4.27-.3,5.09,1.72,3.51,8.79,6.3,16.31,10.54,26.14.38.89.63,1.99-.18,2.8Z"/>
  <path class="st1" d="M290.22,131.18c-.75.75-3.27.82-4.26.43-2.21-.87-2.94-5.95-4.06-7.92-1.3-.45-5.26.31-6.21-.6-.41-.39-.86-1.42-.64-2.38.52-2.29,2.4-2.63,4.68-2.4l-3.12-9.11c-.33-.03-.39.08-.5.34-3.12,7.69-4.45,12.16-7.94,20.59-1.02,2.26-6.31,2.56-6.21-.43,3.41-8.3,5.43-12.11,10.22-25.05.48-1.29,1.31-3.51,2.58-4.13,1.91-.94,4.27-.3,5.09,1.72,3.51,8.79,6.3,16.31,10.54,26.14.38.89.63,1.99-.18,2.8Z"/>
  <path class="st1" d="M343.89,99.86c3.31-.37,7.47-.12,10.46,1.4,1.83.93,3.61,2.36,2.48,4.33-1.72,3-4.7,1.02-7.15.32-5.15-1.47-10.37.63-11.68,6.05-2,8.25,2.98,16.23,12.12,13.54,2.15-.63,5.06-2.44,6.49-.15,2.03,3.23-4.06,5.88-7.07,6.29-12.48,1.66-20.58-7.78-18.26-19.91,1.19-6.23,6.21-11.15,12.6-11.87Z"/>
  <path class="st1" d="M369.87,106.03v19.65h13.56c3.46.19,3.86,5.51.47,5.51h-18.7c-1.62-.24-1.42-2.08-1.42-3.44-.03-9.52.1-16.81.21-23.59.03-2.16-.27-3.89,2.16-3.88,6.28.03,11.15.15,16.21.11,3.12-.03,3.63,5.82-.37,5.65h-12.12Z"/>
  <path class="st1" d="M286.74,60.64c-1.88,1.81-4.14-.65-5.9-1.01-2.07-.43-5.18.01-5.28,2.67-.12,3.18,6.61,5.22,8.85,6.95,7.64,5.92,3.63,16.37-5.85,16.89-3.22.17-12.77-1.88-9.35-6.7,1.97-2.78,4.5.51,6.87,1.01,3.18.68,6.72-.88,5.6-4.64s-10.55-4.34-12.25-11.01c-2.35-9.2,8.99-13.12,15.98-9.48,2.18,1.14,3.41,3.34,1.34,5.32Z"/>
  <path class="st1" d="M74.67,34.36c-.95,2.88-1.93,5.76-2.88,8.63l-.93.91c-5.19,2.27-9.82,5.7-13.53,9.98l-1.14.61c-2.27,2.77-3.47,4.68-5.04,7.91-.79,1.63-1.71,3.23-2.16,5.03-1.61-1.21-5.79-2.92-5.78-5.15,0-1.16,1.74-4.41,2.38-5.55,3.71-6.65,9.46-12.66,15.9-16.72,4.06-2.56,8.52-4.44,13.18-5.65Z"/>
  <path class="st1" d="M125.31,54.5c-3.04-.02-6.08.01-9.12,0l-.95-.42c-3.75-4.48-8.6-7.99-13.97-10.29l-.68-.79c-2.74-1.07-6.2-2.03-9.12-2.4-1.83-.23-3.68-.29-5.52-.24.51-1.74,1.04-6.69,3.05-7.14,1.69-.38,5.47.4,7.27.79,11.86,2.57,22.67,10.23,29.04,20.49Z"/>
  <path class="st1" d="M121.95,108.66c-.94-2.88-1.96-5.73-2.88-8.63l.16-1.07c3.21-4.82,4.76-10.51,5.28-16.23l.56-.92c.26-3.52.11-5.63-.48-9.11-.32-1.88-.7-3.68-1.2-5.51,2.13.4,6.02-1.16,7.55.73.76.94,1.47,5.9,1.57,7.3.81,12.07-2.56,24.29-10.56,33.43Z"/>
  <path class="st1" d="M47.31,82.06l.54.99c.52,5.68,2.28,11.45,5.43,16.16l.03.83c1.88,2.98,3.21,4.73,5.76,7.19,1.27,1.23,2.56,2.51,4.08,3.47-1.73,1.18-4.32,4.36-6.54,3.9-1.09-.22-4.44-3.72-5.34-4.74-8-9.02-12.17-21.25-11.4-33.32,2.49,1.82,4.97,3.69,7.44,5.51Z"/>
  <path class="st1" d="M207.39,125.44h9.96c3.7-.06,3.2,5.76.67,5.7-5.37-.14-9.4-.06-14.83.06-2.14.04-2.33-1.9-2.29-3.71.19-7.35.28-17.43.31-26.08,0-2.36,6.26-2.61,6.18.18v23.85Z"/>
  <path class="st1" d="M231.75,125.74h9.96c3.7-.06,3.2,5.76.67,5.7-5.37-.14-9.4-.06-14.83.06-2.14.04-2.33-1.9-2.29-3.71.19-7.35.28-17.43.31-26.08,0-2.36,6.26-2.61,6.18.18v23.85Z"/>
  <path class="st1" d="M251.48,100.09c1.9-.38,4.44-.13,4.63,2.22l-.03,27.07c-.28,3.08-6.44,3.01-6.46-.22v-26.85c.1-1.08.77-2,1.86-2.22Z"/>
  <path class="st1" d="M296.14,54.57c8.3-.07,9.53-.19,18.42-.08,2.64.03,3.93.83,3.93,3.24,0,1.59-1.25,2.74-2.74,2.75-7.48.08-12.46.19-19.75-.04-1.95-.18-3.05-1.24-3.05-3.32,0-1.55,1.97-2.55,3.2-2.56Z"/>
  <path class="st1" d="M305.24,63.18c1.79-.33,3.67-.55,3.68,1.49,0,4.46,0,13.82-.04,18.2-.02,2.03-.81,2.92-2.96,3.04-1.55.09-3.5-.27-3.49-2.04.02-5.6.09-11.85.02-17.97.2-1.26,1.56-2.49,2.8-2.72Z"/>
  <path class="st1" d="M380.97,117.73c-1.96.07-6.14.03-7.39.03-2.37,0-2.27-4.8-.24-4.79s5.37.01,7.41,0c2.59,0,2.5,4.67.21,4.75Z"/>
  <path class="st1" d="M247.73,59.97v19.65h13.56c3.46.19,3.86,5.51.47,5.51h-18.7c-1.62-.24-1.42-2.08-1.42-3.44-.03-9.52.1-16.81.21-23.59.03-2.16-.27-3.89,2.16-3.88,6.28.03,11.15.15,16.21.11,3.12-.03,3.63,5.82-.37,5.65h-12.12Z"/>
  <path class="st1" d="M258.62,66.93c2.59,0,2.5,4.67.21,4.75-1.96.07-6.14.03-7.39.03-2.37,0-2.27-4.8-.24-4.79"/>
</svg>