<?xml version="1.0" encoding="UTF-8"?>
<svg id="Layer_1" xmlns="http://www.w3.org/2000/svg" version="1.1" viewBox="0 0 90.24 63.6">
  <!-- Generator: Adobe Illustrator 29.8.1, SVG Export Plug-In . SVG Version: 2.1.1 Build 2)  -->
  <defs>
    <style>
      .st0 {
        fill: #ffffff;
      }

      .st1 {
        fill: #ffffff;
      }
    </style>
  </defs>
  <path class="st1" d="M80.12,20.18l.05,9.73c.13-.09.24-.21.35-.32,1.31-1.41,2.6-3.15,3.96-4.47.19-.19.37-.3.64-.32.83-.07,1.77.05,2.61.05.02.07-.01.11-.04.16-.34.63-1.19,1.33-1.68,1.86s-.94,1.05-1.43,1.57c-.19.2-1.54,1.52-1.53,1.64l4.5,5.54.42.68c0,.15-2.7.03-2.93.07l-.14-.05-4.7-5.86-.07,5.9h-2.51s-.07-.06-.07-.07v-16.04s.06-.07.07-.07h2.51Z"/>
  <path class="st1" d="M73.25,36.36c-.03-1.83.04-3.68,0-5.51-.04-1.65.11-4.16-2.24-4.08-1.81.06-2.75,1.87-2.83,3.48-.11,1.95.08,3.99,0,5.95.01.05-.03.16-.07.16h-2.51v-11.57h2.4s.05.1.05.12v1.54c.76-.76,1.65-1.39,2.72-1.64,2.87-.66,4.88.74,5.07,3.69.16,2.51-.12,5.17,0,7.7.01.05-.03.16-.07.16h-2.51Z"/>
  <path class="st0" d="M29.51,39.03l-.61-1.12c-2.28-5.65-5-11.13-7.28-16.78-.07-.17-.48-1.2-.41-1.28.33.01.65.22.91.4,2.11,1.46,4.45,4.33,5.79,6.51,2.16,3.5,4.35,8.48,1.59,12.26Z"/>
  <path class="st1" d="M7.53,26.36c.09.02.09-.03.13-.08.92-1.01,1.98-1.62,3.4-1.61.73,0,.76.08.8.79.03.44-.01.88-.05,1.31-.71.1-1.43.09-2.11.35-1.13.43-1.9,1.51-1.98,2.72-.14,1.96.11,4.1,0,6.09,0,.11-.13.44-.25.44h-2.42s-.05-.1-.05-.12v-11.38c0-.05.11-.07.16-.07.44-.05,1.25-.02,1.71,0,.21.01.44.09.67.05v1.52Z"/>
  <path class="st0" d="M35.14,36.68l-5.99-13.92c.86.2,1.61.87,2.26,1.45,2.71,2.4,5.54,6.97,4.72,10.72-.12.57-.41,1.53-.99,1.75Z"/>
  <path class="st0" d="M37.86,29.67l-2.26-5.3c1.77.43,4.38,2.38,3.06,4.42-.06.09-.75.92-.8.88Z"/>
  <path class="st1" d="M48.41,24.95c-1.79-.5-3.42-.18-5.07.58v-5.35h-2.58c0,.45.03.91-.05,1.36.12,3.06-.15,6.22,0,9.27.19,3.82,3.17,6.28,6.97,5.72,6.15-.9,6.65-9.94.73-11.58ZM46.91,34.28c-4.5.33-4.92-6.75-.72-7.22,4.82-.54,5.21,6.89.72,7.22Z"/>
  <path class="st1" d="M22.6,29.47c-.04-.98-.16-2.03-.66-2.89-1.43-2.49-5.86-2.27-8.01-.93-.12.08-.84.58-.82.67l1.26,1.42c.75-.33,1.52-.85,2.36-.95.55-.06,1.43-.05,1.95.15,1.03.4,1.12,1.41,1.2,2.37-2.03-.02-4.15-.12-5.96.93-2.32,1.35-2.42,4.6.01,5.87,1.83.95,4.58.66,5.92-.99l.07,1.24h2.58c.02-.32.08-.67.09-.99.08-1.83.08-4.07,0-5.9ZM17.9,34.49c-1.15.32-3.17-.04-3.04-1.57.06-.73.57-1.04,1.18-1.3,1.23-.53,2.53-.46,3.84-.38.01,1.46-.45,2.82-1.98,3.25Z"/>
  <path class="st1" d="M63.24,26.53c-1.37-2.36-5.55-2.2-7.67-1.05-.17.09-.94.58-.97.73-.06.31.93,1.21,1.17,1.43,1.25-.69,2.71-1.33,4.15-.82,1.2.43,1.25,1.42,1.36,2.54-2.14-.11-4.59-.11-6.39,1.19-1.83,1.32-1.82,4.07.08,5.33,1.88,1.24,4.84.89,6.31-.85v1.27s.06.07.07.07h2.44c.05,0,.07-.11.07-.16.09-.77-.02-1.86,0-2.68.03-1.96.38-5.3-.61-6.99ZM59.8,34.31c-.93.48-2.3.49-3.14-.19-.78-.63-.64-1.78.18-2.31,1.2-.77,3.06-.75,4.42-.57-.04,1.24-.28,2.45-1.47,3.06Z"/>
</svg>