<?xml version="1.0" encoding="utf-8"?>
<!-- Generator: Adobe Illustrator 27.8.0, SVG Export Plug-In . SVG Version: 6.00 Build 0)  -->
<svg version="1.1" id="Layer_1" xmlns="http://www.w3.org/2000/svg" xmlns:xlink="http://www.w3.org/1999/xlink" x="0px" y="0px"
	 viewBox="0 0 1494 488" style="enable-background:new 0 0 1494 488;" xml:space="preserve">
<style type="text/css">
	.st0{fill:#AE3F38;}
	.st1{fill:#58B947;}
	.st2{fill:#C38776;}
	.st3{fill:#C28272;}
	.st4{fill:#C58B7B;}
	.st5{fill:#FEFEFE;}
	.st6{fill:#6D6E71;}
	.st7{fill:#6E6F72;}
	.st8{fill:#6F6F72;}
	.st9{fill:#6F7073;}
	.st10{fill:#707174;}
	.st11{fill:#717275;}
	.st12{fill:#797A7D;}
	.st13{fill:#797A7C;}
	.st14{fill:#77787B;}
	.st15{fill:#FBFBFB;}
	.st16{fill:#FCFCFC;}
	.st17{fill:#F7F7F7;}
	.st18{fill:#F8F8F8;}
	.st19{fill:#F5F5F6;}
	.st20{fill:#F4F4F4;}
	.st21{fill:#F5F5F5;}
</style>
<g>
	<g>
		<path class="st0" d="M172.4,405.3c-40.3-19.2-70.2-49-89.8-88.9c-18.2-37.2-23-76.5-16.2-117.2c0.5-3.3,1.6-4.1,4.8-3.3
			c5.5,1.4,11,2.5,16.6,3.3c3.3,0.5,4,1.9,3.4,5c-2.8,14.7-3.1,29.4-1.9,44.3c0.3,3.4,1,4.6,4.7,3.8c44.8-9.8,87.7-4.1,128.5,16.8
			c0.9,0.5,1.8,0.8,2.8,1.2c6.3,1,10.9,5.5,16.1,8.5c2.4,1.4,4.8,3.1,6.9,4.9c3.3,3,6.1,2.7,9.6,0.1c12.8-9.7,26.9-17.1,41.6-23.4
			c0.9-0.4,1.8-0.9,2.8-0.8c2.2,0.2,4.2-0.5,6.3-1.2c33.9-11.7,68.3-13.9,103.3-6.1c4,0.9,5.1,0,5.3-4c4.1-71.2-25-124.6-86.4-160.5
			c-3.3-1.9-3.7-3.2-1.9-6.4c2.6-4.4,5-9.1,7-13.8c1.6-3.8,3.1-4.4,6.9-2.3c27.2,14.9,49.8,35,67.3,60.6
			c64.7,94.3,31.3,225.4-70.6,277.3c-1,0.5-2.1,0.9-3.2,1.4c-12.8,5.8-25.9,10.8-39.7,14c-1.9,0.4-4,0.4-5.8,1.4
			c-4.3,0.6-8.6,1.7-13,2c-13.9,2-27.9,2.2-41.8,0.9c-18.4-1.7-36.3-5.8-53.5-12.9C179.5,408.3,176.1,406.4,172.4,405.3z"/>
		<path class="st1" d="M302.6,259.4c-0.8,1.6-2.5,2.1-4,2.7c-14.6,6.1-28.4,13.7-40.9,23.4c-3.1,2.4-5.2,2.8-8.5,0.1
			c-7.3-6-15.6-10.7-23.7-15.5c14.1-1.9,27.6-5.6,39.9-13.2c32.4-19.9,49.5-60.2,40-94.7c-9.3-34-45.4-56.5-78.3-48.9
			c-26.8,6.2-45,33.6-39.6,59.6c4.2,20.3,25.3,34.6,44.9,30.4c15.2-3.2,25.7-19.2,22.1-33.5c-2.1-8.5-9.6-14.9-18.2-15.5
			c-7.5-0.6-13.6,3.3-15.4,10.6c-0.8,3-2,3.6-4.7,3.5c-5.7-0.2-11.3-0.2-17,0c-3.5,0.2-4.1-1.1-3.9-4.3c1.2-17.5,17.1-33.4,35-34.8
			c35.4-2.8,59.7,31.4,46.4,65.3c-12.4,31.7-49.6,44.2-81,27.1c-31.4-17-43.1-54.4-27.8-88.5c16.7-37.4,57.4-54.9,98.3-42.5
			c43.3,13.2,70.8,54.5,66.6,99.6c-2.4,25.9-12.1,48.5-29.7,67.8C302.9,258.5,302.8,259,302.6,259.4z"/>
		<path class="st2" d="M172.4,405.3c3.7-0.3,6.6,2.1,9.7,3.4c28,11.8,57.4,15,87.4,13.4c3-0.2,5.9-1.2,8.9-0.9
			c0.3,0.2,0.4,0.4,0.3,0.6c-0.1,0.2-0.2,0.3-0.3,0.3c-33.1,4.9-65,0.4-95.9-11.9C179.1,408.9,175.4,407.9,172.4,405.3z"/>
		<path class="st3" d="M291.4,419.1c11.9-3.1,23.7-6.4,35.1-11c3.3-1.4,6.2-4,10.1-3.8c-13.4,7.6-27.7,12.2-42.7,15.1
			C293,419.7,292.2,419.9,291.4,419.1z"/>
		<path class="st4" d="M291.4,419.1c0.8,0.1,1.7,0.1,2.5,0.2c-5,1.6-10.1,2.6-15.4,2.8c0-0.3,0-0.6,0-0.9
			C282.8,420.5,287.1,419.8,291.4,419.1z"/>
		<path class="st5" d="M132.9,272.9c73.7,0,137.5,46.3,159.4,113.9c1.4,4.2,1.2,6-3.8,6.9c-10.5,1.9-21,3.3-31.7,3.7
			c-4,0.1-6-0.9-7.6-4.9c-8.9-22.8-21.4-43.3-40.6-59c-28.2-23.1-60.6-29-95.8-22.8c-3.4,0.6-4.7-0.3-6.1-3.1
			c-4-8.3-7.4-16.7-10.4-25.4c-1.4-3.9-0.1-4.8,3.4-5.5C111.5,274.2,123.4,272.8,132.9,272.9z"/>
		<path class="st5" d="M372,272.9c12.2,0,24.2,1.5,36.1,4.1c3.2,0.7,3.6,1.7,2.6,4.7c-3.1,9.7-7,19-11.7,28c-1,2-2.1,3.1-4.6,2.5
			c-34.5-7.9-65.5,1.2-94.5,19.6c-3.8,2.4-5.5,2.4-7.9-1.6c-4.6-7.3-9.9-14.2-16.1-20.3c-3.5-3.4-2.4-4.9,1-7.2
			C305.5,282.9,337.2,272.9,372,272.9z"/>
		<path class="st5" d="M222.8,394.5c-40.6-8.5-72.8-28.3-98.9-60.4c16.6-2.4,31.8-0.8,46.5,5.3C195.5,349.9,211.1,369.6,222.8,394.5
			z"/>
		<path class="st5" d="M382.1,335.4c-17.4,21.3-37.6,36.9-61.5,47.7c-2,0.9-2.9,0.6-3.5-1.6c-2.3-7.7-5.1-15.1-8.5-22.4
			c-0.7-1.4-0.6-2.4,0.8-3.4C331,341.2,354.3,332.4,382.1,335.4z"/>
	</g>
	<g>
		<path class="st6" d="M1344.3,183.1c13.3-10.7,25.7-10.3,36.7,0.7c1.9,1.9,2.6,1,3.9-0.2c5.3-4.9,11.5-7.9,18.9-8.1
			c13.8-0.4,23.4,7.3,25.5,20.9c2.2,14,0.9,28.2,0.8,42.4c0,2.8-1.6,4.3-4.4,4.4c-0.2,0-0.3,0-0.5,0c-11.8,1-12.4,0.5-12.4-11.4
			c0-9.2,0.1-18.3-0.1-27.5c-0.1-5.7-1.4-11.2-7.6-13.4c-6.1-2.2-11.4,0.1-16.1,4.2c-1.6,1.4-2.2,2.9-2.1,5.2
			c0.3,12.5,0.2,25,0.3,37.4c0,3.7-1.7,5.3-5.5,5.5c-11.7,0.5-11.7,0.6-11.7-11c0-8,0.1-16,0.1-24c0-2.2-0.2-4.3-0.5-6.5
			c-0.6-5.1-2.5-9.5-7.9-11c-5.7-1.6-10.8-0.1-15.2,4c-1.8,1.7-2,3.6-2,5.9c0,12-0.2,24-0.1,36c0,4.5-1.6,6.2-6.2,6.1
			c-12.9-0.2-10.8,0.4-11-10.5c-0.2-16.3-0.2-32.6-0.2-48.9c0-6,0.7-6.6,6.5-6.8c1.5,0,3,0.1,4.5,0
			C1342.2,176.2,1345.2,177.2,1344.3,183.1z"/>
		<path class="st6" d="M514.3,244.6c-9.8-0.1-19.3-1.4-28.3-5.4c-5.1-2.2-5.4-3.5-2.7-8.3c4.1-7.4,4.1-7.3,11.8-4.6
			c8.9,3.1,18,5.1,27.4,3.1c6.6-1.4,9.8-5.1,10.3-11.1c0.4-5.8-1.7-8.9-8.4-11.3c-5-1.8-10.2-3.1-15.3-4.5
			c-4.3-1.2-8.6-2.7-12.6-4.7c-11-5.5-15-12.5-14.2-24.4c0.7-11,7.2-17.7,17.1-21c14.9-4.9,29.6-3,44,2.3c3.2,1.2,3.6,3.3,2.1,6.3
			c-4,8-4.4,8.2-12.9,5.7c-6.8-2-13.7-3-20.7-2.2c-6.7,0.7-10.7,4.1-11.3,9.4c-0.7,5.6,1.8,9.3,8.6,11.7c4.2,1.5,8.6,2.6,12.9,3.7
			c4.8,1.3,9.6,2.8,14.1,5c11.2,5.4,15.7,12.7,15,24c-0.7,11.9-6.9,20-18.2,23.7c-2.7,0.9-5.5,1.6-8.2,1.9
			C521.3,244.3,517.8,244.4,514.3,244.6z"/>
		<path class="st6" d="M858.2,184.3c5.3-5.6,10.7-8.7,17.3-9.1c18.7-1.2,29.6,9,30.5,29.3c0.5,10.8,0,21.6,0.1,32.5
			c0,4-1.7,5.8-5.7,5.8c-0.8,0-1.7,0.1-2.5,0.2c-8.5,0.2-9.6-0.9-9.2-9.4c0.5-9.8,0.6-19.6-0.2-29.4c-0.6-7.7-4.1-12.4-10-13.9
			c-6.9-1.7-15.4,1.3-19.2,6.7c-1.1,1.5-0.9,3.1-0.9,4.8c-0.1,11.5-0.1,23-0.2,34.5c0,6.3-0.7,6.9-6.8,7
			c-10.4,0.1-10.5,0.1-10.5-10.4c-0.1-27-0.2-53.9-0.3-80.9c0-6.5,0.3-6.9,6.7-6.8c10.9,0.1,11-1.8,11,10.7
			C858.2,164.9,858.2,174,858.2,184.3z"/>
		<path class="st6" d="M585.7,184.5c5.3-5.6,10.6-8.8,17.2-9.3c17.5-1.3,29.1,8.1,30.3,25.6c0.9,12.4,0.3,24.9,0.3,37.4
			c0,2.9-1.3,4.3-4.2,4.4c-0.8,0-1.7,0.2-2.5,0.2c-9.7,0.6-10.5-0.2-10.4-9.9c0.1-9,0.2-18-0.1-27c-0.2-6.6-1.9-12.7-8.9-15.4
			c-6.7-2.5-15,0-20,5.6c-1.7,1.8-1.7,3.8-1.7,6c-0.1,11.7-0.3,23.3-0.2,34.9c0,4.3-1.5,5.9-5.8,6c-11.3,0.1-11.3,0.3-11.4-11
			c-0.1-26.5-0.2-52.9-0.3-79.4c0-7.8,0.1-7.8,7.7-7.8c9.7,0,9.7,0,9.7,9.8C585.7,164.3,585.7,173.8,585.7,184.5z"/>
		<path class="st6" d="M1170.4,193.8c0-14.3,0.1-28.7-0.1-43c-0.1-4.6,1.6-6.2,6.1-6.3c11.8-0.2,11.8-0.3,11.8,11.2
			c-0.1,14.5-0.3,29-0.3,43.5c0,1.4-0.8,3.4,0.9,4c0.8,0.3,2.3-0.9,3.4-1.7c7.9-5.5,14.6-12.2,19.5-20.5c2.2-3.7,4.7-5.3,8.8-4.9
			c2.5,0.2,5-0.1,7.5,0c4.4,0.2,5.4,1.8,3.3,5.7c-4.3,8.1-10.5,14.6-17.5,20.3c-2.8,2.3-2.8,3.5-0.2,5.9
			c8.4,7.9,14.5,17.3,18.4,28.2c1.9,5.2,0.8,6.7-4.6,6.9c-0.8,0-1.7-0.1-2.5,0c-6.3,0.8-10.1-1.3-12.3-7.8
			c-2.3-6.8-6.4-12.8-11.5-18c-1.5-1.5-2.9-4.2-5.7-2.1c-2.8,2.2-8.3,1.2-7.9,7.3c0.4,5.1-0.1,10.3,0,15.5c0.1,3.7-1.6,5.2-5.1,5.1
			c-0.3,0-0.7,0-1,0c-10.2,0.2-10.3,0.2-10.3-9.9c-0.1-13.2,0-26.3,0-39.5C1170.8,193.8,1170.6,193.8,1170.4,193.8z"/>
		<path class="st6" d="M704.6,204.2c9.8-6.1,17.4-13.2,22.9-22.3c2.6-4.2,5.4-6.6,10.3-5.7c3.5,0.6,8.4-1.9,10.2,1.7
			c2,4-2.3,7.2-4.4,10.4c-3.6,5.2-7.9,9.9-13.1,13.7c-3.4,2.5-2.9,4-0.1,6.7c8.2,7.8,14.3,17.1,18.1,27.8c1.8,5.1,0.7,6.6-4.8,6.8
			c-1,0-2-0.1-3,0c-6,0.8-9.4-1.6-11.5-7.5c-2.3-6.8-6.4-12.8-11.4-18.1c-1.4-1.5-2.7-4.5-5.6-2.5c-3.1,2.1-8.6,1.4-8.2,7.6
			c0.4,5.1-0.1,10.3-0.1,15.5c0,3.3-1.6,4.9-4.9,4.9c-13,0.1-11.7,0.5-11.8-11c-0.2-26.6-0.4-53.3-0.6-79.9c-0.1-7,0.5-7.5,7.7-7.6
			c1.5,0,3,0,4.5,0c4-0.1,5.6,1.7,5.6,5.8c-0.2,16.8-0.1,33.6-0.2,50.5C704.5,201.7,704.6,202.5,704.6,204.2z"/>
		<path class="st6" d="M970.1,233.6c-9.9,10.4-21.9,13.2-34,8.6c-8.5-3.3-13-9.6-13.4-18.7c-0.4-8.8,3.4-15.5,11.4-19.5
			c8.9-4.4,18.3-4.2,27.9-3.4c1,0.1,2,0.5,3,0.4c2-0.2,4.8,2,5.9-0.3c1.1-2.2-0.4-4.9-1.7-7c-1.7-2.7-4.3-4-7.4-4.7
			c-8.4-1.9-16.5-0.4-24.5,2.4c-5.3,1.8-10.2-1.5-10.5-7.2c-0.1-2.1,1.2-3,2.8-3.7c14.6-6.3,29.6-7.9,44.7-2.2
			c8.4,3.2,12.9,10,13.3,18.9c0.5,13.6,0.1,27.3-0.8,40.9c-0.2,2.9-1.5,4.3-4.3,4.3c-0.7,0-1.3,0.2-2,0.2
			C971.6,243.5,970.5,242.7,970.1,233.6z"/>
		<path class="st6" d="M1293.1,233.7c-7.9,10.1-18.2,11.9-29.7,9.6c-10-2-16.5-8.8-17.2-18.1c-0.9-11.1,3.8-18.7,14.1-22.5
			c8.2-3.1,16.6-2.8,25.1-2c0.8,0.1,1.6,0.4,2.5,0.4c2.1-0.1,5.1,1.8,6,0c1.4-2.5-0.2-5.5-1.9-7.8c-2.7-3.7-6.9-4.5-11.1-4.8
			c-7.3-0.6-14.2,0.8-21,3.3c-4.8,1.8-6.6,0.6-9.2-5.3c-1.9-4.4,1-5.6,4-6.9c12.2-5,24.9-6,37.7-3c11.9,2.8,18.3,10.6,18.4,23.4
			c0.2,12.5-0.6,24.9-0.8,37.4c-0.1,3.4-1.5,5.4-5.1,5.3c-0.3,0-0.7,0.1-1,0.1C1295.1,243.7,1294.1,242.8,1293.1,233.7z"/>
		<path class="st6" d="M1082.4,209.7c0.1-20.9,14.4-34.5,36.2-34.5c22.1,0,36,13.6,35.9,35.2c-0.1,20.8-14.3,33.9-36.6,33.8
			C1096,244,1082.3,230.7,1082.4,209.7z"/>
		<path class="st6" d="M795.9,175.2c7.2-0.1,14.3,0.9,21,3.5c4.9,1.9,5.4,3.3,2.9,7.8c-3.7,6.6-4.2,6.9-11.3,4.6
			c-5.5-1.8-11.1-2.4-16.7-2c-3.8,0.3-8.4,0.5-8.8,5.4c-0.3,4.7,4.2,5.5,7.7,6.4c4.8,1.3,9.8,2.1,14.6,3.3c3,0.8,6,1.9,8.9,3.2
			c6.2,2.8,10.2,7.3,10.4,14.6c0.2,7.6-2.7,13.6-9.4,17.5c-4.4,2.6-9.2,3.7-14.3,4.2c-10.9,1.1-21.6,0.3-32-3.4
			c-4.1-1.5-5-3.6-2.7-7.5c4.2-7,4.2-7.2,12.1-5c6,1.6,12,2.7,18.2,2.4c2.4-0.1,4.6-0.5,6.8-1.4c2.4-1,3.7-2.9,3.8-5.4
			c0.2-2.7-1.6-4.2-3.9-5.2c-3.9-1.6-8-2.1-12.1-2.9c-6-1.3-12-2.7-17.3-6.1c-11.5-7.2-11.4-22.6,0.4-29.6
			C780.9,175.8,788.3,175,795.9,175.2z"/>
		<path class="st6" d="M1037.1,242.6c-8.1,0-16.3-0.1-24.4,0c-4.2,0.1-5.9-1.6-6.1-5.8c-1-26.6-1.5-53.2-1.5-79.8
			c0-4,1.5-5.7,5.5-5.8c15.6-0.3,12.8,0.1,13,12.2c0.3,20.1,0.6,40.2,0.6,60.4c0,3.5,0.9,4.6,4.5,4.4c11.3-0.4,22.6-0.5,33.9-0.8
			c3.8-0.1,6.6,0.6,6.6,5.3c0.2,8.1-0.6,9.7-6.2,9.8C1054.3,242.8,1045.7,242.6,1037.1,242.6
			C1037.1,242.6,1037.1,242.6,1037.1,242.6z"/>
		<path class="st6" d="M668.4,209.9c0,9.1-0.1,18.3,0,27.4c0.1,4.3-1.7,5.9-6,5.9c-10.8,0.1-10.8,0.2-10.9-10.4
			c-0.1-16.8-0.1-33.6-0.5-50.4c-0.1-4.8,1.7-6.4,6.4-6.3c12.3,0.3,11.2-1.2,11.3,11.3c0,3.8,0,7.6,0,11.5c0,3.7,0,7.3,0,11
			C668.7,209.9,668.6,209.9,668.4,209.9z"/>
		<path class="st7" d="M789,311.1c-1.8,0.7-3.5,1.7-5.3,2.1c-4.8,1-9.3-1.2-11.4-5.3c-2.2-4.3-1.4-10.7,1.7-14
			c3.3-3.6,7.8-4.4,12.7-2c1.4,0.7,2,0.9,3.5-0.3c2.5-2,5.1-0.4,5.1,2.9c0.1,5.8,0.3,11.6-0.1,17.4c-0.7,10.3-11,15.6-20.1,10.6
			c-1.2-0.6-2-1.3-1.4-2.7c0.5-1.1,1.2-2.1,2.6-1.8c1.1,0.2,2.2,0.6,3.4,0.8C786.1,320.1,788.7,317.9,789,311.1z"/>
		<path class="st8" d="M820.4,297.5c0-3.8,0.1-7.7,0-11.5c-0.1-2.5,0.8-3.7,3.4-3.6c5.3,0.1,10.6,0,16,0c1.8,0,3.5,0.2,3.4,2.6
			c-0.1,2.5-1.9,2.3-3.6,2.3c-2.8,0-5.7,0.2-8.5,0c-3.3-0.2-4.6,0.6-4.6,4.3c0,4.1,2.4,3.5,4.9,3.5c2-0.1,4,0,6-0.1
			c1.8,0,2.9,0.6,2.9,2.5c0,2-1.4,2.4-3,2.4c-1.8,0-3.7,0.2-5.5,0c-4.2-0.5-5.5,1.2-5.1,5.3c0.2,2.3,0.8,3.3,3.2,3.2
			c3.7-0.1,7.3-0.1,11-0.1c1.8,0,2.9,0.5,2.8,2.6c-0.1,1.7-1,2.3-2.6,2.3c-5.8,0-11.6,0-17.5,0c-2.3,0-2.8-1.4-2.8-3.3
			c0-4.2,0-8.3,0-12.5C820.5,297.5,820.5,297.5,820.4,297.5z"/>
		<path class="st7" d="M1211.4,293.3c0-3.6,0-6.7,0-9.8c0-2,0.5-3.1,2.8-3.2c2.3,0,3.3,0.9,3.3,3.3c-0.2,8.8-0.2,17.6-0.3,26.4
			c-0.1,4-3.3,4.1-5,2.4c-1.6-1.7-2.1-0.9-3.3-0.3c-5,2.4-10.5,1.3-13.5-2.6c-3.2-4.1-3-11.3,0.5-15.3c3.4-3.9,8.3-4.7,13.5-2
			C1209.7,292.5,1210.3,292.8,1211.4,293.3z"/>
		<path class="st7" d="M871.2,292.7c0-3,0-6.1,0-9.2c0-2,0.6-3.1,2.8-3.1c2,0,3.2,0.7,3.1,2.9c-0.2,9.1-0.4,18.3-0.5,27.4
			c0,2.9-2.9,3.3-3.7,2.3c-2.6-3.3-4.4-0.5-6.6,0.1c-4.5,1.2-9.5-0.4-11.9-4.1c-2.9-4.3-2.4-11,1-14.9c3-3.4,8-4.4,12.3-2.5
			C868.8,291.9,869.4,293.2,871.2,292.7z"/>
		<path class="st7" d="M1364.8,311.3c0,3.5,0,6.7,0,9.8c0,1.8-0.6,2.9-2.6,2.8c-1.8,0-2.7-0.8-2.7-2.7c-0.1-9.1-0.2-18.2-0.2-27.4
			c0-4,2.9-3.1,4.8-2.2c1.1,0.5,1.4,1.5,3.1,0.7c5.7-2.8,10.6-1.8,13.7,2.3c3.1,4.1,3.1,11-0.1,14.9c-3.4,4.2-8.4,4.9-14.4,2
			C1366.2,311.5,1365.9,311.5,1364.8,311.3z"/>
		<path class="st9" d="M1317.4,292.6c10.4-4.5,15.8-0.9,16,10c0,2.5-0.1,5,0,7.5c0,2-0.5,3.1-2.8,3.1c-2.5,0-3.2-1.2-3.1-3.4
			c0.1-3.2,0.1-6.3-0.1-9.5c-0.1-2.9-1.7-4.9-4.7-4.8c-3.1,0.1-5.4,1.5-5.3,5.3c0.1,3.2-0.1,6.3,0,9.5c0,1.7-0.5,2.9-2.5,2.9
			c-1.9,0-3.3-0.4-3.3-2.7c0-9.2-0.1-18.3-0.1-27.5c0-2.3,1.4-2.7,3.3-2.7c2,0,2.6,1,2.6,2.8
			C1317.4,286.2,1317.4,289.2,1317.4,292.6z"/>
		<path class="st7" d="M523.2,297.9c-0.1-5.9,1.6-11,7-13.9c5.3-2.9,10.9-2.6,16.3,0.2c1.3,0.7,3.5,1.3,2.1,3.6
			c-1.1,1.7-2.5,2.4-4.6,1.2c-4.2-2.5-8.5-3.2-12.2,0.8c-3.1,3.4-3.3,11.6-0.6,15.6c2.6,3.9,6.9,4.8,11.9,2.1
			c2.4-1.3,4.6-1.9,5.8,0.9c1,2.6-1.8,3.2-3.4,3.9C533.9,317.8,523.2,310.8,523.2,297.9z"/>
		<path class="st9" d="M580.3,304.2c0,1.3,0,2.7,0,4c-0.2,5.5-0.8,6-5.8,3.3c-1.4-0.7-1.7,0.3-2.4,0.7c-2.3,1.4-4.8,1.4-7.3,1
			c-3.5-0.5-5.8-2.6-6.1-6.2c-0.3-3.4,1.4-5.7,4.5-7c2.7-1.2,5.5-0.8,8.4-0.8c1,0,2.6,0.8,2.8-1c0.2-1.3-0.9-2.2-2-2.6
			c-2.4-0.9-4.9-0.6-7.4,0.1c-1.8,0.5-3.8,1.5-4.5-1.2c-0.7-2.7,1.9-2.7,3.5-3.2c2.7-0.8,5.5-1.1,8.4-0.6
			C578.9,291.8,580.5,294.5,580.3,304.2z"/>
		<path class="st7" d="M968.4,304c0,1.3,0,2.7,0,4c-0.2,5.9-0.4,6.1-5.8,3.8c-1.3-0.5-1.8,0.2-2.6,0.6c-2.9,1.4-5.8,1.4-8.7,0.4
			c-2.8-0.9-4.3-3.1-4.5-6c-0.2-2.9,1.1-5.1,3.8-6.5c3-1.5,6.1-1.2,9.3-1.1c1,0,2.6,0.9,2.7-1c0.1-1.2-0.9-2.2-2-2.6
			c-2.6-0.8-5.2-0.6-7.8,0.3c-1.7,0.6-3.4,0.8-4.1-1.3c-0.8-2.4,1.5-2.5,2.9-3.2c0.1-0.1,0.3-0.1,0.5-0.1
			C963.3,288.1,968.7,292.2,968.4,304z"/>
		<path class="st7" d="M674.6,306.7c2.7-4.7,3.9-8.9,5.3-13c0.6-2,1.7-3.2,3.9-3.1c2.1,0.1,3.2,0.8,2.3,3.1
			c-3.4,9.2-7.2,18.2-12.1,26.7c-1,1.8-2.7,3-4.8,3.2c-1.8,0.2-4.1,0.6-4.6-1.6c-0.5-1.9,1.1-2.5,2.9-3.1c3.4-1.1,4.6-4.9,3.1-8.5
			c-2.2-5.2-4.3-10.4-6.4-15.7c-0.6-1.4-1.9-3.3,0.8-4c2.1-0.5,3.9-0.2,4.7,2.3C671.1,297.4,672.7,301.5,674.6,306.7z"/>
		<path class="st7" d="M1183.5,304.3c0,1.8,0,3.6,0,5.5c0.1,3.9-2.4,4.3-4.8,2.8c-1.6-1-2.4-0.9-3.8-0.1c-2.6,1.4-5.5,1.3-8.2,0.4
			c-2.7-0.9-4.4-2.9-4.5-5.9c-0.1-3,1-5.1,3.6-6.5c2.6-1.4,5.4-1.2,8.3-1.3c1.3,0,3.5,1.4,3.7-0.9c0.2-2.1-1.8-2.9-3.8-3
			c-2.4-0.2-4.6,0.1-6.8,0.9c-1.5,0.5-2.6,0-3.2-1.4c-0.8-1.8,0.5-2.4,1.8-2.8c4-1.4,8.1-1.9,12.2-0.7c3.6,1.1,5.6,3.4,5.8,7.2
			c0.1,2,0,4,0,6C1183.6,304.3,1183.5,304.3,1183.5,304.3z"/>
		<path class="st7" d="M1238.7,313.4c-5.4,0-9.6-1.4-11.7-6.5c-1.8-4.6-0.6-10.3,2.7-13.4c3.4-3.2,9.2-4,13.5-1.7
			c2.8,1.4,4.6,3.7,5.3,6.9c0.8,3.6-0.1,5.9-4.4,5.7c-3-0.1-6,0-9,0.1c-0.9,0-2.2-0.3-2.5,1c-0.2,1.1,0.7,1.9,1.5,2.4
			c2.1,1.4,4.4,1.5,6.7,0.6c2.3-0.9,5.2-1.9,5.8,1.1c0.6,2.7-2.9,3-4.9,3.7C1240.7,313.5,1239.4,313.4,1238.7,313.4z"/>
		<path class="st7" d="M1143.2,313.4c-7.7-0.1-11.9-3.5-12.6-9.7c-0.7-6.2,2.7-11.4,8.5-12.8c5.9-1.5,11.4,1.2,13.5,6.5
			c1.9,4.9,0.6,6.8-4.6,6.9c-3,0.1-6,0-9,0.1c-0.8,0-1.9-0.2-2,0.9c-0.1,0.7,0.5,1.6,1,2.1c2.3,1.9,4.9,1.9,7.5,0.9
			c2.2-0.9,4.8-1.6,5.5,1c0.8,2.8-2.5,3-4.3,3.7C1145.4,313.5,1143.8,313.4,1143.2,313.4z"/>
		<path class="st7" d="M632,299c-0.1-3-2-3.7-4.3-3.8c-2.4-0.2-4.6,0.3-6.8,1c-1.6,0.5-2.5-0.4-3-1.8c-0.4-1.2,0.3-1.9,1.3-2.3
			c5-1.8,10-2.6,14.9,0c4.2,2.2,3.7,6.3,3.7,10.1c0,1.8-0.1,3.7-0.1,5.5c-0.2,5.7-0.2,5.7-5.8,3.9c-1.2-0.4-1.9,0.4-2.7,0.8
			c-1.9,1-3.8,1.1-5.8,0.9c-3.9-0.3-6.7-2-7-6.3c-0.4-4.3,2.1-6.7,5.8-7.4C625.4,299,628.7,299.2,632,299z"/>
		<path class="st7" d="M1031.8,313.4c-7.3,0-12-4.3-12-11.1c-0.1-6.9,5-11.8,12.1-11.8c7.3,0,11.9,4.7,11.8,11.9
			C1043.6,309.4,1039.2,313.4,1031.8,313.4z"/>
		<path class="st9" d="M739.7,301.8c0-2.7,0.1-5.3,0-8c-0.1-2.2,1.3-3.5,3-2.7c3.1,1.5,5.7,0,8.5-0.5c5.1-1,9.5,2.5,10.1,7.9
			c0.4,3.9,0.1,8,0.2,11.9c0,1.8-0.7,2.7-2.6,2.7c-2,0-3.2-0.6-3.2-2.8c0-3,0-6,0-9c0-3.4-1.1-6.1-5.1-5.9c-3.5,0.2-5.3,2.3-5,6
			c0.2,3,0,6,0,9c0,1.9-0.8,2.7-2.7,2.7c-1.7,0-3-0.5-3-2.4c0-3,0-6,0-9C739.8,301.8,739.7,301.8,739.7,301.8z"/>
		<path class="st7" d="M1053.2,302.1c0-1.7,0-3.3,0-5c0-6,0-6.1,6-4.9c1.4,0.3,2.1-0.7,3.2-1c6.2-2.1,11.5,1.1,12.3,7.7
			c0.4,3.8,0.5,7.6,0.2,11.4c-0.2,2.1-0.9,3-3,3c-2.3,0-2.7-1.4-2.7-3.3c0-3.2,0.1-6.3-0.1-9.5c-0.2-3-1.8-5.2-5.1-5
			c-3.3,0.2-5.1,2-4.9,5.6c0.2,3.1-0.2,6.3-0.2,9.5c0,1.9-1,2.6-2.8,2.6c-1.9,0-2.8-0.8-2.7-2.6
			C1053.3,307.8,1053.3,304.9,1053.2,302.1C1053.3,302.1,1053.2,302.1,1053.2,302.1z"/>
		<path class="st6" d="M660.3,149c6.1,0.1,9.4,3.3,9.3,9.1c-0.1,5.4-4.1,9.1-9.8,8.9c-5.8-0.2-9.5-3.9-9.4-9.4
			C650.5,152.1,654.1,148.9,660.3,149z"/>
		<path class="st7" d="M908.7,302.4c0,2.7-0.1,5.3,0,8c0.1,2.7-2,3.6-3.5,2.6c-2.6-1.7-4.4-0.4-6.6,0.2c-5.7,1.5-10.5-1.7-11.2-7.5
			c-0.4-3.9-0.2-8-0.3-11.9c0-2.1,1-2.9,3.1-2.8c2,0.1,2.5,1.1,2.5,2.9c0,3.3,0,6.6,0.2,10c0.2,3,1.8,5,5.2,4.7
			c3.3-0.3,5.1-2,4.9-5.6c-0.2-3-0.2-6-0.2-9c0-2.1,0.9-3,3-3c2.2,0,2.9,1.1,2.8,3.1C908.7,296.8,908.7,299.6,908.7,302.4
			C908.7,302.4,908.7,302.4,908.7,302.4z"/>
		<path class="st9" d="M702.8,313.5c-1.4-0.2-3.5-0.5-5.6-1c-1.2-0.3-2.9-0.6-2.1-2.6c0.6-1.4,1.3-2.7,3.3-2.2
			c2.4,0.6,4.8,1.3,7.4,0.9c1.3-0.2,2.9-0.4,2.8-2.2c0-1.4-1.4-1.7-2.5-2.1c-2.4-0.7-4.8-1.1-7.2-2c-2.6-0.9-4.1-2.9-4-5.7
			c0.1-2.8,1.9-4.5,4.5-5.4c3.9-1.4,7.9-1.1,11.8,0c1.3,0.4,2.8,0.8,2.1,2.7c-0.5,1.5-1.5,2.7-3.4,2.1c-2.3-0.7-4.5-1.1-6.9-0.7
			c-1,0.2-2,0.6-2,1.8c0,1,0.9,1.4,1.6,1.7c2.1,0.6,4.2,0.9,6.3,1.6c3.2,1,6,2.3,5.7,6.4c-0.3,4.1-3.1,5.6-6.5,6.3
			C706.5,313.5,705,313.4,702.8,313.5z"/>
		<path class="st9" d="M1290.2,313.6c-1.6-0.3-3.7-0.5-5.8-1c-1.2-0.3-2.9-0.6-2.2-2.5c0.5-1.4,1.2-2.7,3.3-2.3
			c2.1,0.5,4.2,1,6.4,1.1c1.6,0.1,3.8,0,3.9-2.2c0.1-1.8-1.8-2-3.3-2.4c-2.1-0.5-4.2-1-6.2-1.7c-2.5-0.9-4.1-2.7-4.1-5.6
			c0.1-3.1,1.9-4.8,4.7-5.7c3.8-1.3,7.5-0.9,11.3,0.1c1.3,0.3,2.7,0.8,2.2,2.6c-0.5,1.6-1.5,2.7-3.3,2.2c-2.1-0.6-4.2-1.1-6.4-0.8
			c-1.2,0.1-2.5,0.3-2.5,1.8c0,1.2,1,1.7,2,1.9c2.1,0.5,4.2,0.9,6.3,1.5c3,1,5.4,2.5,5.2,6.3c-0.2,3.9-2.7,5.5-6,6.3
			C1294.1,313.4,1292.4,313.4,1290.2,313.6z"/>
		<path class="st7" d="M1100.4,297.4c0-3.6,0-7.3,0-10.9c0-2.1,0-3.9,3-4.1c3.3-0.1,3.2,2,3.2,4.2c0,6,0.1,11.9,0,17.9
			c0,2.7,0.9,3.9,3.8,3.7c2.8-0.2,5.6-0.1,8.5-0.1c1.8,0,2.8,0.6,2.8,2.6c-0.1,1.9-1,2.6-2.8,2.6c-5,0-10-0.1-14.9,0
			c-2.5,0-3.2-1.3-3.2-3.4c0-4.1,0-8.3,0-12.4C1100.6,297.4,1100.5,297.4,1100.4,297.4z"/>
		<path class="st9" d="M990.4,313.4c-5.4,0.4-8-2.2-8.8-6.7c-0.4-2.1-0.3-4.3-0.3-6.4c0-2.3,0.2-4.4-3-4.6c-1.1-0.1-1.7-0.9-1.7-2.1
			c0-1.4,0.6-2.3,2-2.2c2.8,0.1,2.7-1.8,2.7-3.7c-0.1-1.8,0.2-3.3,2.6-3.3c2.3-0.1,3.6,0.9,3.3,3.2c-0.4,3.3,1.4,4,4.2,3.7
			c1.5-0.1,3.1,0,3,2.2c0,2.1-1.5,2.4-3.1,2.4c-6.9-0.2-3.5,4.9-3.9,7.8c-0.4,2.8,0.1,6,4.5,5c2-0.5,3.1,0.9,3,2.4
			C994.6,314.1,991.7,313,990.4,313.4z"/>
		<path class="st9" d="M601.6,313.4c-5,0.1-7.5-2.2-8.2-6.7c-0.4-2.5-0.5-5-0.6-7.4c-0.1-1.8-0.1-3.4-2.4-3.5c-1.4-0.1-2-1-2-2.4
			c0-1.1,0.5-2.1,1.7-2.1c2.7,0,2.8-1.7,2.7-3.7c-0.1-2.2,0.6-3.4,3.1-3.4c2.7,0,3,1.7,2.8,3.6c-0.3,2.8,1.2,3.4,3.6,3.3
			c1.5-0.1,3.7-0.6,3.7,2c0.1,2.7-2.1,2.7-3.9,2.6c-3.1-0.3-3.7,1.4-3.4,3.9c0.4,3.2-1.4,7.5,3.1,8.9c1.8,0.6,4.9-1,4.6,2.4
			C606.2,314.1,603.2,313,601.6,313.4z"/>
		<path class="st9" d="M930.6,313.4c-5.4,0.1-9.5-1.6-11.5-6.6c-1.9-4.8-0.5-10.7,3.1-13.7c3.5-2.9,10.2-3.4,14.2-1.1
			c1,0.6,2.3,1.1,1.7,2.6c-0.9,2-2.6,2-4.6,1.5c-6.1-1.6-9.4,0.8-9.2,6.4c0.1,4.7,3.3,7.2,8,6.1c2.2-0.5,5.1-2.4,5.7,1
			c0.6,3.3-3.1,3-5.2,3.7C932,313.5,931.1,313.4,930.6,313.4z"/>
		<path class="st10" d="M653.4,297.2c0,4.3,0,8.7,0,13c0,2-0.6,3.1-2.8,3.1c-2.2,0-2.9-1-2.9-3.1c0-9-0.1-18-0.1-26.9
			c0-2.1,0.9-2.9,3-2.9c2.1,0,3.1,0.7,3.1,2.9c-0.1,4.7,0,9.3,0,14C653.5,297.2,653.5,297.2,653.4,297.2z"/>
		<path class="st10" d="M1258.3,301.9c0-2.7,0-5.3,0-8c0-1.2,0-2.9,1.4-2.7c4,0.6,8-0.1,12,0c1.5,0,1.8,1.2,1.6,2.5
			c-0.2,1.3-0.7,2.5-2.1,2.3c-7.7-1.1-7.3,3.9-7.1,9c0.1,2,0,4-0.1,6c-0.1,2-1.6,2.2-3.2,2.2c-1.6,0-2.5-0.7-2.5-2.3
			C1258.4,307.9,1258.4,304.9,1258.3,301.9C1258.4,301.9,1258.4,301.9,1258.3,301.9z"/>
		<path class="st11" d="M724.3,301.7c0-2.5,0-5,0-7.5c0-1.9,0.4-3.2,2.7-3.2c2.3,0,3.4,0.8,3.3,3.2c-0.1,5.3-0.1,10.6-0.2,16
			c0,2-0.7,3.1-2.9,3.1c-2.3,0-2.9-1.1-2.8-3.1c0.1-2.8,0-5.7,0-8.5C724.4,301.7,724.3,301.7,724.3,301.7z"/>
		<path class="st11" d="M1010.5,302.4c0,2.7,0,5.3,0,8c0,1.8-0.6,2.8-2.6,2.8c-2,0-3.1-0.7-3.1-2.9c0-5.5-0.1-11-0.2-16.5
			c0-2.2,1-2.9,3-2.9c2.1,0,3.1,0.8,3,2.9c-0.1,2.8,0,5.7,0,8.5C1010.6,302.4,1010.5,302.4,1010.5,302.4z"/>
		<path class="st11" d="M1349.3,301.9c0,2.8,0,5.7,0,8.5c0,1.8-0.8,2.8-2.7,2.8c-2.1,0.1-3.1-0.7-3.1-2.9c0-5.5,0-11-0.1-16.5
			c0-2.2,1-2.9,3-2.9c2.1,0,3.1,0.8,3,2.9c-0.1,2.7,0,5.3,0,8C1349.4,301.9,1349.4,301.9,1349.3,301.9z"/>
		<path class="st12" d="M1010.9,285c-0.2,2-1.3,3.1-3.2,3.1c-1.8,0-3.2-1-3.2-3c0-2,1.3-2.9,3.2-3
			C1009.7,282.1,1010.8,283,1010.9,285z"/>
		<path class="st13" d="M730.5,285.1c-0.1,2-1.4,2.9-3.2,3c-1.9,0-3.1-1.1-3.2-3c0-2,1.2-2.9,3.2-2.9
			C729.2,282.1,730.3,283,730.5,285.1z"/>
		<path class="st14" d="M1349.6,285.2c-0.2,2-1.4,3-3.3,2.8c-1.8-0.1-3.1-1.1-3-3.1c0.1-2,1.4-2.8,3.3-2.8
			C1348.6,282.2,1349.6,283.2,1349.6,285.2z"/>
		<path class="st5" d="M958.2,212.1c2.2,0.1,4.3,0.1,6.5,0.3c6.7,0.6,7.3,1.8,4.4,8c-4.3,9.1-13.7,13.4-23.3,10.8
			c-3.9-1.1-6.5-3.4-7-7.5c-0.5-4.1,1.3-7.1,4.8-9.1C948.1,212,953.2,212,958.2,212.1z"/>
		<path class="st5" d="M1273.5,232c-0.6-0.1-2.1-0.3-3.6-0.6c-4.3-0.8-7.3-3-7.8-7.8c-0.5-4.8,1.8-8.1,6.1-9.8
			c7.9-3,16-1.8,24.1-0.8c1.9,0.2,1.8,1.3,1.6,2.8C1292.5,224.7,1283.4,232.2,1273.5,232z"/>
		<path class="st5" d="M1099.5,210.6c0.1-13.2,7.5-21.4,19.2-21.3c11.5,0.1,18.7,8.4,18.5,21.3c-0.1,12.4-7.7,20.5-19,20.5
			C1106.8,231.1,1099.4,223,1099.5,210.6z"/>
		<path class="st15" d="M789.4,302.1c-0.1,3.9-2.8,7-6.3,7c-3.6,0-6.4-3.1-6.3-6.9c0-3.9,2.8-6.9,6.3-6.9
			C786.7,295.3,789.4,298.2,789.4,302.1z"/>
		<path class="st15" d="M1198.6,302.5c-0.1-3.9,2.5-7,6.1-7.2c3.7-0.2,6.5,2.6,6.6,6.6c0.1,3.9-2.6,7.1-6.1,7.2
			C1201.7,309.2,1198.7,306.3,1198.6,302.5z"/>
		<path class="st16" d="M871.1,301.9c0.1,3.9-2.6,7-6.1,7.2c-3.7,0.1-6.4-2.6-6.5-6.7c-0.1-4,2.4-7,6-7.2
			C868.1,295.1,871,298,871.1,301.9z"/>
		<path class="st15" d="M1377.4,302.5c-0.1,4-2.9,6.9-6.5,6.6c-3.5-0.2-5.9-3.4-5.7-7.5c0.2-3.9,2.1-6.3,6.2-6.3
			C1375,295.3,1377.5,298.4,1377.4,302.5z"/>
		<path class="st17" d="M568.1,309.4c-1.8-0.1-4-0.4-3.7-3.1c0.3-3.1,3-3.2,5.3-3c1.6,0.2,4.3-1.4,4.6,1.8
			C574.5,307,571,309.3,568.1,309.4z"/>
		<path class="st18" d="M958.3,303.1c1.3,0.7,4.3-1,4,1.9c-0.3,2.9-2.9,4.3-5.9,4.3c-2,0-4-0.5-3.9-2.8
			C952.7,303,955.8,303.4,958.3,303.1z"/>
		<path class="st19" d="M1173.8,303.1c1.2,0.7,4-1,3.7,1.6c-0.3,3.1-2.9,4.6-6.1,4.6c-1.9,0-4.1-0.5-3.9-2.8
			C1168,302.9,1171.2,303.3,1173.8,303.1z"/>
		<path class="st20" d="M1237.6,300.6c-1.9-0.9-4.7,1-4.9-1.5c-0.2-2.6,2.3-3.8,4.9-3.8c2.4-0.1,4.8,0.9,4.7,3.3
			C1242.2,302.3,1238.7,298.9,1237.6,300.6z"/>
		<path class="st20" d="M1141.7,300.6c-1.5-1.1-4.5,1.4-4.6-1.7c-0.1-2.2,2.2-3.5,4.6-3.6c2.6-0.1,5.2,1,5.1,3.5
			C1146.6,302.1,1143.3,299.4,1141.7,300.6z"/>
		<path class="st21" d="M627.8,303.1c1.2,0.8,4.2-1.1,4,1.8c-0.3,2.9-2.8,4.4-5.8,4.5c-2.1,0.1-4.5-0.3-4.2-3
			C622.2,303,625.2,303.3,627.8,303.1z"/>
		<path class="st15" d="M1031.8,295.3c3.6,0,6.2,3,6.2,7c0,4-2.7,6.9-6.3,6.8c-3.7,0-6.3-2.9-6.2-6.9
			C1025.7,298.1,1028.3,295.3,1031.8,295.3z"/>
	</g>
</g>
</svg>
