<?xml version="1.0" encoding="UTF-8"?>
<svg id="Layer_1" data-name="Layer 1" xmlns="http://www.w3.org/2000/svg" viewBox="0 0 1920 1173">
  <defs>
    <style>
      .cls-1 {
        fill: #fff;
      }

      .cls-2 {
        fill: #fff;
      }

      .cls-3 {
        fill: #ffffff;
      }

      .cls-4 {
        fill: #ffffff;
      }

      .cls-5 {
        fill: #ffffff;
      }

      .cls-6 {
        fill: #ffffff;
      }
    </style>
  </defs>
  <rect class="cls-4" width="1920" height="1"/>
  <path class="cls-3" d="M933.45,595.74c2,1.38,10.45-8.99,12.64-10.78,22.77-18.68,59.97-22.08,79.13,3.29,21.13,27.99,6.3,101.31,10.94,136.21-1.03,9.4-21.11,7.53-28.64,6.97-9.68-.72-12.44-.38-13.3-10.78-2.39-28.79,4.32-67.77-.25-94.82-2.49-14.72-15.84-23.61-30.1-18.03-5.45,2.13-20.98,16.6-22.29,22.08l-.49,94.58c.1,5.26-5.4,6.45-9.57,6.91s-28.44.42-30.51-2.45c-2.41-28.55,1.31-58.57-.5-86.97-2.89-45.29-31.8-46.22-54.29-12.36l-.88,97.99c-2.8,5.65-34.91,5.56-39.43.1l.11-152.23c3.97-3.76,26.19-3.31,31-.56,4.32,2.47,2.31,14.79,4.49,19.58,21.83-29.5,74.93-36.09,91.93,1.27Z"/>
  <path class="cls-1" d="M1612.09,732.29c-5.99-.23-21.06.73-25.18-4.78l-40.62-77.24c-15.1,25.08-26.65,52.18-41.13,77.65-4.46,3.78-12.78,2.71-31.76,3.45-6.24-.29-13.79,1.31-12.15-7.6l53.96-100.87c-11.89-28.85-30.29-54.81-43.78-82.87-1.81-3.78-8.09-15.66-5.77-18.53,4.13-5.12,38.58-5.38,45.04.81l35.96,66.71,3.42,4.17c7.4-13.37,14.47-26.98,21.58-40.51,4.63-8.83,12.12-30.62,21.09-33.41,4.78-1.49,33.56-1.99,35.97,1.64.85,1.29.73,2.97.68,4.46-13.87,33.4-34.38,63.86-50.32,96.36l53.45,100.74c2.77,9.35-13.52,9.56-20.45,9.83Z"/>
  <path class="cls-3" d="M690.5,587.69c22.2,23.58,77.61,21.6,83.07,68.4,7.41,63.45-51.04,88.91-105.35,74.92-20.55-5.29-33.83-10.6-32.66-34.48,1.21-24.76,10.92-11.54,23.58-5.88,18.1,8.09,55.33,16.91,67.09-4.85,18.15-33.57-39.78-45.32-59.4-58.61-23.04-15.62-31.98-40.72-25.15-67.77,10.37-41.1,59.42-49.62,95.28-40.38,24.1,6.21,29.81,15.17,24,40.5-2.21,9.65-16.42-1.71-22.41-4.06-11.66-4.58-23.8-7.69-36.35-5.26-19.03,3.69-24.77,23.59-11.7,37.47Z"/>
  <path class="cls-3" d="M1408.77,574.19h34.86c4.46,0,4.92,32.96-1.27,32.96h-33.59v74.15c0,4.39,3.67,13.72,7.98,16.1,10.89,6.01,16.09-1.11,24.48-1.52,8.67-.43,6.62,26.64,2.49,31.78-2.81,3.49-14.55,5.63-19.26,6.09-80.22,7.73-50.44-73.21-56.19-122.23-.15-1.28-.58-4.37-1.97-4.37h-19.01c-4.88,0-5.86-32.96,0-32.96h19.01c.89,0,1.71-2.12,1.9-3.17,1.04-5.68-1.74-32.32,1.19-34.3,4.09-2.76,39.37-3.52,39.37,2.61v34.86Z"/>
  <path class="cls-3" d="M1276.94,595.74c8.56-8.16,18.71-23.5,31.17-25.24,5.3-.74,22.82-.24,25.66,4.53,2.37,3.98,2.48,34.18-.98,36.62s-10.55-1.54-14.64-1.98c-19.09-2.06-24.38,10.93-34.31,24.02-3.01,28.5,2.08,60.08-.5,88.23-.66,7.17-2.32,8.69-9.57,9.44-7.73.81-31.34,2.68-32.38-6.91l.09-145.79c.63-4.96,9.04-5.6,13.23-5.79,3.6-.16,22.23.82,22.23,4.48v18.38Z"/>
  <rect class="cls-6" x="361.74" y="457.58" width="19.01" height="19.01"/>
  <path class="cls-6" d="M508.78,476.59h-19.01v-19.01c3.75.63,16.66-1.39,18.46,1.19s-.18,13.94.55,17.83Z"/>
  <path class="cls-5" d="M458.08,476.59v-19.01c13.45-.15,19.84-3.15,19.14,13.32-.48,11.27-11.72,5.19-19.14,5.69Z"/>
  <path class="cls-2" d="M412.45,476.59h-17.75c.31-15.61-4.35-21.37,14.64-19.07,8.84,1.07.96,12.51,3.11,19.07Z"/>
  <path class="cls-3" d="M636.82,275.04c-44.68,2.15-94.43-6.52-136.49,11.19-27.68,11.66-48.6,30.32-65.69,54.7-15.93-25.17-38.27-43.19-65.69-54.7-42.6-17.88-90.11-9.1-135.22-11.19-1.64,47.02,5.49,102.35,49.06,129.05,21.63,13.25,47.19,17.06,71.95,20.58l71.67,1.22v65.91h-67.18v29.15c0,.57-11.41-.57-11.41,0v17.75c0,.56,9.15-1.25,10.85,1.19,1.59,2.27.04,9.59.56,12.76h-11.41s0,17.74,0,17.74c1.35.49,10.32-1.53,8.86,1.88-32.17,31.25-44.03,81.32-26.83,123.2,27.11,66.03,103.33,91.56,164.91,54.18,62.26-37.79,70.36-127.53,17.85-177.37,3.52-1.48,9.66,1.01,11.15-4.05.62-2.11.71-12.96-.3-14.4-1.86-2.67-12.56-.34-13.4-1.18-.51-.51.4-11.02-.02-13.22.32-2.15,11.4.96,13.41-1.92.91-1.3.97-12.66.38-14.48-1.43-4.35-15.03-.1-15.03-3.98v-27.25h-64.65v-65.91c47.57-2.68,97.65,4.14,140.6-21.02,46-26.94,52.35-81,52.08-129.83ZM510.01,592.61c44.53,53.7,18.35,135.6-48.14,154.6-93.64,26.76-163.4-84.89-99.51-157.82,2.13-2.43,11-9.4,11.42-10.13,1.12-1.93.08-8.87,2.53-8.87h48.17c.13,0,1.9,1.77,1.9,1.9v41.83c-12.43,4.07-23.49,12.44-28.12,25.12-12.59,34.44,20.82,64.48,53.97,50.16,17.44-7.53,26.05-31.59,20.06-48.93-4.78-13.84-16.15-21.76-29.42-26.35v-42.46h51.97c.35,0,.04,4.22,1.43,6.82,2.13,4,10.3,9.98,13.75,14.14ZM376.32,538.7h115.35c3.87,0,4.43,13.94,1.27,13.94h-116.62c-2.79,0-2.79-13.94,0-13.94ZM491.67,507.01c3.87,0,4.43,13.94,1.27,13.94h-116.62c-2.79,0-2.79-13.94,0-13.94h115.35Z"/>
  <path class="cls-3" d="M1200.94,622.94c-2.08-32.71-16.91-49.56-50.14-52.53-17-1.52-58.65,2.29-70.96,15.19-4.19,4.39-4.18,18.61-2.9,24.45,2.75,12.48,16,1.66,22.59-.95,30.16-11.97,65.77-16.14,60.8,28.48h-33.59c-11.2,0-34.54,7.75-43.62,14.69-21.44,16.37-20.7,55.37.74,71.29,25.52,18.94,59.45,12.64,82.18-7.38,2.07,4.21-1.65,11.02,2.73,13.73,3.59,2.22,28.74,2.51,30.96-.61.98-1.38,1.08-4.33,1.21-6.11,2.04-28.26,1.81-71.85,0-100.25ZM1160.32,687.64c0,.72-8.8,8.94-10.25,10.03-14.64,11-41.06,11.13-41.78-11.25-.56-17.28,12.91-20.9,27.31-23.49h22.82c.13,0,1.9,1.77,1.9,1.9v22.82Z"/>
  <path class="cls-1" d="M622.8,287.32c-2.37,5.3-.85,11.24-1.43,16.94-8.43,82.55-53.33,100.79-129.69,103.51-12.71.45-33.77,1.46-45.77.03-1.36-.16-2.91.05-3.82-1.25-2.26-38.63.45-66.27,33.06-91.32,44.57-34.24,95.22-29.47,147.65-27.9Z"/>
  <path class="cls-1" d="M427.59,407.73c-39.06-.04-78.67,2.3-116.34-9.78-23.78-7.63-41.02-23.82-51.19-46.41-8.56-18.99-11.1-41.66-12.48-62.33-.18-2.65.02-1.63,1.88-1.9,9.23-1.34,23.09.29,33.05.06,38.76-.89,69.63-.71,103.65,21.73,15.95,10.52,41.43,35.74,41.43,56.17v42.46Z"/>
</svg>