<?xml version="1.0" encoding="UTF-8"?>
<svg id="Smart_karat" data-name="Smart karat" xmlns="http://www.w3.org/2000/svg" viewBox="0 0 2839.2 503.57">
  <defs>
    <style>
      .cls-1 {
        fill: #ffffff;
      }

      .cls-2 {
        fill: #ffffff;
      }

      .cls-3 {
        fill: #ffffff;
      }
    </style>
  </defs>
  <g id="Smartkarrot">
    <g>
      <path class="cls-2" d="M650.6,433.91c-7.53-7.36-8.75-22.8-9.34-33.08-2.3-39.75,6.41-97.57-3.49-134.2-13.44-49.73-91.14-42.2-100.23,6.76-6.71,36.12.4,80.14-1.22,117.51-.38,8.79-1.27,24.43-3.29,32.63-6.68,27.1-54.52,27.64-60.45-6.01-7.78-44.17,3.54-92.97-3.55-138.13-4.82-30.71-22.3-49.23-55.24-46.7-34.1,2.61-46.77,27.46-48.49,58.36-2.25,40.53,4.66,88.3-2.1,127.61-5.95,34.65-57.39,31.12-61.58-.12-2.13-15.84-.85-33.62-1.22-49.67-1.04-45.6-.68-92.1,0-137.6.27-18.09-2.68-44.53,16.97-53.9,23.35-11.13,34.32,7.41,50.28,20.3,25.43-19.27,53.82-28.74,86.03-24.69,28.56,3.59,44.28,18.96,64.24,37.71,30.83-27.54,64.02-43.68,106.55-37.57,83.66,12.02,78.48,97.05,78.79,161.81.13,27.08.61,60.32-2.05,86.83-2.54,25.29-35.36,27.05-50.62,12.13Z"/>
      <path class="cls-2" d="M1517.03,270.53l49.75-62.03c.1-.13.21-.25.33-.36,16.43-16.26,29.61-43.15,57.1-28.11,35.25,19.28,2.95,54.31-13.34,74.13-5.12,6.22-37.88,41.42-46.1,52.68-1.25,1.72-1.24,4.06.09,5.72,18.22,22.75,40.95,41.41,59.54,63.83,5.23,6.31,21.28,26.45,22.42,33.5,3.84,23.77-21.77,35.98-41.92,29.87-10.51-3.18-25.79-22.69-33.5-31.41-18.7-21.16-35.95-43.64-54.34-65.09-2.8-3.26-8.17-1.35-8.28,2.95-.58,22.34,2.07,45.66-1.11,67.35-2.9,19.78-13.89,31.49-35.1,29.58-33.91-3.07-27.78-38.94-28.57-63.27-1.81-56.25.27-113.07,0-169.62-.07-14.83-1.7-29.87-1.09-44.89.97-23.91,1.07-54.8,33.52-54.42,29.23.35,31.53,23.45,32.53,46.43,1.59,36.31-.8,73.65-.33,110.27.06,4.43,5.62,6.35,8.39,2.9Z"/>
      <path class="cls-2" d="M2654.5,170.87c11.47.37,23.07-.5,34.53-.05,9.58.38,26.86,1.02,35.69,3.28,20.36,5.22,20.92,40.81,2.95,47.34-7.29,2.65-28.91,3.03-37.64,3.34-12.47.44-25.06-.41-37.53-.05,1.36,36.72-1.78,74.7-.04,111.29.62,12.9,1.66,29.87,12.03,38.88,10.16,8.83,41.72,10.02,56.01,12.94,7.2,1.47,15.92,1.85,19.16,8.81,9.84,21.17-1.88,36.24-21.96,42.31-29.37,8.88-64.12,6.99-90.86-8.53-38.95-22.61-39.25-63.03-40.35-103.39-.88-32.34,2.27-64.45.09-96.66-17.89-7.25-44.66-2.19-44.93-29.2-.27-27,24.58-24.51,43.78-30.41,2.97-23.86-1.31-59.68,31.6-61.75,36.04-2.27,34.31,36.5,37.46,61.85Z"/>
      <path class="cls-2" d="M1319.05,173.81c16.26.82,33.3-.91,49.47.01,6.31.36,23.96,2,27.98,6,10.46,10.39,11.15,29.12.99,39.96-6.29,6.71-23.02,5.47-32,5.98-1.95.11-3.84.94-5.97,1.03-14.12.57-28.41-.51-42.53-.05.8,33.07-2.37,66.24-1.04,99.32.52,12.92,1.28,39.39,10.04,48.84,13.35,14.39,49.36,11.3,68.03,16.91,17.67,5.31,16.21,34.64,1.29,43.31-16.69,9.71-59.58,9.66-78.14,5.45-37.44-8.48-56.63-30.76-62.85-67.97-7.75-46.43-.87-95.35-3.25-142.25-.49-1.78-30.25-6.36-35.75-9.39-12.27-6.75-11.95-32.97-1.23-40.54,2.88-2.03,15.44-5.03,19.71-6.27,4.91-1.43,10.01-2.49,15.02-3.46,3.58-13.98,1.75-34.74,7.67-47.72,5.59-12.26,25.63-16.25,37.47-12.43,25.64,8.27,21.02,42.02,25.07,63.27Z"/>
      <path class="cls-2" d="M166.22,177.15c31.42-2.57,67.3,3.61,91.64,24.67,2.9,2.51,15.26,15.43,15.44,18.35.65,10.26-10.92,25.48-19.43,30.51-32.52-6.48-68.1-40.66-100.78-15.8-6.94,5.28-6.67,9.42-5.41,18.03,1.95,13.36,13.5,17.33,24.37,22.57,45.72,22,111.98,35.36,101.22,102.3-13.45,83.67-134.82,78.69-186.3,34.5-12.84-11.03-19.43-23.63-8.77-39.62,14.81-22.23,44.25,3.02,60.84,10.6,21.77,9.95,49.47,15.17,69.68-1.05,5.28-4.23,6.28-6.26,6.65-13.31.86-16.24-10.54-21.46-23.3-27.6-37.09-17.85-91.85-26.25-102.34-74.45-11.14-51.15,28.54-85.78,76.47-89.7Z"/>
      <path class="cls-1" d="M2505.2,181.2c15.72,14.2,3.33,34.16-5.3,48.37l-100.31-.82c25.73,44.42,54.94,86.8,81.39,130.77,7.94,13.2,24.26,37.5,29.05,50.82,8.07,22.46-22.42,41.45-40.8,29.75-8.07-5.14-20.46-24.31-26.07-32.85-14.03-21.35-26.47-44.05-40.15-65.68-19.34-30.58-40.56-60.91-58.57-92.2-4.72-8.2-14.71-23.45-15.71-32.21-2.3-20.05,11.45-38.13,31.49-41.19,26.15-3.99,67.16-4.27,93.9-3.14,11.58.49,35.35,1.98,45.87,5.1,1.79.53,3.84,2.04,5.21,3.28Z"/>
      <path class="cls-2" d="M1049.85,170.13c24.94-3.42,28.08,17.33,42.72,31.43,22.19-14.16,42.57-30.3,70.9-26.61,21.42,2.79,27.55,35.88,13.1,47.82-12.73,10.52-45.28,13.4-62.19,23.74-37.16,22.71-26.36,92.13-26.26,129.35.04,13.08.06,37.67-3.3,49.67-7.04,25.14-51.79,23.01-58.44-4-1.8-7.32-2.03-20.63-2.32-28.62-2.32-64.29,1.01-129.33,1.05-193.58,1.38-14.39,9.55-27.1,24.74-29.19Z"/>
      <path class="cls-2" d="M2147.05,178.21c12.73-12.88,30.26-11.11,42.14,1.63,2.9,3.1,14.68,21.03,16.81,20.83,1.83-.18,15.59-11.21,18.75-13.25,17.14-11.04,37.14-20.04,57.89-13.05,15.44,5.21,18.66,30.81,10,42.89-4.86,6.78-15.31,9.3-23.02,11.94-21.08,7.21-46.13,10.28-58.47,31.43-23.4,40.11-2.29,116.1-12.91,161.71-7.21,30.96-56.52,26.67-59.51-6.56s-1.04-66.72-.98-99.71c.07-35.14-2.28-74.24-.08-108.83.59-9.27,2.66-22.22,9.39-29.03Z"/>
      <path class="cls-2" d="M2014.78,200.78c16.31-9.31,30.56-23.6,49.89-27.47,25.76-5.16,45.34,3.85,41.93,32.87-1.44,12.3-6.15,14.93-16.62,19.33-21.25,8.91-53.76,11.76-67.43,32.47-27.29,41.32-.37,122.3-16.85,168.76-9.1,25.66-52.2,20.99-56.93-9.93-3.54-23.12-1.03-48.59-.96-71.79.11-39.55-1.6-79.45,0-118.73.87-21.46-3.2-52.25,25.71-56.15,18.48-2.5,23.01,6.79,33.19,19.24,2.8,3.42,5.99,7.53,8.07,11.41Z"/>
      <path class="cls-3" d="M2365.69,67.47c1.28,1.18,29.23,12.33,56.04,23.07,24.76,9.92,43.26,16.35,49.46,20.51,8.62,5.78,9,9.75,5.96,23.47-1.94,8.75-6.73,9.81-8.64,10.84-3.35,1.81-18.04,3.93-22.55,4.43-13.51,1.48-51.84,2.13-63.59-2.12-5.84-2.12-13.32-4.71-14.11-14.13-.7-8.33,7.51-15.19,12.37-17.02,11.85-4.49,24.55-1.6,35.37-4.6l.74-.2c1.2-.33,1.4-1.94.33-2.57-19.08-11.16-36.35-25.51-51.38-41.67"/>
      <path class="cls-2" d="M1914.73,262.11c.1-19.35,5.01-61.27-6.95-76.77-3.09-4-11.98-9.67-17.2-9.28-12.56.94-26.53,20.56-31.27,20.7-1.41.04-21.93-9.53-25.98-10.95-57.41-20.14-112.69-4.87-148.28,44.6-70.05,97.35,14.5,243.39,136.76,208.33,12.61-3.61,24.47-9.64,36.69-14.28,2.44-.02,3.58,3.78,5.26,5.34,14.69,13.62,37.13,23.79,47.89-.17,3.37-7.5,3.88-34.09,4.17-43.73,1.24-41.29-1.29-82.63-1.09-123.8ZM1861.14,329.34c-14.25,64.28-92.59,84.97-131.11,28.41-31.44-46.18-7.33-120.11,51.57-126.75,53.91-6.07,90.5,48.89,79.54,98.34Z"/>
      <path class="cls-2" d="M992.86,201.55c-1.45-10.53-10.87-23.89-22.26-24.72-12.05-.88-22.23,14.47-31.92,19.93-28.08-12.62-54.14-22.4-85.72-19.61-59.62,5.27-110.04,61.08-113.8,119.88-5.99,93.79,71.27,168.88,165.74,140.48,11.14-3.35,21.56-8.87,32.69-12.27,13.43,8.79,16.43,19.48,35.06,18.03,18.29-1.42,20.6-18.19,21.5-33.42,3.97-67.67-2.04-140.35-1.29-208.31ZM939.02,322.9c-13.76,96.06-144.54,86.95-148.81-9.86-1.72-38.94,29.39-77.99,68.75-82.01,51.05-5.21,86.9,44.11,80.06,91.87Z"/>
    </g>
  </g>
</svg>