<?xml version="1.0" encoding="UTF-8"?>
<svg id="Layer_1" xmlns="http://www.w3.org/2000/svg" version="1.1" viewBox="0 0 1944.24 1944.24">
  <!-- Generator: Adobe Illustrator 29.8.1, SVG Export Plug-In . SVG Version: 2.1.1 Build 2)  -->
  <defs>
    <style>
      .st0 {
        fill: #fff;
      }

      .st1 {
        fill: #fff;
      }

      .st2 {
        fill: #fff;
      }

      .st3 {
        fill: #fff;
      }

      .st4 {
        fill: #fff;
      }

      .st5 {
        fill: #fff;
      }

      .st6 {
        fill: #fff;
      }

      .st7 {
        fill: #fff;
      }

      .st8 {
        fill: #fff;
      }

      .st9 {
        fill: #ffffff;
      }

      .st10 {
        fill: #ffffff;
      }

      .st11 {
        fill: #ffffff;
      }

      .st12 {
        fill: #ffffff;
      }

      .st13 {
        fill: #ffffff;
      }

      .st14 {
        fill: #bb4e2b;
      }
    </style>
  </defs>
  <path class="st12" d="M348.15,1169.93c14.14-17.58,28.31-35.13,42.59-52.6,14.28-17.47,28.56-34.92,43.07-52.19,145.13-172.75,290.47-345.31,435.99-517.73,1.12-1.33,2.19-.96,3.28.67l5.09,1.99c125.93,109.15,322.18,12.02,307.9-155.95-14.75-173.52-240.2-230-337.33-88.64-3.31,6.28-7.35,11.65-12.13,16.12-.15.56-.3.98-.96.96l-1.38,1.62c-114.14-30.52-228.3-61.05-342.48-91.58l-.66-2.16c11.78-9.18,23.07-18.86,35.2-27.65C839.01-23.95,1274.94,40.3,1509.71,344.73c226.54,293.77,189.34,714.16-84.82,962.92-326.19,295.98-836.46,228.97-1076.73-137.72Z"/>
  <path class="st6" d="M491.14,230.44l344.51,92.13-.54,5.25c-35.36,70.71-21.74,159.57,35.68,214.55l2.28,4.76c.83.32.83.64,0,.96-.07.08-1.18-.21-1.93.68-174.67,206.76-348.69,414.1-522.99,621.17C152.89,871.93,208.21,451.1,491.14,230.44Z"/>
  <path class="st12" d="M712.34,1600.81l128.11,218.8v-218.8h25.91v270.62h-32.63c-.07-.89-.27-1.79-.75-2.56-46.89-74.95-87.17-155.87-134.37-230.34-.53-.84-.9-2.13-2.1-2.21l.95,235.11h-26.87v-270.62h41.74Z"/>
  <path class="st12" d="M1476.7,1628.64c21.33-29.77,61.73-37.18,96.31-32.49,38.3,5.19,64.85,29.73,76.43,66.07l-30.7,8.65c-6.89-37.45-50.4-54.66-84.66-45.79-43.63,11.3-53.14,60.95-8.42,78.88,48.63,19.49,128.01,12.25,132.45,85.39,4,65.78-56.51,92.82-113.75,86.88-46.99-4.88-78.95-32.34-93.58-76.75l30.69-6.72c6.86,24.92,24.61,44.47,49.71,51.54,29.84,8.41,78.38,5.12,89.48-29.93,20.35-64.23-75.08-63.27-113.52-79.43-40.39-16.97-55.78-66.34-32.37-103.42-1.64-.82-1-1.78,1.92-2.88Z"/>
  <path class="st12" d="M434.52,1662.22l-30.7,8.65c-6.27-37.74-52.28-55.39-86.14-45.36-43.29,12.83-50.5,61.4-6.24,78.71,47.47,18.56,125.43,12.56,131.6,82.4,6.79,76.92-73.72,102.59-136.14,85.28-35.54-9.86-59.63-38.26-71.02-72.44l30.69-6.72c8.64,30.72,32.25,50.62,63.96,54.57,30.63,3.81,70.24-3.43,76.88-38.99,5.45-29.2-12.48-44.56-38.14-52.53-43.8-13.6-104.59-12.92-117.75-67.46-12.96-53.72,27.06-90.16,77.89-93.32,49.93-3.11,89.92,18.36,105.12,67.21Z"/>
  <path class="st12" d="M490.18,1600.81l-.04,190.53c-2.23,76.98,124.6,73.54,121.96-2.88l-.04-187.65h27.83l.04,189.57c-2.09,63.09-49.21,92.47-108.94,85.83-51.73-5.75-71.82-38.36-74.43-87.75l.04-187.65h33.59Z"/>
  <path class="st12" d="M1474.78,1631.52l-75.81-.96v240.87h-33.59v-240.87h-75.81v-29.75h185.21c.26,8.77-.35,17.63,0,26.4.1,2.37-.68,3.13,1.92,1.43-.42.59-1.5,2.22-1.92,2.88Z"/>
  <path class="st10" d="M1181.13,676.67c2.77,2.86,6.22,4.98,10.34,6.35l.22,2.29c2.27,1.2,3.87,3.76,4.8,7.68.66-.11,1.23-.14,1.43.11,2.2,2.8,14.49,29.46,13.84,31.03-1.17,2.86-2.24,3.78-5.54,1.93-88.77-38.95-190.75-31.44-276.19,12.74-22.71-16.38-46.43-31.12-70.61-45.17l-2.63-2.56c-2.68.1-6.01-1.76-7.68-3.84-.67,0-1.01.32-.96.96,2.3.18,5.9,1.71,6.72,3.84,25.27,12.09,48.22,30.22,68.53,49.45l-5.76,4.83c-74.61,45.64-132.76,117.75-158.28,201.71-11.79,38.78-15.26,77.93-15.85,118.35-4.62,2.02-34.27-10.13-41.4-13.1-24.18-10.1-48.31-22.41-67.96-39.76-3.21-1.09-7.37-4.98-9.6-7.68-.83.02-1.15.34-.96.96,3.68,1.09,7.44,4.51,9.6,7.68,34.46,24.57,70.17,46.26,110.71,58.89,3.94,31.31,8.24,63.02,19.48,95.33,39.34,113.02,136.41,198.62,256.64,212.99,3.21.18,3.82,1.42,3.78,4.01-.02,1.47-13.45,12.8-14.71,13.72-13.99,10.2-30.89,22.51-46.89,29.01-1.77.72-3.73.72-5.62.62l-4.02.68c-2.5-1.39-4.81-.39-6.92,3.02-6.92,1.05-12.48,3.5-16.68,7.34-3.55-1.04-6.5-.24-8.85,2.39-232.82-57.68-366.56-303.07-285.03-531.18,79.15-221.45,329.28-329.4,546.06-234.61Z"/>
  <path class="st10" d="M873.08,548.08c.16-.19-.16-.77,0-.96l1.85-4.18c13.64-18.2,28.61-36.39,43.84-52.77l3.25.34,3.5-.96c76.6,21.38,141.11-64,96.32-131.6-27.82-41.99-87.5-50.72-126.78-19.67l-3.75.6c-1.28.14-2.55.25-3.83.22s-2.49-.07-3.65-.37c-15.98-4.08-32.2-8.51-47.85-12.94-.7-1.17-.49-2.57.63-4.19,62.48-114.74,218.76-132.64,305.66-34.56,71.81,81.04,58.25,207.05-26.92,272.51-72.56,55.78-175.35,50.33-242.27-11.48Z"/>
  <path class="st10" d="M1336.59,1293.72c1.47.3,1.34,1.17,0,1.92,1.5.36,2.04,2.63.96,3.84-99.37,126.11-260.46,181.88-417.45,142.99-.2-5.23,5.52-6.05,8.63-2.88-.26-7.22,13.38-6.34,16.12-7.89.68-.39,1.31-3.71,3.78-4.42,3.46-1,4.73,1.81,7.94,1.76-4.12,5.31-12.63,7.62-19.19,8.64l-.96.96h-.96c-2.84.93-2.52,1.25.96.96.48-1.16,1.74-1.52,1.92,0l1.92-.96,2.38-1.94c33.84-12.07,65.32-28.69,91.76-53.34,110.98,7.69,220.81-45.11,286.46-134.43,1.26-2.57,2.83-3.16,5.16-2.33,3.58,1.29,13.76,42.88,10.57,47.13Z"/>
  <path class="st0" d="M836.61,321.6c-.39,3.69-.03,2.32,2.24,3,17.35,5.19,35.1,9.16,52.46,14.28l-1.13,3.57c-46.04,42.55-29.76,124.06,29.39,145.21l2.45,2.84c-2.18-.09-2.56,1.34-3.66,2.57-15.61,17.48-30.15,36.14-45.28,54.05-62.28-56.66-76.81-150.25-37.43-224.56.19-.35.78-.62.96-.96Z"/>
  <path class="st10" d="M1339.47,1297.56c-1.3,1.94-2.62-1.04-.96-1.92-1.19-1.97-1.19-4.53,0-7.68-1.07-.93-1.56-2.08-1.67-3.45-1.19-15.87-2.78-29.09-7.41-44.24-.21-2.03-.04-3.38,2.36-3.17,36.39-55.31,62.46-121.46,64.19-189.28l1.07-2.65c.22-25.84-1.19-52.4-7.18-77.06-.3-2.01-.02-3.9.39-5.87.6-2.88,4.02-11.92,6.79-12.08,3.91-12.23,5.17-19.32,3.95-32.27-.1-1.07-.88-3.45.83-3.23,45.61,129.02,20.82,275.19-62.36,382.89Z"/>
  <path class="st10" d="M1395.13,936.73c1.48,2.67-1.4,11.66-4.8,11.52-.96.89-1.61,1.43-1.92,0-1.42-1.83-2.86-3.73-3.58-5.95-16.81-51.27-32.77-91.53-68.17-133.5-28.52-33.8-62.15-57.37-98.6-77.57-5.92-13.19-12.81-26.25-20.68-39.17l.07-1.96c-3.57-3.83-5.49-5.43-5.76-4.8-3.62-4.16-9.63-2.06-10.56-8.64,94.62,41.37,169.66,116.21,210.33,211.43,1.85,4.32,9.16,20.91,9.39,24.21.41,5.93-5.28,17.89-5.72,24.42Z"/>
  <path class="st13" d="M1338.51,1295.64c.05.81.04,1.66.96,1.92-.71.92-1.54,1.43-1.92,1.92-.12-1.2-.97-2.75-.96-3.84.31-2.55,1.19-2.44,1.92,0Z"/>
  <path class="st12" d="M1038.13,1727c18.6-5.43,35.45-17.82,42.25-36.45,15.98-43.72-13.96-85.77-59.04-89.75h-120.44v270.62l111.84.04c38.91-.99,72.31-20.78,78.85-61.26,6.44-39.87-14.81-72.65-53.47-83.21ZM933.54,1627.68c21.67.86,44.2-1.14,65.78-.04,32.37,1.66,59.16,16.82,50.87,53.83-6.82,30.42-31.68,34.22-58.6,35.45-19.27.88-38.77-.63-58.05,0v-89.25ZM1010.79,1841.68h-77.25v-98.84h82.05c11.1,0,27.23,10.28,33.52,19.26,23.44,33.47,4.54,79.58-38.32,79.58Z"/>
  <path class="st12" d="M1192.45,1595.34c-138.23,11.42-133.05,300.12,23.58,280.77,132.38-16.35,131.79-293.6-23.58-280.77ZM1221.22,1846.75c-114.05,31.48-123.39-212.66-26.87-223.6,107.69-12.2,105.26,201.97,26.87,223.6Z"/>
  <path class="st12" d="M1197.44,690.11c5.13,7.12,10.43,15.6,14.56,23.35,2.17,4.08,5.15,13.88,7.48,16.51,2.53,2.84,22.17,12.49,27.4,15.78,74.54,46.84,119.59,118.21,141.53,202.51.45.54,1.08.54,1.92,0,1.8-3.4,2.62-8.24,4.8-11.52,1.12-1.69,3.03-2.89,4.79-3.84-.38,2.42-.65,6.61-1.2,8.85-.65,2.63-3.83,4.08-1.67,8.42-.98,3.07-5.19,12.54-5.31,13.88-.67,7.52,4.58,29.52,5.3,39.39.48,6.6.94,15.47,1.02,22.02s-.77,13.1-1.01,19.72l-1.12.33c0-8.73-.26-17.48-.8-26.24l-1.41-3.13c-1.43-14.64-3.33-29.24-5.7-43.79l-3.47,4.1c10.32,78.55-17.14,161.82-69.53,222.17l16.47,34.47-.66,3.07c1.35-1.27,1.84-.74.96.96-.37.72-.56,2.14-.46,2.98.92,7.66,4.95,16.89,6.09,25.45,1,7.47,1.04,14.91,1.08,22.43-.13,2.64-.77,4.56-1.92,5.76-1.35-10.07-3.26-20.19-6.03-29.96-.42-1.5-5.01-17.06-6.43-16.11-64.65,90.23-177.26,145.9-289.14,137.4-27.17,25.49-59.14,42.79-94.73,53.56l-1.92.96c-.54.15-1.38-.15-1.92,0-1.13.19-1.43.17-.96-.96.29-.09.66.09.96,0l.96-.96c6.67-2.77,12.79-5.54,19.19-8.64,21.55-10.42,41.32-22.12,59.51-37.89l6.71-7.21c-147.73-16.7-257.03-136.1-277.2-280.84-.6-4.28-2.12-27.83-3.24-28.91-41.16-12.19-76.41-32.46-109.18-59.72-1.27-1.35-.74-1.84.96-.96,32.15,22.89,70.43,41.22,108.43,51.82-.97-29.37,1.35-58.59,7.19-87.34,20.15-99.07,85.63-185.81,172.25-236.54-21.19-17.69-43.64-34.92-67.16-49.42-1.08-1.22-.44-1.54,1.92-.96,26.13,13.51,49.96,28.18,73.4,46.02,86.34-45.57,190.1-51.75,279.74-11.48,1.25-1.24-12.04-28.94-13.43-32.62-1.99-3.2-3.06-6.92.96-2.88Z"/>
  <path class="st4" d="M634.13,1013.51l-.96.96c-3.11-2.58-6.53-4.87-9.6-7.68-1.27-1.35-.74-1.84.96-.96,3.7,1.52,6.74,5.64,9.6,7.68Z"/>
  <path class="st1" d="M856.77,691.06l-1.92.96c-2.16-1.33-4.46-2.38-6.72-3.84-1.27-1.35-.74-1.84.96-.96,2.71,1.27,5.04,2.48,7.68,3.84Z"/>
  <path class="st14" d="M1197.44,690.11l-1.91-.96c-.34.46.63,2.99.95,3.84-2.22-2.3-2.61-5.17-4.8-7.68l.48-1.91c1.98,2.05,3.63,4.42,5.28,6.71Z"/>
  <path class="st7" d="M624.53,1005.83l-.96.96c-1.9-1.74-4.12-3.2-5.74-5.29l6.7,4.33Z"/>
  <path class="st5" d="M849.09,687.23l-.96.96c-1.64-1.06-4.07-1.56-4.8-3.83,2.39-.39,4.13,2.11,5.76,2.87Z"/>
  <path class="st12" d="M922.02,490.5c-64.09-20.13-81.69-108.03-30.71-151.62,43.07-36.83,111.38-23.99,137.09,26.52,35.91,70.54-31.23,148.7-106.39,125.1Z"/>
  <path class="st11" d="M1030.2,310.31c18.62-3.87,21.88,21.66,7.05,25.27-18.64,4.54-22.03-22.16-7.05-25.27Z"/>
  <path class="st2" d="M935.46,1438.63l.96.96c-2.78.8-6.14,3.24-9.59,2.87-.52-3.02.93-1.45,2.37-1.9,2.09-.65,4.18-1.29,6.27-1.94Z"/>
  <path class="st9" d="M1338.51,1295.64h-1.92c0-.64-.05-1.29,0-1.92.06-.74,1.33-4.82,1.92-5.76.01,2.54-.14,5.15,0,7.68Z"/>
  <path class="st2" d="M940.26,1438.63l-1.92.96c.1-.03.84-.63,1.92-.96Z"/>
  <path class="st2" d="M936.42,1438.63c.25-.35.56-.8.96-.96-.17.42-.52.83-.96.96Z"/>
  <path class="st8" d="M1397.05,1045.17c.51,63.77-26.98,133.5-60.64,186.47-1.06,1.67-4.14,4.53-4.62,5.46l-.96-.96.76-3.48c19.25-31.42,36.02-63.11,46.66-98.6,11.31-37.71,13.55-69.39,15.12-108.18.09-2.3.9-4.5,1.76-6.61,1.89,7.34.81,15.91.92,23.59.02,1.24,1,2.2,1,2.32Z"/>
  <path class="st3" d="M1390.33,948.25c-.32.6-1.36,2.4-1.91,1.92-.11-.61.13-1.39,0-1.92h1.92Z"/>
  <path class="st10" d="M952.72,1079.72c7.26,84.01,61.68,164.61,144.92,188.1-13.91,41.05-36.57,80.12-67.87,110.17-151.21-14.08-266.57-149.91-270.88-299.23,63.14,16.3,130.4,14.92,193.84.96Z"/>
  <path class="st10" d="M951.72,1074.88c-8.49,1.06-17,2.77-25.5,3.76-55.86,6.53-113.89,5.33-168.35-9.1-2.49-112.53,48.6-225.41,137.81-293.98,7.71-5.93,16.61-12.27,24.89-17.33,3.74-2.29,10.77-8.01,14.47-5.79,4.55,2.73,16.01,14.35,20.59,18.75,10.11,9.71,20.77,20.82,30.23,31.19,16.07,17.62,31.14,36.28,45.44,55.37-14.4,15.82-28.28,32.05-39.62,50.28-31.26,50.28-44.6,107.56-39.96,166.85Z"/>
  <path class="st10" d="M1306.65,968.59c-1.17,13.79-1.09,27.71-1.74,41.55-1,21.37-2.72,42.88-3.87,64.27-.32,6.04-.65,42.68-2.5,44.76l-105.27,67.85-98.02-79.48c-.87-2.07-.62-4.96-.53-7.22,1.3-34.51,4.06-69.06,5.83-103.56.54-10.54-.25-23.36.92-33.63.28-2.45.8-5.16,2.92-6.67l100.39-65.62,3.66-1.15,98.2,78.91Z"/>
  <path class="st10" d="M1224.3,793.75c-64.5-13.68-127.24,9.96-177.02,49.93-1.73,1.39-10.75,10.44-12,9.57-20.08-31.53-45.32-61.49-72.45-87.35-6.64-6.33-14.37-11.88-21-18.13-.81-.76-.88-.66-.61-1.99,82.98-44.14,185.32-51.37,271.13-10.61,7.33,18.45,9.81,38.83,11.95,58.58Z"/>
  <path class="st10" d="M1306.83,1205.44c3.9,10.24,9.99,19.52,13.92,29.76.94,2.45,3.72,8.6,2.91,10.49-1.3,3.01-13.28,16.71-16.32,20.22-64.98,74.99-165.08,121.4-265.35,113.22-1.12-1.25,8.25-9.55,9.57-11.05,24.56-28.1,42.75-62.4,52.81-98.34,9.32,1.87,18.81,3.95,28.31,4.79,58.88,5.22,117.23-18.59,160.74-57.07,1.89-1.67,11.94-13.07,13.41-12.01Z"/>
  <path class="st10" d="M1395.13,1019.26c1.5,43.79-5.61,89.8-20.13,131.01-10.74,30.48-26.4,59.02-44.16,85.87l-18.03-37.74c27.15-31.46,47.38-67.53,59.55-107.39,10.19-33.39,13.44-65.13,12.26-100.1-.11-3.2-2.32-13.1-1.81-15.13.15-.61,6.16-7.68,6.56-7.38,3.05,16.72,5.18,33.84,5.77,50.86Z"/>
  <path class="st10" d="M1380.74,962.64c-13.21-77.74-68.79-149.27-147.7-167.07-.22-18.99-5.16-37.31-9.68-55.57,6.4,3.69,13.14,6.94,19.48,10.74,61.23,36.71,109.22,97.33,132.86,164.63,3.04,8.64,10.3,29.08,10.75,37.32.21,3.86-2.43,8.06-5.7,9.94Z"/>
  <path class="st10" d="M931.62,481.86l-4.21-1.49c-1.07-1.34,17.56-25.34,23.4-23.46l2.69-2.03c58.01-3.83,59.58-91.57,1.83-97.56l-2.6-2.12c-15.35-1.67-30.66-4.93-45.2-10.05-2.98-1.3-2.26-2.57.1-4.34,62.04-39.74,138.42,18.9,116.61,89.26-12.16,39.24-52.97,60.61-92.62,51.81Z"/>
  <path class="st0" d="M907.63,340.79c-1.66,2.12-.35,2.18,1.46,2.86,13.17,5.01,30.05,7.01,43.65,11.53l-2.87,1.83c-62.81-.63-64.48,96.25-1.83,97.97l2.78,1.92c-1.72,1.17-3.29,1.76-4.85,3.31-4.32,4.29-13.17,14.76-16.74,19.72-1.21,1.68,1.95.7,2.4,1.92-66.6-14.78-81.85-104.01-23.99-141.07Z"/>
  <path class="st12" d="M1400.88,929.05c-.33.65-1.63-.56-.94-1.91.33-.65,1.63.56.94,1.91Z"/>
  <path class="st12" d="M1201.08,954.29c53.39-5.03,76.1,61.01,66.13,104.51-8.82,38.46-44.42,73.38-85.77,55.63-64.38-27.64-51.68-153.43,19.64-160.14Z"/>
  <path class="st12" d="M952.73,355.19c63.73,3.44,62.41,100.42-1.92,101.72-68.86,1.39-67.46-105.46,1.92-101.72Z"/>
</svg>