<?xml version="1.0" encoding="UTF-8"?>
<svg id="Layer_1" xmlns="http://www.w3.org/2000/svg" version="1.1" viewBox="0 0 416 121">
  <!-- Generator: Adobe Illustrator 29.8.1, SVG Export Plug-In . SVG Version: 2.1.1 Build 2)  -->
  <defs>
    <style>
      .st0 {
        fill: #ffffff;
      }

      .st1 {
        fill: #ffffff;
      }

      .st2 {
        fill: #ffffff;
      }
    </style>
  </defs>
  <rect class="st1" x="129.09" y="10.31" width="277.89" height="100.39"/>
  <path class="st2" d="M151.77,73.79c.17,3.01.28,6.13.34,9.14.13,6.56-.11,13.14,0,19.7h-4.2s-.25-.23-.25-.25v-33.87h6.26l11.21,26.86,11.04-26.86h6.26v33.95l-4.29.17.16-29.17-5.52,13.51c-2.26,4.59-3.88,9.75-6.15,14.29-.78,1.56-1.82,2.06-3.03.5-3.58-9.35-8.36-18.47-11.5-27.97-.18-.5-.44-.6-.33,0Z"/>
  <path class="st2" d="M224.78,16.59l4.12.16-.16,15.49c1.58-1.51,3.38-2.92,5.57-3.41,6.72-1.52,10.08,2.18,10.42,8.6.27,5.16-.22,10.56,0,15.75h-4.12c-.19-4.92.26-10.03,0-14.92-.03-.68-.11-1.78-.21-2.42-.86-5.49-6.84-4.37-10.01-1.53-1.31,1.17-1.38,1.7-1.49,3.46-.3,5.03.24,10.36,0,15.42l-4.12-.17V16.59Z"/>
  <path class="st2" d="M204.6,78.24l.05,2.89c3.09-2.54,6.24-4.14,10.44-3.33,5.85,1.13,6.07,6.15,6.24,11.07.15,4.5.03,13.77.03,13.77h-4.07c-.3-.04-.26-.4-.26-.57.01-10.29.37-11.96-.23-17.57-.19-1.75-1.67-2.94-3.38-3.21-3.55-.57-6.23,1.66-8.39,4.17.15,8.28.17,10.07.15,16.92,0,.27.03.27-.59.27h-3.54v-24.39h3.55Z"/>
  <path class="st2" d="M375.26,29.12l7.25,18.46,7.91-18.46h3.96l-14.52,35.17c-.34.54-1.17.43-1.39.43h-2.88l5.03-12.22-9.41-23.05c-.1-.26.16-.34.18-.34h3.87Z"/>
  <path class="st2" d="M272.08,53.18h-4.12v-16.23c0-.1-.16-1.09-.2-1.28-.33-1.59-1.18-2.99-2.79-3.47-3.55-1.06-6.48,1.3-8.87,3.6v17.39h-3.96v-24.06h3.74l.05,3.13c1.77-1.6,4.03-3.39,6.51-3.62,3.05-.29,6.04.18,7.96,2.75,1.58,2.11,1.59,4.86,1.68,7.38.18,4.8-.14,9.63,0,14.43Z"/>
  <path class="st2" d="M174.68,19.56v3.79h-11.37v29.83h-4.12v-29.83h-11.29s-.25-.23-.25-.25v-3.54h27.03Z"/>
  <path class="st2" d="M260.54,99.17h14.34v3.46l-20.11-.17c-.28-.26,1.18-3.63,1.61-4.07l12.4-16.53h-13.51l.16-3.63h18.54c.31,0,.06,1.23,0,1.49-.15.84-.42,1.55-.85,2.29-3.21,5.54-8.97,10.96-12.33,16.51-.13.21-.32.36-.27.64Z"/>
  <path class="st2" d="M195.11,76.09v27.36c-1.56-.26-3.48-.97-4.69-1.98-2.37-1.96-2.45-4.28-2.56-7.16-.25-6.01.2-12.19,0-18.22h7.25Z"/>
  <path class="st2" d="M218.68,52.52c-7.09,2.41-15.33,1.35-17.75-6.72s1.78-17.05,10.92-17.34c1.38-.04,4.79.41,5.9,1.18,1.34.92,1.06,2.64.77,3.43-3.07-.58-6.33-1.69-9.39-.41-5.83,2.43-6.14,13.77-.44,16.59,3.4,1.68,6.51.52,10-.03v3.3Z"/>
  <polygon class="st2" points="311.31 16.59 311.31 53.18 307.35 53.18 307.35 16.76 311.31 16.59"/>
  <polygon class="st2" points="195.28 68.18 195.28 74.94 187.86 75.1 187.86 68.18 195.28 68.18"/>
  <path class="st0" d="M152.1,73.79c-.19-.35-.37-.55-.33,0,0-.05-.41-.98-.08-.99.31.26.31.67.41.99Z"/>
  <path class="st1" d="M103.64,34.23l.16,61.48c-6.6-.39-12.17-4.23-13.93-10.71-.18-.68-.58-2.09-.58-2.72v-36.01h-23.9v49.44c-7.27-.32-13.79-5.61-14.35-13.1-.84-11.31.78-23.55-.17-34.94.37-4.06-.47-8.91,0-12.87.02-.17.08-.57.26-.57h52.49Z"/>
  <path class="st1" d="M31.12,19.73l-.16,14.5h16.56s.25.23.25.25v11.7l-16.81.25v49.28c-7.01-.4-12.8-4.82-14.13-11.83-.18-.96-.21-1.95-.38-2.91.09-20.32-.16-40.67.16-60.97.02-.07.54-.27.59-.27h13.93Z"/>
  <path class="st2" d="M366.86,29.69c.04-.17-.12-.57-.26-.57h-3.61l-.02,2.31c-1.63-.9-2.91-2.4-4.85-2.73-14.52-2.47-17.26,20.86-5.81,24.44,3.78,1.18,6.98.37,10.17-1.77.13-.08.27-.35.41-.08-.47,3.26.12,7.11-3.08,9.12-3.72,2.33-8.9,1.24-12.91.36v3.46c4.28,1.16,8.61,1.77,12.9.29,4.79-1.65,6.77-5.15,7.05-10.09.45-8.09-.36-16.6,0-24.74ZM362.74,46.02c-.07,1.03-.05,1.78-.85,2.45-3.48,2.9-9.55,2.5-11.48-2-2-4.67-1.09-13.77,5.2-14.5,2.07-.24,4.29.67,5.95,1.86.46.33,1.15.71,1.18,1.3-.19,3.57.23,7.35,0,10.89Z"/>
  <path class="st2" d="M249.05,65.58l-4-.03v14.67l-2.25-1.45c-18.87-7.94-21.18,27.88-2.82,24.31,2.24-.44,3.68-1.54,5.4-2.92l.1,2.58c1.07-.04,2.71-.15,3.69-.28v-36.75c-.01-.14-.03-.13-.12-.13ZM245.22,93.16c-.03.8-.07,2.23-.18,2.95-.25,1.6-2.98,3.13-4.43,3.48-9.65,2.31-11.31-11.74-6.52-16.58,3.27-3.31,7.73-1.68,11.1.54-.04,3.19.17,6.43.04,9.62Z"/>
  <path class="st2" d="M182.55,49.18c-3.01-1.4-3.74-4.12-4.09-7.2h16.98c.26-2.97.16-5.65-1.29-8.02-2.38-3.89-5.87-5.98-10.28-5.28-7.4,1.18-10.11,8.61-9.17,15.34,1.43,10.24,11.37,10.88,19.59,8.51v-3.3c-3.9.58-7.96,1.72-11.74-.05ZM185.47,31.91c3.96,0,5.16,3.3,5.85,6.6h-12.85c1.11-3.43,2.91-6.6,7-6.6Z"/>
  <path class="st2" d="M329.08,28.5c-15.11.29-15.18,24.02-1.2,25.17,16.88,1.39,17.04-25.47,1.2-25.17ZM330.66,50.2c-11.19,1.89-11.42-17.06-2.75-18.24,10.83-1.47,11.11,16.82,2.75,18.24Z"/>
  <path class="st2" d="M300.31,36.24c-1.88-5.88-6.82-8.2-12.77-7.57-13.21,1.4-13.27,26.29,3.08,25,8.76-.69,12.12-9.86,9.69-17.43ZM288.03,50.17c-8.27-1.87-7.51-17.26.33-18.2,11.87-1.43,10.9,20.75-.33,18.2Z"/>
</svg>