<?xml version="1.0" encoding="UTF-8"?>
<svg id="Layer_1" xmlns="http://www.w3.org/2000/svg" version="1.1" viewBox="0 0 450 101.76">
  <!-- Generator: Adobe Illustrator 29.8.1, SVG Export Plug-In . SVG Version: 2.1.1 Build 2)  -->
  <defs>
    <style>
      .st0 {
        fill: #fff;
      }

      .st1 {
        fill: #fff;
      }
    </style>
  </defs>
  <path class="st0" d="M51.24.12l14.28,8.62L15.51,37.36l-1.07.35c-4.25-2.56-9.01-4.8-13.16-7.47-.28-.18-1.41-.76-1.13-1.15L50.76.12h.48Z"/>
  <path class="st0" d="M79.3,46.33l-51.02,29.18c-1.63-1.15-14.16-7.68-14.47-8.47-.18-.46,1.29-.75,1.52-1.12l49.26-28.16,14.07,7.89.64.68Z"/>
  <path class="st1" d="M266.4,76.5h-8.88v-28.13c0-.34-1.53-2.07-1.92-2.4-3.63-3.08-9.75-3.24-13.75-.79-.89.55-3.29,2.67-3.29,3.66v27.65h-8.64v-39.75h8.16v4.07c7.03-7.93,20.72-6.57,26.58,2.08.35.52,1.72,2.88,1.72,3.31v30.29Z"/>
  <polygon class="st1" points="148.86 24.3 148.86 33.16 130.63 33.16 130.63 76.5 121.52 76.5 121.52 33.16 103.05 33.16 103.05 24.3 148.86 24.3"/>
  <path class="st1" d="M225.62,46.81l-8.01,3.13c-2.98-6.2-10.43-8.16-16.5-5.21-1.98.96-4.71,3.38-5.17,5.61-.28,1.38-.28,10.97,0,12.34.36,1.74,2.6,4.09,4.1,5.01,5.26,3.21,12.23,2.47,16.23-2.33.46-.55,1-1.99,1.57-2.04,1.31-.12,6.05,2.84,7.79,2.89-5.15,13.64-26.22,14.98-35.14,4.55-1.09-1.28-3.04-4.23-3.24-5.86-.33-2.68-.39-14.73.11-17.14.29-1.4,1.94-3.9,2.89-5.02,9.07-10.76,29.75-9.62,35.38,4.07Z"/>
  <polygon class="st1" points="320.85 29.21 329.49 24.54 329.25 36.75 338.84 36.75 338.84 43.94 329.25 43.94 329.49 76.5 320.85 76.5 320.85 43.94 313.66 43.94 313.66 36.75 320.85 36.75 320.85 29.21"/>
  <polygon class="st0" points="58.91 59.98 58.91 101.64 57.97 101.51 44.32 93.7 44.26 68.47 58.91 59.98"/>
  <path class="st1" d="M351.08,36.75v5.27l9.28-5.22,7.27,3.78c.29.39-.84.96-1.13,1.15-4.69,3.02-10.11,5.37-14.7,8.55v26.22h-8.64v-39.75h7.92Z"/>
  <polygon class="st0" points="44.52 47.53 29.89 55.67 29.89 31.13 44.52 22.63 44.52 47.53"/>
  <path class="st1" d="M449.9,59.5v-11.49c-3.94-9.59-13.74-13.85-23.76-12.1-5.88,1.03-13.18,5.74-14.87,11.73-.6,2.14-.5,14.11-.24,16.79.16,1.67,1.74,4.29,2.79,5.59,9.04,11.28,29.15,10.09,36.08-2.85v-.96c-.06-.29-.1-.45-.31-.63-.3-.26-7.04-2.79-7.41-2.64-.08.03-.17.05-.27.06-4.25,8.46-17.5,8.83-21.72.21h-.52c.6-.33.74-2.29.37-3.23h29.69l.17-.48ZM441.27,52.56h-21.59c-.87-4.84,4.7-8.9,9-9.34,5.8-.58,13.13,2.67,12.59,9.34Z"/>
  <path class="st1" d="M398.96,63.31c-3.46,7.89-15.8,8.93-21.01,2.29-.24-.31-1.45-2.21-1.45-2.39v-3.71h30.22v-11.37c0-.36-1.71-3.39-2.06-3.93-7.16-10.91-24.79-11.5-33.32-1.94-1.11,1.24-3.15,4.32-3.42,5.93-.42,2.49-.43,14.16-.04,16.69.22,1.48,2.1,4.35,3.1,5.53,9.26,11.02,29.64,9.52,35.96-3.84l-7.98-3.25ZM385.5,43.22c5.8-.58,13.13,2.67,12.59,9.34h-21.59c-.87-4.84,4.7-8.9,9-9.34Z"/>
  <path class="st1" d="M175.17,63.36c-1.63,2.39-3.22,4.39-5.99,5.53-6.94,2.83-17.63-.61-16.71-9.38h30.22v-11.61c0-.68-2.31-4.32-2.88-5.02-7.99-9.8-24.63-9.75-32.74-.13-1.21,1.44-2.84,3.98-3.01,5.86-.47,5.24.36,11.19.02,16.52,4.54,12.2,20.65,15.75,31.39,9.57,3.07-1.77,6.37-5.04,7.45-8.47l-7.75-2.86ZM162.17,43.21c5.68-.38,12.5,2.92,12.12,9.35h-21.83c-.57-5.24,4.97-9.03,9.7-9.35Z"/>
  <path class="st1" d="M311.72,48.15c-.31-2.23-3.22-5.84-4.9-7.32-4.73-4.15-11.47-5.75-17.67-5.2-6.4.57-12.93,4.07-16.22,9.67-.42.72-1.15,2.02-1.25,2.82-.64,5.19.47,11.66.02,16.99,6.41,16.72,33.93,16.7,40.05-.22-.51-5.22.67-11.68-.03-16.75ZM303.11,62.02c-.43,4.51-6.88,7.61-10.93,7.77-4.03.16-10.46-2.65-11.68-6.77-.45-1.53-.39-10.09-.2-12.04.37-3.83,6.05-7.06,9.55-7.46,4.44-.51,12.63,2.09,13.25,7.23.3,2.48.25,8.72,0,11.27Z"/>
</svg>