<?xml version="1.0" encoding="utf-8"?>
<!-- Generator: Adobe Illustrator 27.8.0, SVG Export Plug-In . SVG Version: 6.00 Build 0)  -->
<svg version="1.1" id="Layer_1" xmlns="http://www.w3.org/2000/svg" xmlns:xlink="http://www.w3.org/1999/xlink" x="0px" y="0px"
	 viewBox="0 0 1335.4 473.5" style="enable-background:new 0 0 1335.4 473.5;" xml:space="preserve">
<style type="text/css">
	.st0{fill:#fff;}
	.st1{fill:#fff;}
	.st2{fill:#fff;}
	.st3{fill:#fff;}
	.st4{fill:#fff;}
	.st5{fill:#fff;}
	.st6{fill:#fff;}
	.st7{fill:#fff;}
	.st8{fill:#fff;}
	.st9{fill:#fff;}
	.st10{fill:#fff;}
	.st11{fill:#fff;}
	.st12{fill:#fff;}
	.st13{fill:#fff;}
</style>
<g>
	<path class="st0" d="M667.8,428.4c-184.8,0-369.6,0-554.4,0.1c-4.3,0-5.3-1-5.3-5.3c0.1-123,0.1-245.9,0-368.9
		c0-3.9,0.8-4.7,4.7-4.7c370,0.1,740,0.1,1110,0c3.9,0,4.7,0.8,4.7,4.7c-0.1,123.2-0.1,246.3,0,369.5c0,3.9-0.8,4.7-4.7,4.7
		C1037.8,428.4,852.8,428.4,667.8,428.4z"/>
	<path class="st1" d="M411.2,321.3c-3.4,2.9-6.5,5.8-9.8,8.3c-20.9,16.6-50,16.6-68.2-0.2c-10.9-10-16.2-23.1-18.8-37.3
		c-3.7-19.9-3.5-39.6,3.7-58.9c11.5-30.7,39.8-46.6,70.4-39.6c7.4,1.7,13.6,5.8,19.7,10.3c1.8-1.6,0.9-3.4,0.9-5
		c0.1-21.5,0.1-43,0-64.4c0-3.7,0.9-5.8,4.6-7.3c10.1-4.1,20.1-8.5,30-13.1c3.9-1.8,4.5-0.7,4.4,3c-0.1,21.1-0.1,42.2-0.1,63.3
		c0,51-0.1,102,0.1,153.1c0,5.5-1.6,6.8-6.7,6.4c-5.3-0.4-10.8-0.1-16.1-0.1c-7.2-0.1-9.6-1.8-11.5-8.7
		C413,328,412.2,324.9,411.2,321.3z"/>
	<path class="st2" d="M515.4,237.4c-0.3,10,0.9,19.2,4,28.2c10.1,29.8,34.6,44.7,65.9,40.4c11.2-1.5,21-5.6,29.6-13
		c6.3-5.4,10-5,15.8,1c4.1,4.3,7.9,8.9,12.2,13c2.6,2.4,1.8,3.9-0.1,6.1c-13.2,15-29.9,23.7-49.5,26.9c-23.3,3.9-46.1,2.7-67.6-7.7
		c-31.8-15.4-47.6-42.3-52.6-76.1c-3.5-23.6-1.1-46.8,9.5-68.4c20-40.8,60-57.7,102.2-53.6c20.4,2,38.7,9.1,54.3,22.7
		c2.9,2.6,4,4.4,1,7.8c-3.6,4-6.4,8.6-9.6,12.9c-6.3,8.5-10.6,9.4-19.3,3.5c-10.6-7.1-22-11.6-34.9-11.8
		c-32.1-0.3-54.4,18.5-59.4,50.2C515.7,225.7,515,231.8,515.4,237.4z"/>
	<path class="st2" d="M702.4,114c0,31.8,0,62.6,0,93.7c2.6,0,3.7-2.1,5.3-3.2c18.7-13.8,44.1-15.9,61.8-5
		c16.5,10.3,22.3,26.5,22.6,44.7c0.6,30.3,0.1,60.6,0.2,90.9c0,3.8-1,4.9-4.8,4.8c-9.8-0.3-19.6-0.3-29.4,0c-4.2,0.1-5-1.2-5-5.1
		c0.2-29,0.1-57.9,0.1-86.9c0-20.7-13.9-30.3-33.5-23.3c-4.9,1.8-9.2,4.6-13.4,7.8c-2.8,2.1-4,4.5-4,8.2c0.2,31.3,0,62.5,0.2,93.8
		c0,4.7-1.3,5.7-5.7,5.6c-9.8-0.3-19.6-0.2-29.4,0c-3.1,0.1-4.3-0.6-4.3-4c0.1-66.9,0.1-133.9,0-200.8c0-2.2,0.2-3.9,2.7-4.9
		C677.9,124.9,689.7,119.6,702.4,114z"/>
	<path class="st2" d="M1030.3,266.4c0.5-19.5,5.2-37.7,19-52.2c17.1-18,38.8-23.2,62.6-21.1c43.2,3.8,66.5,36.1,64.3,79.4
		c-1.2,23.1-9.2,43-28.8,56.9c-25.5,18-67.2,16.9-91.4-2.7c-17.1-13.8-24.1-32.6-25.4-54C1030.5,270.6,1030.4,268.5,1030.3,266.4z"
		/>
	<path class="st1" d="M251.5,323.6c-3.6,2.8-6.5,5.5-9.7,7.7c-17,11.8-35.6,14.5-54.7,6.6c-19.2-8-27.2-24.7-27.9-44.1
		c-1-31.6-0.3-63.3-0.5-94.9c0-3.5,1.4-4,4.4-4c10,0.1,20,0.3,30,0c4.3-0.1,5,1.5,4.9,5.3c-0.1,28.6-0.1,57.1-0.1,85.7
		c0,23.1,16.4,33,37.3,22.5c0.9-0.4,1.7-0.9,2.5-1.4c7.6-4,11.6-9.1,11.3-18.9c-0.9-28.9-0.2-57.9-0.5-86.9
		c-0.1-5.5,1.7-6.7,6.7-6.4c9.2,0.4,18.5,0.3,27.7,0c3.4-0.1,4.7,0.8,4.7,4.4c-0.1,45.4-0.1,90.9,0,136.3c0,3.2-0.8,4.4-4.2,4.2
		c-5.8-0.3-11.5-0.1-17.3-0.1c-9,0-10.9-1.4-13.2-10.2C252.6,327.9,252.2,326.3,251.5,323.6z"/>
	<path class="st2" d="M902.4,323c-2.6,2.1-4.9,3.9-7.1,5.6c-17,13.2-36,16.6-56.5,11c-14-3.8-22.7-13.4-25.4-27.7
		c-2.8-14.9,0.9-27.8,13.3-37.4c13.2-10.2,28.8-14.1,44.9-16.4c7.8-1.1,15.7-1.6,23.5-2.1c2.8-0.2,3.7-1.1,3.4-3.7
		c-0.1-0.9,0-1.9,0-2.9c0.4-26.6-17-30-35-25.1c-5.8,1.6-10.9,4.8-16.1,7.5c-9.8,5.1-16.8,3-22.2-6.4c-6.4-11.1-6.4-11.1,4.3-18.3
		c18.7-12.5,39.5-16.8,61.5-14.4c26.2,2.9,44.7,23.9,45.4,51.9c0.7,30.5,0.1,61,0.3,91.5c0,3.2-1.2,3.8-4,3.7
		c-4.4-0.2-8.8,0-13.3-0.1c-9.4,0-11.8-1.8-14.7-10.5C904,327.4,903.3,325.5,902.4,323z"/>
	<path class="st2" d="M1006.1,225.8c0,36.2-0.1,72.5,0.1,108.7c0,4.4-1.2,5.5-5.4,5.3c-9.4-0.3-18.8-0.3-28.3,0
		c-4.4,0.2-5.8-0.9-5.8-5.6c0.2-25.3,0.1-50.6,0.1-76c0-41.2,0.1-82.5-0.1-123.7c0-4.3,1.1-6.4,5.2-8.1c9.4-3.8,18.6-8.2,27.9-12.2
		c6.2-2.7,6.2-2.7,6.2,3.9C1006.1,154.1,1006.1,190,1006.1,225.8z"/>
	<path class="st3" d="M920.6,381.9c-0.1,12.7-8.9,22.2-19.6,21.3c-3.7-0.3-6.6-1.8-8.8-4.7c-7.5-9.8-0.5-28.6,11.6-31.2
		C913.7,365.2,920.7,371.2,920.6,381.9z"/>
	<path class="st4" d="M837.5,403.3c-7.4-0.1-11.5-3.2-13.3-9.6c-3.4-12.1,5-25.7,16.6-26.6c5.7-0.5,10.5,2.1,11.5,6.4
		c1.1,4.7-1.4,8.7-7,10.9c-3.9,1.5-8.1,2.5-12.3,2.7c-2.5,0.1-3.2,1.2-2.8,3.7c0.7,5.6,4.6,8.5,10.1,7.3c2.3-0.5,4.3-1.6,6.1-3.1
		c1.5-1.3,3-1.8,4.4,0.1c1.5,1.9-0.4,2.7-1.4,3.6C845.8,401.8,841.7,403.6,837.5,403.3z"/>
	<path class="st3" d="M1002.2,403.3c-8.3,0-12.8-4-13.8-11.6c-1.6-12.5,6-23.7,16.8-24.6c6.2-0.5,10.8,2.1,11.7,6.8
		c0.9,4.6-1.7,8.6-7.6,10.6c-3.8,1.3-7.8,2.1-11.8,2.5c-3.1,0.3-3.3,1.7-2.9,4.2c0.9,5.2,4.8,8,10,6.9c2.5-0.5,4.6-1.9,6.6-3.4
		c1.3-1.1,2.7-1.4,4,0.1c1.7,1.8,0,2.7-1.1,3.7C1010.4,401.5,1006.4,403.6,1002.2,403.3z"/>
	<path class="st3" d="M1123.4,388.1c0.3-11.7,7.8-20.7,17.8-21.1c4.9-0.2,9.5,1.2,10.8,6.5c1.4,5.4-1.8,8.7-6.6,10.6
		c-3.9,1.6-8,2.6-12.3,2.9c-3,0.2-4,1.2-3.3,4.3c1.4,6.2,6.6,8.7,12.8,5.7c1.5-0.7,2.9-1.9,4.3-2.8c1.3-0.8,2.5-0.5,3.5,0.7
		c1.1,1.3,0.3,1.9-0.5,2.9c-3.9,4.5-12.8,6.8-18.5,4.7C1126,400.5,1123.2,395.4,1123.4,388.1z"/>
	<path class="st3" d="M688.6,388.5c0-11.7,7.3-20.8,17.3-21.5c5.8-0.4,10.2,2.2,11.3,6.6c1.1,4.4-1.7,8.8-7.4,10.8
		c-3.1,1.1-6.3,1.5-9.4,2.5c-2,0.6-5.8-1.4-5.6,2.9c0.2,3.5,1.2,6.8,5.3,8.1c3.2,1,6,0.2,8.8-1.4c1.2-0.7,2.2-1.6,3.3-2.2
		c1.4-0.8,2.5-0.4,3.5,0.9c1,1.3,0.1,2-0.6,2.9c-4,4.6-12.9,6.7-18.6,4.5C691.1,400.4,688.5,395.8,688.6,388.5z"/>
	<path class="st4" d="M887.3,352.3c1.3,0.6,4-1.2,4.2,2c0.2,2.7-1.8,2.9-3.9,2.9c-2.8,0-4.6,1.6-5.9,3.9c-2.5,4.8-1.5,6.5,3.8,6.9
		c1.4,0.1,3.4-0.6,3.3,1.9c-0.1,2.4-1.3,3.5-3.7,3c-5.3-1.1-5.7,2.3-6.1,6.2c-1,8.9-2.3,17.8-3.6,26.7c-0.2,1.5-0.6,3.1-1.4,4.3
		c-0.9,1.5-2.7,1.4-4.2,0.9c-1.6-0.5-0.8-1.9-0.7-2.9c1.2-9.9,2.5-19.7,3.6-29.6c0.3-2.7,1.6-5.4-2.8-6.6c-2.2-0.6-2.1-3.7,0.5-3.8
		c3.5-0.2,3.6-2.1,4.1-4.7C876.2,356.2,880.6,352.4,887.3,352.3z"/>
	<path class="st4" d="M758.9,392.6c3.5-7.4,7.1-14.8,10.4-22.3c1.6-3.7,4.3-3,7.8-2.6c-5.7,11.3-11.2,22.2-16.7,33.3
		c-1,2-2.6,1.9-4.3,1.9c-2,0.1-2.5-1.3-2.9-2.9c-2.7-10.7-5.5-21.4-8.3-32.1c4.5-1.6,7-0.5,7.8,4.3c1.1,6.4,2.7,12.7,4.1,19
		C757.3,392.1,757.2,393.8,758.9,392.6z"/>
	<path class="st4" d="M1057.4,394.3c4-8.2,7.6-15.1,10.7-22.2c1.6-3.7,3.6-5.7,8.6-4.1c-3.9,7.8-7.8,15.5-11.7,23.3
		c-1.5,3.1-3.2,6.1-4.6,9.3c-1,2.3-2.6,2.4-4.6,2.5c-2.5,0-2.6-1.8-3-3.4c-2.4-9.3-4.9-18.5-7.2-27.8c-0.3-1.4-2.5-3.8,1.1-4.3
		c2.3-0.3,4.6-0.4,5.3,2.9C1053.5,377.8,1055.4,385.3,1057.4,394.3z"/>
	<path class="st4" d="M1164.3,403.3c-3.6,0.2-6.3-0.5-8.8-2.3c-1.3-1-2.4-1.9-1-3.7c1.1-1.6,2.4-2,3.9-0.9c2.4,1.9,5.1,2.7,8.1,2.1
		c3-0.6,4.8-2.5,5.3-5.3c0.5-2.7-1.6-4.1-3.8-5.1c-1-0.5-2.2-0.8-3.2-1.2c-4.1-1.6-7.8-3.5-7.5-8.8c0.4-5.4,3.4-8.9,8.4-10.5
		c3.7-1.2,7.6-1.2,11.1,0.9c1.2,0.7,3.8,1,2.7,3.5c-1,2.2-2.6,2.6-4.6,1.1c-2.2-1.6-4.7-1.5-7.2-1.1c-2.2,0.4-3.9,1.8-4.4,4
		c-0.6,2.5,1.1,3.9,3.1,4.9c1,0.5,2.1,1,3.2,1.4c5.2,1.7,9.1,4.4,8.1,10.7c-0.8,5.5-5.7,9.7-11.6,10.3
		C1165.1,403.3,1164.4,403.3,1164.3,403.3z"/>
	<path class="st4" d="M969.7,403.3c-2.5,0.1-5.3-0.3-7.7-2.2c-1.1-0.9-2.9-1.5-1.6-3.6c1.1-1.8,2.5-2.4,4.3-1.1
		c2.3,1.7,4.7,2.5,7.5,2.1c3-0.5,5-2.2,5.6-5c0.7-3.1-1.5-4.5-3.9-5.5c-1-0.5-2.2-0.8-3.2-1.2c-3.9-1.5-7.5-3.3-7.3-8.4
		c0.2-5.2,2.8-8.8,7.5-10.5c4.5-1.7,9-1.6,13.2,1.2c1,0.6,2.7,1.2,1.5,3c-0.9,1.3-1.9,2.6-3.7,1.4c-2.4-1.6-4.9-2-7.7-1.6
		c-2.6,0.4-4.3,1.9-4.8,4.3c-0.6,2.6,1.3,3.8,3.3,4.8c0.7,0.4,1.4,0.6,2.1,0.9c7.9,3.3,9.9,5.9,9,11.2
		C982.6,399.2,977.2,403.3,969.7,403.3z"/>
	<path class="st4" d="M807.3,403.3c-7.4-0.1-11.2-3.1-12.8-9.8c-3-12.3,5-25.3,16.3-26.4c3.4-0.3,6.5,0.2,9.2,2.3
		c1.1,0.9,2.6,1.9,1.4,3.7c-1,1.5-2.3,2.1-3.9,1c-5.1-3.6-9.4-2.1-13.1,2.3c-4,4.7-5.2,14.3-2.4,18.4c2.8,4,6.6,4.2,10.6,2.2
		c1.4-0.7,2.5-1.8,3.8-2.6c1.1-0.8,2.1-0.6,3.1,0.4c1.2,1.3,0.8,2.3-0.3,3.4C815.5,401.5,811.6,403.7,807.3,403.3z"/>
	<path class="st4" d="M670.3,403.4c-2.8,0.1-5.4-0.4-7.7-2c-1.4-0.9-3.2-1.7-1.7-4c1.2-1.8,2.6-2.1,4.3-0.8c2.1,1.6,4.4,2.3,7,1.9
		c3.1-0.4,5.4-2.1,5.9-5.3c0.5-3.1-1.7-4.4-4.2-5.4c-0.5-0.2-1-0.5-1.6-0.7c-5.2-1.5-9.4-3.8-8.5-10.3c0.8-5.7,5.8-9.8,12.3-10
		c2.9-0.1,5.7,0.4,8.2,2.1c1.1,0.7,2.6,1.4,1.5,3.1c-0.8,1.3-1.8,2.7-3.7,1.4c-2.4-1.5-5-2-7.7-1.5c-2.5,0.4-4.3,1.7-4.8,4.3
		c-0.5,2.6,1.3,3.8,3.2,4.8c1,0.5,2.1,0.9,3.2,1.3c5,1.7,8.5,4.4,7.8,10.4c-0.6,4.9-4.9,9.4-10.2,10.3
		C672.6,403.3,671.5,403.3,670.3,403.4z"/>
	<path class="st4" d="M1107,403.3c-7.2-0.1-11-3-12.8-9.3c-3.5-12.4,5.2-26.4,16.8-27.1c3.3-0.2,6.5,0.5,9,2.9c1,1,2,1.9,0.8,3.3
		c-0.9,1.1-1.9,2.2-3.4,1.2c-4.7-3.3-9.1-2.9-12.8,1.3c-4.6,5.1-5.6,11.4-3.9,17.7c1.1,4,4.6,5.6,8.7,4.6c1.8-0.4,3.4-1.6,5.1-2.6
		c1.4-0.9,2.7-2.5,4.4-0.6c2.1,2.4-0.5,3.4-1.7,4.5C1114.3,402.2,1110.5,403.5,1107,403.3z"/>
	<path class="st4" d="M934.6,373.6c3.3-3,5.3-6.4,9.5-6.3c1.4,0,3.4-0.4,3,2.1c-0.3,1.5,0.5,4.2-2,4.1c-9.1-0.4-10.3,6.6-12.1,12.7
		c-1.2,4-1.4,8.3-1.8,12.5c-0.3,2.8-0.7,4.7-4.3,4.3c-3.9-0.4-2.1-3.1-1.9-4.7c0.9-8.6,1.8-17.1,3.1-25.7c0.3-1.7-1.4-5,2.6-5.2
		C935.4,367.1,933.7,370.9,934.6,373.6z"/>
	<path class="st5" d="M730.2,374.9c3.3-4.1,5.5-7.7,10.2-7.6c1.1,0,3.2-0.5,2.9,1.6c-0.3,1.6,0.7,4.6-1.9,4.6
		c-10-0.1-10.7,7.7-12.4,14.3c-1,3.7-1,7.6-1.4,11.4c-0.2,2.7-1.2,4.1-4.3,3.9c-3.9-0.2-2.3-2.9-2.2-4.6c1-9.3,2.2-18.6,3.3-27.9
		c0.2-1.9,0.6-3.2,3-3.2c2.3,0,3.1,1,2.9,3.2C730.2,371.6,730.2,372.7,730.2,374.9z"/>
	<path class="st5" d="M1031,374.1c1.7-3.1,3.8-5.9,7.5-6.6c1.5-0.3,4.2-1.5,4.4,1.6c0.1,1.9,0.7,4.8-3.3,4.4
		c-4.2-0.4-6.4,2.6-8.3,5.9c-3.4,6.1-3.1,12.9-4.1,19.5c-0.4,2.4-0.4,4.4-3.9,4.2c-4.3-0.3-2.5-3.2-2.3-5c0.9-9.1,2.2-18.2,3.2-27.3
		c0.2-1.7-0.1-3.5,2.6-3.4c2.5,0.1,3.6,0.9,3.2,3.5C1029.8,372.1,1028.3,373.7,1031,374.1z"/>
	<path class="st6" d="M788.7,370.2c-1.2,10.3-2.4,19.8-3.4,29.3c-0.3,3.2-2,3.6-4.7,3.4c-3.4-0.3-2-2.7-1.8-4.3
		c1-9.3,2.4-18.6,3.2-28c0.3-3.4,2.2-3.3,4.7-3.3C789.9,367.4,788.7,369.5,788.7,370.2z"/>
	<path class="st6" d="M1078.5,399c1.2-9.8,2.4-19.5,3.5-29.2c0.3-3.1,2.5-2.2,4.2-2.3c2-0.2,2.6,0.7,2.3,2.7
		c-1.3,9.7-2.4,19.3-3.5,29c-0.3,2.7-1.2,4.1-4.3,3.8C1077.3,402.7,1078.7,400.5,1078.5,399z"/>
	<path class="st7" d="M786.9,361.1c-2.6-0.4-4.2-1.9-4.2-4.5c0-2.6,1.4-4.5,4.2-4.5c2.9,0,4.5,1.7,4.4,4.7
		C791.2,359.6,789.4,360.7,786.9,361.1z"/>
	<path class="st8" d="M1091.1,356.5c-0.3,2.7-1.8,4.5-4.4,4.5c-2.9,0-4.6-1.9-4.4-4.8c0.2-2.5,1.8-4.3,4.5-4.1
		C1089.5,352.2,1090.8,354,1091.1,356.5z"/>
	<path class="st9" d="M1031,374.1c-0.4,0.5-0.7,1.3-1.3,1.5c-0.7,0.2-0.7-0.6-0.6-1.1c0.2-1.2,0.6-2.4,0.9-3.6
		C1030.3,371.9,1030.7,373,1031,374.1z"/>
	<path class="st10" d="M758.9,392.6c0.1,0.9,0,2.1-1.2,1.8c-1.7-0.4-1-1.9-0.8-3.1C757.5,391.8,758.2,392.2,758.9,392.6z"/>
	<path class="st0" d="M409.2,264.8c0,9-0.1,18,0.1,27c0.1,2.9-0.9,5-2.9,7.1c-6.8,7.3-14.8,12-25,12.6c-12,0.6-21-4.3-24.7-15.6
		c-6-18.7-6.4-37.7,0.6-56.3c8.9-23.8,37.4-21.5,49.6-9.1c1.8,1.8,2.3,3.7,2.3,6.2C409.1,246,409.2,255.4,409.2,264.8z"/>
	<path class="st0" d="M1136.1,267.1c0,9.4-0.9,18.7-4.5,27.5c-4.9,11.9-13.9,17.7-27.5,17.7c-14.6,0.1-24.2-5.3-28.8-17.5
		c-6.6-17.8-6.8-36-0.3-53.9c4.7-13.1,14.4-18.9,29.1-18.7c14.1,0.2,23.3,6.5,28.1,19.5C1135.3,249.9,1136.1,258.4,1136.1,267.1z"/>
	<path class="st0" d="M898.6,291.6c-1.1,3.4,1.9,8-2,11.8c-6.8,6.6-14.6,11.2-24.1,12c-3.8,0.3-7.6,0.4-11.4-0.5
		c-5.5-1.3-9.4-4.4-10.5-10c-1.2-6-0.1-11.4,5-15.5c6.4-5.1,14.1-6.7,21.8-8c5.6-1,11.4-1,17.1-1.8c3.3-0.5,4.5,0.5,4.2,3.8
		C898.4,286,898.6,288.5,898.6,291.6z"/>
	<path class="st11" d="M914.1,382c-0.4,5.3-1.3,9.8-4.7,13.3c-2.3,2.3-5,3.7-8.3,2.7c-3.4-1-4.7-3.5-5.1-6.9
		c-0.5-4.5,0-8.7,2.2-12.8c2.3-4.2,5.5-7.3,10.5-6C913.9,373.7,913.9,378.4,914.1,382z"/>
	<path class="st12" d="M831.3,382.5c1.6-7,5.1-10.6,10.1-10.7c2.3,0,4.3,0.4,5,2.8c0.7,2.4-0.6,4.1-2.6,5.1
		C839.9,381.6,835.8,382.9,831.3,382.5z"/>
	<path class="st12" d="M995.6,382.7c2-7.5,5.2-10.8,10.3-10.9c2.3,0,4.3,0.4,5,2.9c0.6,2.4-0.6,4.1-2.6,5.1
		C1004.4,381.6,1000.4,382.6,995.6,382.7z"/>
	<path class="st13" d="M1130.5,382.5c1.7-5.3,3.9-9.8,9.9-10.7c2.4-0.3,4.8,0.1,5.7,2.7c0.9,2.7-0.9,4.3-3.1,5.4
		C1139.2,381.8,1135.2,382.8,1130.5,382.5z"/>
	<path class="st13" d="M695.6,382.6c1.6-5.5,3.9-9.8,9.9-10.7c2.4-0.4,4.8,0,5.7,2.7c0.9,2.7-0.9,4.4-3.1,5.4
		C704.3,381.8,700.3,382.8,695.6,382.6z"/>
</g>
</svg>
