<?xml version="1.0" encoding="utf-8"?>
<!-- Generator: Adobe Illustrator 27.8.0, SVG Export Plug-In . SVG Version: 6.00 Build 0)  -->
<svg version="1.1" id="layer" xmlns="http://www.w3.org/2000/svg" xmlns:xlink="http://www.w3.org/1999/xlink" x="0px" y="0px"
	 viewBox="0 0 1006.3 1006.3" style="enable-background:new 0 0 1006.3 1006.3;" xml:space="preserve">
<path fill="#fff" d="M267.4,593.3c48.8,0,97.4,20.7,119.8,58.1l-53,42.9c-18-16.3-40-28.1-67.3-28.1c-29.6,0-43.9,12.1-43.9,23.2
c0,15,13.8,23.6,43.9,31l27.1,6.6c76.2,18.3,104.3,53.7,104.3,97.9c0,58.2-52,98.8-139,98.8c-48.6,0-108.5-20.4-131.7-62.3l53-42.9
c21.4,21.7,45.8,34.8,78.2,34.8c28.3,0,50.6-9.4,50.6-26.2c0-13.6-10.3-18.8-38.2-25.7l-28.4-7.1c-75.9-18.8-105.2-61.6-105.2-102.8
C137.9,638.4,185,593.3,267.4,593.3z M883.8,602.4v74.2h-92.9V914h-85.8V676.6h-92.9v-74.2H883.8z M207.9,82.7v184.6
c0,36.8,21,57.7,55.2,57.7s54.7-20.9,54.7-57.7V82.7h85.5v184.2c0,85.6-51.3,137.3-139.7,137.3c-91.9,0-141-53.8-141-137.3V82.7
H207.9z M808.5,175v121h-121V175H808.5z"/>
</svg>
