<?xml version="1.0" encoding="UTF-8"?>
<svg id="Nuvizz" xmlns="http://www.w3.org/2000/svg" viewBox="0 0 3321.25 826.91">
  <defs>
    <style>
      .cls-1 {
    fill: #fff;
      }

      .cls-2 {
    fill: #fff;
      }
    </style>
  </defs>
  <path class="cls-1" d="M591.97,62.48l324.24,341.96c0,2.04-12.96,15.79-15.47,18.49-36.32,39.14-73.93,77.35-110.99,115.81-60.93,63.23-124.2,142.42-213.43,63.44-59.63-60.27-117.06-122.7-175.88-183.76,7.89-8.68,15.81-17.52,23.92-25.99,8.49-8.86,26.4-28.64,36.64-33.3,21.29-9.68,32.99,6.7,46.38,20.32,37.62,38.25,72.91,79.01,110.42,117.38,32.28,33.01,48.23,48.39,89.5,12.48,26.53-23.08,49-54.76,75.47-78.39,4.11-6.69,10.6-7.58,4.92-15.93l-265.27-279.32,69.54-73.19Z"/>
  <path class="cls-2" d="M473.16,191.53c44.02-4.47,74.33,19.92,103.2,49.11l157.85,166.94c-15.81,17.41-31.63,34.82-48.39,51.32-26.3,22.22-38.66,6.57-57.53-12.48-37.76-38.12-73.14-78.84-110.42-117.38-10.9-11.27-28.75-31.64-44.95-32.98-32.42-2.67-68.14,44.88-88.49,66.47-8.21,8.72-17.47,16.59-25.53,25.43-3.45,3.78-14.2,14.38-13.06,18.98,1.67,6.73,22.2,24.71,28.09,30.95,79.19,84.03,158.9,167.55,237.97,251.69l.3,1.29c-21.47,25.61-46.69,48.03-68.33,73.55L217.53,422.28c-.14-.84,3.51-5.31,4.41-6.37,16.35-19.23,37.42-38.31,55.01-56.89,18.94-20.01,37.34-40.61,56.44-60.46,32.96-34.24,91.22-102.1,139.77-107.03Z"/>
  <path class="cls-1" d="M2075.84,552.74l4-7.47,141.22-413.17c2.85-8.39,10.87-5.52,18.2-5.79,5.91-.22,9.18-.1,14.96.05s11.04-.2,16.53-.03l-186.39,531.34-70.63-.66-184.82-530.67h90.47s156.45,426.41,156.45,426.41Z"/>
  <path class="cls-1" d="M2448.7,323.06v-49.94c80.8-.36,161.65.47,242.47.05,2.85-.01,5.3-.07,7.91-.09,17.69-.13,53.11,3,53.11,3-6.72,17.85-15.96,37.6-15.96,37.6l-220.55,292.98,232.92,1.01v49.93h-309.39c-1.53,0-8.43-2.02-9.85-3.14-7.38-5.81.28-24.37,4.93-30.74,71.99-99.23,150.39-193.87,222.74-292.78,1.73-2.37,4.35-4.85,4.6-7.88h-212.93Z"/>
  <path class="cls-1" d="M2796.58,273.13c83.8-.41,167.65.53,251.46.05,2.85-.02,5.56.06,8.17.04,6.36-.06,44.25-.8,46.82,2.85,3.22,4.58-5.4,25.92-9.74,30.33l-227.75,299.77c-.06,2.22,20.96,1.36,23.54,1.47,2.37.1,4.55,1.01,6.92,1.08,67.37,1.93,135.08-1.53,202.47-.04v48.93h-311.39c-.34,0-5.96-1.24-6.54-1.45-14.56-5.29,1.04-30.58,6.82-38.21l224.15-294.88h-214.93v-49.93Z"/>
  <path class="cls-2" d="M1542.01,262.14l-.04,236.22c1.88,163.68,221.44,165.65,224.01,1l-.04-237.22h39.99l.04,236.22c-4.43,92.46-60.76,166.73-159.53,162.29-88.65-3.99-139.23-75.59-143.44-159.29-3.9-77.41,3.04-158.03,0-235.77-.22-1.02.72-3.44,1.55-3.44h37.49Z"/>
  <path class="cls-2" d="M1112.15,657.6c-.07-62.42.07-124.86.04-187.29-.02-35.25-1.45-66.23,8.69-101.09,16.74-57.55,63.84-103.44,125.68-107.13,106.9-6.37,162.17,65.58,166.53,166.27l-.04,228.24-40,1c-.23-8.48.3-17.03.05-25.51-.08-2.64-1.03-5.05-1.09-7.9-1.55-69.96,4.37-144.73.09-213.8-3.55-57.27-42.96-107.25-102.52-110.3-72.75-3.72-114.89,51.13-118.49,119.29-4.06,76.94,3.09,157.46.09,234.77.22,1.02-.72,3.44-1.55,3.44h-37.49Z"/>
  <path class="cls-1" d="M2361.73,276.12l-1.5,384.48h-53.98c-.11,0-1.5-1.39-1.5-1.5v-382.98h56.98Z"/>
  <path class="cls-2" d="M2326.5,167.53c55.02-7.54,58.71,75.75,7.69,76.67-48.76.88-53.3-70.42-7.69-76.67Z"/>
</svg>