<?xml version="1.0" encoding="UTF-8"?>
<svg id="Worklama" xmlns="http://www.w3.org/2000/svg" viewBox="0 0 3067.98 575.52">
  <defs>
    <style>
      .cls-1 {
        fill: #fff;
      }

      .cls-2 {
        fill: #fff;
      }

      .cls-3 {
        fill: #fff;
      }

      .cls-4 {
        fill: #fff;
      }

      .cls-5 {
        fill: #fff;
      }
    </style>
  </defs>
  <path class="cls-2" d="M284.71,60.08c218.01-16.16,337.41,244.04,178.67,394.06-116.79,110.38-310.89,67.35-370.89-80.9C35.41,232.21,132.74,71.34,284.71,60.08Z"/>
  <path class="cls-4" d="M762.75,363.27c.87,3.42,1.59,6.73,3,2l62.86-245,49.16-.14,62.92,247.14c1.4.6,1.4,1.93,0,3.99.69.73,1.36.07,2-2-1.38-.9-1.4-2.1,0-2.99l50.98-246.58h57.98l-77.92,335.99-56.15-.14-62.86-240.01v-2.99c-.88-1.52-2-1-2-1v3.99l-64.45,239.62h-55.77s-78.71-335.46-78.71-335.46h57.48l1.29,1.71c16.43,80.69,33.19,161.33,50.19,241.88Z"/>
  <path class="cls-4" d="M2552.15,456.11h-55.98l.04-160.27c-1.22-23.06-6.36-42.32-31.8-47.11-26.84-5.05-60.16,5.04-62.25,36.12-3.59,53.47,5.32,112.14,1.09,165.81-.15,1.92-.59,3.61-1.05,5.44h-54.48c-.11,0-1.5-1.39-1.5-1.5v-247.58c0-.11,1.39-1.5,1.5-1.5h51.48l2.01,24.96c36.93-38.79,113.2-42.99,141.44,7.97,15.01-19.18,38.31-34.62,63.11-36.79,62.93-5.51,93.38,24.8,96.39,86.18,2.65,54.16-2.12,110.44,0,164.82.22,1.02-.72,3.44-1.55,3.44h-53.98c-.11,0-1.5-1.39-1.5-1.5v-169.71c0-48.19-74.38-49.87-90.46-7.48-.46,1.21-2.51,6.93-2.51,7.48v171.21Z"/>
  <path class="cls-4" d="M1548.49,118.68v185.69c27.63-33.97,57.74-65.8,86.47-98.83h67.48l-92.73,104.31,102.73,146.27h-64.48l-74.98-106.8c-7.87,8.85-18.54,16.2-24.44,26.49.04,13.03-1.14,25.89-1.1,38.93.04,11.88,2.51,25.96,1.1,37.94-.12,1.01-.46,3.44-1.55,3.44h-55.48V118.68h56.98Z"/>
  <path class="cls-4" d="M1803.4,119.68v288.01c0,.11,1.39,1.5,1.5,1.5h95.47v46.92h-154.45c-.11,0-1.5-1.39-1.5-1.5V119.68h58.98Z"/>
  <path class="cls-4" d="M1992.34,119.68v289.51h96.97v45.42c0,.11-1.39,1.5-1.5,1.5h-152.95c-.11,0-1.5-1.39-1.5-1.5V119.68h58.98Z"/>
  <path class="cls-4" d="M1378.54,205.53l1.01,26.95c11.52-15.19,27.57-29.1,47.49-30.93,4.53-.42,27.02-.36,28.99,2.97,1.13,1.92.89,39.3.53,44.48-.2,2.85-1.31,5.55-1.05,8.44-22.54-3.77-51.77-3.27-67.48,15.96-2.2,2.7-7.49,11.36-7.49,14.49v168.22h-55.98v-250.58h53.98Z"/>
  <path class="cls-1" d="M2987.01,145.63l-8.8,19.66-3.11.04-8.07-19.7.84,19.96h-4.09c-2-10.29-2.56-20.3-1.76-31.94,8.59,3.55,12.81,14.98,14.8,23.34,3.37-7.33,3.88-20.45,15.19-23.34v31.95h-5v-19.97Z"/>
  <path class="cls-3" d="M316.61,245.42c-3.51.36-5.8,3.87-4.73,7.23,11,34.43,21.61,69.34,29.52,104.61,4.16,18.53,9.46,41.65,10.48,60.42,1.38,25.45-3.93,56.5-16.12,76.64-3.84,6.34-7.89,10.81-14.57,11.44-1.68.16-3.07.27-3.75.3-61.88,3.15-119.27-18.05-163.41-59.84-3.58-3.39-1.36-9.41,3.56-9.62l53.07-2.29c2.96-.13,5.29-2.55,5.33-5.51.14-12.37-.45-24.78-.1-37.14,1.49-52.95,8.89-171.72,43.51-212.11,22.97-26.8,38.02-13.23,64.7-4.69,14.89,4.76,42.54,7.79,53.68,17.27,13.29,11.3,13.74,33.03,8.8,48.55-3.26,10.25-4.3,10.46-15.2,9.75-17.86-1.16-36.41-6.92-54.78-5.02Z"/>
  <path class="cls-3" d="M300.91,70.76c-.08,20.8-1.34,43.81-7.72,63.68-3.78,11.78-11.77,24.82-23.27,30.16-2.73-20.16-6.1-39.71-2.71-60.1,3.22-19.36,12.31-33.33,33.7-33.74Z"/>
  <path class="cls-3" d="M335.89,93.73c-5.23,25.57-14.34,57.42-40.98,67.87,2.39-26.68,10.1-62.29,40.98-67.87Z"/>
  <path class="cls-5" d="M942.69,369.26c-.12,1.64.09,3.34,0,4.99h-1.99c-.09-.98.1-2.01,0-2.99l2-2Z"/>
  <path class="cls-4" d="M2933.32,433.35c-9.43-43.84-.65-102.42-3.25-148.49-1.92-33.97-16.15-60.94-48.34-74.51-55.89-23.58-147.8-2.72-153.63,68.07h55.48c3.29-5.37,3.77-11.35,7.08-16.89,11.68-19.51,51.82-22.68,68.4-8.58,6.5,5.53,13.99,19.42,13.99,27.96v22.46c-36.67.26-76.24-3.1-109.65,14.79-55.89,29.92-53.09,108.46,5.01,134.13,35.7,15.77,79.05,8.44,106.63-19.14l6.01,22.96h57.48c.42,0,1.28-.98,1.1-2.07-.96-5.79-4.91-14.21-6.3-20.69ZM2868.46,393.13c-24.47,32.71-94.8,32.05-88.13-20.12,5-39.12,64.22-35.1,92.72-34.7.19,5.81-.26,11.7-.05,17.52.44,11.73,2.96,27.27-4.55,37.31Z"/>
  <path class="cls-4" d="M2318.52,430.36c-8.97-47.32,0-103.12-3.25-151.49-2.97-44.25-34.35-70.38-76.68-76.17-53.27-7.29-119.09,14.72-124.29,75.71h55.48c3.36-6.71,3.95-13.04,8.67-19.3,13.9-18.41,53.39-20.06,69.33-3.7,5.14,5.28,11.47,19.21,11.47,26.49v19.97c0,1.09-2.44,1.43-3.45,1.55-14.24,1.67-32.22-.9-47.08-.09-41.47,2.25-86.84,18.17-96.94,62.93-17.39,77.13,70.27,116.41,130.39,81.29l19.06-13.39c2.33,7.13,2.73,15.56,6.51,21.96h57.48c-1.4-8.79-5.04-17-6.7-25.75ZM2259.25,384.73c0,4.34-11.5,15.13-15.08,17.89-28,21.6-81.07,17.99-77.93-26.91,2.94-42.14,63.31-37.79,93.01-37.39v46.42Z"/>
  <path class="cls-4" d="M1274.26,299.19c-11.54-66.22-61.84-103.27-128.84-97.35-136.53,12.07-138.7,248.08,3.71,258.25,96.04,6.86,140.18-74.57,125.13-160.9ZM1218.28,360.45c-7.61,39.3-38.54,67.2-79.64,51.21-56.48-21.97-52.88-156.75,11.73-164.95,64.73-8.21,77.29,65.24,67.9,113.73Z"/>
</svg>