<?xml version="1.0" encoding="utf-8"?>
<!-- Generator: Adobe Illustrator 27.8.0, SVG Export Plug-In . SVG Version: 6.00 Build 0)  -->
<svg version="1.1" id="Layer_1" xmlns="http://www.w3.org/2000/svg" xmlns:xlink="http://www.w3.org/1999/xlink" x="0px" y="0px"
	 viewBox="0 0 2903.4 852.4" style="enable-background:new 0 0 2903.4 852.4;" xml:space="preserve">
<style type="text/css">
	.st0{fill:#FFFFFF;}
	.st1{fill:#51A601;}
	.st2{fill:#4D4D5A;}
</style>
<g>
	<path class="st0" d="M569.5,59.2c-202.4,0-367,164.6-367,367c0,202.4,164.6,367,367,367c202.4,0,367-164.6,367-367
		C936.5,223.9,771.8,59.2,569.5,59.2"/>
	<path class="st1" d="M238.7,426.2c0-182.7,148.1-330.8,330.8-330.8c182.7,0,330.8,148.1,330.8,330.8
		c0,182.7-148.1,330.8-330.8,330.8S238.7,608.9,238.7,426.2"/>
	<path class="st0" d="M884.5,546.7c1.7-4.7,3.4-9.4,4.9-14.2H612.1l13.6-17.3h192.1c4,0,7.2-3.1,7.2-7c0-3.8-3.2-7-7.2-7H636.6
		l13.3-17h97.7c3.3,0,6-3.2,6-7.1c0-3.9-2.7-7.1-6-7.1H488.3l158.9-207.1H385.7v56.6h139.3L379.1,508.6l-30,38l90.9,0.1h24.9
		c9.8-24.3,33.6-41.4,61.4-41.4c27.8,0,51.6,17.1,61.4,41.4L884.5,546.7L884.5,546.7z"/>
	<path class="st2" d="M577.3,572.3c0,28.2-22.9,51.1-51.1,51.1c-28.2,0-51.1-22.9-51.1-51.1c0-28.2,22.9-51.1,51.1-51.1
		C554.4,521.3,577.3,544.1,577.3,572.3 M1672.6,509.5c-59.8,0-62.9-52.9-62.9-98.8c0-46.6,3.2-99.4,62.9-99.4
		c60.4,0,63.5,49.7,63.5,99.4C1736.2,459.7,1733,509.5,1672.6,509.5 M1545.5,698.9h64.2v-163c23.9,22.7,49.7,37.8,82.4,37.8
		c39,0,67.3-17.6,85.6-41.5c17.6-22.7,22.7-43.4,22.7-121.5c0-78.7-5-99.4-22.7-122.1c-18.2-23.9-46.6-41.5-85.6-41.5
		c-32.7,0-62.3,15.1-82.4,37.1v-33.4h-64.2V698.9z M2116.6,518.3c-27.7,32.1-66.1,55.4-114.5,55.4c-73.6,0-144.7-46.6-144.7-163
		c0-117,71.1-163.6,144.7-163.6c48.5,0,86.8,23.3,114.5,55.4l-47.2,42.2c-15.7-19.5-38.4-33.4-64.8-33.4
		c-52.2,0-83.1,29.6-83.1,99.4c0,69.2,30.8,98.8,83.1,98.8c26.4,0,49.1-13.8,64.8-33.3L2116.6,518.3L2116.6,518.3z M2338.4,457.9
		c0,49.7-18.2,55.4-71.7,55.4c-43.4,0-60.4-18.9-60.4-40.3c0-23.3,17.6-38.4,55.4-38.4h76.8L2338.4,457.9L2338.4,457.9z
		 M2338.4,569.9h64.2V352.1c0-78.7-54.1-105.1-132.8-105.1c-47.8,0-83.1,12.6-107.6,46.6l50.3,38.4c11.3-18.3,27.1-24.5,60.4-24.5
		c45.9,0,65.4,10.7,65.4,40.9v33.4h-88.7c-68.6,0-103.8,43.4-103.8,94.4c0,55.4,41.5,97.5,112.6,97.5c43.4,0,65.4-10.1,78.7-32.1
		h1.3V569.9L2338.4,569.9z M2485.7,250.8h64.2v34h1.3c20.1-25.2,49.1-37.8,83.1-37.8c25.8,0,47.2,9.4,66.7,24.5l-46.6,55.4
		c-15.1-11.3-25.8-15.7-42.2-15.7c-31.5,0-62.3,20.1-62.3,66.7v191.9h-64.2L2485.7,250.8L2485.7,250.8z M2688.3,549.4
		c0,12.4-10,22.4-22.4,22.4c-12.4,0-22.4-10-22.4-22.4s10-22.4,22.4-22.4C2678.2,527,2688.3,537,2688.3,549.4
		C2688.3,549.4,2688.3,549.4,2688.3,549.4 M2638.7,549.4c0,15,12.2,27.1,27.1,27.1c15,0,27.1-12.2,27.1-27.1
		c0-15-12.2-27.1-27.1-27.1C2650.9,522.3,2638.8,534.4,2638.7,549.4 M2673.3,565.1h5.9l-8.9-13.8c4.6-0.6,8-3,8-8.6
		c0-6.2-3.6-8.9-11-8.9h-11.8v31.3h4.7v-13.6h5L2673.3,565.1L2673.3,565.1z M2660.2,547.5v-9.9h6.4c4.8,0,7.1,1.5,7.1,5
		c0,3.5-2.2,4.9-7.1,4.9L2660.2,547.5L2660.2,547.5z M1074.8,518.9l159.8-211.4h-151v-56.6h229.1v51l-159.8,207.7h159.8v60.4h-237.9
		V518.9z M1386.6,250.8h64.2v319h-64.2V250.8z M1386.6,121.8h64.2V186h-64.2V121.8z"/>
</g>
</svg>
