<svg width="105" height="117" viewBox="0 0 105 117" fill="none" xmlns="http://www.w3.org/2000/svg">
<path d="M0 116.302L70.5014 117C72.106 93.1611 85.5444 72.6138 105 60.844L70.5014 0C29.6848 23.6394 2.00573 66.6291 0 116.302Z" fill="#AD1927"/>
<path d="M39.4832 103.12L32.0857 104.53L32.0796 104.577C33.1391 104.668 34.1287 104.781 35.0482 104.918L39.1689 105.531L39.0045 106.792L30.5314 105.531L30.7867 103.573L37.8344 102.217L37.8389 102.183L31.4153 98.7506L31.6713 96.7867L40.1443 98.0479L39.9701 99.3843L35.78 98.7606C35.3588 98.6979 34.8114 98.6065 34.1378 98.4865C33.4647 98.3626 33.0577 98.2823 32.9167 98.2455L32.9107 98.292L39.643 101.894L39.4832 103.12Z" fill="white"/>
<path d="M41.733 92.0155L40.7956 92.0806L40.7856 92.1264C41.1036 92.521 41.2994 92.8892 41.373 93.2311C41.4428 93.5721 41.425 93.985 41.3197 94.4698C41.1845 95.092 40.9114 95.5398 40.5002 95.8132C40.0899 96.0829 39.5785 96.1466 38.9659 96.0043C38.3152 95.8533 37.877 95.4969 37.6513 94.9353C37.4256 94.3736 37.4053 93.593 37.5905 92.5935L37.7938 91.4919L37.4571 91.4137C37.0537 91.3201 36.7324 91.3457 36.4931 91.4907C36.2508 91.6309 36.0865 91.8995 36.0003 92.2965C35.9298 92.621 35.9097 92.9431 35.9402 93.2629C35.9706 93.5827 36.0207 93.8951 36.0903 94.2L35.0369 94.4125C34.9327 94.0275 34.8793 93.6201 34.8767 93.1905C34.8704 92.7599 34.9066 92.3633 34.9853 92.0007C35.1603 91.1953 35.4672 90.629 35.906 90.3018C36.3456 89.9708 36.9403 89.8924 37.6898 90.0664L41.942 91.0536L41.733 92.0155ZM40.3844 93.8075C40.4906 93.3189 40.4405 92.8963 40.2342 92.5397C40.0249 92.1783 39.6748 91.9407 39.184 91.8267L38.6361 91.6995L38.4937 92.5205C38.3788 93.1595 38.385 93.6461 38.5123 93.9804C38.6365 94.3099 38.8927 94.5198 39.2808 94.6099C39.5624 94.6753 39.7994 94.6421 39.9919 94.5103C40.1806 94.3777 40.3114 94.1434 40.3844 93.8075Z" fill="white"/>
<path d="M43.1117 88.4069L42.7366 89.7318L36.5211 87.8977L36.8962 86.5729L43.1117 88.4069ZM34.8522 87.4908C34.6161 87.4211 34.4525 87.3036 34.3613 87.1382C34.2712 86.9691 34.2602 86.7643 34.3283 86.5237C34.3942 86.2907 34.509 86.1291 34.6726 86.0389C34.8372 85.9449 35.0375 85.9328 35.2736 86.0024C35.4983 86.0687 35.6577 86.187 35.7516 86.3573C35.8428 86.5227 35.8554 86.7219 35.7894 86.9549C35.7213 87.1954 35.605 87.3627 35.4403 87.4566C35.273 87.5457 35.077 87.5571 34.8522 87.4908Z" fill="white"/>
<path d="M45.4535 80.1361L44.9914 81.4394L41.2463 80.0793C40.7764 79.9087 40.3918 79.877 40.0926 79.9845C39.7947 80.0883 39.5726 80.3463 39.4264 80.7586C39.2319 81.3072 39.2512 81.7672 39.4842 82.1386C39.7172 82.5099 40.2137 82.8336 40.9738 83.1096L44.0084 84.2116L43.5482 85.5094L37.4569 83.2974L37.8173 82.2812L38.6805 82.389L38.704 82.3227C38.4792 82.0333 38.3479 81.6906 38.3101 81.2945C38.2723 80.8985 38.3266 80.4943 38.4728 80.0819C38.9924 78.6167 39.9957 78.154 41.4827 78.694L45.4535 80.1361Z" fill="white"/>
<path d="M46.3437 75.7249C46.478 75.417 46.5641 75.0878 46.6019 74.7374L47.5509 75.1556C47.5508 75.322 47.522 75.5248 47.4644 75.7642C47.4121 76.0015 47.3343 76.2383 47.2312 76.4746C46.7096 77.6704 45.8196 77.9912 44.5613 77.4367L41.3656 76.0286L41.0119 76.8396L40.4542 76.5939L40.3726 75.5207L39.3053 74.5382L39.6451 73.7594L40.9641 74.3406L41.7021 72.6489L42.6565 73.0694L41.9185 74.7612L45.0928 76.1598C45.3966 76.2937 45.6546 76.3177 45.8668 76.2319C46.0769 76.141 46.2359 75.972 46.3437 75.7249Z" fill="white"/>
<path d="M50.859 70.5198L49.9312 70.3483L49.9096 70.3899C50.1157 70.8491 50.2099 71.2523 50.1923 71.5997C50.1712 71.9453 50.0463 72.3382 49.8176 72.7785C49.5241 73.3435 49.142 73.7062 48.6712 73.8667C48.2023 74.0237 47.6888 73.9573 47.1306 73.6674C46.5378 73.3595 46.205 72.9072 46.1321 72.3103C46.0592 71.7134 46.243 70.9572 46.6835 70.0415L47.1682 69.0322L46.8614 68.8729C46.494 68.682 46.1751 68.6264 45.9048 68.7061C45.6328 68.7806 45.4032 68.998 45.2159 69.3586C45.0628 69.6532 44.9594 69.9582 44.9056 70.2736C44.8518 70.589 44.819 70.9021 44.8072 71.2129L43.7283 71.1543C43.7275 70.7577 43.7818 70.3524 43.8913 69.9383C43.9973 69.5224 44.1359 69.1498 44.3069 68.8204C44.6869 68.089 45.1327 67.6207 45.6443 67.4154C46.1577 67.2067 46.7559 67.2797 47.4388 67.6344L51.3128 69.6463L50.859 70.5198ZM49.0815 71.9076C49.312 71.4639 49.3736 71.0447 49.2661 70.6499C49.157 70.2499 48.8788 69.9338 48.4316 69.7015L47.9324 69.4423L47.58 70.1968C47.3019 70.783 47.1811 71.2529 47.2175 71.6064C47.2523 71.9546 47.4465 72.2205 47.8001 72.4041C48.0567 72.5373 48.2956 72.5646 48.517 72.4859C48.7349 72.4054 48.9231 72.2126 49.0815 71.9076Z" fill="white"/>
<path d="M52.3815 66.6336L51.672 67.8138L46.1059 64.4949L46.8153 63.3148L52.3815 66.6336ZM44.589 63.686C44.3777 63.56 44.2492 63.406 44.2035 63.2242C44.1599 63.039 44.2025 62.8393 44.3313 62.625C44.4561 62.4175 44.6097 62.2908 44.7922 62.245C44.9767 62.1958 45.1747 62.2342 45.386 62.3603C45.5874 62.4803 45.7115 62.6339 45.7585 62.8211C45.8041 63.0029 45.7646 63.1976 45.6398 63.4052C45.511 63.6195 45.3543 63.7512 45.1698 63.8003C44.9839 63.8442 44.7904 63.806 44.589 63.686Z" fill="white"/>
<path d="M57.5458 59.8354L56.7579 60.9718L53.4673 58.7254C53.0543 58.4434 52.6883 58.3166 52.3694 58.3448C52.0526 58.3697 51.7696 58.562 51.5203 58.9215C51.1887 59.3998 51.0881 59.8467 51.2184 60.262C51.3487 60.6773 51.7478 61.1129 52.4156 61.5688L55.082 63.3891L54.2975 64.5207L48.9453 60.8669L49.5596 59.9809L50.3714 60.301L50.4115 60.2432C50.2679 59.9087 50.2291 59.5464 50.2952 59.1564C50.3612 58.7663 50.5189 58.3916 50.7681 58.032C51.6539 56.7543 52.7501 56.5615 54.0567 57.4535L57.5458 59.8354Z" fill="white"/>
<path d="M60.6782 56.1965C60.0426 56.9786 59.3156 57.4088 58.497 57.4871C57.6779 57.5598 56.8645 57.2756 56.0569 56.6343C55.2279 55.9761 54.7426 55.254 54.601 54.4683C54.4593 53.6825 54.6792 52.9319 55.2606 52.2164C55.8001 51.5525 56.4297 51.1896 57.1494 51.1276C57.8691 51.0657 58.5854 51.3177 59.2981 51.8837L59.8809 52.3464L57.1576 55.6978C57.6625 56.0737 58.149 56.2431 58.6171 56.2058C59.0822 56.1661 59.4983 55.9204 59.8653 55.4687C60.1067 55.1716 60.3033 54.8739 60.4552 54.5755C60.6065 54.2717 60.7358 53.9205 60.8432 53.522L61.7197 54.2179C61.6332 54.5782 61.5076 54.9124 61.3429 55.2205C61.1781 55.5286 60.9565 55.8539 60.6782 56.1965ZM56.0774 52.865C55.8015 53.2045 55.6884 53.5636 55.7381 53.9422C55.7902 54.3178 56.0083 54.6905 56.3923 55.0602L58.2473 52.7774C57.8232 52.4507 57.4253 52.2994 57.0535 52.3233C56.6787 52.3449 56.3533 52.5255 56.0774 52.865Z" fill="white"/>
<path d="M66.1692 48.9437L65.2181 49.9475L62.2847 47.2513C61.9165 46.9129 61.572 46.7342 61.2512 46.7151C60.933 46.6932 60.6234 46.841 60.3225 47.1586C59.9222 47.5812 59.7559 48.0066 59.8237 48.4349C59.8914 48.8631 60.2229 49.3509 60.8182 49.8981L63.1952 52.0828L62.2482 53.0824L57.477 48.697L58.2185 47.9144L58.977 48.3489L59.0253 48.2979C58.9324 47.9473 58.9478 47.5847 59.0712 47.2101C59.1947 46.8356 59.4069 46.4895 59.7078 46.1719C60.7771 45.0433 61.8941 45.0142 63.0588 46.0848L66.1692 48.9437Z" fill="white"/>
<path d="M69.6743 46.103C68.9499 46.7636 68.2026 47.0593 67.4325 46.9898C66.6626 46.9149 65.9098 46.4888 65.1741 45.7114C64.425 44.9198 64.0454 44.1322 64.0352 43.3487C64.0278 42.5625 64.3965 41.8299 65.1412 41.1508C65.6463 40.6901 66.1881 40.3678 66.7667 40.1837L67.2205 41.2684C66.6347 41.496 66.2019 41.7375 65.9219 41.9928C65.0935 42.7482 65.1908 43.6664 66.2138 44.7474C66.7132 45.2751 67.1915 45.5789 67.6488 45.6587C68.1064 45.7331 68.5343 45.5886 68.9326 45.2254C69.3857 44.8122 69.7096 44.3106 69.9043 43.7208L70.7299 44.5933C70.6474 44.8641 70.5237 45.1169 70.3589 45.3518C70.1969 45.5841 69.9687 45.8345 69.6743 46.103Z" fill="white"/>
<path d="M74.3478 42.7441C73.5574 43.3694 72.7519 43.6331 71.9314 43.5353C71.1114 43.4321 70.373 42.983 69.716 42.1881C69.0416 41.3721 68.7184 40.5672 68.7462 39.7733C68.7741 38.9794 69.1495 38.2964 69.8725 37.7245C70.5434 37.1937 71.2388 36.9746 71.9589 37.0673C72.6789 37.1599 73.3288 37.5571 73.9086 38.2586L74.3827 38.8322L70.996 41.5116C71.412 41.9842 71.8538 42.2522 72.3215 42.3154C72.7867 42.3756 73.2476 42.2251 73.704 41.864C74.0042 41.6265 74.2606 41.3788 74.4731 41.1211C74.6863 40.8578 74.8879 40.5439 75.078 40.1794L75.791 41.042C75.6296 41.3739 75.4352 41.6721 75.2079 41.9366C74.9806 42.201 74.6939 42.4702 74.3478 42.7441ZM70.5369 38.5284C70.1938 38.7998 70.0064 39.1249 69.9748 39.5035C69.9462 39.8796 70.0812 40.2882 70.3798 40.7292L72.6866 38.9042C72.3396 38.4965 71.9809 38.2649 71.6107 38.2092C71.2379 38.1506 70.88 38.257 70.5369 38.5284Z" fill="white"/>
</svg>
