<svg width="102" height="119" viewBox="0 0 102 119" fill="none" xmlns="http://www.w3.org/2000/svg">
<path d="M66.33 119L102 58.4C82.0609 45.1 70.8389 23.3 70.2377 0.5L0 0C0.400786 47.1 24.0471 92.5 66.33 119Z" fill="#AD1927"/>
<path d="M33.4017 21.3115C31.8716 21.2364 30.7172 20.7539 29.9385 19.8642C29.164 18.9746 28.8077 17.7306 28.8694 16.1322L28.9696 13.5379L38.2387 13.9928L38.128 16.8598C38.071 18.3356 37.6293 19.4642 36.8031 20.2455C35.9768 21.0269 34.843 21.3822 33.4017 21.3115ZM33.4127 19.7106C35.6317 19.8195 36.7813 18.8358 36.8614 16.7595L36.9121 15.4466L30.1854 15.1164L30.1437 16.1947C30.0575 18.4274 31.1472 19.5994 33.4127 19.7106Z" fill="white"/>
<path d="M29.2744 28.2189C29.1797 27.1312 29.422 26.2548 30.0013 25.5898C30.5851 24.9287 31.434 24.5545 32.5477 24.4673C33.691 24.3779 34.6144 24.5921 35.3179 25.1101C36.0213 25.6281 36.4164 26.3845 36.503 27.3794C36.5833 28.3027 36.3662 29.054 35.8517 29.6333C35.3372 30.2126 34.5884 30.5408 33.6055 30.6177L32.8018 30.6806L32.3961 26.02C31.7187 26.0942 31.2116 26.3185 30.8746 26.693C30.5419 27.067 30.4028 27.5682 30.4575 28.1963C30.4935 28.6095 30.5648 28.9902 30.6716 29.3383C30.7829 29.6904 30.9471 30.0638 31.1641 30.4586L29.9554 30.5531C29.7509 30.2041 29.5966 29.8469 29.4926 29.4815C29.3886 29.1162 29.3158 28.6953 29.2744 28.2189ZM35.3765 27.4676C35.3354 26.9954 35.1526 26.6277 34.8281 26.3645C34.504 26.1055 34.0527 25.971 33.4742 25.9611L33.7504 29.1356C34.3277 29.082 34.7522 28.9087 35.0241 28.6157C35.3001 28.3225 35.4176 27.9398 35.3765 27.4676Z" fill="white"/>
<path d="M31.1106 37.348C30.9275 36.4784 31.0985 35.7396 31.6235 35.1317L31.6052 35.0448C31.0369 35.221 30.6905 35.3218 30.5661 35.3471L27.7485 35.9211L27.4412 34.4614L37.3806 32.4367L37.6291 33.6169C37.5075 33.6762 37.215 33.807 36.7517 34.0094L36.7674 34.0839C37.5599 34.3975 38.052 35.0098 38.2438 35.9209C38.4243 36.778 38.2536 37.5081 37.7319 38.111C37.211 38.7181 36.3887 39.1361 35.265 39.365C34.1412 39.5939 33.2128 39.5282 32.4796 39.168C31.7474 38.8119 31.291 38.2052 31.1106 37.348ZM36.9698 35.7852C36.8478 35.2055 36.5884 34.8157 36.1917 34.6158C35.7959 34.42 35.2248 34.3981 34.4784 34.5502L34.2607 34.5945C33.4231 34.7651 32.8435 35.0214 32.522 35.3633C32.2046 35.7043 32.1091 36.1751 32.2355 36.7755C32.3418 37.2807 32.6311 37.6278 33.1033 37.8166C33.5755 38.0054 34.1951 38.0217 34.9623 37.8655C35.7335 37.7083 36.2874 37.453 36.6238 37.0995C36.9652 36.7492 37.0805 36.3111 36.9698 35.7852Z" fill="white"/>
<path d="M33.4301 43.6505L32.9748 42.23L42.3936 39.2567L42.8489 40.6772L33.4301 43.6505Z" fill="white"/>
<path d="M40.2704 50.8331C39.2169 51.2862 38.2779 51.3698 37.4535 51.084C36.6291 50.7983 36.0086 50.1737 35.592 49.2105C35.3316 48.6085 35.2375 48.0178 35.3097 47.4386C35.382 46.8594 35.619 46.336 36.0207 45.8684C36.4225 45.4008 36.9596 45.0224 37.6322 44.7332C38.6779 44.2835 39.6102 44.2004 40.4291 44.484C41.2479 44.7676 41.8682 45.3968 42.2898 46.3717C42.693 47.3039 42.7109 48.1714 42.3435 48.9743C41.98 49.7755 41.289 50.3951 40.2704 50.8331ZM38.242 46.1431C36.753 46.7834 36.2463 47.6532 36.7217 48.7523C37.192 49.8399 38.1717 50.0635 39.6606 49.4232C41.134 48.7896 41.6338 47.9252 41.1601 46.8299C40.9115 46.255 40.5404 45.9194 40.0469 45.823C39.555 45.7305 38.9534 45.8372 38.242 46.1431Z" fill="white"/>
<path d="M43.9438 50.4692L44.7507 51.8797L42.0064 55.0977C41.6215 55.5669 41.2303 55.9568 40.8327 56.2675L40.8579 56.3115C41.0788 56.2289 41.3576 56.1496 41.6945 56.0737C42.035 55.9957 43.6715 55.6776 46.604 55.1195L47.4046 56.5189L39.0123 57.8662C37.4744 58.1181 36.3892 57.6912 35.7567 56.5855C35.5928 56.299 35.4643 56.002 35.3712 55.6944L36.3957 55.1076C36.463 55.3275 36.5681 55.5623 36.711 55.8121C37.0682 56.4365 37.681 56.6683 38.5494 56.5074L39.2514 56.4051L43.9438 50.4692Z" fill="white"/>
<path d="M46.1594 66.0956L45.2488 64.9061L48.6765 62.2619C49.102 61.9336 49.3569 61.6087 49.4412 61.2872C49.5288 60.963 49.4414 60.6296 49.179 60.2868C48.8292 59.8299 48.4229 59.6089 47.96 59.6238C47.5031 59.6396 46.9296 59.9137 46.2393 60.4462L43.47 62.5825L42.5633 61.398L48.122 57.1099L48.8319 58.0373L48.2305 58.7658L48.2768 58.8263C48.6598 58.7767 49.0353 58.8425 49.4032 59.0237C49.7736 59.2082 50.0939 59.4769 50.364 59.8297C51.0199 60.6866 51.1631 61.4793 50.7936 62.208L50.8553 62.2886C51.2561 62.2413 51.6481 62.3078 52.0311 62.4879C52.4142 62.6681 52.7536 62.9514 53.0495 63.3378C53.5588 64.0031 53.7617 64.6162 53.6581 65.1771C53.5571 65.7414 53.1632 66.2885 52.4763 66.8183L48.8526 69.6138L47.9458 68.4293L51.3735 65.7851C51.7991 65.4568 52.0527 65.1302 52.1344 64.8053C52.222 64.4812 52.1346 64.1477 51.8723 63.805C51.5198 63.3446 51.1173 63.1181 50.6645 63.1253C50.2176 63.1333 49.6976 63.3661 49.1046 63.8236L46.1594 66.0956Z" fill="white"/>
<path d="M53.0814 73.0215C52.3046 72.2544 51.9178 71.4264 51.9212 70.5377C51.9305 69.6489 52.325 68.8044 53.1047 68.0042C53.905 67.1829 54.7373 66.738 55.6016 66.6696C56.4658 66.6013 57.2532 66.9179 57.9639 67.6197C58.6233 68.2709 58.9478 68.9868 58.9374 69.7675C58.927 70.5483 58.5778 71.2917 57.8897 71.9979L57.3271 72.5753L53.9984 69.2882C53.5379 69.791 53.3027 70.2962 53.2927 70.8037C53.2856 71.3082 53.5064 71.7819 53.9551 72.225C54.2501 72.5164 54.5507 72.7597 54.8568 72.9549C55.1689 73.15 55.5344 73.3267 55.9535 73.4848L55.1074 74.3531C54.7273 74.2216 54.3797 74.0508 54.0646 73.8407C53.7494 73.6306 53.4217 73.3575 53.0814 73.0215ZM57.1753 68.4289C56.8381 68.0959 56.4623 67.9359 56.0478 67.9489C55.6364 67.9648 55.2103 68.1596 54.7695 68.5331L57.0368 70.7721C57.4354 70.351 57.6417 69.9391 57.6557 69.5367C57.6727 69.1312 57.5126 68.7619 57.1753 68.4289Z" fill="white"/>
<path d="M62.2606 80.5803L61.0757 79.6637L63.6866 76.2264C64.0142 75.795 64.1716 75.4059 64.1588 75.0589C64.1494 74.7146 63.9572 74.3974 63.5823 74.1074C63.0836 73.7216 62.6061 73.5876 62.1499 73.7055C61.6937 73.8234 61.2007 74.2311 60.6709 74.9287L58.5554 77.7139L57.3755 76.8012L61.6219 71.2105L62.5457 71.9252L62.1547 72.7863L62.2149 72.8329C62.5845 72.6961 62.9783 72.6744 63.3963 72.7677C63.8143 72.861 64.2107 73.0527 64.5856 73.3427C65.9177 74.3732 66.0655 75.5709 65.0289 76.9357L62.2606 80.5803Z" fill="white"/>
<path d="M67.5459 83.0216C67.8569 83.2107 68.197 83.3507 68.5663 83.4416L67.9924 84.4075C67.8147 84.3836 67.6018 84.3235 67.3539 84.2272C67.1074 84.1367 66.8648 84.0189 66.6262 83.8737C65.4186 83.1392 65.1953 82.1317 65.9561 80.851L67.8884 77.5985L67.0695 77.1004L67.4067 76.5329L68.5641 76.5979L69.7566 75.5849L70.543 76.0632L69.7454 77.4056L71.4537 78.4447L70.8766 79.4161L69.1683 78.377L67.249 81.6077C67.0652 81.9169 67.005 82.1923 67.0682 82.4338C67.1372 82.6739 67.2965 82.8698 67.5459 83.0216Z" fill="white"/>
</svg>
