<svg width="103" height="118" viewBox="0 0 103 118" fill="none" xmlns="http://www.w3.org/2000/svg">
<path d="M34.3 0L0 61.0414C20.2 73.7874 31.9 95.3958 32.9 118L103 117.004C101.6 70.3021 77.1 25.492 34.3 0Z" fill="#AD1927"/>
<path d="M40.5647 43.8386L41.3846 44.5005C41.9344 44.9445 42.4137 45.1628 42.8223 45.1556C43.2309 45.1484 43.5943 44.9414 43.9125 44.5349C44.2359 44.1216 44.3347 43.7173 44.2088 43.3221C44.0829 42.9268 43.7517 42.5125 43.215 42.0791L42.4347 41.4491L40.5647 43.8386ZM39.7902 44.8284L37.5056 47.7477L36.3252 46.7947L42.0445 39.4863L44.0842 41.1332C45.016 41.8855 45.5676 42.619 45.7389 43.3339C45.9102 44.0487 45.7169 44.7626 45.1588 45.4758C44.4468 46.3856 43.472 46.6563 42.2344 46.2879L41.7431 51.1691L40.3997 50.0845L40.9557 45.7694L39.7902 44.8284Z" fill="white"/>
<path d="M43.8537 53.9176C43.0931 53.1344 42.7228 52.2975 42.7429 51.407C42.7689 50.5166 43.1782 49.6778 43.9711 48.8907C44.7849 48.0827 45.6235 47.6526 46.487 47.6003C47.3504 47.548 48.1301 47.8801 48.8258 48.5965C49.4714 49.2614 49.7817 49.9849 49.7567 50.767C49.7317 51.5491 49.3694 52.2875 48.6697 52.9822L48.0976 53.5502L44.8385 50.194C44.3698 50.6892 44.1256 51.191 44.1061 51.6993C44.0896 52.2047 44.3009 52.6835 44.7402 53.1359C45.0291 53.4334 45.3244 53.6828 45.6261 53.8842C45.9338 54.0856 46.2951 54.2694 46.7102 54.4357L45.8499 55.2899C45.4732 55.1511 45.1296 54.9734 44.8191 54.7569C44.5087 54.5404 44.1869 54.2607 43.8537 53.9176ZM48.024 49.3926C47.6938 49.0526 47.3219 48.8852 46.9082 48.8904C46.4974 48.8987 46.0687 49.0859 45.622 49.4519L47.8419 51.7379C48.2474 51.3234 48.4609 50.9146 48.4825 50.5116C48.507 50.1056 48.3542 49.7326 48.024 49.3926Z" fill="white"/>
<path d="M52.1039 59.9835C51.5647 60.4069 50.9975 60.535 50.4021 60.3676C49.8101 60.1977 49.229 59.7447 48.6589 59.0087C48.0861 58.2694 47.7376 57.5881 47.6133 56.9647L48.6266 56.1687C48.8325 57.0563 49.1531 57.7811 49.5885 58.3431C50.1509 59.0691 50.6501 59.2608 51.0861 58.9184C51.2258 58.8086 51.3112 58.677 51.3422 58.5235C51.3732 58.3701 51.3673 58.1621 51.3246 57.8997C51.2819 57.6373 51.1968 57.2925 51.0693 56.8653C50.8206 56.033 50.7312 55.4063 50.8013 54.9854C50.8739 54.5679 51.1066 54.2049 51.4993 53.8964C51.9718 53.5253 52.4857 53.4284 53.0407 53.6059C53.6016 53.7841 54.1374 54.2028 54.648 54.8618C55.1533 55.5141 55.5 56.2346 55.6881 57.0232L54.509 57.3358C54.2914 56.5435 54.0245 55.9433 53.7083 55.5352C53.2263 54.913 52.8088 54.7404 52.4561 55.0175C52.283 55.1534 52.1988 55.3487 52.2034 55.6034C52.2106 55.8614 52.3205 56.3454 52.5333 57.0553C52.712 57.6522 52.8085 58.1118 52.8227 58.4342C52.837 58.7566 52.7864 59.0438 52.6712 59.2958C52.5592 59.5451 52.3701 59.7744 52.1039 59.9835Z" fill="white"/>
<path d="M53.1051 65.9066C52.5365 64.9745 52.3621 64.079 52.5816 63.22C52.807 62.3624 53.396 61.6418 54.3487 61.0583C55.3267 60.4593 56.244 60.2323 57.1009 60.3775C57.9577 60.5226 58.6461 61.0214 59.1662 61.874C59.6488 62.6652 59.79 63.4372 59.5899 64.19C59.3899 64.9428 58.8694 65.5767 58.0286 66.0917L57.3411 66.5128L54.905 62.5189C54.3351 62.8928 53.9835 63.3241 53.8502 63.8126C53.7206 64.2989 53.8199 64.8113 54.1482 65.3496C54.3642 65.7036 54.5972 66.0125 54.8473 66.2762C55.1031 66.5413 55.4155 66.8015 55.7844 67.0569L54.7506 67.6901C54.4131 67.4701 54.1167 67.2199 53.8615 66.9395C53.6062 66.6592 53.3541 66.3149 53.1051 65.9066ZM58.2027 62.4642C57.9559 62.0596 57.6294 61.8129 57.2234 61.7242C56.8195 61.639 56.3579 61.7233 55.8385 61.9769L57.4978 64.6973C57.9878 64.3873 58.2885 64.0393 58.4001 63.6534C58.5153 63.2652 58.4495 62.8688 58.2027 62.4642Z" fill="white"/>
<path d="M57.5516 73.7769L58.3159 73.0997L58.2946 73.0535C57.7642 72.9237 57.356 72.7357 57.0701 72.4895C56.7881 72.2415 56.5346 71.8735 56.3096 71.3854C56.0209 70.7589 55.9644 70.1915 56.1402 69.6832C56.3177 69.1787 56.7163 68.7848 57.336 68.5016C57.9941 68.2008 58.6031 68.218 59.1629 68.553C59.7227 68.8881 60.2483 69.5482 60.7396 70.5334L61.2817 71.6186L61.6223 71.463C62.0303 71.2765 62.2901 71.0415 62.4017 70.7578C62.5189 70.4763 62.4854 70.1357 62.3012 69.736C62.1506 69.4093 61.9581 69.1181 61.7237 68.8623C61.4894 68.6065 61.243 68.3701 60.9846 68.1532L61.7526 67.2718C62.0929 67.5351 62.404 67.8512 62.6859 68.2202C62.9717 68.5874 63.1987 68.9536 63.3669 69.3187C63.7407 70.1296 63.8453 70.8216 63.6807 71.3947C63.5179 71.9716 63.0574 72.4333 62.2991 72.7798L57.998 74.7454L57.5516 73.7769ZM57.5455 71.3371C57.7722 71.829 58.0904 72.1605 58.5 72.3315C58.9153 72.5047 59.3712 72.4778 59.8677 72.2509L60.422 71.9976L60.01 71.1948C59.6929 70.5674 59.3708 70.1516 59.0437 69.9475C58.7223 69.7454 58.3653 69.7341 57.9727 69.9135C57.6879 70.0437 57.5055 70.2294 57.4257 70.4706C57.3496 70.71 57.3896 70.9989 57.5455 71.3371Z" fill="white"/>
<path d="M65.9662 78.5223C66.0621 78.8071 66.121 79.0483 66.1429 79.2459L64.7755 79.5411C64.7562 79.3247 64.7101 79.1083 64.6372 78.8917C64.4467 78.3262 64.1071 77.9278 63.6183 77.6962C63.1309 77.4687 62.5917 77.452 62.0006 77.646L58.5147 78.7901L58.0385 77.3765L64.7089 75.1871L65.0817 76.294L63.9685 76.8665L63.9928 76.9387C64.4651 77.0286 64.8773 77.2118 65.2294 77.4881C65.5828 77.7685 65.8284 78.1133 65.9662 78.5223Z" fill="white"/>
<path d="M61.0435 86.7525C60.8094 85.7165 60.9334 84.8635 61.4155 84.1938C61.9026 83.5272 62.7131 83.0728 63.8471 82.8306C65.0017 82.584 65.9528 82.6751 66.7004 83.1039C67.4489 83.5368 67.9434 84.2857 68.184 85.3507C68.3472 86.073 68.3595 86.7519 68.2211 87.3872L66.9485 87.1982C67.0496 86.5319 67.0549 85.9986 66.9645 85.5982C66.6969 84.4135 65.7747 83.9896 64.198 84.3264C63.4282 84.4908 62.8819 84.7611 62.5591 85.1372C62.2414 85.5166 62.1469 85.9911 62.2755 86.5608C62.4219 87.2088 62.7218 87.7873 63.1751 88.2963L61.9026 88.5681C61.6907 88.3407 61.5181 88.0855 61.3847 87.8025C61.2523 87.5236 61.1386 87.1736 61.0435 86.7525Z" fill="white"/>
<path d="M61.8214 96.4624L61.6633 94.9727L65.9621 94.5842C66.5016 94.5354 66.8925 94.3896 67.1348 94.1468C67.3775 93.9082 67.4739 93.5533 67.4238 93.0819C67.3577 92.4591 67.1215 92.0174 66.7151 91.7567C66.3134 91.4999 65.6742 91.4111 64.7976 91.4903L61.3269 91.804L61.1694 90.3207L71.0063 89.4316L71.1637 90.9149L68.6666 91.1406C68.2662 91.1768 67.8357 91.1902 67.3752 91.1809L67.3853 91.2756C67.7439 91.4471 68.0349 91.7033 68.2583 92.0442C68.4822 92.3894 68.6195 92.8018 68.6705 93.2815C68.8501 94.9732 68.0864 95.8962 66.3795 96.0504L61.8214 96.4624Z" fill="white"/>
</svg>
