<svg width="136" height="78" viewBox="0 0 136 78" fill="none" xmlns="http://www.w3.org/2000/svg">
<path d="M0 17.8447L35.9735 78C57.158 66.9266 81.7399 67.625 101.925 78L136 16.9469C94.7303 -5.19981 43.568 -6.39693 0 17.8447Z" fill="#AD1927"/>
<path d="M58.6992 32.9049C59.0819 33.7952 59.0855 34.6071 58.7099 35.3406C58.3343 36.0741 57.6115 36.6801 56.5415 37.1587L55.6607 37.5526L57.0319 40.7426L55.647 41.362L51.9822 32.8359L54.4217 31.7449C55.4801 31.2715 56.3656 31.135 57.0782 31.3355C57.7946 31.5342 58.3349 32.0574 58.6992 32.9049ZM55.1568 36.3804L55.8928 36.0513C56.6035 35.7334 57.0716 35.3757 57.2968 34.9783C57.5221 34.5809 57.5211 34.1179 57.2938 33.5891C57.0833 33.0992 56.7775 32.8003 56.3764 32.6923C55.9753 32.5843 55.46 32.6711 54.8303 32.9527L53.8684 33.3829L55.1568 36.3804Z" fill="white"/>
<path d="M64.0327 38.2957L62.5671 38.5731L60.7897 28.8574L62.2554 28.58L64.0327 38.2957Z" fill="white"/>
<path d="M71.8443 38.2436L71.5888 37.253L71.5381 37.2506C71.1813 37.6617 70.8284 37.9373 70.4792 38.0776C70.1301 38.2137 69.6872 38.2691 69.1504 38.2438C68.4614 38.2114 67.9305 38 67.5578 37.6096C67.1893 37.2194 67.0199 36.684 67.0495 36.0033C67.081 35.2804 67.3731 34.7477 67.926 34.4051C68.4788 34.0626 69.3055 33.9003 70.406 33.9183L71.6187 33.9373L71.635 33.5631C71.6545 33.115 71.5634 32.776 71.3616 32.5462C71.1642 32.3124 70.8457 32.1851 70.4061 32.1644C70.0468 32.1475 69.7 32.1841 69.3657 32.2742C69.0313 32.3644 68.7089 32.4742 68.3983 32.6036L67.9628 31.5155C68.3518 31.3347 68.7747 31.2042 69.2314 31.1241C69.6883 31.0397 70.1176 31.007 70.5192 31.0259C71.4111 31.0679 72.0747 31.294 72.5101 31.7043C72.9497 32.1147 73.1514 32.7364 73.1151 33.5693L72.9095 38.2938L71.8443 38.2436ZM69.6692 37.1244C70.2103 37.1499 70.6501 37.0202 70.9887 36.7354C71.3316 36.4465 71.515 36.0294 71.5387 35.484L71.5652 34.8752L70.6632 34.8709C69.9604 34.8632 69.4437 34.9575 69.1133 35.1537C68.7872 35.3459 68.6148 35.6577 68.5961 36.0889C68.5825 36.4018 68.6649 36.6492 68.8433 36.8313C69.022 37.0092 69.2973 37.1069 69.6692 37.1244Z" fill="white"/>
<path d="M80.4457 41.6645L79.0303 41.1737L80.3861 37.0757C80.5562 36.5615 80.5792 36.1417 80.455 35.8165C80.3348 35.4927 80.0509 35.2531 79.6031 35.0979C79.0073 34.8913 78.513 34.9169 78.1202 35.1748C77.7274 35.4327 77.3934 35.9774 77.1182 36.8091L76.0197 40.1297L74.6103 39.6409L76.8154 32.9757L77.9189 33.3584L77.8277 34.3008L77.8997 34.3258C78.2046 34.0777 78.5695 33.9311 78.9945 33.8859C79.4195 33.8407 79.8559 33.8957 80.3037 34.051C81.895 34.6028 82.4215 35.6923 81.8832 37.3194L80.4457 41.6645Z" fill="white"/>
</svg>
