<svg width="104" height="117" viewBox="0 0 104 117" fill="none" xmlns="http://www.w3.org/2000/svg">
<path d="M104 0H33.835C32.4376 23.8389 19.3628 44.5857 0 56.4552L34.9328 117C75.2553 92.9616 102.503 49.6726 104 0Z" fill="#AD1927"/>
<path d="M41.3323 76.0438C42.2339 77.2822 42.5907 78.4941 42.4025 79.6795C42.2118 80.8614 41.4898 81.9494 40.2365 82.9434L38.2024 84.5566L32.7399 77.0543L34.9879 75.2714C36.1451 74.3537 37.2794 73.9614 38.3909 74.0944C39.5024 74.2274 40.4829 74.8772 41.3323 76.0438ZM40.1088 77.0788C38.8011 75.2828 37.3333 75.0303 35.7053 76.3214L34.6758 77.1379L38.64 82.5824L39.4855 81.9119C41.2362 80.5235 41.4439 78.9125 40.1088 77.0788Z" fill="white"/>
<path d="M47.398 76.6799C46.6089 77.4344 45.7796 77.7884 44.9102 77.742C44.041 77.6895 43.2342 77.2467 42.49 76.4135C41.726 75.5582 41.332 74.6886 41.3079 73.8046C41.2839 72.9206 41.6328 72.1336 42.3546 71.4434C43.0245 70.8029 43.7411 70.5069 44.5045 70.5552C45.2679 70.6036 45.978 70.9954 46.6349 71.7308L47.1719 72.332L43.7906 75.5649C44.2597 76.0584 44.7424 76.3226 45.2385 76.3573C45.7317 76.3889 46.2062 76.1869 46.662 75.7511C46.9617 75.4645 47.2147 75.17 47.4209 74.8675C47.6273 74.559 47.8182 74.195 47.9937 73.7757L48.8014 74.6798C48.6539 75.0607 48.4696 75.4067 48.2483 75.7177C48.0271 76.0287 47.7437 76.3494 47.398 76.6799ZM43.1073 72.286C42.7648 72.6136 42.5896 72.9888 42.5817 73.4118C42.577 73.8318 42.7464 74.2754 43.09 74.7426L45.3932 72.5405C45.0009 72.114 44.6082 71.8839 44.2151 71.8501C43.8191 71.8132 43.4499 71.9585 43.1073 72.286Z" fill="white"/>
<path d="M51.9925 71.5706L45.0966 68.7684L46.1414 67.5908L50.0697 69.311C50.7332 69.5958 51.2363 69.8637 51.579 70.1148L51.6127 70.0769C51.4155 69.8402 51.109 69.3507 50.6931 68.6082L48.6605 64.7514L49.7137 63.5643L53.0625 70.3645L51.9925 71.5706Z" fill="white"/>
<path d="M57.6223 65.3806C56.9669 66.2538 56.2034 66.7423 55.3319 66.8461C54.4595 66.944 53.5828 66.6495 52.7017 65.9626C51.7973 65.2576 51.2579 64.475 51.0835 63.6148C50.9092 62.7546 51.1218 61.9252 51.7213 61.1265C52.2777 60.3853 52.9391 59.9728 53.7057 59.8891C54.4722 59.8053 55.2443 60.0665 56.0219 60.6727L56.6577 61.1683L53.8492 64.9097C54.3992 65.3117 54.9236 65.4871 55.4223 65.4359C55.9176 65.3822 56.3545 65.1031 56.7331 64.5989C56.982 64.2672 57.1832 63.9358 57.3365 63.6047C57.489 63.2676 57.6168 62.879 57.7197 62.4388L58.6759 63.1842C58.5942 63.5819 58.47 63.9518 58.3032 64.2939C58.1363 64.6359 57.9094 64.9982 57.6223 65.3806ZM52.6124 61.8212C52.3279 62.2002 52.2177 62.5972 52.2819 63.012C52.3487 63.4235 52.5925 63.8282 53.0134 64.226L54.9263 61.6776C54.464 61.3279 54.0348 61.1703 53.6386 61.2048C53.239 61.2366 52.897 61.4421 52.6124 61.8212Z" fill="white"/>
<path d="M61.0747 59.5533L60.2671 60.8074L52.02 55.3723L52.8277 54.1182L61.0747 59.5533Z" fill="white"/>
<path d="M63.6786 50.6529C64.6833 51.2058 65.3263 51.8954 65.6075 52.7216C65.8888 53.5479 65.7776 54.4213 65.274 55.3421C64.9592 55.9176 64.5513 56.3548 64.0501 56.6538C63.5489 56.9527 62.9905 57.0874 62.3749 57.0577C61.7593 57.028 61.1308 56.8367 60.4894 56.4837C59.4921 55.9348 58.8537 55.2501 58.5741 54.4297C58.2945 53.6092 58.4096 52.733 58.9193 51.8012C59.4067 50.9101 60.0798 50.3628 60.9388 50.1593C61.794 49.9538 62.7073 50.1183 63.6786 50.6529ZM61.2265 55.136C62.6465 55.9175 63.6438 55.7829 64.2184 54.7322C64.787 53.6926 64.3614 52.7821 62.9415 52.0006C61.5364 51.2273 60.5475 51.3641 59.9748 52.4111C59.6743 52.9606 59.6377 53.4597 59.8649 53.9084C60.0942 54.3534 60.5481 54.7626 61.2265 55.136Z" fill="white"/>
<path d="M68.8372 46.3328C68.4809 47.1469 67.9107 47.6528 67.1267 47.8505L67.091 47.9319C67.6592 48.1113 68.0016 48.226 68.1183 48.2761L70.7607 49.4102L70.1625 50.7767L60.8413 46.7759L61.3249 45.6711C61.459 45.6918 61.7748 45.7514 62.2722 45.8497L62.3027 45.7799C61.8361 45.0731 61.7894 44.2933 62.1627 43.4404C62.514 42.6379 63.0788 42.139 63.8573 41.9435C64.6374 41.7442 65.5544 41.8707 66.6083 42.323C67.6621 42.7753 68.3844 43.3571 68.7753 44.0682C69.1678 44.7755 69.1885 45.5304 68.8372 46.3328ZM63.1274 44.2758C62.8899 44.8185 62.8754 45.2843 63.0839 45.6732C63.2942 46.0581 63.7493 46.4008 64.4493 46.7013L64.6535 46.7889C65.439 47.1261 66.063 47.2465 66.5254 47.1503C66.984 47.0524 67.3363 46.7224 67.5824 46.1603C67.7894 45.6874 67.7545 45.2395 67.4776 44.8167C67.2007 44.394 66.7026 44.0282 65.9832 43.7194C65.2599 43.409 64.6575 43.3024 64.1761 43.3997C63.6925 43.4914 63.3429 43.7835 63.1274 44.2758Z" fill="white"/>
<path d="M72.5345 36.3479L72.08 37.7753L67.9314 36.5381C67.4164 36.3845 67.0024 36.3669 66.6893 36.4855C66.3722 36.6029 66.1482 36.8672 66.0172 37.2785C65.8426 37.8269 65.8947 38.2839 66.1734 38.6496C66.4494 39.0101 67.0051 39.3149 67.8405 39.564L71.1922 40.5636L70.7396 41.985L64.0119 39.9786L64.3663 38.8657L65.3118 38.9291L65.335 38.8565C65.0736 38.5755 64.9117 38.2336 64.849 37.8308C64.7876 37.4239 64.8243 37.0088 64.9591 36.5854C65.2865 35.5572 65.8563 34.9809 66.6685 34.8567L66.6993 34.7599C66.4296 34.4632 66.2587 34.1075 66.1864 33.693C66.1141 33.2785 66.1518 32.8394 66.2995 32.3757C66.5537 31.5773 66.9413 31.0571 67.4624 30.8151C67.9848 30.5691 68.6616 30.5701 69.4929 30.818L73.8787 32.126L73.4261 33.5474L69.2776 32.3102C68.7626 32.1566 68.3479 32.1411 68.0336 32.2637C67.7165 32.381 67.4924 32.6454 67.3615 33.0567C67.1856 33.6091 67.2309 34.0663 67.4975 34.4284C67.7613 34.7853 68.2521 35.0707 68.9699 35.2848L72.5345 36.3479Z" fill="white"/>
<path d="M73.7514 26.4615C73.5272 27.53 73.0394 28.3103 72.2878 28.8024C71.533 29.2896 70.6058 29.4341 69.5063 29.236C68.3777 29.0325 67.5493 28.5931 67.021 27.9176C66.4928 27.2422 66.3312 26.4157 66.5363 25.4383C66.7266 24.5313 67.1538 23.8647 67.8181 23.4386C68.4823 23.0124 69.2996 22.8868 70.27 23.0617L71.0634 23.2047L70.1028 27.7832C70.7777 27.8834 71.3319 27.7963 71.7655 27.522C72.1949 27.2469 72.4743 26.8008 72.6038 26.1837C72.6889 25.7778 72.7305 25.3942 72.7285 25.0328C72.7233 24.6665 72.6732 24.2663 72.5784 23.8323L73.7716 24.0474C73.8676 24.4343 73.9128 24.8164 73.9072 25.1936C73.9015 25.5709 73.8496 25.9935 73.7514 26.4615ZM67.6482 25.6387C67.5509 26.1026 67.6206 26.502 67.8572 26.8369C68.0947 27.1677 68.491 27.411 69.0461 27.567L69.7003 24.4483C69.128 24.3538 68.6683 24.4128 68.3212 24.6253C67.9699 24.837 67.7456 25.1749 67.6482 25.6387Z" fill="white"/>
<path d="M75.8055 15.9509L75.6292 17.4385L71.3272 17.086C70.7874 17.0418 70.3717 17.1181 70.08 17.3148C69.7889 17.5074 69.6155 17.839 69.5597 18.3096C69.4855 18.9358 69.6168 19.4091 69.9536 19.7294C70.2904 20.0498 70.8953 20.2458 71.7684 20.3173L75.2543 20.6029L75.0787 22.0842L68.0817 21.5109L68.2191 20.3511L69.1611 20.2182L69.1701 20.1426C68.8618 19.9052 68.6398 19.5857 68.5043 19.1842C68.3688 18.7828 68.3289 18.3467 68.3846 17.876C68.5828 16.2035 69.536 15.4372 71.2441 15.5771L75.8055 15.9509Z" fill="white"/>
<path d="M74.052 10.2293C74.0648 9.86556 74.0205 9.50226 73.919 9.13936L75.0425 9.13141C75.1087 9.29584 75.1604 9.509 75.1977 9.77087C75.2394 10.0285 75.2554 10.2969 75.2455 10.576C75.1958 11.9885 74.4262 12.7001 72.9366 12.7106L69.1535 12.7373L69.1198 13.6953L68.4597 13.6999L67.95 12.6761L66.4825 12.1791L66.5149 11.2593L68.0764 11.2482L68.1467 9.24994L69.2765 9.24195L69.2062 11.2402L72.9639 11.2137C73.3236 11.2111 73.5934 11.1204 73.7731 10.9416C73.9488 10.7585 74.0417 10.5211 74.052 10.2293Z" fill="white"/>
</svg>
