<svg width="136" height="79" viewBox="0 0 136 79" fill="none" xmlns="http://www.w3.org/2000/svg">
<path d="M136 61.8438L100.726 0.803154C79.4416 11.6459 54.8596 10.7423 34.7744 0L0 61.0406C40.9699 83.9308 92.1323 85.738 136 61.8438Z" fill="#AD1927"/>
<path d="M45.6116 47.5872L44.1232 47.2937L45.6821 39.4685L43.0042 38.9406L43.2584 37.6644L50.1028 39.0138L49.8485 40.29L47.1706 39.762L45.6116 47.5872Z" fill="white"/>
<path d="M54.3295 48.5279C53.2461 48.3925 52.4377 47.9716 51.9042 47.2653C51.3754 46.5552 51.1811 45.646 51.3211 44.5377C51.4649 43.3999 51.8613 42.5411 52.5104 41.9611C53.1595 41.3812 53.9796 41.1532 54.9706 41.277C55.8902 41.3919 56.5813 41.7619 57.0441 42.3869C57.5068 43.0119 57.6764 43.8136 57.5528 44.7918L57.4517 45.5916L52.8096 45.0115C52.7452 45.6901 52.862 46.2335 53.1602 46.6418C53.4589 47.0459 53.9211 47.287 54.5468 47.3652C54.9583 47.4166 55.3452 47.4266 55.7075 47.3951C56.0745 47.3599 56.473 47.2775 56.9032 47.1479L56.7512 48.3507C56.3683 48.4777 55.9876 48.5538 55.609 48.579C55.2305 48.6042 54.804 48.5872 54.3295 48.5279ZM54.8289 42.398C54.3586 42.3392 53.9619 42.441 53.6387 42.7034C53.3197 42.9664 53.0968 43.3799 52.9701 43.9441L56.132 44.3392C56.1963 43.763 56.1126 43.3111 55.881 42.9836C55.6499 42.652 55.2992 42.4568 54.8289 42.398Z" fill="white"/>
<path d="M65.0852 47.3087C65.0458 47.9931 64.7664 48.505 64.2467 48.8442C63.7273 49.1792 63.0028 49.3203 62.0733 49.2675C61.1396 49.2145 60.3978 49.0303 59.8479 48.7151L59.9218 47.4287C60.7239 47.8557 61.4798 48.0894 62.1896 48.1297C63.1064 48.1818 63.5807 47.9311 63.6125 47.3777C63.6227 47.2002 63.5805 47.0495 63.4859 46.9254C63.3913 46.8014 63.2314 46.6694 63.0063 46.5294C62.7812 46.3895 62.4663 46.2275 62.0614 46.0434C61.2724 45.6849 60.7433 45.3412 60.4739 45.0122C60.2088 44.6835 60.0906 44.2699 60.1192 43.7714C60.1537 43.1714 60.4212 42.7204 60.9218 42.4182C61.4268 42.1121 62.0955 41.9826 62.9278 42.0299C63.7517 42.0767 64.5216 42.2879 65.2376 42.6634L64.6915 43.7577C63.9532 43.4021 63.3263 43.2097 62.8109 43.1804C62.025 43.1358 61.6192 43.3374 61.5935 43.7852C61.5809 44.0049 61.6716 44.1965 61.8657 44.3601C62.064 44.524 62.4998 44.7586 63.1732 45.0639C63.7391 45.3207 64.1477 45.5494 64.399 45.7502C64.6503 45.951 64.8322 46.1775 64.9449 46.4297C65.0578 46.6777 65.1046 46.9707 65.0852 47.3087Z" fill="white"/>
<path d="M70.7522 48.9008C71.1161 48.8988 71.4797 48.8397 71.843 48.7235L71.8492 49.847C71.6845 49.9199 71.4712 49.9803 71.2091 50.0282C70.9512 50.0804 70.6826 50.1073 70.4033 50.1088C68.9899 50.1164 68.2792 49.3754 68.271 47.8859L68.2504 44.1027L67.2919 44.1079L67.2883 43.4478L68.3136 42.8963L68.8133 41.4082L69.7337 41.4033L69.7422 42.9648L71.7417 42.954L71.7479 44.0838L69.7484 44.0946L69.7689 47.8524C69.7709 48.2121 69.8612 48.4782 70.0399 48.6507C70.2228 48.819 70.4602 48.9024 70.7522 48.9008Z" fill="white"/>
<path d="M76.3947 48.8227L74.9056 48.9113L74.4838 41.9035L75.9729 41.8149L76.3947 48.8227ZM74.2834 40.0523C74.2674 39.7862 74.3269 39.577 74.4618 39.4249C74.601 39.2724 74.8058 39.1882 75.0762 39.1721C75.3381 39.1565 75.5452 39.2162 75.6974 39.3513C75.8539 39.4861 75.9402 39.6866 75.9562 39.9527C75.9715 40.2062 75.9096 40.4112 75.7707 40.5679C75.6357 40.72 75.4372 40.8039 75.1753 40.8195C74.905 40.8356 74.6916 40.7762 74.5351 40.6414C74.3825 40.5021 74.2986 40.3057 74.2834 40.0523Z" fill="white"/>
<path d="M86.9063 48.0157L85.4193 48.1974L84.8899 43.9136C84.8234 43.376 84.6647 42.9883 84.4135 42.7504C84.1666 42.512 83.8079 42.4215 83.3375 42.479C82.7116 42.5555 82.2766 42.7963 82.0324 43.2013C81.7882 43.6063 81.7199 44.2435 81.8273 45.1128L82.2563 48.584L80.7756 48.7649L79.9146 41.7974L81.0739 41.6557L81.3947 42.5438L81.4703 42.5346C81.6393 42.1771 81.9059 41.8845 82.27 41.6566C82.6342 41.4288 83.0515 41.2862 83.5219 41.2287C85.1937 41.0243 86.1347 41.7726 86.3449 43.4736L86.9063 48.0157Z" fill="white"/>
<path d="M95.2272 39.4923L95.3873 40.2953L94.2536 40.7452C94.3905 40.8692 94.5154 41.03 94.6281 41.2278C94.7409 41.4255 94.8208 41.6427 94.868 41.8792C95.0094 42.5889 94.8757 43.1954 94.4668 43.6986C94.058 44.2019 93.4238 44.5383 92.5644 44.7076C92.3443 44.751 92.1417 44.7737 91.9566 44.7757C91.6799 45.0329 91.5676 45.2923 91.6197 45.5537C91.6512 45.7114 91.7474 45.8154 91.9084 45.8656C92.0736 45.915 92.3534 45.9008 92.7478 45.8231L93.9498 45.5862C94.7096 45.4365 95.319 45.4846 95.7779 45.7305C96.2369 45.9765 96.5271 46.4045 96.6487 47.0146C96.8042 47.7948 96.6024 48.46 96.0432 49.0102C95.484 49.5603 94.5962 49.9553 93.3797 50.195C92.4413 50.38 91.692 50.3551 91.1318 50.1205C90.5716 49.8859 90.2302 49.4614 90.1078 48.8472C90.0235 48.4239 90.0852 48.0408 90.293 47.6979C90.5058 47.3584 90.8419 47.0851 91.3011 46.8781C91.0895 46.8336 90.9011 46.7327 90.736 46.5754C90.5742 46.4132 90.473 46.2305 90.4325 46.0271C90.3812 45.7698 90.4105 45.5376 90.5202 45.3305C90.63 45.1234 90.8107 44.9045 91.0625 44.6737C90.6748 44.5905 90.3345 44.3988 90.0417 44.0985C89.7522 43.7933 89.5611 43.4082 89.4684 42.9434C89.3196 42.1964 89.4388 41.5712 89.8261 41.0679C90.2175 40.5637 90.8492 40.2257 91.7211 40.0539C91.9162 40.0154 92.1225 39.9899 92.3401 39.9772C92.5609 39.9595 92.7282 39.9546 92.842 39.9624L95.2272 39.4923ZM91.4008 48.5147C91.4636 48.8302 91.6532 49.0451 91.9694 49.1596C92.2898 49.2733 92.7074 49.2794 93.2223 49.178C94.0194 49.0209 94.5904 48.7897 94.9352 48.4845C95.28 48.1794 95.4147 47.8379 95.3395 47.4603C95.2799 47.1615 95.1294 46.969 94.8878 46.8829C94.6513 46.8001 94.2424 46.816 93.6611 46.9306L92.5526 47.1491C92.1332 47.2317 91.8184 47.3951 91.6082 47.6393C91.4029 47.8868 91.3338 48.1786 91.4008 48.5147ZM90.8884 42.6636C90.9744 43.0952 91.1506 43.4055 91.417 43.5945C91.6875 43.7828 92.0303 43.836 92.4455 43.7541C93.2925 43.5872 93.6259 43.0514 93.4456 42.1466C93.3562 41.6984 93.1817 41.3748 92.922 41.1758C92.6656 40.9719 92.3236 40.9121 91.8959 40.9963C91.4724 41.0798 91.1747 41.2636 91.0026 41.5477C90.8346 41.8309 90.7966 42.2029 90.8884 42.6636Z" fill="white"/>
</svg>
