<svg xmlns="http://www.w3.org/2000/svg" viewBox="0 0 600 600"><g fill="none" stroke-width="2"><path stroke="#80cc96" d="M197.29 300.5q-.6 32.86-.1 65.72.14 9.27 1.54 13.79c3.96 12.87 17.12 24.71 31.1 24.72q68.7.05 137.41.01 7.49-.01 11.76-1.32c11.59-3.55 21.07-12.95 24.48-24.48q1.5-5.07 1.52-16.53.03-30.83-.04-61.66" vector-effect="non-scaling-stroke"/><path stroke="gray" d="M404.96 300.75q.05-31.6.06-63.2.01-9.42-1.36-14.47-5.21-19.25-25.6-25.82-.47-.15-.95-.08c-.82.12-1.95-.18-2.62-.18q-70.16-.01-140.33.01-7.78 0-12.04 1.34c-11.08 3.49-20.08 12.74-23.44 23.81q-1.43 4.69-1.43 14.34-.03 32 .04 64" vector-effect="non-scaling-stroke"/><path stroke="#014d16" d="M404.96 300.75q-14.6-.75-36.02-.32c-18.08.37-45.24-.21-69.68 0-33.99.29-67.99-.63-101.97.07" vector-effect="non-scaling-stroke"/><path stroke="gray" d="M260.497 228.498a.27.27 0 0 0-.27-.27l-25.2.044a.27.27 0 0 0-.27.27l.006 3.46a.27.27 0 0 0 .27.27l25.2-.044a.27.27 0 0 0 .27-.27l-.006-3.46M300.26 232.29a.34.34 0 0 0 .23-.6c-3.08-2.75-6.46-3.43-10.89-3.44q-12.67-.01-25.34.01-.51 0-.51.51v2.97q0 .49.49.49l36.02.06M329.52 228.31l-20.76-.08a.31.31 0 0 0-.31.31l-.01 3.2a10.55.63.2 0 0 10.54.67h.28a10.55.63.2 0 0 10.55-.59l.02-3.2a.31.31 0 0 0-.31-.31M345.88 232.33l21.06-.08a.39.39 0 0 0 .39-.39l-.01-.93a2.76 1.25 89.8 0 0-1.26-2.75l-19.34.06a2.76 1.25 89.8 0 0-1.24 2.77l.01.93a.39.39 0 0 0 .39.39M260.487 236.238a.27.27 0 0 0-.27-.27l-25.2.044a.27.27 0 0 0-.27.27l.006 3.72a.27.27 0 0 0 .27.27l25.2-.044a.27.27 0 0 0 .27-.27l-.006-3.72M263.76 236.82v2.54a.89.89 0 0 0 .89.9l38.11.06a2.24 2.16.1 0 0 2.24-2.15 2.24 2.16.1 0 0-2.24-2.17l-38.11-.06a.89.89 0 0 0-.89.88M308.62 240.23l23.5.04a.26.26 0 0 0 .26-.26v-1.55a2.45 1.37-89.9 0 0-1.37-2.45l-21.28-.04a2.45 1.37-89.9 0 0-1.37 2.45v1.55a.26.26 0 0 0 .26.26M343.27 240.31l23.74-.04a.32.32 0 0 0 .32-.32v-1.17a2.85 1.42 89.9 0 0-1.42-2.85l-21.54.04a2.85 1.42 89.9 0 0-1.42 2.85v1.17a.32.32 0 0 0 .32.32M252.984 244.17a.31.31 0 0 0-.311-.308l-10.36.036a.31.31 0 0 0-.31.311l.013 3.5a.31.31 0 0 0 .311.31l10.36-.037a.31.31 0 0 0 .31-.311l-.013-3.5M282.507 244.41a.66.66 0 0 0-.66-.659l-9.88.018a.66.66 0 0 0-.66.66l.006 2.92a.66.66 0 0 0 .66.66l9.88-.018a.66.66 0 0 0 .66-.66l-.006-2.92M305.206 244.209a.51.51 0 0 0-.515-.506l-10.7.094a.51.51 0 0 0-.505.514l.028 3.24a.51.51 0 0 0 .515.506l10.7-.094a.51.51 0 0 0 .505-.514l-.028-3.24M315.75 247.73a.31.31 0 0 0 .31.31h18.89a.31.31 0 0 0 .3-.41l-1.21-3.67a.31.31 0 0 0-.29-.21h-17.69a.31.31 0 0 0-.31.31v3.67M340.65 244.16l.04 3.66a.28.28 0 0 0 .28.28l17.94-.15a1.12.52-.5 0 0 1.11-.53l-.02-3.18a1.12.52-.5 0 0-1.13-.51l-17.94.15a.28.28 0 0 0-.28.28M252.997 251.94a.44.44 0 0 0-.44-.439l-10.18.018a.44.44 0 0 0-.44.44l.006 3.36a.44.44 0 0 0 .44.44l10.18-.018a.44.44 0 0 0 .44-.44l-.006-3.36M271.22 255.19a.55.55 0 0 0 .55.56h28.2a.55.55 0 0 0 .44-.21l2.44-3.15a.55.55 0 0 0-.43-.89h-30.57a.55.55 0 0 0-.55.54l-.08 3.15M349.15 253.91q.21.51.1 1.19-.11.65.54.65h9.71q.5 0 .5-.5v-3.12q0-.63-.63-.63h-20.06a.61.61 0 0 0-.59.75q.37 1.6-1.02 2.28a.52.52 0 0 1-.74-.58q.53-2.42-1.71-2.43-9.37-.03-18.8-.02-.7 0-.7.7v2.92q0 .63.62.63h9.59q.62 0 .54-.62-.1-.74.15-1.42.34-.95.54.04l.28 1.43q.12.57.7.57h19.41q.58 0 .73-.56l.33-1.25q.21-.78.51-.03M346.38 259.55l-16.98-.12a.29.29 0 0 0-.29.29v.3a3.55 2.07-89.6 0 0 2.05 3.56l13.42.1a3.55 2.07-89.6 0 0 2.09-3.54v-.3a.29.29 0 0 0-.29-.29M253.043 259.77a.26.26 0 0 0-.26-.26l-10.6-.02a.26.26 0 0 0-.26.26l-.006 3.48a.26.26 0 0 0 .26.26l10.6.02a.26.26 0 0 0 .26-.26l.006-3.48M271.25 262.93a.53.53 0 0 0 .53.53l30.87.29a.53.53 0 0 0 .39-.89l-2.9-3.19a.53.53 0 0 0-.39-.17h-27.97a.53.53 0 0 0-.53.53v2.9" vector-effect="non-scaling-stroke"/><path stroke="gray" d="M326.705 259.964a.56.56 0 0 0-.568-.551l-9.86.155a.56.56 0 0 0-.55.568l.048 3.04a.56.56 0 0 0 .568.551l9.86-.155a.56.56 0 0 0 .55-.568l-.048-3.04M359.984 259.841a.36.36 0 0 0-.361-.359l-10.16.036a.36.36 0 0 0-.359.361l.012 3.46a.36.36 0 0 0 .361.359l10.16-.036a.36.36 0 0 0 .359-.361l-.012-3.46M282.525 267.69a.44.44 0 0 0-.443-.435l-10.4.09a.44.44 0 0 0-.436.444l.029 3.32a.44.44 0 0 0 .444.436l10.4-.09a.44.44 0 0 0 .435-.444l-.029-3.32M305.433 267.52a.26.26 0 0 0-.26-.26l-11.16.04a.26.26 0 0 0-.26.26l.014 3.7a.26.26 0 0 0 .26.26l11.16-.04a.26.26 0 0 0 .26-.26l-.014-3.7M326.665 267.692a.45.45 0 0 0-.454-.446l-10.02.088a.45.45 0 0 0-.445.454l.029 3.32a.45.45 0 0 0 .454.446l10.02-.088a.45.45 0 0 0 .445-.454l-.029-3.32M343.93 267.29l-12-.04a.3.3 0 0 0-.3.3l-.01.53a3.43 2.38-89.8 0 0 2.37 3.44l7.84.02a3.43 2.38-89.8 0 0 2.39-3.42l.01-.53a.3.3 0 0 0-.3-.3M360.005 267.801a.56.56 0 0 0-.562-.558l-9.78.034a.56.56 0 0 0-.558.562l.01 3.12a.56.56 0 0 0 .562.558l9.78-.034a.56.56 0 0 0 .558-.562l-.01-3.12M253.093 267.78a.27.27 0 0 0-.27-.27l-10.6-.02a.27.27 0 0 0-.27.27l-.006 3.46a.27.27 0 0 0 .27.27l10.6.02a.27.27 0 0 0 .27-.27l.006-3.46M260.5 275.37a.38.38 0 0 0-.38-.38h-24.96a.38.38 0 0 0-.38.38v3.5a.38.38 0 0 0 .38.38h24.96a.38.38 0 0 0 .38-.38v-3.5M304.59 274.96l-40.56.08a.28.28 0 0 0-.28.28v1.38a2.6 1.63 89.9 0 0 1.63 2.59l37.86-.06a2.6 1.63 89.9 0 0 1.63-2.61v-1.38a.28.28 0 0 0-.28-.28M326.58 275.41a.4.4 0 0 0-.4-.4H308.9a.4.4 0 0 0-.4.4v3.44a.4.4 0 0 0 .4.4h17.28a.4.4 0 0 0 .4-.4v-3.44M341.37 274.98l-7.04.02a.24.24 0 0 0-.24.24v.14a3.9 1.86 89.9 0 0 1.86 3.89h3.8a3.9 1.86 89.9 0 0 1.86-3.91v-.14a.24.24 0 0 0-.24-.24M367.25 275.38a.38.38 0 0 0-.38-.38h-17.36a.38.38 0 0 0-.38.38v3.48a.38.38 0 0 0 .38.38h17.36a.38.38 0 0 0 .38-.38v-3.48M260.493 283.102a.32.32 0 0 0-.32-.32l-25.08-.044a.32.32 0 0 0-.32.32l-.006 3.62a.32.32 0 0 0 .32.32l25.08.044a.32.32 0 0 0 .32-.32l.006-3.62M300.32 282.88l-35.8-.17q-.77 0-.77.77v2.98q0 .55.56.55 12.9-.02 25.8-.03c4.35-.01 7.31-.82 10.45-3.41a.39.39 0 0 0-.24-.69M326.62 283.05a.3.3 0 0 0-.3-.3h-17.5a.3.3 0 0 0-.3.3v3.68a.3.3 0 0 0 .3.3h17.5a.3.3 0 0 0 .3-.3v-3.68M336.38 283.28l.98 3.39q.33 1.18.85.07.75-1.59 1.16-3.29.17-.7-.55-.67l-2.14.08q-.42.01-.3.42M367.26 283.07a.31.31 0 0 0-.31-.31h-17.38a.31.31 0 0 0-.31.31v3.62a.31.31 0 0 0 .31.31h17.38a.31.31 0 0 0 .31-.31v-3.62" vector-effect="non-scaling-stroke"/><path stroke="#80cc96" d="m253.97 322.85.08 41.72a1.28 1.28 0 0 0 1.28 1.27l14.73-.02a16.34 13.47 89.9 0 0 13.44-16.37l-.02-11.6a16.34 13.47 89.9 0 0-13.5-16.31l-14.73.02a1.28 1.28 0 0 0-1.28 1.29M311.16 342.33q7.85-4.84 5-13.56c-3.18-9.73-18.97-7.11-26.72-6.99a.45.45 0 0 0-.44.45v43.04q0 .62.62.65c6.12.25 17.82 1.17 23.06-2.1 7.18-4.47 7.84-17.67-1.46-20.91q-.64-.22-.06-.58M332.42 357.6q.35-1.25 2.03-2.91c4.22-4.18 10.36-9.28 12.52-14.22 3.3-7.53.39-16.82-8.54-18.22-9.28-1.46-18.06 2.45-16.98 13.48q.06.52.58.52h7.22q.51 0 .56-.51c.34-3.52.44-8.35 5.25-8 6.87.51 3.86 10.99.93 14.08-7.12 7.49-14.1 11.95-14.82 23.42q-.04.66.63.67l25.95.13q.55 0 .56-.54l.13-5.72q.02-.69-.67-.69h-14.23q-1.55 0-1.12-1.49" vector-effect="non-scaling-stroke"/><path stroke="#80cc96" d="m263.12 329.02.1 29.52a1.01 1.01 0 0 0 1.02 1.01l2.77-.01a9.42 7.54 89.8 0 0 7.5-9.45l-.04-12.7a9.42 7.54 89.8 0 0-7.58-9.39l-2.77.01a1.01 1.01 0 0 0-1 1.01M298.03 329.31v9.58a1.07 1.07 0 0 0 1.07 1.07h3.11a5.54 5.26 0 0 0 5.54-5.26v-1.2a5.54 5.26 0 0 0-5.54-5.26h-3.11a1.07 1.07 0 0 0-1.07 1.07M297.97 347.12l.1 11.34a1.07 1.07 0 0 0 1.08 1.06l3.33-.03a6.38 6.34 89.5 0 0 6.28-6.44v-.72a6.38 6.34 89.5 0 0-6.4-6.32l-3.33.03a1.07 1.07 0 0 0-1.06 1.08" vector-effect="non-scaling-stroke"/></g><path fill="#fff" d="M0 0h600v600H0V0Zm197.29 300.5q-.6 32.86-.1 65.72.14 9.27 1.54 13.79c3.96 12.87 17.12 24.71 31.1 24.72q68.7.05 137.41.01 7.49-.01 11.76-1.32c11.59-3.55 21.07-12.95 24.48-24.48q1.5-5.07 1.52-16.53.03-30.83-.04-61.66.05-31.6.06-63.2.01-9.42-1.36-14.47-5.21-19.25-25.6-25.82-.47-.15-.95-.08c-.82.12-1.95-.18-2.62-.18q-70.16-.01-140.33.01-7.78 0-12.04 1.34c-11.08 3.49-20.08 12.74-23.44 23.81q-1.43 4.69-1.43 14.34-.03 32 .04 64Z"/><path d="M404.96 300.75q-14.6-.75-36.02-.32c-18.08.37-45.24-.21-69.68 0-33.99.29-67.99-.63-101.97.07q-.07-32-.04-64 0-9.65 1.43-14.34c3.36-11.07 12.36-20.32 23.44-23.81q4.26-1.34 12.04-1.34 70.17-.02 140.33-.01c.67 0 1.8.3 2.62.18q.48-.07.95.08 20.39 6.57 25.6 25.82 1.37 5.05 1.36 14.47-.01 31.6-.06 63.2Zm-144.463-72.252a.27.27 0 0 0-.27-.27l-25.2.044a.27.27 0 0 0-.27.27l.006 3.46a.27.27 0 0 0 .27.27l25.2-.044a.27.27 0 0 0 .27-.27l-.006-3.46Zm39.763 3.792a.34.34 0 0 0 .23-.6c-3.08-2.75-6.46-3.43-10.89-3.44q-12.67-.01-25.34.01-.51 0-.51.51v2.97q0 .49.49.49l36.02.06Zm29.26-3.98-20.76-.08a.31.31 0 0 0-.31.31l-.01 3.2a10.55.63.2 0 0 10.54.67h.28a10.55.63.2 0 0 10.55-.59l.02-3.2a.31.31 0 0 0-.31-.31Zm16.36 4.02 21.06-.08a.39.39 0 0 0 .39-.39l-.01-.93a2.76 1.25 89.8 0 0-1.26-2.75l-19.34.06a2.76 1.25 89.8 0 0-1.24 2.77l.01.93a.39.39 0 0 0 .39.39Zm-85.393 3.907a.27.27 0 0 0-.27-.269l-25.2.044a.27.27 0 0 0-.27.27l.006 3.72a.27.27 0 0 0 .27.27l25.2-.044a.27.27 0 0 0 .27-.27l-.006-3.72Zm3.273.583v2.54a.89.89 0 0 0 .89.9l38.11.06a2.24 2.16.1 0 0 2.24-2.15 2.24 2.16.1 0 0-2.24-2.17l-38.11-.06a.89.89 0 0 0-.89.88Zm44.86 3.41 23.5.04a.26.26 0 0 0 .26-.26v-1.55a2.45 1.37-89.9 0 0-1.37-2.45l-21.28-.04a2.45 1.37-89.9 0 0-1.37 2.45v1.55a.26.26 0 0 0 .26.26Zm34.65.08 23.74-.04a.32.32 0 0 0 .32-.32v-1.17a2.85 1.42 89.9 0 0-1.42-2.85l-21.54.04a2.85 1.42 89.9 0 0-1.42 2.85v1.17a.32.32 0 0 0 .32.32Zm-90.286 3.86a.31.31 0 0 0-.311-.308l-10.36.036a.31.31 0 0 0-.31.311l.013 3.5a.31.31 0 0 0 .311.31l10.36-.037a.31.31 0 0 0 .31-.311l-.013-3.5Zm29.523.24a.66.66 0 0 0-.66-.659l-9.88.018a.66.66 0 0 0-.66.66l.006 2.92a.66.66 0 0 0 .66.66l9.88-.018a.66.66 0 0 0 .66-.66l-.006-2.92Zm22.699-.201a.51.51 0 0 0-.515-.506l-10.7.094a.51.51 0 0 0-.505.514l.028 3.24a.51.51 0 0 0 .515.506l10.7-.094a.51.51 0 0 0 .505-.514l-.028-3.24Zm10.544 3.521a.31.31 0 0 0 .31.31h18.89a.31.31 0 0 0 .3-.41l-1.21-3.67a.31.31 0 0 0-.29-.21h-17.69a.31.31 0 0 0-.31.31v3.67Zm24.9-3.57.04 3.66a.28.28 0 0 0 .28.28l17.94-.15a1.12.52-.5 0 0 1.11-.53l-.02-3.18a1.12.52-.5 0 0-1.13-.51l-17.94.15a.28.28 0 0 0-.28.28Zm-87.653 7.78a.44.44 0 0 0-.44-.439l-10.18.018a.44.44 0 0 0-.44.44l.006 3.36a.44.44 0 0 0 .44.44l10.18-.018a.44.44 0 0 0 .44-.44l-.006-3.36Zm18.223 3.25a.55.55 0 0 0 .55.56h28.2a.55.55 0 0 0 .44-.21l2.44-3.15a.55.55 0 0 0-.43-.89h-30.57a.55.55 0 0 0-.55.54l-.08 3.15Zm77.93-1.28q.21.51.1 1.19-.11.65.54.65h9.71q.5 0 .5-.5v-3.12q0-.63-.63-.63h-20.06a.61.61 0 0 0-.59.75q.37 1.6-1.02 2.28a.52.52 0 0 1-.74-.58q.53-2.42-1.71-2.43-9.37-.03-18.8-.02-.7 0-.7.7v2.92q0 .63.62.63h9.59q.62 0 .54-.62-.1-.74.15-1.42.34-.95.54.04l.28 1.43q.12.57.7.57h19.41q.58 0 .73-.56l.33-1.25q.21-.78.51-.03Zm-2.77 5.64-16.98-.12a.29.29 0 0 0-.29.29v.3a3.55 2.07-89.6 0 0 2.05 3.56l13.42.1a3.55 2.07-89.6 0 0 2.09-3.54v-.3a.29.29 0 0 0-.29-.29Zm-93.337.22a.26.26 0 0 0-.26-.26l-10.6-.02a.26.26 0 0 0-.26.26l-.006 3.48a.26.26 0 0 0 .26.26l10.6.02a.26.26 0 0 0 .26-.26l.006-3.48Zm18.207 3.16a.53.53 0 0 0 .53.53l30.87.29a.53.53 0 0 0 .39-.89l-2.9-3.19a.53.53 0 0 0-.39-.17h-27.97a.53.53 0 0 0-.53.53v2.9Zm55.455-2.966a.56.56 0 0 0-.568-.551l-9.86.155a.56.56 0 0 0-.55.568l.048 3.04a.56.56 0 0 0 .568.551l9.86-.155a.56.56 0 0 0 .55-.568l-.048-3.04Zm33.279-.123a.36.36 0 0 0-.361-.359l-10.16.036a.36.36 0 0 0-.359.361l.012 3.46a.36.36 0 0 0 .361.359l10.16-.036a.36.36 0 0 0 .359-.361l-.012-3.46Zm-77.459 7.85a.44.44 0 0 0-.443-.436l-10.4.09a.44.44 0 0 0-.436.444l.029 3.32a.44.44 0 0 0 .444.436l10.4-.09a.44.44 0 0 0 .435-.444l-.029-3.32Zm22.909-.171a.26.26 0 0 0-.261-.26l-11.16.04a.26.26 0 0 0-.26.26l.014 3.7a.26.26 0 0 0 .26.26l11.16-.04a.26.26 0 0 0 .26-.26l-.014-3.7Zm21.231.172a.45.45 0 0 0-.454-.446l-10.02.088a.45.45 0 0 0-.445.454l.029 3.32a.45.45 0 0 0 .454.446l10.02-.088a.45.45 0 0 0 .445-.454l-.029-3.32Zm17.265-.402-12-.04a.3.3 0 0 0-.3.3l-.01.53a3.43 2.38-89.8 0 0 2.37 3.44l7.84.02a3.43 2.38-89.8 0 0 2.39-3.42l.01-.53a.3.3 0 0 0-.3-.3Zm16.075.511a.56.56 0 0 0-.562-.558l-9.78.034a.56.56 0 0 0-.558.562l.01 3.12a.56.56 0 0 0 .562.558l9.78-.034a.56.56 0 0 0 .558-.562l-.01-3.12Zm-106.912-.021a.27.27 0 0 0-.27-.27l-10.6-.02a.27.27 0 0 0-.27.27l-.006 3.46a.27.27 0 0 0 .27.27l10.6.02a.27.27 0 0 0 .27-.27l.006-3.46Zm7.407 7.59a.38.38 0 0 0-.38-.38h-24.96a.38.38 0 0 0-.38.38v3.5a.38.38 0 0 0 .38.38h24.96a.38.38 0 0 0 .38-.38v-3.5Zm44.09-.41-40.56.08a.28.28 0 0 0-.28.28v1.38a2.6 1.63 89.9 0 0 1.63 2.59l37.86-.06a2.6 1.63 89.9 0 0 1.63-2.61v-1.38a.28.28 0 0 0-.28-.28Zm21.99.45a.4.4 0 0 0-.4-.4H308.9a.4.4 0 0 0-.4.4v3.44a.4.4 0 0 0 .4.4h17.28a.4.4 0 0 0 .4-.4v-3.44Zm14.79-.43-7.04.02a.24.24 0 0 0-.24.24v.14a3.9 1.86 89.9 0 0 1.86 3.89h3.8a3.9 1.86 89.9 0 0 1.86-3.91v-.14a.24.24 0 0 0-.24-.24Zm25.88.4a.38.38 0 0 0-.38-.38h-17.36a.38.38 0 0 0-.38.38v3.48a.38.38 0 0 0 .38.38h17.36a.38.38 0 0 0 .38-.38v-3.48Zm-106.757 7.722a.32.32 0 0 0-.32-.32l-25.08-.044a.32.32 0 0 0-.32.32l-.006 3.62a.32.32 0 0 0 .32.32l25.08.044a.32.32 0 0 0 .32-.32l.006-3.62Zm39.827-.222-35.8-.17q-.77 0-.77.77v2.98q0 .55.56.55 12.9-.02 25.8-.03c4.35-.01 7.31-.82 10.45-3.41a.39.39 0 0 0-.24-.69Zm26.3.17a.3.3 0 0 0-.3-.3h-17.5a.3.3 0 0 0-.3.3v3.68a.3.3 0 0 0 .3.3h17.5a.3.3 0 0 0 .3-.3v-3.68Zm9.76.23.98 3.39q.33 1.18.85.07.75-1.59 1.16-3.29.17-.7-.55-.67l-2.14.08q-.42.01-.3.42Zm30.88-.21a.31.31 0 0 0-.31-.31h-17.38a.31.31 0 0 0-.31.31v3.62a.31.31 0 0 0 .31.31h17.38a.31.31 0 0 0 .31-.31v-3.62Z"/><rect width="25.74" height="4" x="-12.87" y="-2" fill="#fff" rx=".27" transform="rotate(-.1 132047.314 -141766.378)"/><path fill="#fff" d="m300.26 232.29-36.02-.06q-.49 0-.49-.49v-2.97q0-.51.51-.51 12.67-.02 25.34-.01c4.43.01 7.81.69 10.89 3.44a.34.34 0 0 1-.23.6ZM329.52 228.31a.31.31 0 0 1 .31.31l-.02 3.2a10.55.63.2 0 1-10.55.59h-.28a10.55.63.2 0 1-10.54-.67l.01-3.2a.31.31 0 0 1 .31-.31l20.76.08ZM345.88 232.33a.39.39 0 0 1-.39-.39l-.01-.93a2.76 1.25 89.8 0 1 1.24-2.77l19.34-.06a2.76 1.25 89.8 0 1 1.26 2.75l.01.93a.39.39 0 0 1-.39.39l-21.06.08Z"/><rect width="25.74" height="4.26" x="-12.87" y="-2.13" fill="#fff" rx=".27" transform="rotate(-.1 136556.486 -141756.713)"/><path fill="#fff" d="M263.76 236.82a.89.89 0 0 1 .89-.88l38.11.06a2.24 2.16.1 0 1 2.24 2.17 2.24 2.16.1 0 1-2.24 2.15l-38.11-.06a.89.89 0 0 1-.89-.9v-2.54ZM308.62 240.23a.26.26 0 0 1-.26-.26v-1.55a2.45 1.37-89.9 0 1 1.37-2.45l21.28.04a2.45 1.37-89.9 0 1 1.37 2.45v1.55a.26.26 0 0 1-.26.26l-23.5-.04ZM343.27 240.31a.32.32 0 0 1-.32-.32v-1.17a2.85 1.42 89.9 0 1 1.42-2.85l21.54-.04a2.85 1.42 89.9 0 1 1.42 2.85v1.17a.32.32 0 0 1-.32.32l-23.74.04Z"/><rect width="10.98" height="4.12" x="-5.49" y="-2.06" fill="#fff" rx=".31" transform="rotate(-.2 70580.299 -70780.485)"/><rect width="11.2" height="4.24" x="-5.6" y="-2.12" fill="#fff" rx=".66" transform="rotate(-.1 141017.282 -158534.763)"/><rect width="11.72" height="4.26" x="-5.86" y="-2.13" fill="#fff" rx=".51" transform="rotate(-.5 28325.274 -34180.971)"/><path fill="#fff" d="M315.75 247.73v-3.67a.31.31 0 0 1 .31-.31h17.69a.31.31 0 0 1 .29.21l1.21 3.67a.31.31 0 0 1-.3.41h-18.89a.31.31 0 0 1-.31-.31ZM340.65 244.16a.28.28 0 0 1 .28-.28l17.94-.15a1.12.52-.5 0 1 1.13.51l.02 3.18a1.12.52-.5 0 1-1.11.53l-17.94.15a.28.28 0 0 1-.28-.28l-.04-3.66Z"/><rect width="11.06" height="4.24" x="-5.53" y="-2.12" fill="#fff" rx=".44" transform="rotate(-.1 145442.984 -141663.015)"/><path fill="#fff" d="m271.22 255.19.08-3.15a.55.55 0 0 1 .55-.54h30.57a.55.55 0 0 1 .43.89l-2.44 3.15a.55.55 0 0 1-.44.21h-28.2a.55.55 0 0 1-.55-.56ZM348.64 253.94l-.33 1.25q-.15.56-.73.56h-19.41q-.58 0-.7-.57l-.28-1.43q-.2-.99-.54-.04-.25.68-.15 1.42.08.62-.54.62h-9.59q-.62 0-.62-.63v-2.92q0-.7.7-.7 9.43-.01 18.8.02 2.24.01 1.71 2.43a.52.52 0 0 0 .74.58q1.39-.68 1.02-2.28a.61.61 0 0 1 .59-.75h20.06q.63 0 .63.63v3.12q0 .5-.5.5h-9.71q-.65 0-.54-.65.11-.68-.1-1.19-.3-.75-.51.03ZM346.38 259.55a.29.29 0 0 1 .29.29v.3a3.55 2.07-89.6 0 1-2.09 3.54l-13.42-.1a3.55 2.07-89.6 0 1-2.05-3.56v-.3a.29.29 0 0 1 .29-.29l16.98.12Z"/><rect width="11.12" height="4" x="-5.56" y="-2" fill="#fff" rx=".26" transform="rotate(.1 -149704.685 141926.31)"/><path fill="#fff" d="M271.25 262.93v-2.9a.53.53 0 0 1 .53-.53h27.97a.53.53 0 0 1 .39.17l2.9 3.19a.53.53 0 0 1-.39.89l-30.87-.29a.53.53 0 0 1-.53-.53Z"/><rect width="10.98" height="4.16" x="-5.49" y="-2.08" fill="#fff" rx=".56" transform="rotate(-.9 16812.341 -20319.568)"/><rect width="10.88" height="4.18" x="-5.44" y="-2.09" fill="#fff" rx=".36" transform="rotate(-.2 75117.214 -101440.195)"/><rect width="11.28" height="4.2" x="-5.64" y="-2.1" fill="#fff" rx=".44" transform="rotate(-.5 31009.22 -31595.501)"/><rect width="11.68" height="4.22" x="-5.84" y="-2.11" fill="#fff" rx=".26" transform="rotate(-.2 77324.272 -85694.296)"/><rect width="10.92" height="4.22" x="-5.46" y="-2.11" fill="#fff" rx=".45" transform="rotate(-.5 31031.38 -36674.167)"/><path fill="#fff" d="M343.93 267.29a.3.3 0 0 1 .3.3l-.01.53a3.43 2.38-89.8 0 1-2.39 3.42l-7.84-.02a3.43 2.38-89.8 0 1-2.37-3.44l.01-.53a.3.3 0 0 1 .3-.3l12 .04Z"/><rect width="10.9" height="4.24" x="-5.45" y="-2.12" fill="#fff" rx=".56" transform="rotate(-.2 77348.887 -101439.165)"/><rect width="11.14" height="4" x="-5.57" y="-2" fill="#fff" rx=".27" transform="rotate(.1 -154288.327 141953.227)"/><rect width="25.72" height="4.26" x="234.78" y="274.99" fill="#fff" rx=".38"/><path fill="#fff" d="M304.59 274.96a.28.28 0 0 1 .28.28v1.38a2.6 1.63 89.9 0 1-1.63 2.61l-37.86.06a2.6 1.63 89.9 0 1-1.63-2.59v-1.38a.28.28 0 0 1 .28-.28l40.56-.08Z"/><rect width="18.08" height="4.24" x="308.5" y="275.01" fill="#fff" rx=".4"/><path fill="#fff" d="M341.37 274.98a.24.24 0 0 1 .24.24v.14a3.9 1.86 89.9 0 1-1.86 3.91h-3.8a3.9 1.86 89.9 0 1-1.86-3.89v-.14a.24.24 0 0 1 .24-.24l7.04-.02Z"/><rect width="18.12" height="4.24" x="349.13" y="275" fill="#fff" rx=".38"/><rect width="25.72" height="4.26" x="-12.86" y="-2.13" fill="#fff" rx=".32" transform="rotate(.1 -163106.09 142023.948)"/><path fill="#fff" d="m264.52 282.71 35.8.17a.39.39 0 0 1 .24.69c-3.14 2.59-6.1 3.4-10.45 3.41q-12.9.01-25.8.03-.56 0-.56-.55v-2.98q0-.77.77-.77Z"/><rect width="18.1" height="4.28" x="308.52" y="282.75" fill="#fff" rx=".3"/><path fill="#fff" d="m336.68 282.86 2.14-.08q.72-.03.55.67-.41 1.7-1.16 3.29-.52 1.11-.85-.07l-.98-3.39q-.12-.41.3-.42Z"/><rect width="18" height="4.24" x="349.26" y="282.76" fill="#fff" rx=".31"/><path fill="#01992c" d="M404.96 300.75q.07 30.83.04 61.66-.02 11.46-1.52 16.53c-3.41 11.53-12.89 20.93-24.48 24.48q-4.27 1.31-11.76 1.32-68.71.04-137.41-.01c-13.98-.01-27.14-11.85-31.1-24.72q-1.4-4.52-1.54-13.79-.5-32.86.1-65.72c33.98-.7 67.98.22 101.97-.07 24.44-.21 51.6.37 69.68 0q21.42-.43 36.02.32Zm-150.99 22.1.08 41.72a1.28 1.28 0 0 0 1.28 1.27l14.73-.02a16.34 13.47 89.9 0 0 13.44-16.37l-.02-11.6a16.34 13.47 89.9 0 0-13.5-16.31l-14.73.02a1.28 1.28 0 0 0-1.28 1.29Zm57.19 19.48q7.85-4.84 5-13.56c-3.18-9.73-18.97-7.11-26.72-6.99a.45.45 0 0 0-.44.45v43.04q0 .62.62.65c6.12.25 17.82 1.17 23.06-2.1 7.18-4.47 7.84-17.67-1.46-20.91q-.64-.22-.06-.58Zm21.26 15.27q.35-1.25 2.03-2.91c4.22-4.18 10.36-9.28 12.52-14.22 3.3-7.53.39-16.82-8.54-18.22-9.28-1.46-18.06 2.45-16.98 13.48q.06.52.58.52h7.22q.51 0 .56-.51c.34-3.52.44-8.35 5.25-8 6.87.51 3.86 10.99.93 14.08-7.12 7.49-14.1 11.95-14.82 23.42q-.04.66.63.67l25.95.13q.55 0 .56-.54l.13-5.72q.02-.69-.67-.69h-14.23q-1.55 0-1.12-1.49Z"/><path fill="#fff" d="M253.97 322.85a1.28 1.28 0 0 1 1.28-1.29l14.73-.02a16.34 13.47 89.9 0 1 13.5 16.31l.02 11.6a16.34 13.47 89.9 0 1-13.44 16.37l-14.73.02a1.28 1.28 0 0 1-1.28-1.27l-.08-41.72Zm9.15 6.17.1 29.52a1.01 1.01 0 0 0 1.02 1.01l2.77-.01a9.42 7.54 89.8 0 0 7.5-9.45l-.04-12.7a9.42 7.54 89.8 0 0-7.58-9.39l-2.77.01a1.01 1.01 0 0 0-1 1.01Z"/><path fill="#fff" d="M311.22 342.91c9.3 3.24 8.64 16.44 1.46 20.91-5.24 3.27-16.94 2.35-23.06 2.1q-.62-.03-.62-.65v-43.04a.45.45 0 0 1 .44-.45c7.75-.12 23.54-2.74 26.72 6.99q2.85 8.72-5 13.56-.58.36.06.58Zm-13.19-13.6v9.58a1.07 1.07 0 0 0 1.07 1.07h3.11a5.54 5.26 0 0 0 5.54-5.26v-1.2a5.54 5.26 0 0 0-5.54-5.26h-3.11a1.07 1.07 0 0 0-1.07 1.07Zm-.06 17.81.1 11.34a1.07 1.07 0 0 0 1.08 1.06l3.33-.03a6.38 6.34 89.5 0 0 6.28-6.44v-.72a6.38 6.34 89.5 0 0-6.4-6.32l-3.33.03a1.07 1.07 0 0 0-1.06 1.08ZM332.42 357.6q-.43 1.49 1.12 1.49h14.23q.69 0 .67.69l-.13 5.72q-.01.54-.56.54l-25.95-.13q-.67-.01-.63-.67c.72-11.47 7.7-15.93 14.82-23.42 2.93-3.09 5.94-13.57-.93-14.08-4.81-.35-4.91 4.48-5.25 8q-.05.51-.56.51h-7.22q-.52 0-.58-.52c-1.08-11.03 7.7-14.94 16.98-13.48 8.93 1.4 11.84 10.69 8.54 18.22-2.16 4.94-8.3 10.04-12.52 14.22q-1.68 1.66-2.03 2.91Z"/><path fill="#01992c" d="M263.12 329.02a1.01 1.01 0 0 1 1-1.01l2.77-.01a9.42 7.54 89.8 0 1 7.58 9.39l.04 12.7a9.42 7.54 89.8 0 1-7.5 9.45l-2.77.01a1.01 1.01 0 0 1-1.02-1.01l-.1-29.52ZM298.03 329.31a1.07 1.07 0 0 1 1.07-1.07h3.11a5.54 5.26 0 0 1 5.54 5.26v1.2a5.54 5.26 0 0 1-5.54 5.26h-3.11a1.07 1.07 0 0 1-1.07-1.07v-9.58ZM297.97 347.12a1.07 1.07 0 0 1 1.06-1.08l3.33-.03a6.38 6.34 89.5 0 1 6.4 6.32v.72a6.38 6.34 89.5 0 1-6.28 6.44l-3.33.03a1.07 1.07 0 0 1-1.08-1.06l-.1-11.34Z"/></svg>