<?xml version="1.0" encoding="UTF-8"?>
<svg id="Layer_1" data-name="Layer 1" xmlns="http://www.w3.org/2000/svg" viewBox="0 0 238.82 159">
  <defs>
    <style>
      .cls-1 {
        fill: #224482;
      }
    </style>
  </defs>
  <path class="cls-1" d="M9.51,146.63c27.8,4.71,58.51,7.98,87.95,7.98,62.96,0,119.02-13.27,119.02-48.25,0-19.81-19.63-34.34-91.77-42.52-32.71-3.46-40.89-8.36-40.89-14.08,0-8.99,13.08-15.35,48.25-15.35,15.08,0,40.79,2.46,59.69,5.92l20.81-26.17c-28.98-5.53-58.42-9.18-89.95-9.18C69.11,4.99,8.14,19.07,8.14,49.6c0,27.44,33.53,35.98,66.69,40.89,33.07,4.9,66.23,6.1,66.23,19.17s-24.17,15.54-46.97,15.54c-20.08,0-48.25-3.49-65.42-6.12l-18.44,27.62-.73-.05Z"/>
</svg>