<?xml version="1.0" encoding="UTF-8"?>
<svg width="1024" height="159" version="1.0" viewBox="-.494 -.494 112 17.5" xmlns="http://www.w3.org/2000/svg" xmlns:cc="http://creativecommons.org/ns#" xmlns:dc="http://purl.org/dc/elements/1.1/" xmlns:rdf="http://www.w3.org/1999/02/22-rdf-syntax-ns#">
<title>Siebel Systems logo</title>
<desc>A software company based in San Mateo, California, United States that specialised in CRM. Acquired by Oracle Corporation in 2005</desc>
 <metadata>
  <rdf:RDF>
   <cc:Work rdf:about="">
    <dc:format>image/svg+xml</dc:format>
    <dc:type rdf:resource="http://purl.org/dc/dcmitype/StillImage"/>
    <dc:title/>
   </cc:Work>
  </rdf:RDF>
 </metadata>
 <path d="m25.2 0.645h6.42v11.8h-6.42v-11.8zm-25 15c3.06 0.518 6.44 0.878 9.68 0.878 6.93 0 13.1-1.46 13.1-5.31 0-2.18-2.16-3.78-10.1-4.68-3.6-0.381-4.5-0.92-4.5-1.55 0-0.99 1.44-1.69 5.31-1.69 1.66 0 4.49 0.271 6.57 0.652l2.29-2.88c-3.19-0.609-6.43-1.01-9.9-1.01-5.89 0-12.6 1.55-12.6 4.91 0 3.02 3.69 3.96 7.34 4.5 3.64 0.539 7.29 0.671 7.29 2.11 0 1.46-2.66 1.71-5.17 1.71-2.21 0-5.31-0.384-7.2-0.674l-2.03 3.04zm33.8-3.08 16.3-0.01v-2.47l-10.1 0.0112 0.0212-2.29h4.78l1.52-2.37h-6.27l-0.00625-2.26 10.2-0.0138 0.0112-2.47-16.5 0.0075v11.9zm38.9-0.0225 16.2 0.0125v-2.47l-10-0.00625 5e-3 -2.27h4.78l1.52-2.37h-6.27l-0.0075-2.3 9.94-0.04-0.04-2.4h-16l-0.0188 11.9zm-20.1 0 10.5 0.0125c4.7 0 7.78-0.992 7.78-3.22 0-1.41-1.41-2.38-4.12-2.76v-0.0338c2.44-0.361 3.84-1.44 3.84-2.69 0-2.37-3.74-3.15-8.33-3.15h-9.67l-0.0075 11.9zm5.8-4.84h3.22c1.82 0 3.08 0.462 3.08 1.32 0 0.911-1.06 1.27-2.92 1.27h-3.39v-2.59zm0.0688-4.75h2.91c1.72 0 3.26 0.224 3.26 1.27 0 0.721-0.992 1.22-2.98 1.22h-3.19v-2.49zm32.6 9.59 16.6 0.0125-0.0125-2.57h-10.4l-0.03-9.29h-6.11l-5e-3 11.9" style="fill:#224482"/>
 <path d="m109 11.2c0-0.592 0.446-1.04 1.02-1.04 0.564 0 1.01 0.448 1.01 1.04 0 0.601-0.449 1.05-1.01 1.05-0.572 0-1.02-0.448-1.02-1.05m1.02 1.25c0.682 0 1.26-0.525 1.26-1.25 0-0.72-0.582-1.25-1.26-1.25-0.691 0-1.27 0.53-1.27 1.25 0 0.729 0.58 1.25 1.27 1.25m-0.265-1.16h0.251l0.381 0.63h0.246l-0.412-0.638c0.212-0.0288 0.375-0.144 0.375-0.399 0-0.285-0.169-0.412-0.51-0.412h-0.551v1.45h0.22v-0.63zm0-0.184v-0.449h0.298c0.152 0 0.312 0.0338 0.312 0.212 0 0.222-0.164 0.236-0.348 0.236h-0.262" style="fill:#224482"/>
</svg>
