<svg width="34" height="34" viewBox="0 0 34 34" fill="none" xmlns="http://www.w3.org/2000/svg">
<g clip-path="url(#clip0_603_3679)">
<path d="M11.0173 12.5836H23.4842H23.7417V12.8411V25.3081V25.5656H23.4842H11.0173H10.7598V25.3081V12.8411V12.5836H11.0173Z" fill="white"/>
<path d="M13.1296 25.0504H14.7445H15.002V25.308V28.5377C15.002 28.8219 14.8859 29.0802 14.6989 29.2672C14.5118 29.4543 14.2536 29.5704 13.9693 29.5704H13.9047C13.6205 29.5704 13.3622 29.4543 13.1752 29.2672C12.9882 29.0802 12.8721 28.8219 12.8721 28.5377V25.308V25.0504H13.1296Z" fill="white"/>
<path d="M19.7568 25.0504H21.3717H21.6292V25.308V28.5377C21.6292 28.8219 21.5131 29.0802 21.3261 29.2672C21.139 29.4543 20.8808 29.5704 20.5965 29.5704H20.5319C20.2477 29.5704 19.9895 29.4543 19.8024 29.2672C19.6154 29.0802 19.4993 28.8219 19.4993 28.5377V25.308V25.0504H19.7568Z" fill="white"/>
<path d="M9.46197 12.6741C9.72846 12.6741 9.97056 12.7829 10.1459 12.9582C10.3212 13.1336 10.43 13.3757 10.43 13.6421V20.9259C10.43 21.1924 10.3212 21.4345 10.1459 21.6098C9.97056 21.7851 9.72846 21.8939 9.46197 21.8939C9.19548 21.8939 8.95338 21.7851 8.77807 21.6098C8.60275 21.4345 8.4939 21.1924 8.4939 20.9259V13.6421C8.4939 13.3757 8.60275 13.1336 8.77807 12.9582C8.95338 12.7829 9.19548 12.6741 9.46197 12.6741Z" fill="white"/>
<path d="M25.0648 12.6741C25.3312 12.6741 25.5733 12.7829 25.7487 12.9582C25.924 13.1336 26.0328 13.3757 26.0328 13.6421V20.9259C26.0328 21.1924 25.924 21.4345 25.7487 21.6098C25.5734 21.7851 25.3313 21.8939 25.0648 21.8939C24.7983 21.8939 24.5562 21.7851 24.3808 21.6098C24.2055 21.4345 24.0967 21.1924 24.0967 20.9259V13.6421C24.0967 13.3757 24.2055 13.1336 24.3808 12.9582C24.5562 12.7829 24.7983 12.6741 25.0648 12.6741Z" fill="white"/>
<path fill-rule="evenodd" clip-rule="evenodd" d="M13.2015 7.56524L11.1056 5.46933C10.9046 5.26828 10.9046 4.94206 11.1056 4.741C11.3067 4.53995 11.6329 4.53995 11.834 4.741L13.9298 6.83691C14.1309 7.03796 14.1309 7.36418 13.9298 7.56524C13.7288 7.76629 13.4026 7.76629 13.2015 7.56524Z" fill="white"/>
<path fill-rule="evenodd" clip-rule="evenodd" d="M20.5236 6.83703L22.6195 4.74112C22.8205 4.54007 23.1468 4.54007 23.3478 4.74112C23.5489 4.94218 23.5489 5.2684 23.3478 5.46945L21.2519 7.56536C21.0509 7.76641 20.7246 7.76641 20.5236 7.56536C20.3225 7.3643 20.3225 7.03808 20.5236 6.83703Z" fill="white"/>
<path fill-rule="evenodd" clip-rule="evenodd" d="M12.524 7.80058C11.4354 8.8891 10.7598 10.3908 10.7598 12.0429V12.3004H11.0173H23.4842H23.7417V12.0428C23.7417 10.3908 23.066 8.8891 21.9775 7.80058C21.756 7.57907 21.5174 7.37465 21.2639 7.18957L21.0702 7.38327C20.9696 7.48381 20.8066 7.48381 20.706 7.38327C20.6055 7.28272 20.6055 7.11965 20.706 7.0191L20.8266 6.8985C19.9222 6.35168 18.8638 6.03638 17.7352 6.03638H16.7663C15.6254 6.03638 14.5563 6.35859 13.6454 6.91643L13.7481 7.01911C13.8486 7.11965 13.8486 7.28272 13.7481 7.38327C13.6476 7.48382 13.4845 7.48382 13.3839 7.38327L13.2103 7.20963C12.967 7.38941 12.7375 7.58706 12.524 7.80058ZM14.9367 8.29009C15.0943 8.44776 15.1919 8.66554 15.1919 8.90608C15.1919 9.14658 15.0943 9.36441 14.9367 9.52208C14.779 9.67971 14.5612 9.77726 14.3207 9.77726C14.0802 9.77726 13.8624 9.67971 13.7047 9.52208C13.5471 9.36441 13.4495 9.14658 13.4495 8.90608C13.4495 8.66554 13.5471 8.44776 13.7047 8.29009C13.8624 8.13245 14.0802 8.03491 14.3207 8.03491C14.5612 8.03491 14.779 8.13245 14.9367 8.29009ZM19.5648 9.52208C19.4071 9.36441 19.3096 9.14658 19.3096 8.90608C19.3096 8.66554 19.4071 8.44776 19.5648 8.29009C19.7224 8.13245 19.9402 8.03491 20.1808 8.03491C20.4213 8.03491 20.6391 8.13245 20.7967 8.29009C20.9544 8.44776 21.0519 8.66554 21.0519 8.90608C21.0519 9.1466 20.9544 9.36441 20.7967 9.52208C20.6391 9.67971 20.4213 9.77726 20.1808 9.77726C19.9402 9.77726 19.7224 9.67971 19.5648 9.52208Z" fill="white"/>
</g>
<defs>
<clipPath id="clip0_603_3679">
<rect width="32.9636" height="32.9636" fill="white" transform="translate(0.745361 0.727295)"/>
</clipPath>
</defs>
</svg>
