<?xml version="1.0" encoding="UTF-8"?>
<svg id="Layer_1" xmlns="http://www.w3.org/2000/svg" xmlns:xlink="http://www.w3.org/1999/xlink" version="1.1" viewBox="0 0 89.9 104.6">
  <!-- Generator: Adobe Illustrator 29.8.1, SVG Export Plug-In . SVG Version: 2.1.1 Build 2)  -->
  <defs>
    <style>
      .st0 {
        fill: none;
      }

      .st1 {
        fill: #b01cab;
      }

      .st2 {
        fill: #ff661c;
      }

      .st3 {
        fill: #00a1de;
      }

      .st4 {
        fill: #75bd21;
      }

      .st5 {
        fill: #cf0f2b;
      }

      .st6 {
        fill: #ffc728;
      }

      .st7 {
        clip-path: url(#clippath);
      }
    </style>
    <clipPath id="clippath">
      <path class="st0" d="M63.7,2.6c-5.3.4-11.6,3.8-15.2,8.2-3.3,4-6,10-5,15.7,5.8.2,11.8-3.3,15.3-7.8,3.3-4.2,5.7-10.1,4.8-16.2M65.7,25.8c-9,0-12.8,4.3-19,4.3s-11.3-4.3-19.1-4.3-15.7,4.6-20.9,12.6v.2c-2.3,3.4-3.7,7.9-4.2,12.7-.4,3.9-.3,8.2.4,12.7.7,4.5,1.9,8.8,3.5,12.7,1.9,4.7,4.1,9,6.7,12.7,4.1,6.1,9.5,12.6,16.5,12.7,6.5,0,8.4-4.2,17.2-4.2,8.8,0,10.5,4.3,17,4.2,6.7,0,12.2-6.7,16.3-12.7l1.2-1.7c2.2-3.3,4.2-7,6-10.9l.5-1.1c-5.9-2.2-10-6.5-12.3-11.6-1.8-4-2.4-8.4-1.7-12.7.8-4.7,3.1-9.3,7.2-12.7,1.2-1,2.5-1.9,3.8-2.6-5.1-6.4-12.3-10.1-19.1-10.1h0Z"/>
    </clipPath>
  </defs>
  <g class="st7">
    <g>
      <path class="st4" d="M-10.5-10.1h110.8v61.4H-10.5V-10.1Z"/>
      <path class="st6" d="M-10.5,38.6h110.8v25.4H-10.5v-25.4Z"/>
      <path class="st2" d="M-10.5,51.3h110.8v25.4H-10.5v-25.4Z"/>
      <path class="st5" d="M-10.5,63.9h110.8v25.4H-10.5v-25.4Z"/>
      <path class="st1" d="M-10.5,76.6h110.8v25.4H-10.5v-25.4Z"/>
      <path class="st3" d="M-10.5,89.3h110.8v25.4H-10.5v-25.4Z"/>
    </g>
  </g>
</svg>