<svg width="17" height="17" viewBox="0 0 22 22" fill="none" xmlns="http://www.w3.org/2000/svg">
<path d="M10.7976 0.829988C10.7976 0.829988 16.9867 0.552708 20.268 6.76345H10.271C10.271 6.76345 8.38434 6.70275 6.77273 8.98777C6.30978 9.94684 5.81215 10.9348 6.37059 12.8818C5.56613 11.5212 2.09976 5.49535 2.09976 5.49535C2.09976 5.49535 4.54483 1.07552 10.7976 0.829988Z" fill="#EF3F36"/>
<path d="M19.9477 16.5943C19.9477 16.5943 17.0918 22.0857 10.0664 21.8142C10.9345 20.3149 15.0663 13.1711 15.0663 13.1711C15.0663 13.1711 16.0646 11.5708 14.887 9.03447C14.2879 8.15341 13.6774 7.2319 11.7099 6.74076C13.2927 6.7264 20.2515 6.74076 20.2515 6.74076C20.2515 6.74076 22.8585 11.0653 19.9477 16.5943Z" fill="#FCD900"/>
<path d="M1.6916 16.6378C1.6916 16.6378 -1.64462 11.4236 2.10533 5.48438C2.9705 6.98366 7.10237 14.1275 7.10237 14.1275C7.10237 14.1275 7.9936 15.7914 10.78 16.0397C11.842 15.9618 12.9473 15.8953 14.3594 14.4423C13.5809 15.8174 10.0884 21.8259 10.0884 21.8259C10.0884 21.8259 5.03069 21.9184 1.6916 16.6378Z" fill="#61BC5B"/>
<path d="M6.87109 11.4174C6.87109 9.26825 8.61591 7.52344 10.7716 7.52344C12.9243 7.52344 14.672 9.26538 14.672 11.4174C14.672 13.5667 12.9272 15.3115 10.7716 15.3115C8.61878 15.3115 6.87109 13.5667 6.87109 11.4174Z" fill="url(#paint0_linear_2342_49657)"/>
<defs>
<linearGradient id="paint0_linear_2342_49657" x1="396.899" y1="13.0218" x2="396.899" y2="762.886" gradientUnits="userSpaceOnUse">
<stop stop-color="#86BBE5"/>
<stop offset="1" stop-color="#1072BA"/>
</linearGradient>
</defs>
</svg>
