<svg width="16" height="17" viewBox="0 0 16 17" fill="none" xmlns="http://www.w3.org/2000/svg">
<path d="M16 8.87487C16 7.58689 15.673 6.37692 15.0995 5.32543C17.5439 -0.307777 12.4804 0.517278 12.1984 0.573474C11.1257 0.787247 10.1332 1.1304 9.21774 1.56546C9.08274 1.5577 8.94687 1.55343 8.81006 1.55343C5.39349 1.55343 2.53361 3.97998 1.80167 7.23291C3.60243 5.17581 4.86261 4.34579 5.6173 4.01371C5.49766 4.12271 5.37952 4.23341 5.26293 4.34579C5.2243 4.38289 5.18712 4.42057 5.14905 4.45786C5.0726 4.53238 4.99681 4.60758 4.92168 4.68347C4.8773 4.72847 4.83418 4.77385 4.79043 4.81922C4.72441 4.88736 4.65889 4.95599 4.59386 5.0251C4.54799 5.07411 4.50324 5.12318 4.45824 5.17225C4.39808 5.23764 4.33839 5.30349 4.27918 5.36979C4.23355 5.42115 4.18855 5.47244 4.14368 5.52393C4.04245 5.63986 3.94252 5.75697 3.84393 5.87523C3.79253 5.93703 3.74149 5.99912 3.6908 6.06151C3.64618 6.1165 3.60168 6.17136 3.55799 6.22628C3.51114 6.28531 3.4646 6.34458 3.41836 6.4041C3.37361 6.4615 3.32893 6.51878 3.28524 6.57612C3.24361 6.63067 3.20324 6.68502 3.16255 6.73943C3.11661 6.80097 3.0703 6.86245 3.02561 6.92361C2.99361 6.96739 2.96293 7.0108 2.93149 7.05439C2.66056 7.43073 2.40108 7.81548 2.15342 8.2081C2.1528 8.20899 2.15217 8.20988 2.15174 8.21083C2.09115 8.30706 2.03125 8.40373 1.97205 8.50085C1.96892 8.506 1.96567 8.51122 1.96255 8.5165C1.90523 8.61066 1.84859 8.70523 1.79261 8.80022L1.78674 8.81009C1.64638 9.04813 1.51017 9.2887 1.37817 9.53166C0.730611 10.7266 0.41536 11.5615 0.401735 11.611C-1.64314 19.0552 4.73899 15.9116 5.62955 15.4423C6.58849 15.9248 7.66799 16.1962 8.81006 16.1962C11.9364 16.1962 14.5963 14.1642 15.5864 11.3264H11.8086C11.2496 12.2881 10.1734 12.9394 8.93699 12.9394C7.12549 12.9394 5.65705 11.5419 5.65705 9.81779H15.9408C15.9798 9.50907 16 9.19436 16 8.87487ZM14.6569 1.67015C15.2761 2.09573 15.7726 2.76397 14.9198 5.01454C14.1018 3.675 12.8712 2.62421 11.4085 2.04666C12.0739 1.71948 13.7216 1.02737 14.6569 1.67015ZM1.49874 15.4274C0.994361 14.9008 0.905236 13.6181 2.01811 11.2809C2.57967 12.925 3.70036 14.3027 5.14887 15.177C4.42849 15.5808 2.51599 16.4899 1.49874 15.4274ZM5.64118 7.81574C5.69868 6.14011 7.1308 4.79848 8.89037 4.79848C10.6499 4.79848 12.0821 6.14011 12.1396 7.81574H5.64118Z" fill="#1EBBEE"/>
</svg>
